<svg xmlns="http://www.w3.org/2000/svg" viewBox="0 0 1000 1000"><defs><style>.cls-1{fill:#bf7445;}.cls-1,.cls-2{stroke:#603813;stroke-miterlimit:10;}.cls-2{fill:#f29d66;}.cls-3{fill:#ffdcc1;}.cls-4{fill:#99bc3c;}.cls-5{fill:#f1d69e;}.cls-6{fill:#fff6ed;}.cls-7{fill:#ea910e;}.cls-8{fill:#ffcf84;}</style></defs><g id="Desayuno"><path class="cls-1" d="M432.33,812.44,765.49,638V607.58c0-24.84-167.62-335.24-167.62-335.24,5.38-66.79-24.83-106.57-129.33-96.6-85.88,16.93-205.9,76.94-270,142.13C113.65,447.2,224.56,480,224.56,480Z"/><path class="cls-2" d="M449.92,781.4l316.61-178L598.91,268.2s20.69-110.42-129.33-96.6c-145.89,44.87-204.87,83.15-270.06,142.13-79.67,110.71,37.25,132.44,37.25,132.44Z"/><path class="cls-3" d="M734.45,583.78,455.09,747.26l-180-300.06S150.9,430.65,233.67,325.11c29-33.11,159.34-120,250.39-129.29,130.37,1,95.19,92,95.19,92Z"/><path class="cls-4" d="M554.75,709.58c5.68,2,74.06-57.52,92-55.12,1.46-9.92-10.91-34.54-10.91-34.54s6.21-31.92-2.78-36.57c-5.07,3.51-5.94,9.77-10.5,6.29s-4.72-42.11-4.72-42.11c23.88,2.39,34.41-9.8,33-35.06,26.56-6.62,37-17.72,6.5-40.22,0,0,.39-26.16,11-34.31,26.44,9.86,31.53-1.9,7.77-42.9-7.31-11.39-12.47-69.49-35.12-69.78-.32-5.88-3.34-10.84-9-14.94,38.37,0,28.67-32.73-15.5-25.87-14.74-41.36-42.85-71-38.22-43.07-25.46-8.17-45.1-22.41-50.07-5.37l-50.91-16.35s-54.54-5.66-56.81,4.11,28.79,9,26.9,14.58-44.23,14.45-56.75,7.41c0,0,6.62-7.31,5.35-11.81s-38-3.54-51.91,21.84c28.93-.67,17,11.5,8.4,14s-11.51-2.41-19,1.1-17.45,12.37-17.45,12.37c-5.95-2.46-4.22-7-8.43-14.07s-46,47.65-39.42,57.08,33.77-15.45,35.58,3.54-22.51,13.48-29.69,20.65-26,15.6-20.25-5.07c-25.17-16.48-45.92,92.52-37.34,94.07s26-20.38,24.19,13.24S225.23,471.54,223.55,464c-5.34-7.32-12.55,28.32,1.67,31.5-5.09,34.6,21.23,8.32,22.63,21.82s-24.79,46.4,12.9,58.24c26.07,19.11,19.69,2.54,25-9.27,19-6.6,13,69.64,32.45,68.52s1.27-7.45,11.54-12.65,16.72,31.1,25.72,33.35,17.31-19,25.75-19.25,6.88,13.09,15.47,9.86.86-27.29,10-28,1.25,26,10.11,26.45,17.6-24.88,54.43-9.18c10.28-.9-18.42,8.64-5.77,15.4s14.77-4.07,27.29-3.92,18.14,11.13,20,15.77,18.18,3.21,21.46,9.49S519.81,701.91,521,698.75C523.33,692.7,552.37,708.72,554.75,709.58Z"/><path class="cls-5" d="M587.53,314.76c20.69,2.07,109.67,41.39,109.67,82.78s-31,82.77-33.11,109.67,39.32,89-39.31,159.34c-109.68,86.92-186.25-8.27-215.22-18.62s-107.56,0-140.69-63.12c-22.78-50.7,4.16-95.91,0-123s-6.23-29.12,0-72.91c24.81-43.13,53.78-99,122.07-132.11C502.68,221.64,566.83,312.69,587.53,314.76Z"/><path class="cls-6" d="M567.23,326.94c19.26,2,102,39.42,102,78.84s-28.88,78.84-30.81,104.46S675,595,601.89,662c-102,82.78-173.27-7.88-200.22-17.74s-100.07,0-130.89-60.11c-21.2-48.29,3.87-91.36,0-117.13s-5.8-27.74,0-69.44c23.08-41.08,50-94.29,113.56-125.83C488.3,238.25,548,325,567.23,326.94Z"/><circle class="cls-7" cx="470.61" cy="471" r="122.09"/><circle class="cls-8" cx="461.3" cy="461.69" r="110.71"/></g></svg>