<svg xmlns="http://www.w3.org/2000/svg" viewBox="0 0 1000 1000"><defs><style>.cls-1{fill:#eceff4;}.cls-2{fill:#fff;}.cls-3{fill:#466f29;}.cls-4{fill:#5f8828;}.cls-5{fill:#6e9226;}.cls-6{fill:#a6be0e;stroke:#5f8828;}.cls-14,.cls-6,.cls-7{stroke-miterlimit:10;}.cls-7{fill:#c4151a;stroke:#93230d;}.cls-8{fill:#f7867e;}.cls-9{fill:#ba271f;}.cls-10{fill:#c52321;}.cls-11{fill:#f5b790;}.cls-12{fill:#8c453d;}.cls-13{fill:#b26f5e;}.cls-14{fill:#682e22;stroke:#682e22;stroke-width:3px;}</style></defs><g id="Comida"><circle class="cls-1" cx="511" cy="481" r="432"/><circle class="cls-2" cx="511" cy="481" r="408.76"/><circle class="cls-1" cx="519.66" cy="479.73" r="316.66"/><circle class="cls-2" cx="519.66" cy="479.73" r="299.62"/><path class="cls-3" d="M545.89,304.56S533.3,318,540.17,330.62s14.35,8.89,14.35,8.89-6.82,4.81,1.37,11.17,13,1.19,13,1.19,4.17,13.91,21.59,12.19a42.39,42.39,0,0,0,27-13.42s17-5,27.31-13.06,2-16.13,2-16.13,13.31-9.63,12.57-19.88-14.13-18-14.13-18,5.85-7.17-3.26-18.79S625.17,258,625.17,258s-3.62-8.61-18.46-11.58-13.85,10.86-13.85,10.86-7-4.73-14.45,0-4.73,10.89-4.73,10.89-6.32-5.23-15.52,2.9-.82,16.17-.82,16.17-7.92-2.13-13.37,4.22S545.89,304.56,545.89,304.56Z"/><path class="cls-3" d="M337.55,244.73s-13.53,14.41-6.14,28,15.41,9.54,15.41,9.54-7.33,5.18,1.48,12,13.93,1.29,13.93,1.29,4.48,14.94,23.2,13.09a45.58,45.58,0,0,0,29-14.42s18.23-5.32,29.34-14,2.1-17.33,2.1-17.33,14.29-10.35,13.5-21.37-15.18-19.37-15.18-19.37,6.29-7.7-3.51-20.19-18-7.22-18-7.22-3.89-9.25-19.83-12.44S388,194,388,194s-7.48-5.09-15.52,0-5.08,11.7-5.08,11.7-6.8-5.62-16.68,3.12-.88,17.37-.88,17.37-8.52-2.29-14.37,4.54S337.55,244.73,337.55,244.73Z"/><path class="cls-4" d="M525.74,248.73s-12.6,13.42-5.72,26.07,14.35,8.88,14.35,8.88-6.83,4.82,1.37,11.17,13,1.2,13,1.2,4.17,13.9,21.59,12.18a42.4,42.4,0,0,0,27-13.41s17-5,27.3-13.06,2-16.14,2-16.14,13.3-9.63,12.57-19.88-14.14-18-14.14-18,5.86-7.16-3.25-18.79S605,202.21,605,202.21s-3.62-8.61-18.46-11.58-13.85,10.86-13.85,10.86-7-4.74-14.45,0-4.73,10.89-4.73,10.89-6.32-5.24-15.52,2.9-.82,16.16-.82,16.16-7.92-2.13-13.37,4.23S525.74,248.73,525.74,248.73Z"/><path class="cls-4" d="M435.19,139.24s-28.84-4.29-39.11,16.09,1.4,26.7,1.4,26.7-12.43-4.53-13.31,11.88,10.16,18,10.16,18S380,229.86,398,251s41.88,23.06,41.88,23.06,21.78,17.61,41.66,23.75,22.77-12,22.77-12,24.56,8.62,37.24-1.6,10.71-34.68,10.71-34.68,14.61,1.15,21.52-21.21-6.37-27.86-6.37-27.86,7.94-12.49-1.6-34.49-26.65-8.23-26.65-8.23-.12-13.34-13-18.83-18.44,3.68-18.44,3.68,1.1-13-17.8-17.59-21.78,13.53-21.78,13.53-4.39-12.24-17.58-13.59S435.19,139.24,435.19,139.24Z"/><path class="cls-5" d="M437.87,147.53s-28.84-4.29-39.1,16.09,1.39,26.7,1.39,26.7-12.43-4.53-13.3,11.88,10.16,18,10.16,18-14.35,18,3.63,39.12,41.87,23.06,41.87,23.06,21.79,17.61,41.67,23.75,22.76-12,22.76-12,24.56,8.62,37.24-1.6,10.71-34.68,10.71-34.68,14.62,1.15,21.52-21.21-6.37-27.86-6.37-27.86,7.94-12.49-1.6-34.49S541.8,166,541.8,166s-.12-13.34-13-18.83-18.45,3.67-18.45,3.67,1.11-13-17.79-17.58-21.79,13.53-21.79,13.53-4.38-12.24-17.58-13.59S437.87,147.53,437.87,147.53Z"/><path class="cls-4" d="M329.18,313.75s-12.59,13.41-5.72,26.07,14.35,8.88,14.35,8.88-6.82,4.82,1.37,11.17,13,1.2,13,1.2,4.17,13.9,21.59,12.18a42.39,42.39,0,0,0,27-13.42s17-4.95,27.31-13.06S430,330.64,430,330.64s13.31-9.63,12.57-19.88-14.13-18-14.13-18,5.85-7.16-3.26-18.79-16.74-6.72-16.74-6.72-3.62-8.61-18.46-11.57-13.85,10.86-13.85,10.86-7-4.74-14.45,0S357,277.37,357,277.37s-6.32-5.24-15.52,2.9-.81,16.16-.81,16.16-7.93-2.13-13.38,4.23S329.18,313.75,329.18,313.75Z"/><path class="cls-5" d="M336.26,315s-11.79,12.56-5.36,24.4,13.43,8.31,13.43,8.31-6.39,4.51,1.28,10.46,12.14,1.11,12.14,1.11,3.9,13,20.2,11.41a39.66,39.66,0,0,0,25.29-12.56s15.88-4.64,25.55-12.22,1.83-15.1,1.83-15.1,12.45-9,11.76-18.6-13.22-16.88-13.22-16.88,5.48-6.7-3.05-17.58-15.66-6.29-15.66-6.29-3.39-8.05-17.28-10.83-13,10.16-13,10.16a12.81,12.81,0,0,0-13.52,0c-7,4.4-4.43,10.19-4.43,10.19s-5.91-4.9-14.52,2.71-.77,15.13-.77,15.13-7.42-2-12.51,3.95S336.26,315,336.26,315Z"/><path class="cls-6" d="M521.59,456.71l-57.74,3.55s9.35-53.37,9.18-73.49-14.32-25-26.59-36.58-26.84-16.88-36.2-16.85-26.74,8.46-26.74,8.46l.56-4.61,13.08-10.26-15.28-.53-.46-5.9,13.83,1.67-17.86-10.84,4.67-3.67,18.36,10.46L387.51,299l3.91-3.06s16,21.85,20.08,27,31.88,16.73,36.77,15,9.81-32.72,4-42.77c-3.77-7.47-34.53-33.41-34.53-33.41l-18.46,14.46-5.7-8,15.46-12.12-6-7.78-19,2.38-1.75-4.89,17.7-1.37-3.87-20.9,6.39.16L405.87,244l10.41,10.61.21-21,4.61.56,3.11,22.59s43.28,41.91,46.69,40.95-6.68-43.11-10.17-52.89-36.8-43.06-36.8-43.06l6.16-4.83,13.1,16.71-.94-19,5.9-.46L450,217.74s14.91,21.68,16.66,26.57,6.6,32.36,12.5,31.91.9-65.37.9-65.37L469.4,197.29l3.37-3.68,6.37,8.12.93-20.1,5.62,1.85L485,198.6l11.34-6.81,4.13,5.26-12,11.33s4.72,67.21,8,68.78S520,190,520,190l5.62,1.85.35,16.41,13.75-17,5.16,6.59-15.7,22.53s-29.88,92.25-27.86,94.84,16.73-31.88,22.17-38.24S554,246.71,554,246.71l-2.37-19,6.18-2.75,2.65,16.69,10.93-10-.67-16.81,6.46-5.06,3.39,20.28,23,2.79-.84,6.92L578.46,238l-14.21,11.14,19.91,9.42-3.88,3-21.47-6.11s-20.22,22.1-34,39.14S514.26,353,514.26,353l64.14-56.53,18.92-21.09,4.33,2.86-10.72,20.91,24.44-8.73L613,300.61,592.68,304l19.9,9.43-2.86,4.33s-23.33-.49-35.13.42-40.5,25.49-52,42.81S521.59,456.71,521.59,456.71Z"/><path class="cls-4" d="M538.7,305.65s-12.6,13.41-5.72,26.06,14.34,8.89,14.34,8.89-6.82,4.81,1.38,11.17,13,1.19,13,1.19,4.16,13.91,21.59,12.19a42.39,42.39,0,0,0,27-13.42s17-5,27.3-13.06,2-16.13,2-16.13,13.3-9.63,12.57-19.88-14.14-18-14.14-18,5.86-7.17-3.26-18.79S618,259.12,618,259.12s-3.62-8.61-18.46-11.58-13.86,10.86-13.86,10.86-7-4.73-14.44,0-4.73,10.88-4.73,10.88-6.32-5.23-15.52,2.9-.82,16.17-.82,16.17-7.93-2.13-13.37,4.22S538.7,305.65,538.7,305.65Z"/><path class="cls-4" d="M344.19,247.76s-12.59,13.41-5.72,26.07,14.35,8.88,14.35,8.88-6.82,4.81,1.37,11.17,13,1.19,13,1.19,4.17,13.91,21.59,12.19a42.39,42.39,0,0,0,27-13.42s17-5,27.31-13.06S445,264.65,445,264.65s13.31-9.63,12.57-19.88-14.13-18-14.13-18,5.85-7.17-3.26-18.79-16.74-6.72-16.74-6.72-3.62-8.61-18.46-11.57-13.85,10.85-13.85,10.85-7-4.73-14.45,0S372,211.37,372,211.37s-6.32-5.23-15.52,2.9-.82,16.17-.82,16.17-7.92-2.13-13.37,4.23S344.19,247.76,344.19,247.76Z"/><path class="cls-3" d="M369.68,372s18.19,2.79,20.59,17-5.81,15.84-5.81,15.84,8.34-.42,5.81,9.64-9.47,8.94-9.47,8.94,5.3,13.51-9.48,22.91a42.41,42.41,0,0,1-29.54,6.11S325.36,459,312.23,459s-11.49-11.49-11.49-11.49-16.41.63-22.16-7.9,0-22.91,0-22.91-9-2-9-16.79,9-15.62,9-15.62-2.46-9,7.39-20.5,17.6,0,17.6,0,2.56-8,11.36-8.93,10.43,5.65,10.43,5.65,1.75-8,14-7.29S350,365.46,350,365.46s4.92-6.57,13.13-4.93S369.68,372,369.68,372Z"/><path class="cls-3" d="M496.74,196.4s19.54,3,22.12,18.26-6.25,17-6.25,17,9-.45,6.25,10.35-10.18,9.61-10.18,9.61,5.69,14.52-10.18,24.62a45.6,45.6,0,0,1-31.75,6.57s-17.63,7.05-31.74,7.05-12.35-12.35-12.35-12.35-17.64.68-23.81-8.48,0-24.61,0-24.61-9.7-2.18-9.7-18.05,9.7-16.78,9.7-16.78-2.65-9.68,7.94-22,18.91,0,18.91,0,2.75-8.61,12.2-9.6,11.22,6.08,11.22,6.08,1.87-8.62,15-7.84,11.41,13.13,11.41,13.13,5.29-7.06,14.11-5.29S496.74,196.4,496.74,196.4Z"/><path class="cls-4" d="M351.1,315.65s18.19,2.79,20.59,17-5.81,15.84-5.81,15.84,8.34-.42,5.81,9.64-9.47,8.94-9.47,8.94,5.3,13.52-9.47,22.91a42.37,42.37,0,0,1-29.55,6.11s-16.41,6.57-29.55,6.57-11.49-11.49-11.49-11.49-16.41.63-22.15-7.89,0-22.91,0-22.91-9-2-9-16.8S260,328,260,328s-2.47-9,7.38-20.5,17.6,0,17.6,0,2.56-8,11.36-8.94,10.44,5.65,10.44,5.65,1.74-8,14-7.29,10.62,12.22,10.62,12.22,4.92-6.57,13.13-4.93S351.1,315.65,351.1,315.65Z"/><path class="cls-4" d="M354.82,173.61s20.05-21.16,40.7-11.45S410.9,184,410.9,184s7-11.24,17.8,1.14,3.08,20.41,3.08,20.41,22.39,5.3,21.28,33-18.73,44-18.73,44-6.28,27.3-18.14,44.39-25.34,4.58-25.34,4.58-14,21.94-30.28,21.72-29.83-20.69-29.83-20.69-10.79,9.93-30-3.42-12.17-25.85-12.17-25.85-14-4.93-20-28.13,15.9-22.92,15.9-22.92-8.13-10.57-1.38-22.85,16.79-8.48,16.79-8.48S291,211.42,303,196.12s25.5-2.79,25.5-2.79-4.1-12.34,5.45-21.55S354.82,173.61,354.82,173.61Z"/><path class="cls-5" d="M357.82,181.79s20.05-21.16,40.7-11.45,15.38,21.87,15.38,21.87,7-11.24,17.8,1.14,3.08,20.41,3.08,20.41,22.39,5.3,21.28,33-18.73,44-18.73,44-6.28,27.3-18.14,44.39-25.33,4.58-25.33,4.58-14,21.94-30.29,21.73-29.83-20.7-29.83-20.7-10.79,9.93-30-3.41-12.18-25.86-12.18-25.86-14-4.93-20-28.13,15.89-22.92,15.89-22.92-8.13-10.57-1.37-22.85,16.78-8.48,16.78-8.48S294,219.6,306,204.3s25.5-2.79,25.5-2.79-4.1-12.34,5.45-21.54S357.82,181.79,357.82,181.79Z"/><path class="cls-4" d="M545.91,245.56s18.19,2.79,20.58,17-5.81,15.84-5.81,15.84S569,278,566.49,288,557,297,557,297s5.3,13.52-9.47,22.91A42.43,42.43,0,0,1,518,326s-16.41,6.57-29.54,6.57S477,321.07,477,321.07s-16.42.63-22.16-7.89,0-22.91,0-22.91-9-2-9-16.8,9-15.61,9-15.61-2.46-9,7.39-20.5,17.6,0,17.6,0,2.55-8,11.35-8.94,10.44,5.65,10.44,5.65,1.75-8,14-7.29S526.21,239,526.21,239s4.93-6.57,13.13-4.93S545.91,245.56,545.91,245.56Z"/><path class="cls-5" d="M541.12,250.92s17,2.61,19.27,15.9S555,281.64,555,281.64s7.8-.39,5.44,9-8.87,8.37-8.87,8.37,5,12.65-8.86,21.44A39.69,39.69,0,0,1,515,326.19s-15.36,6.14-27.65,6.14-10.75-10.75-10.75-10.75-15.36.59-20.74-7.39,0-21.44,0-21.44-8.45-1.89-8.45-15.72,8.45-14.61,8.45-14.61-2.3-8.43,6.91-19.18,16.48,0,16.48,0a12.8,12.8,0,0,1,10.62-8.36c8.23-.86,9.77,5.29,9.77,5.29s1.63-7.51,13.1-6.83,9.94,11.44,9.94,11.44,4.61-6.15,12.29-4.61S541.12,250.92,541.12,250.92Z"/><path class="cls-6" d="M482.68,476.78,530.31,444S490,407.71,477.75,391.77s-4.14-28.48-1.64-45.19,10.7-29.84,18.09-35.59,26.26-9.85,26.26-9.85l-3.28-3.28H500.56l11.7-9.85L509,283.09l-9.85,9.85,7.37-19.56h-5.93l-8,19.56-1.64-23h-5s.85,27.08.85,33.65S472,336.43,467.12,338.08s-27.91-19.7-29.55-31.19c-1.64-8.21,6.57-47.6,6.57-47.6h23.45l-.47-9.85H447.47l-.05-9.85,16.41-9.85-1.64-4.92-14.77,9.85-9.85-18.84-4.92,4.06L442.5,238l-1.65,14.77-13.13-16.41-3.28,3.28,11.49,19.7s-8.21,59.68-11.49,61-21.34-38.05-24.62-47.9,2.39-56.59,2.39-56.59h-7.82v21.23l-11-15.52-4.92,3.28,13.13,19.7s1.64,26.26,3.28,31.18,14.78,29.55,9.85,32.83-41-50.88-41-50.88V240.41l-4.93-.82v10.32l-13.13-15.24-3.28,4.92,9.85,11.49-13.13,1.64v6.69l16.41,1.52s37.75,55.81,36.11,59.09-72.22-54.17-72.22-54.17l-3.28,4.93L326,283.91,304.62,279v8.37l26.26,8s80.43,54.17,80.43,57.45-32.83-14.77-41-16.42-42.67-4.92-42.67-4.92l-9.85-16.41-6.57,1.64,8.21,14.77-14.77-1.13-9.85-13.64h-8.21l9.85,18.05L280,351.21l4.92,4.92L303,339.72h18l-9.85,19.69h4.93l13.13-18.05s29.54,4.92,50.88,9.85,44.32,39.39,44.32,39.39l-85.35-4.92-27.91-4.93-1.64,4.93,21.34,9.85-24.62,8.2,8.21,6.57,18-9.85-9.85,19.7,4.93,1.64s18-14.77,27.9-21.34,47.6-4.92,67.3,1.64S482.68,476.78,482.68,476.78Z"/><path class="cls-4" d="M376,368.44s18.19,2.79,20.58,17-5.81,15.84-5.81,15.84,8.34-.42,5.81,9.64-9.47,8.94-9.47,8.94,5.3,13.51-9.47,22.91a42.43,42.43,0,0,1-29.55,6.11s-16.41,6.57-29.54,6.57S307.08,444,307.08,444s-16.42.63-22.16-7.9,0-22.91,0-22.91-9-2-9-16.79,9-15.62,9-15.62-2.46-9,7.39-20.5,17.6,0,17.6,0,2.55-8,11.35-8.93S331.7,357,331.7,357s1.75-8,14-7.29,10.62,12.22,10.62,12.22,4.93-6.57,13.13-4.93S376,368.44,376,368.44Z"/><path class="cls-4" d="M493.38,202.89s18.19,2.78,20.59,17-5.81,15.84-5.81,15.84,8.34-.41,5.81,9.64-9.47,8.94-9.47,8.94,5.3,13.52-9.48,22.91a42.38,42.38,0,0,1-29.54,6.12s-16.42,6.56-29.55,6.56-11.49-11.49-11.49-11.49S408,279,402.28,270.5s0-22.91,0-22.91-9-2-9-16.8,9-15.61,9-15.61-2.46-9,7.39-20.5,17.6,0,17.6,0,2.56-8,11.36-8.94,10.43,5.66,10.43,5.66,1.75-8,14-7.3,10.62,12.22,10.62,12.22,4.92-6.57,13.13-4.92S493.38,202.89,493.38,202.89Z"/><path class="cls-7" d="M202.28,556.93l224.23-75s65.05,125.79-76.46,159.5C229,663,202.28,556.93,202.28,556.93Z"/><path class="cls-8" d="M358.21,628.18c106.39-40.29,68.3-146.26,68.3-146.26l-219.6,73.45S251.82,668.46,358.21,628.18Z"/><path class="cls-9" d="M402.41,512.32l26.87,2.14s-.29,27-8.38,45.93-36.29,42.06-36.29,42.06l-29.42-37.28s20.29-3.38,37.71-24.38S402.41,512.32,402.41,512.32Z"/><path class="cls-10" d="M289.67,575.57C305,578.45,331.24,572,331.24,572l-2.05,47.33s-12.46,5.35-46.71-11.72-41-35.39-41-35.39l10.65-7.29S274.31,572.69,289.67,575.57Z"/><path class="cls-11" d="M248.49,544.43s55,28.47,91.43,10.66,57.54-31.92,57.54-31.92l1-31.87s-23.83,22.17-66.49,39S248.49,544.43,248.49,544.43Z"/><path class="cls-7" d="M189.83,528.64l227.41,64.75s-17.37,140.55-153.18,88.44C151.93,631.29,189.83,528.64,189.83,528.64Z"/><path class="cls-8" d="M278.27,675.51c110.55,26.85,139-82.12,139-82.12L194.54,530S167.73,648.66,278.27,675.51Z"/><path class="cls-9" d="M380.18,604.87l21,17S385.66,643.93,368.29,655s-53.7,14.21-53.7,14.21l-3.22-47.37S330,630.49,356.26,623,380.18,604.87,380.18,604.87Z"/><path class="cls-10" d="M251.42,593.39c11.06,11.06,36.33,20.53,36.33,20.53l-28.43,37.9S246,649.2,227.4,615.77s-13.88-52.38-13.88-52.38h12.91S240.37,582.34,251.42,593.39Z"/><path class="cls-11" d="M235,544.44s29.29,54.55,69.43,60.43S370,611,370,611l18.83-25.74s-32.19,4.84-76.89-5.37S235,544.44,235,544.44Z"/><path class="cls-2" d="M379,616.2s13.73,7.39,10.56,10.56S379,616.2,379,616.2Z"/><path class="cls-2" d="M369.13,621.48s13,7.39,8.78,10.56S369.13,621.48,369.13,621.48Z"/><path class="cls-2" d="M356.26,626.13s-.53,21.76,4.75,20.7S356.26,626.13,356.26,626.13Z"/><path class="cls-2" d="M345.17,628.87s-6.34,21.94,0,21.53S345.17,628.87,345.17,628.87Z"/><path class="cls-2" d="M325.1,629.93s-2.11,25.35,2.12,24.29S325.1,629.93,325.1,629.93Z"/><path class="cls-2" d="M232,577.76s-15.59-.41-14.41,3.91S232,577.76,232,577.76Z"/><path class="cls-2" d="M238,587.24s-15-.06-12.88,4.79S238,587.24,238,587.24Z"/><path class="cls-2" d="M246.8,597.68s-10.37,19.13-14.43,15.59S246.8,597.68,246.8,597.68Z"/><path class="cls-2" d="M255.05,605.57s-5.41,22.18-10.71,18.68S255.05,605.57,255.05,605.57Z"/><path class="cls-2" d="M271.93,616.47s-10.78,23-13.91,20S271.93,616.47,271.93,616.47Z"/><path class="cls-12" d="M486.84,443.74c69.21-94.11,204-87.36,231.33-85.28S771,379.77,771,379.77c59.67,33,44.78,38.89,60.13,101.62s-62.2,61.22-122.31,156S540.39,752.86,540.39,752.86c-108-23.88-148.56-151-144.24-185C395.31,546.71,397.35,502.89,486.84,443.74Z"/><path class="cls-13" d="M489.63,441c66.37-92.48,192.58-88.12,218.12-86.55s49.18,19.83,49.18,19.83c55.36,31.05,41.32,37,54.68,97.66s-59.27,60.44-117.13,153.45-159.71,114.8-159.71,114.8C434,718.74,398,596,402.64,563,402.2,542.41,404.82,499.84,489.63,441Z"/><path class="cls-14" d="M612.71,399c-.48-6,79.69-17.31,78.68-14.81S613.19,405,612.71,399Z"/><path class="cls-14" d="M565.54,429.41c2-5,174.91-37.08,175.4-31.07S563.53,434.41,565.54,429.41Z"/><path class="cls-14" d="M525.84,477.39c3-7.51,208.48-41,211.47-34S522.82,484.89,525.84,477.39Z"/><path class="cls-14" d="M474.12,526.33c-3-7,261.61-57.38,259.6-52.38S477.1,533.35,474.12,526.33Z"/><path class="cls-14" d="M463.47,574.38c-5.49-8,268.63-60.36,268.11-51.85S469,582.41,463.47,574.38Z"/><path class="cls-14" d="M456.33,621c3-7.51,236.63-60.34,240.85-56.38S453.3,628.45,456.33,621Z"/><path class="cls-14" d="M464.24,659c2-5,185.32-38,189.37-35.28S462.22,664,464.24,659Z"/><path class="cls-14" d="M489.21,683.65c3,7,76.14-1.3,76.66-9.81S486.23,676.63,489.21,683.65Z"/></g></svg>