<svg xmlns="http://www.w3.org/2000/svg" xmlns:xlink="http://www.w3.org/1999/xlink" viewBox="0 0 300 300"><defs><style>.cls-1,.cls-10,.cls-11,.cls-2{fill:none;}.cls-10,.cls-11,.cls-2{stroke:#747d00;}.cls-10,.cls-11,.cls-2,.cls-3,.cls-4,.cls-5,.cls-6{stroke-miterlimit:10;}.cls-2{stroke-width:12px;}.cls-3{fill:#c6c6c6;stroke:#7f7f7f;}.cls-4,.cls-5{fill:#969696;}.cls-4{stroke:#636363;}.cls-5{stroke:#303030;}.cls-6{fill:#eaeaea;stroke:#545454;}.cls-7{fill:#747d00;}.cls-8{fill:#b2b715;}.cls-9{fill:#d2c521;}.cls-10{stroke-width:3px;}.cls-12{fill:#f2f2f2;}.cls-13{clip-path:url(#clip-path);}.cls-14{fill:#333;}.cls-15{clip-path:url(#clip-path-2);}.cls-16{fill:#a1a50e;}.cls-17{fill:#afb55b;}.cls-18{fill:#858513;}.cls-19{fill:#4c7032;}.cls-20{fill:#4d823c;}.cls-21{fill:#5b883c;}</style><clipPath id="clip-path"><ellipse class="cls-1" cx="117.78" cy="92.46" rx="6.72" ry="12.7"/></clipPath><clipPath id="clip-path-2"><ellipse class="cls-1" cx="162.38" cy="92.46" rx="6.72" ry="12.7"/></clipPath></defs><g id="aceituna"><path class="cls-2" d="M91.84,108.55,70.46,150.7a11.42,11.42,0,0,0,8,16.38l41.5,8"/><line class="cls-2" x1="189.86" y1="110.53" x2="195.51" y2="204.35"/><path class="cls-3" d="M103.34,271.06c8.25-9.31,22.76-8.7,29.77,0,.47-5.22-1.41-10.05-5.18-14.56H110.12A27.87,27.87,0,0,0,103.34,271.06Z"/><path class="cls-4" d="M118.26,256.5h-8.14c-2.56-1.59-3.66-3.17-3.66-6.1s3.74-5.06,7.93-5.85h10c3.66,1,6.32,2.71,7.07,6,.11,2.84-1.49,4.55-3.54,6H124"/><path class="cls-5" d="M99.66,281.39a4.88,4.88,0,0,0-2.47,4.14c0,2.87,4.15,9.89,20.5,9.89s21.34-6.23,21.34-9a4.57,4.57,0,0,0-2.14-4"/><path class="cls-6" d="M99.88,279c3.05-18.6,31.71-20.92,37.14,0,.43,2.24,0,4-1.28,5.12-5.37,6.65-31,6.53-34.4.55A5.53,5.53,0,0,1,99.88,279Z"/><path class="cls-3" d="M146.19,271.31c8.24-9.31,22.76-8.7,29.76,0,.47-5.22-1.41-10-5.17-14.55H153A27.66,27.66,0,0,0,146.19,271.31Z"/><path class="cls-4" d="M161.1,256.76H153c-2.57-1.59-3.66-3.18-3.66-6.1s3.73-5.07,7.93-5.86h10c3.66,1,6.32,2.71,7.07,6,.12,2.85-1.49,4.55-3.53,6h-3.91"/><path class="cls-5" d="M142.5,281.64a4.88,4.88,0,0,0-2.46,4.15c0,2.86,4.14,9.88,20.49,9.88s21.35-6.22,21.35-9a4.56,4.56,0,0,0-2.15-4"/><path class="cls-6" d="M142.72,279.26c3.05-18.6,31.72-20.92,37.14,0,.43,2.24,0,4-1.28,5.12-5.36,6.65-31,6.53-34.4.55A5.53,5.53,0,0,1,142.72,279.26Z"/><path class="cls-7" d="M118.67,254.13h0c-3.42,0-6-4.1-5.09-8.29,4-19,3.46-39.2-2.06-60.56h11.16c5.53,20.11,5.6,41.46,1.08,63.86C123.16,252.08,121.06,254.13,118.67,254.13Z"/><path class="cls-7" d="M161.87,254.52h0c3.43,0,6-4.1,5.09-8.29-4-19-3.45-39.19,2.06-60.56H157.86c-5.53,20.11-5.6,41.46-1.08,63.87C157.38,252.47,159.48,254.52,161.87,254.52Z"/><ellipse class="cls-8" cx="140.08" cy="121.42" rx="56.88" ry="79.89"/><ellipse class="cls-7" cx="140.08" cy="46.7" rx="10.92" ry="4.56"/><ellipse class="cls-9" cx="94.99" cy="136.24" rx="6" ry="13.72" transform="translate(-19.78 16.19) rotate(-8.83)"/><ellipse class="cls-9" cx="93.92" cy="109.88" rx="3.12" ry="6.48"/><path class="cls-7" d="M170.37,73c2.3,2.44,6.11,4.1,9.46,4.89l-3.29-.06c1.28,2.45,4.13,3.78,7.14,5l-8.94-.29Z"/><path class="cls-7" d="M110.18,73a16.7,16.7,0,0,1-8.46,4.89l3.29-.06c-1.29,2.45-4.14,3.78-7.15,5l7-.29Z"/><ellipse class="cls-7" cx="140.09" cy="108.3" rx="9.31" ry="3.88"/><path class="cls-10" d="M107.11,123.45c9.74-.76,15.08-4.11,14-11.27"/><path class="cls-10" d="M158.55,112.18q1.59,9.72,14.5,11.27"/><path class="cls-10" d="M118.6,119.86c15.1,13.13,29.65,14.32,43.49,0"/><path class="cls-11" d="M131,137.54a18,18,0,0,0,18.14,0"/><path class="cls-12" d="M121.88,73.82l6.59-7.93c-5-5.08-9.89-6.69-14.72-4.49a13.36,13.36,0,0,0-7.12,9.08,47.93,47.93,0,0,0-1.48,15.24A32.69,32.69,0,0,0,111,101.84c3.36-4.35,9.68-4.86,18.3-2.4a137.72,137.72,0,0,0,1.31-25.92Z"/><g class="cls-13"><path class="cls-14" d="M118.75,75.4l9.58-8.94c-5-5.08-9.88-6.68-14.71-4.49a13.37,13.37,0,0,0-7.13,9.09A48.18,48.18,0,0,0,105,86.29a32.58,32.58,0,0,0,5.88,16.12c3.37-4.34,9.69-4.86,18.31-2.39a137,137,0,0,0,1.3-25.93Z"/></g><path class="cls-12" d="M166.36,73.16,173,65.23c-5-5.08-9.88-6.69-14.72-4.49a13.36,13.36,0,0,0-7.12,9.08,48,48,0,0,0-1.47,15.24A125.4,125.4,0,0,0,151.4,98.9c8.7-4.88,17.89.85,19.94,2.94,3.26-10.34,5-20.17,3.79-29Z"/><g class="cls-15"><path class="cls-14" d="M163.23,74.73l9.59-8.93c-5-5.08-9.89-6.68-14.72-4.49A13.36,13.36,0,0,0,151,70.4a47.86,47.86,0,0,0-1.48,15.23,126.41,126.41,0,0,0,1.77,13.84c8.69-4.88,17.89.85,19.93,2.94,3.27-10.34,5-20.17,3.8-29Z"/></g><path class="cls-10" d="M178.53,59a20.45,20.45,0,0,0-12.63-9.32"/><path class="cls-10" d="M99.62,60.09a20.44,20.44,0,0,1,12.62-9.32"/><line class="cls-2" x1="72.12" y1="164.66" x2="120" y2="175.04"/><path class="cls-6" d="M123.88,190c4.48,2.44,11.3,3.29,14.22,3.55a6.71,6.71,0,0,0,4-.86c3.07-1.8,3.14-5.09-.39-7.28,6.95-.22,8.36-7.35,2-9,5.92.46,7.07-6.06,1.66-8.37a8.21,8.21,0,0,0-1.94-.53l-6.7-1,3.59-6.63a4.85,4.85,0,0,0,.54-1.55,4,4,0,0,0-2.06-4.28,4.45,4.45,0,0,0-6.23,2.22l-1.6,3.78s-1.61,4.31-5.33,4.85a8.86,8.86,0,0,0-5.68,3.44l-.4,1.69a4.25,4.25,0,0,1-2,2.74l-2.37,1.33,1.57,2.1a4,4,0,0,1,.72,3.11l-.54,2.87S118.05,186.81,123.88,190Z"/><line class="cls-6" x1="138.29" y1="175.43" x2="144.16" y2="176.5"/><line class="cls-6" x1="136.52" y1="184.37" x2="142.29" y2="185.51"/><path class="cls-6" d="M118.84,172.2a15.6,15.6,0,0,0,1-4.61,3.14,3.14,0,0,0-4-.16s-2,.87-3,5.42c-.85,3.76-.95,5.06-.52,6.49a4,4,0,0,0,3.18,2.67,6.25,6.25,0,0,0,1.23,0,18.1,18.1,0,0,0,1-4.68"/><rect class="cls-6" x="197.38" y="202.12" width="2.23" height="6.38" transform="translate(462.6 313.95) rotate(156.39)"/><path class="cls-6" d="M196.74,202.4s.31,4,2.18,5.41l3.13,2.42a7,7,0,0,1,2.42,3.43,16.52,16.52,0,0,1,.66,4.84L206,220a5,5,0,0,1,.64,2.06l.75,9.47a6.23,6.23,0,0,1-.33,2.61c-1.57,4.38-7.07,4.48-8.15-1.56.16,8.53-10.14,9.25-9.78-.41-1.76,3.65-5.45,3.52-6.91,1.41a3.7,3.7,0,0,1-.59-2.38l1-11.14a22.79,22.79,0,0,0,.07-2.74l-.3-7.71a13.75,13.75,0,0,1,.24-3.27,12.27,12.27,0,0,1,1.25-3.5,20.72,20.72,0,0,1,3.43-4.6,2,2,0,0,1,1.31-.56l2.79-.24a2.45,2.45,0,0,0,1.84-1.07l1.74-2.57,1.55,2.57a1.8,1.8,0,0,0,1.48.88l4.56.22a3.44,3.44,0,0,1,1.09.24,10,10,0,0,1,5.47,6,46.07,46.07,0,0,1,1.42,5.19,22.92,22.92,0,0,1,.33,7.39v.05a4,4,0,0,1-1.67,2.81c-1.63,1.08-3,.11-4.23-2.39"/><line class="cls-6" x1="198.97" y1="233.31" x2="198.29" y2="220.38"/><path class="cls-6" d="M188.93,232.76c.63-3.4,1.09-8.1,1.49-13.13"/><path class="cls-6" d="M201.62,219.6a17.63,17.63,0,0,1-13.94-1.23"/><path class="cls-6" d="M197,197.32a19.36,19.36,0,0,0,5.7,0l0,0a2.68,2.68,0,0,0-.77-4,13,13,0,0,0-6.67-1.37c-3.45,0-5.36.92-6.39,1.7a2.65,2.65,0,0,0-1,2.55,7.65,7.65,0,0,0,.45,1.54,11.6,11.6,0,0,0,4.45-.39"/><ellipse class="cls-16" cx="140.2" cy="106.08" rx="3.54" ry="0.98"/><path class="cls-17" d="M151.75,19.3c-.23-4.44-4.48-11-8.86-11.92a1.71,1.71,0,0,0-1.85.85c-1.3,2.42-2.5,11.13-3.07,15.14-.69,4.85-.76,24.5-.76,24.5,1.5,1.15,2.95,1.24,4.34,0,0,0,1.57-14,2.61-17.33.92-3,4-8.57,6.56-9.65A1.66,1.66,0,0,0,151.75,19.3Z"/><path class="cls-18" d="M150.73,19.81a24.15,24.15,0,0,1-8.9-11.66.63.63,0,0,1,.66-.84c4.25.52,8.86,6.87,9.23,12A.63.63,0,0,1,150.73,19.81Z"/><path class="cls-19" d="M145.49,32.28A109.37,109.37,0,0,0,184,44.38c1.62.59,1.78,2.23.25,3.94-11,12-25.75,1.81-39.38-14.34Z"/><path class="cls-20" d="M145.6,32.81c9.9,12,26.49,17.27,39.62,14.41-4.63,6.18-11.18,8.25-20.56,4.24-5.61-2.46-13.09-10-19.68-17.54Z"/><path class="cls-21" d="M142.38,31.48l1.41-1.4C155.32,44.3,169.88,49.27,185,47.24l-.24.27C168.41,50.11,153.71,43.59,142.38,31.48Z"/><path class="cls-19" d="M137.88,19.43a109.37,109.37,0,0,1-38.52,12.1c-1.62.58-1.79,2.23-.25,3.94,11,12,25.75,1.8,39.38-14.35Z"/><path class="cls-20" d="M137.77,20c-9.9,12-26.49,17.27-39.62,14.41,4.63,6.18,11.17,8.24,20.56,4.23,5.61-2.45,13.09-10,19.68-17.53Z"/><path class="cls-21" d="M141,18.63l-1.41-1.41c-11.53,14.23-26.09,19.19-41.17,17.17l.24.27C115,37.26,129.66,30.74,141,18.63Z"/></g></svg>