<svg xmlns="http://www.w3.org/2000/svg" viewBox="0 0 300 300"><defs><style>.cls-1{fill:#c6c6c6;stroke:#7f7f7f;}.cls-1,.cls-13,.cls-15,.cls-18,.cls-2,.cls-3,.cls-4,.cls-5,.cls-8{stroke-miterlimit:10;}.cls-2,.cls-3{fill:#969696;}.cls-2{stroke:#636363;}.cls-3{stroke:#303030;}.cls-4{fill:#eaeaea;stroke:#545454;}.cls-13,.cls-15,.cls-18,.cls-5,.cls-8{fill:none;}.cls-5,.cls-8{stroke:#5a698a;}.cls-5{stroke-width:14px;}.cls-6{fill:#5a698a;}.cls-7{fill:#6284a7;}.cls-8{stroke-width:11px;}.cls-9{fill:#434d57;}.cls-10{fill:#6facc6;}.cls-11{fill:#e21a62;}.cls-12{fill:#8aaad0;}.cls-13{stroke:#363f4c;}.cls-14{fill:#ff77a3;}.cls-15{stroke:#2f3945;stroke-width:2px;}.cls-16{fill:#fcfcfc;}.cls-17{fill:#2f3945;}.cls-18{stroke:#232a33;stroke-width:4px;}.cls-19,.cls-20{fill:#232a33;}.cls-20{opacity:0.32;}</style></defs><g id="arandano"><path class="cls-1" d="M96.81,274c9.55-9.31,26.37-8.7,34.48,0,.55-5.22-1.63-10-6-14.55H104.66A26.29,26.29,0,0,0,96.81,274Z"/><path class="cls-2" d="M114.09,259.44h-9.43c-3-1.59-4.23-3.18-4.23-6.1s4.32-5.07,9.18-5.86H121.2c4.24,1,7.33,2.71,8.19,6,.13,2.85-1.73,4.55-4.09,6h-4.53"/><path class="cls-3" d="M92.54,284.32s-2.85,1.28-2.85,4.15,4.8,9.88,23.74,9.88,24.73-6.22,24.73-9a4.55,4.55,0,0,0-2.49-4"/><path class="cls-4" d="M92.79,281.94c3.54-18.6,36.75-20.92,43,0,.5,2.24,0,4-1.48,5.13-6.22,6.64-35.89,6.52-39.85.54A5,5,0,0,1,92.79,281.94Z"/><path class="cls-1" d="M146.44,274.24c9.55-9.31,26.37-8.7,34.48,0,.55-5.21-1.63-10-6-14.55H154.3A26.34,26.34,0,0,0,146.44,274.24Z"/><path class="cls-2" d="M163.72,259.69H154.3c-3-1.59-4.24-3.17-4.24-6.1s4.32-5.07,9.18-5.86h11.59c4.24,1,7.33,2.72,8.2,6,.13,2.85-1.74,4.56-4.1,6h-4.52"/><path class="cls-3" d="M142.17,284.57s-2.85,1.28-2.85,4.15,4.8,9.88,23.74,9.88,24.73-6.22,24.73-9a4.55,4.55,0,0,0-2.48-4"/><path class="cls-4" d="M142.43,282.19c3.53-18.6,36.74-20.92,43,0,.49,2.24,0,4-1.49,5.13-6.22,6.65-35.89,6.52-39.85.55A5,5,0,0,1,142.43,282.19Z"/><path class="cls-5" d="M55.13,104,33.75,146.14a11.42,11.42,0,0,0,8,16.38l41.5,8"/><path class="cls-6" d="M114,255h0a9.78,9.78,0,0,1-9.78-9.78v-89.5h19.57v89.5A9.78,9.78,0,0,1,114,255Z"/><path class="cls-6" d="M164.34,255.26h0a9.79,9.79,0,0,1-9.79-9.79V156h19.57v89.49A9.78,9.78,0,0,1,164.34,255.26Z"/><path class="cls-5" d="M223.87,105.68l21.38,42.15a11.43,11.43,0,0,1-8,16.39l-41.51,7.95"/><ellipse class="cls-7" cx="140.24" cy="108.84" rx="99.36" ry="74.88"/><line class="cls-8" x1="45.31" y1="161.95" x2="93.56" y2="170.43"/><path class="cls-9" d="M104.74,58.76S81.29,36.13,91.13,23.38,122.83,35,122.83,35s6.92-26.6,17.49-27.33,16,26.6,16,26.6S169.84,16.82,183,15.73c18.59,2.55-1.09,36.13-1.09,36.13Z"/><ellipse class="cls-10" cx="140.69" cy="52.53" rx="40.45" ry="18.95"/><ellipse class="cls-9" cx="140.55" cy="49.1" rx="19.6" ry="9.18"/><path class="cls-6" d="M140.62,70.37c-12.78-4.83-17.49-21.86-20.41-27s-21.5-6.92-20.77,10.21C102.72,82,140.62,70.37,140.62,70.37Z"/><path class="cls-6" d="M141,70.37c12.77-4.82,17.49-21.86,20.4-27s21.5-6.93,20.77,10.2C178.86,82,141,70.37,141,70.37Z"/><ellipse class="cls-11" cx="140.61" cy="126.92" rx="10.39" ry="5.67"/><ellipse class="cls-12" cx="101.64" cy="127.96" rx="2.83" ry="2.17"/><ellipse class="cls-12" cx="107.68" cy="139.11" rx="2.83" ry="2.17"/><ellipse class="cls-12" cx="114.67" cy="128.53" rx="2.83" ry="2.17"/><ellipse class="cls-12" cx="178.26" cy="128.05" rx="2.83" ry="2.17"/><ellipse class="cls-12" cx="172.21" cy="139.2" rx="2.83" ry="2.17"/><ellipse class="cls-12" cx="165.22" cy="128.62" rx="2.83" ry="2.17"/><path class="cls-13" d="M122.53,133.72c11.68,15.45,23.51,15.73,35.53.19"/><path class="cls-13" d="M132.41,150.4q7.76,7.09,15.5.19"/><ellipse class="cls-14" cx="140.37" cy="123.6" rx="3.77" ry="1.48"/><path class="cls-4" d="M89.89,189.2c5.52,3,13.92,4.05,17.52,4.37a8.22,8.22,0,0,0,4.93-1c3.78-2.22,3.87-6.28-.48-9,8.56-.27,10.3-9.06,2.42-11.08,7.3.56,8.73-7.47,2-10.31a9.42,9.42,0,0,0-2.39-.66l-8.26-1.28L110.1,152a6,6,0,0,0,.68-1.92,5,5,0,0,0-2.54-5.26,5.49,5.49,0,0,0-7.69,2.73l-2,4.66s-2,5.31-6.57,6a11,11,0,0,0-7,4.24l-.48,2.08A5.3,5.3,0,0,1,82,167.93l-2.91,1.64L81,172.15a4.89,4.89,0,0,1,.9,3.84l-.66,3.53S82.7,185.28,89.89,189.2Z"/><line class="cls-4" x1="107.65" y1="171.25" x2="114.88" y2="172.57"/><line class="cls-4" x1="105.46" y1="182.27" x2="112.58" y2="183.68"/><path class="cls-4" d="M83.67,167.27A18.91,18.91,0,0,0,85,161.59a3.86,3.86,0,0,0-5-.2s-2.48,1.07-3.74,6.68c-1,4.64-1.17,6.24-.64,8a4.92,4.92,0,0,0,3.92,3.3,10.72,10.72,0,0,0,1.51,0,22.33,22.33,0,0,0,1.22-5.78"/><line class="cls-8" x1="233.69" y1="163.65" x2="185.44" y2="172.13"/><path class="cls-4" d="M189.11,190.89c-5.52,3-13.92,4.05-17.52,4.38a8.3,8.3,0,0,1-4.93-1.06c-3.78-2.22-3.87-6.28.48-9-8.57-.26-10.3-9.06-2.42-11.08-7.3.57-8.73-7.46-2.06-10.31a10.55,10.55,0,0,1,2.4-.66l8.25-1.27-4.42-8.18a6.21,6.21,0,0,1-.67-1.91,5,5,0,0,1,2.54-5.27,5.48,5.48,0,0,1,7.69,2.74l2,4.66s2,5.31,6.57,6a10.92,10.92,0,0,1,7,4.24l.48,2.08a5.28,5.28,0,0,0,2.54,3.38l2.91,1.64L198,173.84a4.92,4.92,0,0,0-.89,3.84l.66,3.54S196.3,187,189.11,190.89Z"/><line class="cls-4" x1="171.35" y1="172.94" x2="164.12" y2="174.27"/><line class="cls-4" x1="173.54" y1="183.97" x2="166.42" y2="185.37"/><path class="cls-4" d="M195.33,169a19,19,0,0,1-1.28-5.69,3.85,3.85,0,0,1,5-.19s2.47,1.07,3.74,6.68c1,4.63,1.17,6.23.64,8a4.91,4.91,0,0,1-3.92,3.3,8.37,8.37,0,0,1-1.51,0,22.34,22.34,0,0,1-1.22-5.77"/><path class="cls-15" d="M158.16,61c4.41-4.31,9.64-5.63,15.75-3.84"/><path class="cls-16" d="M154.61,119.92c6.95-5.73,14.38-5.29,22.17,0,6-15.72,6.95-36.07,2.67-44.08s-14.88-9.14-21.1,1.07C151.61,88.88,152,104.06,154.61,119.92Z"/><path class="cls-17" d="M178.89,85.14l-11.76-.26,5.34-15c11.76,2.6,13.2,28.44,4.31,50a21.45,21.45,0,0,0-11.29-4.14l0-18.35Z"/><path class="cls-15" d="M104.54,61.37c4.4-4.31,9.64-5.63,15.75-3.84"/><path class="cls-16" d="M102.6,119.65c6.94-5.73,14.38-5.3,22.17,0,6-15.73,6.94-36.07,2.67-44.08s-14.89-9.14-21.1,1.07C99.59,88.61,99.94,103.78,102.6,119.65Z"/><path class="cls-17" d="M126.87,84.87l-11.75-.27,5.34-15c11.76,2.61,13.2,28.45,4.31,50a21.48,21.48,0,0,0-11.29-4.14l0-18.35Z"/><g id="LENTES"><ellipse class="cls-18" cx="171.9" cy="93.63" rx="30.64" ry="29.49"/><ellipse class="cls-18" cx="110.78" cy="92.68" rx="30.64" ry="29.49"/><polygon class="cls-19" points="83.67 79.36 78.56 86.34 35.65 58.94 44.57 46.75 83.67 79.36"/><polygon class="cls-19" points="198.06 79.95 203.17 86.93 246.08 59.52 237.16 47.34 198.06 79.95"/></g><ellipse class="cls-20" cx="171.74" cy="92.92" rx="30.64" ry="29.49"/><ellipse class="cls-20" cx="110.18" cy="92.34" rx="30.64" ry="29.49"/></g></svg>