<svg xmlns="http://www.w3.org/2000/svg" xmlns:xlink="http://www.w3.org/1999/xlink" viewBox="0 0 300 300"><defs><style>.cls-1,.cls-14,.cls-19,.cls-8{fill:none;}.cls-2{fill:#5a7d00;}.cls-3{fill:#c6c6c6;stroke:#7f7f7f;}.cls-14,.cls-18,.cls-19,.cls-3,.cls-4,.cls-5,.cls-6,.cls-8{stroke-miterlimit:10;}.cls-4,.cls-5{fill:#969696;}.cls-4{stroke:#636363;}.cls-5{stroke:#303030;}.cls-18,.cls-6{fill:#eaeaea;}.cls-6{stroke:#545454;}.cls-7{fill:#79891b;}.cls-8{stroke:#fcb61a;}.cls-9{fill:#e49a0f;}.cls-10{clip-path:url(#clip-path);}.cls-11{fill:#fed117;}.cls-12{fill:#fcb61a;}.cls-13{fill:#8fa726;}.cls-14{stroke:#232323;}.cls-15{fill:#f1eef0;}.cls-16{fill:#232323;}.cls-17{fill:#eaa700;}.cls-18,.cls-19{stroke:#666;}</style><clipPath id="clip-path"><path class="cls-1" d="M156.57,190.67H126.78a26.63,26.63,0,0,1-26.37-30.35l14.9-105.75a26.62,26.62,0,0,1,26.36-22.91h0A26.62,26.62,0,0,1,168,54.57l14.9,105.75A26.63,26.63,0,0,1,156.57,190.67Z"/></clipPath></defs><g id="cuerpo_elote" data-name="cuerpo elote"><path class="cls-2" d="M164.07,90.23q10.83-1.12,21.65-22c-2.6,13.66-4.1,27.35-3,41.06Z"/><path class="cls-2" d="M128.85,72.13q-12.3-.3-25.95-20.29c3.87,13.43,6.49,27,6.16,40.74Z"/><path class="cls-2" d="M152.83,73.37q12.3-.28,25.94-20.28c-3.87,13.43-6.49,27-6.16,40.74Z"/><path class="cls-3" d="M106.81,267.79c8.24-9.31,22.76-8.7,29.76,0,.47-5.22-1.41-10-5.17-14.56H113.59A27.8,27.8,0,0,0,106.81,267.79Z"/><path class="cls-4" d="M121.73,253.23h-8.14c-2.57-1.58-3.66-3.17-3.66-6.09s3.73-5.07,7.93-5.86h10c3.66,1,6.33,2.71,7.08,6,.11,2.85-1.5,4.55-3.54,6h-3.9"/><path class="cls-5" d="M103.12,278.12a4.88,4.88,0,0,0-2.46,4.15c0,2.86,4.15,9.88,20.49,9.88s21.35-6.22,21.35-9a4.54,4.54,0,0,0-2.14-4"/><path class="cls-6" d="M103.34,275.74c3-18.6,31.72-20.92,37.15,0,.42,2.24,0,4-1.28,5.12-5.37,6.65-31,6.53-34.4.55A5.52,5.52,0,0,1,103.34,275.74Z"/><path class="cls-3" d="M149.65,268c8.25-9.31,22.76-8.7,29.76,0,.48-5.22-1.4-10-5.17-14.55H156.43A27.81,27.81,0,0,0,149.65,268Z"/><path class="cls-4" d="M164.57,253.49h-8.14c-2.56-1.59-3.66-3.17-3.66-6.1s3.73-5.07,7.93-5.86h10c3.67,1,6.33,2.72,7.08,6,.11,2.85-1.5,4.56-3.54,6h-3.9"/><path class="cls-5" d="M146,278.37a4.88,4.88,0,0,0-2.47,4.15c0,2.87,4.15,9.88,20.5,9.88s21.34-6.22,21.34-9a4.56,4.56,0,0,0-2.14-4"/><path class="cls-6" d="M146.19,276c3-18.6,31.71-20.92,37.14,0,.43,2.24,0,4-1.28,5.13-5.37,6.64-31,6.52-34.4.55A5.53,5.53,0,0,1,146.19,276Z"/><path class="cls-7" d="M121.52,249.16h0c-4,0-6.2-3.22-6.2-7.2V185.32h12.4V242C127.72,245.94,125.5,249.16,121.52,249.16Z"/><path class="cls-7" d="M164.8,249.28h0c-4,0-6.2-3.22-6.2-7.2-4.24-17.09-3.55-36.26,0-56.64H171c-5.07,20.2-5.91,39.3,0,56.64C171,246.06,168.78,249.28,164.8,249.28Z"/><path class="cls-8" d="M125.53,8.46c-5.44,11.59-4.18,15.77-1.46,17.21,3.08,1.63,8.55,0,10.29,2.39,1.2,1.64-.1,4.16-1.39,6"/><path class="cls-8" d="M132.71,8.51c-.45,3.78-.1,8.36,3.94,10.62,3.13,1.76,6.66,1.1,7.82,3,.92,1.49.27,4.47-6.93,11.08"/><path class="cls-8" d="M106.73,23.77c10.71-.84,13.83.34,14.29,1.85.85,2.82-7.54,6.89-6.74,10.49.48,2.2,4.17,3.12,7.64,3.54"/><path class="cls-8" d="M156.16,51.37c-1.26-12.74,1.33-16.26,4.37-16.71,3.45-.51,8.06,2.84,10.5,1.17,1.67-1.14,1.29-3.95.7-6.16"/><path class="cls-8" d="M163,53.72c.84-3.72,2.69-7.92,7.25-8.71,3.55-.61,6.65,1.2,8.36-.17,1.37-1.1,1.75-4.12-2.83-12.75"/><path class="cls-8" d="M143.55,33.66c9.81,4.36,11.15-.71,12.09-2,1.74-2.37-2.81-7-.86-10.13,1.19-1.91,5-1.55,8.39-.8"/><path class="cls-7" d="M96.41,114A391.06,391.06,0,0,0,83.7,180.92q-.95,9.35-1.41,18.72a6,6,0,0,0,6,6,6.13,6.13,0,0,0,6-6q.4-8.17,1.18-16.32.38-4.08.86-8.15c.16-1.36.32-2.72.5-4.08l.12-1c0-.21.16-1.24,0-.4s0-.2.06-.4c0-.4.11-.8.16-1.2q2.32-16.45,6.07-32.67,2.13-9.16,4.7-18.23A6,6,0,1,0,96.41,114Z"/><path class="cls-7" d="M172.19,115c1.35,2.6,2.58,5.24,3.75,7.91.58,1.33-.36-.88,0,0l.42,1c.24.61.49,1.22.72,1.83.56,1.42,1.09,2.85,1.61,4.29,1.91,5.36,3.54,10.82,5,16.31,3,11.21,5.42,22.56,8.38,33.78,1.68,6.38,3.55,12.71,5.78,18.92,1.06,2.95,4.13,5.24,7.38,4.19,2.9-.94,5.33-4.22,4.19-7.38-8-22.1-11-45.6-18.75-67.77A143.5,143.5,0,0,0,182.55,109a6.05,6.05,0,0,0-8.21-2.16,6.14,6.14,0,0,0-2.15,8.21Z"/><path class="cls-9" d="M156.57,190.67H126.78a26.63,26.63,0,0,1-26.37-30.35l14.9-105.75a26.62,26.62,0,0,1,26.36-22.91h0A26.62,26.62,0,0,1,168,54.57l14.9,105.75A26.63,26.63,0,0,1,156.57,190.67Z"/><g class="cls-10"><rect class="cls-11" x="114.27" y="142.8" width="18.55" height="11.52" rx="3.6"/><path class="cls-12" d="M114.31,151.21s13.91,1.26,15-.45-.44-7.95-.44-7.95a3.86,3.86,0,0,1,3.94,3.45l0,4.71a4,4,0,0,1-4.09,3.35l-11,0A3.88,3.88,0,0,1,114.31,151.21Z"/><rect class="cls-11" x="133.07" y="142.44" width="18.55" height="11.52" rx="3.6"/><path class="cls-12" d="M133.11,150.85s13.91,1.26,15-.45-.44-8-.44-8a3.85,3.85,0,0,1,3.94,3.45l0,4.7a4,4,0,0,1-4.09,3.36l-11,0A3.88,3.88,0,0,1,133.11,150.85Z"/><rect class="cls-11" x="114.24" y="130.82" width="18.55" height="11.52" rx="3.6"/><path class="cls-12" d="M114.27,139.23s13.91,1.27,15-.44-.44-8-.44-8a3.86,3.86,0,0,1,3.94,3.46l0,4.7a4,4,0,0,1-4.1,3.35l-11,0A3.87,3.87,0,0,1,114.27,139.23Z"/><rect class="cls-11" x="133.04" y="130.46" width="18.55" height="11.52" rx="3.6"/><path class="cls-12" d="M133.07,138.87s13.91,1.27,15-.44-.44-8-.44-8a3.86,3.86,0,0,1,3.94,3.46l0,4.7a4,4,0,0,1-4.1,3.35l-11,0A3.87,3.87,0,0,1,133.07,138.87Z"/><rect class="cls-11" x="114.48" y="118.97" width="18.55" height="11.52" rx="3.6"/><path class="cls-12" d="M114.51,127.38s13.91,1.27,15-.45-.44-8-.44-8a3.86,3.86,0,0,1,3.94,3.46l0,4.7a4,4,0,0,1-4.1,3.35l-11,0A3.87,3.87,0,0,1,114.51,127.38Z"/><rect class="cls-11" x="133.28" y="118.61" width="18.55" height="11.52" rx="3.6"/><path class="cls-12" d="M133.31,127s13.91,1.27,15-.45-.44-7.95-.44-7.95a3.86,3.86,0,0,1,3.94,3.46l0,4.7a4,4,0,0,1-4.1,3.35l-11,0A3.87,3.87,0,0,1,133.31,127Z"/><rect class="cls-11" x="151.72" y="130.61" width="18.55" height="11.52" rx="3.6"/><path class="cls-12" d="M151.75,139s13.91,1.26,15-.45-.44-7.95-.44-7.95a3.86,3.86,0,0,1,3.94,3.46l0,4.7a4,4,0,0,1-4.09,3.35l-11,0A3.87,3.87,0,0,1,151.75,139Z"/><rect class="cls-11" x="104.36" y="109.28" width="15.51" height="9.63" rx="3.6"/><path class="cls-12" d="M104.38,116.31s11.63,1.06,12.55-.37-.36-6.65-.36-6.65a3.23,3.23,0,0,1,3.29,2.89l0,3.93a3.31,3.31,0,0,1-3.43,2.8l-9.17,0A3.24,3.24,0,0,1,104.38,116.31Z"/><rect class="cls-11" x="119.92" y="109.06" width="15.51" height="9.63" rx="3.6"/><path class="cls-12" d="M120,116.09s11.63,1,12.54-.38-.36-6.65-.36-6.65a3.23,3.23,0,0,1,3.29,2.89l0,3.93a3.3,3.3,0,0,1-3.43,2.81l-9.17,0A3.24,3.24,0,0,1,120,116.09Z"/><rect class="cls-11" x="135.64" y="108.7" width="15.51" height="9.63" rx="3.6"/><path class="cls-12" d="M135.67,115.73s11.63,1,12.54-.38-.36-6.65-.36-6.65a3.23,3.23,0,0,1,3.29,2.89l0,3.93a3.3,3.3,0,0,1-3.43,2.81l-9.17,0A3.24,3.24,0,0,1,135.67,115.73Z"/><rect class="cls-11" x="151.37" y="108.91" width="15.51" height="9.63" rx="3.6"/><path class="cls-12" d="M151.39,115.94s11.64,1,12.55-.38-.36-6.65-.36-6.65a3.23,3.23,0,0,1,3.29,2.89l0,3.93a3.31,3.31,0,0,1-3.43,2.81l-9.17,0A3.25,3.25,0,0,1,151.39,115.94Z"/><rect class="cls-11" x="104.33" y="99.3" width="15.51" height="9.63" rx="3.6"/><path class="cls-12" d="M104.36,106.33S116,107.39,116.9,106s-.36-6.65-.36-6.65a3.22,3.22,0,0,1,3.29,2.88l0,3.94a3.3,3.3,0,0,1-3.42,2.8l-9.18,0A3.23,3.23,0,0,1,104.36,106.33Z"/><rect class="cls-11" x="119.89" y="99.07" width="15.51" height="9.63" rx="3.6"/><path class="cls-12" d="M119.92,106.11s11.63,1,12.55-.38-.37-6.65-.37-6.65a3.24,3.24,0,0,1,3.3,2.89l0,3.93a3.32,3.32,0,0,1-3.43,2.8l-9.18,0A3.25,3.25,0,0,1,119.92,106.11Z"/><rect class="cls-11" x="135.61" y="98.71" width="15.51" height="9.63" rx="3.6"/><path class="cls-12" d="M135.64,105.75s11.63,1,12.55-.38-.37-6.65-.37-6.65a3.24,3.24,0,0,1,3.3,2.89l0,3.93a3.32,3.32,0,0,1-3.43,2.8l-9.18,0A3.25,3.25,0,0,1,135.64,105.75Z"/><rect class="cls-11" x="151.34" y="98.92" width="15.51" height="9.63" rx="3.6"/><path class="cls-12" d="M151.37,106s11.63,1.05,12.54-.38-.36-6.65-.36-6.65a3.23,3.23,0,0,1,3.29,2.89l0,3.93a3.3,3.3,0,0,1-3.42,2.8l-9.18,0A3.24,3.24,0,0,1,151.37,106Z"/><rect class="cls-11" x="167.07" y="98.79" width="15.51" height="9.63" rx="3.6"/><path class="cls-12" d="M167.1,105.82s11.63,1.06,12.54-.37-.36-6.65-.36-6.65a3.22,3.22,0,0,1,3.29,2.88l0,3.94a3.3,3.3,0,0,1-3.43,2.8l-9.17,0A3.23,3.23,0,0,1,167.1,105.82Z"/><rect class="cls-11" x="152.16" y="118.88" width="18.55" height="11.52" rx="3.6"/><path class="cls-12" d="M152.19,127.29s13.91,1.27,15-.44-.44-8-.44-8a3.86,3.86,0,0,1,3.94,3.46l0,4.7a4,4,0,0,1-4.1,3.35l-11,0A3.87,3.87,0,0,1,152.19,127.29Z"/><rect class="cls-11" x="167.09" y="108.77" width="15.51" height="9.63" rx="3.6"/><path class="cls-12" d="M167.12,115.8s11.63,1.06,12.55-.37-.37-6.65-.37-6.65a3.23,3.23,0,0,1,3.3,2.89l0,3.93a3.32,3.32,0,0,1-3.43,2.8l-9.17,0A3.24,3.24,0,0,1,167.12,115.8Z"/><rect class="cls-11" x="104.65" y="89.37" width="15.51" height="9.63" rx="3.6"/><path class="cls-12" d="M104.68,96.4s11.63,1.06,12.54-.37-.36-6.65-.36-6.65a3.22,3.22,0,0,1,3.29,2.88l0,3.94a3.3,3.3,0,0,1-3.42,2.8l-9.18,0A3.23,3.23,0,0,1,104.68,96.4Z"/><rect class="cls-11" x="120.21" y="89.14" width="15.51" height="9.63" rx="3.6"/><path class="cls-12" d="M120.24,96.18s11.63,1,12.55-.38-.37-6.65-.37-6.65a3.24,3.24,0,0,1,3.3,2.89l0,3.93a3.32,3.32,0,0,1-3.43,2.8l-9.18,0A3.25,3.25,0,0,1,120.24,96.18Z"/><rect class="cls-11" x="135.93" y="88.78" width="15.51" height="9.63" rx="3.6"/><path class="cls-12" d="M136,95.82s11.63,1.05,12.55-.38-.37-6.65-.37-6.65a3.24,3.24,0,0,1,3.3,2.89l0,3.93a3.32,3.32,0,0,1-3.43,2.8l-9.18,0A3.25,3.25,0,0,1,136,95.82Z"/><rect class="cls-11" x="151.66" y="88.99" width="15.51" height="9.63" rx="3.6"/><path class="cls-12" d="M151.69,96s11.63,1,12.54-.38-.36-6.65-.36-6.65a3.23,3.23,0,0,1,3.29,2.89l0,3.93a3.3,3.3,0,0,1-3.42,2.8l-9.18,0A3.24,3.24,0,0,1,151.69,96Z"/><rect class="cls-11" x="167.39" y="88.86" width="15.51" height="9.63" rx="3.6"/><path class="cls-12" d="M167.42,95.89S179.05,97,180,95.52s-.36-6.65-.36-6.65a3.22,3.22,0,0,1,3.29,2.88l0,3.94a3.3,3.3,0,0,1-3.43,2.8l-9.17,0A3.23,3.23,0,0,1,167.42,95.89Z"/><rect class="cls-11" x="104.47" y="79.47" width="15.51" height="9.63" rx="3.6"/><path class="cls-12" d="M104.5,86.5s11.63,1.06,12.54-.37-.36-6.65-.36-6.65A3.22,3.22,0,0,1,120,82.36l0,3.94a3.3,3.3,0,0,1-3.42,2.8l-9.18,0A3.23,3.23,0,0,1,104.5,86.5Z"/><rect class="cls-11" x="120.03" y="79.24" width="15.51" height="9.63" rx="3.6"/><path class="cls-12" d="M120.06,86.28s11.63,1,12.55-.38-.37-6.65-.37-6.65a3.24,3.24,0,0,1,3.3,2.89l0,3.93a3.32,3.32,0,0,1-3.43,2.8l-9.18,0A3.25,3.25,0,0,1,120.06,86.28Z"/><rect class="cls-11" x="135.75" y="78.88" width="15.51" height="9.63" rx="3.6"/><path class="cls-12" d="M135.78,85.92s11.63,1,12.55-.38-.37-6.65-.37-6.65a3.24,3.24,0,0,1,3.3,2.89l0,3.93a3.32,3.32,0,0,1-3.43,2.8l-9.18,0A3.25,3.25,0,0,1,135.78,85.92Z"/><rect class="cls-11" x="151.48" y="79.09" width="15.51" height="9.63" rx="3.6"/><path class="cls-12" d="M151.51,86.13s11.63,1.05,12.54-.38-.36-6.65-.36-6.65A3.23,3.23,0,0,1,167,82l0,3.93a3.3,3.3,0,0,1-3.42,2.8l-9.18,0A3.24,3.24,0,0,1,151.51,86.13Z"/><rect class="cls-11" x="167.21" y="78.96" width="15.51" height="9.63" rx="3.6"/><path class="cls-12" d="M167.24,86s11.63,1.06,12.54-.37-.36-6.65-.36-6.65a3.22,3.22,0,0,1,3.29,2.88l0,3.94a3.3,3.3,0,0,1-3.43,2.8l-9.17,0A3.23,3.23,0,0,1,167.24,86Z"/><rect class="cls-11" x="104.11" y="69.57" width="15.51" height="9.63" rx="3.6"/><path class="cls-12" d="M104.14,76.6s11.63,1.06,12.54-.37-.36-6.65-.36-6.65a3.22,3.22,0,0,1,3.29,2.88l0,3.94a3.3,3.3,0,0,1-3.42,2.8l-9.18,0A3.23,3.23,0,0,1,104.14,76.6Z"/><rect class="cls-11" x="119.67" y="69.34" width="15.51" height="9.63" rx="3.6"/><path class="cls-12" d="M119.7,76.38s11.63,1.05,12.55-.38-.37-6.65-.37-6.65a3.24,3.24,0,0,1,3.3,2.89l0,3.93a3.32,3.32,0,0,1-3.43,2.8l-9.18,0A3.25,3.25,0,0,1,119.7,76.38Z"/><rect class="cls-11" x="135.39" y="68.98" width="15.51" height="9.63" rx="3.6"/><path class="cls-12" d="M135.42,76s11.63,1,12.55-.38S147.6,69,147.6,69a3.24,3.24,0,0,1,3.3,2.89l0,3.93a3.32,3.32,0,0,1-3.43,2.8l-9.18,0A3.25,3.25,0,0,1,135.42,76Z"/><rect class="cls-11" x="151.12" y="69.19" width="15.51" height="9.63" rx="3.6"/><path class="cls-12" d="M151.15,76.23s11.63,1,12.54-.38-.36-6.65-.36-6.65a3.23,3.23,0,0,1,3.29,2.89l0,3.93a3.3,3.3,0,0,1-3.42,2.8l-9.18,0A3.24,3.24,0,0,1,151.15,76.23Z"/><rect class="cls-11" x="166.85" y="69.06" width="15.51" height="9.63" rx="3.6"/><path class="cls-12" d="M166.88,76.09s11.63,1.06,12.54-.37-.36-6.65-.36-6.65A3.22,3.22,0,0,1,182.35,72l0,3.94a3.3,3.3,0,0,1-3.43,2.8l-9.17,0A3.23,3.23,0,0,1,166.88,76.09Z"/><rect class="cls-11" x="103.93" y="59.67" width="15.51" height="9.63" rx="3.6"/><path class="cls-12" d="M104,66.7s11.63,1.06,12.54-.37-.36-6.65-.36-6.65a3.22,3.22,0,0,1,3.29,2.88l0,3.94A3.3,3.3,0,0,1,116,69.3l-9.18,0A3.23,3.23,0,0,1,104,66.7Z"/><rect class="cls-11" x="119.49" y="59.44" width="15.51" height="9.63" rx="3.6"/><path class="cls-12" d="M119.52,66.48s11.63,1,12.55-.38-.37-6.65-.37-6.65a3.24,3.24,0,0,1,3.3,2.89l0,3.93a3.32,3.32,0,0,1-3.43,2.8l-9.18,0A3.25,3.25,0,0,1,119.52,66.48Z"/><rect class="cls-11" x="135.21" y="59.08" width="15.51" height="9.63" rx="3.6"/><path class="cls-12" d="M135.24,66.12s11.63,1,12.55-.38-.37-6.65-.37-6.65a3.24,3.24,0,0,1,3.3,2.89l0,3.93a3.32,3.32,0,0,1-3.43,2.8l-9.18,0A3.25,3.25,0,0,1,135.24,66.12Z"/><rect class="cls-11" x="150.94" y="59.29" width="15.51" height="9.63" rx="3.6"/><path class="cls-12" d="M151,66.33s11.63,1,12.54-.38-.36-6.65-.36-6.65a3.23,3.23,0,0,1,3.29,2.89l0,3.93a3.3,3.3,0,0,1-3.42,2.8l-9.18,0A3.24,3.24,0,0,1,151,66.33Z"/><rect class="cls-11" x="166.67" y="59.16" width="15.51" height="9.63" rx="3.6"/><path class="cls-12" d="M166.7,66.19s11.63,1.06,12.54-.37-.36-6.65-.36-6.65a3.22,3.22,0,0,1,3.29,2.88l0,3.94a3.3,3.3,0,0,1-3.43,2.8l-9.17,0A3.23,3.23,0,0,1,166.7,66.19Z"/><rect class="cls-11" x="103.93" y="49.83" width="15.51" height="9.63" rx="3.6"/><path class="cls-12" d="M104,56.86s11.63,1.06,12.54-.37-.36-6.65-.36-6.65a3.22,3.22,0,0,1,3.29,2.88l0,3.94a3.3,3.3,0,0,1-3.42,2.8l-9.18,0A3.23,3.23,0,0,1,104,56.86Z"/><rect class="cls-11" x="119.49" y="49.6" width="15.51" height="9.63" rx="3.6"/><path class="cls-12" d="M119.52,56.64s11.63,1,12.55-.38-.37-6.65-.37-6.65A3.24,3.24,0,0,1,135,52.5l0,3.93a3.32,3.32,0,0,1-3.43,2.8l-9.18,0A3.25,3.25,0,0,1,119.52,56.64Z"/><rect class="cls-11" x="135.21" y="49.24" width="15.51" height="9.63" rx="3.6"/><path class="cls-12" d="M135.24,56.28s11.63,1,12.55-.38-.37-6.65-.37-6.65a3.24,3.24,0,0,1,3.3,2.89l0,3.93a3.32,3.32,0,0,1-3.43,2.8l-9.18,0A3.25,3.25,0,0,1,135.24,56.28Z"/><rect class="cls-11" x="150.94" y="49.45" width="15.51" height="9.63" rx="3.6"/><path class="cls-12" d="M151,56.49s11.63,1,12.54-.38-.36-6.65-.36-6.65a3.23,3.23,0,0,1,3.29,2.89l0,3.93a3.3,3.3,0,0,1-3.42,2.8l-9.18,0A3.24,3.24,0,0,1,151,56.49Z"/><rect class="cls-11" x="166.67" y="49.32" width="15.51" height="9.63" rx="3.6"/><path class="cls-12" d="M166.7,56.35s11.63,1.06,12.54-.37-.36-6.65-.36-6.65a3.22,3.22,0,0,1,3.29,2.88l0,3.94a3.3,3.3,0,0,1-3.43,2.8l-9.17,0A3.23,3.23,0,0,1,166.7,56.35Z"/><rect class="cls-11" x="103.87" y="39.9" width="15.51" height="9.63" rx="3.6"/><path class="cls-12" d="M103.9,46.93s11.63,1.06,12.54-.37-.36-6.65-.36-6.65a3.22,3.22,0,0,1,3.29,2.88l0,3.94a3.3,3.3,0,0,1-3.42,2.8l-9.18,0A3.23,3.23,0,0,1,103.9,46.93Z"/><rect class="cls-11" x="119.43" y="39.67" width="15.51" height="9.63" rx="3.6"/><path class="cls-12" d="M119.46,46.71s11.63,1,12.55-.38-.37-6.65-.37-6.65a3.24,3.24,0,0,1,3.3,2.89l0,3.93a3.32,3.32,0,0,1-3.43,2.8l-9.18,0A3.25,3.25,0,0,1,119.46,46.71Z"/><rect class="cls-11" x="135.15" y="39.31" width="15.51" height="9.63" rx="3.6"/><path class="cls-12" d="M135.18,46.35s11.63,1,12.55-.38-.37-6.65-.37-6.65a3.24,3.24,0,0,1,3.3,2.89l0,3.93a3.32,3.32,0,0,1-3.43,2.8l-9.18,0A3.25,3.25,0,0,1,135.18,46.35Z"/><rect class="cls-11" x="150.88" y="39.52" width="15.51" height="9.63" rx="3.6"/><path class="cls-12" d="M150.91,46.56s11.63,1,12.54-.38-.36-6.65-.36-6.65a3.23,3.23,0,0,1,3.29,2.89l0,3.93a3.3,3.3,0,0,1-3.42,2.8l-9.18,0A3.24,3.24,0,0,1,150.91,46.56Z"/><rect class="cls-11" x="119.43" y="29.71" width="15.51" height="9.63" rx="3.6"/><path class="cls-12" d="M119.46,36.75s11.63,1,12.55-.38-.37-6.65-.37-6.65a3.24,3.24,0,0,1,3.3,2.89l0,3.93a3.32,3.32,0,0,1-3.43,2.8l-9.18,0A3.25,3.25,0,0,1,119.46,36.75Z"/><rect class="cls-11" x="135.15" y="29.35" width="15.51" height="9.63" rx="3.6"/><path class="cls-12" d="M135.18,36.39s11.63,1,12.55-.38-.37-6.65-.37-6.65a3.24,3.24,0,0,1,3.3,2.89l0,3.93a3.32,3.32,0,0,1-3.43,2.8l-9.18,0A3.25,3.25,0,0,1,135.18,36.39Z"/><rect class="cls-11" x="150.88" y="29.56" width="15.51" height="9.63" rx="3.6"/><path class="cls-12" d="M150.91,36.6s11.63,1,12.54-.38-.36-6.65-.36-6.65a3.23,3.23,0,0,1,3.29,2.89l0,3.93a3.3,3.3,0,0,1-3.42,2.8l-9.18,0A3.24,3.24,0,0,1,150.91,36.6Z"/><rect class="cls-11" x="127.46" y="165.67" width="18.55" height="11.52" rx="3.6"/><path class="cls-12" d="M127.49,174.08s13.92,1.26,15-.45-.43-7.95-.43-7.95a3.86,3.86,0,0,1,3.94,3.45l0,4.7a3.94,3.94,0,0,1-4.1,3.35l-11,0A3.89,3.89,0,0,1,127.49,174.08Z"/><rect class="cls-11" x="114.51" y="154.46" width="18.55" height="11.52" rx="3.6"/><path class="cls-12" d="M114.55,162.87s13.91,1.27,15-.45-.44-7.95-.44-7.95a3.86,3.86,0,0,1,3.94,3.46l0,4.7A4,4,0,0,1,129,166l-11,0A3.87,3.87,0,0,1,114.55,162.87Z"/><rect class="cls-11" x="133.31" y="154.1" width="18.55" height="11.52" rx="3.6"/><path class="cls-12" d="M133.35,162.51s13.91,1.26,15-.45-.44-7.95-.44-7.95a3.86,3.86,0,0,1,3.94,3.46l0,4.7a4,4,0,0,1-4.09,3.35l-11,0A3.87,3.87,0,0,1,133.35,162.51Z"/></g><path class="cls-13" d="M140.93,192.16c-5.12-16.51-2.31-39.43,9.89-54.64,21.46-26.73,30.63-51.29,34.9-69.28-7.51,68.57,4.48,100-6.72,114.22C168.16,196.19,140.93,192.16,140.93,192.16Z"/><path class="cls-13" d="M141.41,192.18c1.65-10.2-5.63-16.85-13.92-29.13-20.16-29.86-11-68.19-28.89-84.61,3.6,32.4-16.56,77,4.74,104C114.17,196.21,141.41,192.18,141.41,192.18Z"/><rect class="cls-13" x="130.48" y="184.7" width="22.4" height="14.18"/><path d="M116.37,58.76c2.28-3.64,5.57-6,11.39-5.35,0,0-4.67-2.62-8-.57A7.72,7.72,0,0,0,116.37,58.76Z"/><path d="M166.81,58.37c-2.28-3.65-5.57-6-11.39-5.36,0,0,4.67-2.61,8-.56A7.72,7.72,0,0,1,166.81,58.37Z"/><path class="cls-14" d="M145.4,93.49s-4.29-4.77-6.49-2.28c-1.65,1.89,2.17,3.76,3.19,6.38"/><path class="cls-14" d="M126.39,107.84A33,33,0,0,1,143,102.49a31,31,0,0,1,17.31,5.12"/><path class="cls-14" d="M167.27,102.94c-6.2,2.45-8.93,6.48-7.75,12.3"/><path class="cls-14" d="M119.1,102.51c6.2,2.45,8.93,6.48,7.74,12.3"/><ellipse class="cls-15" cx="126.62" cy="74.65" rx="10.12" ry="17.71"/><ellipse class="cls-16" cx="126.73" cy="75.22" rx="4.5" ry="7.12"/><path class="cls-17" d="M136.74,74.6H116.5c0-9.78,4.53-17.71,10.12-17.71S136.74,64.82,136.74,74.6Z"/><ellipse class="cls-15" cx="156.45" cy="74.82" rx="10.12" ry="17.71"/><ellipse class="cls-16" cx="156.56" cy="75.39" rx="4.5" ry="7.12"/><path class="cls-17" d="M166.57,74.71H146.33c0-9.79,4.53-17.72,10.12-17.72S166.57,64.92,166.57,74.71Z"/><polygon class="cls-16" points="161.52 74.71 167.96 69.56 165.09 74.63 168.08 72.44 166.69 74.79 161.52 74.71"/><polygon class="cls-16" points="121.72 74.6 115.22 69.38 118.09 74.45 115.1 72.26 116.5 74.61 121.72 74.6"/><rect class="cls-18" x="88.64" y="204.28" width="2.11" height="6.04" transform="translate(245.05 371.26) rotate(159.94)"/><path class="cls-18" d="M92.76,212.15a6.56,6.56,0,0,1,2.08,3.37,39,39,0,0,1,.87,4.16c.1.87.47,2.82.67,3.89s.15,9,.15,9a5.87,5.87,0,0,1-.46,2.45c-1.75,4-6.93,3.79-7.59-2-.35,8.06-10.12,8.14-9.21-.95-1.87,3.33-5.35,3-6.6.92a3.42,3.42,0,0,1-.42-2.28l1.6-10.46a20.11,20.11,0,0,0,.23-2.57l.17-7.32a12.63,12.63,0,0,1,.44-3.12,11.57,11.57,0,0,1,1.36-3.16A19.3,19.3,0,0,1,79.56,200a1.88,1.88,0,0,1,1.27-.45l2.64-.06a2.31,2.31,0,0,0,1.8-.91l1.79-2.31,1.31,2.51a1.75,1.75,0,0,0,1.35.92l4.29.47a2.83,2.83,0,0,1,1,.29,9.37,9.37,0,0,1,4.83,6,41.57,41.57,0,0,1,1,4.94,21.42,21.42,0,0,1-.11,7l0,.12A3.66,3.66,0,0,1,98.94,221c-1.56.86-2.46-.08-3.44-2.47"/><line class="cls-19" x1="88.5" y1="233.74" x2="88.62" y2="221.51"/><path class="cls-19" d="M79.07,232.64c.79-3.17,1.49-7.58,2.17-12.31"/><path class="cls-18" d="M88.78,199.68a18.07,18.07,0,0,0,5.37.33l0,0a2.53,2.53,0,0,0-.49-3.84,12.26,12.26,0,0,0-6.21-1.69c-3.26-.16-5.12.56-6.13,1.23A2.48,2.48,0,0,0,80.26,198a6.9,6.9,0,0,0,.33,1.49,10.92,10.92,0,0,0,4.22-.11"/><rect class="cls-18" x="199.39" y="199.53" width="2.11" height="6.04" transform="translate(81.63 -56.47) rotate(20.06)"/><path class="cls-18" d="M197.37,207.39a6.56,6.56,0,0,0-2.08,3.37,39.59,39.59,0,0,0-.86,4.16c-.11.88-.48,2.82-.68,3.89s-.15,9-.15,9a5.88,5.88,0,0,0,.47,2.45c1.75,4,6.93,3.78,7.59-2,.35,8.06,10.11,8.14,9.2-.95,1.88,3.33,5.35,3,6.6.92a3.41,3.41,0,0,0,.42-2.28l-1.6-10.45a20.41,20.41,0,0,1-.22-2.58l-.17-7.32a13.19,13.19,0,0,0-.44-3.12,11.6,11.6,0,0,0-1.37-3.16,19.26,19.26,0,0,0-3.51-4.14,1.88,1.88,0,0,0-1.26-.45l-2.65-.06a2.3,2.3,0,0,1-1.8-.9l-1.79-2.32L201.76,194a1.73,1.73,0,0,1-1.35.92l-4.29.47a2.89,2.89,0,0,0-1,.29,9.37,9.37,0,0,0-4.83,6,41.57,41.57,0,0,0-1,4.94,21.42,21.42,0,0,0,.11,7l0,.12a3.65,3.65,0,0,0,1.8,2.53c1.55.86,2.45-.08,3.44-2.47"/><line class="cls-19" x1="201.63" y1="228.98" x2="201.51" y2="216.75"/><path class="cls-19" d="M211.07,227.89c-.8-3.18-1.5-7.59-2.18-12.31"/><path class="cls-18" d="M201.36,194.92a18.11,18.11,0,0,1-5.37.33l0,0a2.53,2.53,0,0,1,.49-3.84,12.41,12.41,0,0,1,6.22-1.69c3.25-.15,5.11.56,6.12,1.23a2.52,2.52,0,0,1,1.09,2.35,8.23,8.23,0,0,1-.33,1.48,10.91,10.91,0,0,1-4.22-.11"/></g></svg>