<svg xmlns="http://www.w3.org/2000/svg" viewBox="0 0 300 300"><defs><style>.cls-1,.cls-3{fill:#969696;}.cls-1{stroke:#303030;}.cls-1,.cls-10,.cls-2,.cls-24,.cls-3,.cls-5{stroke-miterlimit:10;}.cls-2{fill:#c6c6c6;stroke:#7f7f7f;}.cls-3{stroke:#636363;}.cls-4{fill:#639113;}.cls-5{fill:#eaeaea;stroke:#545454;}.cls-6{fill:#ee3346;}.cls-7{fill:#fda4a8;opacity:0.5;}.cls-8{fill:#be3034;}.cls-9{fill:#fbb95c;}.cls-10,.cls-24{fill:none;}.cls-10{stroke:#aa6b26;stroke-width:0.5px;}.cls-11{fill:#190606;}.cls-12{fill:#bc0000;}.cls-13{fill:#e54c4c;}.cls-14{fill:#ff7d8a;}.cls-15{fill:#438019;}.cls-16{fill:#3c9924;}.cls-17{fill:#53a926;}.cls-18{fill:#0e5b00;}.cls-19{fill:#033a00;}.cls-20{fill:#e5d729;}.cls-21{fill:#63b030;}.cls-22{fill:#85d94f;}.cls-23{fill:#075b00;}.cls-24{stroke:#075b00;stroke-width:4px;}</style></defs><g id="Strawberry"><path class="cls-1" d="M139.42,276.79c3.21,1.7,4.9,4.33,4.12,8.48-2,5.47-7.84,8.11-16.23,7.75l-12.16-1.09a23.92,23.92,0,0,0-2.81-.08l-15.55.44a82.38,82.38,0,0,1-23.49-2.18C67,287.76,63.4,284,66,277.27c3.15-3.42,9.34-4.61,15.5-5.81Z"/><path class="cls-2" d="M107.21,266.86c-3-5.33-8.18-9.32-16.42-10.58-.36-.06-.72-.09-1.07-.12-10.34-.64-18.57,2-22,8.92a13.47,13.47,0,0,0,.07,12.47c2.73,5,8.43,7.68,16.4,8.77a13.33,13.33,0,0,0,2.36.11c12.87-.53,19.89-1,26-1a53.59,53.59,0,0,1,8.58.61,32.9,32.9,0,0,0,8.11.34,13.44,13.44,0,0,0,10.93-7.57,22.67,22.67,0,0,0,2-9.87c0-13.45-6.94-17.91-8.44-17.81a19.82,19.82,0,0,1-6,1.62s-3.57-2.63-5.29-2.58c-1.45,0-4.75,2.9-4.75,2.9a34.11,34.11,0,0,1-9-1.45c-1.21.56-5.72,5.66-7.34,8.64"/><path class="cls-3" d="M127.23,252.94c7.06-1.23,12.11-4.55,12.11-8.45,0-5-8.15-9-18.2-9s-18.21,4-18.21,9c0,4.41,6.46,8.08,15,8.83"/><path class="cls-1" d="M154.3,276.39c-3.2,1.7-4.89,4.33-4.12,8.48,2,5.47,7.84,8.11,16.23,7.75l12.16-1.09a24,24,0,0,1,2.81-.08l15.55.44a82.35,82.35,0,0,0,23.49-2.18c6.35-2.35,9.9-6.07,7.27-12.84-3.14-3.42-9.33-4.61-15.5-5.81Z"/><path class="cls-2" d="M186.51,266.46c3-5.33,8.19-9.32,16.42-10.58.36-.06.72-.09,1.08-.12,10.34-.64,18.56,2,22,8.92a13.5,13.5,0,0,1-.06,12.47c-2.74,5-8.44,7.68-16.41,8.77a13.29,13.29,0,0,1-2.36.11c-12.87-.53-19.89-1-26-1a53.63,53.63,0,0,0-8.59.61,32.9,32.9,0,0,1-8.11.34,13.45,13.45,0,0,1-10.93-7.57,22.67,22.67,0,0,1-2-9.87c0-13.45,6.94-17.91,8.44-17.81a19.82,19.82,0,0,0,6,1.62s3.57-2.63,5.29-2.58c1.45,0,4.75,2.9,4.75,2.9a34,34,0,0,0,8.95-1.45c1.21.56,5.72,5.66,7.35,8.64"/><path class="cls-3" d="M166.49,252.54c-7.06-1.23-12.11-4.55-12.11-8.45,0-5,8.15-9,18.21-9s18.2,4,18.2,9c0,4.41-6.46,8.08-15,8.83"/><path class="cls-4" d="M120.91,245.4h0c-4,0-7.2-3.88-7.2-8.68-4.55-24.29-3.89-50.35,0-77.51h14.4c-3.89,28.22-4.55,54.47,0,77.51C128.11,241.52,124.88,245.4,120.91,245.4Z"/><path class="cls-4" d="M171.39,246.05h0c-4,0-7.2-3.88-7.2-8.68,6.66-22.14,5.82-48.44,0-77.51h14.4c5.5,28,6,54.09,0,77.51C178.59,242.17,175.36,246.05,171.39,246.05Z"/><path class="cls-4" d="M58.86,184.45h0c-3.59-1.71-4.43-7.44-1.88-12.8,8.82-29.13,23.29-58,41.26-86.72l13,6.19C92.71,121,78.14,150.11,70,177.84,67.43,183.2,62.45,186.16,58.86,184.45Z"/><path class="cls-4" d="M240.63,183.08h0c3.59-1.7,4.43-7.44,1.88-12.8-8.83-29.12-23.3-58-41.26-86.71l-13,6.19c18.53,29.9,33.1,59,41.26,86.71C232.06,181.83,237,184.79,240.63,183.08Z"/><path class="cls-5" d="M248.06,171.79c0-3-.87-5.31-3.73-6.16,0,0-3.29-1-9.37,2.42a18.11,18.11,0,0,0-7.13,7.51,4.64,4.64,0,0,0,.63,5.22,4.76,4.76,0,0,0,2.21,1.34Z"/><path class="cls-5" d="M234.1,175.46a6.43,6.43,0,0,0-2.06,3.29l-1.66,6.44a41.12,41.12,0,0,1-9.91,14.33,4,4,0,0,0-.7,4.93c.61,1,1.58,1.56,3.31,1.18,5.72-.67,10.3-3.75,14.08-8.54A64.92,64.92,0,0,0,255,210.25a20.71,20.71,0,0,0,2.83,1.2c2.28.77,4.3,1.64,6.41,2.2,2.48.66,5,.95,7.33-.07,4.25-1.85,3.7-5.28-3.78-9.86l7.44-.5a15,15,0,0,0,7.36-2.45c5.68-3.8,3.44-8.14-4.23-10,2.95-2.39,4.52-4.72,2.62-6.9a4.66,4.66,0,0,0-3-1.52l-6.94-.8a14.34,14.34,0,0,1-4.88-1.49c-4-2.06-12.15-6.18-15.53-7.18a44.21,44.21,0,0,0-8.3-1.43,6.35,6.35,0,0,0-3.72.83"/><path class="cls-5" d="M260.37,187c5.8,3.68,11.75,5.7,18,3.81"/><path class="cls-5" d="M252.94,195.11a26.67,26.67,0,0,0,14.88,8.61"/><path class="cls-5" d="M50.74,177.88c0-3,.87-5.3,3.73-6.15,0,0,3.29-1,9.37,2.42A18.06,18.06,0,0,1,71,181.66a4.62,4.62,0,0,1-.63,5.21,4.68,4.68,0,0,1-2.21,1.34Z"/><path class="cls-5" d="M64.7,181.56a6.37,6.37,0,0,1,2.06,3.28l1.66,6.45a41.22,41.22,0,0,0,9.91,14.33,4,4,0,0,1,.7,4.93c-.61,1-1.58,1.55-3.31,1.18-5.72-.68-10.3-3.75-14.08-8.54a64.67,64.67,0,0,1-17.87,13.15,19.58,19.58,0,0,1-2.83,1.21c-2.28.77-4.3,1.63-6.41,2.19-2.48.66-5,1-7.33-.06-4.25-1.85-3.7-5.28,3.78-9.87l-7.44-.49a15.07,15.07,0,0,1-7.36-2.45c-5.68-3.8-3.44-8.14,4.23-10-2.95-2.39-4.52-4.73-2.62-6.91a4.65,4.65,0,0,1,3-1.51l6.94-.81a14.32,14.32,0,0,0,4.88-1.48c4-2.06,12.15-6.18,15.53-7.18a42.64,42.64,0,0,1,8.3-1.43,6.34,6.34,0,0,1,3.72.82"/><path class="cls-5" d="M38.43,193.09c-5.8,3.69-11.75,5.71-18,3.82"/><path class="cls-5" d="M45.86,201.21A26.65,26.65,0,0,1,31,209.81"/><path class="cls-6" d="M149.64,182.37c43.41-9.87,60.23-61.48,61.64-66,20.62-74.47-30.53-86.22-30.53-86.22H114.28S67.88,43.64,88.84,121C103.5,169.69,139.16,182.37,149.64,182.37Z"/><ellipse class="cls-7" cx="99.93" cy="131.17" rx="4.22" ry="14.49" transform="translate(-45.94 54.28) rotate(-24.9)"/><path class="cls-8" d="M203.12,102.7c.43,16.25-2.34,19.35-4.63,20.73-5.84,3.51-16.74.82-21.61-5.18-6.59-8.12,1.08-18.29-4.63-22.61-5.91-4.48-15.93,5.06-26.75.47-6.37-2.71-10.88-9.41-10.8-15.55.15-11.38,16-17.91,20.58-19.79,2.33-1,23.49-9.67,37.55,0C202.18,67.2,202.49,79,203.12,102.7Z"/><ellipse class="cls-9" cx="166.32" cy="162.28" rx="1.67" ry="5.29"/><ellipse class="cls-10" cx="166.11" cy="162.24" rx="1.67" ry="5.29"/><ellipse class="cls-9" cx="166.32" cy="162.28" rx="1.67" ry="5.29"/><ellipse class="cls-9" cx="147.64" cy="171.48" rx="1.67" ry="5.29"/><ellipse class="cls-10" cx="147.43" cy="171.44" rx="1.67" ry="5.29"/><ellipse class="cls-9" cx="147.64" cy="171.48" rx="1.67" ry="5.29"/><ellipse class="cls-9" cx="128.5" cy="160.94" rx="1.67" ry="5.29"/><ellipse class="cls-10" cx="128.29" cy="160.9" rx="1.67" ry="5.29"/><ellipse class="cls-9" cx="128.5" cy="160.94" rx="1.67" ry="5.29"/><ellipse class="cls-9" cx="198.83" cy="129.95" rx="1.67" ry="5.29"/><ellipse class="cls-10" cx="198.62" cy="129.91" rx="1.67" ry="5.29"/><ellipse class="cls-9" cx="198.83" cy="129.95" rx="1.67" ry="5.29"/><ellipse class="cls-9" cx="182.79" cy="150.21" rx="1.67" ry="5.29"/><ellipse class="cls-10" cx="182.58" cy="150.17" rx="1.67" ry="5.29"/><ellipse class="cls-9" cx="182.79" cy="150.21" rx="1.67" ry="5.29"/><ellipse class="cls-9" cx="125.28" cy="138.59" rx="1.67" ry="5.29"/><ellipse class="cls-10" cx="125.07" cy="138.56" rx="1.67" ry="5.29"/><ellipse class="cls-9" cx="125.28" cy="138.59" rx="1.67" ry="5.29"/><ellipse class="cls-9" cx="141.02" cy="149.86" rx="1.67" ry="5.29"/><ellipse class="cls-10" cx="140.81" cy="149.82" rx="1.67" ry="5.29"/><ellipse class="cls-9" cx="141.02" cy="149.86" rx="1.67" ry="5.29"/><ellipse class="cls-9" cx="112.22" cy="123.33" rx="1.67" ry="5.29"/><ellipse class="cls-10" cx="112.01" cy="123.29" rx="1.67" ry="5.29"/><ellipse class="cls-9" cx="112.22" cy="123.33" rx="1.67" ry="5.29"/><ellipse class="cls-9" cx="157.08" cy="149.08" rx="1.67" ry="5.29"/><ellipse class="cls-10" cx="156.87" cy="149.04" rx="1.67" ry="5.29"/><ellipse class="cls-9" cx="157.08" cy="149.08" rx="1.67" ry="5.29"/><ellipse class="cls-9" cx="174.04" cy="137.09" rx="1.67" ry="5.29"/><ellipse class="cls-10" cx="173.83" cy="137.05" rx="1.67" ry="5.29"/><ellipse class="cls-9" cx="174.04" cy="137.09" rx="1.67" ry="5.29"/><ellipse class="cls-9" cx="187.33" cy="119.88" rx="1.67" ry="5.29"/><ellipse class="cls-10" cx="187.12" cy="119.84" rx="1.67" ry="5.29"/><ellipse class="cls-9" cx="187.33" cy="119.88" rx="1.67" ry="5.29"/><ellipse class="cls-9" cx="98.32" cy="105.56" rx="1.67" ry="5.29"/><ellipse class="cls-10" cx="98.11" cy="105.52" rx="1.67" ry="5.29"/><ellipse class="cls-9" cx="98.32" cy="105.56" rx="1.67" ry="5.29"/><ellipse class="cls-9" cx="202.41" cy="103.9" rx="1.67" ry="5.29"/><ellipse class="cls-10" cx="202.2" cy="103.86" rx="1.67" ry="5.29"/><ellipse class="cls-9" cx="202.41" cy="103.9" rx="1.67" ry="5.29"/><ellipse class="cls-9" cx="147.45" cy="133.94" rx="1.67" ry="5.29"/><ellipse class="cls-10" cx="147.24" cy="133.9" rx="1.67" ry="5.29"/><ellipse class="cls-9" cx="147.45" cy="133.94" rx="1.67" ry="5.29"/><ellipse class="cls-9" cx="177.32" cy="36.86" rx="1.67" ry="5.29"/><ellipse class="cls-10" cx="177.11" cy="36.9" rx="1.67" ry="5.29"/><ellipse class="cls-9" cx="177.32" cy="36.86" rx="1.67" ry="5.29"/><ellipse class="cls-9" cx="128.5" cy="36.2" rx="1.67" ry="5.29"/><ellipse class="cls-10" cx="128.29" cy="36.24" rx="1.67" ry="5.29"/><ellipse class="cls-9" cx="128.5" cy="36.2" rx="1.67" ry="5.29"/><ellipse class="cls-9" cx="106.74" cy="46.03" rx="1.67" ry="5.29"/><ellipse class="cls-10" cx="106.53" cy="46.07" rx="1.67" ry="5.29"/><ellipse class="cls-9" cx="106.74" cy="46.03" rx="1.67" ry="5.29"/><ellipse class="cls-9" cx="92.19" cy="64.39" rx="1.67" ry="5.29"/><ellipse class="cls-10" cx="91.98" cy="64.43" rx="1.67" ry="5.29"/><ellipse class="cls-9" cx="92.19" cy="64.39" rx="1.67" ry="5.29"/><ellipse class="cls-9" cx="202.83" cy="64.19" rx="1.67" ry="5.29"/><ellipse class="cls-10" cx="202.62" cy="64.23" rx="1.67" ry="5.29"/><ellipse class="cls-9" cx="202.83" cy="64.19" rx="1.67" ry="5.29"/><ellipse class="cls-9" cx="193.79" cy="48.93" rx="1.67" ry="5.29"/><ellipse class="cls-10" cx="193.58" cy="48.97" rx="1.67" ry="5.29"/><ellipse class="cls-9" cx="193.79" cy="48.93" rx="1.67" ry="5.29"/><ellipse class="cls-9" cx="125.28" cy="58.55" rx="1.67" ry="5.29"/><ellipse class="cls-10" cx="125.07" cy="58.58" rx="1.67" ry="5.29"/><ellipse class="cls-9" cx="125.28" cy="58.55" rx="1.67" ry="5.29"/><ellipse class="cls-9" cx="141.02" cy="47.28" rx="1.67" ry="5.29"/><ellipse class="cls-10" cx="140.81" cy="47.32" rx="1.67" ry="5.29"/><ellipse class="cls-9" cx="141.02" cy="47.28" rx="1.67" ry="5.29"/><ellipse class="cls-9" cx="112.22" cy="73.81" rx="1.67" ry="5.29"/><ellipse class="cls-10" cx="112.01" cy="73.85" rx="1.67" ry="5.29"/><ellipse class="cls-9" cx="112.22" cy="73.81" rx="1.67" ry="5.29"/><ellipse class="cls-9" cx="155.08" cy="47.06" rx="1.67" ry="5.29"/><ellipse class="cls-10" cx="154.87" cy="47.1" rx="1.67" ry="5.29"/><ellipse class="cls-9" cx="155.08" cy="47.06" rx="1.67" ry="5.29"/><ellipse class="cls-9" cx="172.04" cy="57.05" rx="1.67" ry="5.29"/><ellipse class="cls-10" cx="171.83" cy="57.09" rx="1.67" ry="5.29"/><ellipse class="cls-9" cx="172.04" cy="57.05" rx="1.67" ry="5.29"/><ellipse class="cls-9" cx="187.33" cy="76.26" rx="1.67" ry="5.29"/><ellipse class="cls-10" cx="187.12" cy="76.3" rx="1.67" ry="5.29"/><ellipse class="cls-9" cx="187.33" cy="76.26" rx="1.67" ry="5.29"/><ellipse class="cls-9" cx="90.32" cy="88.58" rx="1.67" ry="5.29"/><ellipse class="cls-10" cx="90.11" cy="88.62" rx="1.67" ry="5.29"/><ellipse class="cls-9" cx="90.32" cy="88.58" rx="1.67" ry="5.29"/><ellipse class="cls-9" cx="207.41" cy="82.24" rx="1.67" ry="5.29"/><ellipse class="cls-10" cx="207.2" cy="82.28" rx="1.67" ry="5.29"/><ellipse class="cls-9" cx="207.41" cy="82.24" rx="1.67" ry="5.29"/><ellipse class="cls-9" cx="147.45" cy="63.2" rx="1.67" ry="5.29"/><ellipse class="cls-10" cx="147.24" cy="63.24" rx="1.67" ry="5.29"/><ellipse class="cls-9" cx="147.45" cy="63.2" rx="1.67" ry="5.29"/><path class="cls-11" d="M156,81.77c-1.05,9.91,2.85,18.46,8.72,19.08,5.1.55,8.27-4.81,10.17-12.77-12.86-5-12.28-1.94.62-6-.49-7.61-2.13-16.59-7-17.11C162.64,64.32,157,71.85,156,81.77Z"/><polygon class="cls-11" points="172.3 82.89 178.1 78.46 175.05 81.94 181.27 79 177.12 82.05 172.3 82.89"/><path class="cls-11" d="M140,82c.95,9.92-3,18.43-8.92,19-5.1.49-8.22-4.9-10-12.88,12.9-4.82,12.3-1.81-.56-6,.57-7.61,2.3-16.57,7.15-17C133.53,64.45,139.07,72,140,82Z"/><polygon class="cls-11" points="124 82.89 118.24 78.4 121.25 81.9 115.06 78.91 119.19 82 124 82.89"/><path class="cls-11" d="M187.33,117.5c-.38-10.94-10.29-12.11-27.06-3.1l.8-.8a34.22,34.22,0,0,1,10.25-5.93c5.8-1.67,13.47-1.58,15.75,1.78a8.31,8.31,0,0,1,.92,6.93Z"/><path class="cls-11" d="M111.63,117.49c.37-10.95,10.28-12.12,27.05-3.1l-.79-.8a34.09,34.09,0,0,0-10.26-5.94c-5.8-1.66-13.46-1.58-15.75,1.79a8.24,8.24,0,0,0-.91,6.92Z"/><ellipse class="cls-12" cx="148.68" cy="112.13" rx="12.69" ry="6.58"/><ellipse class="cls-13" cx="148.63" cy="107.68" rx="5.48" ry="1.63"/><path class="cls-11" d="M124.75,121.82c15.9,6.2,34.47,7.16,48.6-1.5,0,0-3,19.69-24.3,19.5S124.75,121.82,124.75,121.82Z"/><path class="cls-11" d="M175.06,123.28c-.58-2.53-2.64-3.42-5.83-2.77,0,0,0,0,0,0l1.2-.63a4.47,4.47,0,0,1,1.24-.44,4.11,4.11,0,0,1,1.31,0l.2,0a2.84,2.84,0,0,1,1.8,1.17,2.47,2.47,0,0,1,.31,2.11l-.17.57S175.06,123.3,175.06,123.28Z"/><path class="cls-11" d="M123.31,124.38c.57-2.54,2.64-3.42,5.83-2.78,0,0,0,0,0,0l-1.2-.63a4.28,4.28,0,0,0-1.23-.43,3.9,3.9,0,0,0-1.32,0l-.2,0a2.87,2.87,0,0,0-1.79,1.17,2.49,2.49,0,0,0-.31,2.12l.17.57A0,0,0,0,0,123.31,124.38Z"/><ellipse class="cls-14" cx="118.2" cy="114.73" rx="1.33" ry="1.26"/><ellipse class="cls-14" cx="121.96" cy="113.92" rx="1.51" ry="1.42"/><ellipse class="cls-14" cx="120.88" cy="117" rx="0.98" ry="0.87"/><ellipse class="cls-14" cx="179.57" cy="114.7" rx="1.33" ry="1.26"/><ellipse class="cls-14" cx="175.8" cy="113.89" rx="1.51" ry="1.42"/><ellipse class="cls-14" cx="176.88" cy="116.96" rx="0.98" ry="0.87"/><path class="cls-15" d="M135.6,19.89c5.41-6.64,17.09-6.88,24.46-.12L147.77,29.85Z"/><path class="cls-16" d="M146.74,28.84c8.84,9.83,24.26,12.68,43.88,2.57,3.82-1.95,4.11-6.6,4.11-6.6-9.3.94-14.82-1.27-18.44-5.66C167.08,15.1,158.17,18.19,146.74,28.84Z"/><path class="cls-17" d="M147,28.25s-11.31-13.64-25.44-11.06c-8.59,2-20.07,12.31-20.07,12.31a178.89,178.89,0,0,0,23.07,5.09C140.19,33.85,147,28.25,147,28.25Z"/><path class="cls-18" d="M155,11.57c-.14-2.71-2.74-6.73-5.42-7.28a1,1,0,0,0-1.13.52c-.79,1.48-1.52,6.8-1.87,9.25-.43,3-.47,15-.47,15a1.88,1.88,0,0,0,2.65,0s1-8.56,1.6-10.6c.56-1.8,2.44-5.24,4-5.9A1,1,0,0,0,155,11.57Z"/><path class="cls-19" d="M154.36,11.89a14.75,14.75,0,0,1-5.44-7.13.39.39,0,0,1,.4-.52c2.6.32,5.42,4.21,5.64,7.31A.38.38,0,0,1,154.36,11.89Z"/><path class="cls-20" d="M148.75,29.23c1,12.46,12.79,23.77,34.75,27.05a22.21,22.21,0,0,0,9-1c-8-4.49-13.65-9.25-13.83-14.63C173.83,32.43,164.49,27.51,148.75,29.23Z"/><path class="cls-21" d="M147,28.5s-11.06,9.83-5.9,24.83c3.44,8.11,15,17.21,15,17.21a180,180,0,0,0,1-23.61C154.9,30.71,147,28.5,147,28.5Z"/><path class="cls-22" d="M147.11,28.41c-16.56-5.16-33,2.05-36.63,23.69a43.12,43.12,0,0,0,.33,8.19c5.92-6.34,11.67-10.53,17-9.83C135,45.67,143,38.14,147.11,28.41Z"/><ellipse class="cls-7" cx="110.26" cy="151.28" rx="2.13" ry="4.42" transform="translate(-53.45 60.5) rotate(-24.9)"/><g id="LENTES"><polygon class="cls-23" points="202.76 68.94 205.88 75.08 235.88 63.8 230.42 53.09 202.76 68.94"/></g><path class="cls-24" d="M163.55,103.78,187,105.84c8.16.72,15.47-4.29,16.32-11.19l2.33-19c.85-6.9-5.08-13.07-13.24-13.79L169,59.85c-8.16-.72-15.47,4.29-16.32,11.19L150.31,90C149.46,96.89,155.39,103.06,163.55,103.78Z"/><path class="cls-24" d="M132.29,103.45l-23.46,2.06c-8.17.72-15.47-4.29-16.32-11.19l-2.33-19c-.85-6.89,5.08-13.06,13.24-13.78l23.46-2.06c8.17-.72,15.47,4.29,16.32,11.18l2.34,19C146.39,96.56,140.46,102.73,132.29,103.45Z"/><path class="cls-24" d="M143.34,75.53a15.66,15.66,0,0,1,8.48,0"/><g id="LENTES-2" data-name="LENTES"><polygon class="cls-23" points="92.53 68.46 89.4 74.59 59.4 63.32 64.86 52.61 92.53 68.46"/></g></g></svg>