<svg xmlns="http://www.w3.org/2000/svg" xmlns:xlink="http://www.w3.org/1999/xlink" viewBox="0 0 300 300"><defs><style>.cls-1,.cls-15,.cls-17,.cls-8{fill:none;}.cls-1{stroke:#efcdb7;stroke-width:13px;}.cls-1,.cls-15,.cls-17,.cls-2,.cls-3,.cls-4,.cls-5,.cls-8{stroke-miterlimit:10;}.cls-2{fill:#c6c6c6;stroke:#7f7f7f;}.cls-3,.cls-4{fill:#969696;}.cls-3{stroke:#636363;}.cls-4{stroke:#303030;}.cls-5{fill:#eaeaea;stroke:#545454;}.cls-6{fill:#efcdb7;}.cls-7{fill:url(#Degradado_sin_nombre_6);}.cls-8{stroke:#f2888f;stroke-width:8px;}.cls-9{fill:#e02f35;}.cls-10{fill:#047a0a;}.cls-11{fill:#7b401e;}.cls-12{fill:#662809;}.cls-13{fill:#b60f11;}.cls-14{fill:#110301;}.cls-15,.cls-17{stroke:#110301;}.cls-15{stroke-width:2px;}.cls-16{fill:#f7f7f7;}</style><linearGradient id="Degradado_sin_nombre_6" x1="139.46" y1="207.73" x2="139.46" y2="39.7" gradientUnits="userSpaceOnUse"><stop offset="0.11" stop-color="#f2e7df"/><stop offset="0.51" stop-color="#efc6ac"/></linearGradient></defs><g id="lichie"><line class="cls-1" x1="206.11" y1="120.93" x2="241.97" y2="206.87"/><line class="cls-1" x1="71.2" y1="120.11" x2="71.2" y2="213.23"/><path class="cls-2" d="M100.23,273.9c8.84-9.31,24.42-8.7,31.94,0,.51-5.22-1.51-10-5.55-14.56H107.5A27,27,0,0,0,100.23,273.9Z"/><path class="cls-3" d="M116.24,259.34H107.5c-2.75-1.58-3.93-3.17-3.93-6.1s4-5.06,8.52-5.85h10.73c3.93,1,6.79,2.71,7.6,6,.12,2.84-1.61,4.55-3.8,6h-4.19"/><path class="cls-4" d="M96.27,284.23a4.9,4.9,0,0,0-2.65,4.15c0,2.86,4.46,9.88,22,9.88s22.91-6.23,22.91-9a4.55,4.55,0,0,0-2.3-4"/><path class="cls-5" d="M96.5,281.85c3.28-18.6,34.05-20.92,39.87,0,.46,2.24,0,4-1.37,5.12-5.76,6.65-33.26,6.53-36.92.55A5.29,5.29,0,0,1,96.5,281.85Z"/><path class="cls-2" d="M146.21,274.15c8.85-9.31,24.43-8.7,31.95,0,.5-5.22-1.51-10-5.55-14.55H153.49A27,27,0,0,0,146.21,274.15Z"/><path class="cls-3" d="M162.22,259.6h-8.73c-2.75-1.59-3.93-3.18-3.93-6.1s4-5.07,8.51-5.86h10.74c3.93,1,6.79,2.71,7.59,6,.12,2.85-1.6,4.56-3.79,6h-4.19"/><path class="cls-4" d="M142.26,284.48a4.9,4.9,0,0,0-2.65,4.15c0,2.86,4.45,9.88,22,9.88s22.91-6.22,22.91-9a4.54,4.54,0,0,0-2.3-4"/><path class="cls-5" d="M142.49,282.1c3.27-18.6,34-20.92,39.87,0,.46,2.24,0,4-1.38,5.13-5.76,6.64-33.25,6.52-36.92.54A5.27,5.27,0,0,1,142.49,282.1Z"/><path class="cls-6" d="M108.6,179.26h16.13a0,0,0,0,1,0,0v67.51a8.06,8.06,0,0,1-8.06,8.06h0a8.06,8.06,0,0,1-8.06-8.06V179.26A0,0,0,0,1,108.6,179.26Z"/><path class="cls-6" d="M154.62,179.43h16.13a0,0,0,0,1,0,0v67.51a8.06,8.06,0,0,1-8.06,8.06h0a8.06,8.06,0,0,1-8.06-8.06V179.43A0,0,0,0,1,154.62,179.43Z"/><ellipse class="cls-7" cx="139.46" cy="123.72" rx="76.96" ry="84.01"/><path class="cls-8" d="M64.76,123.8c35.28-75.6,113.4-79.56,148,.36"/><path id="picos" class="cls-9" d="M60.82,124.58,59.33,127a4.29,4.29,0,0,0,.35,5l3.15,3.83a4.32,4.32,0,0,1,.89,3.56l-1.8,9a4.29,4.29,0,0,0,1.44,4.11l5,4.24A4.25,4.25,0,0,1,69.87,160v5.56a4.29,4.29,0,0,0,1.89,3.55l5.38,3.65A4.29,4.29,0,0,1,79,176.34v5.21a4.29,4.29,0,0,0,4.29,4.29h3.06a4.28,4.28,0,0,1,4,2.86L92.3,194a4.28,4.28,0,0,0,4,2.87h5.89a4.26,4.26,0,0,1,3.61,2l2.77,4.34a4.29,4.29,0,0,0,4.86,1.8l3.82-1.15a4.29,4.29,0,0,1,4.14.94l3.63,3.33a4.29,4.29,0,0,0,5.7.09h0a4.29,4.29,0,0,1,5.4-.15l3.62,2.78a4.3,4.3,0,0,0,5.48-.22l3.3-3a4.3,4.3,0,0,1,4.28-.87l4.65,1.62a4.29,4.29,0,0,0,5.44-2.62l.47-1.29a4.29,4.29,0,0,1,4.4-2.84l5.4.46a4.29,4.29,0,0,0,4.49-3.09l.6-2.1a4.26,4.26,0,0,1,4-3.1l4.69-.09a4.29,4.29,0,0,0,4.14-3.53l.77-4.24a4.3,4.3,0,0,1,3.86-3.52l4.39-.37a4.28,4.28,0,0,0,3.87-5l-.78-4.63a4.28,4.28,0,0,1,2-4.39l4.45-2.66a4.31,4.31,0,0,0,2.05-4.29l-.64-4.48a4.28,4.28,0,0,1,2.38-4.47l.51-.24a4.31,4.31,0,0,0,2.26-5.09L215,142.58a4.28,4.28,0,0,1,1.5-4.62l2.26-1.74a4.29,4.29,0,0,0,1.36-5l-2.43-5.88c-.8-1.94-3-1.75-4.92-2.54-47.14-19.13-96.37-17.62-147.38-.12C63.69,123.24,61.78,123,60.82,124.58Z"/><path id="picos-2" data-name="picos" class="cls-9" d="M60.89,121.09l-1.48-2.44a4.28,4.28,0,0,1,.34-5l3.15-3.83a4.27,4.27,0,0,0,.89-3.56l-1.8-9a4.3,4.3,0,0,1,1.44-4.11l5-4.23A4.29,4.29,0,0,0,70,85.64V80.08a4.26,4.26,0,0,1,1.88-3.55l5.39-3.65a4.31,4.31,0,0,0,1.88-3.56v-5.2a4.29,4.29,0,0,1,4.29-4.29h3.06a4.3,4.3,0,0,0,4-2.87l1.87-5.32a4.29,4.29,0,0,1,4-2.87h5.88a4.29,4.29,0,0,0,3.62-2l2.76-4.33a4.29,4.29,0,0,1,4.86-1.81l3.82,1.16a4.27,4.27,0,0,0,4.14-.95l3.63-3.33a4.29,4.29,0,0,1,5.7-.09h0a4.28,4.28,0,0,0,5.41.15l3.62-2.77a4.28,4.28,0,0,1,5.48.22l3.3,3a4.29,4.29,0,0,0,4.28.86l4.64-1.61A4.29,4.29,0,0,1,163,39.87l.46,1.3A4.28,4.28,0,0,0,167.88,44l5.39-.46a4.29,4.29,0,0,1,4.49,3.09l.6,2.1a4.3,4.3,0,0,0,4,3.11l4.7.09a4.29,4.29,0,0,1,4.14,3.53L192,59.7a4.29,4.29,0,0,0,3.86,3.51l4.4.37a4.29,4.29,0,0,1,3.86,5l-.78,4.62a4.31,4.31,0,0,0,2,4.4l4.45,2.66a4.27,4.27,0,0,1,2.05,4.28L211.23,89a4.29,4.29,0,0,0,2.39,4.47l.51.24a4.3,4.3,0,0,1,2.25,5.09l-1.27,4.26a4.29,4.29,0,0,0,1.51,4.63l2.26,1.73a4.29,4.29,0,0,1,1.35,5l-2.43,5.89a4.3,4.3,0,0,1-4.91,2.54C183.2,42.8,99,43.88,65.51,123A4.29,4.29,0,0,1,60.89,121.09Z"/><path class="cls-10" d="M137.16,34.38l-3.24-2.33s1.74-7.24-1.33-12.37-13.37-6.5-15.66-8.48S111.3,4.12,110,2.87c-4.78,6-3.88,10.76-2.25,18.28.86,4.22,2.39,6.79,6.36,9.58S132,33.8,132,33.8l3.7,3.1Z"/><path class="cls-11" d="M159.25,14.74C160.07,9.69,153,.27,146.46.7c0,0-6.05,9.63-9.54,13.92s-1,26.07-1,26.07a4.4,4.4,0,0,0,5.47,0s1.37-15.1,3.28-18.44S159.25,14.74,159.25,14.74Z"/><path class="cls-12" d="M159.27,14.74C153,11.3,148.72,6.6,146.44.7,152.54.22,159.8,8.81,159.27,14.74Z"/><path class="cls-13" d="M71.34,127.52,70.11,134a1.06,1.06,0,0,0,.94,1.26l6.92.68a1.06,1.06,0,0,0,.94-1.72l-5.69-7.15A1.06,1.06,0,0,0,71.34,127.52Z"/><path class="cls-13" d="M71.79,145.12l-1.23,6.48a1.07,1.07,0,0,0,1,1.26l6.92.67a1.06,1.06,0,0,0,.94-1.72l-5.7-7.15A1.07,1.07,0,0,0,71.79,145.12Z"/><path class="cls-13" d="M87.63,150.76l-1.23,6.48a1.07,1.07,0,0,0,.95,1.26l6.92.67a1.06,1.06,0,0,0,.94-1.72l-5.7-7.15A1.07,1.07,0,0,0,87.63,150.76Z"/><path class="cls-13" d="M86.58,169.11l1.58,6.4a1.06,1.06,0,0,0,1.38.75L96.12,174a1.07,1.07,0,0,0,.13-2L88.1,167.9A1.07,1.07,0,0,0,86.58,169.11Z"/><path class="cls-13" d="M103.11,165.51l1.58,6.39a1.07,1.07,0,0,0,1.38.76l6.58-2.27a1.07,1.07,0,0,0,.14-2l-8.16-4.13A1.07,1.07,0,0,0,103.11,165.51Z"/><path class="cls-13" d="M104.82,183.32l2.61,6a1.07,1.07,0,0,0,1.49.52l6.11-3.33a1.06,1.06,0,0,0-.19-2l-8.73-2.72A1.06,1.06,0,0,0,104.82,183.32Z"/><path class="cls-13" d="M124.4,171.2l1.57,6.4a1.08,1.08,0,0,0,1.39.75l6.58-2.27a1.07,1.07,0,0,0,.13-2L125.92,170A1.07,1.07,0,0,0,124.4,171.2Z"/><path class="cls-13" d="M126.7,189.76l4.13,5.14a1.08,1.08,0,0,0,1.58.09l5-4.83a1.07,1.07,0,0,0-.71-1.84l-9.13-.29A1.06,1.06,0,0,0,126.7,189.76Z"/><path class="cls-13" d="M145.16,180.73l4.13,5.14a1.07,1.07,0,0,0,1.57.09l5-4.83a1.06,1.06,0,0,0-.7-1.83L146,179A1.06,1.06,0,0,0,145.16,180.73Z"/><path class="cls-13" d="M160.13,188.85l5.2,4.05a1.07,1.07,0,0,0,1.55-.27l3.76-5.85a1.07,1.07,0,0,0-1.11-1.63l-9,1.82A1.06,1.06,0,0,0,160.13,188.85Z"/><path class="cls-13" d="M170.05,174.91l6.55.74a1.08,1.08,0,0,0,1.19-1l.15-7a1.07,1.07,0,0,0-1.79-.81l-6.7,6.22A1.07,1.07,0,0,0,170.05,174.91Z"/><path class="cls-13" d="M186.18,173.94l6.59,0a1.07,1.07,0,0,0,1.06-1.17l-.67-6.93a1.07,1.07,0,0,0-1.88-.59l-5.92,7A1.06,1.06,0,0,0,186.18,173.94Z"/><path class="cls-13" d="M205.06,127.8l1.23,6.48a1.07,1.07,0,0,1-.94,1.26l-6.92.67a1.06,1.06,0,0,1-.94-1.72l5.69-7.15A1.06,1.06,0,0,1,205.06,127.8Z"/><path class="cls-13" d="M204.61,145.4l1.23,6.48a1.07,1.07,0,0,1-1,1.26l-6.92.67a1.06,1.06,0,0,1-.94-1.72l5.7-7.15A1.07,1.07,0,0,1,204.61,145.4Z"/><path class="cls-13" d="M188.77,151l1.23,6.48a1.07,1.07,0,0,1-.95,1.26l-6.92.67a1.06,1.06,0,0,1-.94-1.72l5.7-7.15A1.07,1.07,0,0,1,188.77,151Z"/><path class="cls-13" d="M65.73,114.06l-1.23-6.47a1.07,1.07,0,0,1,1-1.26l6.92-.68a1.07,1.07,0,0,1,.94,1.73l-5.69,7.15A1.07,1.07,0,0,1,65.73,114.06Z"/><path class="cls-13" d="M74.19,97.46,73,91a1.07,1.07,0,0,1,1-1.26l6.92-.68a1.07,1.07,0,0,1,.94,1.73l-5.7,7.15A1.07,1.07,0,0,1,74.19,97.46Z"/><path class="cls-13" d="M89,73.47l1.58-6.39a1.07,1.07,0,0,1,1.38-.76l6.58,2.27a1.07,1.07,0,0,1,.13,2L90.5,74.68A1.07,1.07,0,0,1,89,73.47Z"/><path class="cls-13" d="M107.21,59.27l2.62-6.05a1.07,1.07,0,0,1,1.49-.51L117.43,56a1.07,1.07,0,0,1-.19,2l-8.73,2.72A1.07,1.07,0,0,1,107.21,59.27Z"/><path class="cls-13" d="M129.1,52.82l4.13-5.13a1.07,1.07,0,0,1,1.57-.1l5,4.84a1.07,1.07,0,0,1-.71,1.83l-9.14.3A1.07,1.07,0,0,1,129.1,52.82Z"/><path class="cls-13" d="M147.55,61.85l4.14-5.13a1.07,1.07,0,0,1,1.57-.1l5,4.84a1.06,1.06,0,0,1-.71,1.83l-9.13.29A1.07,1.07,0,0,1,147.55,61.85Z"/><path class="cls-13" d="M162.53,53.73l5.2-4a1.07,1.07,0,0,1,1.55.26L173,55.81a1.07,1.07,0,0,1-1.11,1.62l-9-1.81A1.07,1.07,0,0,1,162.53,53.73Z"/><path class="cls-13" d="M172.45,67.67l6.55-.73a1.06,1.06,0,0,1,1.18,1l.16,7a1.06,1.06,0,0,1-1.79.8l-6.7-6.21A1.07,1.07,0,0,1,172.45,67.67Z"/><path class="cls-13" d="M188.58,68.64l6.59,0a1.06,1.06,0,0,1,1.06,1.17l-.67,6.92a1.07,1.07,0,0,1-1.88.59l-5.92-7A1.07,1.07,0,0,1,188.58,68.64Z"/><path class="cls-13" d="M216.46,117.78l1.23-6.47a1.06,1.06,0,0,0-.94-1.26l-6.93-.68a1.07,1.07,0,0,0-.93,1.73l5.69,7.15A1.07,1.07,0,0,0,216.46,117.78Z"/><path class="cls-13" d="M207,97.18l1.23-6.47a1.07,1.07,0,0,0-1-1.26l-6.92-.68a1.07,1.07,0,0,0-.94,1.73l5.69,7.15A1.07,1.07,0,0,0,207,97.18Z"/><path class="cls-14" d="M101.44,109.13c8.65-5.78,18.92-6.38,28.49-2.3,1.11-10.43,2.3-17.46.23-27.8-3.45-12.41-21.83-11-26.42,2.3l12.06,8.5-14.36.69A38.3,38.3,0,0,0,101.44,109.13Z"/><path class="cls-14" d="M148.31,89.8l2.82,16.71c12.53-5.2,17.74-3.48,27.28,2.62.46-8.75,1.61-14.94-1.38-26.2-3.91-15.85-24.58-18.15-27.34-1.6l12.63,7.12Z"/><path class="cls-15" d="M132.92,102.23c9.65-8,17.15-2,7.35,6.9"/><path class="cls-16" d="M113.39,113.72c-9.42-2.3-14.48,9.19-9.88,14.47,22,22.75,52.15,24.59,73.52,0a9.33,9.33,0,0,0-9.19-14.47C149.52,122.22,131.37,122.38,113.39,113.72Z"/><path class="cls-15" d="M113.39,113.72c-9.42-2.3-14.48,9.19-9.88,14.47,22,22.75,52.15,24.59,73.52,0a9.33,9.33,0,0,0-9.19-14.47C149.52,122.22,131.37,122.38,113.39,113.72Z"/><path class="cls-15" d="M105.35,66.16q6.89-6.88,13.78-4.59"/><path class="cls-15" d="M160.26,61.57q11.37-2.88,14,5.74"/><path class="cls-17" d="M129.24,152.78c7.2,4.14,14.19,4.44,20.91,0"/><line class="cls-15" x1="115.79" y1="114.82" x2="108.77" y2="133.09"/><line class="cls-15" x1="127.74" y1="118.75" x2="122.85" y2="141.95"/><line class="cls-15" x1="139.69" y1="120.14" x2="139.69" y2="145.91"/><line class="cls-15" x1="154.05" y1="118.75" x2="159.23" y2="141.95"/><line class="cls-15" x1="165.35" y1="114.82" x2="173.89" y2="131.55"/><path class="cls-5" d="M250.36,200.57c-.25-2.59-1.24-4.49-3.79-5,0,0-2.93-.52-7.86,3a15.68,15.68,0,0,0-5.45,7.14,4,4,0,0,0,1,4.44,4.14,4.14,0,0,0,2,1Z"/><path class="cls-5" d="M238.66,205.05a5.59,5.59,0,0,0-1.47,3l-.83,5.72a35.73,35.73,0,0,1-7.21,13.29,3.49,3.49,0,0,0-.14,4.32,2.37,2.37,0,0,0,3,.7c4.87-1.11,8.54-4.2,11.35-8.68A56.3,56.3,0,0,0,260,233.1a17.41,17.41,0,0,0,2.55.77c2,.46,3.86,1,5.74,1.3a9.48,9.48,0,0,0,6.31-.74c3.49-2,2.7-4.9-4.18-8.16l6.37-1.12a13.1,13.1,0,0,0,6.12-2.8c4.54-3.81,2.2-7.34-4.58-8.2,2.32-2.34,3.46-4.5,1.62-6.2a4,4,0,0,0-2.71-1l-6.06,0a12.43,12.43,0,0,1-4.35-.82c-3.63-1.41-11.06-4.19-14.06-4.75a37.43,37.43,0,0,0-7.3-.45,5.43,5.43,0,0,0-3.13,1.06"/><path class="cls-5" d="M262.4,212.54c5.35,2.64,10.67,3.83,15.9,1.61"/><path class="cls-5" d="M256.75,220.24a23.21,23.21,0,0,0,13.64,6"/><rect class="cls-5" x="67.09" y="216.42" width="2.62" height="7.51" transform="translate(85.99 -9.71) rotate(21.63)"/><path class="cls-5" d="M70.34,216.67s-.2,4.67-2.34,6.46l-3.58,3a8.18,8.18,0,0,0-2.71,4.13,19.83,19.83,0,0,0-.58,5.71l-.94,1.79a6,6,0,0,0-.66,2.45L59,251.33a7.22,7.22,0,0,0,.48,3c2,5.09,8.49,5,9.51-2.17.16,10,12.3,10.47,11.48-.87,2.22,4.21,6.55,3.91,8.18,1.37a4.2,4.2,0,0,0,.59-2.81l-1.62-13.06a24.7,24.7,0,0,1-.2-3.21l0-9.08a17,17,0,0,0-.41-3.83,15.06,15.06,0,0,0-1.62-4.07,23.89,23.89,0,0,0-4.22-5.26,2.37,2.37,0,0,0-1.56-.61l-3.29-.16a2.9,2.9,0,0,1-2.21-1.19l-2.14-2.94-1.71,3.08a2.19,2.19,0,0,1-1.72,1.1l-5.34.44a3.51,3.51,0,0,0-1.27.33,11.62,11.62,0,0,0-6.18,7.28,49.2,49.2,0,0,0-1.46,6.15,26.74,26.74,0,0,0-.1,8.7v.06a4.59,4.59,0,0,0,2.08,3.23c2,1.2,3.54,0,4.87-3"/><line class="cls-5" x1="68.98" y1="253.09" x2="69.25" y2="237.87"/><path class="cls-5" d="M80.75,252c-.88-4-1.6-9.48-2.29-15.38"/><path class="cls-5" d="M65.3,237.08a20.7,20.7,0,0,0,16.33-2"/><path class="cls-5" d="M69.8,210.72a22.45,22.45,0,0,1-6.69.23l0,0a3.15,3.15,0,0,1,.74-4.76,15.4,15.4,0,0,1,7.79-1.88c4-.09,6.34.87,7.57,1.74A3.09,3.09,0,0,1,80.45,209,9.09,9.09,0,0,1,80,210.8a13.51,13.51,0,0,1-5.25-.28"/></g></svg>