<svg xmlns="http://www.w3.org/2000/svg" viewBox="0 0 300 300"><defs><style>.cls-1,.cls-3{fill:#969696;}.cls-1{stroke:#303030;}.cls-1,.cls-10,.cls-11,.cls-15,.cls-17,.cls-2,.cls-3,.cls-5,.cls-6{stroke-miterlimit:10;}.cls-2{fill:#c6c6c6;stroke:#7f7f7f;}.cls-3{stroke:#636363;}.cls-4{fill:#e87e00;}.cls-5{fill:#eaeaea;}.cls-5,.cls-6{stroke:#666;}.cls-10,.cls-11,.cls-15,.cls-6{fill:none;}.cls-17,.cls-7{fill:#fb8b01;}.cls-8{fill:#716b3a;}.cls-9{fill:#59512b;}.cls-10,.cls-11,.cls-15,.cls-17{stroke:#03020a;}.cls-10{stroke-width:2px;}.cls-11,.cls-17{stroke-width:1.5px;}.cls-12{fill:#fdfdfd;}.cls-13{fill:#03020a;}.cls-14{fill:#ff6c7a;}.cls-15{stroke-width:0.75px;}.cls-16{fill:#ec6a15;}</style></defs><g id="mandaria"><path class="cls-1" d="M132,281.38c3.2,1.7,4.89,4.33,4.12,8.48-2,5.47-7.85,8.11-16.23,7.75l-12.17-1.09a23.81,23.81,0,0,0-2.8-.08l-15.55.44a82.45,82.45,0,0,1-23.5-2.18c-6.34-2.35-9.89-6.07-7.26-12.84,3.14-3.42,9.33-4.61,15.5-5.81Z"/><path class="cls-2" d="M99.82,271.45c-3-5.33-8.18-9.32-16.42-10.58-.35-.06-.71-.09-1.07-.12-10.34-.64-18.56,2-22,8.92a13.47,13.47,0,0,0,.07,12.47c2.73,5,8.44,7.68,16.41,8.77a13.29,13.29,0,0,0,2.36.11c12.87-.53,19.88-1,26-1a53.59,53.59,0,0,1,8.58.61,32.92,32.92,0,0,0,8.11.34,13.43,13.43,0,0,0,10.93-7.57,22.53,22.53,0,0,0,2-9.88c0-13.44-6.94-17.9-8.45-17.8a19.56,19.56,0,0,1-6,1.61s-3.57-2.62-5.29-2.58c-1.45,0-4.74,2.91-4.74,2.91a34,34,0,0,1-9-1.45c-1.21.56-5.72,5.66-7.35,8.64"/><path class="cls-3" d="M119.85,257.53C126.9,256.3,132,253,132,249.08c0-5-8.15-9-18.21-9s-18.21,4-18.21,9c0,4.41,6.47,8.07,15,8.82"/><path class="cls-1" d="M146.91,281c-3.2,1.7-4.89,4.33-4.12,8.48,2,5.47,7.85,8.11,16.23,7.75l12.17-1.09A23.81,23.81,0,0,1,174,296l15.55.44A82.45,82.45,0,0,0,213,294.3c6.34-2.35,9.89-6.07,7.26-12.84-3.14-3.42-9.33-4.61-15.5-5.81Z"/><path class="cls-2" d="M179.13,271.05c3-5.33,8.18-9.32,16.42-10.58.35-.06.71-.09,1.07-.12,10.34-.64,18.56,2,22,8.92a13.5,13.5,0,0,1-.07,12.47c-2.73,5-8.44,7.68-16.41,8.77a13.29,13.29,0,0,1-2.36.11c-12.87-.53-19.88-1-26-1a53.59,53.59,0,0,0-8.58.61,32.94,32.94,0,0,1-8.11.34A13.46,13.46,0,0,1,146.2,283a22.69,22.69,0,0,1-2-9.88c0-13.44,6.94-17.9,8.45-17.8a19.84,19.84,0,0,0,6,1.61s3.57-2.62,5.28-2.58c1.46,0,4.75,2.91,4.75,2.91a34,34,0,0,0,8.95-1.45c1.21.56,5.72,5.65,7.35,8.64"/><path class="cls-3" d="M159.1,257.13C152,255.89,147,252.58,147,248.68c0-5,8.15-9,18.21-9s18.21,4,18.21,9c0,4.41-6.47,8.07-15,8.82"/><path class="cls-4" d="M113.52,250.1h0a7.2,7.2,0,0,1-7.2-7.2c-4.54-20.16-3.88-41.78,0-64.32h14.4c-3.88,23.42-4.54,45.2,0,64.32A7.2,7.2,0,0,1,113.52,250.1Z"/><path class="cls-4" d="M164,250.64h0a7.2,7.2,0,0,1-7.2-7.2c6.66-18.37,5.82-40.2,0-64.32h14.4c5.5,23.27,6,44.88,0,64.32A7.2,7.2,0,0,1,164,250.64Z"/><path class="cls-4" d="M220.65,118.08a131.54,131.54,0,0,1,4.06,17.07c.23,1.36.45,2.73.65,4.1.09.61.18,1.22.25,1.83-.17-1.45,0-.35,0,0s.12.92.17,1.38c.35,2.83.64,5.68.89,8.52,1,11.68,1.41,23.4,2.39,35.09.59,6.93,1.39,13.86,2.57,20.73.54,3.1,4.51,5.12,7.38,4.19,3.35-1.08,4.76-4.06,4.19-7.38-.23-1.38-.45-2.75-.66-4.13-.11-.76-.23-1.53-.32-2.3,0,.19.17,1.34,0,.22l-.18-1.39q-.52-4.38-.91-8.79c-.5-5.72-.85-11.46-1.19-17.2-.72-12-1.47-24.09-3.36-36a133.06,133.06,0,0,0-4.39-19.12c-.94-3-4.22-5.21-7.38-4.19-3,1-5.2,4.18-4.19,7.38Z"/><rect class="cls-5" x="232.48" y="207.83" width="2.31" height="6.61" transform="translate(93.39 -70.81) rotate(21.45)"/><path class="cls-5" d="M230.14,216.36a7.19,7.19,0,0,0-2.37,3.64,41.41,41.41,0,0,0-1.05,4.53c-.15.95-.6,3.07-.84,4.24s-.41,9.84-.41,9.84a6.4,6.4,0,0,0,.45,2.7c1.8,4.44,7.48,4.32,8.36-2,.17,8.84,10.85,9.18,10.1-.79,2,3.7,5.78,3.42,7.21,1.18a3.78,3.78,0,0,0,.51-2.48l-1.47-11.49a22.4,22.4,0,0,1-.18-2.83v-8a14.17,14.17,0,0,0-.4-3.43,12.72,12.72,0,0,0-1.41-3.49,21,21,0,0,0-3.73-4.63,2.12,2.12,0,0,0-1.38-.53l-2.89-.13a2.55,2.55,0,0,1-2-1l-1.89-2.59-1.51,2.72a1.89,1.89,0,0,1-1.5,1l-4.71.41a3.13,3.13,0,0,0-1.09.28,10.31,10.31,0,0,0-5.45,6.44,47.32,47.32,0,0,0-1.26,5.38,23.85,23.85,0,0,0-.07,7.68l0,.14a4,4,0,0,0,1.89,2.82c1.69,1,2.69,0,3.84-2.62"/><line class="cls-6" x1="234.23" y1="240.11" x2="234.42" y2="226.72"/><path class="cls-6" d="M244.59,239.16c-.78-3.5-1.43-8.35-2.05-13.53"/><path class="cls-5" d="M234.84,202.81A20.15,20.15,0,0,1,229,203l0,0a2.77,2.77,0,0,1,.64-4.19,13.43,13.43,0,0,1,6.85-1.68c3.57-.09,5.58.74,6.67,1.51a2.74,2.74,0,0,1,1.13,2.59,8.91,8.91,0,0,1-.4,1.62,12,12,0,0,1-4.62-.23"/><path class="cls-4" d="M48,116.71c-7.11,22.71-6.85,46.76-8.76,70.25-.27,3.25-.57,6.49-.95,9.73-.1.84-.21,1.69-.31,2.53,0,.34,0,1.12,0-.21,0,.45-.13.94-.19,1.38-.24,1.69-.51,3.37-.8,5a6.49,6.49,0,0,0,.61,4.63,6.06,6.06,0,0,0,3.58,2.75c2.91.67,6.81-.88,7.38-4.19,2-11.85,2.89-23.85,3.61-35.84.35-5.89.69-11.78,1.16-17.66.24-2.92.51-5.85.84-8.77.15-1.37.28-2.76.5-4.13,0,.18-.19,1.34,0,.22.05-.3.09-.61.13-.91.12-.84.25-1.68.38-2.51a134.45,134.45,0,0,1,4.4-19.12,6.06,6.06,0,0,0-4.2-7.38A6.13,6.13,0,0,0,48,116.71Z"/><rect class="cls-5" x="45.46" y="209.64" width="2.31" height="6.61" transform="translate(167.87 394.1) rotate(158.55)"/><path class="cls-5" d="M50.1,218.18a7.16,7.16,0,0,1,2.37,3.63,42.48,42.48,0,0,1,1.06,4.53c.14,1,.59,3.08.84,4.25s.4,9.84.4,9.84a6.48,6.48,0,0,1-.44,2.69c-1.81,4.45-7.49,4.33-8.36-2-.17,8.84-10.86,9.18-10.11-.8-2,3.71-5.78,3.43-7.2,1.18a3.71,3.71,0,0,1-.52-2.48l1.47-11.49a22.29,22.29,0,0,0,.18-2.83v-8a13.63,13.63,0,0,1,.39-3.43,13.24,13.24,0,0,1,1.41-3.5,21.21,21.21,0,0,1,3.74-4.62,2,2,0,0,1,1.37-.53l2.9-.13a2.56,2.56,0,0,0,1.94-1l1.9-2.59,1.5,2.72a1.9,1.9,0,0,0,1.51,1l4.7.4a3.51,3.51,0,0,1,1.1.29,10.24,10.24,0,0,1,5.44,6.44A43,43,0,0,1,59,217.09a23.56,23.56,0,0,1,.07,7.68l0,.13a4,4,0,0,1-1.9,2.82c-1.68,1-2.69,0-3.83-2.61"/><line class="cls-6" x1="46.01" y1="241.93" x2="45.82" y2="228.53"/><path class="cls-6" d="M35.65,241c.79-3.5,1.44-8.35,2.06-13.54"/><path class="cls-5" d="M45.41,204.62a19.78,19.78,0,0,0,5.89.23l0,0a2.76,2.76,0,0,0-.63-4.19A13.46,13.46,0,0,0,43.84,199c-3.57-.09-5.59.74-6.68,1.51A2.71,2.71,0,0,0,36,203.05a7.43,7.43,0,0,0,.4,1.61,11.84,11.84,0,0,0,4.62-.23"/><ellipse class="cls-7" cx="139.2" cy="110.52" rx="101.76" ry="81.36"/><path class="cls-4" d="M135.65,37.61A30.26,30.26,0,0,0,118.92,33c4.87,2.4,9.88,3.89,9.9,8.07-7.71,1.76-16.15,6.79-22.74,12.12,9.77-3.92,19.38-6.18,28.76-6.2A31.27,31.27,0,0,1,148,64.8c1-7.06,1.88-14-.53-18.44,7.88-.11,16.66,1.36,25.82,3.5-7.66-5-15.41-8.84-23.41-10,.5-3.93,3.94-6.94,9.1-9.42C150,31.84,142.07,34.1,135.65,37.61Z"/><ellipse class="cls-8" cx="139.4" cy="41.76" rx="6.84" ry="2.52"/><path class="cls-8" d="M151.83,12.67c-.23-4.44-4.48-11-8.86-11.92a1.71,1.71,0,0,0-1.85.85c-1.3,2.42-2.5,11.13-3.07,15.14-.69,4.85-.76,24.5-.76,24.5,1.5,1.15,3,1.24,4.34,0,0,0,1.57-14,2.61-17.33.92-3,4-8.57,6.56-9.65A1.65,1.65,0,0,0,151.83,12.67Z"/><path class="cls-9" d="M150.81,13.18a24.15,24.15,0,0,1-8.9-11.66.63.63,0,0,1,.66-.84c4.26.52,8.86,6.87,9.23,12A.63.63,0,0,1,150.81,13.18Z"/><path class="cls-10" d="M97.19,70.63c3.06-11,15.93-14.41,25.43-5.83"/><path class="cls-11" d="M108.83,139.27c15,14.74,34.91,14.2,57,5.41"/><path class="cls-11" d="M168.28,131.61c-5.1,11.63-3,18.13,8.28,18.08"/><ellipse class="cls-12" cx="115.57" cy="98.67" rx="18.69" ry="28.04"/><ellipse class="cls-13" cx="110.98" cy="98.74" rx="14.29" ry="25.74"/><circle class="cls-12" cx="123.85" cy="100.66" r="5.82"/><ellipse class="cls-12" cx="164.01" cy="98.93" rx="18.69" ry="28.04"/><ellipse class="cls-13" cx="159.42" cy="99.01" rx="14.29" ry="25.74"/><circle class="cls-12" cx="172.29" cy="100.93" r="5.82"/><path class="cls-10" d="M183.26,70.11c-3.07-11-15.94-14.4-25.44-5.82"/><path class="cls-14" d="M144.84,151.22S146,164.78,156.79,163,163,146.17,163,146.17A70.37,70.37,0,0,1,144.84,151.22Z"/><path class="cls-11" d="M144.84,151.22S146,164.78,156.79,163,163,146.17,163,146.17A70.37,70.37,0,0,1,144.84,151.22Z"/><line class="cls-15" x1="153.67" y1="149.61" x2="157.35" y2="162.03"/><ellipse class="cls-16" cx="77.42" cy="131.24" rx="14.94" ry="5.4"/><ellipse class="cls-16" cx="198.32" cy="131.24" rx="14.94" ry="5.4"/><ellipse class="cls-4" cx="55.76" cy="81.38" rx="3.36" ry="2.16"/><ellipse class="cls-4" cx="46.64" cy="88.88" rx="2.22" ry="1.32"/><ellipse class="cls-4" cx="54.2" cy="87.62" rx="1.71" ry="1.05"/><ellipse class="cls-4" cx="66.08" cy="79.88" rx="3.19" ry="1.75"/><ellipse class="cls-4" cx="48.81" cy="80.74" rx="1.27" ry="0.74"/><ellipse class="cls-4" cx="61.04" cy="87.08" rx="2.22" ry="1.32"/><ellipse class="cls-4" cx="56.16" cy="69.5" rx="2.16" ry="3.36" transform="translate(-33.02 75.05) rotate(-54.62)"/><ellipse class="cls-4" cx="64.68" cy="71.29" rx="1.32" ry="2.22" transform="translate(-30.89 82.74) rotate(-54.62)"/><ellipse class="cls-4" cx="61.45" cy="65.42" rx="1.05" ry="1.71" transform="translate(-27.47 77.64) rotate(-54.62)"/><ellipse class="cls-4" cx="70.92" cy="86.37" rx="1.76" ry="3.19" transform="translate(-40.56 94.18) rotate(-54.62)"/><ellipse class="cls-4" cx="59.13" cy="75.6" rx="0.74" ry="1.28" transform="translate(-36.75 80.04) rotate(-54.62)"/><ellipse class="cls-4" cx="53.3" cy="73.73" rx="1.32" ry="2.22" transform="translate(-37.67 74.5) rotate(-54.62)"/><ellipse class="cls-4" cx="202.32" cy="161.47" rx="3.36" ry="2.16" transform="translate(-56.43 153.97) rotate(-36.93)"/><ellipse class="cls-4" cx="214.12" cy="161.99" rx="2.22" ry="1.32" transform="translate(-54.37 161.16) rotate(-36.93)"/><ellipse class="cls-4" cx="207.32" cy="165.52" rx="1.71" ry="1.05" transform="translate(-57.86 157.79) rotate(-36.93)"/><ellipse class="cls-4" cx="193.17" cy="166.48" rx="3.19" ry="1.76" transform="translate(-61.27 149.48) rotate(-36.93)"/><ellipse class="cls-4" cx="207.5" cy="156.79" rx="1.27" ry="0.74" transform="translate(-52.57 156.14) rotate(-36.93)"/><ellipse class="cls-4" cx="201.53" cy="169.2" rx="2.22" ry="1.32" transform="translate(-61.23 155.04) rotate(-36.93)"/><ellipse class="cls-4" cx="194.86" cy="152.22" rx="3.36" ry="2.16" transform="translate(-9.36 291.63) rotate(-72.31)"/><ellipse class="cls-4" cx="189.13" cy="158.77" rx="2.22" ry="1.32" transform="translate(-19.59 290.72) rotate(-72.31)"/><ellipse class="cls-4" cx="188.18" cy="152.14" rx="1.71" ry="1.05" transform="translate(-13.93 285.21) rotate(-72.31)"/><ellipse class="cls-4" cx="193.21" cy="174.57" rx="3.19" ry="1.76" transform="translate(-31.81 305.61) rotate(-72.31)"/><ellipse class="cls-4" cx="196.16" cy="158.88" rx="1.27" ry="0.74" transform="translate(-14.81 297.5) rotate(-72.31)"/><ellipse class="cls-4" cx="199.69" cy="153.88" rx="2.22" ry="1.32" transform="translate(-7.59 297.39) rotate(-72.31)"/><path class="cls-17" d="M145.85,121c-17.75-14.43-33.32-3.92-14.11,9.44"/></g></svg>