<svg width="502" height="171" viewBox="0 0 502 171" fill="none" xmlns="http://www.w3.org/2000/svg">
<path d="M36.7101 1H457.299C463.038 1 468.72 2.13037 474.022 4.32656C479.325 6.52276 484.142 9.74179 488.2 13.7998C492.258 17.8579 495.477 22.6755 497.673 27.9776C499.87 33.2797 501 38.9624 501 44.7014V114.594C501 129.051 495.257 142.915 485.035 153.138C474.812 163.36 460.948 169.103 446.491 169.103H47.3327C35.0445 169.103 23.2596 164.222 14.5705 155.533C5.88147 146.844 1 135.059 1 122.77V36.7101C1 27.2392 4.7623 18.1562 11.4593 11.4592C18.1562 4.7623 27.2392 1 36.7101 1Z" stroke="black" stroke-width="2" stroke-miterlimit="10" stroke-dasharray="12 10 30 10"/>
<path d="M40.6838 5.01257H445.971C458.089 5.01257 469.71 9.82639 478.279 18.3951C486.848 26.9637 491.661 38.5853 491.661 50.7032V109.925C491.661 117.398 490.189 124.798 487.33 131.702C484.47 138.606 480.278 144.88 474.994 150.164C469.71 155.448 463.436 159.64 456.532 162.5C449.628 165.36 442.228 166.832 434.755 166.832H59.4046C52.9601 166.831 46.5789 165.561 40.6252 163.094C34.6716 160.627 29.2622 157.012 24.7059 152.454C20.1496 147.896 16.5357 142.486 14.0706 136.531C11.6054 130.577 10.3372 124.195 10.3385 117.751V35.3433C10.3437 27.2981 13.5429 19.5842 19.233 13.8968C24.9232 8.20936 32.6387 5.01386 40.6838 5.01257Z" fill="url(#paint0_linear_147_558)"/>
<path d="M363.325 27.9456L400.081 27.9456C403.108 27.9456 405.562 25.4914 405.562 22.464V18.9037C405.562 15.8764 403.108 13.4222 400.081 13.4222L363.325 13.4222C360.298 13.4222 357.843 15.8764 357.843 18.9037V22.464C357.843 25.4914 360.298 27.9456 363.325 27.9456Z" fill="white"/>
<path d="M339.852 27.9456C343.863 27.9456 347.114 24.6944 347.114 20.6839C347.114 16.6734 343.863 13.4222 339.852 13.4222C335.841 13.4222 332.59 16.6734 332.59 20.6839C332.59 24.6944 335.841 27.9456 339.852 27.9456Z" fill="white"/>
<path d="M477.663 65.0612C481.102 65.0612 483.889 62.2739 483.889 58.8356C483.889 55.3972 481.102 52.6099 477.663 52.6099C474.225 52.6099 471.438 55.3972 471.438 58.8356C471.438 62.2739 474.225 65.0612 477.663 65.0612Z" fill="white"/>
<path d="M423.977 26C419.828 26 419.828 15.6255 423.977 14.1761C423.977 14.1761 448.432 12.717 456.953 14.1761C465.475 15.6352 473.763 36.9922 473.763 36.9922C477.911 44.6722 467.537 50.8979 463.388 42.5954C463.388 42.5954 455.533 29.4922 451.107 27.4446C444.954 24.5944 423.977 26 423.977 26Z" fill="white"/>
<path d="M19.0203 133.626C14.8667 129.478 19.0203 123.252 25.2412 127.401C25.2412 127.401 47.4153 145.441 56.3696 148.15C65.3238 150.859 93.8209 148.15 93.8209 148.15C97.8384 148.15 97.8384 156.447 93.8209 156.36C93.8209 156.36 61.3744 159.58 51.2237 156.36C41.856 153.359 19.0203 133.626 19.0203 133.626Z" fill="white"/>
<path d="M165 84.24C166.013 84.24 166.52 86.1067 166.52 89.84C166.52 90.96 166.387 92.2933 166.12 93.84C165.907 95.3333 165.48 96.08 164.84 96.08H154.68V104.08H169.4C170.307 104.08 170.92 105.253 171.24 107.6C171.4 108.613 171.48 109.707 171.48 110.88C171.48 112 171.32 113.467 171 115.28C170.68 117.093 170.147 118 169.4 118H142.04C140.013 118 139 117.173 139 115.52V64.08C139 62.6933 139.613 62 140.84 62H169.48C170.6 62 171.16 64.3733 171.16 69.12C171.16 73.8133 170.6 76.16 169.48 76.16H154.68V84.24H165ZM194.773 117.52C194.773 117.893 192.853 118.08 189.013 118.08C183.68 117.92 181.013 117.627 181.013 117.2V91.28H178.933C177.546 91.28 176.64 90.1067 176.213 87.76C176.106 87.0667 176.053 86.3733 176.053 85.68C176.053 84.0267 176.373 82.3733 177.013 80.72C177.973 78.3733 179.466 77.2 181.493 77.2C183.52 77.2 185.333 77.68 186.933 78.64C188.533 79.6 189.6 80.56 190.133 81.52C193.493 78.64 197.493 77.2 202.133 77.2C206.773 77.2 210.133 78.4533 212.213 80.96C214.293 83.4667 215.333 87.5733 215.333 93.28V117.28C215.333 117.92 213.04 118.24 208.453 118.24C203.92 118.24 201.653 117.92 201.653 117.28V94.16C201.653 91.4933 200.72 90.16 198.853 90.16C198.32 90.16 197.573 90.4 196.613 90.88C195.653 91.3067 195.04 91.6267 194.773 91.84V117.52ZM218.996 78.24C218.836 77.8133 221.316 77.6 226.436 77.6C231.609 77.6 234.196 77.7333 234.196 78L239.956 105.2L244.276 78.4C244.436 77.92 247.076 77.68 252.196 77.68C257.369 77.68 259.876 77.8933 259.716 78.32L248.436 117.44C248.062 117.973 244.889 118.24 238.916 118.24C232.942 118.24 229.742 117.84 229.316 117.04L218.996 78.24ZM278.474 117.52C278.474 117.947 276.021 118.16 271.114 118.16C266.261 118.16 263.834 117.973 263.834 117.6V78.32C263.834 77.9467 266.261 77.76 271.114 77.76C276.021 77.76 278.474 77.92 278.474 78.24V117.52ZM278.474 73.52C278.474 73.8933 276.021 74.08 271.114 74.08C266.261 74.08 263.834 73.92 263.834 73.6V62.08C263.834 61.5467 266.261 61.28 271.114 61.28C276.021 61.28 278.474 61.44 278.474 61.76V73.52ZM290.749 88.96C289.256 86.2933 288.509 84.1333 288.509 82.48C288.509 80.7733 288.963 79.68 289.869 79.2C292.909 77.8667 297.069 77.2 302.349 77.2C307.683 77.2 311.443 78.4533 313.629 80.96C315.816 83.4133 316.909 87.0667 316.909 91.92V104.56H319.629C320.536 104.56 321.229 105.093 321.709 106.16C322.243 107.227 322.509 108.693 322.509 110.56C322.509 112.427 322.029 114.267 321.069 116.08C320.163 117.893 318.909 118.8 317.309 118.8C314.429 118.8 312.109 118.027 310.349 116.48C309.549 115.84 308.936 115.067 308.509 114.16C306.056 117.253 302.243 118.8 297.069 118.8C293.176 118.8 289.896 117.413 287.229 114.64C284.563 111.867 283.229 108.587 283.229 104.8C283.229 96.1067 288.429 91.76 298.829 91.76H303.229V90.96C303.229 89.5733 302.989 88.6933 302.509 88.32C302.083 87.8933 301.043 87.68 299.389 87.68C297.363 87.68 294.483 88.1067 290.749 88.96ZM297.149 103.68C297.149 104.853 297.469 105.76 298.109 106.4C298.749 106.987 299.549 107.28 300.509 107.28C301.523 107.28 302.429 106.88 303.229 106.08V99.92H300.989C298.429 99.92 297.149 101.173 297.149 103.68ZM344.557 117.92C344.557 118.293 342.131 118.48 337.278 118.48C332.424 118.373 329.998 118.16 329.998 117.84V91.28H327.838C326.984 91.28 326.291 90.7733 325.758 89.76C325.278 88.6933 325.038 87.3867 325.038 85.84C325.038 80.08 326.744 77.2 330.158 77.2C332.558 77.2 334.558 77.9467 336.158 79.44C337.758 80.88 338.558 82.5333 338.558 84.4C339.678 82.2133 341.171 80.48 343.038 79.2C344.958 77.8667 346.904 77.2 348.878 77.2C351.971 77.2 353.838 78 354.478 79.6C354.638 80.0267 354.718 80.6667 354.718 81.52C354.718 82.32 354.451 83.7867 353.918 85.92C353.438 88.0533 352.931 89.6 352.398 90.56C351.864 91.52 351.544 92 351.438 92C351.331 92 350.824 91.8133 349.918 91.44C349.064 91.0133 348.291 90.8 347.598 90.8C345.571 90.8 344.557 92.4 344.557 95.6V117.92Z" fill="white"/>
<defs>
<linearGradient id="paint0_linear_147_558" x1="10.3385" y1="85.9075" x2="491.661" y2="85.9075" gradientUnits="userSpaceOnUse">
<stop stop-color="#54AAA0"/>
<stop offset="1" stop-color="#8DE2D6"/>
</linearGradient>
</defs>
</svg>
