<?xml version="1.0" encoding="UTF-8"?><svg id="Capa_1" xmlns="http://www.w3.org/2000/svg" xmlns:xlink="http://www.w3.org/1999/xlink" viewBox="0 0 209.43 260.76"><defs><style>.cls-1{fill:#c1e082;}.cls-1,.cls-2,.cls-3,.cls-4,.cls-5,.cls-6,.cls-7,.cls-8,.cls-9,.cls-10,.cls-11,.cls-12,.cls-13,.cls-14,.cls-15,.cls-16,.cls-17,.cls-18,.cls-19,.cls-20{stroke-width:0px;}.cls-21{letter-spacing:-.02em;}.cls-22{letter-spacing:-.01em;}.cls-2{fill:#8feed6;}.cls-3{fill:#06a99c;}.cls-4{fill:#af2f45;}.cls-5{fill:#96b024;}.cls-6{fill:#e9e9e9;}.cls-23{font-family:GasoekOne-Regular, 'Gasoek One';font-size:15.13px;}.cls-7{fill:#c7eade;}.cls-24{letter-spacing:-.01em;}.cls-8,.cls-25{fill:#fff;}.cls-9{fill:#db2b44;}.cls-10{fill:#f6eebf;}.cls-11{fill:#0ead9f;}.cls-12{fill:#3c7611;}.cls-13{fill:#bfe181;}.cls-14{fill:#1d241e;}.cls-15{fill:#11561a;}.cls-16{fill:#636261;}.cls-25{stroke-width:1.1px;}.cls-25,.cls-26{stroke:#0ead9f;stroke-miterlimit:10;}.cls-17{fill:#c6c6c6;}.cls-18{fill:#1a7327;}.cls-26{fill:none;stroke-width:2.27px;}.cls-19{fill:url(#Degradado_sin_nombre_2);}.cls-20{fill:#959595;}</style><linearGradient id="Degradado_sin_nombre_2" x1="94.72" y1="51.25" x2="114.89" y2="51.25" gradientUnits="userSpaceOnUse"><stop offset="0" stop-color="#009aef"/><stop offset="1" stop-color="#00a99d"/></linearGradient></defs><circle class="cls-7" cx="105.18" cy="102.83" r="99.18"/><path class="cls-4" d="M105.22,31.26c-5.92-7.26-16.02-9.07-23.35-4.7-6.09,3.62-9.4,10.99-8.23,18.48,0,0-.67,5.8,6.8,12.6,7.48,6.8,24.78,25.12,24.78,25.12"/><path class="cls-11" d="M104.25,3.33c55.42-1.8,102.65,44.21,103.46,99.56,0,0-8.56,0-8.56,0,.32-12.43-1.8-24.98-6.31-36.69-9.02-23.69-27.85-43.44-51.15-53.7-11.7-5.21-24.5-8.08-37.44-8.41v-.76h0Z"/><path class="cls-11" d="M5.2,105.18C3.4,49.76,49.41,2.53,104.76,1.71c0,0,0,8.56,0,8.56-12.43-.32-24.98,1.8-36.69,6.31-23.69,9.02-43.44,27.85-53.7,51.15-5.21,11.7-8.08,24.5-8.41,37.44,0,0-.76,0-.76,0h0Z"/><circle class="cls-25" cx="106.56" cy="6.06" r="5.51"/><path class="cls-11" d="M105.18,202.39C49.76,204.2,2.53,158.18,1.71,102.83c0,0,8.56,0,8.56,0-.32,12.43,1.8,24.98,6.31,36.69,9.02,23.69,27.85,43.44,51.15,53.7,11.7,5.21,24.5,8.08,37.44,8.41,0,0,0,.76,0,.76h0Z"/><circle class="cls-25" cx="6.06" cy="101.03" r="5.51"/><path class="cls-4" d="M105.16,31.28c5.92-7.26,16.02-9.07,23.35-4.7,6.09,3.62,9.4,10.99,8.23,18.48,0,0,.67,5.8-6.8,12.6-7.48,6.8-24.78,25.12-24.78,25.12"/><path class="cls-11" d="M203.78,103.72c1.8,55.42-44.21,102.65-99.56,103.46,0,0,0-8.56,0-8.56,12.43.32,24.98-1.8,36.69-6.31,23.69-9.02,43.44-27.85,53.7-51.15,5.21-11.7,8.08-24.5,8.41-37.44,0,0,.76,0,.76,0h0Z"/><circle class="cls-25" cx="102.42" cy="202.84" r="5.51"/><polygon class="cls-19" points="101.35 41.23 108.19 41.23 108.19 47.86 114.89 47.86 114.89 54.35 108.19 54.35 108.19 61.26 101.35 61.26 101.35 54.14 94.72 54.14 94.72 47.86 101.35 47.86 101.35 41.23"/><path class="cls-26" d="M53.81,159.32l-11.95-56.72s-3.33-10.71,5.9-11.5l114.17.02c9.23.79,5.9,11.5,5.9,11.5l-11.95,56.72"/><rect class="cls-26" x="45.64" y="159.34" width="116.96" height="11.5" rx="2.15" ry="2.15"/><circle class="cls-25" cx="203.37" cy="104.69" r="5.51"/><text class="cls-23" transform="translate(34.07 235.32)"><tspan x="0" y="0">Cuida</tspan><tspan class="cls-21" x="47.22" y="0"> </tspan><tspan x="50.94" y="0">su</tspan><tspan class="cls-21" x="70.46" y="0"> </tspan><tspan x="74.17" y="0">sa</tspan><tspan class="cls-22" x="93.07" y="0">l</tspan><tspan x="98.79" y="0">ud</tspan><tspan class="cls-21" x="119.63" y="0"> </tspan><tspan x="123.34" y="0">con </tspan><tspan class="cls-24" x="40.25" y="18.16">f</tspan><tspan x="47.17" y="18.16">acilidad</tspan></text><path class="cls-10" d="M128.93,124.79c-.06.05-.05.13-.05.19.02.67-.07,1.33-.15,1.99-.17,1.36-.46,2.69-.86,4-.35,1.14-.78,2.24-1.28,3.32-.51,1.1-1.11,2.14-1.78,3.14-.52.79-1.09,1.53-1.71,2.25-.43.5-.87.99-1.33,1.46-.48.48-.99.94-1.51,1.39-.89.76-1.84,1.44-2.82,2.07-.99.63-2.03,1.17-3.1,1.65-.74.33-1.5.63-2.28.88-.07.02-.16.03-.2.11-.17-.05-.34-.1-.5-.14-.03-.38.07-.76.06-1.14.06,0,.12-.02.18-.04,1-.33,1.97-.72,2.92-1.18,1.16-.56,2.26-1.22,3.31-1.96.78-.55,1.53-1.14,2.22-1.79.91-.85,1.76-1.74,2.54-2.72.96-1.21,1.79-2.49,2.5-3.86.68-1.3,1.21-2.67,1.63-4.08.18-.61.33-1.22.45-1.84.13-.68.25-1.36.32-2.05.06-.59.13-1.19.14-1.78.01-.78.03-1.56-.03-2.34-.03-.34-.04-.69-.08-1.04-.09-.73-.2-1.46-.34-2.18-.26-1.29-.63-2.54-1.1-3.76-.4-1.04-.88-2.04-1.43-3.01-.3-.53-.62-1.04-.96-1.55-.04-.06-.07-.14-.17-.13,0,0,0,0,0,0,0-.05,0-.11,0-.16.32-.36.55-.77.7-1.23.51.66.95,1.36,1.37,2.08.27.46.53.92.76,1.39.44.9.84,1.83,1.18,2.77.32.91.59,1.83.81,2.77.14.61.26,1.23.35,1.86.08.53.13,1.06.19,1.59.03.27,0,.56.01.83,0,.08-.03.18.05.25v1.98Z"/><path class="cls-10" d="M89.97,143.67c-.34-.16-.61-.42-.9-.65-.9-.71-1.74-1.48-2.53-2.32-.52-.55-1.01-1.12-1.47-1.71-.48-.61-.94-1.24-1.36-1.9-.38-.59-.73-1.2-1.06-1.82-.71-1.33-1.29-2.73-1.74-4.17-.3-.97-.54-1.95-.72-2.95-.09-.53-.18-1.06-.24-1.59-.06-.55-.1-1.1-.13-1.66-.02-.55-.07-1.11-.03-1.66.04-.47.03-.95.08-1.42.04-.4.08-.81.12-1.21.04-.36.09-.72.16-1.08.12-.69.27-1.37.45-2.05.28-1.07.63-2.11,1.05-3.13.23-.57.49-1.13.77-1.68.71-1.4,1.55-2.73,2.51-3.97.4-.52.83-1.02,1.27-1.51.45-.5.92-.97,1.4-1.43.46-.43.93-.86,1.44-1.23.02.09.04.19.05.28.03.2.03.21.24.19.41-.04.81-.08,1.22-.12.03.02.11,0,.07.07-.02.04-.08.07-.12.1-.64.47-1.25.96-1.83,1.5-.83.78-1.62,1.59-2.34,2.48-.93,1.15-1.76,2.37-2.46,3.67-.6,1.11-1.11,2.26-1.52,3.45-.33.96-.6,1.94-.8,2.93-.11.52-.2,1.04-.26,1.56-.05.43-.09.86-.13,1.29-.04.53-.05,1.05-.08,1.58-.03.4,0,.8.03,1.19.03.3.03.6.05.91.05.71.15,1.41.27,2.11.17,1.03.41,2.03.73,3.03.25.79.55,1.57.88,2.34.42.97.91,1.89,1.45,2.79.44.72.92,1.41,1.43,2.08.52.68,1.08,1.31,1.66,1.94.4.43.83.82,1.26,1.21.32.29.64.58,1,.83.07.23.07.46.09.69.04.34.09.68.05,1.03Z"/><path class="cls-10" d="M98.01,99.97c.37-.02.71-.15,1.06-.22.58-.12,1.17-.24,1.76-.31.74-.1,1.49-.17,2.24-.22.75-.05,1.49-.05,2.23-.02.38.02.76.02,1.14.07.36.05.72.07,1.08.11.49.06.97.14,1.46.23.66.12,1.32.28,1.97.46,1.07.3,2.11.66,3.13,1.1.02,0,.03.04.05.06-.37-.06-.74-.12-1.1-.18-.2-.03-.2-.03-.26.17-.08.25-.16.49-.24.74-.74-.26-1.49-.51-2.26-.71-.8-.21-1.6-.37-2.41-.5-.28-.04-.56-.11-.85-.1-.08-.45-.37-.66-.8-.73-.08-.01-.17-.02-.26-.02-.46-.01-.91.02-1.36.11q-.38.07-.37.46c-.47,0-.95.05-1.42.06-.23,0-.47.02-.7.05-.5.06-.99.12-1.48.2-.62.1-1.24.2-1.84.39-.04-.06-.08-.12-.11-.17-.15-.22-.26-.26-.51-.15-.16.07-.31.16-.45.25-.15.09-.24.22-.18.41-.57.16-1.11.37-1.66.58-.76.29-1.49.64-2.21,1.01-.05.02-.1.04-.11.1-.63-.09-1.26-.09-1.89-.02-.29.03-.58.06-.88.1.56-.4,1.14-.75,1.75-1.07.39-.21.78-.42,1.18-.61.74-.36,1.5-.68,2.27-.96.33-.11.65-.25.98-.33.01.02.03.04.04.06.11.17.11.18.29.08.2-.11.4-.22.61-.33.07-.04.14-.06.13-.16Z"/><path class="cls-3" d="M90.77,103.3c.29-.03.58-.06.88-.1.63-.08,1.26-.07,1.89.02.11.05.22.09.33.14.42.17.69.48.81.92.18.69,0,1.28-.46,1.81-.21.25-.44.49-.65.75-.36.43-.65.9-.67,1.49,0,.11-.05.15-.16.16-.47.04-.95.09-1.42.14-.15.01-.18-.07-.18-.19-.02-.33,0-.66.09-.98.15-.54.46-.99.8-1.42.13-.17.28-.34.36-.54.17-.45,0-.68-.42-.68-.46,0-.92.07-1.37.08-.02,0-.03.02-.05.02-.41.04-.81.08-1.22.12-.21.02-.21.01-.24-.19-.02-.09-.03-.19-.05-.28-.03-.23-.05-.46-.09-.69-.02-.11.03-.16.13-.18.46-.11.91-.25,1.38-.33.1-.02.2-.04.3-.06Z"/><path class="cls-3" d="M112.53,101.97c.08-.25.16-.49.24-.74.06-.2.06-.2.26-.17.37.06.74.12,1.1.18.6.17,1.2.34,1.78.55.35.13.69.28,1.01.47.38.23.69.52.87.94.04.16.06.32.06.48,0,.34-.12.63-.27.93-.26.35-.6.6-1,.78-.2.1-.41.19-.62.28-.6.25-1.12.6-1.42,1.2-.04.08-.1.1-.19.07-.43-.16-.87-.3-1.3-.46-.2-.07-.19-.08-.13-.28.18-.55.53-.97.98-1.31.34-.26.73-.44,1.1-.65.18-.1.33-.22.43-.41.1-.18.06-.33-.1-.46-.12-.1-.26-.17-.41-.22-.71-.26-1.42-.5-2.14-.73-.32-.1-.32-.1-.25-.44Z"/><path class="cls-20" d="M106.87,153.68c.06-.11,0-.22-.03-.33-.22-.94-.18-1.87.17-2.77.17-.44.44-.82.84-1.09.03-.02.04-.05.06-.08.07.05.14.1.22.15-.11,0-.2.05-.29.1-.28.17-.44.44-.59.71-.32.57-.39,1.2-.42,1.83-.02.5.07,1,.26,1.47.18.46.49.81.92,1.05.56.31,1.17.29,1.77.23.42-.04.84-.13,1.26-.13.61,0,1.21.01,1.82.04.64.03,1.28.09,1.92.07.02,0,.04,0,.05,0,.44.07.88.07,1.32,0,.49-.09.97-.21,1.4-.45.7-.38,1.12-.97,1.13-1.77.02-.94-.52-1.74-1.46-2.1-.94-.36-1.91-.39-2.88-.14-.81.2-1.47.65-1.92,1.37-.02.04-.05.07-.07.11-.02.03-.06.04-.09.01-.02-.02-.03-.04-.02-.07.01-.03.02-.07.04-.09.18-.29.38-.56.66-.76.18-.13.19-.13.06-.33-.28-.41-.6-.79-.99-1.1.01-.07.04-.13.12-.14,0,.06.04.09.08.13.35.33.66.69.92,1.09.07.11.13.13.24.06.86-.5,1.78-.62,2.76-.51.55.06,1.07.19,1.55.47.91.55,1.33,1.61,1.03,2.62-.01.03-.02.07-.02.1-.08.06-.04.11,0,.18.27.52.22,1.11-.22,1.49-.29.25-.62.42-.98.51-.83.21-1.67.29-2.52.31-.49.01-.99-.02-1.48-.02-.86,0-1.73-.11-2.6-.03-.49.04-.98.08-1.47.13-.42.04-.83.05-1.24-.02-.41-.07-.8-.21-1.13-.48-.55-.45-.6-1.27-.16-1.65.03-.02.05-.05.06-.08.03-.08-.04-.08-.09-.08Z"/><path class="cls-3" d="M98.01,99.97c.02.1-.06.13-.13.16-.2.11-.4.22-.61.33-.18.1-.18.1-.29-.08-.01-.02-.03-.04-.04-.06-.27-.62-.23-1.25-.05-1.88.08-.28.17-.57.21-.86.02-.11.02-.22,0-.34-.11-.52-.42-.71-.93-.57-.19.05-.37.14-.55.24-.55.3-1.09.62-1.62.95-.07.04-.14.11-.24.12-.11-.18-.22-.36-.35-.54-.07-.1-.06-.16.04-.23.47-.37.95-.73,1.47-1.03.4-.22.8-.46,1.23-.61.32-.11.65-.19,1-.14.27.03.5.14.69.33.42.43.58.94.46,1.53-.07.37-.22.71-.32,1.07-.14.46-.21.91-.07,1.38.02.08.04.17.1.24Z"/><path class="cls-16" d="M124.2,109.27c-.15.46-.38.87-.7,1.23-.09.06-.12.11,0,.16,0,0,0,0,0,0-.01.08.05.15.07.22.16.46-.04.95-.49,1.15-.07.03-.14.06-.22.09-.13,0-.25.05-.38.08-.86.2-1.71.21-2.53-.18-.1-.07-.21-.12-.3-.2-.26-.21-.36-.47-.3-.8.03-.18.11-.33.22-.46.12-.14.12-.14-.03-.25-.13-.09-.26-.17-.39-.25-.37-.25-.57-.58-.63-1.03-.04-.34-.06-.67-.03-1.01.04-.61.22-1.16.8-1.49.17-.09.23-.22.2-.4,0-.05.02-.1.02-.15,0-.61-.09-1.21-.26-1.79,0-.03-.02-.05-.04-.06h0c.01-.12,0-.24-.02-.36-.05-.38.05-.72.26-1.04.25-.37.59-.43.93-.15.43.35.69.82.81,1.36.06.25.07.5.08.75,0,.08,0,.15.09.2.26.15.44.37.57.65.29-.24.59-.45.99-.34.41.12.54.46.59.83.09.05.13-.02.19-.05.45-.2.82-.03.93.45.12.48-.02.92-.28,1.31-.1.15-.13.28-.1.45.07.36,0,.71-.09,1.06ZM121.5,106.97c-.14.06-.3.08-.45.11-.15.03-.22.13-.24.27-.02.13.04.24.15.31.13.08.25.15.38.23.17.11.32.24.44.4.12.17.16.36.12.57-.01.06-.02.13-.11.11-.06-.02-.07-.06-.06-.12.07-.29-.08-.48-.27-.66-.17-.15-.37-.26-.56-.38-.26-.15-.33-.44-.18-.7.09-.15.23-.2.39-.22.25-.03.44-.13.58-.35.34-.55.13-1.27-.45-1.55-.3-.15-.57-.05-.7.27-.03.06-.04.13-.06.2-.07.28-.21.51-.41.71-.17.17-.35.32-.56.43-.5.26-.74.68-.81,1.23-.04.34-.02.68,0,1.01.02.53.26.91.71,1.17.11.07.23.13.33.21.17.13.17.26.03.42-.39.45-.32.9.2,1.18.4.22.84.33,1.3.34.57.02,1.12-.09,1.67-.25.52-.16.7-.74.38-1.18-.12-.17-.13-.17.02-.32.43-.43.68-.96.79-1.56.04-.23.04-.47-.01-.73-.29.16-.54.31-.84.15-.3-.15-.33-.46-.4-.74-.56.29-1.08.28-1.37-.56ZM119.72,106.23s.07-.02.09-.04c.26-.23.44-.5.52-.85.09-.37.29-.55.67-.58.11,0,.12-.06.12-.15,0-.42-.08-.83-.28-1.21-.13-.26-.3-.49-.52-.68-.29-.24-.51-.21-.72.1-.13.2-.21.42-.23.66-.02.25.03.48.09.72.16.62.26,1.26.24,1.9,0,.04-.02.09.02.12ZM123.36,106.19c0-.15-.01-.3-.07-.44-.15-.36-.47-.5-.83-.35-.14.06-.26.14-.36.25-.07.07-.1.15-.1.25.02.31-.06.6-.26.85-.06.08-.07.15-.05.24.11.5.57.69,1,.42.45-.28.64-.71.67-1.23ZM124.54,106.78c0-.12-.02-.23-.05-.33-.06-.23-.24-.38-.44-.37-.23,0-.5.2-.54.4-.06.26-.15.5-.32.71-.11.13-.13.27-.12.43.02.23.09.44.32.53.23.09.43-.02.59-.17.36-.32.51-.73.56-1.19Z"/><path class="cls-16" d="M89.97,143.67c.05-.35,0-.69-.05-1.03-.03-.23-.03-.47-.09-.69.01-.24-.03-.47-.06-.7-.14-1.04.26-1.89.92-2.64.1-.12.12-.19.08-.33-.1-.32-.02-.55.25-.75.04-.03.08-.06.12-.1.2-.1.41-.18.63-.23.64-.15,1.27-.14,1.9.03.02,0,.03.02.05.03.41.21.5.36.44.83-.02.13.06.14.14.17.61.23,1.03.67,1.28,1.26.17.4.31.81.42,1.23.11.41.15.82.16,1.24,0,.19,0,.38-.08.56-.17.42-.51.56-.92.38-.02-.01-.04-.03-.06-.04-.01-.02-.03-.04-.05-.02-.02.02,0,.04.02.05.02.02.03.04.05.05.18.31.23.65.28.99.07.48.15.96.23,1.43,0,.04,0,.09,0,.13.08.43-.02.81-.3,1.14-.06.05-.12.1-.19.14-.34.21-.75.16-1.05-.13-.09-.09-.16-.19-.27-.31-.04.13-.06.24-.1.34-.13.37-.37.65-.76.76-.43.13-.87-.06-1.13-.48-.13-.21-.19-.44-.24-.68-.09,0-.11.08-.15.12-.14.15-.31.25-.51.3-.52.12-.99-.25-.99-.81,0-.55.02-1.09.03-1.64,0-.2,0-.4,0-.6ZM94.16,143.09c-.15.11-.32.14-.47.19-.18.06-.19.06-.17.25.09.77.19,1.53.29,2.3.03.27.14.52.33.72.34.37.86.35,1.17-.06.12-.16.19-.35.21-.55.02-.18-.03-.36-.04-.54-.07-.61-.18-1.22-.27-1.83-.02-.17-.07-.33-.17-.46-.17-.21-.22-.46-.26-.72-.08-.6-.33-1.11-.89-1.42-.11-.06-.21-.15-.33-.21-.45-.23-.65-.64-.75-1.1-.02-.07-.11-.19,0-.22.1-.02.08.13.1.2.11.43.3.82.73,1.03.1.05.18.13.28.18.55.3.85.78.95,1.39.04.22.16.38.31.52.2.18.4.18.6,0,.18-.16.25-.37.25-.61.04-1-.25-1.92-.67-2.81-.1-.22-.26-.41-.44-.58-.36-.32-.75-.53-1.25-.43-.24.05-.48.06-.73.05-.05,0-.14.01-.14-.07,0-.07.08-.05.13-.04.29,0,.57,0,.86-.06.22-.04.28-.1.27-.33,0-.2-.09-.35-.26-.45-.11-.06-.22-.1-.34-.13-.51-.13-1.01-.11-1.52-.02-.3.06-.59.15-.84.33-.23.17-.3.36-.23.64.06.22.08.23.31.22.17-.01.33-.04.49-.08.04-.01.08-.03.12-.04.03,0,.07,0,.08.04,0,.03-.01.05-.04.06-.05.02-.1.04-.15.05-.22.06-.44.1-.67.1-.11,0-.21.03-.28.12-.45.55-.81,1.15-.87,1.88-.04.45.05.9.09,1.35.04.47.13.93.13,1.4,0,.44,0,.89-.01,1.33,0,.4-.03.8-.03,1.2,0,.45.29.74.7.75.39,0,.77-.31.81-.7.09-.83.09-1.66.1-2.5,0-.11-.05-.15-.14-.18-.12-.03-.23-.08-.34-.12-.04-.02-.09-.04-.06-.09.02-.04.07-.03.12-.01.02,0,.03.01.05.02.89.35,1.79.36,2.7.04.06-.02.11-.06.19.02ZM93.7,145.91c-.03-.44-.13-1-.19-1.57-.03-.28-.07-.55-.1-.83-.01-.11-.05-.18-.18-.14-.16.04-.33.03-.49.04-.24,0-.48,0-.73-.05-.22-.04-.23-.03-.24.2,0,.03,0,.05,0,.08,0,.62,0,1.23-.05,1.85-.02.22-.02.43,0,.65.01.28.09.55.24.79.38.59,1.11.6,1.52.03.19-.27.25-.59.23-1.05Z"/><path class="cls-10" d="M107.15,148.21c-.56.05-1.11.12-1.67.14-.54.02-1.09,0-1.63,0,.2-.43.27-.86.01-1.29.67-.02,1.35.02,2.02-.04.31-.03.62-.05.93-.08.2-.02.41-.03.61-.07.39-.07.78-.12,1.17-.18,0,.16,0,.32,0,.48-.35.07-.67.23-.95.44-.21.15-.37.34-.45.59-.01,0-.03,0-.04,0Z"/><path class="cls-16" d="M104.64,151.7s0,.08.04.12c.47.58.7,1.25.78,1.98.01.11.05.17.12.24.44.39.52.86.22,1.38-.19.32-.45.57-.76.77-.49.32-1.03.51-1.59.61-1.43.26-2.85.24-4.26-.14-.45-.12-.87-.3-1.25-.56-.22-.15-.41-.32-.56-.54-.28-.42-.25-.88.1-1.24.1-.1.13-.18.11-.32-.03-.22,0-.43.06-.64.14-.49.35-.94.65-1.36.05-.08.13-.14.13-.25.05-.03.12-.04.15-.11,1.01-1.06,2.24-1.42,3.66-1.22.87.13,1.61.52,2.23,1.14.04.06.1.1.16.14ZM101.68,155.54c.46,0,.92-.02,1.38-.09.46-.07.9-.16,1.33-.34.36-.15.61-.42.82-.73.12-.18.16-.39.13-.6-.09-.83-.39-1.57-.99-2.16-.96-.94-2.13-1.26-3.44-1.08-1.51.21-2.77,1.29-3.18,3-.09.38-.01.73.29,1.03.32.32.71.49,1.13.62.83.26,1.68.34,2.54.34ZM97.64,154.34c-.43.43-.41.93.04,1.37.27.28.6.47.96.62.71.3,1.46.43,2.23.47.78.04,1.56.05,2.34-.09.53-.1,1.05-.23,1.53-.49.46-.25.85-.57,1.06-1.07.15-.37.01-.81-.32-.98-.01.01-.03.02-.03.04-.22.5-.56.86-1.08,1.06-.67.26-1.38.35-2.08.39-.52.03-1.04.02-1.56-.03-.63-.07-1.25-.16-1.85-.39-.37-.14-.73-.33-1-.64-.07-.08-.11-.2-.21-.25Z"/><path class="cls-10" d="M95.33,146.66c.28-.34.38-.71.3-1.14,0-.04,0-.09,0-.13.75.27,1.49.55,2.25.77.56.15,1.11.32,1.68.4-.06.05-.12.1-.18.14-.35.25-.57.57-.64.99-.15.01-.29-.04-.43-.07-.95-.25-1.89-.53-2.81-.9-.06-.02-.11-.04-.17-.06Z"/><path class="cls-10" d="M119.28,104.19c.17.58.27,1.18.26,1.79,0,.05-.01.1-.02.15-.23-.24-.49-.43-.75-.63-.39-.31-.8-.6-1.2-.9.15-.29.27-.59.27-.93,0-.16-.02-.32-.06-.48.4.22.78.5,1.15.77.09.07.18.16.31.17,0,0,0,0,0,0,.01.02.03.04.04.06Z"/><path class="cls-16" d="M106.87,153.68c.05,0,.12,0,.09.08,0,.03-.04.06-.06.08-.44.38-.39,1.2.16,1.65.33.27.72.41,1.13.48.41.07.82.06,1.24.02.49-.04.98-.08,1.47-.13.87-.08,1.73.02,2.6.03.49,0,.99.04,1.48.02.85-.02,1.69-.11,2.52-.31.36-.09.69-.26.98-.51.44-.38.49-.97.22-1.49-.04-.07-.08-.12,0-.18.14.1.2.25.24.42.16.62-.02,1.11-.54,1.48-.39.28-.84.41-1.3.5-.99.19-2,.24-3.01.22-.76-.02-1.51-.03-2.27-.06-.74-.03-1.47.07-2.21.14-.6.05-1.2.08-1.78-.08-.46-.13-.87-.36-1.15-.76-.37-.54-.3-1.14.18-1.59Z"/><path class="cls-16" d="M98.73,147.69c.07-.43.29-.75.64-.99.06-.04.12-.09.18-.14.19-.05.35-.16.54-.19,0,.04,0,.07,0,.11-.04.02-.08.04-.12.05-.22.08-.43.18-.62.33-.27.21-.49.48-.49.83,0,.44.22.79.61,1.03.05.03.1.07.16.07.35-.02.69.03,1.03.06.56.04,1.12-.09,1.69-.06.23.01.45,0,.68,0,.08,0,.16,0,.23-.04.32-.21.57-.48.64-.88.05-.34-.02-.65-.31-.89-.22-.18-.45-.32-.73-.38,0-.04,0-.07,0-.11.1,0,.19.03.27.06.28.13.53.28.73.52.26.43.19.87-.01,1.29-.14.21-.37.33-.52.53-.05,0-.1,0-.15,0-.94,0-1.88,0-2.81,0-.22,0-.44,0-.66,0-.09,0-.19,0-.27-.05-.4-.28-.65-.64-.69-1.14Z"/><path class="cls-16" d="M112.15,149.46c-.08.01-.1.07-.12.14-.41.14-.84.18-1.26.26-.07.01-.14.02-.19-.04.04-.08.12-.09.2-.09.35,0,.68-.11,1.01-.23.29-.11.57-.25.81-.46.41-.36.38-.97-.1-1.31-.36-.26-.76-.41-1.18-.52,0-.04,0-.08.04-.1.17.05.34.1.5.14.16.08.31.15.47.23.13.07.25.16.35.26.46.44.46.97-.01,1.4-.15.14-.32.26-.52.34Z"/><path class="cls-16" d="M107.19,148.2c.08-.25.24-.44.45-.59.29-.21.6-.37.95-.44-.02.05-.03.09-.05.14-.4.12-.77.3-1.06.62-.26.29-.26.67,0,.96.18.2.39.37.64.48.28.13.57.21.86.28.07.02.14.02.15.11-.04.04-.09.02-.14.01-.29-.06-.57-.15-.84-.24-.07-.05-.14-.1-.22-.15-.15-.07-.28-.17-.4-.28-.26-.23-.39-.51-.34-.87,0-.02,0-.04.01-.05Z"/><path class="cls-20" d="M99.43,148.83c.08.06.18.05.27.05.22,0,.44,0,.66,0-.05.06-.13.05-.19.05-.16,0-.31,0-.47,0-.1,0-.17.04-.24.12-.47.6-.79,1.26-.91,2.01-.03.19-.07.39.03.58-.03.07-.1.08-.15.11-.09-.28-.02-.57.03-.85.11-.69.43-1.3.84-1.86.05-.07.13-.12.13-.22Z"/><path class="cls-20" d="M103.17,148.89c.05,0,.1,0,.15,0,.31.29.54.66.74,1.03.28.51.46,1.06.58,1.64,0,.05.04.1,0,.15-.07-.03-.12-.08-.16-.14,0-.1,0-.19-.03-.28-.24-.9-.63-1.72-1.28-2.4Z"/><path class="cls-17" d="M107.19,148.2s0,.04-.01.05c-.01-.02-.02-.04-.03-.05.01,0,.03,0,.04,0Z"/><path class="cls-2" d="M122.88,112.12c.07-.03.15-.05.22-.09.44-.2.65-.69.49-1.15-.03-.07-.09-.13-.07-.22.1-.02.13.07.17.13.34.51.66,1.02.96,1.55.54.97,1.03,1.97,1.43,3.01.47,1.22.84,2.47,1.1,3.76.15.72.26,1.45.34,2.18.04.34.05.69.08,1.04.07.78.04,1.56.03,2.34,0,.6-.07,1.19-.14,1.78-.08.69-.19,1.37-.32,2.05-.12.62-.28,1.23-.45,1.84-.41,1.41-.95,2.77-1.63,4.08-.71,1.37-1.54,2.65-2.5,3.86-.77.98-1.63,1.87-2.54,2.72-.7.65-1.45,1.24-2.22,1.79-1.05.74-2.15,1.4-3.31,1.96-.94.46-1.92.85-2.92,1.18-.06.02-.11.04-.18.04.05-.31.04-.62.04-.93,0-.68,0-1.35-.05-2.03-.02-.3-.05-.6-.07-.91-.04-.52-.13-1.05-.19-1.57-.08-.66-.2-1.32-.31-1.97.24-.08.48-.13.67-.31.01,0,.02,0,.04,0,0-.02,0-.04,0-.06,0-.03,0-.07,0-.1,0-.07.01-.14,0-.21-.04-.82-.06-1.64-.12-2.46-.01-.22.02-.45-.07-.66.06-.09.16-.13.25-.19.61-.41,1.18-.88,1.71-1.4.66-.66,1.26-1.38,1.79-2.15.04-.01.05-.04.05-.08h0c.06-.02.09-.08.12-.13,1.85-2.72,2.58-5.71,2.18-8.97-.03-.28-.08-.57-.12-.85.16-.05.28-.16.43-.25,1.07-.63,2.12-1.28,3.08-2.07.77-.63,1.3-1.41,1.6-2.35.27-.85.35-1.73.41-2.61.04-.53,0-1.06,0-1.59Z"/><path class="cls-13" d="M110.84,138.55c.12.66.23,1.31.31,1.97.07.52.15,1.04.19,1.57.02.3.05.6.07.91.05.68.05,1.35.05,2.03,0,.31,0,.62-.04.93.01.38-.09.76-.06,1.14-.03.03-.04.06-.04.1-.03.15-.03.31-.06.46-.2,1-1.29,1.42-2.13.88-.17-.11-.33-.26-.41-.46-.11-.25-.21-.5-.18-.78.02-.05.03-.09.05-.14,0-.16,0-.32,0-.48.09-.3.07-.62.09-.93.03-.4,0-.8.02-1.2.02-.67-.01-1.34-.07-2-.05-.58-.1-1.15-.19-1.73-.09-.59-.18-1.18-.3-1.76-.04-.19-.08-.38-.1-.58-.02-.18-.14-.33-.12-.51.06-.03.12-.03.18-.03.31.02.62-.03.92-.12.21-.06.42-.11.62-.17.33-.08.65-.16.99-.12.07.33.13.66.2.99Z"/><path class="cls-2" d="M123.51,110.66c-.13-.05-.1-.11,0-.16,0,.05,0,.11,0,.16Z"/><path class="cls-2" d="M117.57,104.61c.4.3.8.59,1.2.9.26.2.52.39.75.63.02.18-.03.3-.2.4-.58.32-.76.87-.8,1.49-.02.34,0,.67.03,1.01.05.44.26.78.63,1.03.13.09.26.17.39.25.15.1.15.11.03.25-.12.13-.19.29-.22.46-.06.33.03.6.3.8.1.07.2.13.3.2,0,.29,0,.57,0,.86,0,.61,0,1.23-.11,1.84-.06.31-.13.63-.23.93-.14.41-.48.68-.79.94-.51.43-1.08.78-1.65,1.12-.25.15-.52.27-.74.48-.03-.04-.06-.09-.08-.13-.5-1.05-1.13-2.03-1.89-2.91-.5-.58-1.02-1.13-1.63-1.59-.07-.09-.17-.15-.26-.21-.03-.04-.07-.08-.05-.13.15.06.31.12.46.18.37.14.74.29,1.12.43.17.07.35.07.49-.06.23-.23.32-.62-.08-.82-.05-.02-.09-.05-.14-.08-2-1.08-4-2.16-6-3.24-.08-.05-.17-.09-.25-.13-.27-.13-.5-.04-.62.23-.06.14-.1.28-.16.41-.09.2-.13.41-.25.6-.25-.04-.49-.09-.74-.12-.38-.05-.76-.1-1.13-.15-.11-.28-.21-.55-.32-.83-.12-.3-.35-.38-.65-.24-.05.03-.11.06-.16.08-.62.33-1.24.67-1.85,1-.13.07-.26.13-.4.18-.09,0-.17,0-.26.02-1.05.21-2.06.52-3.04.96-4.53,2.04-7.7,6.51-7.77,11.62-.01.92.04,1.84.25,2.74.02.1-.02.19-.05.28-.09.26-.19.52-.27.78-.14.44-.32.87-.44,1.33-.03.05-.06.1-.08.16-.09.23-.04.35.2.44.08.03.17.03.26.03.22,0,.45.01.67.02-.01.69,0,1.39-.04,2.08-.05.96,0,1.92-.06,2.89-.03.62.01,1.25-.02,1.88-.03.52-.04,1.04-.03,1.56-.04.03-.08.06-.12.1-.27.21-.35.44-.25.75.04.14.02.22-.08.33-.67.75-1.07,1.6-.92,2.64.03.23.08.46.06.7-.36-.25-.68-.54-1-.83-.43-.39-.86-.78-1.26-1.21-.58-.62-1.14-1.26-1.66-1.94-.51-.67-.99-1.36-1.43-2.08-.55-.9-1.04-1.82-1.45-2.79-.33-.77-.63-1.54-.88-2.34-.31-.99-.56-2-.73-3.03-.11-.7-.22-1.4-.27-2.11-.02-.3-.02-.61-.05-.91-.04-.4-.06-.8-.03-1.19.03-.53.04-1.05.08-1.58.04-.43.08-.86.13-1.29.06-.52.16-1.04.26-1.56.21-.99.47-1.97.8-2.93.41-1.19.92-2.34,1.52-3.45.7-1.3,1.53-2.52,2.46-3.67.72-.89,1.51-1.7,2.34-2.48.57-.54,1.19-1.04,1.83-1.5.04-.03.09-.06.12-.1.04-.07-.04-.05-.07-.07.02,0,.03-.02.05-.02.46,0,.91-.09,1.37-.08.43,0,.58.23.42.68-.07.2-.22.37-.36.54-.34.43-.64.88-.8,1.42-.09.32-.11.65-.09.98,0,.12.04.2.18.19.47-.05.95-.09,1.42-.14.1,0,.15-.05.16-.16.02-.59.3-1.06.67-1.49.21-.25.43-.5.65-.75.45-.53.64-1.12.46-1.81-.12-.44-.39-.75-.81-.92-.11-.05-.22-.09-.33-.14.01-.06.07-.08.11-.1.72-.37,1.45-.72,2.21-1.01.55-.21,1.09-.42,1.66-.58.12.21.23.43.35.63.13.21.26.24.49.14.16-.07.31-.15.46-.25.22-.14.25-.28.14-.51-.05-.12-.12-.23-.18-.35.6-.19,1.22-.29,1.84-.39.49-.08.99-.14,1.48-.2.23-.03.47-.04.7-.05.47-.01.95-.06,1.42-.06.02.11.1.1.18.1.28-.03.55-.06.83-.08.24-.02.49-.06.72.04.21.08.29.24.24.46-.04.15-.12.27-.22.38-.11.13-.22.25-.32.38-.18.22-.31.46-.33.75-.02.27-.01.27.27.27.05,0,.11,0,.16,0,.16.02.22-.06.23-.2.02-.25.15-.44.3-.62.11-.13.24-.25.36-.38.25-.25.4-.54.38-.91.29,0,.57.05.85.1.81.13,1.62.28,2.41.5.76.2,1.51.45,2.26.71-.07.33-.07.34.25.44.72.23,1.43.47,2.14.73.15.05.29.12.41.22.16.13.19.28.1.46-.1.18-.25.3-.43.41-.37.21-.75.39-1.1.65-.45.34-.8.76-.98,1.31-.07.2-.07.21.13.28.43.16.87.3,1.3.46.09.03.15.01.19-.07.31-.6.83-.94,1.42-1.2.21-.09.41-.18.62-.28.39-.18.73-.43,1-.78ZM113.47,109.15c.26.03.41-.13.5-.34.11-.27.22-.55.28-.84.05-.25-.02-.42-.25-.54-.31-.17-.65-.28-1-.36-.31-.08-.52.04-.65.33-.11.25-.19.5-.26.76-.09.32.06.53.3.64.29.14.6.23.91.32.06.02.12.01.18.02ZM93.17,110.21c0-.22-.03-.43-.06-.65-.04-.28-.19-.44-.45-.46-.39-.03-.78,0-1.16.1-.26.07-.36.22-.37.5-.01.27.03.54.06.8.04.35.23.51.6.51.28,0,.55-.02.83-.07.46-.07.59-.26.56-.68,0-.02,0-.03,0-.05ZM105.31,103.6c0,.41.07.46.48.4.23-.04.25-.05.25-.28,0-.1,0-.21-.01-.31-.01-.09-.05-.17-.15-.19-.14-.02-.29-.03-.44.02-.08.03-.13.09-.13.17,0,.06,0,.12,0,.18Z"/><path class="cls-3" d="M107.01,100.67c.03.36-.13.65-.38.91-.12.12-.25.24-.36.38-.15.18-.28.38-.3.62-.01.14-.08.23-.23.2-.05,0-.1,0-.16,0-.28,0-.28,0-.27-.27.02-.29.15-.53.33-.75.1-.13.21-.25.32-.38.1-.11.18-.23.22-.38.05-.21-.03-.38-.24-.46-.24-.09-.48-.06-.72-.04-.28.02-.55.05-.83.08-.08,0-.16.01-.18-.1q0-.39.37-.46c.45-.09.91-.12,1.36-.11.09,0,.17.01.26.02.43.07.72.28.8.73Z"/><path class="cls-3" d="M98.77,101.19c.06.12.12.23.18.35.11.23.08.37-.14.51-.14.1-.3.17-.46.25-.22.1-.36.07-.49-.14-.13-.2-.24-.42-.35-.63-.05-.19.03-.32.18-.41.15-.09.3-.18.45-.25.24-.11.36-.07.51.15.04.06.08.11.11.17Z"/><path class="cls-17" d="M108.13,149.55c.28.09.56.18.84.24.05,0,.1.03.14-.01.09,0,.19,0,.28,0,.39-.03.78.08,1.18.05.05.07.12.05.19.04.42-.07.85-.12,1.26-.26.39.31.71.69.99,1.1.14.2.12.2-.06.33-.27.2-.47.48-.66.76-.02.03-.03.06-.04.09,0,.03,0,.05.02.07.03.03.06.02.09-.01.03-.04.05-.07.07-.11.45-.72,1.11-1.17,1.92-1.37.97-.24,1.94-.22,2.88.14.94.36,1.48,1.16,1.46,2.1-.02.81-.44,1.39-1.13,1.77-.44.24-.92.36-1.4.45-.44.08-.88.08-1.32,0-.02,0-.03,0-.05,0-.64.02-1.28-.04-1.92-.07-.61-.03-1.21-.04-1.82-.04-.43,0-.84.09-1.26.13-.61.06-1.21.08-1.77-.23-.44-.24-.74-.59-.92-1.05-.19-.47-.28-.97-.26-1.47.03-.63.1-1.26.42-1.83.15-.27.31-.54.59-.71.09-.06.18-.11.29-.1Z"/><path class="cls-13" d="M116.44,118.19c.22-.2.49-.32.74-.48.57-.35,1.14-.7,1.65-1.12.32-.27.65-.53.79-.94.1-.3.18-.61.23-.93.11-.61.11-1.22.11-1.84,0-.29,0-.57,0-.86.82.39,1.67.37,2.53.18.13-.03.24-.09.38-.08,0,.53.03,1.06,0,1.59-.07.88-.15,1.76-.41,2.61-.3.94-.83,1.72-1.6,2.35-.96.79-2.02,1.44-3.08,2.07-.14.08-.26.2-.43.25-.12-.41-.2-.84-.33-1.25-.16-.53-.38-1.04-.58-1.55Z"/><path class="cls-6" d="M121.5,106.97c.29.84.81.85,1.37.56.07.28.1.59.4.74.3.16.55,0,.84-.15.06.26.06.5.01.73-.11.59-.35,1.12-.79,1.56-.15.15-.15.15-.02.32.32.44.14,1.02-.38,1.18-.54.16-1.09.28-1.67.25-.46-.02-.89-.12-1.3-.34-.52-.28-.59-.73-.2-1.18.14-.16.13-.28-.03-.42-.1-.08-.22-.15-.33-.21-.45-.26-.69-.64-.71-1.17-.01-.34-.04-.67,0-1.01.07-.54.31-.97.81-1.23.21-.11.39-.26.56-.43.2-.2.34-.44.41-.71.02-.07.03-.14.06-.2.13-.31.4-.41.7-.27.58.28.79,1,.45,1.55-.13.22-.33.32-.58.35-.16.02-.3.07-.39.22-.15.25-.08.54.18.7.19.11.39.22.56.38.2.18.34.37.27.66-.01.06,0,.11.06.12.09.02.1-.05.11-.11.04-.21,0-.4-.12-.57-.12-.17-.27-.29-.44-.4-.12-.08-.25-.15-.38-.23-.12-.07-.17-.17-.15-.31.02-.14.1-.24.24-.27.15-.03.3-.05.45-.11Z"/><path class="cls-6" d="M119.72,106.23s-.02-.08-.02-.12c.03-.65-.07-1.28-.24-1.9-.06-.24-.1-.47-.09-.72.02-.24.1-.46.23-.66.2-.31.43-.34.72-.1.22.19.39.42.52.68.19.38.27.78.28,1.21,0,.09-.01.14-.12.15-.38.03-.58.21-.67.58-.08.35-.26.62-.52.85-.02.02-.05.05-.09.04Z"/><path class="cls-6" d="M123.36,106.19c-.03.51-.22.94-.67,1.23-.43.27-.89.08-1-.42-.02-.09-.02-.16.05-.24.2-.25.28-.54.26-.85,0-.11.03-.18.1-.25.11-.11.22-.19.36-.25.35-.15.68,0,.83.35.06.14.07.28.07.44Z"/><path class="cls-6" d="M124.54,106.78c-.04.46-.2.88-.56,1.19-.17.15-.37.26-.59.17-.23-.09-.29-.3-.32-.53-.02-.16,0-.3.12-.43.17-.2.26-.45.32-.71.05-.21.31-.4.54-.4.2,0,.38.14.44.37.03.11.06.22.05.33Z"/><path class="cls-8" d="M119.28,104.19s-.03-.04-.04-.06c.03.01.05.02.04.06Z"/><path class="cls-2" d="M100.1,146.37c-.2.02-.36.14-.54.19-.57-.09-1.13-.25-1.68-.4-.77-.21-1.51-.5-2.25-.77-.08-.48-.15-.95-.23-1.43-.05-.34-.1-.68-.28-.99.02-.01.03-.03.05-.04.41.18.74.04.92-.38.07-.18.09-.37.08-.56-.01-.42-.05-.83-.16-1.24-.11-.42-.25-.83-.42-1.23-.25-.59-.67-1.03-1.28-1.26-.08-.03-.16-.04-.14-.17.06-.47-.03-.62-.44-.83-.02,0-.03-.02-.05-.03.04-.62,0-1.25.06-1.87.03-.3,0-.61,0-.91.02-.88.04-1.75.06-2.63.05.05.11.11.16.17.92,1.04,1.97,1.92,3.16,2.64.57.35,1.17.63,1.78.91-.03.85-.05,1.71-.04,2.56,0,.12-.02.24.04.36,0,.06.04.09.09.1.54.12,1.08.25,1.63.31,0,.56.08,1.11.07,1.66,0,.08.01.15.02.23.04.34.05.68.01,1.01-.07.6-.17,1.2-.24,1.8-.1.75-.17,1.49-.28,2.24-.03.19,0,.38-.09.56Z"/><path class="cls-6" d="M94.16,143.09c-.08-.08-.14-.04-.19-.02-.9.32-1.8.31-2.7-.04-.02,0-.03-.01-.05-.02-.04-.02-.09-.03-.12.01-.03.05.03.07.06.09.11.04.23.09.34.12.1.03.14.07.14.18,0,.83-.01,1.67-.1,2.5-.04.39-.42.71-.81.7-.41,0-.7-.3-.7-.75,0-.4.02-.8.03-1.2,0-.44.01-.89.01-1.33,0-.47-.09-.93-.13-1.4-.04-.45-.13-.89-.09-1.35.06-.73.42-1.33.87-1.88.07-.09.17-.12.28-.12.23,0,.45-.04.67-.1.05-.01.1-.03.15-.05.03,0,.04-.03.04-.06,0-.05-.04-.05-.08-.04-.04,0-.08.03-.12.04-.16.04-.32.07-.49.08-.23.01-.25,0-.31-.22-.07-.27,0-.47.23-.64.25-.18.54-.28.84-.33.51-.09,1.02-.11,1.52.02.12.03.23.07.34.13.17.1.26.25.26.45,0,.22-.05.28-.27.33-.28.05-.57.07-.86.06-.05,0-.12-.02-.13.04,0,.09.08.07.14.07.24.02.49,0,.73-.05.5-.1.9.11,1.25.43.18.16.34.36.44.58.42.89.71,1.81.67,2.81,0,.24-.08.44-.25.61-.2.18-.4.19-.6,0-.15-.14-.28-.3-.31-.52-.1-.61-.4-1.09-.95-1.39-.1-.05-.18-.13-.28-.18-.43-.21-.61-.6-.73-1.03-.02-.08,0-.22-.1-.2-.12.03-.02.15,0,.22.11.46.31.87.75,1.1.11.06.21.15.33.21.56.31.81.82.89,1.42.03.26.09.51.26.72.11.13.15.29.17.46.08.61.2,1.21.27,1.83.02.18.06.36.04.54-.02.2-.09.39-.21.55-.31.41-.83.43-1.17.06-.19-.2-.29-.45-.33-.72-.1-.77-.19-1.53-.29-2.3-.02-.19-.02-.19.17-.25.15-.05.32-.07.47-.19Z"/><path class="cls-13" d="M93.8,131.82c-.02.88-.04,1.75-.06,2.63,0,.3.02.61,0,.91-.06.62-.02,1.25-.06,1.87-.63-.17-1.26-.18-1.9-.03-.22.05-.43.14-.63.23,0-.52,0-1.04.03-1.56.03-.62-.01-1.25.02-1.88.05-.96,0-1.93.06-2.89.04-.69.02-1.39.04-2.08.02-.25.03-.5.05-.75.84,0,1.68.03,2.51.05,0,.26,0,.52,0,.78-.02.9-.07,1.8-.06,2.7Z"/><path class="cls-6" d="M93.7,145.91c.02.46-.04.77-.23,1.05-.4.57-1.14.55-1.52-.03-.15-.24-.23-.51-.24-.79,0-.22,0-.43,0-.65.05-.62.05-1.23.05-1.85,0-.03,0-.05,0-.08,0-.23.01-.25.24-.2.24.04.48.05.73.05.16,0,.33,0,.49-.04.13-.04.17.03.18.14.03.28.07.55.1.83.07.57.16,1.13.19,1.57Z"/><path class="cls-2" d="M95.07,142.91s-.04-.04-.01-.06c.02-.02.04,0,.05.02-.01.01-.02.02-.03.03Z"/><path class="cls-2" d="M95.11,142.96s-.03-.04-.05-.05c.01-.01.02-.02.03-.03.02.01.04.03.06.04-.02.01-.03.03-.05.04Z"/><path class="cls-2" d="M108.15,139.08c.12.58.21,1.17.3,1.76.09.57.15,1.15.19,1.73.05.66.08,1.33.07,2,0,.4.02.8-.02,1.2-.03.31,0,.62-.09.93-.39.06-.78.11-1.17.18-.2.04-.41.05-.61.07-.31.03-.62.05-.93.08-.67.06-1.35.03-2.02.04-.2-.23-.45-.39-.73-.52-.09-.04-.18-.07-.27-.06,0-.31.07-.62.11-.92.04-.34.09-.68.14-1.02.04-.32.08-.65.12-.97.04-.35.1-.7.13-1.05.04-.4.13-.8.13-1.21,0-.14-.05-.27-.05-.41.01-.67-.08-1.33-.06-2,.46-.06.92-.16,1.36-.29.12-.03.24-.08.19-.25.04-.45.02-.89.03-1.34,0-.16,0-.33.06-.48.12,0,.23,0,.35,0,.04.65.08,1.29.11,1.94,0,.09,0,.17.05.25-.01.09,0,.15.1.17.15.02.29.05.43.07.69.09,1.39.16,2.09.14Z"/><path class="cls-6" d="M101.68,155.54c-.86,0-1.72-.08-2.54-.34-.42-.13-.81-.31-1.13-.62-.3-.29-.38-.64-.29-1.03.41-1.71,1.68-2.79,3.18-3,1.31-.19,2.48.13,3.44,1.08.6.59.9,1.33.99,2.16.02.21-.02.42-.13.6-.2.32-.46.59-.82.73-.43.18-.88.27-1.33.34-.46.07-.92.09-1.38.09Z"/><path class="cls-20" d="M97.64,154.34c.11.05.14.17.21.25.27.31.62.5,1,.64.59.22,1.22.32,1.85.39.52.05,1.04.06,1.56.03.71-.04,1.41-.13,2.08-.39.52-.2.86-.56,1.08-1.06,0-.01.02-.03.03-.04.33.17.48.61.32.98-.21.5-.6.82-1.06,1.07-.48.26-1,.39-1.53.49-.77.14-1.56.13-2.34.09-.76-.04-1.52-.17-2.23-.47-.35-.15-.68-.34-.96-.62-.44-.45-.47-.94-.04-1.37Z"/><path class="cls-17" d="M103.17,148.89c.65.68,1.04,1.5,1.28,2.4.03.09.03.19.03.28-.62-.62-1.36-1.01-2.23-1.14-1.42-.21-2.66.16-3.66,1.22-.1-.19-.06-.39-.03-.58.11-.75.44-1.41.91-2.01.07-.09.13-.12.24-.12.16,0,.31,0,.47,0,.07,0,.14.02.19-.05.94,0,1.88,0,2.81,0Z"/><path class="cls-13" d="M103.38,138.89c-.02.67.08,1.33.06,2,0,.14.05.27.05.41,0,.41-.08.81-.13,1.21-.04.35-.09.7-.13,1.05-.04.32-.08.65-.12.97-.04.34-.1.68-.14,1.02-.03.31-.11.61-.11.92,0,.04,0,.07,0,.11-.11.12-.04.28-.08.42-.17.62-.69,1.05-1.37,1.05-.47,0-1.06-.36-1.23-.84-.09-.25-.08-.49-.09-.74,0-.04,0-.07,0-.11.09-.18.06-.37.09-.56.11-.74.18-1.49.28-2.24.08-.6.18-1.2.24-1.8.04-.34.03-.68-.01-1.01,0-.08-.03-.15-.02-.23.02-.56-.07-1.11-.07-1.66,0-.34-.06-.69-.04-1.03.2.03.39.05.59.08.34.05.68.11,1.03.06.26-.03.51-.08.77-.12.12-.02.24-.05.36,0,.02.35-.01.7.06,1.04Z"/><path class="cls-20" d="M100.09,146.48c.02.25,0,.49.09.74.17.48.77.84,1.23.84.68,0,1.2-.43,1.37-1.05.04-.14-.03-.3.08-.42.28.06.51.21.73.38.29.24.36.54.31.89-.06.4-.31.67-.64.88-.07.05-.15.04-.23.04-.23,0-.45,0-.68,0-.56-.03-1.12.1-1.69.06-.34-.02-.69-.08-1.03-.06-.07,0-.11-.03-.16-.07-.38-.24-.6-.6-.61-1.03,0-.34.21-.62.49-.83.19-.14.4-.25.62-.33.04-.01.08-.03.12-.05Z"/><path class="cls-20" d="M110.58,149.82c-.39.03-.78-.08-1.18-.05-.09,0-.19,0-.28,0-.01-.09-.08-.1-.15-.11-.29-.07-.58-.16-.86-.28-.25-.12-.46-.28-.64-.48-.26-.29-.26-.67,0-.96.29-.32.65-.5,1.06-.62-.02.28.07.53.18.78.09.2.24.35.41.46.84.54,1.92.12,2.13-.88.03-.15.03-.31.06-.46.42.11.82.26,1.18.52.48.34.51.95.1,1.31-.24.21-.52.35-.81.46-.32.12-.66.22-1.01.23-.08,0-.16.01-.2.09Z"/><path class="cls-5" d="M115.12,131.02c-.54.77-1.13,1.49-1.79,2.15-.52.52-1.09.99-1.71,1.4-.09.06-.18.1-.25.19-.03.01-.06.03-.09.04-1.56.95-3.25,1.51-5.08,1.62-.11,0-.23,0-.34,0-.77.03-1.54-.02-2.3-.17-1.35-.27-2.6-.77-3.76-1.52-1.02-.65-1.9-1.45-2.68-2.36-.55-.64-1.02-1.34-1.43-2.07-.22-.39-.39-.79-.59-1.19.13-.14.1-.3.05-.47,0-.44-.08-.88-.11-1.32-.06-.77-.16-1.54-.24-2.32-.06-.59-.11-1.19-.17-1.78-.02-.25-.15-.37-.4-.38-.07,0-.14,0-.21,0,0-.06-.01-.12,0-.18.07-.49.11-.98.19-1.46.22-1.27.62-2.48,1.17-3.64.41-.86.92-1.67,1.52-2.41.41-.51.83-.99,1.33-1.42.47-.18.93-.36,1.4-.54.18-.07.35-.15.53-.19-.33.29-.71.52-1.03.83-.35.33-.51.74-.48,1.21,0,.16.04.32.18.45.64.59,1.27,1.18,1.91,1.76.29.27.59.53.89.8.3.28.59.56.88.84-.16.09-.34.15-.52.21-.24-.32-.56-.54-.85-.8-.55-.51-1.13-1-1.69-1.5-.34-.3-.69-.61-1.03-.92-.05-.05-.11-.09-.18-.1-.42-.08-.95.05-1.21.42-.25.37-.49.76-.69,1.16-.74,1.42-1.21,2.92-1.41,4.52-.06.46.07.83.3,1.2.16.25.39.37.7.36.9-.02,1.8-.05,2.7-.1.48-.03.95-.02,1.43-.04.61-.02,1.23-.07,1.85-.07.65,0,1.3-.08,1.95-.06.03,0,.05,0,.08,0,.3-.04.56-.32.6-.63,0,0,0,0,0,0,.06,0,.04-.03.01-.06.18-.22.34-.45.46-.71.09-.19.17-.39.26-.59.43,0,.78-.22,1.08-.5.14-.13.19-.29.19-.49-.01-.55-.09-1.1-.13-1.65-.02-.23-.02-.47-.05-.7-.05-.5-.11-1-.14-1.5-.02-.3-.04-.61-.07-.9-.08-.7-.11-1.39-.19-2.09-.05-.49-.07-.98-.12-1.47-.02-.28-.37-.6-.65-.6-.16,0-.33,0-.49,0,.04-.06.11-.08.17-.09.21-.05.36-.18.45-.37.17,0,.35,0,.52.01.42.03.84.06,1.26.09.07.17.19.3.37.35.04.01.07.04.11.06-.11.01-.23.02-.34-.01-.27-.09-.43.03-.56.24-.1.16-.2.33-.12.53.01.03,0,.07,0,.1-.02.36.04.73.07,1.09.02.28.03.55.05.83.04.52.11,1.05.14,1.57.03.62.1,1.24.13,1.86,0,.23.02.47.05.7.07.58.1,1.17.14,1.76.02.28.05.53.27.72-.03.03-.07.04-.12.05-.43.11-.82.3-1.15.58-.35.3-.57.67-.54,1.13.02.39.23.7.52.96.53.46,1.17.66,1.86.72.56.05,1.13,0,1.67-.15-.06.23-.18.45-.2.7-.03.3-.04.6.23.8.72.55,1.45,1.1,2.17,1.65.9.69,1.81,1.37,2.72,2.05.28.21.55.42.83.63.1.08.17.06.23-.05.03-.05.06-.11.08-.16.38-.81.72-1.63.94-2.5.29-1.13.47-2.27.45-3.44,0-.18,0-.36,0-.55,0-.31-.02-.32-.33-.29-.03,0-.05.01-.08.01-.51.06-1.01.13-1.52.19-.37.04-.74.08-1.11.12-.52.06-1.05.13-1.57.19-.39.05-.79.11-1.18.14-.27.02-.53.1-.8.07.22-.22.45-.43.59-.72.21-.02.43-.04.64-.07.48-.06.96-.13,1.44-.19.48-.06.96-.11,1.44-.17.53-.06,1.06-.13,1.6-.2.22-.03.44-.07.67-.09.11-.01.15-.04.13-.16-.05-.29-.08-.58-.14-.87-.22-1.17-.58-2.28-1.09-3.35-.28-.57-.6-1.11-.95-1.64,0-.05,0-.09,0-.14.05.02.08.06.11.11.48.72.87,1.48,1.2,2.27.37.89.63,1.81.8,2.76.13.73.2,1.47.23,2.22.02.42,0,.83-.04,1.25-.04.52-.1,1.03-.19,1.54-.15.82-.36,1.62-.66,2.4-.22.57-.46,1.12-.75,1.66-.14.25-.32.47-.39.76,0,0,0,0,0,0-.05,0-.05.04-.05.08ZM103.64,127.72s-.06.04-.08.06c-.13.09-.22.06-.3-.07-.07-.11-.16-.2-.24-.3.07-.03.12-.1.18-.15.5-.51.99-1.02,1.48-1.54.02-.02.05-.05.07-.08.06-.08.1-.16.1-.26.03-.51-.14-.94-.49-1.3-.11-.12-.25-.17-.42-.17-.23,0-.47.03-.7.05-.41.03-.81,0-1.22.05-.44.04-.88.03-1.32.05-.85.04-1.7.08-2.55.1-.71.02-1.42.09-2.13.07-.33-.01-.57.14-.74.4-.26.4-.36.86-.28,1.32.16.93.41,1.84.77,2.72.34.82.68,1.64,1.3,2.3.28.29.58.55.96.7.23.1.47.09.72.06.2-.02.28-.19.4-.31.57-.58,1.15-1.16,1.7-1.76.36-.39.75-.75,1.11-1.14.29-.31.58-.63.89-.91.17.14.28.31.39.5-.26.29-.52.58-.79.86-.57.61-1.14,1.22-1.7,1.83-.35.38-.7.77-1.05,1.15-.07.07-.11.15-.12.25-.02.3,0,.58.14.86.26.49.64.86,1.08,1.18.58.43,1.2.77,1.86,1.03.92.37,1.87.63,2.88.58.37-.02.72-.09,1.03-.31.27-.19.44-.43.41-.79-.02-.33,0-.66,0-.99.03-1.86-.03-3.72.05-5.57.02-.5,0-1.01,0-1.51,0-.2-.06-.37-.21-.51-.26-.24-.56-.38-.9-.43-.29-.04-.54,0-.74.26-.17.23-.38.43-.58.64-.27.29-.54.58-.82.88-.06.06-.11.13-.14.22ZM107.45,126.65c.06.37.12.76.18,1.14.11.69.23,1.38.34,2.07.11.67.22,1.33.33,2,.11.69.23,1.38.35,2.07.06.35.11.7.16,1.05.03.19.17.3.3.41.12.1.24,0,.34-.03.64-.23,1.25-.52,1.83-.87.98-.6,1.86-1.33,2.62-2.19.43-.49.82-1.01,1.17-1.56.11-.17.1-.18-.04-.3-1.41-1.11-2.82-2.21-4.24-3.32-.57-.44-1.13-.89-1.7-1.33-.12-.1-.25-.18-.43-.15-.37.07-.69.23-.96.49-.14.14-.27.3-.27.53Z"/><path class="cls-18" d="M106.2,136.43c1.83-.11,3.52-.67,5.08-1.62.03-.02.06-.03.09-.04.1.21.06.44.07.66.05.82.08,1.64.12,2.46,0,.07,0,.14,0,.21-.04,0-.06-.02-.09-.05-.21-.27-.49-.42-.82-.47-.34-.04-.67.04-.99.12-.21.05-.42.11-.62.17-.3.08-.6.14-.92.12-.06,0-.12,0-.18.03-.03-.02-.06-.05-.08-.05-.43,0-.85-.12-1.28-.02-.42.1-.76.27-.95.66-.02.05-.04.1-.09.13-.05-.08-.04-.17-.05-.25-.04-.65-.08-1.29-.11-1.94.26-.01.51-.07.77-.06.02,0,.04-.02.07-.04Z"/><path class="cls-12" d="M115.17,130.95c.07-.28.25-.51.39-.76.29-.53.53-1.09.75-1.66.3-.78.51-1.58.66-2.4.09-.51.15-1.03.19-1.54.03-.42.05-.83.04-1.25-.03-.74-.1-1.48-.23-2.22-.17-.95-.44-1.87-.8-2.76-.33-.8-.73-1.56-1.2-2.27-.03-.04-.06-.09-.11-.11,0-.05-.01-.09-.06-.11-.03-.07-.07-.13-.12-.2-.47-.67-1.02-1.26-1.61-1.82-.09-.08-.19-.15-.24-.26,0,0,.02-.02.03-.02.61.46,1.14,1.01,1.63,1.59.76.88,1.39,1.86,1.89,2.91.02.05.05.09.08.13.2.52.41,1.02.58,1.55.13.41.21.84.33,1.25.04.28.08.57.12.85.4,3.27-.33,6.26-2.18,8.97-.03.05-.06.11-.12.13Z"/><path class="cls-15" d="M110.64,137.56c.33.06.61.2.82.47.02.03.05.05.09.05,0,.03,0,.07,0,.1-.01.02-.03.03-.04.05-.19.18-.44.24-.67.31-.07-.33-.13-.66-.2-.99Z"/><path class="cls-18" d="M111.52,138.24s.03-.03.04-.05c0,.02,0,.04,0,.06-.01,0-.02,0-.04,0Z"/><path class="cls-12" d="M115.12,131.02s0-.07.05-.08c0,.04-.01.07-.05.08Z"/><path class="cls-15" d="M105.52,138.71s.06-.08.09-.13c.2-.4.54-.57.95-.66.43-.1.86.02,1.28.02.03,0,.06.04.08.05-.02.18.1.33.12.51.02.19.07.38.1.58-.7.03-1.39-.05-2.09-.14-.15-.02-.29-.05-.43-.07-.11-.01-.12-.08-.1-.17Z"/><path class="cls-12" d="M98.23,113.74c-.5.42-.92.91-1.33,1.42-.6.74-1.11,1.55-1.52,2.41-.56,1.16-.96,2.37-1.17,3.64-.08.49-.12.98-.19,1.46,0,.06,0,.12,0,.18-.18-.02-.34.05-.51.06-.39.03-.77.06-1.16.09-.22.02-.3.12-.36.3-.22.67-.45,1.35-.69,2.01-.08.23-.12.49-.28.69-.21-.9-.26-1.82-.25-2.74.07-5.11,3.24-9.59,7.77-11.62.98-.44,1.99-.76,3.04-.96.08-.02.17-.02.26-.02-.03.07-.1.1-.16.13-1.03.55-2.07,1.1-3.1,1.66-.25.14-.51.27-.75.42-.23.14-.27.35-.17.59.11.26.31.33.57.29Z"/><path class="cls-18" d="M91,126c.16-.2.2-.45.28-.69.24-.67.47-1.34.69-2.01.06-.18.14-.28.36-.3.39-.03.77-.06,1.16-.09.17-.01.34-.08.51-.06.07,0,.14,0,.21,0,.25,0,.38.13.4.38.06.59.11,1.19.17,1.78.08.77.18,1.54.24,2.32.04.44.12.87.11,1.32-.03-.02-.06-.04-.08-.06-.34-.38-.77-.35-1.21-.25-.84-.02-1.67-.06-2.51-.05-.38-.09-.74-.11-1.09.11.12-.45.3-.88.44-1.33.08-.26.18-.52.27-.78.03-.09.07-.18.05-.28Z"/><path class="cls-14" d="M107.57,111.33s-.07-.05-.11-.06c-.19-.05-.3-.18-.37-.35,0-.06,0-.13,0-.19.12-.18.17-.4.25-.6.06-.14.1-.28.16-.41.12-.27.35-.35.62-.23.09.04.17.09.25.13,2,1.08,4,2.16,6,3.24.05.02.09.05.14.08.4.2.31.59.08.82-.14.14-.31.13-.49.06-.37-.14-.74-.29-1.12-.43-.15-.06-.31-.12-.46-.18-.07-.06-.15-.05-.23-.05,0,0,0,0,0,0-.01-.03-.03-.04-.06-.04-.17-.07-.33-.14-.5-.21-.05-.02-.11-.07-.17-.01-.19-.11-.38-.2-.58-.28-.5-.18-1-.39-1.5-.58-.59-.22-1.17-.47-1.77-.67-.03-.04-.07-.05-.11-.04-.01,0-.02,0-.03-.01Z"/><path class="cls-14" d="M98.23,113.74c-.26.04-.46-.03-.57-.29-.1-.24-.06-.44.17-.59.24-.15.5-.28.75-.42,1.03-.55,2.06-1.11,3.1-1.66.06-.03.13-.06.16-.13.14-.04.27-.11.4-.18.62-.34,1.24-.67,1.85-1,.05-.03.11-.06.16-.08.3-.14.53-.07.65.24.11.27.21.55.32.83.04.12.1.23.09.35-.09.19-.24.32-.45.37-.06.02-.13.03-.17.09,0,0,0,0,0,0-.06,0-.12,0-.16.05-.09.03-.18.05-.27.09-.91.35-1.81.7-2.72,1.05-.46.18-.93.33-1.38.55-.19.03-.36.12-.53.19-.47.18-.93.36-1.4.54Z"/><path class="cls-3" d="M113.47,109.15c-.06,0-.12,0-.18-.02-.31-.09-.61-.19-.91-.32-.24-.11-.39-.32-.3-.64.07-.26.15-.52.26-.76.13-.3.34-.41.65-.33.34.08.69.19,1,.36.22.12.3.29.25.54-.06.29-.16.57-.28.84-.09.21-.23.37-.5.34Z"/><path class="cls-3" d="M93.17,110.21s0,.03,0,.05c.03.43-.09.61-.56.68-.27.04-.55.06-.83.07-.37,0-.55-.16-.6-.51-.03-.27-.07-.53-.06-.8.01-.28.11-.43.37-.5.38-.1.77-.14,1.16-.1.26.02.41.18.45.46.03.21.07.43.06.65Z"/><path class="cls-15" d="M90.24,128.39c.35-.21.72-.2,1.09-.11-.02.25-.03.5-.05.75-.22,0-.45-.01-.67-.02-.09,0-.17,0-.26-.03-.23-.08-.29-.21-.2-.44.02-.06.06-.11.08-.16Z"/><path class="cls-3" d="M105.31,103.6c0-.06,0-.12,0-.18,0-.09.05-.14.13-.17.14-.05.29-.05.44-.02.1.01.14.1.15.19.01.1.02.21.01.31,0,.22-.02.24-.25.28-.41.07-.48.01-.48-.4Z"/><path class="cls-12" d="M105.31,110.81c0-.13-.05-.24-.09-.35.38.05.76.1,1.13.15.25.04.5.08.74.12,0,.06,0,.13,0,.19-.42-.03-.84-.07-1.26-.09-.17-.01-.35,0-.52-.01Z"/><path class="cls-12" d="M112.3,113.16c.08,0,.16-.01.23.05-.01.06.02.09.05.13,0,0-.02.02-.02.03-.1-.05-.21-.1-.26-.21Z"/><path class="cls-12" d="M112.58,113.34c.1.06.19.12.26.21,0,0-.02.02-.03.02-.13-.02-.2-.11-.26-.21,0,0,.02-.02.02-.03Z"/><path class="cls-12" d="M106.2,136.43s-.04.04-.07.04c-.26,0-.51.05-.77.06-.12,0-.23,0-.35,0-.1.04-.2.05-.31.05-.71,0-1.41,0-2.12-.09-.51-.07-1.02-.15-1.53-.26-.75-.16-1.46-.41-2.17-.69-.61-.28-1.21-.56-1.78-.91-1.19-.72-2.24-1.59-3.16-2.64-.05-.06-.11-.11-.16-.17-.01-.9.04-1.8.06-2.7.16,0,.32-.02.47.01.26.06.51.05.77-.01.2.39.37.8.59,1.19.42.73.88,1.43,1.43,2.07.78.91,1.67,1.71,2.68,2.36,1.16.74,2.42,1.24,3.76,1.52.76.15,1.53.2,2.3.17.11,0,.23,0,.34,0Z"/><path class="cls-18" d="M98.89,135.53c.71.28,1.42.53,2.17.69.51.11,1.01.19,1.53.26.71.09,1.41.09,2.12.09.11,0,.21,0,.31-.05-.07.15-.06.32-.06.48,0,.45.01.89-.03,1.34-.02,0-.04,0-.05-.02-.35-.48-.85-.61-1.41-.56-.06,0-.12.01-.16.07-.12-.05-.24-.01-.36,0-.26.04-.51.09-.77.12-.35.05-.69-.01-1.03-.06-.2-.03-.39-.05-.59-.08-.43-.12-.83-.07-1.22.15-.21.11-.32.3-.46.48-.05-.12-.03-.24-.04-.36-.01-.85.01-1.71.04-2.56Z"/><path class="cls-15" d="M98.89,138.45c.14-.18.25-.37.46-.48.39-.21.79-.27,1.22-.15-.02.35.04.69.04,1.03-.55-.06-1.09-.19-1.63-.31-.06-.01-.1-.04-.09-.1Z"/><path class="cls-15" d="M95.09,129.11c-.25.06-.51.07-.77.01-.15-.03-.31,0-.47-.01,0-.26,0-.52,0-.78.44-.09.87-.13,1.21.25.02.03.05.04.08.06.04.16.08.32-.05.47Z"/><path class="cls-15" d="M103.32,137.84c.04-.06.09-.06.16-.07.56-.05,1.05.08,1.41.56,0,.01.03.01.05.02.05.17-.07.21-.19.25-.45.13-.9.23-1.36.29-.07-.34-.04-.69-.06-1.04Z"/><path class="cls-1" d="M102.86,127.6c-.32.29-.6.6-.89.91-.36.39-.75.75-1.11,1.14-.56.6-1.13,1.17-1.7,1.76-.12.12-.2.29-.4.31-.24.03-.48.04-.72-.06-.38-.16-.68-.41-.96-.7-.62-.66-.96-1.48-1.3-2.3-.37-.87-.61-1.79-.77-2.72-.08-.46.02-.92.28-1.32.17-.26.4-.41.74-.4.71.02,1.42-.05,2.13-.07.85-.03,1.7-.07,2.55-.1.44-.02.89,0,1.32-.05.41-.04.81-.02,1.22-.05.23-.01.47-.04.7-.05.17,0,.3.05.42.17.35.36.52.79.49,1.3,0,.1-.04.19-.1.26-.02.03-.05.05-.07.08-.49.51-.99,1.02-1.48,1.54-.05.06-.1.12-.18.15-.05-.05-.1-.09-.15-.14-.38-.35-.81-.61-1.28-.82-.08-.03-.12-.04-.16.05-.04.09,0,.12.08.16.12.06.25.11.37.18.37.21.73.43.99.77Z"/><path class="cls-1" d="M103.64,127.72c.03-.08.08-.15.14-.22.27-.29.55-.58.82-.88.19-.21.4-.41.58-.64.2-.26.45-.3.74-.26.34.05.65.19.9.43.15.14.22.31.21.51,0,.5.01,1.01,0,1.51-.08,1.86-.02,3.72-.05,5.57,0,.33-.02.66,0,.99.02.36-.15.6-.41.79-.31.22-.66.3-1.03.31-1.01.05-1.96-.21-2.88-.58-.66-.26-1.29-.6-1.86-1.03-.44-.32-.82-.69-1.08-1.18-.15-.28-.16-.56-.14-.86,0-.1.06-.18.12-.25.35-.38.7-.77,1.05-1.15.57-.61,1.14-1.22,1.7-1.83.27-.29.53-.57.79-.86.11.16.18.34.23.52.11.38.12.77.02,1.15-.03.09,0,.15.09.17.11.02.11-.06.13-.12.07-.26.1-.53.07-.8-.03-.29-.1-.56-.23-.82-.06-.11-.03-.17.08-.22.25-.12.5-.23.77-.32.78-.24,1.56-.33,2.32.06.09.04.18,0,.19-.09,0-.08-.07-.09-.12-.12-.52-.27-1.07-.31-1.65-.24-.53.07-1.02.25-1.51.46Z"/><path class="cls-1" d="M104.53,122.54c-.04.31-.3.59-.6.63-.03,0-.05,0-.08,0-.65-.02-1.3.06-1.95.06-.62,0-1.23.04-1.85.07-.48.02-.95.01-1.43.04-.9.05-1.8.09-2.7.1-.31,0-.54-.11-.7-.36-.23-.37-.36-.74-.3-1.2.2-1.59.67-3.1,1.41-4.52.21-.4.44-.79.69-1.16.25-.37.79-.51,1.21-.42.07.01.13.06.18.1.34.31.68.61,1.03.92.56.5,1.14.99,1.69,1.5.29.26.61.49.85.8-.08.04-.16.08-.24.1-.11.04-.15.1-.13.21.12.87.32,1.72.74,2.5.14.27.31.52.54.73.44.4.94.42,1.41.05.07-.06.12-.15.22-.17Z"/><path class="cls-1" d="M107.45,126.65c0-.23.13-.39.27-.53.27-.26.59-.42.96-.49.17-.03.3.05.43.15.57.44,1.13.89,1.7,1.33,1.41,1.11,2.82,2.21,4.24,3.32.15.11.15.13.04.3-.36.54-.74,1.07-1.17,1.56-.76.87-1.64,1.59-2.62,2.19-.58.36-1.19.64-1.83.87-.11.04-.23.13-.34.03-.14-.11-.27-.22-.3-.41-.06-.35-.11-.7-.16-1.05-.11-.69-.23-1.38-.35-2.07-.11-.67-.22-1.33-.33-2-.11-.69-.23-1.38-.34-2.07-.06-.38-.12-.77-.18-1.14Z"/><path class="cls-1" d="M107.72,111.38c.6.19,1.18.45,1.77.67.5.19,1,.39,1.5.58.2.07.39.17.58.28.7.48,1.37,1,1.96,1.62.19.2.18.19.03.39-.27.35-.56.68-.8,1.05-.09.02-.18.04-.28.07-1.88.46-3.15,1.6-3.79,3.42-.13.38-.23.76-.18,1.17-.37,0-.74.06-1.1.1-.22-.19-.26-.44-.27-.72-.04-.59-.06-1.17-.14-1.76-.03-.23-.04-.47-.05-.7-.02-.62-.1-1.24-.13-1.86-.02-.53-.09-1.05-.14-1.57-.02-.28-.03-.55-.05-.83-.03-.36-.09-.72-.07-1.09,0-.03,0-.07,0-.1-.08-.21.02-.37.12-.53.13-.21.29-.33.56-.24.1.04.22.03.34.01.01,0,.02,0,.03.01.03.04.07.05.11.04Z"/><path class="cls-1" d="M110.51,123.59c.27.03.53-.05.8-.07.4-.03.79-.09,1.18-.14.52-.06,1.05-.13,1.57-.19.37-.04.74-.08,1.11-.12.51-.06,1.01-.12,1.52-.19.03,0,.05-.01.08-.01.3-.04.32-.02.33.29,0,.18,0,.36,0,.55.02,1.17-.15,2.31-.45,3.44-.23.87-.56,1.69-.94,2.5-.03.05-.05.11-.08.16-.06.11-.13.13-.23.05-.27-.21-.55-.42-.83-.63-.91-.68-1.81-1.37-2.72-2.05-.73-.55-1.45-1.1-2.17-1.65-.27-.21-.26-.5-.23-.8.02-.25.14-.46.2-.7.3-.12.58-.27.86-.43Z"/><path class="cls-1" d="M100.16,113.01c.45-.22.92-.37,1.38-.55.9-.35,1.81-.7,2.72-1.05.09-.03.18-.06.27-.09.06,0,.12.02.16-.05,0,0,0,0,0,0,.16,0,.33,0,.49,0,.28,0,.63.32.65.6.04.49.06.98.12,1.47.08.7.11,1.39.19,2.09.03.3.05.6.07.9.03.5.09,1,.14,1.5.02.23.03.47.05.7.04.55.12,1.1.13,1.65,0,.2-.05.36-.19.49-.31.28-.65.49-1.08.5.04-.14.07-.28.11-.43.26-1.03.32-2.07.2-3.13-.08-.67-.23-1.33-.51-1.96-.17-.37-.37-.71-.68-.98-.48-.42-1.02-.43-1.51-.02-.28.23-.47.53-.63.85-.29.57-.44,1.18-.55,1.81-.02.12.04.17.13.23.33.18.65.37.98.55.14.08.28.15.41.23.2.13.2.2,0,.3-.22.11-.44.2-.68.25-.29-.28-.58-.57-.88-.84-.29-.27-.59-.53-.89-.8-.64-.59-1.27-1.18-1.91-1.76-.14-.12-.17-.29-.18-.45-.03-.47.13-.88.48-1.21.32-.3.7-.54,1.03-.83Z"/><path class="cls-1" d="M114.84,116.11c.35.53.67,1.07.95,1.64.52,1.07.88,2.19,1.09,3.35.05.29.08.58.14.87.02.12-.02.15-.13.16-.22.03-.44.07-.67.09-.53.07-1.06.14-1.6.2-.48.06-.96.11-1.44.17-.48.06-.96.13-1.44.19-.21.03-.43.05-.64.07.19-.68-.05-1.2-.59-1.61-.24-.18-.51-.29-.77-.42.15-.18.32-.36.46-.55.09-.13.24-.22.28-.39h0s.07,0,.09-.04c.35-.04.71-.04,1.06.04.25.06.48.14.71.25.08.04.14.06.19-.04.05-.09.05-.15-.05-.2-.37-.18-.76-.3-1.16-.33-.13-.08-.29,0-.45-.06.09-.11.17-.21.24-.31.17-.24.41-.42.53-.7h0s.07,0,.09-.04c.22-.03.43-.05.65-.04.49.03.95.18,1.39.39.2.1.2.09.29-.15-.64-.36-1.33-.54-2.06-.53.54-.66,1.07-1.31,1.61-1.97.26-.02.53-.03.79-.02.15,0,.31.04.46,0Z"/><path class="cls-14" d="M102.5,118.9c.24-.05.46-.15.68-.25.21-.1.21-.17,0-.3-.13-.08-.27-.15-.41-.23-.33-.18-.65-.37-.98-.55-.09-.05-.15-.1-.13-.23.11-.63.26-1.24.55-1.81.16-.32.35-.62.63-.85.49-.4,1.03-.4,1.51.02.31.27.51.61.68.98.28.62.44,1.28.51,1.96.12,1.05.07,2.1-.2,3.13-.04.14-.07.28-.11.43-.09.2-.17.39-.26.59-.12.26-.27.49-.46.71,0,.02,0,.04-.01.06,0,0,0,0,0,0-.1.02-.15.11-.22.17-.47.37-.97.35-1.41-.05-.23-.21-.4-.46-.54-.73-.42-.78-.62-1.63-.74-2.5-.02-.11.02-.18.13-.21.08-.03.16-.07.24-.1.18-.05.35-.11.52-.21Z"/><path class="cls-9" d="M109.74,120.84c.26.13.53.24.77.42.55.41.78.93.59,1.61-.14.29-.37.5-.59.72-.28.16-.57.3-.86.43-.55.15-1.11.2-1.67.15-.69-.06-1.33-.26-1.86-.72-.29-.25-.5-.57-.52-.96-.03-.47.19-.84.54-1.13.34-.29.73-.47,1.15-.58.04-.01.09-.02.12-.05.37-.04.73-.11,1.1-.1.15.07.31.05.47.05.04,0,.09,0,.13,0,.21.08.42.12.64.17Z"/><path class="cls-14" d="M108.97,120.67c-.16,0-.32.02-.47-.05-.06-.41.04-.79.18-1.17.65-1.82,1.92-2.96,3.79-3.42.09-.02.18-.04.28-.07.41-.06.81-.12,1.22-.11.03,0,.07-.02.1-.02.08,0,.17,0,.25,0,.15.05.31.02.46.02.05.02.06.07.06.11,0,.05,0,.09,0,.14-.15.05-.3.01-.46,0-.26,0-.53,0-.79.02-.4.03-.8.08-1.19.2-.03,0-.05,0-.08,0-1.7.48-2.82,1.57-3.4,3.23-.09.24-.15.49-.16.76.16-.09.17-.08.26-.21.5-.68,1.06-1.28,1.8-1.7.03,0,.06-.01.06-.05h0c.36-.11.71-.22,1.09-.27.74,0,1.42.17,2.06.53-.09.25-.09.25-.29.15-.44-.21-.9-.36-1.39-.39-.22-.02-.43,0-.65.04-.04,0-.07,0-.09.04,0,0,0,0,0,0-.09-.02-.17.02-.25.04-.26.08-.5.2-.72.35-.38.26-.73.55-1.03.96.18-.06.3-.11.43-.16.41-.14.83-.12,1.26-.12.41.04.79.16,1.16.33.11.05.1.11.05.2-.05.1-.11.08-.19.04-.22-.12-.46-.2-.71-.25-.35-.08-.7-.08-1.06-.04-.04,0-.07,0-.09.04,0,0,0,0,0,0-.43.03-.8.21-1.16.44-.15.07-.26.19-.35.34Z"/><path class="cls-14" d="M103.64,127.72c.49-.21.98-.39,1.51-.46.57-.07,1.12-.02,1.65.24.05.03.12.04.12.12,0,.09-.1.14-.19.09-.77-.39-1.54-.3-2.32-.06-.27.08-.52.2-.77.32-.11.05-.13.11-.08.22.13.26.2.54.23.82.03.27,0,.54-.07.8-.02.06-.02.15-.13.12-.1-.02-.12-.08-.09-.17.1-.39.09-.77-.02-1.15-.05-.18-.12-.36-.23-.52-.1-.19-.22-.37-.39-.5-.27-.34-.63-.56-.99-.77-.12-.07-.25-.12-.37-.18-.07-.03-.12-.07-.08-.16.04-.09.09-.08.16-.05.47.2.9.47,1.28.82.05.05.1.09.15.14.08.1.18.19.24.3.08.13.17.16.3.07.03-.02.07-.02.08-.06Z"/><path class="cls-1" d="M104.53,122.55s0-.04.01-.06c.03.03.05.05-.01.06Z"/><path class="cls-5" d="M114.79,115.86c-.15,0-.31.02-.46-.02.08-.03.17.01.25-.05-.36-.6-.3-.48-.62-.08-.02.03-.05.05-.04.1.05,0,.11.02.17.03-.03,0-.07.03-.1.02-.41-.02-.82.05-1.22.11.24-.37.53-.7.8-1.05.16-.21.16-.2-.03-.39-.59-.62-1.25-1.14-1.96-1.62.06-.06.11,0,.17.01.17.07.33.14.5.21.01.02.03.04.06.04,0,0,0,0,0,0,.05.12.15.16.26.21.06.1.13.19.26.21.06.11.16.18.24.26.59.56,1.14,1.15,1.61,1.82.04.06.09.12.12.2Z"/><path class="cls-5" d="M107.72,111.38s-.09,0-.11-.04c.05,0,.08,0,.11.04Z"/><path class="cls-12" d="M112.3,113.16s-.05-.02-.06-.04c.03,0,.05.01.06.04Z"/><path class="cls-5" d="M104.69,111.28c-.04.07-.1.06-.16.05.04-.05.1-.06.16-.05Z"/><path class="cls-5" d="M111.99,118.12c-.37.04-.73.16-1.09.27,0-.07.04-.12.07-.16.32-.41.64-.82.96-1.23.16-.21.35-.4.47-.64.39-.12.79-.18,1.19-.2-.54.66-1.07,1.31-1.61,1.97Z"/><path class="cls-5" d="M111.3,119.56c-.42,0-.85-.02-1.26.12-.13.04-.25.09-.43.16.31-.41.66-.7,1.03-.96.22-.15.46-.27.72-.35.08-.03.16-.06.25-.04-.12.28-.36.46-.53.7-.07.1-.15.2-.24.31.16.06.32-.02.45.06Z"/><path class="cls-5" d="M109.32,120.33c.35-.23.72-.41,1.16-.44-.04.17-.18.26-.28.39-.14.19-.3.37-.46.55-.21-.05-.43-.09-.64-.17.05-.13.17-.21.22-.34Z"/><path class="cls-5" d="M111.62,118.49s.05-.05.09-.04c-.02.03-.05.05-.09.04Z"/><path class="cls-5" d="M110.47,119.89s.05-.05.09-.04c-.02.03-.05.05-.09.04Z"/><path class="cls-13" d="M109.32,120.33c-.04.13-.17.21-.22.34-.04,0-.09,0-.13,0,.09-.14.2-.26.35-.34Z"/><path class="cls-13" d="M112.41,116.35c-.12.24-.31.43-.47.64-.31.41-.64.82-.96,1.23-.04.05-.08.1-.07.16,0,0,0,0,0,0-.03,0-.05.02-.06.05-.74.42-1.3,1.03-1.8,1.7-.09.13-.1.12-.26.21,0-.27.07-.52.16-.76.58-1.66,1.7-2.75,3.4-3.23.02,0,.05,0,.08,0Z"/><path class="cls-13" d="M114.08,115.83c-.06,0-.12-.02-.17-.03,0-.05.02-.07.04-.1.32-.4.27-.51.62.08-.07.06-.17.01-.25.05-.08,0-.17,0-.25,0Z"/><path class="cls-5" d="M110.83,118.43s.03-.05.06-.05c0,.04-.03.05-.06.05Z"/></svg>