<?xml version="1.0" encoding="UTF-8"?><svg id="Capa_1" xmlns="http://www.w3.org/2000/svg" xmlns:xlink="http://www.w3.org/1999/xlink" viewBox="0 0 5870.82 1648.09"><defs><style>.cls-1{fill:#7a7a7a;}.cls-1,.cls-2{stroke-miterlimit:10;stroke-width:7.52px;}.cls-1,.cls-2,.cls-3,.cls-4,.cls-5,.cls-6,.cls-7,.cls-8{stroke:#000;}.cls-9,.cls-10,.cls-5,.cls-7,.cls-11{isolation:isolate;}.cls-9,.cls-2,.cls-6{fill:#fff;}.cls-9,.cls-12,.cls-13,.cls-14{stroke-width:0px;}.cls-9,.cls-5{opacity:.29;}.cls-3{fill:url(#Degradado_sin_nombre);}.cls-3,.cls-4,.cls-5,.cls-6,.cls-7,.cls-8{stroke-miterlimit:10;stroke-width:7.52px;}.cls-4{fill:none;}.cls-12,.cls-11{fill:#ff4440;}.cls-5{fill:#8fcfea;}.cls-13{fill:#878787;}.cls-7{fill:#bbe8fb;opacity:.6;}.cls-14{fill:#eeebe4;}.cls-8{fill:url(#Degradado_sin_nombre_2);}.cls-11{font-family:LilitaOne, 'Lilita One';font-size:658.18px;}</style><linearGradient id="Degradado_sin_nombre" x1="6009.94" y1="-99.77" x2="6557.38" y2="-99.77" gradientTransform="translate(8539.54 5817.43) rotate(-123.9)" gradientUnits="userSpaceOnUse"><stop offset="0" stop-color="#b3b3b3"/><stop offset="1" stop-color="gray"/></linearGradient><linearGradient id="Degradado_sin_nombre_2" x1="5985.4" y1="-261.27" x2="6577.82" y2="-261.27" gradientTransform="translate(8539.54 5817.43) rotate(-123.9)" gradientUnits="userSpaceOnUse"><stop offset="0" stop-color="#b3b3b3"/><stop offset="1" stop-color="gray"/></linearGradient></defs><path class="cls-7" d="M4813.9,451.53c32.3-42.9,78.7-102.7,136.6-171.5C5168.2,21.53,5235.1,7.13,5265.8,4.53c33.4-3.1,107.2-1,201.2,89.8l204,303.7c48.5,121.4,22.2,190.8,7.1,220.2-14.2,27-52.2,83.7-374.3,187.9-86,27.9-158.5,47.9-210.4,61.6l-279.5-416.2h0Z"/><path class="cls-5" d="M4855.4,477.23c26.9-36.1,65.6-85.2,113.7-142.5,181.2-214.6,237.2-226.7,261.9-228.9,27.7-2.4,89.2-.8,167.3,74.6l169.4,252.1c40.2,100.7,18.5,158.3,5.8,183.1-12.3,22.6-43.5,69.8-311,155.9-71.2,22.9-131.6,39.8-174.9,51.4l-232.2-345.7h0Z"/><path class="cls-6" d="M5344.1,745.43s285.3-112.5,302.2-147.6-13.1-183.8-13.1-183.8l-194.6-290.6s-126.3-84.1-165.2-81.6c-38.9,2.4-250.9,224-250.9,224"/><path class="cls-14" d="M5022.2,265.43s212.3-221.2,251.5-223.2c38.9-2.4,164.6,80.8,164.6,80.8l193.2,288.4s-330.3,192-340.7,176.6c-10.5-15.4-268.6-322.6-268.6-322.6h0Z"/><path class="cls-3" d="M4770.1,494.03c-13.6-6.4-15.9-23.6-5.3-37.6s30.4-19.8,43.4-12.4c0,0,70.9,35.9,173.6,150.8,102.7,114.9,114.2,276.7,114.2,276.7,1.9,14.9-10.9,31-27.9,35.5-16.9,4.5-31.6-4.3-32.8-19.1-23.5-85.2-61.9-165.4-113.4-237.4-83.9-116.7-151.8-156.5-151.8-156.5h0Z"/><path class="cls-8" d="M4644.8,522.73s-66.6,124.5,41,313.4c107.6,188.9,280.2,158.3,280.2,158.3,0,0,199.8-17.1-13.1-334s-308.1-137.7-308.1-137.7Z"/><path class="cls-13" d="M4989.8,949.13c-25.5,1-39.9-85.4-108.5-172.7-6.2-8.3-105.8-133.3-179.6-118-21.8,4.7-29.9,19.5-43.9,12.6-26.2-13-39.5-87.5-12.8-132.2,16.3-25.9,44.5-42.3,75.3-43.8,135.3-5.5,322.9,303.5,289.2,425.8-1.7,6.8-7.6,27.7-19.7,28.3h0Z"/><ellipse class="cls-1" cx="4771.22" cy="792.83" rx="12.4" ry="29" transform="translate(368.79 2795.76) rotate(-33.9)"/><ellipse class="cls-1" cx="4674.09" cy="725.24" rx="12.4" ry="29" transform="translate(389.97 2730.1) rotate(-33.9)"/><ellipse class="cls-1" cx="4713.68" cy="831.42" rx="12.4" ry="29" transform="translate(337.49 2770.23) rotate(-33.9)"/><ellipse class="cls-1" cx="4796.13" cy="897.64" rx="12.4" ry="29" transform="translate(314.57 2827.47) rotate(-33.9)"/><ellipse class="cls-2" cx="5182.68" cy="504.44" rx="53.3" ry="288.69" transform="translate(599.57 2976.23) rotate(-33.9)"/><path class="cls-4" d="M4950.9,537.73c94.8-106.7,199-204.8,311.6-292.2,55.1-43.2,109.2-81.5,161.3-115.2"/><path class="cls-9" d="M5310.9,734.03h0c-125.9,52.8-178.4,23.9-195.1,12-24.9-17.6-17.3-31.4-73-103-36.6-47.1-52.7-58.1-53.1-84.6.6-35.3,22.1-67.2,54.7-81,12-4.4,39.9-11.2,96.6,22.3,90.7,54.3,141.7,146,169.6,214.5"/><path class="cls-4" d="M5061.7,702.63c134.6-47.4,264.5-107.3,388.4-178,60.9-34.7,116.7-70.3,167.6-105.8"/><image class="cls-10" width="90" height="82" transform="translate(5371.25 944.12) rotate(-123.9) scale(7.34)" xlink:href="../../../../../../Users/Luis Alberto/Downloads/BAB08BD6.png"/><text class="cls-11" transform="translate(0 1503.29)"><tspan x="0" y="0">Próximamente</tspan></text><ellipse class="cls-12" cx="4247.4" cy="1436.03" rx="80.2" ry="85.4"/><ellipse class="cls-12" cx="4454.4" cy="1448.93" rx="58.3" ry="62.1"/><ellipse class="cls-12" cx="4614" cy="1448.93" rx="42.1" ry="44.8"/><ellipse class="cls-12" cx="4514.4" cy="994.63" rx="77" ry="82"/><ellipse class="cls-12" cx="4718.2" cy="1280.53" rx="49.1" ry="52.3"/><ellipse class="cls-12" cx="4716.2" cy="1010.13" rx="23.5" ry="25"/><ellipse class="cls-12" cx="4607.6" cy="1144.63" rx="23.5" ry="25"/><ellipse class="cls-12" cx="4411" cy="1268.73" rx="23.5" ry="25"/></svg>