<?xml version="1.0" encoding="UTF-8"?><svg id="Capa_1" xmlns="http://www.w3.org/2000/svg" xmlns:xlink="http://www.w3.org/1999/xlink" viewBox="0 0 1134.82 318.56"><defs><style>.cls-1{fill:url(#Degradado_sin_nombre_3-2);}.cls-1,.cls-2,.cls-3,.cls-4,.cls-5,.cls-6,.cls-7{stroke:#000;stroke-miterlimit:10;stroke-width:1.45px;}.cls-2{fill:#8fcfea;}.cls-2,.cls-8,.cls-4,.cls-9{isolation:isolate;}.cls-2,.cls-9{opacity:.29;}.cls-3{fill:none;}.cls-10{font-family:LilitaOne, 'Lilita One';font-size:127.22px;}.cls-10,.cls-11{fill:#ff4440;}.cls-11,.cls-12,.cls-13,.cls-9{stroke-width:0px;}.cls-12{fill:#878787;}.cls-4{fill:#bbe8fb;opacity:.6;}.cls-5{fill:#7a7a7a;}.cls-13{fill:#eeebe4;}.cls-9,.cls-6{fill:#fff;}.cls-7{fill:url(#Degradado_sin_nombre_3);}</style><linearGradient id="Degradado_sin_nombre_3" x1="830.93" y1="555.25" x2="936.75" y2="555.25" gradientTransform="translate(989.26 1170.41) rotate(-123.9)" gradientUnits="userSpaceOnUse"><stop offset="0" stop-color="#b3b3b3"/><stop offset="1" stop-color="gray"/></linearGradient><linearGradient id="Degradado_sin_nombre_3-2" x1="826.2" y1="524.04" x2="940.7" y2="524.04" xlink:href="#Degradado_sin_nombre_3"/></defs><path class="cls-4" d="M930.49,87.28c6.24-8.29,15.21-19.86,26.4-33.15C998.97,4.16,1011.91,1.37,1017.85.88c6.46-.61,20.72-.19,38.89,17.36l39.43,58.68c9.38,23.46,4.29,36.87,1.37,42.57-2.75,5.22-10.09,16.18-72.34,36.32-16.62,5.38-30.64,9.26-40.67,11.91l-54.04-80.43Z"/><path class="cls-2" d="M938.52,92.24c5.19-6.98,12.67-16.46,21.98-27.54,35.02-41.48,45.86-43.82,50.62-44.25,5.35-.46,17.25-.15,32.34,14.42l32.74,48.72c7.78,19.47,3.58,30.61,1.13,35.39-2.37,4.36-8.41,13.48-60.1,30.14-13.77,4.43-25.43,7.69-33.8,9.94l-44.89-66.82h0Z"/><path class="cls-6" d="M1032.98,144.07s55.14-21.75,58.42-28.53-2.54-35.52-2.54-35.52l-37.62-56.17s-24.41-16.25-31.92-15.78c-7.51.47-48.49,43.3-48.49,43.3"/><path class="cls-13" d="M970.77,51.3s41.03-42.75,48.6-43.14c7.51-.47,31.81,15.61,31.81,15.61l37.34,55.75s-63.85,37.12-65.86,34.13-51.89-62.36-51.89-62.36Z"/><path class="cls-7" d="M922.03,95.49c-2.64-1.24-3.07-4.57-1.02-7.26s5.87-3.82,8.4-2.39c0,0,13.7,6.94,33.55,29.14,19.85,22.2,22.07,53.48,22.07,53.48.37,2.88-2.11,6-5.38,6.87s-6.1-.84-6.34-3.69c-4.55-16.46-11.96-31.96-21.91-45.88-16.25-22.57-29.37-30.26-29.37-30.26Z"/><path class="cls-1" d="M897.81,101.04s-12.87,24.06,7.93,60.57c20.79,36.51,54.17,30.59,54.17,30.59,0,0,38.62-3.3-2.53-64.56-41.16-61.26-59.56-26.61-59.56-26.61Z"/><path class="cls-12" d="M964.5,183.45c-4.94.18-7.71-16.5-20.98-33.37-1.2-1.6-20.45-25.78-34.72-22.81-4.21.9-5.78,3.76-8.48,2.44-5.06-2.51-7.63-16.92-2.48-25.56,3.14-5,8.6-8.18,14.56-8.46,26.15-1.06,62.42,58.66,55.9,82.31-.33,1.3-1.48,5.33-3.81,5.45Z"/><ellipse class="cls-5" cx="922.29" cy="153.26" rx="2.4" ry="5.6" transform="translate(71.27 540.39) rotate(-33.9)"/><ellipse class="cls-5" cx="903.52" cy="140.21" rx="2.4" ry="5.6" transform="translate(75.36 527.71) rotate(-33.9)"/><ellipse class="cls-5" cx="911.17" cy="160.74" rx="2.4" ry="5.6" transform="translate(65.21 535.46) rotate(-33.9)"/><ellipse class="cls-5" cx="927.11" cy="173.52" rx="2.4" ry="5.6" transform="translate(60.79 546.52) rotate(-33.9)"/><ellipse class="cls-6" cx="1001.83" cy="97.54" rx="10.3" ry="55.8" transform="translate(115.86 575.28) rotate(-33.9)"/><path class="cls-3" d="M956.98,103.94c18.31-20.62,38.47-39.58,60.23-56.49,10.65-8.36,21.11-15.75,31.18-22.27"/><path class="cls-9" d="M1026.56,141.88h0c-24.34,10.21-34.49,4.62-37.71,2.33-4.81-3.39-3.35-6.06-14.11-19.92-7.08-9.1-10.19-11.22-10.27-16.35.11-6.82,4.28-13,10.57-15.65,2.33-.84,7.7-2.16,18.68,4.32,17.54,10.5,27.39,28.22,32.79,41.46"/><path class="cls-3" d="M978.39,135.81c26.01-9.16,51.12-20.74,75.07-34.41,11.76-6.7,22.56-13.59,32.4-20.45"/><image class="cls-8" width="90" height="82" transform="translate(1038.23 182.49) rotate(-123.9) scale(1.42)" xlink:href="../../../../../../Users/Luis Alberto/Downloads/BAB08BD6.png"/><text class="cls-10" transform="translate(0 290.57)"><tspan x="0" y="0">Proximamente</tspan></text><ellipse class="cls-11" cx="821" cy="277.57" rx="15.5" ry="16.5"/><ellipse class="cls-11" cx="861" cy="280.07" rx="11.27" ry="12"/><ellipse class="cls-11" cx="891.86" cy="280.07" rx="8.14" ry="8.66"/><ellipse class="cls-11" cx="872.61" cy="192.25" rx="14.89" ry="15.85"/><ellipse class="cls-11" cx="912" cy="247.52" rx="9.5" ry="10.11"/><ellipse class="cls-11" cx="911.61" cy="195.24" rx="4.54" ry="4.83"/><ellipse class="cls-11" cx="890.61" cy="221.24" rx="4.54" ry="4.83"/><ellipse class="cls-11" cx="852.61" cy="245.24" rx="4.54" ry="4.83"/></svg>