<svg width="1041" height="296" viewBox="0 0 1041 296" fill="none" xmlns="http://www.w3.org/2000/svg">
<path d="M6.84 181.04C7.98 181.94 9.93 183.17 12.69 184.73C15.51 186.29 18.18 187.07 20.7 187.07C23.28 187.07 24.57 186.08 24.57 184.1C24.57 183.2 24.21 182.42 23.49 181.76C22.77 181.04 21.45 180.23 19.53 179.33C17.61 178.43 16.17 177.74 15.21 177.26C14.25 176.72 12.96 175.88 11.34 174.74C9.78 173.54 8.58 172.31 7.74 171.05C5.34 167.63 4.14 163.28 4.14 158C4.14 152.72 6.09 148.28 9.99 144.68C13.95 141.02 19.11 139.19 25.47 139.19C29.79 139.19 33.78 139.67 37.44 140.63C41.1 141.53 42.99 142.73 43.11 144.23C43.11 144.41 43.11 144.59 43.11 144.77C43.11 146.87 42.45 149.54 41.13 152.78C39.81 155.96 38.88 157.73 38.34 158.09C34.5 156.11 31.05 155.12 27.99 155.12C24.99 155.12 23.49 156.2 23.49 158.36C23.49 159.68 24.6 160.85 26.82 161.87C27.3 162.11 27.99 162.44 28.89 162.86C29.79 163.28 30.81 163.79 31.95 164.39C33.15 164.93 34.41 165.65 35.73 166.55C37.11 167.39 38.58 168.53 40.14 169.97C43.32 172.97 44.91 176.93 44.91 181.85C44.91 188.27 43.14 193.52 39.6 197.6C36.06 201.68 30.6 203.78 23.22 203.9C19.62 203.9 16.35 203.6 13.41 203C10.53 202.4 8.01 201.23 5.85 199.49C3.69 197.75 2.61 195.65 2.61 193.19C2.61 190.73 3.06 188.3 3.96 185.9C4.86 183.44 5.82 181.82 6.84 181.04ZM81.5625 165.02C82.7025 165.02 83.2725 167.12 83.2725 171.32C83.2725 172.58 83.1225 174.08 82.8225 175.82C82.5825 177.5 82.1025 178.34 81.3825 178.34H69.9525V187.34H86.5125C87.5325 187.34 88.2225 188.66 88.5825 191.3C88.7625 192.44 88.8525 193.67 88.8525 194.99C88.8525 196.25 88.6725 197.9 88.3125 199.94C87.9525 201.98 87.3525 203 86.5125 203H55.7325C53.4525 203 52.3125 202.07 52.3125 200.21V142.34C52.3125 140.78 53.0025 140 54.3825 140H86.6025C87.8625 140 88.4925 142.67 88.4925 148.01C88.4925 153.29 87.8625 155.93 86.6025 155.93H69.9525V165.02H81.5625ZM159.697 203.09C154.357 203.09 151.687 202.49 151.687 201.29L149.797 165.2L138.817 201.74C138.577 202.46 136.537 202.82 132.697 202.82C128.857 202.82 126.877 202.49 126.757 201.83L115.417 164.84L114.157 200.75C114.097 201.65 112.957 202.28 110.737 202.64C108.517 202.94 106.657 203.09 105.157 203.09C103.717 203.09 102.307 203 100.927 202.82C98.0473 202.4 96.6373 201.65 96.6973 200.57L98.7673 142.07C98.7673 140.63 102.427 139.91 109.747 139.91C111.907 139.91 114.547 140.09 117.667 140.45C120.787 140.75 122.527 141.38 122.887 142.34L132.967 170.69L141.787 142.25C142.327 140.69 146.467 139.91 154.207 139.91C156.427 139.91 159.067 140.09 162.127 140.45C165.247 140.75 166.807 141.32 166.807 142.16L169.417 201.2C169.417 201.86 168.247 202.34 165.907 202.64C163.567 202.94 161.497 203.09 159.697 203.09ZM222.538 156.29C222.538 162.53 219.838 167.27 214.438 170.51C217.378 171.59 219.838 173.45 221.818 176.09C223.798 178.73 224.788 182.48 224.788 187.34C224.788 192.14 222.988 195.95 219.388 198.77C215.848 201.59 210.748 203 204.088 203H182.848C181.828 203 180.988 202.67 180.328 202.01C179.668 201.29 179.338 200.36 179.338 199.22V141.62C179.338 140.96 179.428 140.54 179.608 140.36C179.848 140.12 180.298 140 180.958 140H201.478C215.518 140 222.538 145.43 222.538 156.29ZM196.618 154.58V166.37H197.068C202.828 166.37 205.708 164.45 205.708 160.61C205.708 158.51 205.138 156.98 203.998 156.02C202.918 155.06 201.088 154.58 198.508 154.58H196.618ZM196.618 176.99V188.69H198.238C200.818 188.69 202.708 188.21 203.908 187.25C205.108 186.29 205.708 184.76 205.708 182.66C205.708 180.56 205.138 179.09 203.998 178.25C202.918 177.41 201.088 176.99 198.508 176.99H196.618ZM248.975 201.74C248.975 202.7 246.125 203.18 240.425 203.18C234.665 203.18 231.785 202.73 231.785 201.83V143.15C231.785 141.05 232.895 140 235.115 140H252.305C268.085 140 275.975 146.15 275.975 158.45C275.975 162.17 275.255 165.56 273.815 168.62C272.375 171.62 270.335 174.02 267.695 175.82L279.035 194.72C278.555 196.16 276.995 197.81 274.355 199.67C270.755 202.25 267.785 203.54 265.445 203.54C263.105 203.54 261.365 202.7 260.225 201.02L251.765 181.31H248.975V201.74ZM248.975 155.93V169.43H249.425C255.125 169.43 257.975 167.06 257.975 162.32C257.975 160.16 257.405 158.57 256.265 157.55C255.185 156.47 253.385 155.93 250.865 155.93H248.975ZM327.171 203.18C321.951 203.18 319.131 202.34 318.711 200.66L315.741 189.05H301.431L298.821 200.21C298.461 202.07 295.581 203 290.181 203C287.301 203 285.171 202.85 283.791 202.55C282.411 202.19 281.721 201.92 281.721 201.74L297.651 140.81C297.651 140.33 301.761 140.09 309.981 140.09C318.201 140.09 322.311 140.33 322.311 140.81L337.881 201.83C337.881 202.25 336.501 202.58 333.741 202.82C330.981 203.06 328.791 203.18 327.171 203.18ZM303.681 177.62H313.131L309.081 158.99H308.541L303.681 177.62ZM393.166 201.02C393.166 202.28 390.346 202.91 384.706 202.91C379.066 202.91 376.006 202.46 375.526 201.56L360.496 173.48V201.47C360.496 202.55 357.706 203.09 352.126 203.09C346.606 203.09 343.846 202.55 343.846 201.47V141.26C343.846 140.36 346.216 139.91 350.956 139.91C352.816 139.91 354.976 140.09 357.436 140.45C359.956 140.75 361.486 141.35 362.026 142.25L376.426 169.97V141.71C376.426 140.57 379.216 140 384.796 140C390.376 140 393.166 140.57 393.166 141.71V201.02ZM402.205 198.86V144.86C402.205 143.36 402.565 142.19 403.285 141.35C404.065 140.45 405.055 140 406.255 140H421.285C430.825 140 438.055 142.4 442.975 147.2C447.955 152 450.445 159.56 450.445 169.88C450.445 191.96 441.025 203 422.185 203H406.795C403.735 203 402.205 201.62 402.205 198.86ZM419.485 157.1V184.01C419.485 185.27 419.575 186.08 419.755 186.44C419.935 186.74 420.475 186.89 421.375 186.89C424.675 186.89 427.165 185.66 428.845 183.2C430.585 180.74 431.455 176.66 431.455 170.96C431.455 165.2 430.555 161.45 428.755 159.71C427.015 157.97 424.225 157.1 420.385 157.1H419.485ZM484.394 203.9C475.994 203.9 469.124 201.14 463.784 195.62C458.504 190.1 455.864 182.06 455.864 171.5C455.864 160.88 458.534 152.84 463.874 147.38C469.274 141.92 476.204 139.19 484.664 139.19C493.184 139.19 500.054 141.89 505.274 147.29C510.494 152.63 513.104 160.76 513.104 171.68C513.104 182.54 510.434 190.64 505.094 195.98C499.754 201.26 492.854 203.9 484.394 203.9ZM484.484 156.47C481.604 156.47 479.174 157.79 477.194 160.43C475.274 163.07 474.314 166.79 474.314 171.59C474.314 176.33 475.244 179.99 477.104 182.57C478.964 185.09 481.394 186.35 484.394 186.35C487.454 186.35 489.914 185.06 491.774 182.48C493.694 179.9 494.654 176.21 494.654 171.41C494.654 166.61 493.664 162.92 491.684 160.34C489.764 157.76 487.364 156.47 484.484 156.47ZM586.253 201.47C586.253 202.49 583.223 203 577.163 203C571.103 203 568.073 202.49 568.073 201.47V180.77H555.473V201.47C555.473 202.49 552.443 203 546.383 203C540.323 203 537.293 202.49 537.293 201.47V141.8C537.293 140.54 540.323 139.91 546.383 139.91C552.443 139.91 555.473 140.54 555.473 141.8V162.95H568.073V141.98C568.073 141.14 569.573 140.54 572.573 140.18C574.133 140.06 575.663 140 577.163 140L581.753 140.18C584.753 140.54 586.253 141.14 586.253 141.98V201.47ZM637.423 204.08C632.203 204.08 629.383 203.24 628.963 201.56L626.083 189.05H611.773L609.073 201.11C608.713 202.97 605.833 203.9 600.433 203.9C597.553 203.9 595.423 203.72 594.043 203.36C592.663 203.06 591.973 202.82 591.973 202.64L607.993 140.81C607.993 140.33 612.103 140.09 620.323 140.09C628.543 140.09 632.653 140.33 632.653 140.81L648.133 202.73C648.133 203.15 646.753 203.48 643.993 203.72C641.233 203.96 639.043 204.08 637.423 204.08ZM614.023 177.62H623.473L619.423 158.99H618.883L614.023 177.62ZM613.933 137.39C613.393 137.39 612.703 136.79 611.863 135.59C610.783 133.91 610.243 132.5 610.243 131.36C610.243 130.22 610.423 129.47 610.783 129.11C620.563 123.71 625.543 121.01 625.723 121.01C626.323 121.01 627.073 121.73 627.973 123.17C629.353 125.27 630.043 127.25 630.043 129.11C630.043 129.77 629.893 130.25 629.593 130.55C619.273 135.11 614.053 137.39 613.933 137.39ZM698.378 156.29C698.378 162.53 695.678 167.27 690.278 170.51C693.218 171.59 695.678 173.45 697.658 176.09C699.638 178.73 700.628 182.48 700.628 187.34C700.628 192.14 698.828 195.95 695.228 198.77C691.688 201.59 686.588 203 679.928 203H658.688C657.668 203 656.828 202.67 656.168 202.01C655.508 201.29 655.178 200.36 655.178 199.22V141.62C655.178 140.96 655.268 140.54 655.448 140.36C655.688 140.12 656.138 140 656.798 140H677.318C691.358 140 698.378 145.43 698.378 156.29ZM672.458 154.58V166.37H672.908C678.668 166.37 681.548 164.45 681.548 160.61C681.548 158.51 680.978 156.98 679.838 156.02C678.758 155.06 676.928 154.58 674.348 154.58H672.458ZM672.458 176.99V188.69H674.078C676.658 188.69 678.548 188.21 679.748 187.25C680.948 186.29 681.548 184.76 681.548 182.66C681.548 180.56 680.978 179.09 679.838 178.25C678.758 177.41 676.928 176.99 674.348 176.99H672.458ZM713.565 187.52V155.48H707.175C706.155 155.48 705.435 154.19 705.015 151.61C704.835 150.35 704.745 149.06 704.745 147.74C704.745 146.42 704.835 145.13 705.015 143.87C705.435 141.29 706.155 140 707.175 140H737.415C738.435 140 739.125 141.29 739.485 143.87C739.725 145.13 739.845 146.42 739.845 147.74C739.845 149.06 739.725 150.35 739.485 151.61C739.125 154.19 738.435 155.48 737.415 155.48H731.385V187.52H737.685C738.705 187.52 739.425 188.81 739.845 191.39C740.085 192.65 740.205 193.94 740.205 195.26C740.205 196.58 740.085 197.87 739.845 199.13C739.425 201.71 738.705 203 737.685 203H707.355C706.335 203 705.645 201.71 705.285 199.13C705.045 197.87 704.925 196.58 704.925 195.26C704.925 193.94 705.045 192.65 705.285 191.39C705.645 188.81 706.335 187.52 707.355 187.52H713.565ZM773.299 201.56C773.299 202.76 770.329 203.36 764.389 203.36C758.449 203.36 755.479 202.76 755.479 201.56V156.38H744.679C743.659 156.38 742.939 155 742.519 152.24C742.339 150.92 742.249 149.57 742.249 148.19C742.249 146.81 742.339 145.46 742.519 144.14C742.939 141.38 743.659 140 744.679 140H783.829C784.849 140 785.569 141.38 785.989 144.14C786.169 145.46 786.259 146.81 786.259 148.19C786.259 149.57 786.169 150.92 785.989 152.24C785.569 155 784.849 156.38 783.829 156.38H773.299V201.56ZM818.115 203.9C809.715 203.9 802.845 201.14 797.505 195.62C792.225 190.1 789.585 182.06 789.585 171.5C789.585 160.88 792.255 152.84 797.595 147.38C802.995 141.92 809.925 139.19 818.385 139.19C826.905 139.19 833.775 141.89 838.995 147.29C844.215 152.63 846.825 160.76 846.825 171.68C846.825 182.54 844.155 190.64 838.815 195.98C833.475 201.26 826.575 203.9 818.115 203.9ZM818.205 156.47C815.325 156.47 812.895 157.79 810.915 160.43C808.995 163.07 808.035 166.79 808.035 171.59C808.035 176.33 808.965 179.99 810.825 182.57C812.685 185.09 815.115 186.35 818.115 186.35C821.175 186.35 823.635 185.06 825.495 182.48C827.415 179.9 828.375 176.21 828.375 171.41C828.375 166.61 827.385 162.92 825.405 160.34C823.485 157.76 821.085 156.47 818.205 156.47ZM856.391 181.04C857.531 181.94 859.481 183.17 862.241 184.73C865.061 186.29 867.731 187.07 870.251 187.07C872.831 187.07 874.121 186.08 874.121 184.1C874.121 183.2 873.761 182.42 873.041 181.76C872.321 181.04 871.001 180.23 869.081 179.33C867.161 178.43 865.721 177.74 864.761 177.26C863.801 176.72 862.511 175.88 860.891 174.74C859.331 173.54 858.131 172.31 857.291 171.05C854.891 167.63 853.691 163.28 853.691 158C853.691 152.72 855.641 148.28 859.541 144.68C863.501 141.02 868.661 139.19 875.021 139.19C879.341 139.19 883.331 139.67 886.991 140.63C890.651 141.53 892.541 142.73 892.661 144.23C892.661 144.41 892.661 144.59 892.661 144.77C892.661 146.87 892.001 149.54 890.681 152.78C889.361 155.96 888.431 157.73 887.891 158.09C884.051 156.11 880.601 155.12 877.541 155.12C874.541 155.12 873.041 156.2 873.041 158.36C873.041 159.68 874.151 160.85 876.371 161.87C876.851 162.11 877.541 162.44 878.441 162.86C879.341 163.28 880.361 163.79 881.501 164.39C882.701 164.93 883.961 165.65 885.281 166.55C886.661 167.39 888.131 168.53 889.691 169.97C892.871 172.97 894.461 176.93 894.461 181.85C894.461 188.27 892.691 193.52 889.151 197.6C885.611 201.68 880.151 203.78 872.771 203.9C869.171 203.9 865.901 203.6 862.961 203C860.081 202.4 857.561 201.23 855.401 199.49C853.241 197.75 852.161 195.65 852.161 193.19C852.161 190.73 852.611 188.3 853.511 185.9C854.411 183.44 855.371 181.82 856.391 181.04ZM53.82 275.02C53.82 276.28 51 276.91 45.36 276.91C39.72 276.91 36.66 276.46 36.18 275.56L21.15 247.48V275.47C21.15 276.55 18.36 277.09 12.78 277.09C7.26 277.09 4.5 276.55 4.5 275.47V215.26C4.5 214.36 6.87 213.91 11.61 213.91C13.47 213.91 15.63 214.09 18.09 214.45C20.61 214.75 22.14 215.35 22.68 216.25L37.08 243.97V215.71C37.08 214.57 39.87 214 45.45 214C51.03 214 53.82 214.57 53.82 215.71V275.02ZM92.2894 215.8C92.2894 214.6 95.5294 214 102.009 214C108.549 214 111.819 214.6 111.819 215.8V257.11C111.819 263.23 109.629 268.24 105.249 272.14C100.869 275.98 94.8094 277.9 87.0694 277.9C79.3894 277.9 73.1194 275.92 68.2594 271.96C63.4594 267.94 61.0594 262.54 61.0594 255.76V215.89C61.0594 214.69 64.2994 214.09 70.7794 214.09C77.3194 214.09 80.5894 214.69 80.5894 215.89V256.48C80.5894 257.68 81.2194 258.64 82.4794 259.36C83.7994 260.08 85.1794 260.44 86.6194 260.44C88.0594 260.44 89.3494 260.11 90.4894 259.45C91.6894 258.79 92.2894 257.8 92.2894 256.48V215.8ZM146.463 275.56C146.463 276.76 143.493 277.36 137.553 277.36C131.613 277.36 128.643 276.76 128.643 275.56V230.38H117.843C116.823 230.38 116.103 229 115.683 226.24C115.503 224.92 115.413 223.57 115.413 222.19C115.413 220.81 115.503 219.46 115.683 218.14C116.103 215.38 116.823 214 117.843 214H156.993C158.013 214 158.733 215.38 159.153 218.14C159.333 219.46 159.423 220.81 159.423 222.19C159.423 223.57 159.333 224.92 159.153 226.24C158.733 229 158.013 230.38 156.993 230.38H146.463V275.56ZM181.739 275.74C181.739 276.7 178.889 277.18 173.189 277.18C167.429 277.18 164.549 276.73 164.549 275.83V217.15C164.549 215.05 165.659 214 167.879 214H185.069C200.849 214 208.739 220.15 208.739 232.45C208.739 236.17 208.019 239.56 206.579 242.62C205.139 245.62 203.099 248.02 200.459 249.82L211.799 268.72C211.319 270.16 209.759 271.81 207.119 273.67C203.519 276.25 200.549 277.54 198.209 277.54C195.869 277.54 194.129 276.7 192.989 275.02L184.529 255.31H181.739V275.74ZM181.739 229.93V243.43H182.189C187.889 243.43 190.739 241.06 190.739 236.32C190.739 234.16 190.169 232.57 189.029 231.55C187.949 230.47 186.149 229.93 183.629 229.93H181.739ZM223.575 261.52V229.48H217.185C216.165 229.48 215.445 228.19 215.025 225.61C214.845 224.35 214.755 223.06 214.755 221.74C214.755 220.42 214.845 219.13 215.025 217.87C215.445 215.29 216.165 214 217.185 214H247.425C248.445 214 249.135 215.29 249.495 217.87C249.735 219.13 249.855 220.42 249.855 221.74C249.855 223.06 249.735 224.35 249.495 225.61C249.135 228.19 248.445 229.48 247.425 229.48H241.395V261.52H247.695C248.715 261.52 249.435 262.81 249.855 265.39C250.095 266.65 250.215 267.94 250.215 269.26C250.215 270.58 250.095 271.87 249.855 273.13C249.435 275.71 248.715 277 247.695 277H217.365C216.345 277 215.655 275.71 215.295 273.13C215.055 271.87 214.935 270.58 214.935 269.26C214.935 267.94 215.055 266.65 215.295 265.39C215.655 262.81 216.345 261.52 217.365 261.52H223.575ZM283.309 275.56C283.309 276.76 280.339 277.36 274.399 277.36C268.459 277.36 265.489 276.76 265.489 275.56V230.38H254.689C253.669 230.38 252.949 229 252.529 226.24C252.349 224.92 252.259 223.57 252.259 222.19C252.259 220.81 252.349 219.46 252.529 218.14C252.949 215.38 253.669 214 254.689 214H293.839C294.859 214 295.579 215.38 295.999 218.14C296.179 219.46 296.269 220.81 296.269 222.19C296.269 223.57 296.179 224.92 295.999 226.24C295.579 229 294.859 230.38 293.839 230.38H283.309V275.56ZM307.335 261.52V229.48H300.945C299.925 229.48 299.205 228.19 298.785 225.61C298.605 224.35 298.515 223.06 298.515 221.74C298.515 220.42 298.605 219.13 298.785 217.87C299.205 215.29 299.925 214 300.945 214H331.185C332.205 214 332.895 215.29 333.255 217.87C333.495 219.13 333.615 220.42 333.615 221.74C333.615 223.06 333.495 224.35 333.255 225.61C332.895 228.19 332.205 229.48 331.185 229.48H325.155V261.52H331.455C332.475 261.52 333.195 262.81 333.615 265.39C333.855 266.65 333.975 267.94 333.975 269.26C333.975 270.58 333.855 271.87 333.615 273.13C333.195 275.71 332.475 277 331.455 277H301.125C300.105 277 299.415 275.71 299.055 273.13C298.815 271.87 298.695 270.58 298.695 269.26C298.695 267.94 298.815 266.65 299.055 265.39C299.415 262.81 300.105 261.52 301.125 261.52H307.335ZM336.469 215.17C336.469 214.87 337.759 214.6 340.339 214.36C342.979 214.06 345.139 213.91 346.819 213.91C353.479 213.91 356.959 214.78 357.259 216.52L364.999 256.12L372.289 216.52C372.649 214.78 376.369 213.91 383.449 213.91C385.189 213.91 387.379 214.03 390.019 214.27C392.659 214.51 393.979 214.78 393.979 215.08L378.049 274.66C377.809 275.62 376.039 276.25 372.739 276.55C367.639 277.09 362.989 277.21 358.789 276.91C354.649 276.55 352.459 275.95 352.219 275.11L336.469 215.17ZM426.21 277.9C417.81 277.9 410.94 275.14 405.6 269.62C400.32 264.1 397.68 256.06 397.68 245.5C397.68 234.88 400.35 226.84 405.69 221.38C411.09 215.92 418.02 213.19 426.48 213.19C435 213.19 441.87 215.89 447.09 221.29C452.31 226.63 454.92 234.76 454.92 245.68C454.92 256.54 452.25 264.64 446.91 269.98C441.57 275.26 434.67 277.9 426.21 277.9ZM426.3 230.47C423.42 230.47 420.99 231.79 419.01 234.43C417.09 237.07 416.13 240.79 416.13 245.59C416.13 250.33 417.06 253.99 418.92 256.57C420.78 259.09 423.21 260.35 426.21 260.35C429.27 260.35 431.73 259.06 433.59 256.48C435.51 253.9 436.47 250.21 436.47 245.41C436.47 240.61 435.48 236.92 433.5 234.34C431.58 231.76 429.18 230.47 426.3 230.47ZM464.486 255.04C465.626 255.94 467.576 257.17 470.336 258.73C473.156 260.29 475.826 261.07 478.346 261.07C480.926 261.07 482.216 260.08 482.216 258.1C482.216 257.2 481.856 256.42 481.136 255.76C480.416 255.04 479.096 254.23 477.176 253.33C475.256 252.43 473.816 251.74 472.856 251.26C471.896 250.72 470.606 249.88 468.986 248.74C467.426 247.54 466.226 246.31 465.386 245.05C462.986 241.63 461.786 237.28 461.786 232C461.786 226.72 463.736 222.28 467.636 218.68C471.596 215.02 476.756 213.19 483.116 213.19C487.436 213.19 491.426 213.67 495.086 214.63C498.746 215.53 500.636 216.73 500.756 218.23C500.756 218.41 500.756 218.59 500.756 218.77C500.756 220.87 500.096 223.54 498.776 226.78C497.456 229.96 496.526 231.73 495.986 232.09C492.146 230.11 488.696 229.12 485.636 229.12C482.636 229.12 481.136 230.2 481.136 232.36C481.136 233.68 482.246 234.85 484.466 235.87C484.946 236.11 485.636 236.44 486.536 236.86C487.436 237.28 488.456 237.79 489.596 238.39C490.796 238.93 492.056 239.65 493.376 240.55C494.756 241.39 496.226 242.53 497.786 243.97C500.966 246.97 502.556 250.93 502.556 255.85C502.556 262.27 500.786 267.52 497.246 271.6C493.706 275.68 488.246 277.78 480.866 277.9C477.266 277.9 473.996 277.6 471.056 277C468.176 276.4 465.656 275.23 463.496 273.49C461.336 271.75 460.256 269.65 460.256 267.19C460.256 264.73 460.706 262.3 461.606 259.9C462.506 257.44 463.466 255.82 464.486 255.04Z" fill="#889E00"/>
<path d="M83.88 103.288C75.528 103.288 71.016 101.944 70.344 99.256L65.592 80.68H42.696L38.52 98.536C37.944 101.512 33.336 103 24.696 103C20.088 103 16.68 102.76 14.472 102.28C12.264 101.704 11.16 101.272 11.16 100.984L36.648 3.49599C36.648 2.72799 43.224 2.34399 56.376 2.34399C69.528 2.34399 76.104 2.72799 76.104 3.49599L101.016 101.128C101.016 101.8 98.808 102.328 94.392 102.712C89.976 103.096 86.472 103.288 83.88 103.288ZM46.296 62.392H61.416L54.936 32.584H54.072L46.296 62.392ZM136.047 101.848C136.047 102.712 131.151 103.144 121.359 103.144C113.679 103.048 109.839 102.664 109.839 101.992V3.928C109.839 2.488 114.495 1.768 123.807 1.768C131.967 2.05599 136.047 2.53599 136.047 3.208V101.848ZM175.426 102.136C175.426 102.904 171.01 103.288 162.178 103.288C153.442 103.288 149.074 102.952 149.074 102.28V31.576C149.074 30.904 153.442 30.568 162.178 30.568C171.01 30.568 175.426 30.856 175.426 31.432V102.136ZM175.426 22.936C175.426 23.608 171.01 23.944 162.178 23.944C153.442 23.944 149.074 23.656 149.074 23.08V2.34399C149.074 1.38399 153.442 0.903993 162.178 0.903993C171.01 0.903993 175.426 1.19199 175.426 1.768V22.936ZM253.681 102.28C253.681 102.952 249.553 103.288 241.297 103.288C233.137 103.288 229.057 102.856 229.057 101.992V60.088C229.057 55.288 227.473 52.888 224.305 52.888C222.673 52.888 220.513 53.944 217.825 56.056V102.136C217.825 103.096 213.697 103.576 205.441 103.576C197.281 103.576 193.201 103.048 193.201 101.992V54.904H189.601C186.433 54.904 184.849 51.592 184.849 44.968C184.849 41.992 185.425 38.968 186.577 35.896C188.113 31.672 190.609 29.56 194.065 29.56C197.521 29.56 200.833 30.472 204.001 32.296C207.265 34.12 209.233 35.848 209.905 37.48C215.857 32.2 222.433 29.56 229.633 29.56C236.929 29.56 242.785 31.816 247.201 36.328C252.385 31.816 258.625 29.56 265.921 29.56C281.761 29.56 289.681 39.208 289.681 58.504V102.28C289.681 102.952 285.553 103.288 277.297 103.288C269.137 103.288 265.057 102.856 265.057 101.992V60.088C265.057 55.288 263.473 52.888 260.305 52.888C258.577 52.888 256.369 53.944 253.681 56.056V102.28ZM308.125 94.504C302.173 87.88 299.197 78.712 299.197 67C299.197 55.288 302.173 46.12 308.125 39.496C314.173 32.872 322.285 29.56 332.461 29.56C342.637 29.56 350.701 32.872 356.653 39.496C362.605 46.12 365.581 55.288 365.581 67C365.581 78.712 362.605 87.88 356.653 94.504C350.701 101.128 342.637 104.44 332.461 104.44C322.285 104.44 314.173 101.128 308.125 94.504ZM332.461 53.608C327.085 53.608 324.397 58.024 324.397 66.856C324.397 75.688 327.085 80.104 332.461 80.104C337.933 80.104 340.669 75.688 340.669 66.856C340.669 58.024 337.933 53.608 332.461 53.608ZM321.229 26.824C320.365 26.824 319.261 25.864 317.917 23.944C316.189 21.256 315.325 19 315.325 17.176C315.325 15.352 315.613 14.152 316.189 13.576C331.837 4.936 339.805 0.615996 340.093 0.615996C341.053 0.615996 342.253 1.768 343.693 4.07199C345.901 7.432 347.005 10.6 347.005 13.576C347.005 14.632 346.765 15.4 346.285 15.88C329.773 23.176 321.421 26.824 321.229 26.824ZM405.857 102.136C405.857 102.808 402.401 103.144 395.489 103.144C385.889 102.856 381.089 102.328 381.089 101.56V54.904H377.345C374.849 54.904 373.217 52.792 372.449 48.568C372.257 47.32 372.161 46.072 372.161 44.824C372.161 41.848 372.737 38.872 373.889 35.896C375.617 31.672 378.305 29.56 381.953 29.56C385.601 29.56 388.865 30.424 391.745 32.152C394.625 33.88 396.545 35.608 397.505 37.336C403.553 32.152 410.753 29.56 419.105 29.56C427.457 29.56 433.505 31.816 437.249 36.328C440.993 40.84 442.865 48.232 442.865 58.504V101.704C442.865 102.856 438.737 103.432 430.481 103.432C422.321 103.432 418.241 102.856 418.241 101.704V60.088C418.241 55.288 416.561 52.888 413.201 52.888C412.241 52.888 410.897 53.32 409.169 54.184C407.441 54.952 406.337 55.528 405.857 55.912V102.136Z" fill="white"/>
</svg>
