<?xml version="1.0" encoding="utf-8"?>
<!-- Generator: Adobe Illustrator 28.2.0, SVG Export Plug-In . SVG Version: 6.00 Build 0)  -->
<svg version="1.1" id="Capa_1" xmlns="http://www.w3.org/2000/svg" xmlns:xlink="http://www.w3.org/1999/xlink" x="0px" y="0px"
	 viewBox="0 0 1653.4 1144" style="enable-background:new 0 0 1653.4 1144;" xml:space="preserve">
<style type="text/css">
	.st0{display:none;}
	.st1{fill:#FCEEAC;}
	.st2{fill:#9AB743;}
	.st3{fill:#FDFFFE;}
	.st4{fill:none;stroke:#FEBB08;stroke-width:2;stroke-miterlimit:10;}
	.st5{fill:#FEBB08;stroke:#FEBB08;stroke-width:0.75;stroke-miterlimit:10;}
	.st6{fill:#FEBB08;}
	.st7{fill:#FFFFFF;stroke:#FFFFFF;stroke-width:0.5;stroke-miterlimit:10;}
	.st8{fill:#FFB400;}
	.st9{fill:#FFD300;stroke:#FFFFFF;stroke-width:2;stroke-miterlimit:10;}
	.st10{fill:#FFFFFF;}
	.st11{fill:none;stroke:#FFFFFF;stroke-width:2;stroke-miterlimit:10;}
	.st12{fill:#FFFFFF;stroke:#FFFFFF;stroke-width:2;stroke-miterlimit:10;}
	.st13{fill:#FFD300;}
	.st14{fill:#FEF7C9;}
</style>
<g id="Capa_1_00000155132278365680086160000013733545795796429214_">
	<g class="st0">
		
			<image style="display:inline;overflow:visible;enable-background:new    ;" width="569" height="637" xlink:href="A16D7365.jpeg"  transform="matrix(1.8014 0 0 1.1336 -1246 247.4795)">
		</image>
	</g>
	<rect x="2" y="-2" class="st1" width="1651.4" height="1144"/>
	<g>
		<g>
			<path class="st2" d="M473.5,603.8c0.9,0.9,3.5,8.8,11.8,11.8c6.1,2.2,11.5,0.6,13.1,0c0,0-2.6-3.9-3.9-9.2
				c-1.3-5.2-3.9-9.2-11.8-15.7s-15.7-1.3-14.4,1.3S472.2,602.5,473.5,603.8z"/>
			<g>
				<path class="st3" d="M469,617.8l-3.5-0.4c-3.1-0.3-5.4-3.1-5-6.3l7.8-69.8c0.3-3.1,3.1-5.4,6.3-5l3.5,0.4c3.1,0.3,5.4,3.1,5,6.3
					l-7.8,69.8C474.9,615.9,472.1,618.2,469,617.8z"/>
				<path class="st3" d="M506,600.3l-2,2.9c-1.7,2.6-5.3,3.3-7.9,1.5l-58.3-39.2c-2.6-1.7-3.3-5.3-1.5-7.9l2-2.9
					c1.7-2.6,5.3-3.3,7.9-1.5l58.3,39.2C507.1,594.1,507.7,597.7,506,600.3z"/>
				<path class="st3" d="M507.1,560.9l1.3,3.3c1.2,2.9-0.3,6.2-3.2,7.4l-65.3,26c-2.9,1.2-6.2-0.3-7.4-3.2l-1.3-3.3
					c-1.2-2.9,0.3-6.2,3.2-7.4l65.3-26C502.6,556.6,505.9,558,507.1,560.9z"/>
			</g>
			<g>
				<path class="st4" d="M471.9,580.4c0,0,1.3-3.9,5.2-5.2"/>
				<circle class="st5" cx="478.5" cy="573.9" r="2.6"/>
				<g>
					<path class="st4" d="M471.2,579.8c0,0-1.3-3.9-5.2-5.2"/>
					<circle class="st5" cx="464.7" cy="573.2" r="2.6"/>
				</g>
				<g>
					<g>
						<path class="st6" d="M471.5,582.3c1.9,0,1.9-3,0-3S469.6,582.3,471.5,582.3L471.5,582.3z"/>
					</g>
				</g>
				<line class="st4" x1="471.2" y1="578.5" x2="472.5" y2="569.3"/>
				<circle class="st5" cx="472.5" cy="568" r="2.6"/>
			</g>
		</g>
		<g>
			<path class="st2" d="M600.8,853.9c1,0.7,5,8,13.8,9.5c6.4,1,11.4-1.5,12.9-2.4c0,0-3.3-3.4-5.5-8.3c-2.2-4.9-5.5-8.3-14.5-13.3
				c-8.9-5-15.7,1.6-13.9,3.9C595.2,845.6,599.2,852.9,600.8,853.9z"/>
			<g>
				<path class="st3" d="M598.9,868.5l-3.5,0.3c-3.1,0.2-5.8-2.1-6.1-5.2l-5.1-70.1c-0.2-3.1,2.1-5.8,5.2-6.1l3.5-0.3
					c3.1-0.2,5.8,2.1,6.1,5.2l5.1,70.1C604.3,865.6,602,868.3,598.9,868.5z"/>
				<path class="st3" d="M632,844.5l-1.4,3.2c-1.2,2.9-4.6,4.2-7.5,2.9l-64.5-27.9c-2.9-1.2-4.2-4.6-2.9-7.5l1.4-3.2
					c1.2-2.9,4.6-4.2,7.5-2.9l64.5,27.9C632,838.3,633.3,841.6,632,844.5z"/>
				<path class="st3" d="M625.9,805.6l1.9,3c1.7,2.6,0.9,6.1-1.8,7.8l-59.4,37.5c-2.6,1.7-6.1,0.9-7.8-1.8l-1.9-3
					c-1.7-2.6-0.9-6.1,1.8-7.8l59.4-37.5C620.8,802.1,624.3,802.9,625.9,805.6z"/>
			</g>
			<g>
				<path class="st4" d="M594.9,831.2c0,0,0.6-4.1,4.2-6.1"/>
				<circle class="st5" cx="600.2" cy="823.6" r="2.6"/>
				<g>
					<path class="st4" d="M594.1,830.7c0,0-2-3.6-6.1-4.2"/>
					<circle class="st5" cx="586.5" cy="825.5" r="2.6"/>
				</g>
				<g>
					<g>
						<path class="st6" d="M594.6,833.1c1.9,0,1.9-3,0-3C592.7,830.1,592.7,833.1,594.6,833.1L594.6,833.1z"/>
					</g>
				</g>
				<line class="st4" x1="593.9" y1="829.4" x2="593.5" y2="820.2"/>
				<circle class="st5" cx="593.3" cy="818.9" r="2.6"/>
			</g>
		</g>
		<g>
			<path class="st2" d="M120.1,831.3c1,0.7,5,8,13.8,9.5c6.4,1,11.4-1.5,12.9-2.4c0,0-3.3-3.4-5.5-8.3c-2.2-4.9-5.5-8.3-14.5-13.3
				s-15.7,1.6-13.9,3.9S118.6,830.2,120.1,831.3z"/>
			<g>
				<path class="st3" d="M118.2,845.9l-3.5,0.3c-3.1,0.2-5.8-2.1-6.1-5.2l-5.1-70.1c-0.2-3.1,2.1-5.8,5.2-6.1l3.5-0.3
					c3.1-0.2,5.8,2.1,6.1,5.2l5.1,70.1C123.7,842.9,121.4,845.6,118.2,845.9z"/>
				<path class="st3" d="M151.4,821.8L150,825c-1.2,2.9-4.6,4.2-7.5,2.9L78,800c-2.9-1.2-4.2-4.6-2.9-7.5l1.4-3.2
					c1.2-2.9,4.6-4.2,7.5-2.9l64.5,27.9C151.3,815.6,152.7,819,151.4,821.8z"/>
				<path class="st3" d="M145.3,782.9l1.9,3c1.7,2.6,0.9,6.1-1.8,7.8L86,831.2c-2.6,1.7-6.1,0.9-7.8-1.8l-1.9-3
					c-1.7-2.6-0.9-6.1,1.8-7.8l59.4-37.5C140.1,779.5,143.6,780.3,145.3,782.9z"/>
			</g>
			<g>
				<path class="st4" d="M114.3,808.6c0,0,0.6-4.1,4.2-6.1"/>
				<circle class="st5" cx="119.5" cy="800.9" r="2.6"/>
				<g>
					<path class="st4" d="M113.5,808.1c0,0-2-3.6-6.1-4.2"/>
					<circle class="st5" cx="105.9" cy="802.8" r="2.6"/>
				</g>
				<g>
					<g>
						<path class="st6" d="M114,810.5c1.9,0,1.9-3,0-3C112,807.5,112,810.5,114,810.5L114,810.5z"/>
					</g>
				</g>
				<line class="st4" x1="113.3" y1="806.8" x2="112.9" y2="797.5"/>
				<circle class="st5" cx="112.6" cy="796.2" r="2.6"/>
			</g>
		</g>
		<g>
			<path class="st2" d="M441.1,1051.1c1,0.7,5,8,13.8,9.5c6.4,1,11.4-1.5,12.9-2.4c0,0-3.3-3.4-5.5-8.3s-5.5-8.3-14.5-13.3
				c-8.9-5-15.7,1.6-13.9,3.9S439.6,1050.1,441.1,1051.1z"/>
			<g>
				<path class="st3" d="M439.2,1065.7l-3.5,0.3c-3.1,0.2-5.8-2.1-6.1-5.2l-5.1-70.1c-0.2-3.1,2.1-5.8,5.2-6.1l3.5-0.3
					c3.1-0.2,5.8,2.1,6.1,5.2l5.1,70.1C444.7,1062.8,442.4,1065.5,439.2,1065.7z"/>
				<path class="st3" d="M472.4,1041.7l-1.4,3.2c-1.2,2.9-4.6,4.2-7.5,2.9l-64.5-27.9c-2.9-1.2-4.2-4.6-2.9-7.5l1.4-3.2
					c1.2-2.9,4.6-4.2,7.5-2.9l64.5,27.9C472.3,1035.5,473.7,1038.8,472.4,1041.7z"/>
				<path class="st3" d="M466.3,1002.8l1.9,3c1.7,2.6,0.9,6.1-1.8,7.8l-59.4,37.5c-2.6,1.7-6.1,0.9-7.8-1.8l-1.9-3
					c-1.7-2.6-0.9-6.1,1.8-7.8l59.4-37.5C461.1,999.3,464.6,1000.1,466.3,1002.8z"/>
			</g>
			<g>
				<path class="st4" d="M435.3,1028.4c0,0,0.6-4.1,4.2-6.1"/>
				<circle class="st5" cx="440.5" cy="1020.8" r="2.6"/>
				<g>
					<path class="st4" d="M434.5,1027.9c0,0-2-3.6-6.1-4.2"/>
					<path class="st5" d="M426.9,1020.1c1.4,0,2.6,1.2,2.6,2.6c0,1.4-1.2,2.6-2.6,2.6s-2.6-1.2-2.6-2.6
						C424.3,1021.3,425.5,1020.1,426.9,1020.1z"/>
				</g>
				<g>
					<g>
						<path class="st6" d="M435,1030.3c1.9,0,1.9-3,0-3C433,1027.3,433,1030.3,435,1030.3L435,1030.3z"/>
					</g>
				</g>
				<line class="st4" x1="434.3" y1="1026.6" x2="433.9" y2="1017.4"/>
				<circle class="st5" cx="433.6" cy="1016.1" r="2.6"/>
			</g>
		</g>
		<g>
			<path class="st2" d="M925.1,997.1c1,0.7,5,8,13.8,9.5c6.4,1,11.4-1.5,12.9-2.4c0,0-3.3-3.4-5.5-8.3s-5.5-8.3-14.5-13.3
				c-8.9-5-15.7,1.6-13.9,3.9C919.6,988.8,923.6,996.1,925.1,997.1z"/>
			<g>
				<path class="st3" d="M923.2,1011.7l-3.5,0.3c-3.1,0.2-5.8-2.1-6.1-5.2l-5.1-70.1c-0.2-3.1,2.1-5.8,5.2-6.1l3.5-0.3
					c3.1-0.2,5.8,2.1,6.1,5.2l5.1,70.1C928.7,1008.8,926.4,1011.5,923.2,1011.7z"/>
				<path class="st3" d="M956.4,987.7l-1.4,3.2c-1.2,2.9-4.6,4.2-7.5,2.9L883.1,966c-2.9-1.2-4.2-4.6-2.9-7.5l1.4-3.2
					c1.2-2.9,4.6-4.2,7.5-2.9l64.5,27.9C956.3,981.5,957.7,984.8,956.4,987.7z"/>
				<path class="st3" d="M950.3,948.8l1.9,3c1.7,2.6,0.9,6.1-1.8,7.8L891,997.1c-2.6,1.7-6.1,0.9-7.8-1.8l-1.9-3
					c-1.7-2.6-0.9-6.1,1.8-7.8l59.4-37.5C945.1,945.3,948.6,946.1,950.3,948.8z"/>
			</g>
			<g>
				<path class="st4" d="M919.3,974.4c0,0,0.6-4.1,4.2-6.1"/>
				<circle class="st5" cx="924.5" cy="966.8" r="2.6"/>
				<g>
					<path class="st4" d="M918.5,973.9c0,0-2-3.6-6.1-4.2"/>
					<circle class="st5" cx="910.9" cy="968.7" r="2.6"/>
				</g>
				<g>
					<g>
						<path class="st6" d="M919,976.3c1.9,0,1.9-3,0-3C917,973.3,917,976.3,919,976.3L919,976.3z"/>
					</g>
				</g>
				<line class="st4" x1="918.3" y1="972.6" x2="917.9" y2="963.4"/>
				<circle class="st5" cx="917.6" cy="962.1" r="2.6"/>
			</g>
		</g>
		<g>
			<path class="st2" d="M304.2,487c0.9,0.9,3.5,8.8,11.8,11.8c6.1,2.2,11.5,0.6,13.1,0c0,0-2.6-3.9-3.9-9.2s-3.9-9.2-11.8-15.7
				c-7.9-6.6-15.7-1.3-14.4,1.3C300.3,477.8,302.9,485.7,304.2,487z"/>
			<g>
				<path class="st3" d="M299.7,501l-3.5-0.4c-3.1-0.3-5.4-3.1-5-6.3l7.8-69.8c0.3-3.1,3.1-5.4,6.3-5l3.5,0.4c3.1,0.3,5.4,3.1,5,6.3
					L306,496C305.6,499.1,302.8,501.4,299.7,501z"/>
				<path class="st3" d="M336.7,483.5l-2,2.9c-1.7,2.6-5.3,3.3-7.9,1.5l-58.3-39.2c-2.6-1.7-3.3-5.3-1.5-7.9l2-2.9
					c1.7-2.6,5.3-3.3,7.9-1.5l58.3,39.2C337.8,477.3,338.5,480.9,336.7,483.5z"/>
				<path class="st3" d="M337.8,444.1l1.3,3.3c1.2,2.9-0.3,6.2-3.2,7.4l-65.3,26c-2.9,1.2-6.2-0.3-7.4-3.2l-1.3-3.3
					c-1.2-2.9,0.3-6.2,3.2-7.4l65.3-26C333.4,439.8,336.7,441.2,337.8,444.1z"/>
			</g>
			<g>
				<path class="st4" d="M302.6,463.6c0,0,1.3-3.9,5.2-5.2"/>
				<circle class="st5" cx="309.2" cy="457.1" r="2.6"/>
				<g>
					<path class="st4" d="M302,463c0,0-1.3-3.9-5.2-5.2"/>
					<circle class="st5" cx="295.4" cy="456.4" r="2.6"/>
				</g>
				<g>
					<g>
						<path class="st6" d="M302.2,465.5c1.9,0,1.9-3,0-3C300.3,462.5,300.3,465.5,302.2,465.5L302.2,465.5z"/>
					</g>
				</g>
				<line class="st4" x1="302" y1="461.7" x2="303.3" y2="452.5"/>
				<circle class="st5" cx="303.3" cy="451.2" r="2.6"/>
			</g>
		</g>
		<g>
			<path class="st2" d="M149.8,337.8c1.2,0,8.7,3.8,16.7,0c5.9-2.8,8.5-7.7,9.3-9.3c0,0-4.6-0.9-9.3-3.7c-4.6-2.8-9.3-3.7-19.5-2.8
				c-10.2,0.9-12.1,10.2-9.3,11.1C140.5,334.1,147.9,337.8,149.8,337.8z"/>
			<g>
				<path class="st3" d="M156.5,350.9l-2.8,2.2c-2.4,2-6,1.6-8-0.9l-43.9-54.9c-2-2.4-1.6-6,0.9-8l2.8-2.2c2.4-2,6-1.6,8,0.9
					l43.9,54.9C159.3,345.4,158.9,348.9,156.5,350.9z"/>
				<path class="st3" d="M170.2,312.3l0.7,3.5c0.6,3.1-1.4,6-4.5,6.7L97.5,336c-3.1,0.6-6-1.4-6.7-4.5l-0.7-3.5
					c-0.6-3.1,1.4-6,4.5-6.7l68.9-13.5C166.6,307.2,169.6,309.2,170.2,312.3z"/>
				<path class="st3" d="M143.1,283.7l3.2,1.4c2.9,1.2,4.2,4.6,3,7.4L121.6,357c-1.2,2.9-4.6,4.2-7.4,3l-3.2-1.4
					c-2.9-1.2-4.2-4.6-3-7.4l27.7-64.5C136.9,283.8,140.3,282.4,143.1,283.7z"/>
			</g>
			<g>
				<path class="st4" d="M132.1,322.4c0,0-1.9-3.7,0-7.4"/>
				<circle class="st5" cx="132.1" cy="313.1" r="2.6"/>
				<g>
					<path class="st4" d="M131.2,322.4c0,0-3.7-1.9-7.4,0"/>
					<circle class="st5" cx="121.9" cy="322.4" r="2.6"/>
				</g>
				<g>
					<g>
						<path class="st6" d="M132,324.4c1.9,0,1.9-3,0-3S130.1,324.4,132,324.4L132,324.4z"/>
					</g>
				</g>
				<line class="st4" x1="130.2" y1="321.5" x2="124.7" y2="314"/>
				<circle class="st5" cx="123.7" cy="313.1" r="2.6"/>
			</g>
		</g>
		<g>
			<path class="st2" d="M361.9,155.2c0.9,0.9,3.5,8.8,11.8,11.8c6.1,2.2,11.5,0.6,13.1,0c0,0-2.6-3.9-3.9-9.2
				c-1.3-5.2-3.9-9.2-11.8-15.7c-7.9-6.6-15.7-1.3-14.4,1.3C358,146,360.6,153.9,361.9,155.2z"/>
			<g>
				<path class="st3" d="M357.4,169.2l-3.5-0.4c-3.1-0.3-5.4-3.1-5-6.3l7.8-69.8c0.3-3.1,3.1-5.4,6.3-5l3.5,0.4
					c3.1,0.3,5.4,3.1,5,6.3l-7.8,69.8C363.3,167.3,360.5,169.5,357.4,169.2z"/>
				<path class="st3" d="M394.4,151.6l-2,2.9c-1.7,2.6-5.3,3.3-7.9,1.5l-58.3-39.2c-2.6-1.7-3.3-5.3-1.5-7.9l2-2.9
					c1.7-2.6,5.3-3.3,7.9-1.5l58.3,39.2C395.5,145.5,396.2,149,394.4,151.6z"/>
				<path class="st3" d="M395.5,112.2l1.3,3.3c1.2,2.9-0.3,6.2-3.2,7.4l-65.3,26c-2.9,1.2-6.2-0.3-7.4-3.2l-1.3-3.3
					c-1.2-2.9,0.3-6.2,3.2-7.4l65.3-26C391.1,107.9,394.4,109.3,395.5,112.2z"/>
			</g>
			<g>
				<path class="st4" d="M360.3,131.8c0,0,1.3-3.9,5.2-5.2"/>
				<circle class="st5" cx="366.9" cy="125.2" r="2.6"/>
				<g>
					<path class="st4" d="M359.7,131.2c0,0-1.3-3.9-5.2-5.2"/>
					<circle class="st5" cx="353.1" cy="124.6" r="2.6"/>
				</g>
				<g>
					<g>
						<path class="st6" d="M359.9,133.6c1.9,0,1.9-3,0-3S358,133.6,359.9,133.6L359.9,133.6z"/>
					</g>
				</g>
				<line class="st4" x1="359.7" y1="129.8" x2="361" y2="120.7"/>
				<circle class="st5" cx="361" cy="119.3" r="2.6"/>
			</g>
		</g>
		<g>
			<path class="st2" d="M894.9,367.2c0.9,0.9,3.5,8.8,11.8,11.8c6.1,2.2,11.5,0.6,13.1,0c0,0-2.6-3.9-3.9-9.2
				c-1.3-5.2-3.9-9.2-11.8-15.7c-7.9-6.6-15.7-1.3-14.4,1.3C891,358,893.6,365.9,894.9,367.2z"/>
			<g>
				<path class="st3" d="M890.4,381.2l-3.5-0.4c-3.1-0.3-5.4-3.1-5-6.3l7.8-69.8c0.3-3.1,3.1-5.4,6.3-5l3.5,0.4
					c3.1,0.3,5.4,3.1,5,6.3l-7.8,69.8C896.3,379.3,893.5,381.5,890.4,381.2z"/>
				<path class="st3" d="M927.4,363.6l-2,2.9c-1.7,2.6-5.3,3.3-7.9,1.5l-58.3-39.2c-2.6-1.7-3.3-5.3-1.5-7.9l2-2.9
					c1.7-2.6,5.3-3.3,7.9-1.5l58.3,39.2C928.5,357.5,929.2,361,927.4,363.6z"/>
				<path class="st3" d="M928.5,324.2l1.3,3.3c1.2,2.9-0.3,6.2-3.2,7.4l-65.3,26c-2.9,1.2-6.2-0.3-7.4-3.2l-1.3-3.3
					c-1.2-2.9,0.3-6.2,3.2-7.4l65.3-26C924.1,319.9,927.4,321.3,928.5,324.2z"/>
			</g>
			<g>
				<path class="st4" d="M893.3,343.8c0,0,1.3-3.9,5.2-5.2"/>
				<circle class="st5" cx="899.9" cy="337.2" r="2.6"/>
				<g>
					<path class="st4" d="M892.7,343.2c0,0-1.3-3.9-5.2-5.2"/>
					<circle class="st5" cx="886.1" cy="336.6" r="2.6"/>
				</g>
				<g>
					<g>
						<path class="st6" d="M892.9,345.6c1.9,0,1.9-3,0-3S891,345.6,892.9,345.6L892.9,345.6z"/>
					</g>
				</g>
				<line class="st4" x1="892.7" y1="341.8" x2="894" y2="332.7"/>
				<circle class="st5" cx="894" cy="331.3" r="2.6"/>
			</g>
		</g>
	</g>
</g>
<g id="Capa_2_00000082330642471065201890000000074453725943863452_">
	<path class="st7" d="M219.9,597.8c0,0,3.5,4.1,5.8,4.1s8.2-3.6,8.2-3.6"/>
	<g>
		<path class="st8" d="M76.9,601c-2.3-7.2-1.5-13.8-1.2-16.2c1.2-8.9,5-14.9,9.2-21.2c7.7-11.6,16.4-18.3,21.2-21.9
			c8.8-6.7,17-10.6,22.6-12.9c7.1-2.9,13-5.3,21.2-5.8c5.9-0.4,16.7-1,26.1,5.8c8.8,6.3,11.6,15.6,14,23.9c3.6,12,2.5,22,2,25.8
			c-0.4,2.4-1.9,11.9-8,22.4c-8,13.6-18.6,20.4-21.2,21.9c-3.5,2.1-12.6,7.2-25.5,8.6c-3.3,0.4-9.9,0.8-17.9-0.7
			C115.3,630,84.2,623.8,76.9,601z"/>
		<path class="st9" d="M81.8,602.8c-0.5-0.7-0.7-1.1-1.1-2.1c-2.3-5.6-9.8-34,34.5-61.7c45-28.1,63-5.4,65.4-0.6
			c0.3,0.5,0.6,1,0.7,1.6c1.5,5.4,7.7,35.2-36.1,61.2C102.5,626.4,85.3,607.6,81.8,602.8z"/>
		
			<ellipse transform="matrix(0.7336 -0.6796 0.6796 0.7336 -352.4636 240.4679)" class="st10" cx="130.5" cy="569.8" rx="9.7" ry="6.8"/>
		<line class="st11" x1="99.8" y1="551" x2="163" y2="588.1"/>
		<line class="st11" x1="135.3" y1="606.8" x2="125" y2="533.4"/>
		<path class="st12" d="M80.8,577.8c33.3-5.1,66.6-10.2,99.9-15.3"/>
		<line class="st11" x1="157" y1="525.7" x2="105.1" y2="614"/>
		<line class="st11" x1="82.2" y1="604.2" x2="179.3" y2="536.1"/>
	</g>
	<g>
		<path class="st8" d="M838.9,164c-2.4-3.5-13.6-20.6-9.4-42.8c3.6-19.5,16.6-30.5,21.3-34.3c4.4-3.7,18.3-14.7,38.3-14.4
			c27.8,0.5,44.3,22.7,46.3,25.4L838.9,164z"/>
		<path class="st13" d="M841.9,162.5c-2.3-3.3-12.8-19.3-8.9-40.3c3.5-18.3,15.8-28.7,20.2-32.3c4.2-3.4,17.4-13.9,36.4-13.6
			c26.4,0.4,42,21.3,43.8,23.8L841.9,162.5z"/>
		<path class="st10" d="M881.5,134.3c-0.1-0.2-1.4-3.3,0.4-6c0.3-0.4,1.7-2.6,4.5-2.7c2.9-0.1,4.6,2.2,4.8,2.3L881.5,134.3z"/>
		<line class="st11" x1="904.8" y1="78.4" x2="887.9" y2="128.7"/>
		<line class="st11" x1="872.8" y1="79.5" x2="886.5" y2="129.8"/>
		<line class="st11" x1="844.8" y1="98.3" x2="884.9" y2="130.2"/>
		<line class="st11" x1="832.5" y1="130.2" x2="883.6" y2="132.7"/>
		<polyline class="st14" points="935.4,97.9 906.1,118.7 877.4,138.6 845.7,160 838.3,165 		"/>
	</g>
	<g>
		<ellipse class="st8" cx="363.8" cy="797.8" rx="53.2" ry="53.4"/>
		<circle class="st9" cx="363.5" cy="797.1" r="50.3"/>
		<circle class="st10" cx="363.9" cy="797.5" r="5.3"/>
		<line class="st11" x1="366.7" y1="747.6" x2="360.2" y2="846.5"/>
		<line class="st11" x1="325.4" y1="829.5" x2="401.6" y2="765.4"/>
		<line class="st11" x1="331" y1="758.9" x2="395.1" y2="834.4"/>
		<line class="st11" x1="313.2" y1="793.8" x2="413.8" y2="801.1"/>
		<g>
			
				<image style="overflow:visible;enable-background:new    ;" width="81" height="87" xlink:href="A16D7367.png"  transform="matrix(1 0 0 1 359 780)">
			</image>
		</g>
		<g>
			
				<image style="overflow:visible;enable-background:new    ;" width="81" height="86" xlink:href="A16D7365.png"  transform="matrix(1 0 0 1 282 737)">
			</image>
		</g>
		<path class="st7" d="M398.7,761.8c0,0-0.2,3.7,1,4.9s5.8,2.1,5.8,2.1"/>
		<path class="st7" d="M413.8,797.7c0,0-3.1,2.1-3.3,3.7c-0.2,1.6,1.8,5.9,1.8,5.9"/>
		<path class="st7" d="M399.2,833.4c0,0-3.7-0.6-4.9,0.4c-1.2,1-2.8,5.5-2.8,5.5"/>
		<path class="st7" d="M364.3,847.8c0,0-2.1-3.1-3.7-3.3s-5.9,1.7-5.9,1.7"/>
		<path class="st7" d="M328.2,833.4c0,0,0.5-3.7-0.6-4.9s-5.6-2.6-5.6-2.6"/>
		<path class="st7" d="M327.8,762c0,0,3.7,0.6,4.9-0.4c1.2-1,2.8-5.5,2.8-5.5"/>
		<g>
			
				<image style="overflow:visible;enable-background:new    ;" width="77" height="82" xlink:href="A16D7363.png"  transform="matrix(1 0 0 1 332 714)">
			</image>
		</g>
		<g>
			
				<image style="overflow:visible;enable-background:new    ;" width="75" height="80" xlink:href="A16D736D.png"  transform="matrix(1 0 0 1 321 775)">
			</image>
		</g>
	</g>
	<g>
		<path class="st8" d="M752.1,500c3,6.9,2.9,13.5,2.9,16c-0.2,9-3.4,15.4-6.9,22c-6.4,12.3-14.4,19.9-18.8,24
			c-8,7.5-15.8,12.3-21.1,15.2c-6.8,3.6-12.3,6.6-20.4,8c-5.8,1-16.5,2.7-26.6-3c-9.4-5.4-13.2-14.3-16.5-22.3
			c-4.9-11.6-4.9-21.6-4.7-25.4c0.1-2.5,0.6-12,5.6-23.1c6.5-14.3,16.4-22.2,18.8-24c3.2-2.5,11.7-8.5,24.4-11.2
			c3.2-0.7,9.7-1.8,17.9-1.2C710.8,475.2,742.4,478.1,752.1,500z"/>
		<path class="st9" d="M747,498.7c0.5,0.6,0.8,1,1.3,2c2.9,5.3,13.3,32.8-27.9,65c-41.7,32.7-62.1,12-64.9,7.5
			c-0.3-0.5-0.7-1-0.9-1.5c-1.4-3.4-5.8-16.9,2.7-34.4c4.5-9.3,12.6-19.7,26.8-30.3C723.9,477.4,743,494.3,747,498.7z"/>
		
			<ellipse transform="matrix(0.6579 -0.7531 0.7531 0.6579 -163.9915 712.384)" class="st10" cx="702.1" cy="536.7" rx="9.7" ry="6.8"/>
		<line class="st11" x1="734.6" y1="552.1" x2="667.8" y2="521.9"/>
		<line class="st11" x1="693.4" y1="500.4" x2="711.4" y2="572.3"/>
		<path class="st12" d="M750.6,523.5c-32.6,8.6-65.2,17.2-97.7,25.8"/>
		<line class="st11" x1="680.4" y1="583.4" x2="722.6" y2="490"/>
		<line class="st11" x1="746.5" y1="497.4" x2="657.1" y2="575.3"/>
	</g>
	<g>
		<path class="st8" d="M704.4,982.5c7.2-2.1,13.8-1.1,16.2-0.8c8.9,1.4,14.8,5.4,20.9,9.7c11.4,8,17.9,16.8,21.4,21.7
			c6.4,8.9,10.2,17.3,12.3,22.9c2.7,7.2,5,13.1,5.2,21.3c0.2,5.9,0.6,16.7-6.4,25.9c-6.5,8.6-15.9,11.2-24.2,13.4
			c-12.1,3.3-22.1,2-25.8,1.4c-2.4-0.4-11.8-2.2-22.2-8.6c-13.4-8.3-19.9-19.1-21.4-21.7c-2-3.5-6.9-12.8-8-25.7
			c-0.3-3.3-0.5-9.9,1.1-17.9C674.4,1020.2,681.4,989.2,704.4,982.5z"/>
		<path class="st9" d="M702.4,987.3c0.7-0.5,1.1-0.7,2.1-1.1c5.7-2.2,34.2-8.9,60.8,36.1c26.9,45.6,3.8,63.1-1,65.4
			c-0.5,0.2-1,0.5-1.6,0.7c-3.5,0.9-17.5,3.5-33.8-7.1c-8.6-5.7-17.9-15.1-26.5-30.5C678.3,1007.5,697.5,990.7,702.4,987.3z"/>
		
			<ellipse transform="matrix(0.7506 -0.6608 0.6608 0.7506 -502.0437 743.807)" class="st10" cx="734.2" cy="1036.9" rx="6.8" ry="9.7"/>
		<line class="st11" x1="753.8" y1="1006.6" x2="715.1" y2="1068.9"/>
		<line class="st11" x1="697.1" y1="1040.8" x2="770.7" y2="1032.3"/>
		<path class="st12" d="M727.5,987c4.3,33.4,8.5,66.8,12.8,100.3"/>
		<line class="st11" x1="777.6" y1="1064.5" x2="690.6" y2="1010.4"/>
		<line class="st11" x1="701" y1="987.7" x2="766.7" y2="1086.5"/>
	</g>
	<g>
		<path class="st8" d="M513.5,71.8c2.9-6.9,7.8-11.4,9.7-13.1c6.7-6,13.5-8,20.8-10.1c13.4-3.8,24.3-3.2,30.4-2.8
			c11,0.7,19.8,3,25.6,5c7.3,2.4,13.3,4.4,19.8,9.4c4.7,3.6,13.3,10.1,16,21.4c2.6,10.5-1.4,19.4-4.9,27.3
			c-5.1,11.5-12.4,18.4-15.3,20.9c-1.9,1.6-9.2,7.8-20.7,11.8c-14.9,5.1-27.4,3.3-30.4,2.8c-4-0.6-14.2-2.7-24.9-10.1
			c-2.7-1.9-8-5.8-13.2-12.2C523.8,118.8,504.1,93.9,513.5,71.8z"/>
		<path class="st9" d="M516,76.3c0.1-0.8,0.2-1.3,0.5-2.3c1.9-5.8,14.7-32.1,66.4-24.3c52.4,8,51.3,37,50,42.1
			c-0.1,0.6-0.3,1.1-0.5,1.7c-1.5,3.3-8.3,15.8-26.9,21.7c-9.8,3.1-23,4.3-40.4,1.3C516.3,107.8,515.5,82.3,516,76.3z"/>
		
			<ellipse transform="matrix(0.9993 -3.799511e-02 3.799511e-02 0.9993 -2.7389 21.8848)" class="st10" cx="574.4" cy="83" rx="9.7" ry="6.8"/>
		<line class="st11" x1="563.4" y1="48.8" x2="587.2" y2="118.1"/>
		<line class="st11" x1="554" y1="114.3" x2="594" y2="51.8"/>
		<path class="st12" d="M531.5,56.7c28.6,17.8,57.2,35.6,85.8,53.4"/>
		<line class="st11" x1="623.3" y1="66.8" x2="526.4" y2="100.1"/>
		<line class="st11" x1="515.4" y1="77.7" x2="633.5" y2="89.2"/>
	</g>
	<g>
		<path class="st8" d="M610.8,227.8c3.5-2.4,20.6-13.6,42.8-9.4c19.5,3.6,30.5,16.6,34.3,21.3c3.7,4.4,14.7,18.3,14.4,38.3
			c-0.5,27.8-22.7,44.3-25.4,46.3L610.8,227.8z"/>
		<path class="st13" d="M612.3,230.8c3.3-2.3,19.3-12.8,40.3-8.9c18.3,3.5,28.7,15.8,32.3,20.2c3.4,4.2,13.9,17.4,13.6,36.4
			c-0.4,26.4-21.3,42-23.8,43.8L612.3,230.8z"/>
		<path class="st10" d="M640.5,270.4c0.2-0.1,3.3-1.4,6,0.4c0.4,0.3,2.6,1.7,2.7,4.5c0.1,2.9-2.2,4.6-2.3,4.8L640.5,270.4z"/>
		<line class="st11" x1="696.5" y1="293.7" x2="646.2" y2="276.8"/>
		<line class="st11" x1="695.4" y1="261.8" x2="645" y2="275.4"/>
		<line class="st11" x1="676.5" y1="233.7" x2="644.6" y2="273.8"/>
		<line class="st11" x1="644.7" y1="221.4" x2="642.1" y2="272.5"/>
		<polyline class="st14" points="676.9,324.3 656.1,295 636.2,266.3 614.8,234.6 609.8,227.2 		"/>
	</g>
	<g>
		<path class="st8" d="M181.7,52.1c3.2,2.9,17.9,16.9,18.9,39.6c0.9,19.8-9.3,33.5-12.9,38.3c-3.5,4.6-14.5,18.5-34.1,22.7
			c-27.2,5.8-48.3-12-50.8-14.2L181.7,52.1z"/>
		<path class="st13" d="M179.1,54.2c3,2.7,16.9,15.9,17.8,37.2c0.8,18.6-8.9,31.6-12.3,36.1c-3.3,4.3-13.8,17.5-32.3,21.5
			c-25.8,5.6-45.7-11.2-48.1-13.2L179.1,54.2z"/>
		<path class="st10" d="M147,90.7c0.1,0.2,2.1,2.9,1,5.9c-0.2,0.5-1.1,2.9-3.8,3.6c-2.8,0.8-5-1.1-5.2-1.2L147,90.7z"/>
		<line class="st11" x1="137.1" y1="150.5" x2="142.1" y2="97.6"/>
		<line class="st11" x1="167.9" y1="142.1" x2="143.2" y2="96.2"/>
		<line class="st11" x1="190.9" y1="117.4" x2="144.7" y2="95.5"/>
		<line class="st11" x1="195.7" y1="83.5" x2="145.4" y2="92.7"/>
		<polyline class="st14" points="102.9,138.4 126.7,111.4 150,85.6 176.1,57.5 182.1,51 		"/>
	</g>
	<g>
		<path class="st8" d="M1000.2,637.1c-3.5,2.4-20.6,13.6-42.8,9.4c-19.5-3.6-30.5-16.6-34.3-21.3c-3.7-4.4-14.7-18.3-14.4-38.3
			c0.5-27.8,22.7-44.3,25.4-46.3L1000.2,637.1z"/>
		<path class="st13" d="M998.7,634.1c-3.3,2.3-19.3,12.8-40.3,8.9c-18.3-3.5-28.7-15.8-32.3-20.2c-3.4-4.2-13.9-17.4-13.6-36.4
			c0.4-26.4,21.3-42,23.8-43.8L998.7,634.1z"/>
		<path class="st10" d="M970.5,594.5c-0.2,0.1-3.3,1.4-6-0.4c-0.4-0.3-2.6-1.7-2.7-4.5c-0.1-2.9,2.2-4.6,2.3-4.8L970.5,594.5z"/>
		<line class="st11" x1="914.5" y1="571.2" x2="964.8" y2="588.1"/>
		<line class="st11" x1="915.6" y1="603.2" x2="966" y2="589.6"/>
		<line class="st11" x1="934.5" y1="631.2" x2="966.4" y2="591.2"/>
		<line class="st11" x1="966.3" y1="643.6" x2="968.9" y2="592.5"/>
		<polyline class="st14" points="934.1,540.7 954.9,570 974.8,598.7 996.1,630.4 1001.2,637.7 		"/>
	</g>
	<g>
		<path class="st8" d="M92.7,1048.1c0.8-4.2,4.9-24.1,23.6-36.9c16.3-11.2,33.4-9.8,39.3-9.2c5.7,0.6,23.4,2.5,37.3,17
			c19.3,20.1,15.3,47.4,14.7,50.7L92.7,1048.1z"/>
		<path class="st13" d="M95.9,1049.1c0.7-4,4.6-22.7,22.2-34.7c15.4-10.5,31.5-9.1,37.1-8.6c5.4,0.5,22.1,2.5,35.3,16.1
			c18.4,19,14.6,44.7,14.1,47.8L95.9,1049.1z"/>
		<path class="st10" d="M143.8,1057.2c0.1-0.2,1.3-3.3,4.5-4c0.5-0.1,3.1-0.6,5.1,1.3c2.1,2,1.7,4.8,1.7,5L143.8,1057.2z"/>
		<line class="st11" x1="199.8" y1="1034.1" x2="152.3" y2="1057.7"/>
		<line class="st11" x1="176.4" y1="1012.3" x2="150.4" y2="1057.5"/>
		<line class="st11" x1="143.3" y1="1005.8" x2="149.1" y2="1056.6"/>
		<line class="st11" x1="112" y1="1019.6" x2="146.4" y2="1057.5"/>
		<polyline class="st14" points="207.6,1069.5 172.1,1063.5 137.8,1057.3 100.3,1050 91.5,1048.3 		"/>
	</g>
	<g>
		<ellipse class="st8" cx="814.3" cy="768.9" rx="53.2" ry="53.4"/>
		<circle class="st9" cx="814" cy="768.2" r="50.3"/>
		<circle class="st10" cx="814.4" cy="768.6" r="5.3"/>
		<line class="st11" x1="817.2" y1="718.7" x2="810.7" y2="817.7"/>
		<line class="st11" x1="775.8" y1="800.6" x2="852.1" y2="736.6"/>
		<line class="st11" x1="781.5" y1="730.1" x2="845.6" y2="805.5"/>
		<line class="st11" x1="763.7" y1="765" x2="864.2" y2="772.3"/>
		<g>
			
				<image style="overflow:visible;enable-background:new    ;" width="82" height="87" xlink:href="A16D736F.png"  transform="matrix(1 0 0 1 809 751)">
			</image>
		</g>
		<g>
			
				<image style="overflow:visible;enable-background:new    ;" width="80" height="87" xlink:href="A16D7362.png"  transform="matrix(1 0 0 1 733 708)">
			</image>
		</g>
		<path class="st7" d="M849.2,733c0,0-0.2,3.7,1,4.9c1.2,1.1,5.8,2.1,5.8,2.1"/>
		<path class="st7" d="M864.2,768.9c0,0-3.1,2.1-3.3,3.7c-0.2,1.6,1.8,5.9,1.8,5.9"/>
		<path class="st7" d="M849.7,804.5c0,0-3.7-0.6-4.9,0.4s-2.8,5.5-2.8,5.5"/>
		<path class="st7" d="M814.8,818.9c0,0-2.1-3.1-3.7-3.3c-1.6-0.2-5.9,1.7-5.9,1.7"/>
		<path class="st7" d="M778.7,804.6c0,0,0.5-3.7-0.6-4.9s-5.6-2.6-5.6-2.6"/>
		<path class="st7" d="M778.3,733.2c0,0,3.7,0.6,4.9-0.4s2.8-5.5,2.8-5.5"/>
		<g>
			
				<image style="overflow:visible;enable-background:new    ;" width="76" height="82" xlink:href="A16D7361.png"  transform="matrix(1 0 0 1 783 685)">
			</image>
		</g>
		<g>
			
				<image style="overflow:visible;enable-background:new    ;" width="74" height="79" xlink:href="A16D7366.png"  transform="matrix(1 0 0 1 772 747)">
			</image>
		</g>
	</g>
	<g>
		<ellipse class="st8" cx="444.3" cy="333.6" rx="53.2" ry="53.4"/>
		<circle class="st9" cx="444" cy="332.9" r="50.3"/>
		<circle class="st10" cx="444.4" cy="333.3" r="5.3"/>
		<line class="st11" x1="447.2" y1="283.5" x2="440.7" y2="382.4"/>
		<line class="st11" x1="405.8" y1="365.4" x2="482.1" y2="301.3"/>
		<line class="st11" x1="411.5" y1="294.8" x2="475.6" y2="370.2"/>
		<line class="st11" x1="393.7" y1="329.7" x2="494.2" y2="337"/>
		<g>
			
				<image style="overflow:visible;enable-background:new    ;" width="82" height="87" xlink:href="54D1ADAE.png"  transform="matrix(1 0 0 1 439 316)">
			</image>
		</g>
		<g>
			
				<image style="overflow:visible;enable-background:new    ;" width="80" height="86" xlink:href="54D1ADA9.png"  transform="matrix(1 0 0 1 363 273)">
			</image>
		</g>
		<path class="st7" d="M479.2,297.7c0,0-0.2,3.7,1,4.9s5.8,2.1,5.8,2.1"/>
		<path class="st7" d="M494.2,333.6c0,0-3.1,2.1-3.3,3.7c-0.2,1.6,1.8,5.9,1.8,5.9"/>
		<path class="st7" d="M479.7,369.2c0,0-3.7-0.6-4.9,0.4c-1.2,1-2.8,5.5-2.8,5.5"/>
		<path class="st7" d="M444.8,383.7c0,0-2.1-3.1-3.7-3.3s-5.9,1.7-5.9,1.7"/>
		<path class="st7" d="M408.7,369.3c0,0,0.5-3.7-0.6-4.9c-1.1-1.2-5.6-2.6-5.6-2.6"/>
		<path class="st7" d="M408.3,297.9c0,0,3.7,0.6,4.9-0.4c1.2-1,2.8-5.5,2.8-5.5"/>
		<g>
			
				<image style="overflow:visible;enable-background:new    ;" width="76" height="82" xlink:href="54D1ADAA.png"  transform="matrix(1 0 0 1 413 250)">
			</image>
		</g>
		<g>
			
				<image style="overflow:visible;enable-background:new    ;" width="74" height="80" xlink:href="54D1ADA8.png"  transform="matrix(1 0 0 1 402 311)">
			</image>
		</g>
	</g>
</g>
<g>
	<g>
		<path class="st2" d="M1440.9,610.8c0.9,0.9,3.5,8.8,11.8,11.8c6.1,2.2,11.5,0.6,13.1,0c0,0-2.6-3.9-3.9-9.2
			c-1.3-5.2-3.9-9.2-11.8-15.7s-15.7-1.3-14.4,1.3S1439.6,609.5,1440.9,610.8z"/>
		<g>
			<path class="st3" d="M1436.4,624.8l-3.5-0.4c-3.1-0.3-5.4-3.1-5-6.3l7.8-69.8c0.3-3.1,3.1-5.4,6.3-5l3.5,0.4
				c3.1,0.3,5.4,3.1,5,6.3l-7.8,69.8C1442.3,622.9,1439.5,625.2,1436.4,624.8z"/>
			<path class="st3" d="M1473.4,607.3l-2,2.9c-1.7,2.6-5.3,3.3-7.9,1.5l-58.3-39.2c-2.6-1.7-3.3-5.3-1.5-7.9l2-2.9
				c1.7-2.6,5.3-3.3,7.9-1.5l58.3,39.2C1474.5,601.1,1475.1,604.7,1473.4,607.3z"/>
			<path class="st3" d="M1474.5,567.9l1.3,3.3c1.2,2.9-0.3,6.2-3.2,7.4l-65.3,26c-2.9,1.2-6.2-0.3-7.4-3.2l-1.3-3.3
				c-1.2-2.9,0.3-6.2,3.2-7.4l65.3-26C1470,563.6,1473.3,565,1474.5,567.9z"/>
		</g>
		<g>
			<path class="st4" d="M1439.3,587.4c0,0,1.3-3.9,5.2-5.2"/>
			<circle class="st5" cx="1445.9" cy="580.9" r="2.6"/>
			<g>
				<path class="st4" d="M1438.6,586.8c0,0-1.3-3.9-5.2-5.2"/>
				<circle class="st5" cx="1432.1" cy="580.2" r="2.6"/>
			</g>
			<g>
				<g>
					<path class="st6" d="M1438.9,589.3c1.9,0,1.9-3,0-3C1437,586.3,1437,589.3,1438.9,589.3L1438.9,589.3z"/>
				</g>
			</g>
			<line class="st4" x1="1438.6" y1="585.5" x2="1439.9" y2="576.3"/>
			<circle class="st5" cx="1439.9" cy="575" r="2.6"/>
		</g>
	</g>
	<g>
		<path class="st2" d="M1568.2,860.9c1,0.7,5,8,13.8,9.5c6.4,1,11.4-1.5,12.9-2.4c0,0-3.3-3.4-5.5-8.3c-2.2-4.9-5.5-8.3-14.5-13.3
			c-8.9-5-15.7,1.6-13.9,3.9C1562.6,852.6,1566.6,859.9,1568.2,860.9z"/>
		<g>
			<path class="st3" d="M1566.3,875.5l-3.5,0.3c-3.1,0.2-5.8-2.1-6.1-5.2l-5.1-70.1c-0.2-3.1,2.1-5.8,5.2-6.1l3.5-0.3
				c3.1-0.2,5.8,2.1,6.1,5.2l5.1,70.1C1571.7,872.6,1569.4,875.3,1566.3,875.5z"/>
			<path class="st3" d="M1599.4,851.5l-1.4,3.2c-1.2,2.9-4.6,4.2-7.5,2.9l-64.5-27.9c-2.9-1.2-4.2-4.6-2.9-7.5l1.4-3.2
				c1.2-2.9,4.6-4.2,7.5-2.9l64.5,27.9C1599.4,845.3,1600.7,848.6,1599.4,851.5z"/>
			<path class="st3" d="M1593.3,812.6l1.9,3c1.7,2.6,0.9,6.1-1.8,7.8l-59.4,37.5c-2.6,1.7-6.1,0.9-7.8-1.8l-1.9-3
				c-1.7-2.6-0.9-6.1,1.8-7.8l59.4-37.5C1588.2,809.1,1591.7,809.9,1593.3,812.6z"/>
		</g>
		<g>
			<path class="st4" d="M1562.3,838.2c0,0,0.6-4.1,4.2-6.1"/>
			<circle class="st5" cx="1567.6" cy="830.6" r="2.6"/>
			<g>
				<path class="st4" d="M1561.5,837.7c0,0-2-3.6-6.1-4.2"/>
				<circle class="st5" cx="1553.9" cy="832.5" r="2.6"/>
			</g>
			<g>
				<g>
					<path class="st6" d="M1562,840.1c1.9,0,1.9-3,0-3C1560.1,837.1,1560.1,840.1,1562,840.1L1562,840.1z"/>
				</g>
			</g>
			<line class="st4" x1="1561.3" y1="836.4" x2="1560.9" y2="827.2"/>
			<circle class="st5" cx="1560.7" cy="825.9" r="2.6"/>
		</g>
	</g>
	<g>
		<path class="st2" d="M1087.5,838.3c1,0.7,5,8,13.8,9.5c6.4,1,11.4-1.5,12.9-2.4c0,0-3.3-3.4-5.5-8.3c-2.2-4.9-5.5-8.3-14.5-13.3
			s-15.7,1.6-13.9,3.9C1082.1,830,1086,837.2,1087.5,838.3z"/>
		<g>
			<path class="st3" d="M1085.6,852.9l-3.5,0.3c-3.1,0.2-5.8-2.1-6.1-5.2l-5.1-70.1c-0.2-3.1,2.1-5.8,5.2-6.1l3.5-0.3
				c3.1-0.2,5.8,2.1,6.1,5.2l5.1,70.1C1091.1,849.9,1088.8,852.6,1085.6,852.9z"/>
			<path class="st3" d="M1118.8,828.8l-1.4,3.2c-1.2,2.9-4.6,4.2-7.5,2.9l-64.5-27.9c-2.9-1.2-4.2-4.6-2.9-7.5l1.4-3.2
				c1.2-2.9,4.6-4.2,7.5-2.9l64.5,27.9C1118.7,822.6,1120.1,826,1118.8,828.8z"/>
			<path class="st3" d="M1112.7,789.9l1.9,3c1.7,2.6,0.9,6.1-1.8,7.8l-59.4,37.5c-2.6,1.7-6.1,0.9-7.8-1.8l-1.9-3
				c-1.7-2.6-0.9-6.1,1.8-7.8l59.4-37.5C1107.5,786.5,1111,787.3,1112.7,789.9z"/>
		</g>
		<g>
			<path class="st4" d="M1081.7,815.6c0,0,0.6-4.1,4.2-6.1"/>
			<circle class="st5" cx="1086.9" cy="807.9" r="2.6"/>
			<g>
				<path class="st4" d="M1080.9,815.1c0,0-2-3.6-6.1-4.2"/>
				<circle class="st5" cx="1073.3" cy="809.8" r="2.6"/>
			</g>
			<g>
				<g>
					<path class="st6" d="M1081.4,817.5c1.9,0,1.9-3,0-3C1079.4,814.5,1079.4,817.5,1081.4,817.5L1081.4,817.5z"/>
				</g>
			</g>
			<line class="st4" x1="1080.7" y1="813.8" x2="1080.3" y2="804.5"/>
			<circle class="st5" cx="1080" cy="803.2" r="2.6"/>
		</g>
	</g>
	<g>
		<path class="st2" d="M1408.5,1058.1c1,0.7,5,8,13.8,9.5c6.4,1,11.4-1.5,12.9-2.4c0,0-3.3-3.4-5.5-8.3c-2.2-4.9-5.5-8.3-14.5-13.3
			c-8.9-5-15.7,1.6-13.9,3.9S1407,1057.1,1408.5,1058.1z"/>
		<g>
			<path class="st3" d="M1406.6,1072.7l-3.5,0.3c-3.1,0.2-5.8-2.1-6.1-5.2l-5.1-70.1c-0.2-3.1,2.1-5.8,5.2-6.1l3.5-0.3
				c3.1-0.2,5.8,2.1,6.1,5.2l5.1,70.1C1412.1,1069.8,1409.8,1072.5,1406.6,1072.7z"/>
			<path class="st3" d="M1439.8,1048.7l-1.4,3.2c-1.2,2.9-4.6,4.2-7.5,2.9l-64.5-27.9c-2.9-1.2-4.2-4.6-2.9-7.5l1.4-3.2
				c1.2-2.9,4.6-4.2,7.5-2.9l64.5,27.9C1439.7,1042.5,1441.1,1045.8,1439.8,1048.7z"/>
			<path class="st3" d="M1433.7,1009.8l1.9,3c1.7,2.6,0.9,6.1-1.8,7.8l-59.4,37.5c-2.6,1.7-6.1,0.9-7.8-1.8l-1.9-3
				c-1.7-2.6-0.9-6.1,1.8-7.8l59.4-37.5C1428.5,1006.3,1432,1007.1,1433.7,1009.8z"/>
		</g>
		<g>
			<path class="st4" d="M1402.7,1035.4c0,0,0.6-4.1,4.2-6.1"/>
			<circle class="st5" cx="1407.9" cy="1027.8" r="2.6"/>
			<g>
				<path class="st4" d="M1401.9,1034.9c0,0-2-3.6-6.1-4.2"/>
				<path class="st5" d="M1394.3,1027.1c1.4,0,2.6,1.2,2.6,2.6s-1.2,2.6-2.6,2.6s-2.6-1.2-2.6-2.6S1392.9,1027.1,1394.3,1027.1z"/>
			</g>
			<g>
				<g>
					<path class="st6" d="M1402.4,1037.3c1.9,0,1.9-3,0-3C1400.4,1034.3,1400.4,1037.3,1402.4,1037.3L1402.4,1037.3z"/>
				</g>
			</g>
			<line class="st4" x1="1401.7" y1="1033.6" x2="1401.3" y2="1024.4"/>
			<circle class="st5" cx="1401" cy="1023.1" r="2.6"/>
		</g>
	</g>
	<g>
		<path class="st2" d="M1271.6,494c0.9,0.9,3.5,8.8,11.8,11.8c6.1,2.2,11.5,0.6,13.1,0c0,0-2.6-3.9-3.9-9.2
			c-1.3-5.3-3.9-9.2-11.8-15.7c-7.9-6.6-15.7-1.3-14.4,1.3C1267.7,484.8,1270.3,492.7,1271.6,494z"/>
		<g>
			<path class="st3" d="M1267.1,508l-3.5-0.4c-3.1-0.3-5.4-3.1-5-6.3l7.8-69.8c0.3-3.1,3.1-5.4,6.3-5l3.5,0.4c3.1,0.3,5.4,3.1,5,6.3
				l-7.8,69.8C1273,506.1,1270.2,508.4,1267.1,508z"/>
			<path class="st3" d="M1304.1,490.5l-2,2.9c-1.7,2.6-5.3,3.3-7.9,1.5l-58.3-39.2c-2.6-1.7-3.3-5.3-1.5-7.9l2-2.9
				c1.7-2.6,5.3-3.3,7.9-1.5l58.3,39.2C1305.2,484.3,1305.9,487.9,1304.1,490.5z"/>
			<path class="st3" d="M1305.2,451.1l1.3,3.3c1.2,2.9-0.3,6.2-3.2,7.4l-65.3,26c-2.9,1.2-6.2-0.3-7.4-3.2l-1.3-3.3
				c-1.2-2.9,0.3-6.2,3.2-7.4l65.3-26C1300.8,446.8,1304.1,448.2,1305.2,451.1z"/>
		</g>
		<g>
			<path class="st4" d="M1270,470.6c0,0,1.3-3.9,5.2-5.2"/>
			<circle class="st5" cx="1276.6" cy="464.1" r="2.6"/>
			<g>
				<path class="st4" d="M1269.4,470c0,0-1.3-3.9-5.2-5.2"/>
				<circle class="st5" cx="1262.8" cy="463.4" r="2.6"/>
			</g>
			<g>
				<g>
					<path class="st6" d="M1269.6,472.5c1.9,0,1.9-3,0-3S1267.7,472.5,1269.6,472.5L1269.6,472.5z"/>
				</g>
			</g>
			<line class="st4" x1="1269.4" y1="468.7" x2="1270.7" y2="459.5"/>
			<circle class="st5" cx="1270.7" cy="458.2" r="2.6"/>
		</g>
	</g>
	<g>
		<path class="st2" d="M1117.2,344.8c1.2,0,8.7,3.8,16.7,0c5.9-2.8,8.5-7.7,9.3-9.3c0,0-4.6-0.9-9.3-3.7c-4.6-2.8-9.3-3.7-19.5-2.8
			c-10.2,0.9-12.1,10.2-9.3,11.1C1107.9,341.1,1115.3,344.8,1117.2,344.8z"/>
		<g>
			<path class="st3" d="M1123.9,357.9l-2.8,2.2c-2.4,2-6,1.6-8-0.9l-43.9-54.9c-2-2.4-1.6-6,0.9-8l2.8-2.2c2.4-2,6-1.6,8,0.9
				l43.9,54.9C1126.7,352.4,1126.3,355.9,1123.9,357.9z"/>
			<path class="st3" d="M1137.6,319.3l0.7,3.5c0.6,3.1-1.4,6-4.5,6.7l-68.9,13.5c-3.1,0.6-6-1.4-6.7-4.5l-0.7-3.5
				c-0.6-3.1,1.4-6,4.5-6.7l68.9-13.5C1134,314.2,1137,316.2,1137.6,319.3z"/>
			<path class="st3" d="M1110.5,290.7l3.2,1.4c2.9,1.2,4.2,4.6,3,7.4L1089,364c-1.2,2.9-4.6,4.2-7.4,3l-3.2-1.4
				c-2.9-1.2-4.2-4.6-3-7.4l27.7-64.5C1104.3,290.8,1107.7,289.4,1110.5,290.7z"/>
		</g>
		<g>
			<path class="st4" d="M1099.5,329.4c0,0-1.9-3.7,0-7.4"/>
			<circle class="st5" cx="1099.5" cy="320.1" r="2.6"/>
			<g>
				<path class="st4" d="M1098.6,329.4c0,0-3.7-1.9-7.4,0"/>
				<circle class="st5" cx="1089.3" cy="329.4" r="2.6"/>
			</g>
			<g>
				<g>
					<path class="st6" d="M1099.4,331.4c1.9,0,1.9-3,0-3C1097.5,328.4,1097.5,331.4,1099.4,331.4L1099.4,331.4z"/>
				</g>
			</g>
			<line class="st4" x1="1097.6" y1="328.5" x2="1092.1" y2="321"/>
			<circle class="st5" cx="1091.1" cy="320.1" r="2.6"/>
		</g>
	</g>
	<g>
		<path class="st2" d="M1329.3,162.2c0.9,0.9,3.5,8.8,11.8,11.8c6.1,2.2,11.5,0.6,13.1,0c0,0-2.6-3.9-3.9-9.2
			c-1.3-5.2-3.9-9.2-11.8-15.7c-7.9-6.6-15.7-1.3-14.4,1.3C1325.4,153,1328,160.9,1329.3,162.2z"/>
		<g>
			<path class="st3" d="M1324.8,176.2l-3.5-0.4c-3.1-0.3-5.4-3.1-5-6.3l7.8-69.8c0.3-3.1,3.1-5.4,6.3-5l3.5,0.4
				c3.1,0.3,5.4,3.1,5,6.3l-7.8,69.8C1330.7,174.3,1327.9,176.5,1324.8,176.2z"/>
			<path class="st3" d="M1361.8,158.6l-2,2.9c-1.7,2.6-5.3,3.3-7.9,1.5l-58.3-39.2c-2.6-1.7-3.3-5.3-1.5-7.9l2-2.9
				c1.7-2.6,5.3-3.3,7.9-1.5l58.3,39.2C1362.9,152.5,1363.6,156,1361.8,158.6z"/>
			<path class="st3" d="M1362.9,119.2l1.3,3.3c1.2,2.9-0.3,6.2-3.2,7.4l-65.3,26c-2.9,1.2-6.2-0.3-7.4-3.2l-1.3-3.3
				c-1.2-2.9,0.3-6.2,3.2-7.4l65.3-26C1358.5,114.9,1361.8,116.3,1362.9,119.2z"/>
		</g>
		<g>
			<path class="st4" d="M1327.7,138.8c0,0,1.3-3.9,5.2-5.2"/>
			<circle class="st5" cx="1334.3" cy="132.2" r="2.6"/>
			<g>
				<path class="st4" d="M1327.1,138.2c0,0-1.3-3.9-5.2-5.2"/>
				<circle class="st5" cx="1320.5" cy="131.6" r="2.6"/>
			</g>
			<g>
				<g>
					<path class="st6" d="M1327.3,140.6c1.9,0,1.9-3,0-3S1325.4,140.6,1327.3,140.6L1327.3,140.6z"/>
				</g>
			</g>
			<line class="st4" x1="1327.1" y1="136.8" x2="1328.4" y2="127.7"/>
			<circle class="st5" cx="1328.4" cy="126.3" r="2.6"/>
		</g>
	</g>
</g>
<g>
	<ellipse class="st8" cx="1192.2" cy="664.1" rx="53.2" ry="53.4"/>
	<circle class="st9" cx="1191.9" cy="663.4" r="50.3"/>
	<circle class="st10" cx="1192.3" cy="663.8" r="5.3"/>
	<line class="st11" x1="1195.1" y1="613.9" x2="1188.6" y2="712.9"/>
	<line class="st11" x1="1153.7" y1="695.8" x2="1230" y2="631.8"/>
	<line class="st11" x1="1159.4" y1="625.3" x2="1223.5" y2="700.7"/>
	<line class="st11" x1="1141.6" y1="660.2" x2="1242.1" y2="667.5"/>
	<g>
		
			<image style="overflow:visible;enable-background:new    ;" width="82" height="87" xlink:href="54D1ADA6.png"  transform="matrix(1 0 0 1 1186.8788 646.1766)">
		</image>
	</g>
	<g>
		
			<image style="overflow:visible;enable-background:new    ;" width="80" height="87" xlink:href="54D1ADB9.png"  transform="matrix(1 0 0 1 1110.8788 603.1766)">
		</image>
	</g>
	<path class="st7" d="M1227.1,628.2c0,0-0.2,3.7,1,4.9c1.2,1.1,5.8,2.1,5.8,2.1"/>
	<path class="st7" d="M1242.1,664.1c0,0-3.1,2.1-3.3,3.7c-0.2,1.6,1.8,5.9,1.8,5.9"/>
	<path class="st7" d="M1227.6,699.7c0,0-3.7-0.6-4.9,0.4c-1.2,1-2.8,5.5-2.8,5.5"/>
	<path class="st7" d="M1192.7,714.1c0,0-2.1-3.1-3.7-3.3s-5.9,1.7-5.9,1.7"/>
	<path class="st7" d="M1156.6,699.8c0,0,0.5-3.7-0.6-4.9s-5.6-2.6-5.6-2.6"/>
	<path class="st7" d="M1156.2,628.4c0,0,3.7,0.6,4.9-0.4c1.2-1,2.8-5.5,2.8-5.5"/>
	<g>
		
			<image style="overflow:visible;enable-background:new    ;" width="76" height="82" xlink:href="54D1ADBA.png"  transform="matrix(1 0 0 1 1160.8788 580.1766)">
		</image>
	</g>
	<g>
		
			<image style="overflow:visible;enable-background:new    ;" width="74" height="79" xlink:href="54D1ADB8.png"  transform="matrix(1 0 0 1 1149.8788 642.1766)">
		</image>
	</g>
</g>
<g>
	<ellipse class="st8" cx="1394" cy="858.6" rx="53.2" ry="53.4"/>
	<circle class="st9" cx="1393.7" cy="857.9" r="50.3"/>
	<circle class="st10" cx="1394.1" cy="858.3" r="5.3"/>
	<line class="st11" x1="1396.9" y1="808.4" x2="1390.4" y2="907.4"/>
	<line class="st11" x1="1355.5" y1="890.3" x2="1431.8" y2="826.3"/>
	<line class="st11" x1="1361.2" y1="819.8" x2="1425.3" y2="895.2"/>
	<line class="st11" x1="1343.4" y1="854.7" x2="1443.9" y2="862"/>
	<g>
		
			<image style="overflow:visible;enable-background:new    ;" width="82" height="87" xlink:href="54D1ADBE.png"  transform="matrix(1 0 0 1 1388.6943 840.7)">
		</image>
	</g>
	<g>
		
			<image style="overflow:visible;enable-background:new    ;" width="80" height="87" xlink:href="54D1ADBB.png"  transform="matrix(1 0 0 1 1312.6943 797.7)">
		</image>
	</g>
	<path class="st7" d="M1428.9,822.7c0,0-0.2,3.7,1,4.9c1.2,1.1,5.8,2.1,5.8,2.1"/>
	<path class="st7" d="M1443.9,858.6c0,0-3.1,2.1-3.3,3.7c-0.2,1.6,1.8,5.9,1.8,5.9"/>
	<path class="st7" d="M1429.4,894.2c0,0-3.7-0.6-4.9,0.4c-1.2,1-2.8,5.5-2.8,5.5"/>
	<path class="st7" d="M1394.5,908.6c0,0-2.1-3.1-3.7-3.3s-5.9,1.7-5.9,1.7"/>
	<path class="st7" d="M1358.4,894.3c0,0,0.5-3.7-0.6-4.9s-5.6-2.6-5.6-2.6"/>
	<path class="st7" d="M1358,822.9c0,0,3.7,0.6,4.9-0.4c1.2-1,2.8-5.5,2.8-5.5"/>
	<g>
		
			<image style="overflow:visible;enable-background:new    ;" width="76" height="82" xlink:href="54D1ADDD.png"  transform="matrix(1 0 0 1 1362.6943 774.7)">
		</image>
	</g>
	<g>
		
			<image style="overflow:visible;enable-background:new    ;" width="74" height="79" xlink:href="54D1ADDF.png"  transform="matrix(1 0 0 1 1351.6943 836.7)">
		</image>
	</g>
</g>
<g>
	<ellipse class="st8" cx="1089.2" cy="163.7" rx="53.2" ry="53.4"/>
	<circle class="st9" cx="1088.9" cy="163" r="50.3"/>
	<circle class="st10" cx="1089.3" cy="163.4" r="5.3"/>
	<line class="st11" x1="1092.1" y1="113.5" x2="1085.6" y2="212.5"/>
	<line class="st11" x1="1050.7" y1="195.4" x2="1127" y2="131.4"/>
	<line class="st11" x1="1056.4" y1="124.9" x2="1120.5" y2="200.3"/>
	<line class="st11" x1="1038.6" y1="159.8" x2="1139.1" y2="167.1"/>
	<g>
		
			<image style="overflow:visible;enable-background:new    ;" width="82" height="87" xlink:href="54D1ADDC.png"  transform="matrix(1 0 0 1 1083.8943 145.7921)">
		</image>
	</g>
	<g>
		
			<image style="overflow:visible;enable-background:new    ;" width="80" height="87" xlink:href="54D1ADDB.png"  transform="matrix(1 0 0 1 1007.8943 102.7921)">
		</image>
	</g>
	<path class="st7" d="M1124.1,127.8c0,0-0.2,3.7,1,4.9c1.2,1.1,5.8,2.1,5.8,2.1"/>
	<path class="st7" d="M1139.1,163.7c0,0-3.1,2.1-3.3,3.7c-0.2,1.6,1.8,5.9,1.8,5.9"/>
	<path class="st7" d="M1124.6,199.3c0,0-3.7-0.6-4.9,0.4c-1.2,1-2.8,5.5-2.8,5.5"/>
	<path class="st7" d="M1089.7,213.7c0,0-2.1-3.1-3.7-3.3c-1.6-0.2-5.9,1.7-5.9,1.7"/>
	<path class="st7" d="M1053.6,199.4c0,0,0.5-3.7-0.6-4.9s-5.6-2.6-5.6-2.6"/>
	<path class="st7" d="M1053.2,128c0,0,3.7,0.6,4.9-0.4c1.2-1,2.8-5.5,2.8-5.5"/>
	<g>
		
			<image style="overflow:visible;enable-background:new    ;" width="76" height="82" xlink:href="54D1ADD5.png"  transform="matrix(1 0 0 1 1057.8943 79.7921)">
		</image>
	</g>
	<g>
		
			<image style="overflow:visible;enable-background:new    ;" width="74" height="79" xlink:href="54D1ADD7.png"  transform="matrix(1 0 0 1 1046.8943 141.7921)">
		</image>
	</g>
</g>
<g>
	<path class="st8" d="M1195.1,1050.2c-3.5,2.4-20.6,13.6-42.8,9.4c-19.5-3.6-30.5-16.6-34.3-21.3c-3.7-4.4-14.7-18.3-14.4-38.3
		c0.5-27.8,22.7-44.3,25.4-46.3L1195.1,1050.2z"/>
	<path class="st13" d="M1193.6,1047.2c-3.3,2.3-19.3,12.8-40.3,8.9c-18.3-3.5-28.7-15.8-32.3-20.2c-3.4-4.2-13.9-17.4-13.6-36.4
		c0.4-26.4,21.3-42,23.8-43.8L1193.6,1047.2z"/>
	<path class="st10" d="M1165.4,1007.6c-0.2,0.1-3.3,1.4-6-0.4c-0.4-0.3-2.6-1.7-2.7-4.5c-0.1-2.9,2.2-4.6,2.3-4.8L1165.4,1007.6z"/>
	<line class="st11" x1="1109.4" y1="984.3" x2="1159.7" y2="1001.2"/>
	<line class="st11" x1="1110.5" y1="1016.3" x2="1160.9" y2="1002.7"/>
	<line class="st11" x1="1129.4" y1="1044.3" x2="1161.3" y2="1004.3"/>
	<line class="st11" x1="1161.2" y1="1056.7" x2="1163.8" y2="1005.6"/>
	<polyline class="st14" points="1129,953.8 1149.8,983.1 1169.7,1011.8 1191,1043.5 1196.1,1050.8 	"/>
</g>
<g>
	<path class="st8" d="M1331.8,349.4c-3.5,2.4-20.6,13.6-42.8,9.4c-19.5-3.6-30.5-16.6-34.3-21.3c-3.7-4.4-14.7-18.3-14.4-38.3
		c0.5-27.8,22.7-44.3,25.4-46.3L1331.8,349.4z"/>
	<path class="st13" d="M1330.3,346.4c-3.3,2.3-19.3,12.8-40.3,8.9c-18.3-3.5-28.7-15.8-32.3-20.2c-3.4-4.2-13.9-17.4-13.6-36.4
		c0.4-26.4,21.3-42,23.8-43.8L1330.3,346.4z"/>
	<path class="st10" d="M1302.1,306.8c-0.2,0.1-3.3,1.4-6-0.4c-0.4-0.3-2.6-1.7-2.7-4.5c-0.1-2.9,2.2-4.6,2.3-4.8L1302.1,306.8z"/>
	<line class="st11" x1="1246.1" y1="283.5" x2="1296.4" y2="300.4"/>
	<line class="st11" x1="1247.2" y1="315.5" x2="1297.6" y2="301.9"/>
	<line class="st11" x1="1266.1" y1="343.5" x2="1298" y2="303.5"/>
	<line class="st11" x1="1297.9" y1="355.9" x2="1300.5" y2="304.8"/>
	<polyline class="st14" points="1265.7,253 1286.5,282.3 1306.4,311 1327.7,342.7 1332.8,350 	"/>
</g>
<g>
	<path class="st8" d="M1652.4,448.9c-4.2-0.1-24.7-0.8-40.3-17.1c-13.8-14.2-15.3-31.2-15.6-37.2c-0.5-5.7-1.4-23.4,10.4-39.6
		c16.5-22.4,44.1-23,47.5-23.1L1652.4,448.9z"/>
	<path class="st13" d="M1652.9,445.6c-4,0-23.1-0.7-38-16.1c-12.9-13.4-14.3-29.5-14.7-35.2c-0.3-5.4-1.3-22.2,10-37.6
		c15.6-21.3,41.7-21.9,44.8-21.9L1652.9,445.6z"/>
	<path class="st10" d="M1652.8,397c-0.2,0-3.5-0.8-4.7-3.8c-0.2-0.5-1.1-2.9,0.4-5.2c1.6-2.4,4.5-2.5,4.7-2.6L1652.8,397z"/>
	<line class="st11" x1="1620.6" y1="345.6" x2="1651.9" y2="388.5"/>
	<line class="st11" x1="1603" y1="372.3" x2="1652" y2="390.4"/>
	<line class="st11" x1="1602.2" y1="406.1" x2="1651.4" y2="391.9"/>
	<line class="st11" x1="1621" y1="434.6" x2="1652.7" y2="394.5"/>
	<polyline class="st14" points="1654.3,332.1 1654.3,368 1653.9,402.9 1652.9,441.1 1652.9,450 	"/>
</g>
<g>
	<path class="st8" d="M1647.5,1130.9c-4.2-0.1-24.7-0.8-40.3-17.1c-13.8-14.2-15.3-31.2-15.6-37.2c-0.5-5.7-1.4-23.4,10.4-39.6
		c16.5-22.4,44.1-23,47.5-23.1L1647.5,1130.9z"/>
	<path class="st13" d="M1648,1127.6c-4,0-23.1-0.7-38-16.1c-12.9-13.4-14.3-29.5-14.7-35.2c-0.3-5.4-1.3-22.2,10-37.6
		c15.6-21.3,41.7-21.9,44.8-21.9L1648,1127.6z"/>
	<path class="st10" d="M1647.9,1079c-0.2,0-3.5-0.8-4.7-3.8c-0.2-0.5-1.1-2.9,0.4-5.2c1.6-2.4,4.5-2.5,4.7-2.6L1647.9,1079z"/>
	<line class="st11" x1="1615.7" y1="1027.6" x2="1647" y2="1070.5"/>
	<line class="st11" x1="1598.1" y1="1054.3" x2="1647.1" y2="1072.4"/>
	<line class="st11" x1="1597.3" y1="1088.1" x2="1646.5" y2="1073.9"/>
	<line class="st11" x1="1616.1" y1="1116.6" x2="1647.8" y2="1076.4"/>
	<polyline class="st14" points="1649.3,1014.1 1649.4,1050 1649,1084.9 1648,1123.1 1647.9,1132 	"/>
</g>
<g>
	<path class="st8" d="M1568.3,162.2c-3.5,2.4-20.6,13.6-42.8,9.4c-19.5-3.6-30.5-16.6-34.3-21.3c-3.7-4.4-14.7-18.3-14.4-38.3
		c0.5-27.8,22.7-44.3,25.4-46.3L1568.3,162.2z"/>
	<path class="st13" d="M1566.8,159.2c-3.3,2.3-19.3,12.8-40.3,8.9c-18.3-3.5-28.7-15.8-32.3-20.2c-3.4-4.2-13.9-17.4-13.6-36.4
		c0.4-26.4,21.3-42,23.8-43.8L1566.8,159.2z"/>
	<path class="st10" d="M1538.6,119.6c-0.2,0.1-3.3,1.4-6-0.4c-0.4-0.3-2.6-1.7-2.7-4.5c-0.1-2.9,2.2-4.6,2.3-4.8L1538.6,119.6z"/>
	<line class="st11" x1="1482.6" y1="96.3" x2="1532.9" y2="113.2"/>
	<line class="st11" x1="1483.7" y1="128.3" x2="1534.1" y2="114.7"/>
	<line class="st11" x1="1502.6" y1="156.3" x2="1534.5" y2="116.3"/>
	<line class="st11" x1="1534.4" y1="168.7" x2="1537" y2="117.6"/>
	<polyline class="st14" points="1502.2,65.8 1523,95.1 1542.9,123.8 1564.2,155.5 1569.3,162.8 	"/>
</g>
</svg>
