<?xml version="1.0" encoding="UTF-8"?><svg id="Capa_1" xmlns="http://www.w3.org/2000/svg" viewBox="0 0 2901 1144"><defs><style>.cls-1{stroke-width:.75px;}.cls-1,.cls-2,.cls-3,.cls-4,.cls-5,.cls-6{stroke-miterlimit:10;}.cls-1,.cls-3{stroke:#febb08;}.cls-1,.cls-7{fill:#febb08;}.cls-2{stroke-width:.5px;}.cls-2,.cls-4,.cls-5,.cls-6{stroke:#fff;}.cls-2,.cls-4,.cls-8{fill:#fff;}.cls-3,.cls-4,.cls-5,.cls-6{stroke-width:2px;}.cls-3,.cls-5{fill:none;}.cls-9{fill:#fef7c9;}.cls-9,.cls-10,.cls-11,.cls-12,.cls-7,.cls-8,.cls-13,.cls-14{stroke-width:0px;}.cls-10{fill:#9ab743;}.cls-11{fill:#fdfffe;}.cls-12{fill:#fceeac;}.cls-13{fill:#ffb400;}.cls-6,.cls-14{fill:#ffd300;}</style></defs><rect class="cls-12" x="1248" width="1651.4" height="1144"/><path class="cls-10" d="M1719.5,605.8c.9.9,3.5,8.8,11.8,11.8,6.1,2.2,11.5.6,13.1,0,0,0-2.6-3.9-3.9-9.2-1.3-5.2-3.9-9.2-11.8-15.7s-15.7-1.3-14.4,1.3,3.9,10.5,5.2,11.8Z"/><path class="cls-11" d="M1715,619.8l-3.5-.4c-3.1-.3-5.4-3.1-5-6.3l7.8-69.8c.3-3.1,3.1-5.4,6.3-5l3.5.4c3.1.3,5.4,3.1,5,6.3l-7.8,69.8c-.4,3.1-3.2,5.4-6.3,5Z"/><path class="cls-11" d="M1752,602.3l-2,2.9c-1.7,2.6-5.3,3.3-7.9,1.5l-58.3-39.2c-2.6-1.7-3.3-5.3-1.5-7.9l2-2.9c1.7-2.6,5.3-3.3,7.9-1.5l58.3,39.2c2.6,1.7,3.2,5.3,1.5,7.9Z"/><path class="cls-11" d="M1753.1,562.9l1.3,3.3c1.2,2.9-.3,6.2-3.2,7.4l-65.3,26c-2.9,1.2-6.2-.3-7.4-3.2l-1.3-3.3c-1.2-2.9.3-6.2,3.2-7.4l65.3-26c2.9-1.1,6.2.3,7.4,3.2Z"/><path class="cls-3" d="M1717.9,582.4s1.3-3.9,5.2-5.2"/><circle class="cls-1" cx="1724.5" cy="575.9" r="2.6"/><path class="cls-3" d="M1717.2,581.8s-1.3-3.9-5.2-5.2"/><circle class="cls-1" cx="1710.7" cy="575.2" r="2.6"/><path class="cls-7" d="M1717.5,584.3c1.9,0,1.9-3,0-3s-1.9,3,0,3h0Z"/><line class="cls-3" x1="1717.2" y1="580.5" x2="1718.5" y2="571.3"/><circle class="cls-1" cx="1718.5" cy="570" r="2.6"/><path class="cls-10" d="M1846.8,855.9c1,.7,5,8,13.8,9.5,6.4,1,11.4-1.5,12.9-2.4,0,0-3.3-3.4-5.5-8.3-2.2-4.9-5.5-8.3-14.5-13.3-8.9-5-15.7,1.6-13.9,3.9,1.6,2.3,5.6,9.6,7.2,10.6Z"/><path class="cls-11" d="M1844.9,870.5l-3.5.3c-3.1.2-5.8-2.1-6.1-5.2l-5.1-70.1c-.2-3.1,2.1-5.8,5.2-6.1l3.5-.3c3.1-.2,5.8,2.1,6.1,5.2l5.1,70.1c.2,3.2-2.1,5.9-5.2,6.1Z"/><path class="cls-11" d="M1878,846.5l-1.4,3.2c-1.2,2.9-4.6,4.2-7.5,2.9l-64.5-27.9c-2.9-1.2-4.2-4.6-2.9-7.5l1.4-3.2c1.2-2.9,4.6-4.2,7.5-2.9l64.5,27.9c2.9,1.3,4.2,4.6,2.9,7.5Z"/><path class="cls-11" d="M1871.9,807.6l1.9,3c1.7,2.6.9,6.1-1.8,7.8l-59.4,37.5c-2.6,1.7-6.1.9-7.8-1.8l-1.9-3c-1.7-2.6-.9-6.1,1.8-7.8l59.4-37.5c2.7-1.7,6.2-.9,7.8,1.8Z"/><path class="cls-3" d="M1840.9,833.2s.6-4.1,4.2-6.1"/><circle class="cls-1" cx="1846.2" cy="825.6" r="2.6"/><path class="cls-3" d="M1840.1,832.7s-2-3.6-6.1-4.2"/><circle class="cls-1" cx="1832.5" cy="827.5" r="2.6"/><path class="cls-7" d="M1840.6,835.1c1.9,0,1.9-3,0-3s-1.9,3,0,3h0Z"/><line class="cls-3" x1="1839.9" y1="831.4" x2="1839.5" y2="822.2"/><circle class="cls-1" cx="1839.3" cy="820.9" r="2.6"/><path class="cls-10" d="M1366.1,833.3c1,.7,5,8,13.8,9.5,6.4,1,11.4-1.5,12.9-2.4,0,0-3.3-3.4-5.5-8.3-2.2-4.9-5.5-8.3-14.5-13.3s-15.7,1.6-13.9,3.9,5.7,9.5,7.2,10.6Z"/><path class="cls-11" d="M1364.2,847.9l-3.5.3c-3.1.2-5.8-2.1-6.1-5.2l-5.1-70.1c-.2-3.1,2.1-5.8,5.2-6.1l3.5-.3c3.1-.2,5.8,2.1,6.1,5.2l5.1,70.1c.3,3.1-2,5.8-5.2,6.1Z"/><path class="cls-11" d="M1397.4,823.8l-1.4,3.2c-1.2,2.9-4.6,4.2-7.5,2.9l-64.5-27.9c-2.9-1.2-4.2-4.6-2.9-7.5l1.4-3.2c1.2-2.9,4.6-4.2,7.5-2.9l64.5,27.9c2.8,1.3,4.2,4.7,2.9,7.5Z"/><path class="cls-11" d="M1391.3,784.9l1.9,3c1.7,2.6.9,6.1-1.8,7.8l-59.4,37.5c-2.6,1.7-6.1.9-7.8-1.8l-1.9-3c-1.7-2.6-.9-6.1,1.8-7.8l59.4-37.5c2.6-1.6,6.1-.8,7.8,1.8Z"/><path class="cls-3" d="M1360.3,810.6s.6-4.1,4.2-6.1"/><circle class="cls-1" cx="1365.5" cy="802.9" r="2.6"/><path class="cls-3" d="M1359.5,810.1s-2-3.6-6.1-4.2"/><circle class="cls-1" cx="1351.9" cy="804.8" r="2.6"/><path class="cls-7" d="M1360,812.5c1.9,0,1.9-3,0-3-2,0-2,3,0,3h0Z"/><line class="cls-3" x1="1359.3" y1="808.8" x2="1358.9" y2="799.5"/><circle class="cls-1" cx="1358.6" cy="798.2" r="2.6"/><path class="cls-10" d="M1687.1,1053.1c1,.7,5,8,13.8,9.5,6.4,1,11.4-1.5,12.9-2.4,0,0-3.3-3.4-5.5-8.3s-5.5-8.3-14.5-13.3c-8.9-5-15.7,1.6-13.9,3.9s5.7,9.6,7.2,10.6Z"/><path class="cls-11" d="M1685.2,1067.7l-3.5.3c-3.1.2-5.8-2.1-6.1-5.2l-5.1-70.1c-.2-3.1,2.1-5.8,5.2-6.1l3.5-.3c3.1-.2,5.8,2.1,6.1,5.2l5.1,70.1c.3,3.2-2,5.9-5.2,6.1Z"/><path class="cls-11" d="M1718.4,1043.7l-1.4,3.2c-1.2,2.9-4.6,4.2-7.5,2.9l-64.5-27.9c-2.9-1.2-4.2-4.6-2.9-7.5l1.4-3.2c1.2-2.9,4.6-4.2,7.5-2.9l64.5,27.9c2.8,1.3,4.2,4.6,2.9,7.5Z"/><path class="cls-11" d="M1712.3,1004.8l1.9,3c1.7,2.6.9,6.1-1.8,7.8l-59.4,37.5c-2.6,1.7-6.1.9-7.8-1.8l-1.9-3c-1.7-2.6-.9-6.1,1.8-7.8l59.4-37.5c2.6-1.7,6.1-.9,7.8,1.8Z"/><path class="cls-3" d="M1681.3,1030.4s.6-4.1,4.2-6.1"/><circle class="cls-1" cx="1686.5" cy="1022.8" r="2.6"/><path class="cls-3" d="M1680.5,1029.9s-2-3.6-6.1-4.2"/><path class="cls-1" d="M1672.9,1022.1c1.4,0,2.6,1.2,2.6,2.6s-1.2,2.6-2.6,2.6-2.6-1.2-2.6-2.6,1.2-2.6,2.6-2.6Z"/><path class="cls-7" d="M1681,1032.3c1.9,0,1.9-3,0-3-2,0-2,3,0,3h0Z"/><line class="cls-3" x1="1680.3" y1="1028.6" x2="1679.9" y2="1019.4"/><circle class="cls-1" cx="1679.6" cy="1018.1" r="2.6"/><path class="cls-10" d="M2171.1,999.1c1,.7,5,8,13.8,9.5,6.4,1,11.4-1.5,12.9-2.4,0,0-3.3-3.4-5.5-8.3s-5.5-8.3-14.5-13.3c-8.9-5-15.7,1.6-13.9,3.9,1.7,2.3,5.7,9.6,7.2,10.6Z"/><path class="cls-11" d="M2169.2,1013.7l-3.5.3c-3.1.2-5.8-2.1-6.1-5.2l-5.1-70.1c-.2-3.1,2.1-5.8,5.2-6.1l3.5-.3c3.1-.2,5.8,2.1,6.1,5.2l5.1,70.1c.3,3.2-2,5.9-5.2,6.1Z"/><path class="cls-11" d="M2202.4,989.7l-1.4,3.2c-1.2,2.9-4.6,4.2-7.5,2.9l-64.4-27.8c-2.9-1.2-4.2-4.6-2.9-7.5l1.4-3.2c1.2-2.9,4.6-4.2,7.5-2.9l64.5,27.9c2.7,1.2,4.1,4.5,2.8,7.4Z"/><path class="cls-11" d="M2196.3,950.8l1.9,3c1.7,2.6.9,6.1-1.8,7.8l-59.4,37.5c-2.6,1.7-6.1.9-7.8-1.8l-1.9-3c-1.7-2.6-.9-6.1,1.8-7.8l59.4-37.5c2.6-1.7,6.1-.9,7.8,1.8Z"/><path class="cls-3" d="M2165.3,976.4s.6-4.1,4.2-6.1"/><circle class="cls-1" cx="2170.5" cy="968.8" r="2.6"/><path class="cls-3" d="M2164.5,975.9s-2-3.6-6.1-4.2"/><circle class="cls-1" cx="2156.9" cy="970.7" r="2.6"/><path class="cls-7" d="M2165,978.3c1.9,0,1.9-3,0-3-2,0-2,3,0,3h0Z"/><line class="cls-3" x1="2164.3" y1="974.6" x2="2163.9" y2="965.4"/><circle class="cls-1" cx="2163.6" cy="964.1" r="2.6"/><path class="cls-10" d="M1550.2,489c.9.9,3.5,8.8,11.8,11.8,6.1,2.2,11.5.6,13.1,0,0,0-2.6-3.9-3.9-9.2s-3.9-9.2-11.8-15.7c-7.9-6.6-15.7-1.3-14.4,1.3,1.3,2.6,3.9,10.5,5.2,11.8Z"/><path class="cls-11" d="M1545.7,503l-3.5-.4c-3.1-.3-5.4-3.1-5-6.3l7.8-69.8c.3-3.1,3.1-5.4,6.3-5l3.5.4c3.1.3,5.4,3.1,5,6.3l-7.8,69.8c-.4,3.1-3.2,5.4-6.3,5Z"/><path class="cls-11" d="M1582.7,485.5l-2,2.9c-1.7,2.6-5.3,3.3-7.9,1.5l-58.3-39.2c-2.6-1.7-3.3-5.3-1.5-7.9l2-2.9c1.7-2.6,5.3-3.3,7.9-1.5l58.3,39.2c2.6,1.7,3.3,5.3,1.5,7.9Z"/><path class="cls-11" d="M1583.8,446.1l1.3,3.3c1.2,2.9-.3,6.2-3.2,7.4l-65.3,26c-2.9,1.2-6.2-.3-7.4-3.2l-1.3-3.3c-1.2-2.9.3-6.2,3.2-7.4l65.3-26c3-1.1,6.3.3,7.4,3.2Z"/><path class="cls-3" d="M1548.6,465.6s1.3-3.9,5.2-5.2"/><circle class="cls-1" cx="1555.2" cy="459.1" r="2.6"/><path class="cls-3" d="M1548,465s-1.3-3.9-5.2-5.2"/><circle class="cls-1" cx="1541.4" cy="458.4" r="2.6"/><path class="cls-7" d="M1548.2,467.5c1.9,0,1.9-3,0-3s-1.9,3,0,3h0Z"/><line class="cls-3" x1="1548" y1="463.7" x2="1549.3" y2="454.5"/><circle class="cls-1" cx="1549.3" cy="453.2" r="2.6"/><path class="cls-10" d="M1395.8,339.8c1.2,0,8.7,3.8,16.7,0,5.9-2.8,8.5-7.7,9.3-9.3,0,0-4.6-.9-9.3-3.7-4.6-2.8-9.3-3.7-19.5-2.8-10.2.9-12.1,10.2-9.3,11.1,2.8,1,10.2,4.7,12.1,4.7Z"/><path class="cls-11" d="M1402.5,352.9l-2.8,2.2c-2.4,2-6,1.6-8-.9l-43.9-54.9c-2-2.4-1.6-6,.9-8l2.8-2.2c2.4-2,6-1.6,8,.9l43.9,54.9c1.9,2.5,1.5,6-.9,8Z"/><path class="cls-11" d="M1416.2,314.3l.7,3.5c.6,3.1-1.4,6-4.5,6.7l-68.9,13.5c-3.1.6-6-1.4-6.7-4.5l-.7-3.5c-.6-3.1,1.4-6,4.5-6.7l68.9-13.5c3.1-.6,6.1,1.4,6.7,4.5Z"/><path class="cls-11" d="M1389.1,285.7l3.2,1.4c2.9,1.2,4.2,4.6,3,7.4l-27.7,64.5c-1.2,2.9-4.6,4.2-7.4,3l-3.2-1.4c-2.9-1.2-4.2-4.6-3-7.4l27.7-64.5c1.2-2.9,4.6-4.3,7.4-3Z"/><path class="cls-3" d="M1378.1,324.4s-1.9-3.7,0-7.4"/><circle class="cls-1" cx="1378.1" cy="315.1" r="2.6"/><path class="cls-3" d="M1377.2,324.4s-3.7-1.9-7.4,0"/><circle class="cls-1" cx="1367.9" cy="324.4" r="2.6"/><path class="cls-7" d="M1378,326.4c1.9,0,1.9-3,0-3s-1.9,3,0,3h0Z"/><line class="cls-3" x1="1376.2" y1="323.5" x2="1370.7" y2="316"/><circle class="cls-1" cx="1369.7" cy="315.1" r="2.6"/><path class="cls-10" d="M1607.9,157.2c.9.9,3.5,8.8,11.8,11.8,6.1,2.2,11.5.6,13.1,0,0,0-2.6-3.9-3.9-9.2-1.3-5.2-3.9-9.2-11.8-15.7-7.9-6.6-15.7-1.3-14.4,1.3,1.3,2.6,3.9,10.5,5.2,11.8Z"/><path class="cls-11" d="M1603.4,171.2l-3.5-.4c-3.1-.3-5.4-3.1-5-6.3l7.8-69.8c.3-3.1,3.1-5.4,6.3-5l3.5.4c3.1.3,5.4,3.1,5,6.3l-7.8,69.8c-.4,3.1-3.2,5.3-6.3,5Z"/><path class="cls-11" d="M1640.4,153.6l-2,2.9c-1.7,2.6-5.3,3.3-7.9,1.5l-58.3-39.2c-2.6-1.7-3.3-5.3-1.5-7.9l2-2.9c1.7-2.6,5.3-3.3,7.9-1.5l58.3,39.2c2.6,1.8,3.3,5.3,1.5,7.9Z"/><path class="cls-11" d="M1641.5,114.2l1.3,3.3c1.2,2.9-.3,6.2-3.2,7.4l-65.3,26c-2.9,1.2-6.2-.3-7.4-3.2l-1.3-3.3c-1.2-2.9.3-6.2,3.2-7.4l65.3-26c3-1.1,6.3.3,7.4,3.2Z"/><path class="cls-3" d="M1606.3,133.8s1.3-3.9,5.2-5.2"/><circle class="cls-1" cx="1612.9" cy="127.2" r="2.6"/><path class="cls-3" d="M1605.7,133.2s-1.3-3.9-5.2-5.2"/><circle class="cls-1" cx="1599.1" cy="126.6" r="2.6"/><path class="cls-7" d="M1605.9,135.6c1.9,0,1.9-3,0-3s-1.9,3,0,3h0Z"/><line class="cls-3" x1="1605.7" y1="131.8" x2="1607" y2="122.7"/><circle class="cls-1" cx="1607" cy="121.3" r="2.6"/><path class="cls-10" d="M2140.9,369.2c.9.9,3.5,8.8,11.8,11.8,6.1,2.2,11.5.6,13.1,0,0,0-2.6-3.9-3.9-9.2-1.3-5.2-3.9-9.2-11.8-15.7-7.9-6.6-15.7-1.3-14.4,1.3,1.3,2.6,3.9,10.5,5.2,11.8Z"/><path class="cls-11" d="M2136.4,383.2l-3.5-.4c-3.1-.3-5.4-3.1-5-6.3l7.8-69.8c.3-3.1,3.1-5.4,6.3-5l3.5.4c3.1.3,5.4,3.1,5,6.3l-7.8,69.8c-.4,3.1-3.2,5.3-6.3,5Z"/><path class="cls-11" d="M2173.4,365.6l-2,2.9c-1.7,2.6-5.3,3.3-7.9,1.5l-58.3-39.2c-2.6-1.7-3.3-5.3-1.5-7.9l2-2.9c1.7-2.6,5.3-3.3,7.9-1.5l58.3,39.2c2.6,1.8,3.3,5.3,1.5,7.9Z"/><path class="cls-11" d="M2174.5,326.2l1.3,3.3c1.2,2.9-.3,6.2-3.2,7.4l-65.3,26c-2.9,1.2-6.2-.3-7.4-3.2l-1.3-3.3c-1.2-2.9.3-6.2,3.2-7.4l65.3-26c3-1.1,6.3.3,7.4,3.2Z"/><path class="cls-3" d="M2139.3,345.8s1.3-3.9,5.2-5.2"/><circle class="cls-1" cx="2145.9" cy="339.2" r="2.6"/><path class="cls-3" d="M2138.7,345.2s-1.3-3.9-5.2-5.2"/><circle class="cls-1" cx="2132.1" cy="338.6" r="2.6"/><path class="cls-7" d="M2138.9,347.6c1.9,0,1.9-3,0-3s-1.9,3,0,3h0Z"/><line class="cls-3" x1="2138.7" y1="343.8" x2="2140" y2="334.7"/><circle class="cls-1" cx="2140" cy="333.3" r="2.6"/><g id="Capa_2"><path class="cls-2" d="M1465.9,599.8s3.5,4.1,5.8,4.1,8.2-3.6,8.2-3.6"/><path class="cls-13" d="M1322.9,603c-2.3-7.2-1.5-13.8-1.2-16.2,1.2-8.9,5-14.9,9.2-21.2,7.7-11.6,16.4-18.3,21.2-21.9,8.8-6.7,17-10.6,22.6-12.9,7.1-2.9,13-5.3,21.2-5.8,5.9-.4,16.7-1,26.1,5.8,8.8,6.3,11.6,15.6,14,23.9,3.6,12,2.5,22,2,25.8-.4,2.4-1.9,11.9-8,22.4-8,13.6-18.6,20.4-21.2,21.9-3.5,2.1-12.6,7.2-25.5,8.6-3.3.4-9.9.8-17.9-.7-4.1-.7-35.2-6.9-42.5-29.7Z"/><path class="cls-6" d="M1327.8,604.8c-.5-.7-.7-1.1-1.1-2.1-2.3-5.6-9.8-34,34.5-61.7,45-28.1,63-5.4,65.4-.6.3.5.6,1,.7,1.6,1.5,5.4,7.7,35.2-36.1,61.2-42.7,25.2-59.9,6.4-63.4,1.6Z"/><ellipse class="cls-8" cx="1376.51" cy="571.79" rx="9.7" ry="6.8" transform="translate(-21.87 1087.79) rotate(-42.81)"/><line class="cls-5" x1="1345.8" y1="553" x2="1409" y2="590.1"/><line class="cls-5" x1="1381.3" y1="608.8" x2="1371" y2="535.4"/><path class="cls-4" d="M1326.8,579.8c33.3-5.1,66.6-10.2,99.9-15.3"/><line class="cls-5" x1="1403" y1="527.7" x2="1351.1" y2="616"/><line class="cls-5" x1="1328.2" y1="606.2" x2="1425.3" y2="538.1"/><path class="cls-13" d="M2084.9,166c-2.4-3.5-13.6-20.6-9.4-42.8,3.6-19.5,16.6-30.5,21.3-34.3,4.4-3.7,18.3-14.7,38.3-14.4,27.8.5,44.3,22.7,46.3,25.4l-96.5,66.1Z"/><path class="cls-14" d="M2087.9,164.5c-2.3-3.3-12.8-19.3-8.9-40.3,3.5-18.3,15.8-28.7,20.2-32.3,4.2-3.4,17.4-13.9,36.4-13.6,26.4.4,42,21.3,43.8,23.8l-91.5,62.4Z"/><path class="cls-8" d="M2127.5,136.3c-.1-.2-1.4-3.3.4-6,.3-.4,1.7-2.6,4.5-2.7,2.9-.1,4.6,2.2,4.8,2.3l-9.7,6.4Z"/><line class="cls-5" x1="2150.8" y1="80.4" x2="2133.9" y2="130.7"/><line class="cls-5" x1="2118.8" y1="81.5" x2="2132.5" y2="131.8"/><line class="cls-5" x1="2090.8" y1="100.3" x2="2130.9" y2="132.2"/><line class="cls-5" x1="2078.5" y1="132.2" x2="2129.6" y2="134.7"/><polyline class="cls-9" points="2181.4 99.9 2152.1 120.7 2123.4 140.6 2091.7 162 2084.3 167"/><ellipse class="cls-13" cx="1609.8" cy="799.8" rx="53.2" ry="53.4"/><circle class="cls-6" cx="1609.5" cy="799.1" r="50.3"/><circle class="cls-8" cx="1609.9" cy="799.5" r="5.3"/><line class="cls-5" x1="1612.7" y1="749.6" x2="1606.2" y2="848.5"/><line class="cls-5" x1="1571.4" y1="831.5" x2="1647.6" y2="767.4"/><line class="cls-5" x1="1577" y1="760.9" x2="1641.1" y2="836.4"/><line class="cls-5" x1="1559.2" y1="795.8" x2="1659.8" y2="803.1"/><path class="cls-2" d="M1644.7,763.8s-.2,3.7,1,4.9,5.8,2.1,5.8,2.1"/><path class="cls-2" d="M1659.8,799.7s-3.1,2.1-3.3,3.7c-.2,1.6,1.8,5.9,1.8,5.9"/><path class="cls-2" d="M1645.2,835.4s-3.7-.6-4.9.4c-1.2,1-2.8,5.5-2.8,5.5"/><path class="cls-2" d="M1610.3,849.8s-2.1-3.1-3.7-3.3-5.9,1.7-5.9,1.7"/><path class="cls-2" d="M1574.2,835.4s.5-3.7-.6-4.9-5.6-2.6-5.6-2.6"/><path class="cls-2" d="M1573.8,764s3.7.6,4.9-.4c1.2-1,2.8-5.5,2.8-5.5"/><path class="cls-13" d="M1998.1,502c3,6.9,2.9,13.5,2.9,16-.2,9-3.4,15.4-6.9,22-6.4,12.3-14.4,19.9-18.8,24-8,7.5-15.8,12.3-21.1,15.2-6.8,3.6-12.3,6.6-20.4,8-5.8,1-16.5,2.7-26.6-3-9.4-5.4-13.2-14.3-16.5-22.3-4.9-11.6-4.9-21.6-4.7-25.4.1-2.5.6-12,5.6-23.1,6.5-14.3,16.4-22.2,18.8-24,3.2-2.5,11.7-8.5,24.4-11.2,3.2-.7,9.7-1.8,17.9-1.2,4.1.2,35.7,3.1,45.4,25Z"/><path class="cls-6" d="M1993,500.7c.5.6.8,1,1.3,2,2.9,5.3,13.3,32.8-27.9,65-41.7,32.7-62.1,12-64.9,7.5-.3-.5-.7-1-.9-1.5-1.4-3.4-5.8-16.9,2.7-34.4,4.5-9.3,12.6-19.7,26.8-30.3,39.8-29.6,58.9-12.7,62.9-8.3Z"/><ellipse class="cls-8" cx="1948.11" cy="538.73" rx="9.7" ry="6.8" transform="translate(260.73 1651.42) rotate(-48.86)"/><line class="cls-5" x1="1980.6" y1="554.1" x2="1913.8" y2="523.9"/><line class="cls-5" x1="1939.4" y1="502.4" x2="1957.4" y2="574.3"/><path class="cls-4" d="M1996.6,525.5c-32.6,8.6-65.2,17.2-97.7,25.8"/><line class="cls-5" x1="1926.4" y1="585.4" x2="1968.6" y2="492"/><line class="cls-5" x1="1992.5" y1="499.4" x2="1903.1" y2="577.3"/><path class="cls-13" d="M1950.4,984.5c7.2-2.1,13.8-1.1,16.2-.8,8.9,1.4,14.8,5.4,20.9,9.7,11.4,8,17.9,16.8,21.4,21.7,6.4,8.9,10.2,17.3,12.3,22.9,2.7,7.2,5,13.1,5.2,21.3.2,5.9.6,16.7-6.4,25.9-6.5,8.6-15.9,11.2-24.2,13.4-12.1,3.3-22.1,2-25.8,1.4-2.4-.4-11.8-2.2-22.2-8.6-13.4-8.3-19.9-19.1-21.4-21.7-2-3.5-6.9-12.8-8-25.7-.3-3.3-.5-9.9,1.1-17.9.9-3.9,7.9-34.9,30.9-41.6Z"/><path class="cls-6" d="M1948.4,989.3c.7-.5,1.1-.7,2.1-1.1,5.7-2.2,34.2-8.9,60.8,36.1,26.9,45.6,3.8,63.1-1,65.4-.5.2-1,.5-1.6.7-3.5.9-17.5,3.5-33.8-7.1-8.6-5.7-17.9-15.1-26.5-30.5-24.1-43.3-4.9-60.1,0-63.5Z"/><ellipse class="cls-8" cx="1980.23" cy="1038.94" rx="6.8" ry="9.7" transform="translate(-192.6 1567.63) rotate(-41.36)"/><line class="cls-5" x1="1999.8" y1="1008.6" x2="1961.1" y2="1070.9"/><line class="cls-5" x1="1943.1" y1="1042.8" x2="2016.7" y2="1034.3"/><path class="cls-4" d="M1973.5,989c4.3,33.4,8.5,66.8,12.8,100.3"/><line class="cls-5" x1="2023.6" y1="1066.5" x2="1936.6" y2="1012.4"/><line class="cls-5" x1="1947" y1="989.7" x2="2012.7" y2="1088.5"/><path class="cls-13" d="M1759.5,73.8c2.9-6.9,7.8-11.4,9.7-13.1,6.7-6,13.5-8,20.8-10.1,13.4-3.8,24.3-3.2,30.4-2.8,11,.7,19.8,3,25.6,5,7.3,2.4,13.3,4.4,19.8,9.4,4.7,3.6,13.3,10.1,16,21.4,2.6,10.5-1.4,19.4-4.9,27.3-5.1,11.5-12.4,18.4-15.3,20.9-1.9,1.6-9.2,7.8-20.7,11.8-14.9,5.1-27.4,3.3-30.4,2.8-4-.6-14.2-2.7-24.9-10.1-2.7-1.9-8-5.8-13.2-12.2-2.6-3.3-22.3-28.2-12.9-50.3Z"/><path class="cls-6" d="M1762,78.3c.1-.8.2-1.3.5-2.3,1.9-5.8,14.7-32.1,66.4-24.3,52.4,8,51.3,37,50,42.1-.1.6-.3,1.1-.5,1.7-1.5,3.3-8.3,15.8-26.9,21.7-9.8,3.1-23,4.3-40.4,1.3-48.8-8.7-49.6-34.2-49.1-40.2Z"/><ellipse class="cls-8" cx="1820.41" cy="85" rx="9.7" ry="6.8" transform="translate(-1.92 69.23) rotate(-2.18)"/><line class="cls-5" x1="1809.4" y1="50.8" x2="1833.2" y2="120.1"/><line class="cls-5" x1="1800" y1="116.3" x2="1840" y2="53.8"/><path class="cls-4" d="M1777.5,58.7c28.6,17.8,57.2,35.6,85.8,53.4"/><line class="cls-5" x1="1869.3" y1="68.8" x2="1772.4" y2="102.1"/><line class="cls-5" x1="1761.4" y1="79.7" x2="1879.5" y2="91.2"/><path class="cls-13" d="M1856.8,229.8c3.5-2.4,20.6-13.6,42.8-9.4,19.5,3.6,30.5,16.6,34.3,21.3,3.7,4.4,14.7,18.3,14.4,38.3-.5,27.8-22.7,44.3-25.4,46.3l-66.1-96.5Z"/><path class="cls-14" d="M1858.3,232.8c3.3-2.3,19.3-12.8,40.3-8.9,18.3,3.5,28.7,15.8,32.3,20.2,3.4,4.2,13.9,17.4,13.6,36.4-.4,26.4-21.3,42-23.8,43.8l-62.4-91.5Z"/><path class="cls-8" d="M1886.5,272.4c.2-.1,3.3-1.4,6,.4.4.3,2.6,1.7,2.7,4.5.1,2.9-2.2,4.6-2.3,4.8l-6.4-9.7Z"/><line class="cls-5" x1="1942.5" y1="295.7" x2="1892.2" y2="278.8"/><line class="cls-5" x1="1941.4" y1="263.8" x2="1891" y2="277.4"/><line class="cls-5" x1="1922.5" y1="235.7" x2="1890.6" y2="275.8"/><line class="cls-5" x1="1890.7" y1="223.4" x2="1888.1" y2="274.5"/><polyline class="cls-9" points="1922.9 326.3 1902.1 297 1882.2 268.3 1860.8 236.6 1855.8 229.2"/><path class="cls-13" d="M1427.7,54.1c3.2,2.9,17.9,16.9,18.9,39.6.9,19.8-9.3,33.5-12.9,38.3-3.5,4.6-14.5,18.5-34.1,22.7-27.2,5.8-48.3-12-50.8-14.2l78.9-86.4Z"/><path class="cls-14" d="M1425.1,56.2c3,2.7,16.9,15.9,17.8,37.2.8,18.6-8.9,31.6-12.3,36.1-3.3,4.3-13.8,17.5-32.3,21.5-25.8,5.6-45.7-11.2-48.1-13.2l74.9-81.6Z"/><path class="cls-8" d="M1393,92.7c.1.2,2.1,2.9,1,5.9-.2.5-1.1,2.9-3.8,3.6-2.8.8-5-1.1-5.2-1.2l8-8.3Z"/><line class="cls-5" x1="1383.1" y1="152.5" x2="1388.1" y2="99.6"/><line class="cls-5" x1="1413.9" y1="144.1" x2="1389.2" y2="98.2"/><line class="cls-5" x1="1436.9" y1="119.4" x2="1390.7" y2="97.5"/><line class="cls-5" x1="1441.7" y1="85.5" x2="1391.4" y2="94.7"/><polyline class="cls-9" points="1348.9 140.4 1372.7 113.4 1396 87.6 1422.1 59.5 1428.1 53"/><path class="cls-13" d="M2246.2,639.1c-3.5,2.4-20.6,13.6-42.8,9.4-19.5-3.6-30.5-16.6-34.3-21.3-3.7-4.4-14.7-18.3-14.4-38.3.5-27.8,22.7-44.3,25.4-46.3l66.1,96.5Z"/><path class="cls-14" d="M2244.7,636.1c-3.3,2.3-19.3,12.8-40.3,8.9-18.3-3.5-28.7-15.8-32.3-20.2-3.4-4.2-13.9-17.4-13.6-36.4.4-26.4,21.3-42,23.8-43.8l62.4,91.5Z"/><path class="cls-8" d="M2216.5,596.5c-.2.1-3.3,1.4-6-.4-.4-.3-2.6-1.7-2.7-4.5-.1-2.9,2.2-4.6,2.3-4.8l6.4,9.7Z"/><line class="cls-5" x1="2160.5" y1="573.2" x2="2210.8" y2="590.1"/><line class="cls-5" x1="2161.6" y1="605.2" x2="2212" y2="591.6"/><line class="cls-5" x1="2180.5" y1="633.2" x2="2212.4" y2="593.2"/><line class="cls-5" x1="2212.3" y1="645.6" x2="2214.9" y2="594.5"/><polyline class="cls-9" points="2180.1 542.7 2200.9 572 2220.8 600.7 2242.1 632.4 2247.2 639.7"/><path class="cls-13" d="M1338.7,1050.1c.8-4.2,4.9-24.1,23.6-36.9,16.3-11.2,33.4-9.8,39.3-9.2,5.7.6,23.4,2.5,37.3,17,19.3,20.1,15.3,47.4,14.7,50.7l-114.9-21.6Z"/><path class="cls-14" d="M1341.9,1051.1c.7-4,4.6-22.7,22.2-34.7,15.4-10.5,31.5-9.1,37.1-8.6,5.4.5,22.1,2.5,35.3,16.1,18.4,19,14.6,44.7,14.1,47.8l-108.7-20.6Z"/><path class="cls-8" d="M1389.8,1059.2c.1-.2,1.3-3.3,4.5-4,.5-.1,3.1-.6,5.1,1.3,2.1,2,1.7,4.8,1.7,5l-11.3-2.3Z"/><line class="cls-5" x1="1445.8" y1="1036.1" x2="1398.3" y2="1059.7"/><line class="cls-5" x1="1422.4" y1="1014.3" x2="1396.4" y2="1059.5"/><line class="cls-5" x1="1389.3" y1="1007.8" x2="1395.1" y2="1058.6"/><line class="cls-5" x1="1358" y1="1021.6" x2="1392.4" y2="1059.5"/><polyline class="cls-9" points="1453.6 1071.5 1418.1 1065.5 1383.8 1059.3 1346.3 1052 1337.5 1050.3"/><ellipse class="cls-13" cx="2060.3" cy="770.9" rx="53.2" ry="53.4"/><circle class="cls-6" cx="2060" cy="770.2" r="50.3"/><circle class="cls-8" cx="2060.4" cy="770.6" r="5.3"/><line class="cls-5" x1="2063.2" y1="720.7" x2="2056.7" y2="819.7"/><line class="cls-5" x1="2021.8" y1="802.6" x2="2098.1" y2="738.6"/><line class="cls-5" x1="2027.5" y1="732.1" x2="2091.6" y2="807.5"/><line class="cls-5" x1="2009.7" y1="767" x2="2110.2" y2="774.3"/><path class="cls-2" d="M2095.2,735s-.2,3.7,1,4.9c1.2,1.1,5.8,2.1,5.8,2.1"/><path class="cls-2" d="M2110.2,770.9s-3.1,2.1-3.3,3.7c-.2,1.6,1.8,5.9,1.8,5.9"/><path class="cls-2" d="M2095.7,806.5s-3.7-.6-4.9.4-2.8,5.5-2.8,5.5"/><path class="cls-2" d="M2060.8,820.9s-2.1-3.1-3.7-3.3c-1.6-.2-5.9,1.7-5.9,1.7"/><path class="cls-2" d="M2024.7,806.6s.5-3.7-.6-4.9-5.6-2.6-5.6-2.6"/><path class="cls-2" d="M2024.3,735.2s3.7.6,4.9-.4,2.8-5.5,2.8-5.5"/><ellipse class="cls-13" cx="1690.3" cy="335.6" rx="53.2" ry="53.4"/><circle class="cls-6" cx="1690" cy="334.9" r="50.3"/><circle class="cls-8" cx="1690.4" cy="335.3" r="5.3"/><line class="cls-5" x1="1693.2" y1="285.5" x2="1686.7" y2="384.4"/><line class="cls-5" x1="1651.8" y1="367.4" x2="1728.1" y2="303.3"/><line class="cls-5" x1="1657.5" y1="296.8" x2="1721.6" y2="372.2"/><line class="cls-5" x1="1639.7" y1="331.7" x2="1740.2" y2="339"/><path class="cls-2" d="M1725.2,299.7s-.2,3.7,1,4.9,5.8,2.1,5.8,2.1"/><path class="cls-2" d="M1740.2,335.6s-3.1,2.1-3.3,3.7c-.2,1.6,1.8,5.9,1.8,5.9"/><path class="cls-2" d="M1725.7,371.2s-3.7-.6-4.9.4c-1.2,1-2.8,5.5-2.8,5.5"/><path class="cls-2" d="M1690.8,385.7s-2.1-3.1-3.7-3.3-5.9,1.7-5.9,1.7"/><path class="cls-2" d="M1654.7,371.3s.5-3.7-.6-4.9c-1.1-1.2-5.6-2.6-5.6-2.6"/><path class="cls-2" d="M1654.3,299.9s3.7.6,4.9-.4c1.2-1,2.8-5.5,2.8-5.5"/></g><path class="cls-10" d="M2686.9,612.8c.9.9,3.5,8.8,11.8,11.8,6.1,2.2,11.5.6,13.1,0,0,0-2.6-3.9-3.9-9.2-1.3-5.2-3.9-9.2-11.8-15.7s-15.7-1.3-14.4,1.3,3.9,10.5,5.2,11.8Z"/><path class="cls-11" d="M2682.4,626.8l-3.5-.4c-3.1-.3-5.4-3.1-5-6.3l7.8-69.8c.3-3.1,3.1-5.4,6.3-5l3.5.4c3.1.3,5.4,3.1,5,6.3l-7.8,69.8c-.4,3.1-3.2,5.4-6.3,5Z"/><path class="cls-11" d="M2719.4,609.3l-2,2.9c-1.7,2.6-5.3,3.3-7.9,1.5l-58.3-39.2c-2.6-1.7-3.3-5.3-1.5-7.9l2-2.9c1.7-2.6,5.3-3.3,7.9-1.5l58.3,39.2c2.6,1.7,3.2,5.3,1.5,7.9Z"/><path class="cls-11" d="M2720.5,569.9l1.3,3.3c1.2,2.9-.3,6.2-3.2,7.4l-65.3,26c-2.9,1.2-6.2-.3-7.4-3.2l-1.3-3.3c-1.2-2.9.3-6.2,3.2-7.4l65.3-26c2.9-1.1,6.2.3,7.4,3.2Z"/><path class="cls-3" d="M2685.3,589.4s1.3-3.9,5.2-5.2"/><circle class="cls-1" cx="2691.9" cy="582.9" r="2.6"/><path class="cls-3" d="M2684.6,588.8s-1.3-3.9-5.2-5.2"/><circle class="cls-1" cx="2678.1" cy="582.2" r="2.6"/><path class="cls-7" d="M2684.9,591.3c1.9,0,1.9-3,0-3s-1.9,3,0,3h0Z"/><line class="cls-3" x1="2684.6" y1="587.5" x2="2685.9" y2="578.3"/><circle class="cls-1" cx="2685.9" cy="577" r="2.6"/><path class="cls-10" d="M2814.2,862.9c1,.7,5,8,13.8,9.5,6.4,1,11.4-1.5,12.9-2.4,0,0-3.3-3.4-5.5-8.3-2.2-4.9-5.5-8.3-14.5-13.3-8.9-5-15.7,1.6-13.9,3.9,1.6,2.3,5.6,9.6,7.2,10.6Z"/><path class="cls-11" d="M2812.3,877.5l-3.5.3c-3.1.2-5.8-2.1-6.1-5.2l-5.1-70.1c-.2-3.1,2.1-5.8,5.2-6.1l3.5-.3c3.1-.2,5.8,2.1,6.1,5.2l5.1,70.1c.2,3.2-2.1,5.9-5.2,6.1Z"/><path class="cls-11" d="M2845.4,853.5l-1.4,3.2c-1.2,2.9-4.6,4.2-7.5,2.9l-64.5-27.9c-2.9-1.2-4.2-4.6-2.9-7.5l1.4-3.2c1.2-2.9,4.6-4.2,7.5-2.9l64.5,27.9c2.9,1.3,4.2,4.6,2.9,7.5Z"/><path class="cls-11" d="M2839.3,814.6l1.9,3c1.7,2.6.9,6.1-1.8,7.8l-59.4,37.5c-2.6,1.7-6.1.9-7.8-1.8l-1.9-3c-1.7-2.6-.9-6.1,1.8-7.8l59.4-37.5c2.7-1.7,6.2-.9,7.8,1.8Z"/><path class="cls-3" d="M2808.3,840.2s.6-4.1,4.2-6.1"/><circle class="cls-1" cx="2813.6" cy="832.6" r="2.6"/><path class="cls-3" d="M2807.5,839.7s-2-3.6-6.1-4.2"/><circle class="cls-1" cx="2799.9" cy="834.5" r="2.6"/><path class="cls-7" d="M2808,842.1c1.9,0,1.9-3,0-3s-1.9,3,0,3h0Z"/><line class="cls-3" x1="2807.3" y1="838.4" x2="2806.9" y2="829.2"/><circle class="cls-1" cx="2806.7" cy="827.9" r="2.6"/><path class="cls-10" d="M2333.5,840.3c1,.7,5,8,13.8,9.5,6.4,1,11.4-1.5,12.9-2.4,0,0-3.3-3.4-5.5-8.3-2.2-4.9-5.5-8.3-14.5-13.3s-15.7,1.6-13.9,3.9c1.8,2.3,5.7,9.5,7.2,10.6Z"/><path class="cls-11" d="M2331.6,854.9l-3.5.3c-3.1.2-5.8-2.1-6.1-5.2l-5.1-70.1c-.2-3.1,2.1-5.8,5.2-6.1l3.5-.3c3.1-.2,5.8,2.1,6.1,5.2l5.1,70.1c.3,3.1-2,5.8-5.2,6.1Z"/><path class="cls-11" d="M2364.8,830.8l-1.4,3.2c-1.2,2.9-4.6,4.2-7.5,2.9l-64.5-27.9c-2.9-1.2-4.2-4.6-2.9-7.5l1.4-3.2c1.2-2.9,4.6-4.2,7.5-2.9l64.5,27.9c2.8,1.3,4.2,4.7,2.9,7.5Z"/><path class="cls-11" d="M2358.7,791.9l1.9,3c1.7,2.6.9,6.1-1.8,7.8l-59.4,37.5c-2.6,1.7-6.1.9-7.8-1.8l-1.9-3c-1.7-2.6-.9-6.1,1.8-7.8l59.4-37.5c2.6-1.6,6.1-.8,7.8,1.8Z"/><path class="cls-3" d="M2327.7,817.6s.6-4.1,4.2-6.1"/><circle class="cls-1" cx="2332.9" cy="809.9" r="2.6"/><path class="cls-3" d="M2326.9,817.1s-2-3.6-6.1-4.2"/><circle class="cls-1" cx="2319.3" cy="811.8" r="2.6"/><path class="cls-7" d="M2327.4,819.5c1.9,0,1.9-3,0-3-2,0-2,3,0,3h0Z"/><line class="cls-3" x1="2326.7" y1="815.8" x2="2326.3" y2="806.5"/><circle class="cls-1" cx="2326" cy="805.2" r="2.6"/><path class="cls-10" d="M2654.5,1060.1c1,.7,5,8,13.8,9.5,6.4,1,11.4-1.5,12.9-2.4,0,0-3.3-3.4-5.5-8.3s-5.5-8.3-14.5-13.3c-8.9-5-15.7,1.6-13.9,3.9s5.7,9.6,7.2,10.6Z"/><path class="cls-11" d="M2652.6,1074.7l-3.5.3c-3.1.2-5.8-2.1-6.1-5.2l-5.1-70.1c-.2-3.1,2.1-5.8,5.2-6.1l3.5-.3c3.1-.2,5.8,2.1,6.1,5.2l5.1,70.1c.3,3.2-2,5.9-5.2,6.1Z"/><path class="cls-11" d="M2685.8,1050.7l-1.4,3.2c-1.2,2.9-4.6,4.2-7.5,2.9l-64.5-27.9c-2.9-1.2-4.2-4.6-2.9-7.5l1.4-3.2c1.2-2.9,4.6-4.2,7.5-2.9l64.5,27.9c2.8,1.3,4.2,4.6,2.9,7.5Z"/><path class="cls-11" d="M2679.7,1011.8l1.9,3c1.7,2.6.9,6.1-1.8,7.8l-59.4,37.5c-2.6,1.7-6.1.9-7.8-1.8l-1.9-3c-1.7-2.6-.9-6.1,1.8-7.8l59.4-37.5c2.6-1.7,6.1-.9,7.8,1.8Z"/><path class="cls-3" d="M2648.7,1037.4s.6-4.1,4.2-6.1"/><circle class="cls-1" cx="2653.9" cy="1029.8" r="2.6"/><path class="cls-3" d="M2647.9,1036.9s-2-3.6-6.1-4.2"/><path class="cls-1" d="M2640.3,1029.1c1.4,0,2.6,1.2,2.6,2.6s-1.2,2.6-2.6,2.6-2.6-1.2-2.6-2.6,1.2-2.6,2.6-2.6Z"/><path class="cls-7" d="M2648.4,1039.3c1.9,0,1.9-3,0-3-2,0-2,3,0,3h0Z"/><line class="cls-3" x1="2647.7" y1="1035.6" x2="2647.3" y2="1026.4"/><circle class="cls-1" cx="2647" cy="1025.1" r="2.6"/><path class="cls-10" d="M2517.6,496c.9.9,3.5,8.8,11.8,11.8,6.1,2.2,11.5.6,13.1,0,0,0-2.6-3.9-3.9-9.2-1.3-5.3-3.9-9.2-11.8-15.7-7.9-6.6-15.7-1.3-14.4,1.3,1.3,2.6,3.9,10.5,5.2,11.8Z"/><path class="cls-11" d="M2513.1,510l-3.5-.4c-3.1-.3-5.4-3.1-5-6.3l7.8-69.8c.3-3.1,3.1-5.4,6.3-5l3.5.4c3.1.3,5.4,3.1,5,6.3l-7.8,69.8c-.4,3.1-3.2,5.4-6.3,5Z"/><path class="cls-11" d="M2550.1,492.5l-2,2.9c-1.7,2.6-5.3,3.3-7.9,1.5l-58.3-39.2c-2.6-1.7-3.3-5.3-1.5-7.9l2-2.9c1.7-2.6,5.3-3.3,7.9-1.5l58.3,39.2c2.6,1.7,3.3,5.3,1.5,7.9Z"/><path class="cls-11" d="M2551.2,453.1l1.3,3.3c1.2,2.9-.3,6.2-3.2,7.4l-65.3,26c-2.9,1.2-6.2-.3-7.4-3.2l-1.3-3.3c-1.2-2.9.3-6.2,3.2-7.4l65.3-26c3-1.1,6.3.3,7.4,3.2Z"/><path class="cls-3" d="M2516,472.6s1.3-3.9,5.2-5.2"/><circle class="cls-1" cx="2522.6" cy="466.1" r="2.6"/><path class="cls-3" d="M2515.4,472s-1.3-3.9-5.2-5.2"/><circle class="cls-1" cx="2508.8" cy="465.4" r="2.6"/><path class="cls-7" d="M2515.6,474.5c1.9,0,1.9-3,0-3s-1.9,3,0,3h0Z"/><line class="cls-3" x1="2515.4" y1="470.7" x2="2516.7" y2="461.5"/><circle class="cls-1" cx="2516.7" cy="460.2" r="2.6"/><path class="cls-10" d="M2363.2,346.8c1.2,0,8.7,3.8,16.7,0,5.9-2.8,8.5-7.7,9.3-9.3,0,0-4.6-.9-9.3-3.7-4.6-2.8-9.3-3.7-19.5-2.8-10.2.9-12.1,10.2-9.3,11.1,2.8,1,10.2,4.7,12.1,4.7Z"/><path class="cls-11" d="M2369.9,359.9l-2.8,2.2c-2.4,2-6,1.6-8-.9l-43.9-54.9c-2-2.4-1.6-6,.9-8l2.8-2.2c2.4-2,6-1.6,8,.9l43.9,54.9c1.9,2.5,1.5,6-.9,8Z"/><path class="cls-11" d="M2383.6,321.3l.7,3.5c.6,3.1-1.4,6-4.5,6.7l-68.9,13.5c-3.1.6-6-1.4-6.7-4.5l-.7-3.5c-.6-3.1,1.4-6,4.5-6.7l68.9-13.5c3.1-.6,6.1,1.4,6.7,4.5Z"/><path class="cls-11" d="M2356.5,292.7l3.2,1.4c2.9,1.2,4.2,4.6,3,7.4l-27.7,64.5c-1.2,2.9-4.6,4.2-7.4,3l-3.2-1.4c-2.9-1.2-4.2-4.6-3-7.4l27.7-64.5c1.2-2.9,4.6-4.3,7.4-3Z"/><path class="cls-3" d="M2345.5,331.4s-1.9-3.7,0-7.4"/><circle class="cls-1" cx="2345.5" cy="322.1" r="2.6"/><path class="cls-3" d="M2344.6,331.4s-3.7-1.9-7.4,0"/><circle class="cls-1" cx="2335.3" cy="331.4" r="2.6"/><path class="cls-7" d="M2345.4,333.4c1.9,0,1.9-3,0-3s-1.9,3,0,3h0Z"/><line class="cls-3" x1="2343.6" y1="330.5" x2="2338.1" y2="323"/><circle class="cls-1" cx="2337.1" cy="322.1" r="2.6"/><path class="cls-10" d="M2575.3,164.2c.9.9,3.5,8.8,11.8,11.8,6.1,2.2,11.5.6,13.1,0,0,0-2.6-3.9-3.9-9.2-1.3-5.2-3.9-9.2-11.8-15.7-7.9-6.6-15.7-1.3-14.4,1.3,1.3,2.6,3.9,10.5,5.2,11.8Z"/><path class="cls-11" d="M2570.8,178.2l-3.5-.4c-3.1-.3-5.4-3.1-5-6.3l7.8-69.8c.3-3.1,3.1-5.4,6.3-5l3.5.4c3.1.3,5.4,3.1,5,6.3l-7.8,69.8c-.4,3.1-3.2,5.3-6.3,5Z"/><path class="cls-11" d="M2607.8,160.6l-2,2.9c-1.7,2.6-5.3,3.3-7.9,1.5l-58.3-39.2c-2.6-1.7-3.3-5.3-1.5-7.9l2-2.9c1.7-2.6,5.3-3.3,7.9-1.5l58.3,39.2c2.6,1.8,3.3,5.3,1.5,7.9Z"/><path class="cls-11" d="M2608.9,121.2l1.3,3.3c1.2,2.9-.3,6.2-3.2,7.4l-65.3,26c-2.9,1.2-6.2-.3-7.4-3.2l-1.3-3.3c-1.2-2.9.3-6.2,3.2-7.4l65.3-26c3-1.1,6.3.3,7.4,3.2Z"/><path class="cls-3" d="M2573.7,140.8s1.3-3.9,5.2-5.2"/><circle class="cls-1" cx="2580.3" cy="134.2" r="2.6"/><path class="cls-3" d="M2573.1,140.2s-1.3-3.9-5.2-5.2"/><circle class="cls-1" cx="2566.5" cy="133.6" r="2.6"/><path class="cls-7" d="M2573.3,142.6c1.9,0,1.9-3,0-3s-1.9,3,0,3h0Z"/><line class="cls-3" x1="2573.1" y1="138.8" x2="2574.4" y2="129.7"/><circle class="cls-1" cx="2574.4" cy="128.3" r="2.6"/><ellipse class="cls-13" cx="2438.2" cy="666.1" rx="53.2" ry="53.4"/><circle class="cls-6" cx="2437.9" cy="665.4" r="50.3"/><circle class="cls-8" cx="2438.3" cy="665.8" r="5.3"/><line class="cls-5" x1="2441.1" y1="615.9" x2="2434.6" y2="714.9"/><line class="cls-5" x1="2399.7" y1="697.8" x2="2476" y2="633.8"/><line class="cls-5" x1="2405.4" y1="627.3" x2="2469.5" y2="702.7"/><line class="cls-5" x1="2387.6" y1="662.2" x2="2488.1" y2="669.5"/><path class="cls-2" d="M2473.1,630.2s-.2,3.7,1,4.9c1.2,1.1,5.8,2.1,5.8,2.1"/><path class="cls-2" d="M2488.1,666.1s-3.1,2.1-3.3,3.7c-.2,1.6,1.8,5.9,1.8,5.9"/><path class="cls-2" d="M2473.6,701.7s-3.7-.6-4.9.4c-1.2,1-2.8,5.5-2.8,5.5"/><path class="cls-2" d="M2438.7,716.1s-2.1-3.1-3.7-3.3-5.9,1.7-5.9,1.7"/><path class="cls-2" d="M2402.6,701.8s.5-3.7-.6-4.9-5.6-2.6-5.6-2.6"/><path class="cls-2" d="M2402.2,630.4s3.7.6,4.9-.4c1.2-1,2.8-5.5,2.8-5.5"/><ellipse class="cls-13" cx="2640" cy="860.6" rx="53.2" ry="53.4"/><circle class="cls-6" cx="2639.7" cy="859.9" r="50.3"/><circle class="cls-8" cx="2640.1" cy="860.3" r="5.3"/><line class="cls-5" x1="2642.9" y1="810.4" x2="2636.4" y2="909.4"/><line class="cls-5" x1="2601.5" y1="892.3" x2="2677.8" y2="828.3"/><line class="cls-5" x1="2607.2" y1="821.8" x2="2671.3" y2="897.2"/><line class="cls-5" x1="2589.4" y1="856.7" x2="2689.9" y2="864"/><path class="cls-2" d="M2674.9,824.7s-.2,3.7,1,4.9c1.2,1.1,5.8,2.1,5.8,2.1"/><path class="cls-2" d="M2689.9,860.6s-3.1,2.1-3.3,3.7c-.2,1.6,1.8,5.9,1.8,5.9"/><path class="cls-2" d="M2675.4,896.2s-3.7-.6-4.9.4c-1.2,1-2.8,5.5-2.8,5.5"/><path class="cls-2" d="M2640.5,910.6s-2.1-3.1-3.7-3.3-5.9,1.7-5.9,1.7"/><path class="cls-2" d="M2604.4,896.3s.5-3.7-.6-4.9-5.6-2.6-5.6-2.6"/><path class="cls-2" d="M2604,824.9s3.7.6,4.9-.4c1.2-1,2.8-5.5,2.8-5.5"/><ellipse class="cls-13" cx="2369.2" cy="133.46" rx="53.2" ry="53.4"/><circle class="cls-6" cx="2368.9" cy="132.76" r="50.3"/><circle class="cls-8" cx="2369.3" cy="133.16" r="5.3"/><line class="cls-5" x1="2372.1" y1="83.26" x2="2365.6" y2="182.26"/><line class="cls-5" x1="2330.7" y1="165.16" x2="2407" y2="101.16"/><line class="cls-5" x1="2336.4" y1="94.66" x2="2400.5" y2="170.06"/><line class="cls-5" x1="2318.6" y1="129.56" x2="2419.1" y2="136.86"/><path class="cls-2" d="M2404.1,97.56s-.2,3.7,1,4.9c1.2,1.1,5.8,2.1,5.8,2.1"/><path class="cls-2" d="M2419.1,133.46s-3.1,2.1-3.3,3.7c-.2,1.6,1.8,5.9,1.8,5.9"/><path class="cls-2" d="M2404.6,169.06s-3.7-.6-4.9.4c-1.2,1-2.8,5.5-2.8,5.5"/><path class="cls-2" d="M2369.7,183.46s-2.1-3.1-3.7-3.3-5.9,1.7-5.9,1.7"/><path class="cls-2" d="M2333.6,169.16s.5-3.7-.6-4.9-5.6-2.6-5.6-2.6"/><path class="cls-2" d="M2333.2,97.76s3.7.6,4.9-.4c1.2-1,2.8-5.5,2.8-5.5"/><path class="cls-13" d="M2441.1,1052.2c-3.5,2.4-20.6,13.6-42.8,9.4-19.5-3.6-30.5-16.6-34.3-21.3-3.7-4.4-14.7-18.3-14.4-38.3.5-27.8,22.7-44.3,25.4-46.3l66.1,96.5Z"/><path class="cls-14" d="M2439.6,1049.2c-3.3,2.3-19.3,12.8-40.3,8.9-18.3-3.5-28.7-15.8-32.3-20.2-3.4-4.2-13.9-17.4-13.6-36.4.4-26.4,21.3-42,23.8-43.8l62.4,91.5Z"/><path class="cls-8" d="M2411.4,1009.6c-.2.1-3.3,1.4-6-.4-.4-.3-2.6-1.7-2.7-4.5-.1-2.9,2.2-4.6,2.3-4.8l6.4,9.7Z"/><line class="cls-5" x1="2355.4" y1="986.3" x2="2405.7" y2="1003.2"/><line class="cls-5" x1="2356.5" y1="1018.3" x2="2406.9" y2="1004.7"/><line class="cls-5" x1="2375.4" y1="1046.3" x2="2407.3" y2="1006.3"/><line class="cls-5" x1="2407.2" y1="1058.7" x2="2409.8" y2="1007.6"/><polyline class="cls-9" points="2375 955.8 2395.8 985.1 2415.7 1013.8 2437 1045.5 2442.1 1052.8"/><path class="cls-13" d="M2582.35,387.68c-3.5,2.4-20.6,13.6-42.8,9.4-19.5-3.6-30.5-16.6-34.3-21.3-3.7-4.4-14.7-18.3-14.4-38.3.5-27.8,22.7-44.3,25.4-46.3l66.1,96.5Z"/><path class="cls-14" d="M2580.85,384.68c-3.3,2.3-19.3,12.8-40.3,8.9-18.3-3.5-28.7-15.8-32.3-20.2-3.4-4.2-13.9-17.4-13.6-36.4.4-26.4,21.3-42,23.8-43.8l62.4,91.5Z"/><path class="cls-8" d="M2552.65,345.08c-.2.1-3.3,1.4-6-.4-.4-.3-2.6-1.7-2.7-4.5-.1-2.9,2.2-4.6,2.3-4.8l6.4,9.7Z"/><line class="cls-5" x1="2496.65" y1="321.78" x2="2546.95" y2="338.68"/><line class="cls-5" x1="2497.75" y1="353.78" x2="2548.15" y2="340.18"/><line class="cls-5" x1="2516.65" y1="381.78" x2="2548.55" y2="341.78"/><line class="cls-5" x1="2548.45" y1="394.18" x2="2551.05" y2="343.08"/><polyline class="cls-9" points="2516.25 291.28 2537.05 320.58 2556.95 349.28 2578.25 380.98 2583.35 388.28"/><path class="cls-13" d="M2898.4,450.9c-4.2-.1-24.7-.8-40.3-17.1-13.8-14.2-15.3-31.2-15.6-37.2-.5-5.7-1.4-23.4,10.4-39.6,16.5-22.4,44.1-23,47.5-23.1l-2,117Z"/><path class="cls-14" d="M2898.9,447.6c-4,0-23.1-.7-38-16.1-12.9-13.4-14.3-29.5-14.7-35.2-.3-5.4-1.3-22.2,10-37.6,15.6-21.3,41.7-21.9,44.8-21.9l-2.1,110.8Z"/><path class="cls-8" d="M2898.8,399c-.2,0-3.5-.8-4.7-3.8-.2-.5-1.1-2.9.4-5.2,1.6-2.4,4.5-2.5,4.7-2.6l-.4,11.6Z"/><line class="cls-5" x1="2866.6" y1="347.6" x2="2897.9" y2="390.5"/><line class="cls-5" x1="2849" y1="374.3" x2="2898" y2="392.4"/><line class="cls-5" x1="2848.2" y1="408.1" x2="2897.4" y2="393.9"/><line class="cls-5" x1="2867" y1="436.6" x2="2898.7" y2="396.5"/><polyline class="cls-9" points="2900.3 334.1 2900.3 370 2899.9 404.9 2898.9 443.1 2898.9 452"/><path class="cls-13" d="M2893.5,1132.9c-4.2-.1-24.7-.8-40.3-17.1-13.8-14.2-15.3-31.2-15.6-37.2-.5-5.7-1.4-23.4,10.4-39.6,16.5-22.4,44.1-23,47.5-23.1l-2,117Z"/><path class="cls-14" d="M2894,1129.6c-4,0-23.1-.7-38-16.1-12.9-13.4-14.3-29.5-14.7-35.2-.3-5.4-1.3-22.2,10-37.6,15.6-21.3,41.7-21.9,44.8-21.9l-2.1,110.8Z"/><path class="cls-8" d="M2893.9,1081c-.2,0-3.5-.8-4.7-3.8-.2-.5-1.1-2.9.4-5.2,1.6-2.4,4.5-2.5,4.7-2.6l-.4,11.6Z"/><line class="cls-5" x1="2861.7" y1="1029.6" x2="2893" y2="1072.5"/><line class="cls-5" x1="2844.1" y1="1056.3" x2="2893.1" y2="1074.4"/><line class="cls-5" x1="2843.3" y1="1090.1" x2="2892.5" y2="1075.9"/><line class="cls-5" x1="2862.1" y1="1118.6" x2="2893.8" y2="1078.4"/><polyline class="cls-9" points="2895.3 1016.1 2895.4 1052 2895 1086.9 2894 1125.1 2893.9 1134"/><path class="cls-13" d="M2814.3,164.2c-3.5,2.4-20.6,13.6-42.8,9.4-19.5-3.6-30.5-16.6-34.3-21.3-3.7-4.4-14.7-18.3-14.4-38.3.5-27.8,22.7-44.3,25.4-46.3l66.1,96.5Z"/><path class="cls-14" d="M2812.8,161.2c-3.3,2.3-19.3,12.8-40.3,8.9-18.3-3.5-28.7-15.8-32.3-20.2-3.4-4.2-13.9-17.4-13.6-36.4.4-26.4,21.3-42,23.8-43.8l62.4,91.5Z"/><path class="cls-8" d="M2784.6,121.6c-.2.1-3.3,1.4-6-.4-.4-.3-2.6-1.7-2.7-4.5-.1-2.9,2.2-4.6,2.3-4.8l6.4,9.7Z"/><line class="cls-5" x1="2728.6" y1="98.3" x2="2778.9" y2="115.2"/><line class="cls-5" x1="2729.7" y1="130.3" x2="2780.1" y2="116.7"/><line class="cls-5" x1="2748.6" y1="158.3" x2="2780.5" y2="118.3"/><line class="cls-5" x1="2780.4" y1="170.7" x2="2783" y2="119.6"/><polyline class="cls-9" points="2748.2 67.8 2769 97.1 2788.9 125.8 2810.2 157.5 2815.3 164.8"/></svg>