<svg width="429" height="56" viewBox="0 0 429 56" fill="none" xmlns="http://www.w3.org/2000/svg">
<path d="M12 12.7C12 12.46 13.64 12.34 16.92 12.34C20.24 12.34 21.9 12.44 21.9 12.64V22.06C21.9 22.38 20.24 22.54 16.92 22.54C13.64 22.54 12 22.44 12 22.24V12.7ZM17.88 24.82C21.04 24.82 22.62 25.2 22.62 25.96V28.24C22.62 30.04 21.12 32.34 18.12 35.14C17 36.18 15.96 37.36 15 38.68C14.08 40 13.62 41.2 13.62 42.28C13.62 44.28 14.76 45.28 17.04 45.28C19.36 45.28 21.68 44.52 24 43C25.52 44.52 26.6 46.24 27.24 48.16C27.44 48.8 27.54 49.36 27.54 49.84C27.54 50.36 27.44 50.84 27.24 51.28C26.84 52.32 25.32 53.3 22.68 54.22C20.08 55.14 17.3 55.6 14.34 55.6C9.86 55.6 6.5 54.64 4.26 52.72C2.02 50.8 0.9 48.18 0.9 44.86C0.9 43.34 1.26 41.86 1.98 40.42C2.74 38.94 3.64 37.66 4.68 36.58C5.72 35.46 6.76 34.4 7.8 33.4C10.36 31.08 11.64 29.28 11.64 28V26.2C11.64 25.72 12.38 25.38 13.86 25.18C15.38 24.94 16.72 24.82 17.88 24.82ZM33.8391 22.06C33.8391 14.94 35.6191 9.56 39.1791 5.92C42.7791 2.28 47.3991 0.459997 53.0391 0.459997C58.7191 0.459997 63.2991 2.26 66.7791 5.86C70.2591 9.42 71.9991 14.82 71.9991 22.06C71.9991 27.62 70.9191 32.1 68.7591 35.5C66.5991 38.9 63.6391 41.24 59.8791 42.52L66.2391 46.9C66.4791 47.06 66.5991 47.34 66.5991 47.74C66.5991 48.18 66.1391 48.98 65.2191 50.14C64.3391 51.3 63.2591 52.18 61.9791 52.78C60.7391 53.42 59.7991 53.74 59.1591 53.74C58.5191 53.74 57.9991 53.52 57.5991 53.08L48.8391 43.36C44.3591 42.52 40.7391 40.28 37.9791 36.64C35.2191 32.96 33.8391 28.1 33.8391 22.06ZM52.9191 11.98C50.9991 11.98 49.3791 12.86 48.0591 14.62C46.7791 16.38 46.1391 18.86 46.1391 22.06C46.1391 25.22 46.7591 27.66 47.9991 29.38C49.2391 31.06 50.8591 31.9 52.8591 31.9C54.8991 31.9 56.5391 31.04 57.7791 29.32C59.0591 27.6 59.6991 25.14 59.6991 21.94C59.6991 18.74 59.0391 16.28 57.7191 14.56C56.4391 12.84 54.8391 11.98 52.9191 11.98ZM76.8023 13.36C76.8023 12.92 78.5223 12.7 81.9623 12.7C85.4023 12.7 87.1223 12.92 87.1223 13.36V30.88C87.1223 32.88 87.7623 33.88 89.0423 33.88C90.0023 33.88 91.0823 33.46 92.2823 32.62V13.36C92.2823 12.96 93.9823 12.76 97.3823 12.76C100.782 12.76 102.482 12.96 102.482 13.36V33.04H104.042C105.402 33.04 106.082 34.34 106.082 36.94C106.082 38.26 105.802 39.6 105.242 40.96C104.442 42.72 103.362 43.6 102.002 43.6C99.3223 43.6 97.3423 42.5 96.0623 40.3L96.0023 40.36C93.5623 42.52 90.9423 43.6 88.1423 43.6C84.2623 43.6 81.4023 42.64 79.5623 40.72C77.7223 38.76 76.8023 35.54 76.8023 31.06V13.36ZM132.419 41.38C129.899 42.86 126.659 43.6 122.699 43.6C118.739 43.6 115.399 42.26 112.679 39.58C109.959 36.86 108.599 33.12 108.599 28.36C108.599 23.56 109.899 19.7 112.499 16.78C115.139 13.86 118.459 12.4 122.459 12.4C126.459 12.4 129.539 13.42 131.699 15.46C133.899 17.5 134.999 19.98 134.999 22.9C134.999 29.38 131.279 32.62 123.839 32.62H119.699C119.699 33.82 120.019 34.66 120.659 35.14C121.339 35.58 122.319 35.8 123.599 35.8C126.399 35.8 129.059 35.16 131.579 33.88C131.619 33.84 131.799 34.12 132.119 34.72C133.079 36.44 133.559 37.9 133.559 39.1C133.559 40.26 133.179 41.02 132.419 41.38ZM124.919 24.04C124.919 22.36 124.099 21.52 122.459 21.52C121.699 21.52 121.039 21.76 120.479 22.24C119.959 22.68 119.699 23.34 119.699 24.22V26.08H122.939C124.259 26.08 124.919 25.4 124.919 24.04ZM172.907 41.38C170.387 42.86 167.147 43.6 163.187 43.6C159.227 43.6 155.887 42.26 153.167 39.58C150.447 36.86 149.087 33.12 149.087 28.36C149.087 23.56 150.387 19.7 152.987 16.78C155.627 13.86 158.947 12.4 162.947 12.4C166.947 12.4 170.027 13.42 172.187 15.46C174.387 17.5 175.487 19.98 175.487 22.9C175.487 29.38 171.767 32.62 164.327 32.62H160.187C160.187 33.82 160.507 34.66 161.147 35.14C161.827 35.58 162.807 35.8 164.087 35.8C166.887 35.8 169.547 35.16 172.067 33.88C172.107 33.84 172.287 34.12 172.607 34.72C173.567 36.44 174.047 37.9 174.047 39.1C174.047 40.26 173.667 41.02 172.907 41.38ZM165.407 24.04C165.407 22.36 164.587 21.52 162.947 21.52C162.187 21.52 161.527 21.76 160.967 22.24C160.447 22.68 160.187 23.34 160.187 24.22V26.08H163.427C164.747 26.08 165.407 25.4 165.407 24.04ZM180.667 32.2C183.907 34.16 186.467 35.14 188.347 35.14C189.547 35.14 190.147 34.72 190.147 33.88C190.147 33.28 189.107 32.5 187.027 31.54C182.027 29.5 179.527 26.16 179.527 21.52C179.527 18.56 180.607 16.3 182.767 14.74C184.927 13.18 187.507 12.4 190.507 12.4C193.547 12.4 196.107 12.72 198.187 13.36C200.307 14 201.367 14.84 201.367 15.88C201.367 16.76 200.927 17.92 200.047 19.36C199.207 20.8 198.627 21.58 198.307 21.7C196.587 20.74 194.727 20.26 192.727 20.26C191.647 20.26 191.107 20.64 191.107 21.4C191.107 21.88 191.307 22.3 191.707 22.66C192.147 22.98 192.927 23.4 194.047 23.92C195.167 24.4 196.087 24.84 196.807 25.24C197.567 25.64 198.407 26.2 199.327 26.92C201.247 28.44 202.207 30.42 202.207 32.86C202.207 36.06 201.147 38.66 199.027 40.66C196.907 42.62 193.707 43.6 189.427 43.6C186.587 43.6 184.007 43.12 181.687 42.16C179.367 41.2 178.207 39.88 178.207 38.2C178.207 37.08 178.467 35.9 178.987 34.66C179.547 33.42 180.107 32.6 180.667 32.2ZM246.227 43.12C242.747 43.12 240.867 42.56 240.587 41.44L238.607 33.7H229.067L227.327 41.14C227.087 42.38 225.167 43 221.567 43C219.647 43 218.227 42.9 217.307 42.7C216.387 42.46 215.927 42.28 215.927 42.16L226.547 1.54C226.547 1.22 229.287 1.06 234.767 1.06C240.247 1.06 242.987 1.22 242.987 1.54L253.367 42.22C253.367 42.5 252.447 42.72 250.607 42.88C248.767 43.04 247.307 43.12 246.227 43.12ZM230.567 26.08H236.867L234.167 13.66H233.807L230.567 26.08ZM267.964 42.52C267.964 42.88 265.924 43.06 261.844 43.06C258.644 43.02 257.044 42.86 257.044 42.58V1.72C257.044 1.12 258.984 0.819999 262.864 0.819999C266.264 0.939998 267.964 1.14 267.964 1.42V42.52ZM284.371 42.64C284.371 42.96 282.531 43.12 278.851 43.12C275.211 43.12 273.391 42.98 273.391 42.7V13.24C273.391 12.96 275.211 12.82 278.851 12.82C282.531 12.82 284.371 12.94 284.371 13.18V42.64ZM284.371 9.64C284.371 9.92 282.531 10.06 278.851 10.06C275.211 10.06 273.391 9.94 273.391 9.7V1.06C273.391 0.659997 275.211 0.459997 278.851 0.459997C282.531 0.459997 284.371 0.579998 284.371 0.819999V9.64ZM316.978 42.7C316.978 42.98 315.258 43.12 311.818 43.12C308.418 43.12 306.718 42.94 306.718 42.58V25.12C306.718 23.12 306.058 22.12 304.738 22.12C304.058 22.12 303.158 22.56 302.038 23.44V42.64C302.038 43.04 300.318 43.24 296.878 43.24C293.478 43.24 291.778 43.02 291.778 42.58V22.96H290.278C288.958 22.96 288.298 21.58 288.298 18.82C288.298 17.58 288.538 16.32 289.018 15.04C289.658 13.28 290.698 12.4 292.138 12.4C293.578 12.4 294.958 12.78 296.278 13.54C297.638 14.3 298.458 15.02 298.738 15.7C301.218 13.5 303.958 12.4 306.958 12.4C309.998 12.4 312.438 13.34 314.278 15.22C316.438 13.34 319.038 12.4 322.078 12.4C328.678 12.4 331.978 16.42 331.978 24.46V42.7C331.978 42.98 330.258 43.12 326.818 43.12C323.418 43.12 321.718 42.94 321.718 42.58V25.12C321.718 23.12 321.058 22.12 319.738 22.12C319.018 22.12 318.098 22.56 316.978 23.44V42.7ZM339.663 39.46C337.183 36.7 335.943 32.88 335.943 28C335.943 23.12 337.183 19.3 339.663 16.54C342.183 13.78 345.563 12.4 349.803 12.4C354.043 12.4 357.403 13.78 359.883 16.54C362.363 19.3 363.603 23.12 363.603 28C363.603 32.88 362.363 36.7 359.883 39.46C357.403 42.22 354.043 43.6 349.803 43.6C345.563 43.6 342.183 42.22 339.663 39.46ZM349.803 22.42C347.563 22.42 346.443 24.26 346.443 27.94C346.443 31.62 347.563 33.46 349.803 33.46C352.083 33.46 353.223 31.62 353.223 27.94C353.223 24.26 352.083 22.42 349.803 22.42ZM345.123 11.26C344.763 11.26 344.303 10.86 343.743 10.06C343.023 8.94 342.663 8 342.663 7.24C342.663 6.48 342.783 5.98 343.023 5.74C349.543 2.14 352.863 0.339998 352.983 0.339998C353.383 0.339998 353.883 0.819998 354.483 1.78C355.403 3.18 355.863 4.5 355.863 5.74C355.863 6.18 355.763 6.5 355.563 6.7C348.683 9.74 345.203 11.26 345.123 11.26ZM380.385 42.64C380.385 42.92 378.945 43.06 376.065 43.06C372.065 42.94 370.065 42.72 370.065 42.4V22.96H368.505C367.465 22.96 366.785 22.08 366.465 20.32C366.385 19.8 366.345 19.28 366.345 18.76C366.345 17.52 366.585 16.28 367.065 15.04C367.785 13.28 368.905 12.4 370.425 12.4C371.945 12.4 373.305 12.76 374.505 13.48C375.705 14.2 376.505 14.92 376.905 15.64C379.425 13.48 382.425 12.4 385.905 12.4C389.385 12.4 391.905 13.34 393.465 15.22C395.025 17.1 395.805 20.18 395.805 24.46V42.46C395.805 42.94 394.085 43.18 390.645 43.18C387.245 43.18 385.545 42.94 385.545 42.46V25.12C385.545 23.12 384.845 22.12 383.445 22.12C383.045 22.12 382.485 22.3 381.765 22.66C381.045 22.98 380.585 23.22 380.385 23.38V42.64ZM411.811 31.12C408.651 31.12 407.071 30.74 407.071 29.98V27.7C407.071 25.9 408.571 23.6 411.571 20.8C412.691 19.76 413.711 18.58 414.631 17.26C415.591 15.94 416.071 14.74 416.071 13.66C416.071 11.66 414.911 10.66 412.591 10.66C410.311 10.66 408.011 11.42 405.691 12.94C404.171 11.42 403.111 9.7 402.511 7.78C402.271 7.14 402.151 6.58 402.151 6.1C402.151 5.58 402.251 5.1 402.451 4.66C402.771 3.62 404.251 2.64 406.891 1.72C409.571 0.799999 412.391 0.339998 415.351 0.339998C419.831 0.339998 423.191 1.3 425.431 3.22C427.671 5.14 428.791 7.76 428.791 11.08C428.791 12.6 428.411 14.1 427.651 15.58C426.931 17.02 426.031 18.3 424.951 19.42C423.911 20.5 422.871 21.52 421.831 22.48C419.311 24.88 418.051 26.7 418.051 27.94V29.74C418.051 30.22 417.311 30.58 415.831 30.82C414.351 31.02 413.011 31.12 411.811 31.12ZM417.691 43.24C417.691 43.48 416.031 43.6 412.711 43.6C409.431 43.6 407.791 43.5 407.791 43.3V33.88C407.791 33.56 409.431 33.4 412.711 33.4C416.031 33.4 417.691 33.5 417.691 33.7V43.24Z" fill="white"/>
</svg>
