<?xml version="1.0" encoding="utf-8"?>
<!-- Generator: Adobe Illustrator 26.0.0, SVG Export Plug-In . SVG Version: 6.00 Build 0)  -->
<svg version="1.1" id="Capa_1" xmlns="http://www.w3.org/2000/svg" xmlns:xlink="http://www.w3.org/1999/xlink" x="0px" y="0px"
	 viewBox="0 0 296 148" style="enable-background:new 0 0 296 148;" xml:space="preserve">
<style type="text/css">
	.st0{display:none;}
	.st1{display:inline;}
	.st2{display:none;fill:#7A1F69;}
	.st3{fill:#ABF2F8;}
	.st4{fill:#81F941;}
	.st5{fill:#D3F6FB;}
	.st6{fill:#54CE0D;}
	.st7{fill:#337A05;}
	.st8{fill:#46A30A;}
	.st9{fill:#E5AA42;}
	.st10{fill:#9E6422;}
	.st11{fill:#F4B34A;}
	.st12{enable-background:new    ;}
	.st13{fill:#2A39EA;}
	.st14{fill:#00CCCC;}
	.st15{fill:#93278F;}
	.st16{fill:#FF00ED;}
	.st17{fill:#ED9D29;}
	.st18{fill:#EF43AA;stroke:#00CCCC;stroke-miterlimit:10;}
	.st19{fill:#04991C;}
	.st20{fill:#5AAF58;}
	.st21{fill:#CC43ED;stroke:#8B00CC;stroke-miterlimit:10;}
	.st22{fill:#1025A0;}
	.st23{fill:#5D00BF;}
	.st24{fill:none;stroke:#00CCCC;stroke-miterlimit:10;}
	.st25{fill:#C0E181;}
	.st26{fill:#105418;}
	.st27{fill:#969696;stroke:#303030;stroke-miterlimit:10;}
	.st28{fill:#C6C6C6;stroke:#7F7F7F;stroke-miterlimit:10;}
	.st29{fill:#969696;stroke:#636363;stroke-miterlimit:10;}
	.st30{fill:#EAEAEA;stroke:#545454;stroke-miterlimit:10;}
	.st31{fill:#197226;}
	.st32{fill:#3B7610;}
	.st33{fill:#96B023;}
	.st34{clip-path:url(#SVGID_00000032644274455847411890000012101172429423997355_);fill:#C2E183;}
	.st35{clip-path:url(#SVGID_00000082360207959679371900000002006360963812308354_);fill:#C2E183;}
	.st36{clip-path:url(#SVGID_00000162342126537723860700000009380615039500773013_);fill:#C2E183;}
	.st37{clip-path:url(#SVGID_00000132801738903648483710000010141815878123626157_);fill:#C2E183;}
	.st38{clip-path:url(#SVGID_00000023270853913511439560000006578882285291734927_);fill:#C2E183;}
	.st39{clip-path:url(#SVGID_00000091006933430776768420000016742025931662841243_);fill:#C2E183;}
	.st40{clip-path:url(#SVGID_00000127731009166046641180000013203522985249052599_);fill:#C2E183;}
	.st41{clip-path:url(#SVGID_00000138547042792758886080000014655114484150748555_);fill:#C2E183;}
	.st42{fill:#1C231D;}
	.st43{fill:#DB2A44;}
	.st44{fill:#EA607B;}
	.st45{fill:#EAEAEA;}
	.st46{fill:#545454;}
	.st47{display:none;fill:#C0E181;}
	.st48{fill:#8C312C;}
	.st49{fill:#F67C01;}
	.st50{fill:#F0AA0E;}
	.st51{fill:none;stroke:#FBE87F;stroke-miterlimit:10;}
	.st52{fill:#CB4039;}
	.st53{fill:#FBE87F;}
	.st54{font-family:'Bauhaus93';}
	.st55{font-size:1.0065px;}
</style>
<g id="Capa_1_00000132785422102907205610000016556126791957668537_" class="st0">
	<g id="mancha" class="st1">
		<path class="st2" d="M-47.8-805.5c112.1-44.2,135.6-95.7,212-85c77.2,10.8,147.3,79.8,181,154c31.2,68.8-8,100.8,23,154
			c37.9,65,123.8,81.4,185,93c154.6,29.4,192.1-30.1,282,8c104.8,44.5,176.7,177.4,146,247c-23.6,53.4-96.2,43.6-111,96
			c-15.8,55.8,61.2,85.8,69,170c7.2,78.2-47.2,182.3-139,204c-64.1,15.2-91.1-53.1-158-42c-71,11.8-141.4,100-127,162
			c18.9,81.1,169.4,61.1,247,177c8.9,13.3,76.1,109.5,38,185c-34.2,67.8-140.1,93.4-212,70c-52.7-17.1-57.4-50.9-108-58
			c-54.6-7.6-124,21.2-143,69c-26.9,67.8,66.8,126.1,43,178c-28.7,62.6-211.3,79.3-278,0c-65.4-77.8,7-216.4-39-239
			c-23.8-11.7-54,20.3-131,73c-126.2,86.3-193.7,132.6-254,119c-105.4-23.7-173-226.9-120-285c32.8-36,94.1,3.1,147-42
			c42-35.8,64.2-112.5,38-159c-52.9-93.8-270.1-6.9-320-92c-47.1-80.3,120.5-201.8,77-305c-47.3-112.1-277.9-46.5-339-166
			c-48.5-94.8,29.2-268.1,143-320c103-47,191.4,25.8,243-27c62.1-63.5-45-189.7,15-270C-378.9-815.3-252.4-724.7-47.8-805.5z"/>
	</g>
</g>
<g id="Capa_2_00000062184208971351915260000009508648154264452026_">
	<rect x="-10.6" y="0.1" class="st3" width="308.8" height="147"/>
	<path class="st4" d="M222.4,130.7c-32.3,3.2-69.7,5.2-111.1,4.2c-12.8-0.3-25.1-0.8-36.9-1.6v14.5l147.8,0.2L222.4,130.7z"/>
	<g>
		<path class="st5" d="M66.6,109.1c1-3.2,5.4-4.5,5.7-4.6c5-1.5,9.1,1.9,9.4,2.1c0,0,0.3-7.6,6.8-9.8c6.5-2.2,10.7,1.4,10.7,1.4
			s6.1-10.3,14.6-9.9c8.5,0.4,16.4,7.8,16.4,7.8s6.3-8,16.5-9.5s17.2,8.1,17.2,8.1s4.1-10.9,13.8-8.9c9.7,2,11.8,9.8,11.8,9.8
			s6-2.9,9.7,0.2c3.7,3.1,4.3,6,4.3,6s9.2-1.1,14.4,6c5.3,7.1,0.7,18,0.3,19c-13.2,31.5-119.1,14.5-142.1-3.8
			C73.2,120.6,65.1,114.1,66.6,109.1z"/>
		<path class="st5" d="M71.6,70.2c3.8-0.4,18.8-6.8,25.7-8.7c9.3-2.5,15.8-0.3,16.3-2.5c0.4-1.5-2.3-3.9-4.9-4.5c-3.8-1-6.8,1.8-7,2
			c0,0,0.3-2.8-2.8-3.8c-3.1-1-4.4,2.1-4.4,2.1s-2.1-4.1-6-2.6c-3.8,1.5-4.4,4.1-4.4,4.1s-5.9-1.7-8.8,1.5c-2.9,3.1-3,7.2-3,7.2
			c-0.4,0-1.4,0.2-2.1,1.1c-1,1.2-0.9,3.3,0,4C70.7,70.3,71.3,70.2,71.6,70.2z"/>
		<path class="st5" d="M193.8,11.6c-2.6-0.3-13.1-4.7-17.8-6c-6.4-1.8-11-0.2-11.3-1.8c-0.3-1.1,1.6-2.7,3.4-3.1
			c2.7-0.7,4.7,1.2,4.8,1.4c0,0-0.2-2,1.9-2.7c2.1-0.7,3.1,1.4,3.1,1.4s1.5-2.8,4.2-1.8s3.1,2.8,3.1,2.8s4.1-1.2,6.1,1
			c2,2.2,2.1,5,2.1,5c0.3,0,1,0.1,1.5,0.7c0.7,0.8,0.6,2.3,0,2.8C194.4,11.7,194,11.7,193.8,11.6z"/>
		<path class="st5" d="M219.9,76.6c-3.8-0.4-18.8-6.8-25.7-8.7c-9.3-2.5-15.8-0.3-16.3-2.5c-0.4-1.5,2.3-3.9,4.9-4.5
			c3.8-1,6.8,1.8,7,2c0,0-0.3-2.8,2.8-3.8c3.1-1,4.4,2.1,4.4,2.1s2.1-4.1,6-2.6s4.4,4.1,4.4,4.1s5.9-1.7,8.8,1.5
			c2.9,3.1,3,7.2,3,7.2c0.4,0,1.4,0.2,2.1,1.1c1,1.2,0.9,3.3,0,4C220.9,76.7,220.2,76.7,219.9,76.6z"/>
		<path class="st5" d="M65.9,12.9c2.6-0.3,13.1-4.7,17.8-6c6.4-1.8,11-0.2,11.3-1.8c0.3-1.1-1.6-2.7-3.4-3.1C89,1.3,87,3.3,86.9,3.4
			c0,0,0.2-2-1.9-2.7s-3.1,1.4-3.1,1.4s-1.5-2.8-4.2-1.8s-3.1,2.8-3.1,2.8s-4.1-1.2-6.1,1c-2,2.2-2.1,5-2.1,5c-0.3,0-1,0.1-1.5,0.7
			c-0.7,0.8-0.6,2.3,0,2.8C65.3,13,65.7,13,65.9,12.9z"/>
		<path class="st5" d="M5.3,54.8c3.8-0.4,18.8-6.8,25.7-8.7c9.3-2.5,15.8-0.3,16.3-2.5c0.4-1.5-2.3-3.9-4.9-4.5c-3.8-1-6.8,1.8-7,2
			c0,0,0.3-2.8-2.8-3.8s-4.4,2.1-4.4,2.1s-2.1-4.1-6-2.6c-3.8,1.5-4.4,4.1-4.4,4.1s-5.9-1.7-8.8,1.5c-2.9,3.1-3,7.2-3,7.2
			c-0.4,0-1.4,0.2-2.1,1.1c-1,1.2-0.9,3.3,0,4C4.4,54.9,5,54.9,5.3,54.8z"/>
		<path class="st5" d="M290.4,74c-3.8-0.4-18.8-6.8-25.7-8.7c-9.3-2.5-15.8-0.3-16.3-2.5c-0.4-1.5,2.3-3.9,4.9-4.5
			c3.8-1,6.8,1.8,7,2c0,0-0.3-2.8,2.8-3.8c3.1-1,4.4,2.1,4.4,2.1s2.1-4.1,6-2.6c3.8,1.5,4.4,4.1,4.4,4.1s5.9-1.7,8.8,1.5
			c2.9,3.1,3,7.2,3,7.2c0.4,0,1.4,0.2,2.1,1.1c1,1.2,0.9,3.3,0,4C291.3,74.1,290.7,74.1,290.4,74z"/>
		<path class="st5" d="M-4,110.8c2.6-0.3,13.1-4.7,17.8-6c6.4-1.8,11-0.2,11.3-1.8c0.3-1.1-1.6-2.7-3.4-3.1
			c-2.7-0.7-4.7,1.2-4.8,1.4c0,0,0.2-2-1.9-2.7c-2.1-0.7-3.1,1.4-3.1,1.4s-1.5-2.8-4.2-1.8s-3.1,2.8-3.1,2.8s-4.1-1.2-6.1,1
			c-2,2.2-2.1,5-2.1,5c-0.3,0-1,0.1-1.5,0.7c-0.7,0.8-0.6,2.3,0,2.8C-4.6,110.9-4.2,110.9-4,110.8z"/>
		<path class="st5" d="M303.8,28.9c-2.6-0.3-13.1-4.7-17.8-6c-6.4-1.8-11-0.2-11.3-1.8c-0.3-1.1,1.6-2.7,3.4-3.1
			c2.7-0.7,4.7,1.2,4.8,1.4c0,0-0.2-2,1.9-2.7c2.1-0.7,3.1,1.4,3.1,1.4s1.5-2.8,4.2-1.8s3.1,2.8,3.1,2.8s4.1-1.2,6.1,1
			c2,2.2,2.1,5,2.1,5c0.3,0,1,0.1,1.5,0.7c0.7,0.8,0.6,2.3,0,2.8C304.5,29,304,28.9,303.8,28.9z"/>
	</g>
	<g>
		<path class="st6" d="M302.4,160.6c0,0,3.9-19.4-2.8-21.6s-6.6-1.4-6.7-1.8c-0.1-0.4-1.1-11.5-5.8-11.7c-4.7-0.2-7.3,2.7-7.3,2.7
			s-3.7-16.2-11.2-15.8s-7.7,10.2-7.7,10.2s-1.8-4.9-9.8-3.2c-8,1.7-8.2,14.5-8.2,14.5l-1.1,28.7L302.4,160.6z"/>
		<path class="st7" d="M287.6,160.5c0,0,5-19.3-3-24.9c-8-5.5-9.3-2.5-9.5-3.4c-0.2-0.9,0.7-9.2-4.3-12.2c-5-3-9.2,2.8-9.8,2.1
			c-0.7-0.7-3.5-15.4-11.3-17s-10.3,10.1-10.3,10.1s-3.8-7.1-9.3-5.7c-5.5,1.4-8.8,4.8-9.2,11.5c-0.3,6.7-1.2,26.2-1.2,26.2l63,16.1
			L287.6,160.5z"/>
		<path class="st8" d="M305.3,165.8c0-0.5-0.6-6.9-4.8-9.8c-3.9-2.6-9.1-1.3-12.4,3.4c0,0-5.5-8.6-11.5-5
			c-5.9,3.6-6.2,11.4-6.2,11.4L305.3,165.8L305.3,165.8z"/>
		<path class="st6" d="M250.7,148.8c0,0,4.9-16-3.5-17.9c-8.4-1.8-8.2-1.1-8.3-1.5c-0.1-0.3-1.4-9.5-7.2-9.7
			c-5.9-0.2-9.1,2.2-9.1,2.2s-4.6-13.4-14-13c-9.4,0.3-9.6,8.4-9.6,8.4s-2.2-4-12.2-2.6c-10,1.4-10.2,12-10.2,12l-1.4,23.7
			L250.7,148.8z"/>
		<path class="st6" d="M-12.9,160.2c0,0-4.2-19.4,3-21.6s7.1-1.4,7.2-1.8c0.1-0.4,1.2-11.5,6.2-11.7s7.9,2.7,7.9,2.7
			s3.9-16.2,12.1-15.8s8.3,10.2,8.3,10.2s1.9-4.9,10.6-3.2s8.8,14.5,8.8,14.5l1.2,28.7L-12.9,160.2z"/>
		<path class="st7" d="M6.5,160.1c0,0-5-19.3,3-24.9c8-5.5,9.3-2.5,9.5-3.4c0.2-0.9-0.7-9.2,4.3-12.2c5-3,9.2,2.8,9.8,2.1
			c0.7-0.7,3.5-15.4,11.3-17s10.3,10.1,10.3,10.1s3.8-7.1,9.3-5.7c5.5,1.4,8.8,4.8,9.2,11.5c0.3,6.7,1.2,26.2,1.2,26.2l-63,16.1
			L6.5,160.1z"/>
		<path class="st8" d="M-15,165.4c0-0.5,0.6-6.9,5.4-9.8c4.3-2.6,10.1-1.3,13.8,3.4c0,0,6.1-8.6,12.7-5c6.6,3.6,6.9,11.4,6.9,11.4
			L-15,165.4L-15,165.4z"/>
		<path class="st6" d="M43.4,148.5c0,0-4.9-16,3.5-17.9s8.2-1.1,8.3-1.5c0.1-0.3,1.4-9.5,7.2-9.7c5.9-0.2,9.1,2.2,9.1,2.2
			s4.6-13.4,14-13c9.4,0.3,9.6,8.4,9.6,8.4s2.2-4,12.2-2.6c10,1.4,10.2,12,10.2,12l1.4,23.7L43.4,148.5z"/>
	</g>
	<g>
		<rect x="44.4" y="136.6" class="st9" width="55.6" height="37.7"/>
		<path class="st10" d="M193,124.3h-92.1c-0.8,0-1.5-0.7-1.5-1.5v-1.6c0-0.8,0.7-1.5,1.5-1.5H193c0.8,0,1.5,0.7,1.5,1.5v1.6
			C194.5,123.6,193.8,124.3,193,124.3z"/>
		<path class="st10" d="M100,137.7H45.8c-0.8,0-1.4-0.5-1.4-1.2v-1.3c0-0.6,0.6-1.2,1.4-1.2H100c0.8,0,1.4,0.5,1.4,1.2v1.3
			C101.4,137.2,100.7,137.7,100,137.7z"/>
		<rect x="192.4" y="142.4" class="st9" width="50.5" height="31.9"/>
		<path class="st10" d="M242,143h-48.4c-0.8,0-1.4-0.5-1.4-1.2v-1.4c0-0.7,0.6-1.2,1.4-1.2H242c0.8,0,1.4,0.5,1.4,1.2v1.4
			C243.4,142.5,242.8,143,242,143z"/>
		<rect x="99.8" y="123.3" class="st11" width="93.6" height="51"/>
	</g>
	<g class="st12">
		<g>
			<path class="st13" d="M98.7,28.9c0.1,1-0.3,2.2,0.6,2.9c0.3,0.3,0.8,0.4,1.2,0.4c0.2,0,0.4,0,0.7-0.1c0.2,0,0.4-0.1,0.6-0.2
				c0.2-0.2,0.2-0.4,0.1-0.6c-0.1-0.2-0.2-0.4-0.4-0.6c-0.2-0.1-0.4-0.2-0.7-0.2c-0.2,0.1-0.3,0.2-0.4,0.4c-0.1,0.2-0.1,0.5,0,0.7
				c0.1,0.2,0.2,0.5,0.3,0.7c0.2,0.4,0.7,0.6,1.1,0.6c0.4,0,0.8-0.3,1-0.7c0.1-0.2,0.1-0.5,0-0.6c-0.1-0.2-0.4-0.1-0.6,0
				c-0.4,0.2-0.6,0.6-0.6,1c0,0.5,0.3,1,0.6,1.4c0.1,0.2,0.3,0.4,0.5,0.5c0.2,0.1,0.5,0.1,0.7,0.2c0.2,0,0.5,0,0.7,0
				c0.2-0.1,0.4-0.2,0.5-0.4c0.2-0.5,0.4-1,0.3-1.5c0-0.2-0.1-0.5-0.4-0.6c-0.2-0.1-0.4,0-0.6,0.2c-0.3,0.3-0.4,0.7-0.4,1.1
				c0,0.5,0.1,1,0.4,1.3c0.3,0.3,0.7,0.5,1.2,0.5c0.4,0,0.8-0.2,1.1-0.6c0.1-0.2,0.2-0.4,0.3-0.6c0-0.1-0.2-0.2-0.2-0.1
				c-0.2,0.7-0.9,1.1-1.6,0.9c-0.3-0.1-0.6-0.4-0.8-0.7c-0.2-0.4-0.2-0.8-0.1-1.2c0.1-0.3,0.2-0.7,0.6-0.7c0.2,0,0.3,0.3,0.3,0.4
				c0,0.2,0,0.5-0.1,0.7c-0.1,0.2-0.1,0.4-0.2,0.6c-0.1,0.2-0.2,0.3-0.4,0.4c-0.2,0.1-0.4,0-0.6,0c-0.2,0-0.4,0-0.6-0.1
				c-0.2-0.1-0.3-0.2-0.5-0.4c-0.1-0.2-0.2-0.4-0.3-0.5c-0.2-0.3-0.3-0.7-0.2-1.1c0.1-0.2,0.1-0.3,0.3-0.4c0.1-0.1,0.3-0.2,0.4-0.1
				c0.1,0.1,0,0.2,0,0.3c0,0.1,0,0.2-0.1,0.3c-0.1,0.2-0.2,0.3-0.4,0.4c-0.3,0.2-0.7,0.2-1,0c-0.2-0.1-0.3-0.3-0.4-0.5
				c-0.1-0.2-0.2-0.4-0.2-0.6c0-0.2,0-0.4,0.1-0.5c0.1-0.2,0.3-0.2,0.4-0.2c0.2,0,0.3,0.2,0.5,0.4c0.1,0.1,0.1,0.2,0.1,0.3
				c0,0.1,0.1,0.2,0,0.3c-0.1,0.1-0.3,0.2-0.4,0.2c-0.2,0-0.4,0.1-0.5,0.1c-0.3,0-0.7,0-1-0.2c-0.8-0.4-0.8-1.4-0.8-2.1
				c0-0.2,0-0.5,0-0.7C98.9,28.8,98.7,28.8,98.7,28.9L98.7,28.9z"/>
		</g>
	</g>
	<g class="st12">
		<g>
			<path class="st14" d="M171.2,14.3c0.1,0.5,0,1-0.1,1.5c-0.1,0.4-0.3,0.9-0.8,1c-0.4,0.1-0.8-0.1-0.9-0.5
				c-0.1-0.2-0.1-0.5-0.1-0.7c0-0.1,0-0.2,0-0.3c0-0.1,0.1-0.2,0.2-0.3c0.3-0.3,0.8-0.3,1.2-0.1c0.3,0.2,0.5,0.6,0.5,1
				c0,0.4-0.3,0.8-0.6,1c-0.4,0.3-0.8,0.4-1.3,0.4c-0.2,0-0.5,0-0.7,0c-0.2,0-0.4,0-0.7-0.1c-0.3-0.1-0.6-0.5-0.5-0.9
				c0-0.4,0.3-0.6,0.6-0.7c0.2,0,0.3,0,0.5,0.1c0.2,0.1,0.3,0.2,0.4,0.4c0.1,0.2,0.2,0.5,0.2,0.7c0,0.2,0,0.5,0,0.7
				c-0.1,0.4-0.5,0.7-0.8,0.9c-0.4,0.2-0.9,0.3-1.4,0.3c-0.2,0-0.4,0-0.6-0.2c-0.1-0.2-0.3-0.4-0.3-0.6c-0.1-0.2-0.1-0.4,0.1-0.5
				c0.2-0.1,0.3,0,0.5,0.1c0.1,0.2,0.2,0.4,0.3,0.6c0.1,0.2,0.2,0.5,0.2,0.7c0.1,0.4,0.2,1-0.2,1.3c-0.1,0.1-0.3,0.2-0.5,0.2
				c-0.2,0-0.4-0.1-0.6-0.3c-0.2-0.1-0.3-0.3-0.5-0.5c-0.1-0.1-0.3,0.1-0.2,0.2c0.3,0.4,0.7,0.8,1.2,0.8c0.5,0,0.9-0.5,0.9-0.9
				c0-0.3,0-0.6-0.1-0.9c-0.1-0.3-0.2-0.6-0.3-0.8c-0.1-0.2-0.2-0.5-0.4-0.7c-0.2-0.2-0.4-0.2-0.6-0.1c-0.2,0.1-0.3,0.3-0.3,0.6
				c0,0.3,0.2,0.5,0.3,0.7c0.1,0.2,0.3,0.4,0.6,0.5c0.3,0.1,0.6,0,0.8,0c0.5-0.1,1.1-0.2,1.5-0.6c0.4-0.3,0.6-0.8,0.5-1.4
				c0-0.3-0.1-0.6-0.2-0.8c-0.1-0.2-0.2-0.4-0.4-0.5c-0.4-0.2-0.9-0.2-1.2,0.1c-0.3,0.3-0.4,0.8-0.3,1.1c0.1,0.2,0.2,0.4,0.4,0.5
				c0.2,0.1,0.5,0.2,0.7,0.2c0.3,0,0.5,0,0.8,0c0.3,0,0.6-0.1,0.8-0.1c0.5-0.1,0.9-0.4,1.2-0.9c0.3-0.4,0.3-0.9,0.1-1.3
				c-0.2-0.4-0.7-0.7-1.2-0.7c-0.2,0-0.5,0.1-0.7,0.3c-0.1,0.1-0.2,0.2-0.2,0.3c-0.1,0.1-0.1,0.3-0.1,0.4c0,0.5,0,1.1,0.5,1.4
				c0.4,0.3,1,0.2,1.3-0.2c0.4-0.4,0.5-1,0.6-1.5c0-0.3,0-0.6,0-0.9c0-0.1,0-0.1-0.1-0.1C171.3,14.2,171.2,14.2,171.2,14.3
				L171.2,14.3z"/>
		</g>
	</g>
	<g>
		<g>
			<g>
				<path class="st15" d="M173.8,65.8c0.5,0.8,1.2,1.5,1.9,2c0.8,0.6,1.7,0.9,2.7,1.1c0.5,0.1,1,0.1,1.5-0.1c0.4-0.1,0.9-0.5,0.9-1
					c0.1-0.9-0.8-1.6-1.7-1.6c-0.2,0-0.4,0.1-0.6,0.2c-0.2,0.1-0.2,0.4-0.2,0.7c0,0.3,0,0.5,0.1,0.7c0.1,0.2,0.3,0.3,0.5,0.5
					c0.4,0.3,0.9,0.4,1.4,0.5c0.5,0.1,1,0.1,1.5-0.1c0.4-0.1,0.8-0.4,1-0.9c0.2-0.5,0.1-1-0.1-1.4c-0.2-0.4-0.5-0.7-0.9-0.8
					c-0.2,0-0.5,0-0.7,0.2c-0.1,0.2-0.1,0.5-0.1,0.8c0.1,0.5,0.4,0.8,0.8,1.1c0.4,0.2,0.9,0.3,1.3,0.2c0.9-0.1,1.6-0.9,1.9-1.7
					c0.1-0.2,0.1-0.4,0.1-0.7c0-0.1-0.1-0.2-0.2-0.2c-0.1,0-0.2,0.1-0.2,0.2c0,0.7-0.4,1.4-1.1,1.8c-0.6,0.3-1.5,0.3-2-0.2
					c-0.1-0.1-0.2-0.3-0.3-0.5c0-0.1,0-0.2,0-0.3c0-0.1,0-0.2,0-0.3c0,0,0,0,0,0c0,0,0.1,0,0.1,0c0.1,0,0.1,0,0.2,0
					c0.1,0.1,0.3,0.2,0.4,0.3c0.2,0.3,0.4,0.7,0.4,1.1c0,0.3-0.3,0.6-0.6,0.7c-0.4,0.2-0.8,0.2-1.2,0.2c-0.4,0-0.9-0.1-1.3-0.3
					c-0.3-0.1-0.6-0.3-0.7-0.6c-0.1-0.2,0-0.4,0-0.6c0,0,0,0,0,0c0-0.1,0,0,0,0c0,0,0,0,0,0c0,0,0,0,0,0c0.1,0,0.2-0.1,0.2-0.1
					c0.1,0,0.3,0,0.4,0c0.2,0,0.3,0.1,0.4,0.2c0.1,0.1,0.2,0.2,0.3,0.3c0.1,0.1,0.2,0.3,0.2,0.5c0,0.3-0.3,0.6-0.6,0.7
					c-0.4,0.1-0.8,0.1-1.2,0.1c-1.6-0.1-3-1.1-4-2.4c-0.1-0.2-0.2-0.3-0.3-0.5c-0.1-0.1-0.2-0.1-0.3-0.1
					C173.7,65.5,173.7,65.7,173.8,65.8L173.8,65.8z"/>
			</g>
		</g>
		<g>
			<g>
				<path class="st16" d="M109,65.9c0.4,0.5,1,1,1.6,1.4c0.7,0.3,1.4,0.5,2.2,0.3c0.4-0.1,0.7-0.2,1-0.4c0.3-0.2,0.5-0.6,0.5-1
					c0-0.4-0.1-0.7-0.1-1.1c-0.1-0.4-0.2-0.7-0.5-1c-0.2-0.3-0.6-0.4-0.9-0.4c-0.3,0-0.6,0.2-0.8,0.5c-0.4,0.6-0.6,1.4-0.3,2.1
					c0.3,0.7,0.9,1.2,1.6,1.1c0.4,0,0.7-0.2,1.1-0.4c0.3-0.2,0.5-0.4,0.8-0.6c0.9-0.9,1.5-2.2,1.6-3.5c0-0.2,0-0.3,0-0.5
					c0-0.1-0.1-0.2-0.2-0.2c-0.1,0-0.2,0.1-0.2,0.2c0.1,1.2-0.3,2.3-1,3.2c-0.3,0.4-0.8,0.8-1.3,1.1c-0.3,0.2-0.6,0.3-0.9,0.3
					c-0.2,0-0.5-0.1-0.7-0.3c-0.4-0.4-0.5-1.1-0.3-1.7c0.1-0.2,0.2-0.5,0.4-0.6c0.2-0.2,0.4-0.2,0.7-0.1c0.3,0.1,0.4,0.4,0.5,0.7
					c0.1,0.3,0.2,0.6,0.2,0.9c0,0.3,0,0.6-0.1,0.8c-0.2,0.2-0.5,0.4-0.7,0.5c-0.6,0.2-1.3,0.1-1.9-0.1c-0.6-0.2-1.1-0.6-1.5-1.1
					c-0.1-0.1-0.2-0.2-0.3-0.4c-0.1-0.1-0.2-0.1-0.3,0C108.9,65.7,109,65.8,109,65.9L109,65.9z"/>
			</g>
		</g>
		<g class="st12">
			<g>
				<path class="st17" d="M177.8,49.4c0.4,0.7,1,1.1,1.7,1.4c0.3,0.1,0.7,0.2,1.1,0.2c0.4,0,0.8,0,1.1-0.3c0.3-0.2,0.4-0.6,0.3-1
					c-0.1-0.2-0.2-0.3-0.3-0.4c-0.1-0.1-0.3-0.2-0.5-0.1c-0.2,0.1-0.2,0.3-0.2,0.4c0,0.2,0,0.3,0.1,0.5c0.1,0.3,0.4,0.6,0.8,0.7
					c0.2,0.1,0.5,0,0.7,0c0.2-0.1,0.5-0.1,0.6-0.3c0.4-0.3,0.6-0.7,0.4-1.1c-0.1-0.1-0.3,0-0.2,0.1c0.2,0.3,0,0.6-0.3,0.8
					c-0.3,0.2-0.7,0.3-1,0.3c-0.3,0-0.6-0.2-0.7-0.4c-0.1-0.1-0.1-0.3-0.2-0.4c0-0.1,0-0.1,0-0.2c0-0.1,0-0.1,0.1-0.2
					c0,0,0.1,0,0.2,0c0.1,0,0.1,0.1,0.2,0.1c0.1,0.1,0.2,0.2,0.2,0.4c0,0.3-0.1,0.6-0.4,0.7c-0.3,0.1-0.7,0.1-1,0.1
					c-0.3,0-0.6-0.1-0.9-0.2c-0.6-0.3-1.2-0.7-1.5-1.3C177.9,49.2,177.7,49.3,177.8,49.4L177.8,49.4z"/>
			</g>
		</g>
		<ellipse class="st18" cx="112.4" cy="4.8" rx="1" ry="0.9"/>
		<ellipse class="st19" cx="154.4" cy="6.8" rx="0.8" ry="0.8"/>
		<ellipse class="st18" cx="156.8" cy="9.7" rx="0.8" ry="0.8"/>
		<ellipse class="st19" cx="157.9" cy="17.4" rx="0.8" ry="0.9"/>
		<ellipse class="st20" cx="169.9" cy="27.2" rx="1" ry="1.1"/>
		<ellipse class="st21" cx="126.9" cy="73" rx="0.8" ry="1"/>
		<ellipse class="st22" cx="119.4" cy="68.8" rx="0.6" ry="0.9"/>
		<ellipse class="st23" cx="117.7" cy="85.6" rx="1.2" ry="1"/>
		<ellipse class="st21" cx="146.9" cy="97.1" rx="0.7" ry="1"/>
		<ellipse class="st18" cx="99.1" cy="80.7" rx="1.7" ry="1.6"/>
		<ellipse class="st24" cx="90.1" cy="56.8" rx="0.9" ry="0.5"/>
		<ellipse class="st22" cx="110.4" cy="44.9" rx="0.4" ry="0.4"/>
		<ellipse class="st19" cx="114.8" cy="44.5" rx="0.7" ry="0.8"/>
		<ellipse class="st23" cx="99.4" cy="46.3" rx="0.7" ry="0.7"/>
		<ellipse class="st21" cx="119.1" cy="32.4" rx="1" ry="0.6"/>
		<ellipse class="st23" cx="98.3" cy="12.1" rx="1" ry="0.6"/>
		<ellipse class="st21" cx="195.6" cy="43.3" rx="0.7" ry="0.8"/>
		<ellipse class="st18" cx="196.7" cy="22.5" rx="0.8" ry="1.2"/>
		<ellipse class="st22" cx="186.4" cy="20.4" rx="0.9" ry="0.9"/>
		<ellipse class="st23" cx="187" cy="8.1" rx="0.8" ry="1.4"/>
		<ellipse class="st21" cx="177.6" cy="77.6" rx="0.8" ry="1"/>
		<ellipse class="st22" cx="170.1" cy="73.4" rx="0.6" ry="0.9"/>
		<ellipse class="st23" cx="185.3" cy="56.6" rx="1.2" ry="1"/>
	</g>
	<g id="Capa_1_00000026879941309703679270000008348791954536736950_">
		<g>
			<g>
				<path class="st25" d="M165.8,62.7c0.2-0.2,0.5-0.4,0.7-0.6c-0.2,0.1-0.4,0.3-0.5,0.4c0.9-0.7,1.8-1.2,2.7-1.8
					c1-0.6,1.9-1.2,2.9-1.8c1.1-0.7,2.2-1.5,3.2-2.3c0.4-0.3,0.8-0.7,1.2-1.1c0.3-0.3,0.5-0.6,0.7-0.9c0.1-0.1,0.2-0.3,0.3-0.4
					c0.3-0.5,0.5-1,0.7-1.5c0.1-0.3,0.2-0.7,0.3-1c0.3-1,0.4-2,0.5-3c0.1-0.8,0.1-1.6,0.1-2.4c0-0.7,0-1.4,0-2.2
					c0-0.5-0.1-1.1-0.1-1.6c0-0.3,0-0.5-0.1-0.8c0,0,0,0,0,0c0-0.4-0.1-0.7-0.2-1c-0.1-0.3-0.3-0.6-0.5-0.8
					c-0.2-0.3-0.5-0.4-0.8-0.5c-0.3-0.2-0.6-0.2-1-0.2c-0.2,0-0.5,0.1-0.7,0.1c-0.4,0.1-0.8,0.3-1.2,0.7c-0.1,0.2-0.3,0.4-0.4,0.5
					c-0.2,0.4-0.4,0.8-0.4,1.3c0.1,0.5,0.1,1,0.1,1.6c0.1,1.2,0.1,2.4,0.1,3.6c0,0.8-0.1,1.6-0.2,2.3c0-0.2,0.1-0.5,0.1-0.7
					c-0.1,0.8-0.3,1.6-0.5,2.4c-0.1,0.2-0.1,0.4-0.2,0.6c0.1-0.2,0.2-0.4,0.3-0.6c-0.2,0.4-0.4,0.8-0.6,1.1c0.1-0.2,0.3-0.4,0.4-0.5
					c-0.2,0.3-0.5,0.6-0.8,0.8c-0.4,0.3-0.7,0.6-1.1,0.9c0.2-0.1,0.4-0.3,0.5-0.4c-1.1,0.8-2.2,1.5-3.4,2.2
					c-1.1,0.7-2.3,1.4-3.4,2.1c-0.8,0.5-1.5,1.1-2.2,1.7c-0.3,0.2-0.4,0.5-0.5,0.8c-0.2,0.3-0.2,0.6-0.2,1c0,0.4,0.1,0.7,0.2,1
					c0.1,0.3,0.3,0.6,0.5,0.8c0.2,0.1,0.4,0.3,0.5,0.4c0.4,0.2,0.8,0.4,1.3,0.4c0.2,0,0.5-0.1,0.7-0.1
					C165.1,63.3,165.4,63,165.8,62.7L165.8,62.7z"/>
			</g>
		</g>
		<g>
			<path class="st26" d="M152.4,89.4c-2.4,0.2-5.5-0.4-5.5-0.4c-0.1,0-0.4-6.4-0.4-6.4c0-0.2,0.1-0.4,0.3-0.3c0,0,2.8,0.5,5.3,0.3
				c2.5-0.2,5.2-1.2,5.2-1.2c0.2,0,0.3,0.1,0.4,0.3l0.3,6.1C157.9,88.1,154.7,89.3,152.4,89.4z"/>
		</g>
		<g>
			<path class="st27" d="M149.9,115.9c-0.9,0.5-1.4,1.3-1.2,2.5c0.6,1.6,2.3,2.4,4.7,2.2l3.5-0.3c0.3,0,0.5,0,0.8,0l4.5,0.1
				c2.5,0.1,4.8-0.1,6.8-0.6c1.8-0.7,2.9-1.8,2.1-3.7c-0.9-1-2.7-1.3-4.5-1.7L149.9,115.9z"/>
			<path class="st28" d="M159.2,113.1c0.9-1.5,2.4-2.7,4.8-3.1c0.1,0,0.2,0,0.3,0c3-0.2,5.4,0.6,6.4,2.6c0.6,1.1,0.6,2.5,0,3.6
				c-0.8,1.4-2.4,2.2-4.8,2.5c-0.2,0-0.5,0-0.7,0c-3.7-0.2-5.8-0.3-7.5-0.3c-0.8,0-1.7,0-2.5,0.2c-0.8,0.1-1.6,0.2-2.4,0.1
				c-1.4-0.1-2.6-1-3.2-2.2c-0.3-0.7-0.6-1.6-0.6-2.9c0-3.9,2-5.2,2.4-5.2c0.5,0.2,1,0.4,1.7,0.5c0,0,1-0.8,1.5-0.7
				c0.4,0,1.4,0.8,1.4,0.8c1,0,1.9-0.2,2.6-0.4c0.4,0.2,1.7,1.6,2.1,2.5"/>
			<path class="st29" d="M153.4,109c-2-0.4-3.5-1.3-3.5-2.4c0-1.4,2.4-2.6,5.3-2.6c2.9,0,5.3,1.2,5.3,2.6c0,1.3-1.9,2.3-4.3,2.6"/>
		</g>
		<g>
			<path class="st28" d="M145.1,112.9c-3.1-3.5-8.7-3.3-11.3,0c-0.2-2,0.5-3.8,2-5.5l6.8,0C144.1,109,144.8,110.8,145.1,112.9z"/>
			<path class="st29" d="M139.5,107.3l3.1,0c1-0.6,1.4-1.2,1.4-2.3c0-1.1-1.4-1.9-3-2.2l-3.8,0c-1.4,0.4-2.4,1-2.7,2.3
				c0,1.1,0.6,1.7,1.3,2.3l1.5,0"/>
			<path class="st27" d="M146.6,116.8c0,0,0.9,0.5,0.9,1.6c0,1.1-1.6,3.8-7.8,3.8c-6.2,0-8.1-2.3-8.1-3.4s0.8-1.5,0.8-1.5"/>
			<path class="st30" d="M146.5,115.9c-1.2-7.1-12.1-7.9-14.1,0c-0.2,0.9,0,1.5,0.5,1.9c2,2.5,11.8,2.4,13.1,0.2
				C146.6,117.4,146.7,116.7,146.5,115.9z"/>
		</g>
		<g>
			<g>
				<path class="st25" d="M150,81.7c0.4,1.5,0.7,3,1.1,4.5c0.3,1.5,0.6,3,0.9,4.5c0.1,0.9,0.3,1.7,0.4,2.6c0-0.2-0.1-0.4-0.1-0.6
					c0.2,1.6,0.4,3.1,0.4,4.7c0.1,1.6,0.1,3.2,0,4.7c-0.1,0.9-0.1,1.8-0.2,2.7c0,0.3,0.1,0.6,0.2,0.9c0.1,0.3,0.3,0.5,0.5,0.8
					c0.2,0.2,0.5,0.4,0.8,0.5c0.3,0.1,0.6,0.2,0.9,0.2c0.2,0,0.4-0.1,0.6-0.1c0.4-0.1,0.7-0.3,1-0.6c0.1-0.2,0.2-0.3,0.4-0.5
					c0.2-0.4,0.3-0.8,0.3-1.2c0.2-1.6,0.3-3.1,0.3-4.7c0-1.6-0.1-3.1-0.2-4.7c-0.2-1.7-0.4-3.5-0.7-5.2c-0.2-1.5-0.5-3.1-0.9-4.6
					c-0.3-1.5-0.7-3-1.1-4.5c0-0.2-0.1-0.4-0.1-0.6c-0.1-0.3-0.2-0.6-0.4-0.8c-0.2-0.3-0.4-0.5-0.7-0.6c-0.3-0.2-0.6-0.3-0.9-0.3
					c-0.3-0.1-0.6-0.1-0.9,0c-0.2,0.1-0.4,0.2-0.6,0.2c-0.4,0.2-0.6,0.5-0.8,0.8c-0.1,0.2-0.2,0.4-0.2,0.6
					C149.9,80.9,149.9,81.3,150,81.7L150,81.7z"/>
			</g>
		</g>
		<g>
			<path class="st31" d="M152.2,87.4c-1.1,0.1-3.1-0.4-4.1,0.1c-1.2,0.6-1.3,1.5-1.3,1.5c-0.1,0-0.4-6.5-0.4-6.5
				c0-0.1,0.1-0.3,0.3-0.3c0,0,2.8,0.4,5.3,0.2c2.5-0.2,5.2-0.9,5.2-0.9c0.2,0,0.3,0.1,0.3,0.2l0.3,6.2c0,0.1-0.1-0.9-1.7-1.3
				C155.2,86.4,153.1,87.3,152.2,87.4z"/>
		</g>
		<g>
			<path class="st26" d="M140.1,89.3c-2.4-0.1-5.5-0.9-5.5-0.9c-0.1,0,0-5.8,0-5.8c0-0.2,0.2-0.3,0.3-0.3c0,0,2.8,0.7,5.2,0.8
				c2.5,0.1,5.2-0.6,5.2-0.6c0.2,0,0.3,0.1,0.3,0.3l-0.1,5.6C145.7,88.5,142.5,89.4,140.1,89.3z"/>
		</g>
		<g>
			<g>
				<path class="st25" d="M137.5,80.5c0,0.3,0,0.7,0,1c0,0.8,0.1,1.7,0.1,2.5c0.1,1.1,0.1,2.2,0.2,3.2c0.1,1.1,0.1,2.2,0.2,3.2
					c0,0.8,0.1,1.7,0.1,2.5c0,0.2,0,0.5,0,0.7c0,0.1,0,0.2,0,0.3c0,0.1,0,0.2,0,0.3c0,0.3-0.1,0.6-0.1,1c-0.1,1-0.3,2-0.4,3
					c-0.1,1.1-0.3,2.1-0.4,3.2c-0.1,0.6-0.2,1.3-0.2,1.9c0,0,0,0.1,0,0.1c0,0.3,0.1,0.6,0.2,0.9c0.1,0.3,0.3,0.5,0.5,0.8
					c0.2,0.2,0.5,0.4,0.8,0.5c0.3,0.1,0.6,0.2,0.9,0.2c0.2,0,0.4-0.1,0.6-0.1c0.4-0.1,0.7-0.3,1-0.6c0.1-0.2,0.2-0.3,0.4-0.5
					c0.2-0.4,0.3-0.8,0.3-1.2c0.1-0.4,0.1-0.9,0.2-1.3c0.1-1,0.3-2,0.4-3c0.1-1.1,0.3-2.1,0.4-3.2c0.1-0.6,0.2-1.2,0.2-1.8
					c0-0.2,0-0.5,0-0.7c0-0.7-0.1-1.5-0.1-2.2c0-1-0.1-2.1-0.1-3.1c-0.1-1.1-0.1-2.2-0.2-3.3c0-0.9-0.1-1.8-0.1-2.7
					c0-0.5,0-1-0.1-1.4c0,0,0,0,0-0.1c0-0.3-0.1-0.6-0.2-0.9c-0.1-0.3-0.3-0.5-0.5-0.8c-0.2-0.2-0.5-0.4-0.8-0.5
					c-0.3-0.1-0.6-0.2-0.9-0.2c-0.2,0-0.4,0.1-0.6,0.1c-0.4,0.1-0.7,0.3-1,0.6c-0.1,0.2-0.2,0.3-0.4,0.5
					C137.6,79.6,137.5,80,137.5,80.5L137.5,80.5z"/>
			</g>
		</g>
		<g>
			<path class="st31" d="M140.1,87.4c-1.1,0-3.1-0.6-4.1-0.2c-1.2,0.4-1.3,1.2-1.3,1.2c-0.1,0,0-5.9,0-5.9c0-0.1,0.2-0.2,0.3-0.2
				c0,0,2.8,0.6,5.2,0.6c2.5,0.1,5.2-0.4,5.2-0.4c0.2,0,0.3,0.1,0.3,0.2l-0.1,5.7c0,0.1,0-0.8-1.6-1.3
				C143.2,86.8,141,87.4,140.1,87.4z"/>
		</g>
		<ellipse class="st32" cx="144.3" cy="60.9" rx="24.6" ry="24"/>
		<ellipse class="st33" cx="146.9" cy="61.1" rx="21.3" ry="23.5"/>
		<g>
			<g>
				<g>
					<defs>
						<ellipse id="SVGID_1_" cx="147.6" cy="61.1" rx="20.5" ry="22.7"/>
					</defs>
					<clipPath id="SVGID_00000041287359403652957460000013953279669555272336_">
						<use xlink:href="#SVGID_1_"  style="overflow:visible;"/>
					</clipPath>
					<path style="clip-path:url(#SVGID_00000041287359403652957460000013953279669555272336_);fill:#C2E183;" d="M147.3,39.4
						c-2-4-14.9,2.6-12.9,6.7l11.2,10.4c0.7,0.7,3.2-0.5,3-1.6L147.3,39.4z"/>
				</g>
				<g>
					<defs>
						<ellipse id="SVGID_00000060719462440097301470000003216449857727419786_" cx="147.6" cy="61.1" rx="20.5" ry="22.7"/>
					</defs>
					<clipPath id="SVGID_00000027590264295096182770000005433412464123465352_">
						<use xlink:href="#SVGID_00000060719462440097301470000003216449857727419786_"  style="overflow:visible;"/>
					</clipPath>
					<path style="clip-path:url(#SVGID_00000027590264295096182770000005433412464123465352_);fill:#C2E183;" d="M162.5,43.9
						c1.3-4.3-12.6-8.7-13.9-4.3l1.2,15.5c0,1.1,2.7,1.9,3.2,1L162.5,43.9z"/>
				</g>
				<g>
					<defs>
						<ellipse id="SVGID_00000065779429418220054230000005246761760398001806_" cx="147.6" cy="61.1" rx="20.5" ry="22.7"/>
					</defs>
					<clipPath id="SVGID_00000083785897749766533120000004132962096769892742_">
						<use xlink:href="#SVGID_00000065779429418220054230000005246761760398001806_"  style="overflow:visible;"/>
					</clipPath>
					<path style="clip-path:url(#SVGID_00000083785897749766533120000004132962096769892742_);fill:#C2E183;" d="M170.5,58
						c3.9-2.2-3.1-15.2-6.9-13l-9.7,11.9c-0.7,0.8,0.6,3.3,1.6,3.1L170.5,58z"/>
				</g>
				<g>
					<defs>
						<ellipse id="SVGID_00000078032385212729451240000012421426629289558939_" cx="147.6" cy="61.1" rx="20.5" ry="22.7"/>
					</defs>
					<clipPath id="SVGID_00000049932781604654523010000013175728230977457814_">
						<use xlink:href="#SVGID_00000078032385212729451240000012421426629289558939_"  style="overflow:visible;"/>
					</clipPath>
					<path style="clip-path:url(#SVGID_00000049932781604654523010000013175728230977457814_);fill:#C2E183;" d="M166.5,73.8
						c4.3,1.1,8-13.2,3.7-14.4l-15,1.8c-1,0.1-1.7,2.8-0.9,3.4L166.5,73.8z"/>
				</g>
				<g>
					<defs>
						<ellipse id="SVGID_00000092428694444693791220000017593968363294708649_" cx="147.6" cy="61.1" rx="20.5" ry="22.7"/>
					</defs>
					<clipPath id="SVGID_00000089553211133871923700000011544631484142313151_">
						<use xlink:href="#SVGID_00000092428694444693791220000017593968363294708649_"  style="overflow:visible;"/>
					</clipPath>
					<path style="clip-path:url(#SVGID_00000089553211133871923700000011544631484142313151_);fill:#C2E183;" d="M152.9,82.1
						c2.3,3.9,14.7-3.9,12.4-7.7l-12-9.4c-0.8-0.7-3.1,0.8-2.9,1.8L152.9,82.1z"/>
				</g>
				<g>
					<defs>
						<ellipse id="SVGID_00000150068267926319825730000016721079845885046435_" cx="147.6" cy="61.1" rx="20.5" ry="22.7"/>
					</defs>
					<clipPath id="SVGID_00000175308408619962153430000005924248237324525708_">
						<use xlink:href="#SVGID_00000150068267926319825730000016721079845885046435_"  style="overflow:visible;"/>
					</clipPath>
					<path style="clip-path:url(#SVGID_00000175308408619962153430000005924248237324525708_);fill:#C2E183;" d="M133.5,46.8
						c-4.2-1.5-8.9,12.5-4.8,14l15.1-0.6c1,0,1.9-2.7,1.1-3.3L133.5,46.8z"/>
				</g>
				<g>
					<defs>
						<ellipse id="SVGID_00000087371801175649762110000004974644691210507680_" cx="147.6" cy="61.1" rx="20.5" ry="22.7"/>
					</defs>
					<clipPath id="SVGID_00000104696700110999914870000013525408839971724976_">
						<use xlink:href="#SVGID_00000087371801175649762110000004974644691210507680_"  style="overflow:visible;"/>
					</clipPath>
					<path style="clip-path:url(#SVGID_00000104696700110999914870000013525408839971724976_);fill:#C2E183;" d="M128.8,62.2
						c-4,1.9,1.8,15.4,5.9,13.6l10.6-11c0.8-0.7-0.4-3.3-1.4-3.2L128.8,62.2z"/>
				</g>
				<g>
					<defs>
						<ellipse id="SVGID_00000034791680440258943080000008637714939586576528_" cx="147.6" cy="61.1" rx="20.5" ry="22.7"/>
					</defs>
					<clipPath id="SVGID_00000116195721178665026770000001955852682184012976_">
						<use xlink:href="#SVGID_00000034791680440258943080000008637714939586576528_"  style="overflow:visible;"/>
					</clipPath>
					<path style="clip-path:url(#SVGID_00000116195721178665026770000001955852682184012976_);fill:#C2E183;" d="M136,76.5
						c-1.6,4.2,11.8,9.7,13.5,5.5l0.1-15.5c0.1-1.1-2.5-2.1-3.1-1.3L136,76.5z"/>
				</g>
			</g>
		</g>
		<path class="st42" d="M146.9,52c0,4.3-1.7,7.9-3.7,7.9c-1.8,0-3.3-3.2-3.6-6.8c4.5-1.9,4-0.9,0.1-3.3c0.4-3.3,1.9-5.7,3.6-5.7
			C145.3,44.2,146.9,47.7,146.9,52z"/>
		<path class="st42" d="M159.3,52.3c0,4.3-1.7,7.9-3.7,7.9c-1.8,0-3.3-3.2-3.6-6.8c4.5-1.9,4-0.9,0.1-3.3c0.4-3.3,1.9-5.7,3.6-5.7
			C157.6,44.4,159.3,47.9,159.3,52.3z"/>
		<path class="st42" d="M163.1,68.2c0,1.5-0.7,2.9-1.8,4.2c-2.6,2.7-7.6,4.6-13.4,4.6c-8.4,0-15.2-3.9-15.2-8.7c0-2.3,1.3-5,4.1-6
			c2.5-0.9,7.8,3.5,11.3,5C155.9,70.6,163.1,63.4,163.1,68.2z"/>
		<path class="st43" d="M133.2,65.7c-1,2.6-0.3,4.6,0.5,5.7c1.5,2.6,5.6,4,6.3,4.3c5.3,1.9,9.5,1.2,9.5,1.2c2.9-0.7,2.2-4.6-0.1-5.6
			c-1.2-0.3-3.6-1.1-5.9-0.1c-0.4-2.1-4.3-5.4-4.3-5.4S134.6,62.5,133.2,65.7z"/>
		<g>
			<g>
				<path class="st42" d="M143.1,70.1c0.1,0.8,0.2,1.5,0.3,2.3c0,0.1,0.1,0.1,0.2,0c0.2-0.8,0.2-1.7,0-2.5c-0.1,0-0.1,0-0.2,0
					c0.1,0.6,0.2,1.1,0.1,1.7c0,0.1,0.1,0.1,0.2,0c0.1-0.3,0.1-0.7,0-1.1c0-0.1-0.1-0.1-0.2,0c0,0.4-0.1,0.7-0.1,1.1
					c0.1,0,0.1,0,0.2,0c0-0.4,0-0.8,0-1.2c0-0.1-0.2-0.1-0.2,0c0,0.3,0,0.6,0,1c0,0.1,0.1,0.1,0.1,0.1c0.2-0.1,0.2-0.4,0.2-0.6
					c0-0.3,0-0.6,0-0.9c0-0.1-0.2-0.1-0.2,0c0,0.3,0,0.6,0,0.8c0,0.1,0,0.3,0,0.4c0,0.1,0,0.2-0.1,0.2c0,0,0.1,0,0.1,0.1
					c0-0.3,0-0.6,0-1c-0.1,0-0.1,0-0.2,0c0,0.4,0,0.8,0,1.2c0,0.1,0.2,0.1,0.2,0c0-0.4,0.1-0.7,0.1-1.1c-0.1,0-0.1,0-0.2,0
					c0.1,0.3,0.1,0.6,0,1c0.1,0,0.1,0,0.2,0c0.1-0.6,0-1.2-0.1-1.7c0-0.1-0.2-0.1-0.2,0c0.2,0.8,0.2,1.6,0,2.4c0.1,0,0.1,0,0.2,0
					c-0.1-0.8-0.2-1.6-0.3-2.4C143.2,70,143,70,143.1,70.1L143.1,70.1z"/>
			</g>
		</g>
		<g>
			<g>
				<path class="st42" d="M144.1,67.7c0.2,0.4,0.4,0.8,0.6,1.1c0.1,0.1,0.2,0,0.1-0.1c-0.2-0.4-0.4-0.8-0.6-1.1
					C144.2,67.5,144,67.6,144.1,67.7L144.1,67.7z"/>
			</g>
		</g>
		<g>
			<g>
				<path class="st42" d="M141.4,65.7c0.2,0.5,0.4,0.9,0.6,1.4c0.2,0.4,0.3,0.8,0.6,1.2c0.1,0.2,0.3,0.4,0.5,0.6
					c0.1,0.1,0.2,0,0.1-0.1c-0.3-0.3-0.5-0.7-0.7-1.1c-0.2-0.4-0.4-0.8-0.6-1.3c-0.1-0.3-0.2-0.5-0.3-0.8c0,0-0.1,0-0.1,0
					C141.4,65.6,141.4,65.6,141.4,65.7L141.4,65.7z"/>
			</g>
		</g>
		<ellipse class="st43" cx="152" cy="58.9" rx="5.1" ry="3.3"/>
		<path class="st42" d="M145.8,38.1l-12.4,4.8c-0.4,0.1-0.8,0-1-0.4l-0.1-0.2c-0.2-0.4,0-0.8,0.3-1l11.8-6.4c0.4-0.2,0.9,0,1.1,0.4
			l0.7,1.8C146.4,37.5,146.2,38,145.8,38.1z"/>
		<path class="st42" d="M150.2,38.3l12.4,4.8c0.4,0.1,0.8,0,1-0.4l0.1-0.2c0.2-0.4,0-0.8-0.3-1l-11.8-6.4c-0.4-0.2-0.9,0-1.1,0.4
			l-0.7,1.8C149.6,37.7,149.8,38.2,150.2,38.3z"/>
		<ellipse transform="matrix(0.3708 -0.9287 0.9287 0.3708 44.0763 179.3252)" class="st44" cx="154.4" cy="57.1" rx="0.7" ry="2"/>
		<g>
			<g>
				<g>
					<g>
						<path class="st45" d="M179,40.7c1.4-1.2,2.2-3.1,2.3-4.9c0-1.1-0.2-2.3-0.2-3.4c0-0.8,0.2-1.7,0.3-2.5
							c0.2-1.4,0.4-3.1,0.2-4.5c-0.2-1.2-0.8-1.4-1.4-1.5c-0.4,0-0.8,0.3-1,0.6c-0.2,0.3-0.4,0.8-0.5,1.2c-0.2,1-0.3,1.9-0.2,2.9
							c0,0.7,0,0.9-0.1,1.4c-0.1,0.5-0.2,0.7-0.4,0.9c0,0-0.3,0-0.7-0.1c-0.2-0.1-0.1-0.4-0.1-0.6c0.1-2,0.3-4.5,0.1-6
							c-0.1-0.4-0.2-1.2-0.5-1.5c-0.3-0.3-0.7-0.4-1.2-0.5c-0.4-0.1-1,0.1-1.4,0.4c-0.3,0.2-0.4,0.5-0.5,0.8
							c-0.3,0.8-0.2,1.6-0.1,2.4c0.1,1.1,0.2,2.3,0.5,3.4c0.1,0.5,0.2,1-0.1,1.3c-0.2,0.2-0.5,0.2-0.7,0.2c-0.1,0-0.2,0-0.3,0
							c-0.1-0.1-0.1-0.3-0.1-0.4c0.1-1.6-0.1-3.3-0.5-4.9c-0.1-0.2-0.1-0.5-0.2-0.7c-0.4-0.7-1.3-1-2.1-0.7c-0.7,0.3-1.3,1-1.4,1.8
							c-0.1,0.8,0.1,1.5,0.4,2.2c0.4,1.1,0.7,2.3,1.1,3.4c0.2,0.6,0.4,1.2,0.3,1.7c0,0.1,0,0.2-0.1,0.2c-0.1,0.1-0.2,0-0.3,0
							c-0.9-0.4-1.7-0.8-2.7-0.9c-0.9-0.1-1.9,0-2.6,0.7c-0.1,0.1-0.3,0.3-0.3,0.5c-0.2,0.6,0.3,1.2,0.8,1.6c0.6,0.4,1.3,0.7,2,0.9
							c0.4,0.1,0.9,0.1,1.3,0.3c0.7,0.2,1.3,0.7,1.7,1.3c0.4,0.5,0.5,1.2,0.9,1.7c0.3,0.6,0.8,1.3,1.4,1.3c-0.3,0.8,0,1.9,0.8,2.2
							c0.4,0.1,1.1,0.2,1.5,0.1c0.9,0,1.7,0,2.7,0c1.1,0.1,1.7-1.4,1.5-2.2L179,40.7z"/>
						<g>
							<path class="st46" d="M179,40.7c1-0.9,1.7-2.1,2-3.4c0.2-0.7,0.2-1.4,0.2-2.1c0-0.8-0.2-1.6-0.2-2.4c0-0.8,0.1-1.7,0.2-2.5
								c0.1-0.8,0.2-1.5,0.3-2.3c0.1-0.8,0.1-1.5,0.1-2.3c0-0.6-0.1-1.2-0.5-1.6c-0.3-0.3-0.7-0.4-1-0.4c-0.3,0-0.6,0.2-0.8,0.4
								c-0.2,0.2-0.4,0.5-0.5,0.8c-0.1,0.3-0.2,0.7-0.3,1c-0.1,0.4-0.1,0.8-0.2,1.2c0,0.4,0,0.8,0,1.2c0,0.3,0,0.7,0,1
								c0,0.3-0.1,0.6-0.2,0.9c0,0.1-0.1,0.3-0.1,0.4c0,0.1-0.1,0.2-0.2,0.3c-0.1,0-0.2,0-0.3,0c-0.1,0-0.2,0-0.3-0.1
								c-0.1,0-0.1-0.1-0.1-0.1c0-0.1,0-0.3,0-0.4c0-0.2,0-0.3,0-0.5c0.1-1.4,0.2-2.8,0.2-4.2c0-0.3,0-0.6,0-0.9
								c0-0.3-0.1-0.5-0.1-0.8c-0.1-0.3-0.1-0.6-0.3-0.8c-0.1-0.3-0.4-0.4-0.6-0.6c-0.3-0.1-0.6-0.2-0.9-0.2c-0.3,0-0.6,0.1-0.9,0.2
								c-0.3,0.1-0.5,0.3-0.7,0.6c-0.2,0.3-0.3,0.7-0.3,1c-0.1,0.8,0,1.6,0.1,2.3c0.1,0.8,0.2,1.6,0.3,2.4c0.1,0.3,0.2,0.7,0.2,1
								c0,0.3,0,0.6-0.4,0.8c-0.2,0.1-0.3,0.1-0.5,0.1c-0.1,0-0.2,0-0.2,0c-0.1-0.1-0.1-0.1-0.1-0.2c0-0.2,0-0.4,0-0.5
								c0-0.2,0-0.4,0-0.6c0-0.8-0.1-1.6-0.2-2.4c-0.1-0.4-0.1-0.8-0.2-1.2c-0.1-0.4-0.1-0.7-0.3-1c-0.3-0.5-0.8-0.8-1.4-0.8
								c-0.6,0-1.2,0.2-1.5,0.6c-0.4,0.5-0.7,1.1-0.7,1.7c0,0.8,0.3,1.6,0.5,2.3c0.2,0.8,0.5,1.6,0.7,2.4c0.1,0.4,0.2,0.8,0.4,1.2
								c0.1,0.4,0.2,0.8,0.2,1.2c0,0.1,0,0.2-0.2,0.1c-0.1,0-0.2-0.1-0.3-0.1c-0.2-0.1-0.4-0.2-0.5-0.2c-0.3-0.1-0.7-0.3-1.1-0.4
								c-0.7-0.2-1.4-0.3-2-0.2c-0.6,0.1-1.3,0.4-1.7,0.9c-0.2,0.2-0.3,0.5-0.2,0.9c0.1,0.3,0.2,0.6,0.5,0.8
								c0.2,0.3,0.5,0.5,0.8,0.6c0.3,0.2,0.6,0.3,1,0.5c0.4,0.1,0.7,0.2,1.1,0.3c0.4,0.1,0.7,0.1,1.1,0.3c0.6,0.3,1.1,0.7,1.5,1.3
								c0.2,0.3,0.3,0.7,0.5,1c0.1,0.3,0.3,0.6,0.5,0.9c0.3,0.4,0.7,0.9,1.3,1c0,0-0.1-0.1-0.1-0.1c-0.2,0.6-0.1,1.3,0.2,1.8
								c0.2,0.2,0.4,0.4,0.7,0.5c0.4,0.1,0.7,0.1,1.1,0.1c0.4,0,0.8,0,1.2,0c0.4,0,0.9,0,1.3,0c0.3,0,0.7,0,1-0.1
								c0.2-0.1,0.5-0.3,0.6-0.5c0.4-0.5,0.6-1.1,0.4-1.7c0,0,0,0.1,0,0.1C178.9,40.8,179,40.8,179,40.7c0.1-0.1,0-0.2-0.1-0.1
								c0,0.1-0.1,0.1-0.2,0.2c0,0.1,0,0.1,0,0.2c0,0.1,0,0.1,0,0.2c0,0.3,0,0.5-0.1,0.8c-0.2,0.5-0.6,1-1.2,1c-0.4,0-0.8,0-1.3,0
								c-0.4,0-0.8,0-1.3,0c-0.4,0-0.7,0-1.1,0c-0.3,0-0.7-0.1-0.9-0.3c-0.6-0.4-0.7-1.3-0.5-1.9c0-0.1,0-0.1-0.1-0.1
								c-0.6,0-1-0.6-1.3-1.1c-0.4-0.6-0.6-1.3-1-1.9c-0.4-0.5-0.9-0.9-1.4-1.2c-0.3-0.1-0.7-0.2-1.1-0.3c-0.4-0.1-0.7-0.1-1.1-0.3
								c-0.3-0.1-0.7-0.3-1-0.5c-0.3-0.2-0.6-0.4-0.8-0.6c-0.2-0.2-0.4-0.6-0.4-0.9c0-0.4,0.3-0.6,0.6-0.8c1.2-0.9,2.7-0.5,3.9,0
								c0.4,0.1,0.7,0.3,1.1,0.5c0.1,0.1,0.3,0.1,0.4,0c0.1-0.1,0.1-0.3,0.1-0.4c0-0.8-0.3-1.6-0.6-2.3c-0.2-0.8-0.5-1.6-0.7-2.3
								c-0.2-0.8-0.5-1.5-0.5-2.3c0-0.6,0.3-1.3,0.8-1.7c0.4-0.4,1-0.5,1.6-0.4c0.3,0.1,0.5,0.2,0.7,0.4c0.2,0.2,0.3,0.6,0.4,0.9
								c0.2,0.8,0.3,1.6,0.4,2.4c0.1,0.8,0.1,1.6,0.1,2.4c0,0.2-0.1,0.7,0.3,0.7c0.1,0,0.3,0,0.5,0c0.2,0,0.3-0.1,0.4-0.2
								c0.5-0.4,0.3-1.1,0.2-1.6c-0.2-0.8-0.3-1.6-0.3-2.4c-0.1-0.8-0.2-1.6-0.1-2.3c0-0.4,0.1-0.7,0.3-1.1c0.2-0.3,0.4-0.5,0.7-0.6
								c0.3-0.1,0.6-0.2,1-0.2c0.3,0,0.6,0.1,0.9,0.3c0.3,0.2,0.4,0.4,0.5,0.7c0.1,0.3,0.2,0.6,0.2,0.9c0,0.3,0.1,0.6,0.1,0.8
								c0,0.3,0,0.6,0,0.9c0,0.7,0,1.4-0.1,2.1c0,0.7-0.1,1.4-0.1,2.1c0,0.1,0,0.3,0,0.4c0,0.1,0,0.2,0,0.3c0.1,0.1,0.3,0.1,0.4,0.1
								c0.1,0,0.3,0,0.4,0c0.2,0,0.3-0.3,0.4-0.4c0.1-0.3,0.2-0.6,0.2-0.8c0.1-0.6,0-1.3,0-2c0-0.8,0.1-1.5,0.3-2.3
								c0.1-0.3,0.2-0.6,0.4-0.9c0.2-0.3,0.4-0.5,0.8-0.6c0.4-0.1,0.8,0,1.1,0.3c0.4,0.4,0.5,1.1,0.5,1.7c0,0.8,0,1.5-0.1,2.3
								c-0.1,0.8-0.2,1.5-0.3,2.3c-0.1,0.8-0.2,1.6-0.2,2.4c0,0.8,0.2,1.6,0.2,2.4c0.1,1.4-0.3,2.7-1,3.9c-0.3,0.5-0.7,1-1.2,1.5
								C178.8,40.7,179,40.8,179,40.7z"/>
						</g>
					</g>
				</g>
				<g>
					<path class="st45" d="M172.6,40.9c0.5,0.2,1.1,0.2,1.6,0.1"/>
					<g>
						<path class="st46" d="M172.5,40.9c0.5,0.2,1.1,0.2,1.6,0.1c0.1,0,0.1-0.2,0-0.2c-0.5,0.1-1.1,0.1-1.6-0.1
							C172.5,40.7,172.4,40.9,172.5,40.9L172.5,40.9z"/>
					</g>
				</g>
				<g>
					<path class="st45" d="M177.4,40.8c0.6,0,1.3-0.1,1.9-0.4"/>
					<g>
						<path class="st46" d="M177.4,40.9c0.6,0,1.3-0.1,1.9-0.4c0.1,0,0.1-0.2,0-0.2c-0.6,0.2-1.2,0.4-1.8,0.4
							C177.3,40.7,177.3,40.9,177.4,40.9L177.4,40.9z"/>
					</g>
				</g>
				<g>
					<path class="st45" d="M172.2,31.7c0.9-0.7,2.1-1,3.2-0.9c1.1,0.1,2.2,0.4,3.3,0.8"/>
					<g>
						<path class="st46" d="M172.2,31.7c0.6-0.5,1.4-0.8,2.2-0.9c0.9-0.1,1.8,0.1,2.7,0.3c0.5,0.1,1,0.3,1.5,0.5
							c0.1,0,0.1-0.1,0-0.2c-0.9-0.3-1.9-0.6-2.8-0.8c-0.8-0.1-1.7-0.1-2.5,0.2c-0.4,0.2-0.8,0.4-1.2,0.7
							C172,31.7,172.1,31.8,172.2,31.7L172.2,31.7z"/>
					</g>
				</g>
			</g>
			<g>
				<path class="st45" d="M170.1,33.5c0.4-0.1,0.7,0.1,1,0.3c0.5,0.3,1,0.7,1.4,1.2c0.4,0.5,0.6,1.1,0.5,1.7"/>
				<g>
					<path class="st46" d="M170.1,33.5c0.3-0.1,0.6,0.1,0.9,0.3c0.3,0.2,0.5,0.3,0.8,0.5c0.5,0.4,0.9,0.8,1.1,1.4
						c0.1,0.3,0.1,0.6,0.1,1c0,0.1,0.1,0.1,0.2,0c0.1-0.6-0.1-1.3-0.5-1.7c-0.4-0.5-1-0.9-1.5-1.2c-0.3-0.2-0.7-0.4-1-0.3
						C169.9,33.4,170,33.6,170.1,33.5L170.1,33.5z"/>
				</g>
			</g>
		</g>
		<g>
			<g>
				<path class="st25" d="M121.9,66.4c-0.9-0.9-1.9-1.7-2.9-2.4c-0.9-0.7-1.8-1.3-2.7-2c-0.5-0.4-1-0.7-1.5-1.1
					c0.2,0.1,0.4,0.3,0.5,0.4c-0.9-0.7-1.7-1.4-2.4-2.2c-0.2-0.2-0.4-0.4-0.5-0.6c0.1,0.2,0.3,0.4,0.4,0.5c-0.2-0.3-0.4-0.6-0.6-1
					c0.1,0.2,0.2,0.4,0.3,0.6c-0.3-0.7-0.5-1.5-0.6-2.3c0,0.2,0.1,0.5,0.1,0.7c-0.1-1-0.2-1.9-0.1-2.9c0-0.9,0.1-1.8,0.2-2.8
					c0-0.4,0.1-0.9,0.2-1.3c0,0.2-0.1,0.5-0.1,0.7c0.1-0.5,0.1-1,0.2-1.6c0,0,0-0.1,0-0.1c0.1-0.3,0.1-0.7,0-1c0-0.3-0.1-0.7-0.3-1
					c-0.2-0.3-0.4-0.5-0.7-0.7c-0.3-0.2-0.5-0.4-0.9-0.5c-0.2,0-0.5-0.1-0.7-0.1c-0.5,0-0.9,0.1-1.3,0.4c-0.2,0.1-0.4,0.3-0.5,0.4
					c-0.3,0.3-0.5,0.7-0.7,1.2c-0.2,0.8-0.3,1.7-0.4,2.5c-0.2,1.4-0.3,2.7-0.3,4.1c0,0.8,0,1.5,0.1,2.3c0.1,0.9,0.2,1.9,0.5,2.8
					c0.2,0.5,0.4,1,0.6,1.5c0.1,0.3,0.3,0.5,0.4,0.7c0.4,0.5,0.8,1.1,1.3,1.6c0.4,0.4,0.7,0.7,1.1,1c1.8,1.5,3.7,2.8,5.6,4.1
					c0.2,0.1,0.4,0.3,0.6,0.4c-0.2-0.1-0.4-0.3-0.5-0.4c0.7,0.5,1.4,1.1,2,1.7c0.2,0.3,0.5,0.4,0.8,0.5c0.3,0.2,0.6,0.2,1,0.2
					c0.4,0,0.7-0.1,1-0.2c0.3-0.1,0.6-0.3,0.8-0.5c0.1-0.2,0.3-0.4,0.4-0.5c0.2-0.4,0.4-0.8,0.4-1.3c0-0.2-0.1-0.5-0.1-0.7
					C122.4,67.1,122.2,66.7,121.9,66.4L121.9,66.4z"/>
			</g>
		</g>
		<g>
			<g>
				<g>
					<g>
						<path class="st45" d="M107.1,45.6c-1.3-1.4-1.9-3.3-1.8-5.1c0.1-1.1,0.4-2.3,0.5-3.4c0.1-0.8,0-1.7,0-2.5
							c0-1.5-0.1-3.1,0.2-4.5c0.3-1.2,1-1.3,1.5-1.3c0.4,0,0.8,0.4,1,0.7c0.2,0.3,0.3,0.8,0.4,1.2c0.1,1,0.1,1.9,0,2.9
							c-0.1,0.7-0.1,0.9,0,1.4c0.1,0.5,0.1,0.7,0.4,1c0,0,0.3,0.1,0.7,0c0.2,0,0.1-0.3,0.1-0.6c0.1-2,0.1-4.5,0.4-6
							c0.1-0.4,0.3-1.1,0.7-1.4c0.4-0.3,0.7-0.4,1.2-0.4c0.4,0,1,0.2,1.3,0.5c0.2,0.2,0.4,0.5,0.5,0.8c0.2,0.8,0,1.6-0.1,2.4
							c-0.2,1.1-0.4,2.2-0.8,3.3c-0.1,0.4-0.3,1,0,1.3c0.2,0.2,0.4,0.2,0.7,0.3c0.1,0,0.2,0,0.3,0c0.1-0.1,0.2-0.3,0.2-0.4
							c0.1-1.6,0.4-3.3,0.9-4.8c0.1-0.2,0.2-0.5,0.3-0.7c0.4-0.7,1.4-0.9,2.1-0.5c0.7,0.3,1.2,1.2,1.2,2c0,0.8-0.3,1.5-0.6,2.2
							c-0.5,1.1-0.9,2.2-1.4,3.3c-0.2,0.6-0.5,1.1-0.5,1.7c0,0.1,0,0.2,0.1,0.2c0.1,0.1,0.2,0,0.3,0c0.9-0.3,1.8-0.6,2.7-0.7
							c0.9-0.1,1.9,0.2,2.6,0.9c0.1,0.1,0.2,0.3,0.3,0.5c0.2,0.6-0.4,1.2-0.9,1.6c-0.6,0.4-1.3,0.6-2,0.7c-0.4,0.1-0.9,0.1-1.3,0.1
							c-0.7,0.1-1.4,0.6-1.8,1.1c-0.4,0.5-0.6,1.1-1,1.6c-0.4,0.5-0.9,1.2-1.5,1.1c0.2,0.8-0.2,1.9-1,2.1c-0.4,0.1-1.1,0.1-1.5,0
							c-0.9-0.1-1.7-0.2-2.7-0.3c-1.1,0-1.6-1.5-1.3-2.3L107.1,45.6z"/>
						<g>
							<path class="st46" d="M107.1,45.6c-0.9-1-1.5-2.3-1.7-3.6c-0.1-0.7-0.1-1.4,0-2.1c0.1-0.8,0.3-1.5,0.4-2.3
								c0.1-0.8,0.1-1.6,0-2.4c0-0.7,0-1.5,0-2.2c0-0.8,0-1.5,0.1-2.3c0.1-0.6,0.2-1.2,0.7-1.6c0.3-0.2,0.8-0.3,1.2-0.1
								c0.6,0.3,0.8,1,0.9,1.7c0.1,0.8,0.1,1.6,0.1,2.3c0,0.7-0.2,1.3-0.1,2c0,0.3,0.1,0.6,0.2,0.9c0.1,0.2,0.2,0.4,0.4,0.4
								c0.1,0,0.3,0,0.4,0c0.1,0,0.3,0,0.3-0.1c0.1-0.1,0-0.2,0-0.3c0-0.1,0-0.3,0-0.4c0.1-1.4,0.1-2.8,0.2-4.1
								c0-0.3,0.1-0.6,0.1-0.9c0-0.3,0.1-0.5,0.1-0.8c0.1-0.3,0.2-0.6,0.3-0.8c0.1-0.3,0.3-0.5,0.6-0.6c0.3-0.1,0.6-0.2,0.9-0.2
								c0.3,0,0.7,0.2,0.9,0.3c0.3,0.2,0.5,0.4,0.6,0.7c0.1,0.4,0.2,0.8,0.1,1.1c0,0.4-0.1,0.8-0.2,1.2c-0.1,0.4-0.1,0.8-0.2,1.2
								c-0.2,0.8-0.3,1.5-0.6,2.3c-0.2,0.5-0.4,1.3,0.2,1.6c0.1,0.1,0.3,0.1,0.4,0.1c0.1,0,0.3,0.1,0.4,0c0.3-0.1,0.2-0.6,0.2-0.8
								c0.1-1.6,0.4-3.1,1-4.6c0.1-0.3,0.3-0.6,0.5-0.8c0.2-0.2,0.5-0.3,0.8-0.3c0.6-0.1,1.2,0.1,1.6,0.6c0.4,0.5,0.6,1.1,0.6,1.8
								c-0.1,0.8-0.4,1.5-0.7,2.2c-0.3,0.8-0.6,1.5-0.9,2.3c-0.3,0.7-0.6,1.4-0.8,2.2c0,0.1-0.1,0.3,0,0.5c0.1,0.1,0.2,0.1,0.4,0.1
								c0.4-0.1,0.7-0.2,1.1-0.4c0.7-0.2,1.4-0.4,2.2-0.3c0.6,0,1.3,0.3,1.8,0.7c0.2,0.2,0.5,0.5,0.5,0.8c0,0.3-0.2,0.6-0.4,0.9
								c-0.2,0.3-0.5,0.4-0.8,0.6c-0.3,0.2-0.7,0.3-1,0.4c-0.4,0.1-0.8,0.1-1.1,0.2c-0.4,0-0.7,0.1-1.1,0.2
								c-0.6,0.2-1.2,0.6-1.6,1.1c-0.5,0.5-0.7,1.2-1.1,1.8c-0.3,0.4-0.8,1-1.4,1c-0.1,0-0.1,0.1-0.1,0.1c0.1,0.6,0,1.3-0.5,1.7
								c-0.3,0.2-0.6,0.3-0.9,0.3c-0.4,0-0.7,0-1.1-0.1c-0.8-0.1-1.7-0.2-2.6-0.3c-0.3,0-0.5-0.1-0.7-0.3c-0.2-0.2-0.3-0.4-0.4-0.7
								c-0.1-0.3-0.2-0.6-0.1-0.9c0-0.1,0-0.3,0.1-0.4C107.3,45.8,107.2,45.7,107.1,45.6c0-0.1-0.2,0-0.1,0.1c0,0.1,0.1,0.1,0.1,0.2
								c0,0,0,0,0-0.1c-0.2,0.5-0.1,1.1,0.1,1.5c0.1,0.2,0.3,0.5,0.5,0.6c0.2,0.2,0.5,0.2,0.8,0.3c0.9,0.1,1.8,0.1,2.6,0.3
								c0.4,0.1,0.8,0.1,1.1,0c0.3,0,0.6-0.1,0.9-0.3c0.6-0.4,0.7-1.3,0.6-1.9c0,0-0.1,0.1-0.1,0.1c0.6,0,1.1-0.5,1.4-1
								c0.2-0.3,0.4-0.6,0.6-0.9c0.2-0.3,0.4-0.7,0.6-1c0.4-0.5,1-0.9,1.7-1.1c0.4-0.1,0.8-0.1,1.2-0.1c0.4,0,0.7-0.1,1.1-0.2
								c0.7-0.2,1.4-0.5,1.8-1c0.2-0.2,0.4-0.5,0.4-0.8c0-0.3-0.1-0.6-0.3-0.9c-0.4-0.5-1-0.8-1.6-0.9c-0.7-0.1-1.4-0.1-2.1,0.1
								c-0.4,0.1-0.8,0.2-1.1,0.3c-0.2,0.1-0.4,0.1-0.6,0.2c0,0-0.1,0-0.1,0c-0.1,0-0.1-0.1-0.1-0.1c0-0.1,0-0.2,0-0.3
								c0.1-0.4,0.2-0.7,0.3-1.1c0.1-0.4,0.3-0.8,0.5-1.1c0.3-0.8,0.6-1.5,0.9-2.3c0.3-0.7,0.6-1.4,0.7-2.2c0.1-1.2-0.8-2.5-2.1-2.5
								c-0.6,0-1.1,0.3-1.4,0.8c-0.2,0.3-0.3,0.7-0.4,1c-0.1,0.4-0.2,0.8-0.3,1.2c-0.2,0.8-0.3,1.5-0.4,2.3c0,0.2,0,0.4-0.1,0.6
								c0,0.2,0,0.4,0,0.5c0,0.1,0,0.1-0.1,0.2c-0.1,0.1-0.2,0-0.3,0c-0.2,0-0.3-0.1-0.5-0.1c-0.3-0.2-0.3-0.5-0.3-0.8
								c0.1-0.3,0.2-0.7,0.3-1c0.2-0.8,0.4-1.6,0.5-2.3c0.1-0.8,0.3-1.6,0.3-2.4c0-0.3-0.1-0.7-0.3-1c-0.2-0.3-0.4-0.5-0.7-0.6
								c-0.3-0.2-0.6-0.3-0.9-0.3c-0.3,0-0.6,0-0.9,0.2c-0.3,0.1-0.5,0.3-0.7,0.5c-0.2,0.3-0.3,0.5-0.3,0.8
								c-0.2,0.6-0.2,1.1-0.3,1.7c-0.1,0.7-0.1,1.4-0.1,2.1c0,0.7-0.1,1.4-0.1,2.1c0,0.2,0,0.3,0,0.5c0,0.1,0,0.3,0,0.4
								c0,0.1-0.1,0.1-0.1,0.1c-0.1,0-0.2,0-0.3,0c-0.1,0-0.1,0-0.2,0c-0.1,0-0.1,0-0.1-0.1c-0.2-0.2-0.2-0.5-0.3-0.7
								c0-0.3-0.1-0.6-0.1-0.9c0-0.4,0.1-0.7,0.1-1.1c0-0.4,0.1-0.8,0.1-1.2c0-0.4,0-0.8-0.1-1.2c0-0.3-0.1-0.7-0.2-1
								c-0.1-0.3-0.2-0.6-0.5-0.8c-0.2-0.2-0.5-0.4-0.8-0.4c-0.4,0-0.8,0.1-1.1,0.4c-0.4,0.4-0.6,1.1-0.6,1.7
								c-0.1,0.7-0.1,1.5-0.1,2.3c0,0.8,0,1.5,0.1,2.3c0,0.8,0.1,1.6-0.1,2.5c-0.1,0.8-0.3,1.5-0.4,2.3c-0.2,1.4,0,2.8,0.7,4
								c0.3,0.6,0.7,1.1,1.1,1.6C107.1,45.8,107.2,45.7,107.1,45.6z"/>
						</g>
					</g>
				</g>
				<g>
					<path class="st45" d="M113.4,46.4c-0.5,0.1-1.1,0.1-1.6,0"/>
					<g>
						<path class="st46" d="M113.4,46.4c-0.5,0.1-1.1,0.1-1.6,0c-0.1,0-0.1,0.1,0,0.2c0.5,0.2,1.1,0.2,1.7,0
							C113.6,46.5,113.5,46.3,113.4,46.4L113.4,46.4z"/>
					</g>
				</g>
				<g>
					<path class="st45" d="M108.6,46c-0.6-0.1-1.2-0.3-1.8-0.6"/>
					<g>
						<path class="st46" d="M108.6,45.9c-0.6-0.1-1.2-0.3-1.8-0.5c-0.1,0-0.2,0.1-0.1,0.1c0.6,0.3,1.2,0.5,1.9,0.6
							C108.7,46,108.7,45.9,108.6,45.9L108.6,45.9z"/>
					</g>
				</g>
				<g>
					<path class="st45" d="M114.7,37.3c-0.8-0.8-1.9-1.2-3.1-1.2c-1.1,0-2.3,0.2-3.3,0.5"/>
					<g>
						<path class="st46" d="M114.7,37.3c-0.6-0.6-1.3-0.9-2.1-1.1c-0.9-0.2-1.8-0.1-2.7,0c-0.6,0.1-1.1,0.2-1.6,0.4
							c-0.1,0-0.1,0.2,0,0.2c0.9-0.2,1.9-0.5,2.9-0.5c0.8,0,1.7,0.1,2.4,0.4c0.4,0.2,0.8,0.4,1.1,0.8
							C114.7,37.4,114.8,37.3,114.7,37.3L114.7,37.3z"/>
					</g>
				</g>
			</g>
			<g>
				<path class="st45" d="M116.6,39.3c-0.4-0.1-0.7,0.1-1.1,0.2c-0.5,0.3-1.1,0.6-1.5,1c-0.4,0.4-0.7,1-0.6,1.7"/>
				<g>
					<path class="st46" d="M116.6,39.2c-0.3-0.1-0.7,0-1,0.2c-0.3,0.1-0.6,0.3-0.9,0.5c-0.5,0.3-1,0.8-1.3,1.3
						c-0.1,0.3-0.2,0.7-0.2,1c0,0.1,0.2,0.1,0.2,0c-0.1-0.6,0.2-1.2,0.6-1.6c0.4-0.4,0.9-0.7,1.5-1c0.3-0.2,0.7-0.3,1-0.2
						C116.7,39.4,116.7,39.3,116.6,39.2L116.6,39.2z"/>
				</g>
			</g>
		</g>
		<g id="Manga_2_">
			<g>
				<path class="st31" d="M118.1,60.7l-5.5,5.6c-0.3,0.3-0.3,0.8,0,0.9l9.4,4.9c0.2,0.1,0.5,0,0.8-0.3l2.6-2.1
					c0.2-0.3,0.3-0.6,0.1-0.8l-6.5-8.5C118.8,60.3,118.4,60.4,118.1,60.7z"/>
			</g>
			<g>
				<path class="st26" d="M118.1,60.7l-5.6,5.6c-0.3,0.3-0.3,0.8,0,0.9l0.1,0c0.7,0.4,1.2-0.1,1.7-0.6l4.4-4.2
					c0.5-0.6,0.8-1.2,0.3-1.9l0,0C118.8,60.3,118.4,60.4,118.1,60.7z"/>
			</g>
		</g>
		<g id="Manga_1_" class="st0">
			<g class="st1">
				<path class="st31" d="M124,58.3l-7.7,1.7c-0.4,0.1-0.7,0.5-0.5,0.7l5.3,9.3c0.1,0.2,0.5,0.3,0.8,0.2l3.3-0.3
					c0.3-0.1,0.6-0.4,0.6-0.6l-0.9-10.6C124.8,58.3,124.4,58.2,124,58.3z"/>
			</g>
			<g class="st1">
				<path class="st26" d="M124,58.3l-7.7,1.7c-0.4,0.1-0.7,0.5-0.5,0.7l0,0.1c0.4,0.7,1.1,0.6,1.8,0.4l5.9-1.2
					c0.8-0.2,1.3-0.6,1.3-1.4l0,0C124.8,58.3,124.4,58.2,124,58.3z"/>
			</g>
		</g>
		
			<rect id="Brazo_2_" x="116.1" y="42.1" transform="matrix(0.9788 -0.205 0.205 0.9788 -8.0248 25.3722)" class="st47" width="4.7" height="18.7"/>
		<g class="st0">
			<g class="st1">
				<g>
					<g>
						<path class="st45" d="M119.6,42.1c1.2-1.4,1.7-3.4,1.4-5.2c-0.2-1.1-0.6-2.2-0.8-3.4c-0.1-0.8-0.1-1.7-0.1-2.5
							c-0.1-1.5-0.1-3.1-0.5-4.5c-0.3-1.1-1.1-1.3-1.6-1.2c-0.4,0-0.7,0.4-0.9,0.8c-0.2,0.4-0.3,0.9-0.3,1.3c0,1,0,1.9,0.2,2.9
							c0.1,0.6,0.2,0.9,0.1,1.4c0,0.5-0.1,0.7-0.3,1c0,0-0.3,0.1-0.7,0.1c-0.2,0-0.1-0.3-0.2-0.5c-0.2-2-0.4-4.4-0.8-6
							c-0.1-0.4-0.4-1.1-0.8-1.4c-0.4-0.3-0.8-0.3-1.2-0.3c-0.4,0-1,0.3-1.3,0.6c-0.2,0.2-0.4,0.5-0.4,0.9c-0.1,0.8,0.1,1.6,0.3,2.4
							c0.3,1.1,0.6,2.2,1,3.2c0.2,0.4,0.4,1,0.1,1.3c-0.2,0.2-0.4,0.3-0.7,0.3c-0.1,0-0.2,0-0.3,0c-0.1-0.1-0.2-0.3-0.2-0.4
							c-0.2-1.6-0.6-3.2-1.3-4.8c-0.1-0.2-0.2-0.5-0.3-0.6c-0.5-0.6-1.5-0.8-2.2-0.4c-0.7,0.4-1.1,1.2-1.1,2c0,0.8,0.4,1.5,0.7,2.2
							c0.5,1.1,1.1,2.2,1.6,3.2c0.3,0.5,0.5,1.1,0.6,1.7c0,0.1,0,0.2,0,0.2c-0.1,0.1-0.2,0-0.3,0c-0.9-0.2-1.8-0.5-2.8-0.5
							c-0.9,0-1.9,0.3-2.5,1.1c-0.1,0.1-0.2,0.3-0.3,0.5c-0.1,0.6,0.4,1.2,1,1.5c0.6,0.3,1.4,0.5,2.1,0.6c0.4,0,0.9,0,1.3,0.1
							c0.7,0.1,1.4,0.5,1.9,1c0.4,0.5,0.7,1.1,1.1,1.6c0.4,0.5,1,1.1,1.6,1c-0.1,0.9,0.3,1.9,1.2,2c0.4,0.1,1.1,0,1.5-0.1
							c0.9-0.2,1.7-0.3,2.6-0.4c1.1-0.1,1.5-1.6,1.1-2.4L119.6,42.1z"/>
						<g>
							<path class="st46" d="M119.7,42.1c0.9-1.1,1.4-2.4,1.5-3.7c0.1-0.7,0-1.4-0.1-2.1c-0.2-0.8-0.4-1.5-0.6-2.3
								c-0.2-0.8-0.2-1.6-0.2-2.5c0-0.8-0.1-1.5-0.1-2.3c0-0.7-0.1-1.5-0.3-2.2c-0.1-0.6-0.3-1.2-0.7-1.6c-0.3-0.2-0.7-0.3-1.1-0.3
								c-0.6,0.1-1,0.7-1.2,1.3c-0.1,0.3-0.1,0.7-0.1,1c0,0.4,0,0.8,0,1.2c0,0.4,0.1,0.8,0.1,1.2c0.1,0.4,0.2,0.7,0.2,1.1
								c0,0.3,0,0.6,0,0.9c0,0.3-0.1,0.5-0.2,0.8c0,0,0,0.1-0.1,0.1c-0.1,0-0.1,0-0.2,0c-0.1,0-0.2,0-0.2,0c-0.1,0-0.2,0-0.2,0
								c-0.1-0.1,0-0.3,0-0.4c0-0.2,0-0.3-0.1-0.5c-0.2-1.4-0.3-2.8-0.5-4.2c-0.1-0.6-0.2-1.2-0.4-1.7c-0.1-0.3-0.2-0.6-0.4-0.8
								c-0.2-0.2-0.4-0.4-0.7-0.5c-0.3-0.1-0.6-0.1-1-0.1c-0.3,0-0.6,0.2-0.9,0.3c-0.3,0.2-0.5,0.4-0.7,0.7c-0.2,0.3-0.2,0.7-0.2,1
								c0,0.8,0.2,1.6,0.4,2.3c0.2,0.8,0.4,1.5,0.7,2.3c0.1,0.3,0.3,0.7,0.4,1c0.1,0.3,0.1,0.7-0.2,0.9c-0.1,0.1-0.3,0.1-0.5,0.2
								c-0.1,0-0.2,0-0.3,0c-0.1,0-0.1-0.1-0.1-0.2c0-0.2-0.1-0.4-0.1-0.5c0-0.2-0.1-0.4-0.1-0.6c-0.1-0.8-0.3-1.5-0.6-2.3
								c-0.1-0.4-0.3-0.7-0.4-1.1c-0.1-0.3-0.3-0.7-0.5-1c-0.3-0.5-0.9-0.7-1.5-0.7c-0.6,0-1.1,0.3-1.5,0.8
								c-0.4,0.5-0.5,1.2-0.4,1.8c0.1,0.8,0.5,1.4,0.8,2.1c0.4,0.7,0.7,1.5,1.1,2.2c0.2,0.4,0.4,0.7,0.5,1.1
								c0.2,0.3,0.3,0.7,0.4,1.1c0,0.1,0,0.2,0.1,0.3c0,0,0,0.1,0,0.1c0,0-0.1,0-0.1,0c-0.2,0-0.4-0.1-0.6-0.1
								c-0.4-0.1-0.8-0.2-1.2-0.3c-0.7-0.1-1.4-0.1-2.1,0c-0.6,0.2-1.2,0.5-1.6,1c-0.2,0.2-0.3,0.5-0.3,0.9c0,0.3,0.2,0.6,0.4,0.8
								c0.5,0.5,1.2,0.8,1.9,0.9c0.4,0.1,0.7,0.1,1.1,0.1c0.4,0,0.8,0,1.2,0.1c0.7,0.1,1.3,0.5,1.7,1c0.2,0.3,0.4,0.6,0.6,0.9
								c0.2,0.3,0.4,0.6,0.6,0.8c0.4,0.4,0.9,0.9,1.5,0.9c0,0-0.1-0.1-0.1-0.1c-0.1,0.6,0.1,1.3,0.6,1.8c0.5,0.5,1.3,0.4,2,0.3
								c0.4-0.1,0.8-0.2,1.2-0.2c0.4-0.1,0.9-0.1,1.3-0.2c0.3-0.1,0.6-0.1,0.9-0.3c0.2-0.1,0.4-0.4,0.5-0.6
								C119.8,43.4,119.8,42.7,119.7,42.1c-0.1,0.1-0.1,0.1-0.1,0.2C119.6,42.2,119.7,42.2,119.7,42.1c0.1-0.1-0.1-0.2-0.1-0.1
								c0,0.1-0.1,0.1-0.1,0.2c0,0,0,0.1,0.1,0.2c0,0.1,0,0.1,0,0.2c0.1,0.3,0,0.5,0,0.8c-0.1,0.5-0.4,1-0.9,1.2
								c-0.2,0.1-0.4,0.1-0.5,0.1c-0.2,0-0.4,0.1-0.6,0.1c-0.4,0.1-0.8,0.1-1.2,0.2c-0.4,0.1-0.8,0.2-1.1,0.2c-0.3,0-0.7,0-1-0.1
								c-0.7-0.3-0.9-1.1-0.8-1.8c0,0,0-0.1-0.1-0.1c-0.6,0.1-1.2-0.5-1.5-1c-0.4-0.5-0.8-1.2-1.3-1.7c-0.5-0.5-1.1-0.8-1.7-0.9
								c-0.4-0.1-0.8-0.1-1.2-0.1c-0.4,0-0.8,0-1.1-0.1c-0.7-0.2-1.4-0.4-1.9-0.9c-0.2-0.2-0.4-0.5-0.3-0.8c0-0.3,0.3-0.6,0.5-0.8
								c1.1-1,2.7-0.8,4-0.5c0.2,0,0.4,0.1,0.6,0.1c0.2,0,0.3,0.1,0.5,0.1c0.4,0,0.2-0.5,0.2-0.7c-0.1-0.4-0.2-0.7-0.4-1
								c-0.2-0.4-0.4-0.7-0.5-1.1c-0.4-0.7-0.7-1.5-1.1-2.2c-0.3-0.7-0.7-1.4-0.8-2.2c-0.1-0.6,0.1-1.3,0.5-1.8
								c0.4-0.5,1-0.7,1.6-0.6c0.3,0,0.6,0.2,0.8,0.3c0.3,0.2,0.4,0.5,0.6,0.9c0.3,0.7,0.5,1.4,0.7,2.2c0.2,0.7,0.4,1.5,0.5,2.3
								c0,0.2,0,0.7,0.3,0.8c0.1,0,0.3,0,0.5-0.1c0.1,0,0.3-0.1,0.4-0.2c0.5-0.4,0.1-1.2-0.1-1.7c-0.3-0.7-0.5-1.5-0.7-2.2
								c-0.2-0.8-0.5-1.5-0.5-2.3c0-0.4,0-0.8,0.1-1.1c0.1-0.3,0.4-0.6,0.6-0.7c0.3-0.2,0.6-0.3,0.9-0.3c0.3,0,0.7,0,1,0.2
								c0.3,0.1,0.4,0.4,0.6,0.6c0.1,0.3,0.2,0.5,0.3,0.8c0.2,0.6,0.2,1.2,0.3,1.8c0.1,0.7,0.2,1.4,0.3,2.1c0.1,0.7,0.1,1.4,0.2,2.1
								c0,0.2,0,0.5,0.1,0.6c0.1,0.1,0.3,0.1,0.4,0.1c0.1,0,0.2,0,0.3-0.1c0.1,0,0.1-0.1,0.2-0.2c0.1-0.1,0.1-0.2,0.1-0.3
								c0.1-0.3,0.1-0.6,0.1-0.9c0-0.3,0-0.6-0.1-0.8c-0.1-0.4-0.2-0.8-0.2-1.2c-0.1-0.7-0.1-1.5,0-2.3c0-0.3,0.1-0.7,0.2-1
								c0.1-0.3,0.4-0.6,0.7-0.7c0.2-0.1,0.4-0.1,0.6,0c0.2,0,0.4,0.1,0.5,0.2c0.5,0.4,0.6,1.1,0.7,1.6c0.1,0.7,0.2,1.5,0.3,2.2
								c0,0.7,0.1,1.5,0.1,2.2c0,0.8,0,1.6,0.2,2.4c0.2,0.8,0.4,1.5,0.6,2.3c0.3,1.4,0.2,2.8-0.3,4.1c-0.2,0.6-0.6,1.2-1,1.7
								C119.5,42.1,119.6,42.2,119.7,42.1z"/>
						</g>
					</g>
				</g>
				<g>
					<path class="st45" d="M113.3,43.3c0.5,0.1,1.1,0.1,1.6-0.1"/>
					<g>
						<path class="st46" d="M113.3,43.4c0.6,0.1,1.1,0.1,1.6-0.1c0.1,0,0.1-0.2,0-0.2c-0.5,0.2-1,0.3-1.6,0.1
							C113.3,43.2,113.2,43.4,113.3,43.4L113.3,43.4z"/>
					</g>
				</g>
				<g>
					<path class="st45" d="M118.1,42.5c0.6-0.1,1.2-0.3,1.8-0.7"/>
					<g>
						<path class="st46" d="M118.1,42.6c0.6-0.1,1.2-0.4,1.8-0.7c0.1-0.1,0-0.2-0.1-0.1c-0.5,0.3-1.1,0.5-1.8,0.7
							C118,42.4,118,42.6,118.1,42.6L118.1,42.6z"/>
					</g>
				</g>
				<g>
					<path class="st45" d="M111.5,34.3c0.7-0.9,1.9-1.3,3-1.4c1.1-0.1,2.3,0.1,3.4,0.3"/>
					<g>
						<path class="st46" d="M111.5,34.3c0.5-0.6,1.2-1,2-1.2c0.9-0.2,1.8-0.2,2.7-0.2c0.6,0.1,1.1,0.2,1.6,0.3c0.1,0,0.1-0.1,0-0.2
							c-1-0.2-2-0.3-3-0.3c-0.8,0-1.7,0.2-2.4,0.6c-0.4,0.2-0.8,0.5-1,0.9C111.4,34.3,111.5,34.4,111.5,34.3L111.5,34.3z"/>
					</g>
				</g>
			</g>
			<g class="st1">
				<path class="st45" d="M109.7,36.4c0.3-0.1,0.7,0,1.1,0.2c0.6,0.2,1.1,0.5,1.6,0.9c0.4,0.4,0.8,1,0.7,1.6"/>
				<g>
					<path class="st46" d="M109.7,36.5c0.3-0.1,0.6,0,0.9,0.1c0.3,0.1,0.6,0.3,0.9,0.4c0.5,0.3,1,0.7,1.3,1.2
						c0.2,0.3,0.2,0.6,0.2,0.9c0,0.1,0.2,0.1,0.2,0c0-0.6-0.3-1.2-0.7-1.6c-0.5-0.5-1.1-0.7-1.7-1c-0.3-0.1-0.7-0.3-1.1-0.1
						C109.6,36.3,109.6,36.5,109.7,36.5L109.7,36.5z"/>
				</g>
			</g>
		</g>
	</g>
	<g id="medalla">
		
			<image style="display:none;overflow:visible;enable-background:new    ;" width="5119" height="5119" xlink:href="E8AAD9B6.jpg"  transform="matrix(1.157073e-02 0 0 1.157073e-02 121.719 44.2179)">
		</image>
		<g>
			<polygon class="st48" points="119.3,61.1 119.3,63.7 119.6,66.2 149.7,86.5 150.8,84.5 			"/>
			<g>
				<path class="st49" d="M147.4,84.1c0,0-0.4-1,0.2-1.6c0.6-0.7,2-0.6,2.1-0.6s1.5,0,1.8,0.5c0.4,0.5,0.6,1.3,0.4,1.8
					c-0.3,0.5-0.5-0.3-0.5-0.3s0.3-0.9-0.2-1.1c-0.5-0.2-3,0-3,0s-0.5,0.4-0.2,1.2C148.2,84.7,147.4,84.1,147.4,84.1z"/>
				<ellipse class="st50" cx="149.6" cy="88.3" rx="4.8" ry="4.7"/>
				<ellipse class="st51" cx="149.6" cy="88.2" rx="3.6" ry="3.6"/>
			</g>
			<path class="st52" d="M149.6,83.5l17.9-14.8c0,0,0.4,0.5-0.6,2.6c-1,2.1-15.8,12.6-15.8,12.6L149.6,83.5z"/>
		</g>
		<g>
			<text transform="matrix(1 0 0 1 146.5439 88.2832)" class="st53 st54 st55">ExpoCiencias</text>
			<text transform="matrix(1 0 0 1 148.4092 89.4912)" class="st53 st54 st55">UTCV</text>
		</g>
	</g>
</g>
</svg>
