<svg id="Capa_1" data-name="Capa 1" xmlns="http://www.w3.org/2000/svg" xmlns:xlink="http://www.w3.org/1999/xlink" viewBox="0 0 296 148"><defs><style>.cls-1,.cls-40,.cls-46{fill:none;}.cls-2{fill:#b0daed;}.cls-3{fill:#dbdbdb;}.cls-28,.cls-4{fill:#c6c6c6;}.cls-5{fill:#d1996b;}.cls-6{fill:#eeb383;}.cls-7{fill:#936646;}.cls-8{fill:#e84242;stroke:#bc2626;}.cls-13,.cls-14,.cls-15,.cls-17,.cls-24,.cls-27,.cls-28,.cls-29,.cls-40,.cls-46,.cls-8,.cls-9{stroke-miterlimit:10;}.cls-8,.cls-9{stroke-width:0.75px;}.cls-9{fill:#f9e9a7;stroke:#e0b269;}.cls-10{fill:#fffbcf;}.cls-11{fill:#bc2626;}.cls-12{isolation:isolate;font-size:1.88px;font-family:LilitaOne, Lilita One;}.cls-13{fill:#047a0a;stroke:#025904;}.cls-13,.cls-14,.cls-15{stroke-width:0.5px;}.cls-14{fill:#7b401e;stroke:#683319;}.cls-15{fill:#662809;stroke:#5e2308;}.cls-16{fill:#5c76e5;}.cls-17{fill:#5571c9;stroke:#1e347a;}.cls-18{fill:#1e347a;}.cls-19{fill:#4968ce;}.cls-20{fill:#3056c1;}.cls-21{fill:#b8bf32;}.cls-22{fill:#999923;}.cls-23{fill:#639113;}.cls-24,.cls-38{fill:#eaeaea;}.cls-24,.cls-40{stroke:#545454;}.cls-25{fill:#c0e181;}.cls-26{fill:#105418;}.cls-27,.cls-29{fill:#969696;}.cls-27{stroke:#303030;}.cls-28{stroke:#7f7f7f;}.cls-29{stroke:#636363;}.cls-30{fill:#197226;}.cls-31{fill:#3b7610;}.cls-32{fill:#96b023;}.cls-33{clip-path:url(#clip-path);}.cls-34{fill:#c2e183;}.cls-35{fill:#1c231d;}.cls-36{fill:#db2a44;}.cls-37{fill:#ea607b;}.cls-39{fill:#545454;}.cls-41{fill:#487003;}.cls-42{fill:#ffccd6;}.cls-43{fill:#f23d57;}.cls-44{fill:#190606;}.cls-45{fill:#fff;}.cls-46{stroke:#190606;}.cls-47{fill:#ff77a3;}</style><clipPath id="clip-path"><ellipse class="cls-1" cx="142.23" cy="73.91" rx="24.77" ry="22.33" transform="translate(38.96 196.5) rotate(-77.35)"/></clipPath></defs><g id="Capa_2" data-name="Capa 2"><rect class="cls-2" y="-2.86" width="296" height="150.71"/><rect class="cls-3" y="104.21" width="296" height="44.46"/><ellipse class="cls-4" cx="17.83" cy="123.3" rx="4.11" ry="1.02"/><ellipse class="cls-4" cx="28.62" cy="121.06" rx="4.11" ry="1.02"/><ellipse class="cls-4" cx="103.98" cy="121.46" rx="4.11" ry="1.02"/><ellipse class="cls-4" cx="94.22" cy="119.7" rx="4.11" ry="1.02"/><rect class="cls-5" x="15.88" y="66.46" width="90.45" height="41.27"/><rect class="cls-6" x="13.03" y="62.75" width="96.01" height="3.71"/><rect class="cls-5" x="15.97" y="104.27" width="3.21" height="16.81"/><rect class="cls-7" x="15.97" y="121.08" width="3.21" height="1.85"/><rect class="cls-5" x="102.5" y="102.93" width="3.21" height="16.81"/><rect class="cls-7" x="102.5" y="119.74" width="3.21" height="1.85"/><rect class="cls-5" x="26.72" y="102.2" width="3.21" height="16.81"/><rect class="cls-7" x="26.72" y="119.01" width="3.21" height="1.85"/><rect class="cls-5" x="92.61" y="101.24" width="3.21" height="16.81"/><rect class="cls-7" x="92.61" y="118.05" width="3.21" height="1.85"/><ellipse class="cls-4" cx="162.89" cy="139.52" rx="30.29" ry="5.49"/><ellipse class="cls-4" cx="212.65" cy="140.13" rx="13.11" ry="3.25"/><ellipse class="cls-4" cx="106.63" cy="141.55" rx="13.11" ry="3.25"/><path class="cls-8" d="M168.7,18.49c-1.78,4.44-3.62,10.19-7.77,9.41a12.86,12.86,0,0,0-4.71,0c-4.05.8-6.67-5.24-8.08-9.41s2.26-10.08,7.47-8.84a12.6,12.6,0,0,0,5.73,0C166.72,8.4,170.49,14,168.7,18.49Z"/><path class="cls-9" d="M167.87,18.53c-1.71,4.26-3.48,9.84-7.67,8.53a5.51,5.51,0,0,0-3.36,0c-4,1.26-6.5-4.56-7.85-8.54s2.43-9.79,7.56-7.91a5.63,5.63,0,0,0,3.8,0C165.68,8.74,169.6,14.23,167.87,18.53Z"/><path class="cls-10" d="M157.13,11a5.09,5.09,0,0,0,2.57,0l-.32,5.6a2.7,2.7,0,0,0,.48,1.67,2,2,0,0,1,.3,1.16,2,2,0,0,1-.3,1.08,2.75,2.75,0,0,0-.48,1.78l.37,4.44a6.62,6.62,0,0,0-2.66.09l.48-4.4a2.8,2.8,0,0,0-.49-1.88,1.74,1.74,0,0,1-.28-1.09,2,2,0,0,1,.32-1.16,2.77,2.77,0,0,0,.49-1.79Z"/><circle class="cls-11" cx="158.5" cy="19.28" r="1.04"/><polygon class="cls-11" points="158.99 19.35 154.8 19.35 153.89 18.98 158.99 18.98 158.99 19.35"/><polygon class="cls-11" points="158.49 19.45 154.33 16.44 153.69 15.41 158.76 19.08 158.49 19.45"/><text class="cls-12" transform="translate(157.46 13.72)">12</text><text class="cls-12" transform="translate(161.47 13.66)">1</text><text class="cls-12" transform="translate(163.78 15.21)">2</text><text class="cls-12" transform="translate(164.52 18.4)">3</text><text class="cls-12" transform="translate(163.44 21.75)">4</text><text class="cls-12" transform="translate(158.06 24.77)">6</text><text class="cls-12" transform="translate(154.76 23.78)">7</text><text class="cls-12" transform="translate(152.01 21.84)">8</text><text class="cls-12" transform="translate(150.74 18.22)">9</text><text class="cls-12" transform="translate(161.11 23.82)">5</text><text class="cls-12" transform="translate(154.09 13.48)">11</text><text class="cls-12" transform="translate(150.7 15.1)">10</text><path class="cls-13" d="M158,9.31l-.51-.38a2.9,2.9,0,0,0-.2-1.92c-.48-.79-2.08-1-2.43-1.31s-.87-1.1-1.08-1.3c-.75.93-.6,1.68-.34,2.84a2.11,2.11,0,0,0,1,1.49,8.06,8.06,0,0,0,2.78.47l.58.49Z"/><path class="cls-14" d="M161.42,6.26c.13-.78-1-2.26-2-2.18,0,0-.94,1.51-1.48,2.16s-.15,4-.15,4a.69.69,0,0,0,.84,0,13.68,13.68,0,0,1,.52-2.86C159.46,6.91,161.42,6.26,161.42,6.26Z"/><path class="cls-15" d="M161.43,6.26a4.18,4.18,0,0,1-2-2.18A2.31,2.31,0,0,1,161.43,6.26Z"/><rect class="cls-16" x="234.16" y="64.83" width="31.93" height="53.4"/><rect class="cls-17" x="237.68" y="71.79" width="24.85" height="12.29"/><rect class="cls-17" x="237.68" y="86.84" width="24.85" height="12.29"/><rect class="cls-17" x="237.68" y="101.9" width="24.85" height="12.29"/><rect class="cls-18" x="246.49" y="75.54" width="6.37" height="0.81"/><rect class="cls-18" x="246.26" y="89.56" width="6.37" height="0.81"/><rect class="cls-18" x="246.8" y="104.34" width="6.37" height="0.81"/><polygon class="cls-19" points="269.85 61.47 237.92 61.47 234.16 64.83 266.08 64.83 269.85 61.47"/><polygon class="cls-20" points="266.08 118.23 269.82 114.84 269.82 61.44 266.08 64.83 266.08 118.23"/><polygon class="cls-21" points="255.66 62.7 249.69 62.7 248.81 53.82 256.54 53.82 255.66 62.7"/><polygon class="cls-22" points="255.66 52.33 249.69 52.33 248.81 53.82 256.54 53.82 255.66 52.33"/></g><g id="Capa_1-2" data-name="Capa 1"><path class="cls-23" d="M138.82,74.93h0c-.67,1.13.14,2.86,1.82,3.86,7.74,6.4,17,11.71,27.18,16.33l2.45-4.07c-10.55-4.85-19.87-10.19-27.18-16.33C141.41,73.71,139.5,73.81,138.82,74.93Z"/><path class="cls-24" d="M138.84,79.4a1.81,1.81,0,0,0,2.15,1s1.08-.34,2.14-2.38a6,6,0,0,0,.59-3.37,1.51,1.51,0,0,0-1.65-1.35,1.3,1.3,0,0,0-.33.07Z"/><path class="cls-24" d="M142,75.84a2.15,2.15,0,0,0,0-1.28l-.72-2.08a13.44,13.44,0,0,1,.11-5.75,1.34,1.34,0,0,0-.71-1.49.92.92,0,0,0-1.13.28,6.86,6.86,0,0,0-2.31,4.92,21.45,21.45,0,0,0-7.32-.37,6.76,6.76,0,0,0-1,.18c-.75.21-1.48.34-2.16.57a3.61,3.61,0,0,0-2,1.36c-.83,1.28,0,2.12,2.84,2l-1.95,1.52a5,5,0,0,0-1.58,2c-.87,2.07.54,2.86,3,2-.38,1.2-.38,2.13.53,2.38a1.51,1.51,0,0,0,1.1-.13l2.06-1a4.54,4.54,0,0,1,1.61-.48,45.61,45.61,0,0,0,5.58-.86,14.14,14.14,0,0,0,2.55-1.13,2.12,2.12,0,0,0,.87-.91"/><path class="cls-24" d="M132.68,77.46c-2.26,0-4.27.57-5.65,2.23"/><path class="cls-24" d="M133.24,73.87a8.79,8.79,0,0,0-5.66.35"/><path class="cls-25" d="M155.92,81a47.77,47.77,0,0,1,6.22,4.25,35.61,35.61,0,0,0,3.11,2.06,11.12,11.12,0,0,0,3.18,1.38,12.66,12.66,0,0,0,5.86-.41,35.41,35.41,0,0,0,5.21-1.94,28.55,28.55,0,0,0,2.61-1.27,2.26,2.26,0,0,0-2.28-3.9c-.64.35-1.3.67-2,1l-1,.44h0l-.67.28c-.78.31-1.57.59-2.36.84a18.87,18.87,0,0,1-2.55.6c-.59.1.57-.06,0,0-.2,0-.4,0-.6,0a10.59,10.59,0,0,1-1.13,0c-.38,0,.62.12.25,0l-.26-.06a3,3,0,0,1-.4-.11l-.29-.11c-.48-.18.47.23,0,0l-.93-.46a26.41,26.41,0,0,1-3-1.92,54.87,54.87,0,0,0-6.73-4.61,2.26,2.26,0,1,0-2.28,3.9Z"/><path class="cls-26" d="M142.78,105.6a31.9,31.9,0,0,1-6-.4c-.16,0-.46-7-.46-7a.36.36,0,0,1,.32-.38h0a26.3,26.3,0,0,0,5.74.36A24.81,24.81,0,0,0,148,96.9a.31.31,0,0,1,.37.26.13.13,0,0,1,0,.06l.34,6.68A16.77,16.77,0,0,1,142.78,105.6Z"/><path class="cls-27" d="M140.17,134.41a2.27,2.27,0,0,0-1.29,2.68c.65,1.72,2.48,2.54,5.12,2.42l3.83-.35a6.62,6.62,0,0,1,.89,0l4.89.12a26,26,0,0,0,7.4-.71c2-.76,3.11-1.93,2.28-4.06-1-1.07-2.95-1.44-4.9-1.81Z"/><path class="cls-28" d="M150.3,131.25a6.74,6.74,0,0,1,5.17-3.36l.34,0c3.25-.22,5.85.6,6.94,2.78a4.26,4.26,0,0,1,0,3.93c-.85,1.58-2.63,2.43-5.16,2.78a3.78,3.78,0,0,1-.75,0c-4.06-.15-6.27-.29-8.19-.29a16.28,16.28,0,0,0-2.7.2,10.89,10.89,0,0,1-2.55.12,4.25,4.25,0,0,1-3.46-2.38,7.23,7.23,0,0,1-.64-3.11c0-4.23,2.17-5.65,2.64-5.62a6.3,6.3,0,0,0,1.9.51,4.55,4.55,0,0,1,1.66-.83c.46,0,1.51.92,1.51.92a10.81,10.81,0,0,0,2.82-.47,11,11,0,0,1,2.32,2.71"/><path class="cls-29" d="M144,126.88c-2.23-.37-3.82-1.42-3.83-2.63,0-1.56,2.56-2.83,5.73-2.84s5.75,1.24,5.75,2.8c0,1.39-2,2.55-4.71,2.79"/><path class="cls-25" d="M140.52,97.13c.82,3.22,1.59,6.46,2.16,9.74.15.82.27,1.64.38,2.47,0,.11,0,.24.05.35s-.05-.42,0-.16l.08.63c0,.41.09.82.14,1.24.16,1.67.26,3.34.27,5a44.69,44.69,0,0,1-.31,5.78,2.26,2.26,0,0,0,2.26,2.26,2.29,2.29,0,0,0,1.6-.66,2.67,2.67,0,0,0,.66-1.6c.82-6.91-.1-13.89-1.58-20.65-.42-1.89-.88-3.77-1.35-5.62a2.26,2.26,0,0,0-4.36,1.2Z"/><path class="cls-30" d="M142.56,103.36c-1.17.08-3.41-.37-4.48.14a2.2,2.2,0,0,0-1.36,1.59c-.16,0-.44-7-.44-7a.33.33,0,0,1,.34-.29h0a34.4,34.4,0,0,0,5.74.19,31.67,31.67,0,0,0,5.64-1,.29.29,0,0,1,.37.2s0,0,0,0l.31,6.75c0,.08-.1-1-1.8-1.36C145.92,102.31,143.55,103.3,142.56,103.36Z"/><path class="cls-26" d="M120.66,99.91a34.41,34.41,0,0,1-4.7-3.8c-.12-.1,3.22-5.49,3.22-5.49a.32.32,0,0,1,.44-.11l0,0a29.4,29.4,0,0,0,4.49,3.6,26,26,0,0,0,5.27,2.3.32.32,0,0,1,.17.42.08.08,0,0,0,0,0l-3.19,5.21A17.51,17.51,0,0,1,120.66,99.91Z"/><path class="cls-28" d="M112.62,130.58a8.18,8.18,0,0,0-11.11-5.27,8.11,8.11,0,0,1,4.5-4.52l6.65,3.15A11.55,11.55,0,0,1,112.62,130.58Z"/><path class="cls-29" d="M109.62,122.52l3,1.43a2.63,2.63,0,0,0,2.44-1.63c.51-1.09-.5-2.54-1.93-3.58L109.43,117c-1.53-.29-2.84-.1-3.69,1a2.77,2.77,0,0,0,.26,2.86l1.46.69"/><path class="cls-27" d="M112.17,135.08a2,2,0,0,1,.18,2c-.5,1.07-3.29,3-9.39.06s-6.86-6.07-6.37-7.13a1.89,1.89,0,0,1,1.51-1.1"/><path class="cls-24" d="M112.5,134.16c2.15-7.48-8.13-13.41-13.85-6.56a2.11,2.11,0,0,0-.43,2.14c.83,3.43,10.41,7.9,12.74,6.28A2.28,2.28,0,0,0,112.5,134.16Z"/><path class="cls-25" d="M120.4,95.74l-4.19,10c-.5,1.18-1,2.37-1.51,3.56,0,0,.38-.73.18-.46a1.94,1.94,0,0,0-.15.24l-.57.88-1.77,2.75-3,4.73a2.28,2.28,0,0,0,.81,3.09,2.31,2.31,0,0,0,3.09-.81l2.58-4c1-1.53,2-3,3-4.6a10.6,10.6,0,0,0,.52-1.2l.93-2.22,2.7-6.45,1.79-4.28a2.26,2.26,0,0,0-3.31-2.56h0a2.66,2.66,0,0,0-1,1.36Z"/><path class="cls-30" d="M121.66,98.15c-1-.62-2.59-2.26-3.73-2.47a1.94,1.94,0,0,0-1.92.41c-.12-.1,3.21-5.54,3.21-5.54a.3.3,0,0,1,.43,0h0A39.22,39.22,0,0,0,124.24,94a34.4,34.4,0,0,0,5.16,2.47c.18.08.27.27.19.38l-3.18,5.27c0,.06.41-.79-.78-2.06C124.92,99.28,122.48,98.66,121.66,98.15Z"/><ellipse class="cls-31" cx="138.24" cy="72.78" rx="26.04" ry="26.75" transform="translate(37.38 192.1) rotate(-77.56)"/><ellipse class="cls-32" cx="140.96" cy="73.64" rx="25.53" ry="23.13" transform="translate(38.68 195.42) rotate(-77.56)"/><g class="cls-33"><path class="cls-34" d="M146.48,50.66c-1.19-4.75-16.46-.69-15.3,4.07l9.5,13.64c.6,1,3.52.18,3.58-1Z"/><path class="cls-34" d="M161.53,59c2.36-4.31-11.32-12.13-13.7-7.83l-2.39,16.69c-.23,1.13,2.4,2.63,3.2,1.83Z"/><path class="cls-34" d="M166.71,75.91c4.62-1.42.31-16.87-4.31-15.47L149.29,70.76c-.92.65-.1,3.61,1,3.61Z"/><path class="cls-34" d="M158.85,91.68c4.27,2.21,11.54-12.16,7.28-14.38l-16.35-1.65c-1.11-.18-2.5,2.58-1.71,3.36Z"/><path class="cls-34" d="M142.37,97.36c1.55,4.63,16.47-.67,14.93-5.31l-10.54-12.8c-.67-.91-3.53.1-3.5,1.24Z"/><path class="cls-34" d="M130.14,55.3c-4.09-2.54-12.42,11.23-8.34,13.78L138,72c1.08.26,2.68-2.38,1.95-3.22Z"/><path class="cls-34" d="M121.48,70.61c-4.71,1-1.65,16.79,3.06,15.79l13.88-9.2c1-.57.38-3.6-.71-3.7Z"/><path class="cls-34" d="M125.73,87.44c-2.69,4.09,10.28,13.07,13,9L142.49,80c.31-1.11-2.17-2.83-3-2.11Z"/></g><path class="cls-35" d="M141.63,64c-1,4.62-3.6,8-5.76,7.49-1.89-.42-2.74-4.2-2.29-8,5.18-.93,4.43,0,.87-3.47,1.24-3.39,3.31-5.59,5.1-5.19C141.72,55.28,142.65,59.4,141.63,64Z"/><path class="cls-35" d="M154.64,67.17c-1,4.61-3.59,8-5.76,7.48-1.89-.41-2.74-4.19-2.29-8,5.19-.93,4.44,0,.88-3.48,1.24-3.39,3.3-5.58,5.09-5.19C154.73,58.43,155.66,62.54,154.64,67.17Z"/><path class="cls-35" d="M156.55,85a6.64,6.64,0,0,1-2.93,4c-3.39,2.29-9.14,3.08-15.28,1.72-8.92-2-15.23-7.72-14.1-12.85A6.84,6.84,0,0,1,130,72.49c2.88-.37,7.48,5.59,10.86,8C148.26,85.8,157.68,79.86,156.55,85Z"/><path class="cls-36" d="M125.38,75.3a6.59,6.59,0,0,0-.85,6.2c1,3.16,5,5.6,5.68,6A23.17,23.17,0,0,0,140,91c3.22,0,3.42-4.31,1.19-6-1.25-.57-3.58-2-6.29-1.45,0-2.29-3.35-6.72-3.35-6.72S127.59,72.29,125.38,75.3Z"/><path class="cls-35" d="M134.3,82.34c0,.42,0,.84-.08,1.26a4.34,4.34,0,0,1-.06.62c0,.1,0,.2,0,.3s0,.11,0,.16,0,0,0,0v.1a.56.56,0,0,0,.33.66.54.54,0,0,0,.7-.23,6.42,6.42,0,0,0,.64-2.92h-1.13v1l-.05.21a3.45,3.45,0,0,1-.12.46.57.57,0,0,0,.4.69.57.57,0,0,0,.63-.26,2.45,2.45,0,0,0,.31-1.35.57.57,0,0,0-.57-.56.56.56,0,0,0-.53.41l-.44,1.1,1.09.3.3-1.32a.57.57,0,0,0-.4-.7.57.57,0,0,0-.69.4l-.27,1c-.1.38.28.85.7.69a.83.83,0,0,0,.49-.41,1.8,1.8,0,0,0,.17-.51l.22-1a.57.57,0,0,0-1.09-.3l-.18.83-.09.4v.06h0c0-.09,0,0,0,0a.36.36,0,0,1,.16-.11l.7.69.27-1-1.09-.31L134.28,84a.56.56,0,0,0,.41.68.56.56,0,0,0,.68-.38l.38-1.09-1.13-.15v.26h0l0,.13-.06.22s0,.15,0,0a.54.54,0,0,1-.07.13l1,.43a5.89,5.89,0,0,0,.26-2,.57.57,0,0,0-.56-.57.58.58,0,0,0-.57.57,5,5,0,0,1,0,.67v.14h0v.1c0,.1,0,.21-.05.31s-.11.41-.17.62l-.12.31v0l-.08.18,1,.43a24.57,24.57,0,0,0,.24-2.71.56.56,0,0,0-.56-.57.57.57,0,0,0-.57.57Z"/><path class="cls-35" d="M136,80.11l.37,1.35a.57.57,0,1,0,1.09-.3l-.38-1.35a.59.59,0,0,0-.26-.34.57.57,0,0,0-.77.21A.58.58,0,0,0,136,80.11Z"/><path class="cls-35" d="M133.6,77.32c.13.68.24,1.37.38,2.05a5.38,5.38,0,0,0,.66,1.82.56.56,0,0,0,1-.57,2.92,2.92,0,0,1-.34-.74,8.7,8.7,0,0,1-.22-.88c-.13-.66-.24-1.32-.37-2a.57.57,0,0,0-.7-.39.57.57,0,0,0-.39.69Z"/><ellipse class="cls-36" cx="146.92" cy="72.47" rx="3.54" ry="5.56" transform="translate(44.5 200.33) rotate(-77.56)"/><path class="cls-35" d="M145.2,49l-14.31,2.18a.86.86,0,0,1-.95-.66l-.05-.23a.84.84,0,0,1,.6-1l14.07-4a.82.82,0,0,1,1,.57l0,.11.31,2.06a.83.83,0,0,1-.7,1Z"/><path class="cls-35" d="M149.77,50.26l12.09,8a.85.85,0,0,0,1.13-.2l.14-.18a.86.86,0,0,0-.12-1.13l-11.08-9.55a.84.84,0,0,0-1.19.08l-.06.09-1.13,1.74A.83.83,0,0,0,149.77,50.26Z"/><ellipse class="cls-37" cx="149.84" cy="71.19" rx="0.79" ry="2.13" transform="translate(6.72 155.08) rotate(-55.79)"/><path class="cls-38" d="M183.57,86a7.58,7.58,0,0,0,5.89.26c1.17-.45,2.21-1.17,3.39-1.62a26.37,26.37,0,0,1,2.63-.76,22.08,22.08,0,0,0,4.67-1.63,1.42,1.42,0,0,0-.16-2.77,3.88,3.88,0,0,0-1.4,0,12.33,12.33,0,0,0-3.06,1,4.27,4.27,0,0,1-1.47.46,1.76,1.76,0,0,1-1.13-.07,1.39,1.39,0,0,1-.23-.71c0-.21.33-.23.54-.31a61.66,61.66,0,0,0,6.12-2.32,3.47,3.47,0,0,0,1.27-1.13,2,2,0,0,0,0-1.38,2.42,2.42,0,0,0-.95-1.21,1.61,1.61,0,0,0-1-.22,6.25,6.25,0,0,0-2.47.87A28.07,28.07,0,0,0,193,76.23c-.41.29-.94.62-1.38.38a1.23,1.23,0,0,1-.49-.63.42.42,0,0,1-.07-.27c0-.17.22-.26.38-.32a20.21,20.21,0,0,0,4.73-2.5,3.3,3.3,0,0,0,.6-.52,1.88,1.88,0,0,0-.11-2.38,2.46,2.46,0,0,0-2.41-.62,5.75,5.75,0,0,0-2.12,1.27l-3,2.47a6.66,6.66,0,0,1-1.62,1.06.36.36,0,0,1-.25,0,.32.32,0,0,1-.09-.27,11.13,11.13,0,0,0-.15-3.05,3.47,3.47,0,0,0-1.75-2.39,1.24,1.24,0,0,0-.6-.15c-.7,0-1.15.75-1.32,1.44a5.72,5.72,0,0,0-.1,2.33,14.19,14.19,0,0,1,.27,1.42,3.49,3.49,0,0,1-.6,2.26c-.4.58-.95,1-1.38,1.58s-.94,1.31-.7,2A1.88,1.88,0,0,0,179,81a4.76,4.76,0,0,0,.46,1.56c.41.87.7,1.7,1.13,2.69s2.07,1.16,2.81.59Z"/><path class="cls-39" d="M183.5,86.08a7.77,7.77,0,0,0,4.45.67c1.69-.25,3-1.19,4.56-1.88a19.43,19.43,0,0,1,2.66-.82c.81-.21,1.61-.43,2.41-.68a14.88,14.88,0,0,0,2.22-.84,2.59,2.59,0,0,0,1.37-1.19,1.53,1.53,0,0,0-1.29-2.07,5.28,5.28,0,0,0-2.09.19,13.48,13.48,0,0,0-2.34.81,4,4,0,0,1-2.11.49.45.45,0,0,1-.46-.42c0-.24.05-.31.24-.37.34-.16.73-.25,1.08-.38,1.46-.51,2.94-1,4.36-1.61,1.1-.48,2.48-1.16,2.31-2.56a2.45,2.45,0,0,0-.92-1.66,2.12,2.12,0,0,0-1.79-.32,8.67,8.67,0,0,0-2.26,1c-.81.42-1.61.84-2.37,1.33-.33.21-.64.47-1,.65s-.73.29-1,0a.9.9,0,0,1-.17-.26c-.12-.31-.08-.43.15-.56a9.57,9.57,0,0,1,1.05-.42c.41-.18.81-.38,1.21-.57A20.82,20.82,0,0,0,196,73.23a2.82,2.82,0,0,0,1.24-1.36,2.13,2.13,0,0,0-1.53-2.6l-.15,0c-1.51-.33-2.7.69-3.77,1.57l-2.17,1.76c-.38.31-.76.62-1.13.9a4.35,4.35,0,0,1-.47.32c-.24.15-.6.44-.7.07a3.31,3.31,0,0,1,0-.63v-.73a8,8,0,0,0-.11-1.29,4.47,4.47,0,0,0-.79-1.91c-.67-.89-2-1.59-2.79-.49s-.58,2.92-.33,4.31a3.48,3.48,0,0,1-.6,2.74c-.48.64-1.1,1.15-1.56,1.81a2,2,0,0,0-.45,1.71l.13-.17a2.11,2.11,0,0,0-2,1.59,3,3,0,0,0,.3,1.51c.24.6.52,1.19.75,1.8.34.86.55,1.88,1.53,2.2a2.39,2.39,0,0,0,1.19.06,2.81,2.81,0,0,0,.49-.16c.22-.1.2-.17.42-.1s.25-.22.08-.27-.3,0-.56.08a2.05,2.05,0,0,1-1,.21,1.56,1.56,0,0,1-1.05-.4,3.92,3.92,0,0,1-.68-1.39c-.35-.88-.81-1.75-1.07-2.64a1.54,1.54,0,0,1,.23-1.53,2,2,0,0,1,1.37-.67.15.15,0,0,0,.14-.15v0c-.25-.82.51-1.69,1-2.26a6.81,6.81,0,0,0,1.31-1.66,3.56,3.56,0,0,0,.32-2,16.93,16.93,0,0,1-.32-2.25,3.54,3.54,0,0,1,.63-2.26c.66-.76,1.62-.18,2.15.44a4.24,4.24,0,0,1,.93,2.12,9.74,9.74,0,0,1,.08,1.32,7.83,7.83,0,0,0,0,1.28c.16,1,2.3-.9,2.63-1.16l2.1-1.71a11.25,11.25,0,0,1,1.95-1.41,2.57,2.57,0,0,1,2.38,0,1.79,1.79,0,0,1,.92,1.94c-.19.84-1.1,1.31-1.78,1.73a19.41,19.41,0,0,1-2.05,1.13,12.67,12.67,0,0,1-1.19.53,3.07,3.07,0,0,0-.87.38c-.33.28-.09.73.13,1a1,1,0,0,0,1.31.23c.73-.35,1.39-.89,2.1-1.3s1.42-.77,2.15-1.13,1.86-.87,2.69-.45A2.11,2.11,0,0,1,200.61,76c-.15.72-1,1.19-1.57,1.48A38.44,38.44,0,0,1,195,79c-.64.22-1.29.47-1.95.66-.47.15-.49.38-.34.86.29.94,1.91.41,2.55.15a17.5,17.5,0,0,1,2.26-.85,6.14,6.14,0,0,1,2.25-.32A1.3,1.3,0,0,1,201,80.85c0,.77-.79,1.18-1.41,1.48a24.53,24.53,0,0,1-4.49,1.46,23.17,23.17,0,0,0-2.3.66,20.41,20.41,0,0,0-2.1,1,8.07,8.07,0,0,1-4.69,1,7.43,7.43,0,0,1-2.36-.67C183.48,85.76,183.34,86,183.5,86.08Z"/><path class="cls-38" d="M180.74,79.58a3.1,3.1,0,0,0,.55,1.66"/><path class="cls-39" d="M180.59,79.58a3.08,3.08,0,0,0,.57,1.73c.1.15.34,0,.24-.14a2.94,2.94,0,0,1-.53-1.59.14.14,0,0,0-.16-.12.15.15,0,0,0-.12.12Z"/><path class="cls-38" d="M182.76,84.42a5.64,5.64,0,0,0,1.13,1.72"/><path class="cls-39" d="M182.64,84.49a5.87,5.87,0,0,0,1.16,1.75c.12.13.32-.07.2-.2a6,6,0,0,1-1.13-1.68.14.14,0,0,0-.19-.06.13.13,0,0,0-.06.18h0Z"/><path class="cls-38" d="M189.85,75.42a4.8,4.8,0,0,1,2.23,2.82,13.7,13.7,0,0,1,.52,3.65"/><path class="cls-39" d="M189.78,75.54c2.3,1.21,2.57,4,2.68,6.35,0,.18.29.18.28,0-.12-2.41-.43-5.34-2.82-6.59C189.76,75.21,189.62,75.46,189.78,75.54Z"/><path class="cls-38" d="M187.18,74.05a1.61,1.61,0,0,1,.1,1.18,6.17,6.17,0,0,1-.6,1.88,2.21,2.21,0,0,1-1.52,1.17"/><path class="cls-39" d="M187.06,74.12a1.66,1.66,0,0,1,.05,1.22,6.67,6.67,0,0,1-.33,1.24,2.35,2.35,0,0,1-1.66,1.57c-.18,0-.1.31.08.27a2.63,2.63,0,0,0,1.83-1.7,7.35,7.35,0,0,0,.37-1.45,1.75,1.75,0,0,0-.11-1.29c-.09-.16-.34,0-.24.14Z"/><g id="Manga"><path class="cls-26" d="M107.9,59.85l2.7,10.75c.11.24,2.3,0,2.68-.11l3.38-.16a3.44,3.44,0,0,0,1.09-.33l.32-11.41C116.67,57.21,108.3,57.65,107.9,59.85Z"/><path class="cls-25" d="M115.29,58.66a26.62,26.62,0,0,1-.67-3.65c0,.07.06.51,0,.08a5,5,0,0,0-.06-.51c0-.25,0-.51-.07-.75,0-.6-.08-1.2-.1-1.8s0-1.15,0-1.73c0-.29,0-.58.06-.88a1.42,1.42,0,0,1,0-.35c0-.12.1-.9,0-.29a10.57,10.57,0,0,1,.49-2.23c.12-.33.25-.65.38-1s-.1.24-.1.24l.14-.3.25-.57c.35-.72.72-1.43,1.13-2.13q1.08-1.92,2.3-3.76c.42-.64.84-1.27,1.28-1.89a2.27,2.27,0,0,0-.81-3.09,2.31,2.31,0,0,0-3.09.81,57.24,57.24,0,0,0-3.39,5.34A32.64,32.64,0,0,0,110.86,45a18.4,18.4,0,0,0-.94,6.29,37.81,37.81,0,0,0,1,8.61,2.25,2.25,0,0,0,2.78,1.57h0A2.29,2.29,0,0,0,115.29,58.66Z"/><path class="cls-30" d="M108.08,60.47s2,10.62,2.86,10.46l6.54-.56c.85-.16.56-10.21.56-11.07A20.5,20.5,0,0,1,108.08,60.47Z"/></g><path class="cls-38" d="M115.08,34.4a7.57,7.57,0,0,1,.14-5.89c.52-1.12,1.32-2.12,1.85-3.25.37-.83.62-1.72.93-2.58a20.8,20.8,0,0,1,2-4.54,1.4,1.4,0,0,1,2.73.35,3.69,3.69,0,0,1-.12,1.4,12.26,12.26,0,0,1-1.15,3,4.5,4.5,0,0,0-.56,1.45,1.66,1.66,0,0,0,0,1.13,1.43,1.43,0,0,0,.69.27c.22,0,.26-.31.35-.52a58.17,58.17,0,0,1,2.73-5.94,3.36,3.36,0,0,1,1.21-1.19,2,2,0,0,1,1.38.08,2.48,2.48,0,0,1,1.13,1,1.64,1.64,0,0,1,.15,1,6.08,6.08,0,0,1-1,2.41,30.08,30.08,0,0,1-2,3c-.32.37-.68.89-.48,1.35a1.22,1.22,0,0,0,.59.53.5.5,0,0,0,.26.08c.18,0,.28-.2.35-.38a20.53,20.53,0,0,1,2.81-4.55,3.35,3.35,0,0,1,.56-.57,1.9,1.9,0,0,1,2.37.28,2.48,2.48,0,0,1,.46,2.45,5.85,5.85,0,0,1-1.41,2l-2.66,2.88a6.27,6.27,0,0,0-1.17,1.54.29.29,0,0,0,0,.24c0,.09.16.11.26.11a11.49,11.49,0,0,1,3,.38,3.44,3.44,0,0,1,2.26,1.9,1.3,1.3,0,0,1,.11.61c-.05.7-.84,1.1-1.53,1.22a5.39,5.39,0,0,1-2.33-.06c-.47-.11-.92-.29-1.4-.38a3.56,3.56,0,0,0-2.3.45c-.6.35-1.08.88-1.66,1.27s-1.37.85-2,.57a1.88,1.88,0,0,1-1.84,1.73,4.85,4.85,0,0,1-1.53-.56c-.84-.47-1.65-.81-2.61-1.3-1.13-.47-1-2.14-.38-2.84Z"/><path class="cls-39" d="M115.2,34.37a7.46,7.46,0,0,1-.26-4.69c.42-1.56,1.47-2.78,2.16-4.2a43.89,43.89,0,0,0,1.58-4.33,16.71,16.71,0,0,1,1-2.26c.34-.62.76-1.43,1.56-1.51,2-.18,1.24,2.57.88,3.61-.44,1.29-1.36,2.45-1.47,3.85a.77.77,0,0,0,.4.87c.48.2.76.2.93-.28.52-1.39,1.13-2.76,1.76-4.11.27-.59.56-1.17.88-1.74s.91-1.43,1.7-1.46a2.1,2.1,0,0,1,2,1.36,3.49,3.49,0,0,1-.68,2.54c-.42.71-.84,1.39-1.28,2.07s-1,1.29-1.44,2a1,1,0,0,0,.16,1.33c.31.27.75.51,1.06.12a5.3,5.3,0,0,0,.43-.9c.19-.37.38-.75.6-1.11a17.81,17.81,0,0,1,1.28-2c.49-.67,1-1.55,2-1.59a1.79,1.79,0,0,1,1.75,1.17c.66,1.7-.8,3.06-1.85,4.18l-1.85,2a9.47,9.47,0,0,0-1.39,1.7c-.21.38-.26.72.24.78a23.64,23.64,0,0,1,2.51.23,4.09,4.09,0,0,1,2,1c.61.6,1.09,1.63.21,2.22a3.81,3.81,0,0,1-2.22.42c-.82,0-1.56-.38-2.36-.5a3.65,3.65,0,0,0-2,.23,7.89,7.89,0,0,0-1.75,1.23c-.59.47-1.46,1.11-2.25.82a.15.15,0,0,0-.18.09h0a2.07,2.07,0,0,1-.8,1.38,1.53,1.53,0,0,1-1.45.11,27.77,27.77,0,0,1-2.75-1.32,3.87,3.87,0,0,1-1.2-.69A1.54,1.54,0,0,1,114.8,36a2,2,0,0,1,.28-1.07c.16-.25.19-.25.11-.55s-.31-.1-.27.08.07.13-.06.29a2,2,0,0,0-.23.51,2.47,2.47,0,0,0-.09,1.08c.16,1.1,1.13,1.4,2,1.82.58.28,1.13.58,1.7.86a3.66,3.66,0,0,0,1.44.48,2,2,0,0,0,1.91-1.85l-.17.1c1.43.53,2.71-1.22,3.76-1.85a3.55,3.55,0,0,1,2.74-.31,8.07,8.07,0,0,0,2.39.38c1,0,2.68-.38,2.49-1.73S131.17,32,130,31.75a7.19,7.19,0,0,0-1.13-.18,10.24,10.24,0,0,1-1.36-.07c-.18-.05-.3.11-.21-.29a.72.72,0,0,1,.12-.21,4.46,4.46,0,0,1,.41-.56c.29-.35.61-.68.92-1l2-2.12a9.75,9.75,0,0,0,1.5-1.83,2.67,2.67,0,0,0-.45-3.39,2.07,2.07,0,0,0-1.63-.38A2.81,2.81,0,0,0,128.52,23a20.05,20.05,0,0,0-1.35,2c-.22.36-.43.73-.62,1.1a8.56,8.56,0,0,1-.55,1.19c-.21.27-.42.19-.63,0a.75.75,0,0,1-.19-1,9.23,9.23,0,0,1,.79-1.07c.54-.73,1-1.51,1.51-2.26.68-1.11,1.79-2.76.86-4a2.09,2.09,0,0,0-3.2-.46,12.22,12.22,0,0,0-2,3.69c-.33.75-.65,1.51-1,2.26-.12.3-.26.59-.38.89s-.08.32-.37.27a.48.48,0,0,1-.44-.33,3.53,3.53,0,0,1,.55-2.1,15.64,15.64,0,0,0,1-2.26c.32-1,.89-3-.42-3.57-1.1-.51-1.94.32-2.46,1.21A24.59,24.59,0,0,0,117.76,23a17.16,17.16,0,0,1-1,2.58c-.38.76-.87,1.44-1.29,2.17a7.93,7.93,0,0,0-1,4.52,7.51,7.51,0,0,0,.51,2.19C115,34.61,115.27,34.53,115.2,34.37Z"/><path class="cls-38" d="M121.24,37.66a2.91,2.91,0,0,1-1.62-.66"/><path class="cls-39" d="M121.24,37.52a2.91,2.91,0,0,1-1.51-.61.13.13,0,0,0-.2,0,.15.15,0,0,0,0,.2h0a3.31,3.31,0,0,0,1.72.7.15.15,0,0,0,.12-.17.15.15,0,0,0-.12-.12Z"/><path class="cls-38" d="M116.54,35.33a5.89,5.89,0,0,1-1.63-1.26"/><path class="cls-39" d="M116.61,35.21A6,6,0,0,1,115,34c-.13-.14-.33.06-.2.2a6,6,0,0,0,1.66,1.26.14.14,0,0,0,.14-.24Z"/><path class="cls-38" d="M126,28.86a4.81,4.81,0,0,0-2.67-2.42,13.82,13.82,0,0,0-3.6-.75"/><path class="cls-39" d="M126.13,28.79c-1.09-2.47-4-3-6.4-3.25-.18,0-.18.26,0,.28,2.29.27,5.1.75,6.15,3.11.07.17.31,0,.24-.14Z"/><path class="cls-38" d="M127.19,31.61a1.59,1.59,0,0,0-1.17-.17,6.06,6.06,0,0,0-1.92.46,2.27,2.27,0,0,0-1.27,1.45"/><path class="cls-39" d="M127.26,31.49A1.68,1.68,0,0,0,126,31.3a7.55,7.55,0,0,0-1.56.3,2.61,2.61,0,0,0-1.77,1.71.15.15,0,0,0,.1.17.13.13,0,0,0,.17-.1,2.35,2.35,0,0,1,1.65-1.53,6.8,6.8,0,0,1,1.33-.26,1.62,1.62,0,0,1,1.18.15C127.27,31.84,127.41,31.6,127.26,31.49Z"/><path class="cls-28" d="M212.66,124.49c-4.19-1.33-9.07,1.3-10.19,5.07a6,6,0,0,1-.38-5.18l6.1-3A8.64,8.64,0,0,1,212.66,124.49Z"/><path class="cls-29" d="M205.41,122.73l2.79-1.39a2.08,2.08,0,0,0,.35-2.42c-.43-.87-2-.86-3.57-.38l-3.43,1.7c-1.11.91-1.76,1.88-1.54,3a2.19,2.19,0,0,0,2.09,1.16l1.34-.67"/><path class="cls-27" d="M215.44,126.92a1.62,1.62,0,0,1,1.45.81c.42.84,0,3.62-5.56,6.4s-8.22,1.8-8.63,1a1.48,1.48,0,0,1,.15-1.53"/><path class="cls-24" d="M215,126.25c-3.76-5-13.93-.78-12.71,6.33a1.51,1.51,0,0,0,1.19,1.29c2.82,1,11.57-3.35,11.86-5.7A1.65,1.65,0,0,0,215,126.25Z"/><path class="cls-23" d="M205,121.67h0a2.66,2.66,0,0,0,.85-3.62c-2.23-7.85-6.26-15.46-11.4-22.91l-4.26,2.12c5.3,7.77,9.36,15.43,11.41,22.91A2.65,2.65,0,0,0,205,121.67Z"/><path class="cls-28" d="M185.06,132.31c-3.15-3.08-8.7-2.87-11.38,0a5.92,5.92,0,0,1,2-4.81h6.81A8.68,8.68,0,0,1,185.06,132.31Z"/><path class="cls-29" d="M179.35,127.5h3.12a2.09,2.09,0,0,0,1.4-2c0-1-1.43-1.68-3-1.94H177c-1.4.32-2.42.9-2.71,2a2.19,2.19,0,0,0,1.36,2h1.5"/><path class="cls-27" d="M186.47,135.72a1.62,1.62,0,0,1,.94,1.37c0,.94-1.58,3.26-7.83,3.26s-8.17-2.06-8.17-3a1.5,1.5,0,0,1,.82-1.31"/><path class="cls-24" d="M186.39,134.93c-1.17-6.14-12.13-6.9-14.21,0a1.54,1.54,0,0,0,.49,1.69c2.05,2.2,11.85,2.16,13.16.18A1.67,1.67,0,0,0,186.39,134.93Z"/><path class="cls-23" d="M179.18,126.5h0a2.66,2.66,0,0,0,2.38-2.86c-2.2-7.31-1.93-16,0-25.6H176.8c-1.81,9.25-2,17.85,0,25.6A2.66,2.66,0,0,0,179.18,126.5Z"/><path class="cls-23" d="M201.84,58.55l.31.35c.27.31-.46-.64-.23-.29.05.07.11.14.16.22a9.74,9.74,0,0,1,.6,1,23.91,23.91,0,0,1,1.19,2.44l-.29-.68A26.1,26.1,0,0,1,205.46,68l-.1-.76a8.13,8.13,0,0,1,.07,2l.1-.75a8,8,0,0,1-.56,2l.29-.67a7.45,7.45,0,0,1-.76,1.31c-.13.19-.44.47.17-.21l-.21.26c-.15.17-.3.33-.47.49l-.49.45-.26.22c-.48.37.38-.27.17-.13-.38.28-.78.56-1.18.83A38.51,38.51,0,0,0,196.76,77a2.83,2.83,0,0,0,4,4c.38-.35.75-.67,1.16-1-.8.66-.07.07.13-.08l.71-.49c.8-.53,1.62-1,2.42-1.56a13.16,13.16,0,0,0,4.74-4.75,10.54,10.54,0,0,0,1.15-4,12.32,12.32,0,0,0-.21-2.84,26.4,26.4,0,0,0-1.6-5.65,18.88,18.88,0,0,0-3.42-6.07,2.82,2.82,0,1,0-4,4Z"/><path class="cls-24" d="M199.89,55.91l.31,1.32a1.54,1.54,0,0,0,.81,1c.63.3,1.75.46,3.6-.32a5.15,5.15,0,0,0,2.78-2.14,1.25,1.25,0,0,0-.18-1.32l-.92-1.1Z"/><path class="cls-24" d="M203.18,55.76A4.44,4.44,0,0,1,201,56.94a2.39,2.39,0,0,1-1.35,0,4.28,4.28,0,0,1-2-1.13,3.36,3.36,0,0,0-1.21-.83,2.51,2.51,0,0,0-1.83,0l-.25.08a10.46,10.46,0,0,1-3.89.43,1.85,1.85,0,0,1-1.38-2.64,2.23,2.23,0,0,1,1-1,8.11,8.11,0,0,1,5-.7,8.63,8.63,0,0,0-.32-1.31,4.55,4.55,0,0,0-.9-1.53,20.62,20.62,0,0,1-3.42-5.1,1.94,1.94,0,0,1,1.55-3,2.58,2.58,0,0,1,2.26,1.07A14.17,14.17,0,0,1,196,44.61c.85-2.06,2-2.53,3.4-1.2.31-1.5,1.23-2.55,2.9-2a4,4,0,0,1,1.51.91c2.49,2.35,5.29,8.18,3.28,11.3a4.39,4.39,0,0,1-1.73,1.19"/><path class="cls-40" d="M205.47,47.89a5.74,5.74,0,0,1-1.94-3"/><path class="cls-40" d="M196,44.43c-.19,1.91,1.25,5.12,2.68,6,1.1.66,2.43-.29,2.83-2"/><path class="cls-40" d="M199.35,43.43a7.14,7.14,0,0,0,2.39,5.32c1.33,1.1,2.72-.15,2.75-1.9"/><path class="cls-41" d="M179.39,50.21,212.7,96.3c-16.55,8.88-34,12.14-52.34,9.51l14.09-54.67a2.79,2.79,0,0,1,4.94-.93Z"/><path class="cls-42" d="M179.38,50.17,212,95.3c-16.57,8.75-33,11.82-51.33,9.32l13.78-53.53a2.81,2.81,0,0,1,3.48-1.93A2.84,2.84,0,0,1,179.38,50.17Z"/><path class="cls-43" d="M178.82,47.11,210.25,92.8c-16.56,8.75-30.54,11.38-48.88,8.88L173.87,48a2.8,2.8,0,0,1,4.95-.93Z"/><path class="cls-44" d="M181.13,55.46l.23-1.74c0-.82-.43-1.66-.91-1.58h0c-.47.09-.63,1-.3,1.78l.81,1.57C181,55.63,181.12,55.61,181.13,55.46Z"/><path class="cls-44" d="M186,71.14l.83-1.33c.34-.66.19-1.65-.29-1.88h0c-.47-.22-1,.47-.91,1.31l.2,1.81C185.84,71.2,186,71.26,186,71.14Z"/><path class="cls-44" d="M198.91,83.6,199.6,82c.27-.78,0-1.72-.45-1.77h0c-.48,0-.89.82-.75,1.63l.37,1.74C198.74,83.73,198.86,83.74,198.91,83.6Z"/><path class="cls-44" d="M183.17,74.67l.22-1.75c.06-.82-.42-1.66-.9-1.58h0c-.47.09-.63,1-.3,1.78L183,74.7C183,74.84,183.16,74.82,183.17,74.67Z"/><path class="cls-44" d="M185.86,61.6l.22-1.74c.06-.82-.42-1.66-.9-1.58h0c-.48.09-.63,1-.3,1.78l.81,1.57C185.71,61.79,185.83,61.75,185.86,61.6Z"/><path class="cls-44" d="M167.1,99.38l.22-1.75c.06-.82-.42-1.66-.9-1.57h0c-.48.08-.63,1-.3,1.78l.81,1.57C167,99.55,167.09,99.53,167.1,99.38Z"/><path class="cls-44" d="M204.58,92.68l.22-1.75c.06-.82-.42-1.66-.9-1.58h0c-.48.09-.63,1-.3,1.79l.81,1.57C204.45,92.85,204.57,92.83,204.58,92.68Z"/><path class="cls-44" d="M175.42,55.5l.22-1.75c.05-.82-.42-1.66-.91-1.57h0c-.47.08-.63,1-.3,1.78l.81,1.57C175.29,55.67,175.4,55.65,175.42,55.5Z"/><path class="cls-44" d="M171.52,98.27l.22-1.75c0-.82-.42-1.66-.91-1.58h0c-.47.09-.63,1-.3,1.78l.81,1.57C171.39,98.44,171.5,98.42,171.52,98.27Z"/><path class="cls-44" d="M177.61,50.17l.23-1.75c0-.82-.43-1.66-.91-1.57h0c-.47.09-.63,1-.3,1.78l.81,1.57C177.48,50.34,177.6,50.32,177.61,50.17Z"/><path class="cls-44" d="M178.33,61.08l.22-1.74c0-.82-.42-1.66-.9-1.58h0c-.48.09-.63,1-.3,1.78l.81,1.57C178.18,61.25,178.3,61.24,178.33,61.08Z"/><path class="cls-44" d="M198.12,91.72l.22-1.75c0-.82-.43-1.66-.91-1.58h0c-.47.09-.63,1-.3,1.79l.81,1.57C198,91.88,198.1,91.87,198.12,91.72Z"/><path class="cls-44" d="M178.81,72.77,178.63,71c-.13-.83-.75-1.48-1.19-1.22h0c-.42.26-.37,1.25.11,1.88l1.1,1.25C178.71,73,178.83,72.92,178.81,72.77Z"/><path class="cls-44" d="M173.21,61.66l.23-1.75c.05-.83-.43-1.67-.91-1.58h0c-.48.09-.63,1-.3,1.78l.81,1.57C173.09,61.83,173.2,61.81,173.21,61.66Z"/><path class="cls-44" d="M173.74,72.77l-.9-1.5c-.47-.68-1.37-1-1.69-.68h0c-.32.37.14,1.2.87,1.59l1.6.73C173.74,73,173.81,72.9,173.74,72.77Z"/><path class="cls-44" d="M168.36,89.6l-.21-1.8c-.15-.83-.79-1.46-1.21-1.19h0c-.42.29-.33,1.28.15,1.89l1.13,1.21C168.28,89.82,168.39,89.75,168.36,89.6Z"/><path class="cls-44" d="M189.5,66.15l.22-1.75c.05-.82-.42-1.66-.91-1.58h0c-.48.09-.64,1-.31,1.78l.81,1.58C189.37,66.31,189.48,66.31,189.5,66.15Z"/><path class="cls-44" d="M182,66l.22-1.75c.06-.82-.42-1.66-.9-1.58h0c-.48.09-.63,1-.3,1.78l.81,1.58C181.89,66.14,182,66.12,182,66Z"/><path class="cls-44" d="M174.48,67.72l.45-1.7c.16-.81-.2-1.71-.69-1.69h0c-.48,0-.76.94-.53,1.73l.59,1.67C174.33,67.87,174.45,67.87,174.48,67.72Z"/><path class="cls-44" d="M190.47,70l1.34-.24a1.17,1.17,0,0,0,.71-1.5l0-.06v0c-.29-.55-1-.47-1.41.16l-.72,1.44C190.29,69.94,190.35,70.07,190.47,70Z"/><ellipse class="cls-45" cx="190.15" cy="79.4" rx="5.95" ry="7.45" transform="translate(-14.68 56.88) rotate(-16.39)"/><path class="cls-46" d="M195.84,74.85q-.06-2.31-3.9-3.94"/><path class="cls-46" d="M185.81,85c-4.24.38-4.65,3.16-.63,4.75"/><path class="cls-44" d="M190.26,88.86a14.15,14.15,0,0,1-11.29,2,3.47,3.47,0,0,0-4,5c5,6.38,18.52,3.92,20.13-3.66C195.32,89.35,193,87.28,190.26,88.86Z"/><ellipse class="cls-45" cx="174.92" cy="82.17" rx="5.95" ry="7.45" transform="translate(-16.08 52.7) rotate(-16.39)"/><path class="cls-44" d="M177.66,76.1l-2.78,3.38,3.29-.59s-3.24,2.7-3.72,3.65a4.31,4.31,0,0,0-.07,2.08,7.42,7.42,0,0,0,2.29,4.52l.26.23a6,6,0,0,0,4-5.43C181.31,80.91,180.06,77.6,177.66,76.1Z"/><path class="cls-46" d="M168.27,79.11c-.51-1.46.25-3.14,2.26-5"/><path class="cls-47" d="M185.24,94.44c.57-1.84,2.22-1.46,3.28-.6s2.14,3.89,2.14,3.89a18.08,18.08,0,0,1-10,1.81s.2-3.33,1.13-4.49S183.81,93.34,185.24,94.44Z"/><path class="cls-46" d="M184.65,101.72q-3.61.91-5.39-.51"/><path class="cls-44" d="M185.42,74.16l3.79,2.21-3.28.6s4,1.39,4.77,2.11a5,5,0,0,1,.86,2.24,8.31,8.31,0,0,1-.28,4.58,6,6,0,0,1-.39.86c-2.87-.09-4.88-2.29-5.79-4.08C183.69,80,183.7,76.41,185.42,74.16Z"/></g></svg>