<?xml version="1.0" encoding="utf-8"?>
<!-- Generator: Adobe Illustrator 26.0.0, SVG Export Plug-In . SVG Version: 6.00 Build 0)  -->
<svg version="1.1" id="Capa_1" xmlns="http://www.w3.org/2000/svg" xmlns:xlink="http://www.w3.org/1999/xlink" x="0px" y="0px"
	 viewBox="0 0 296 148" style="enable-background:new 0 0 296 148;" xml:space="preserve">
<style type="text/css">
	.st0{fill:#B0DAED;}
	.st1{fill:#DBDBDB;}
	.st2{fill:#C6C6C6;}
	.st3{fill:#D1996B;}
	.st4{fill:#EEB383;}
	.st5{fill:#936646;}
	.st6{fill:#E84242;stroke:#BC2626;stroke-width:0.75;stroke-miterlimit:10;}
	.st7{fill:#F9E9A7;stroke:#E0B269;stroke-width:0.75;stroke-miterlimit:10;}
	.st8{fill:#FFFBCF;}
	.st9{fill:#BC2626;}
	.st10{font-family:'LilitaOne';}
	.st11{font-size:1.8824px;}
	.st12{fill:#047A0A;stroke:#025904;stroke-width:0.5;stroke-miterlimit:10;}
	.st13{fill:#7B401E;stroke:#683319;stroke-width:0.5;stroke-miterlimit:10;}
	.st14{fill:#662809;stroke:#5E2308;stroke-width:0.5;stroke-miterlimit:10;}
	.st15{fill:#5C76E5;}
	.st16{fill:#5571C9;stroke:#1E347A;stroke-miterlimit:10;}
	.st17{fill:#1E347A;}
	.st18{fill:#4968CE;}
	.st19{fill:#3056C1;}
	.st20{fill:#B8BF32;}
	.st21{fill:#999923;}
	.st22{fill:#639113;}
	.st23{fill:#EAEAEA;stroke:#545454;stroke-miterlimit:10;}
	.st24{fill:#C0E181;}
	.st25{fill:#105418;}
	.st26{fill:#969696;stroke:#303030;stroke-miterlimit:10;}
	.st27{fill:#C6C6C6;stroke:#7F7F7F;stroke-miterlimit:10;}
	.st28{fill:#969696;stroke:#636363;stroke-miterlimit:10;}
	.st29{fill:#197226;}
	.st30{fill:#3B7610;}
	.st31{fill:#96B023;}
	.st32{clip-path:url(#SVGID_00000028295650679583929840000016215700125156971952_);}
	.st33{fill:#C2E183;}
	.st34{fill:#1C231D;}
	.st35{fill:#DB2A44;}
	.st36{fill:#EA607B;}
	.st37{fill:#EAEAEA;}
	.st38{fill:#545454;}
	.st39{fill:none;stroke:#545454;stroke-miterlimit:10;}
	.st40{fill:#487003;}
	.st41{fill:#FFCCD6;}
	.st42{fill:#F23D57;}
	.st43{fill:#190606;}
	.st44{fill:#FFFFFF;}
	.st45{fill:none;stroke:#190606;stroke-miterlimit:10;}
	.st46{fill:#FF77A3;}
</style>
<g id="Capa_2_00000032632321575750053070000007373132081341118132_">
	<rect y="-2.9" class="st0" width="296" height="150.7"/>
	<rect y="104.2" class="st1" width="296" height="44.5"/>
	<ellipse class="st2" cx="17.8" cy="123.3" rx="4.1" ry="1"/>
	<ellipse class="st2" cx="28.6" cy="121.1" rx="4.1" ry="1"/>
	<ellipse class="st2" cx="104" cy="121.5" rx="4.1" ry="1"/>
	<ellipse class="st2" cx="94.2" cy="119.7" rx="4.1" ry="1"/>
	<rect x="15.9" y="66.5" class="st3" width="90.5" height="41.3"/>
	<rect x="13" y="62.8" class="st4" width="96" height="3.7"/>
	<rect x="16" y="104.3" class="st3" width="3.2" height="16.8"/>
	<rect x="16" y="121.1" class="st5" width="3.2" height="1.9"/>
	<rect x="102.5" y="102.9" class="st3" width="3.2" height="16.8"/>
	<rect x="102.5" y="119.7" class="st5" width="3.2" height="1.9"/>
	<rect x="26.7" y="102.2" class="st3" width="3.2" height="16.8"/>
	<rect x="26.7" y="119" class="st5" width="3.2" height="1.9"/>
	<rect x="92.6" y="101.2" class="st3" width="3.2" height="16.8"/>
	<rect x="92.6" y="118.1" class="st5" width="3.2" height="1.9"/>
	<ellipse class="st2" cx="162.9" cy="139.5" rx="30.3" ry="5.5"/>
	<ellipse class="st2" cx="212.7" cy="140.1" rx="13.1" ry="3.3"/>
	<ellipse class="st2" cx="106.6" cy="141.6" rx="13.1" ry="3.3"/>
	<path class="st6" d="M168.7,18.5c-1.8,4.4-3.6,10.2-7.8,9.4c-1.6-0.3-3.2-0.3-4.7,0c-4.1,0.8-6.7-5.2-8.1-9.4
		c-1.4-4.2,2.3-10.1,7.5-8.8c1.9,0.4,3.8,0.4,5.7,0C166.7,8.4,170.5,14,168.7,18.5z"/>
	<path class="st7" d="M167.9,18.5c-1.7,4.3-3.5,9.8-7.7,8.5c-1.1-0.3-2.3-0.3-3.4,0c-4,1.3-6.5-4.6-7.8-8.5s2.4-9.8,7.6-7.9
		c1.2,0.4,2.6,0.4,3.8,0C165.7,8.7,169.6,14.2,167.9,18.5z"/>
	<path class="st8" d="M157.1,11c0.8,0.2,1.7,0.2,2.6,0l-0.3,5.6c0,0.6,0.1,1.2,0.5,1.7c0.2,0.3,0.3,0.8,0.3,1.2
		c0,0.4-0.1,0.8-0.3,1.1c-0.4,0.5-0.5,1.1-0.5,1.8l0.4,4.4c-0.9-0.2-1.8-0.1-2.7,0.1l0.5-4.4c0.1-0.7-0.1-1.3-0.5-1.9
		c-0.2-0.3-0.3-0.7-0.3-1.1c0-0.4,0.1-0.8,0.3-1.2c0.4-0.5,0.5-1.2,0.5-1.8L157.1,11z"/>
	<circle class="st9" cx="158.5" cy="19.3" r="1"/>
	<polygon class="st9" points="159,19.4 154.8,19.4 153.9,19 159,19 	"/>
	<polygon class="st9" points="158.5,19.5 154.3,16.4 153.7,15.4 158.8,19.1 	"/>
	<text transform="matrix(1 0 0 1 157.4573 13.7189)" class="st10 st11">12</text>
	<text transform="matrix(1 0 0 1 161.4705 13.6589)" class="st10 st11">1</text>
	<text transform="matrix(1 0 0 1 163.7825 15.2097)" class="st10 st11">2</text>
	<text transform="matrix(1 0 0 1 164.5208 18.4025)" class="st10 st11">3</text>
	<text transform="matrix(1 0 0 1 163.4358 21.7458)" class="st10 st11">4</text>
	<text transform="matrix(1 0 0 1 158.0598 24.7731)" class="st10 st11">6</text>
	<text transform="matrix(1 0 0 1 154.7615 23.7785)" class="st10 st11">7</text>
	<text transform="matrix(1 0 0 1 152.0056 21.8361)" class="st10 st11">8</text>
	<text transform="matrix(1 0 0 1 150.7405 18.2219)" class="st10 st11">9</text>
	<text transform="matrix(1 0 0 1 161.1053 23.8239)" class="st10 st11">5</text>
	<text transform="matrix(1 0 0 1 154.0916 13.4782)" class="st10 st11">11</text>
	<text transform="matrix(1 0 0 1 150.7029 15.1047)" class="st10 st11">10</text>
	<path class="st12" d="M158,9.3l-0.5-0.4c0,0,0.3-1.1-0.2-1.9c-0.5-0.8-2.1-1-2.4-1.3s-0.9-1.1-1.1-1.3c-0.8,0.9-0.6,1.7-0.3,2.8
		c0.1,0.6,0.5,1.2,1,1.5c0.6,0.4,2.8,0.5,2.8,0.5l0.6,0.5L158,9.3z"/>
	<path class="st13" d="M161.4,6.3c0.1-0.8-1-2.3-2-2.2c0,0-0.9,1.5-1.5,2.2s-0.2,4-0.2,4c0.2,0.2,0.6,0.2,0.8,0c0,0,0.2-2.3,0.5-2.9
		S161.4,6.3,161.4,6.3z"/>
	<path class="st14" d="M161.4,6.3c-0.9-0.5-1.6-1.2-2-2.2C160.4,4,161.5,5.3,161.4,6.3z"/>
	<rect x="234.2" y="64.8" class="st15" width="31.9" height="53.4"/>
	<rect x="237.7" y="71.8" class="st16" width="24.8" height="12.3"/>
	<rect x="237.7" y="86.8" class="st16" width="24.8" height="12.3"/>
	<rect x="237.7" y="101.9" class="st16" width="24.8" height="12.3"/>
	<rect x="246.5" y="75.5" class="st17" width="6.4" height="0.8"/>
	<rect x="246.3" y="89.6" class="st17" width="6.4" height="0.8"/>
	<rect x="246.8" y="104.3" class="st17" width="6.4" height="0.8"/>
	<polygon class="st18" points="269.9,61.5 237.9,61.5 234.2,64.8 266.1,64.8 	"/>
	<polygon class="st19" points="266.1,118.2 269.8,114.8 269.8,61.4 266.1,64.8 	"/>
	<polygon class="st20" points="255.7,62.7 249.7,62.7 248.8,53.8 256.5,53.8 	"/>
	<polygon class="st21" points="255.7,52.3 249.7,52.3 248.8,53.8 256.5,53.8 	"/>
</g>
<g id="Capa_1_00000072980467783946934150000000512718249097886109_">
	<path class="st22" d="M138.8,74.9L138.8,74.9c-0.7,1.1,0.1,2.9,1.8,3.9c7.7,6.4,17,11.7,27.2,16.3l2.4-4.1
		c-10.5-4.8-19.9-10.2-27.2-16.3C141.4,73.7,139.5,73.8,138.8,74.9z"/>
	<path class="st23" d="M138.8,79.4c0.5,0.8,1.2,1.3,2.1,1c0,0,1.1-0.3,2.1-2.4c0.5-1,0.7-2.2,0.6-3.4c-0.1-0.8-0.8-1.4-1.6-1.4
		c-0.1,0-0.2,0-0.3,0.1L138.8,79.4z"/>
	<path class="st23" d="M142,75.8c0.1-0.4,0.1-0.9,0-1.3l-0.7-2.1c-0.4-1.9-0.3-3.9,0.1-5.8c0.1-0.6-0.2-1.2-0.7-1.5
		c-0.4-0.2-0.9-0.1-1.1,0.3c-1.4,1.2-2.1,2.9-2.3,4.9c-2.4-0.5-4.9-0.7-7.3-0.4c-0.3,0-0.7,0.1-1,0.2c-0.8,0.2-1.5,0.3-2.2,0.6
		c-0.8,0.2-1.5,0.7-2,1.4c-0.8,1.3-0.1,2.1,2.8,2l-2,1.5c-0.7,0.5-1.2,1.2-1.6,2c-0.9,2.1,0.5,2.9,3,2c-0.4,1.2-0.4,2.1,0.5,2.4
		c0.4,0.1,0.8,0.1,1.1-0.1l2.1-1c0.5-0.3,1.1-0.4,1.6-0.5c1.5-0.2,4.5-0.5,5.6-0.9c0.9-0.3,1.7-0.7,2.5-1.1c0.4-0.2,0.7-0.5,0.9-0.9
		"/>
	<path class="st23" d="M132.7,77.5c-2.3,0-4.3,0.6-5.6,2.2"/>
	<path class="st23" d="M133.2,73.9c-1.9-0.5-3.9-0.4-5.7,0.4"/>
	<path class="st24" d="M155.9,81c2.2,1.1,4.2,2.8,6.2,4.2c1,0.7,2,1.4,3.1,2.1c1,0.6,2.1,1.1,3.2,1.4c1.9,0.4,4,0.1,5.9-0.4
		c1.8-0.5,3.5-1.2,5.2-1.9c0.9-0.4,1.8-0.8,2.6-1.3c1.1-0.6,1.4-2,0.8-3.1c-0.6-1.1-2-1.4-3.1-0.8c-0.6,0.4-1.3,0.7-2,1
		c-0.3,0.2-0.7,0.3-1,0.4c-0.2,0.1-0.8,0.3,0,0l-0.7,0.3c-0.8,0.3-1.6,0.6-2.4,0.8c-0.8,0.3-1.7,0.5-2.5,0.6c-0.6,0.1,0.6-0.1,0,0
		c-0.2,0-0.4,0-0.6,0c-0.4,0-0.8,0-1.1,0c-0.4,0,0.6,0.1,0.2,0c-0.1,0-0.2,0-0.3-0.1c-0.1,0-0.3-0.1-0.4-0.1c-0.1,0-0.2-0.1-0.3-0.1
		c-0.5-0.2,0.5,0.2,0,0c-0.3-0.2-0.6-0.3-0.9-0.5c-1-0.6-2.1-1.2-3-1.9c-2.2-1.6-4.3-3.4-6.7-4.6c-1-0.5-2.5-0.3-3.1,0.8
		C154.6,78.9,154.8,80.4,155.9,81L155.9,81z"/>
	<path class="st25" d="M142.8,105.6c-2.6,0.2-6-0.4-6-0.4c-0.2,0-0.5-7-0.5-7c0-0.2,0.1-0.4,0.3-0.4c0,0,0,0,0,0
		c1.9,0.3,3.8,0.4,5.7,0.4c1.9-0.2,3.8-0.6,5.6-1.3c0.2,0,0.3,0.1,0.4,0.3c0,0,0,0,0,0.1l0.3,6.7
		C148.8,104.1,145.4,105.4,142.8,105.6z"/>
	<path class="st26" d="M140.2,134.4c-1,0.5-1.6,1.6-1.3,2.7c0.6,1.7,2.5,2.5,5.1,2.4l3.8-0.4c0.3,0,0.6,0,0.9,0l4.9,0.1
		c2.5,0.1,5-0.1,7.4-0.7c2-0.8,3.1-1.9,2.3-4.1c-1-1.1-2.9-1.4-4.9-1.8L140.2,134.4z"/>
	<path class="st27" d="M150.3,131.2c0.9-1.7,2.6-2.9,5.2-3.4l0.3,0c3.3-0.2,5.9,0.6,6.9,2.8c0.6,1.2,0.6,2.7,0,3.9
		c-0.9,1.6-2.6,2.4-5.2,2.8c-0.2,0-0.5,0.1-0.8,0c-4.1-0.2-6.3-0.3-8.2-0.3c-0.9,0-1.8,0.1-2.7,0.2c-0.8,0.1-1.7,0.2-2.6,0.1
		c-1.5-0.1-2.8-1-3.5-2.4c-0.4-1-0.7-2-0.6-3.1c0-4.2,2.2-5.6,2.6-5.6c0.6,0.3,1.2,0.4,1.9,0.5c0,0,1.1-0.8,1.7-0.8
		c0.5,0,1.5,0.9,1.5,0.9c1,0,1.9-0.2,2.8-0.5c0.4,0.2,1.8,1.8,2.3,2.7"/>
	<path class="st28" d="M144,126.9c-2.2-0.4-3.8-1.4-3.8-2.6c0-1.6,2.6-2.8,5.7-2.8c3.2,0,5.7,1.2,5.7,2.8c0,1.4-2,2.5-4.7,2.8"/>
	<path class="st24" d="M140.5,97.1c0.8,3.2,1.6,6.5,2.2,9.7c0.1,0.8,0.3,1.6,0.4,2.5c0,0.1,0,0.2,0,0.4c0,0-0.1-0.4,0-0.2l0.1,0.6
		c0,0.4,0.1,0.8,0.1,1.2c0.2,1.7,0.3,3.3,0.3,5c0,1.9-0.1,3.9-0.3,5.8c0,1.2,1,2.3,2.3,2.3c0.6,0,1.2-0.2,1.6-0.7
		c0.4-0.4,0.6-1,0.7-1.6c0.8-6.9-0.1-13.9-1.6-20.7c-0.4-1.9-0.9-3.8-1.4-5.6c-0.3-1.2-1.6-1.9-2.8-1.6
		C140.9,94.7,140.2,95.9,140.5,97.1L140.5,97.1z"/>
	<path class="st29" d="M142.6,103.4c-1.2,0.1-3.4-0.4-4.5,0.1c-1.3,0.6-1.4,1.6-1.4,1.6c-0.2,0-0.4-7-0.4-7c0-0.2,0.2-0.3,0.3-0.3
		c0,0,0,0,0,0c1.9,0.2,3.8,0.3,5.7,0.2c1.9-0.2,3.8-0.5,5.6-1.1c0.2,0,0.3,0,0.4,0.2c0,0,0,0,0,0l0.3,6.8c0,0.1-0.1-1-1.8-1.4
		C145.9,102.3,143.5,103.3,142.6,103.4z"/>
	<path class="st25" d="M120.7,99.9c-1.7-1.1-3.2-2.4-4.7-3.8c-0.1-0.1,3.2-5.5,3.2-5.5c0.1-0.2,0.3-0.2,0.4-0.1c0,0,0,0,0,0
		c1.4,1.3,2.9,2.6,4.5,3.6c1.7,1,3.4,1.7,5.3,2.3c0.2,0.1,0.2,0.3,0.2,0.4c0,0,0,0,0,0l-3.2,5.2C126.3,102.2,122.9,101.3,120.7,99.9
		z"/>
	<path class="st27" d="M112.6,130.6c-1.4-4.9-7-7.3-11.1-5.3c0.8-2,2.3-3.5,4.5-4.5l6.6,3.1C113.3,126.1,113.3,128.4,112.6,130.6z"
		/>
	<path class="st28" d="M109.6,122.5l3,1.4c1.2-0.1,1.9-0.5,2.4-1.6s-0.5-2.5-1.9-3.6l-3.7-1.8c-1.5-0.3-2.8-0.1-3.7,1
		c-0.5,1-0.2,2,0.3,2.9l1.5,0.7"/>
	<path class="st26" d="M112.2,135.1c0.4,0.6,0.5,1.3,0.2,2c-0.5,1.1-3.3,3-9.4,0.1c-6.1-2.9-6.9-6.1-6.4-7.1c0.3-0.6,0.8-1,1.5-1.1"
		/>
	<path class="st23" d="M112.5,134.2c2.1-7.5-8.1-13.4-13.9-6.6c-0.6,0.8-0.7,1.5-0.4,2.1c0.8,3.4,10.4,7.9,12.7,6.3
		C111.8,135.7,112.4,135,112.5,134.2z"/>
	<path class="st24" d="M120.4,95.7l-4.2,10c-0.5,1.2-1,2.4-1.5,3.6c0,0,0.4-0.7,0.2-0.5c-0.1,0.1-0.1,0.2-0.2,0.2l-0.6,0.9l-1.8,2.7
		l-3,4.7c-0.6,1.1-0.3,2.5,0.8,3.1c1.1,0.6,2.4,0.2,3.1-0.8l2.6-4c1-1.5,2-3,3-4.6c0.2-0.4,0.4-0.8,0.5-1.2l0.9-2.2l2.7-6.5l1.8-4.3
		c0.2-0.6,0.1-1.2-0.2-1.7c-0.6-1.1-2-1.4-3.1-0.8c0,0,0,0,0,0C120.9,94.7,120.6,95.2,120.4,95.7L120.4,95.7z"/>
	<path class="st29" d="M121.7,98.1c-1-0.6-2.6-2.3-3.7-2.5c-1.4-0.3-1.9,0.4-1.9,0.4c-0.1-0.1,3.2-5.5,3.2-5.5
		c0.1-0.1,0.3-0.1,0.4,0c0,0,0,0,0,0c1.4,1.3,3,2.4,4.6,3.4c1.6,1,3.4,1.8,5.2,2.5c0.2,0.1,0.3,0.3,0.2,0.4l-3.2,5.3
		c0,0.1,0.4-0.8-0.8-2.1C124.9,99.3,122.5,98.7,121.7,98.1z"/>
	
		<ellipse transform="matrix(0.2154 -0.9765 0.9765 0.2154 37.3823 192.0961)" class="st30" cx="138.2" cy="72.8" rx="26" ry="26.7"/>
	
		<ellipse transform="matrix(0.2154 -0.9765 0.9765 0.2154 38.6813 195.4228)" class="st31" cx="141" cy="73.6" rx="25.5" ry="23.1"/>
	<g>
		<defs>
			
				<ellipse id="SVGID_1_" transform="matrix(0.219 -0.9757 0.9757 0.219 38.9559 196.497)" cx="142.2" cy="73.9" rx="24.8" ry="22.3"/>
		</defs>
		<clipPath id="SVGID_00000085940518271080314020000000528435691035304851_">
			<use xlink:href="#SVGID_1_"  style="overflow:visible;"/>
		</clipPath>
		<g style="clip-path:url(#SVGID_00000085940518271080314020000000528435691035304851_);">
			<path class="st33" d="M146.5,50.7c-1.2-4.8-16.5-0.7-15.3,4.1l9.5,13.6c0.6,1,3.5,0.2,3.6-1L146.5,50.7z"/>
			<path class="st33" d="M161.5,59c2.4-4.3-11.3-12.1-13.7-7.8l-2.4,16.7c-0.2,1.1,2.4,2.6,3.2,1.8L161.5,59z"/>
			<path class="st33" d="M166.7,75.9c4.6-1.4,0.3-16.9-4.3-15.5l-13.1,10.3c-0.9,0.7-0.1,3.6,1,3.6L166.7,75.9z"/>
			<path class="st33" d="M158.8,91.7c4.3,2.2,11.5-12.2,7.3-14.4l-16.4-1.6c-1.1-0.2-2.5,2.6-1.7,3.4L158.8,91.7z"/>
			<path class="st33" d="M142.4,97.4c1.6,4.6,16.5-0.7,14.9-5.3l-10.5-12.8c-0.7-0.9-3.5,0.1-3.5,1.2L142.4,97.4z"/>
			<path class="st33" d="M130.1,55.3c-4.1-2.5-12.4,11.2-8.3,13.8L138,72c1.1,0.3,2.7-2.4,2-3.2L130.1,55.3z"/>
			<path class="st33" d="M121.5,70.6c-4.7,1-1.6,16.8,3.1,15.8l13.9-9.2c1-0.6,0.4-3.6-0.7-3.7L121.5,70.6z"/>
			<path class="st33" d="M125.7,87.4c-2.7,4.1,10.3,13.1,13,9l3.8-16.4c0.3-1.1-2.2-2.8-3-2.1L125.7,87.4z"/>
		</g>
	</g>
	<path class="st34" d="M141.6,64c-1,4.6-3.6,8-5.8,7.5c-1.9-0.4-2.7-4.2-2.3-8c5.2-0.9,4.4,0,0.9-3.5c1.2-3.4,3.3-5.6,5.1-5.2
		C141.7,55.3,142.7,59.4,141.6,64z"/>
	<path class="st34" d="M154.6,67.2c-1,4.6-3.6,8-5.8,7.5c-1.9-0.4-2.7-4.2-2.3-8c5.2-0.9,4.4,0,0.9-3.5c1.2-3.4,3.3-5.6,5.1-5.2
		C154.7,58.4,155.7,62.5,154.6,67.2z"/>
	<path class="st34" d="M156.5,85c-0.4,1.6-1.4,3-2.9,4c-3.4,2.3-9.1,3.1-15.3,1.7c-8.9-2-15.2-7.7-14.1-12.8c0.6-2.8,2.9-5,5.7-5.4
		c2.9-0.4,7.5,5.6,10.9,8C148.3,85.8,157.7,79.9,156.5,85z"/>
	<path class="st35" d="M125.4,75.3c-1.7,2.6-1.4,4.9-0.8,6.2c1,3.2,5,5.6,5.7,6c5.2,3.2,9.8,3.5,9.8,3.5c3.2,0,3.4-4.3,1.2-6
		c-1.3-0.6-3.6-2-6.3-1.4c0-2.3-3.3-6.7-3.3-6.7S127.6,72.3,125.4,75.3z"/>
	<path class="st34" d="M134.3,82.3c0,0.4,0,0.8-0.1,1.3c0,0.2,0,0.4-0.1,0.6c0,0.1,0,0.2,0,0.3s0,0.1,0,0.2c0,0,0,0,0,0
		c0,0,0,0.1,0,0.1c-0.1,0.3,0.1,0.6,0.3,0.7c0.3,0.1,0.6,0,0.7-0.2c0.4-0.9,0.7-1.9,0.6-2.9h-1.1c0,0.1,0,0.3,0,0.4
		c0,0.1,0,0.2,0,0.2v0.1c0,0,0,0.1,0,0.1c0-0.1,0,0,0,0c0,0,0,0.1,0,0.1l0,0.2c0,0.2-0.1,0.3-0.1,0.5c-0.1,0.3,0.1,0.6,0.4,0.7
		c0.2,0.1,0.5,0,0.6-0.3c0.2-0.4,0.3-0.9,0.3-1.4c0-0.3-0.3-0.6-0.6-0.6c-0.2,0-0.5,0.2-0.5,0.4l-0.4,1.1l1.1,0.3l0.3-1.3
		c0.1-0.3-0.1-0.6-0.4-0.7c-0.3-0.1-0.6,0.1-0.7,0.4l-0.3,1c-0.1,0.4,0.3,0.9,0.7,0.7c0.2-0.1,0.4-0.2,0.5-0.4
		c0.1-0.2,0.1-0.3,0.2-0.5l0.2-1c0.1-0.3-0.1-0.6-0.4-0.7c-0.3-0.1-0.6,0.1-0.7,0.4l-0.2,0.8c0,0.1-0.1,0.3-0.1,0.4c0,0,0,0,0,0.1
		c0,0,0,0.1,0,0c0-0.1,0,0,0,0c0,0,0.1-0.1,0.2-0.1l0.7,0.7l0.3-1l-1.1-0.3l-0.3,1.3c-0.1,0.3,0.1,0.6,0.4,0.7
		c0.3,0.1,0.6-0.1,0.7-0.4l0.4-1.1l-1.1-0.1c0,0.1,0,0.2,0,0.3c0,0.1,0,0.1,0,0c0,0,0,0.1,0,0.1c0,0.1,0,0.1-0.1,0.2c0,0,0,0.2,0,0
		c0,0,0,0.1-0.1,0.1l1,0.4c0.2-0.6,0.3-1.3,0.3-2c0-0.3-0.3-0.6-0.6-0.6s-0.6,0.3-0.6,0.6c0,0.2,0,0.4,0,0.7c0,0,0,0.1,0,0.1
		s0,0.1,0,0c0,0,0,0.1,0,0.1c0,0.1,0,0.2-0.1,0.3c0,0.2-0.1,0.4-0.2,0.6c0,0.1-0.1,0.2-0.1,0.3v0l-0.1,0.2l1,0.4
		c0.1-0.9,0.2-1.8,0.2-2.7c0-0.3-0.3-0.6-0.6-0.6S134.3,82,134.3,82.3L134.3,82.3z"/>
	<path class="st34" d="M136,80.1l0.4,1.4c0.1,0.3,0.4,0.5,0.7,0.4c0.3-0.1,0.5-0.4,0.4-0.7l-0.4-1.4c0-0.1-0.1-0.3-0.3-0.3
		c-0.3-0.2-0.6-0.1-0.8,0.2C136,79.8,135.9,80,136,80.1z"/>
	<path class="st34" d="M133.6,77.3c0.1,0.7,0.2,1.4,0.4,2c0.1,0.6,0.3,1.3,0.7,1.8c0.2,0.3,0.5,0.4,0.8,0.2c0.3-0.2,0.4-0.5,0.2-0.8
		c-0.1-0.2-0.3-0.5-0.3-0.7c-0.1-0.3-0.2-0.6-0.2-0.9c-0.1-0.7-0.2-1.3-0.4-2c-0.1-0.3-0.4-0.5-0.7-0.4
		C133.7,76.7,133.5,77,133.6,77.3L133.6,77.3z"/>
	<ellipse transform="matrix(0.2154 -0.9765 0.9765 0.2154 44.5049 200.331)" class="st35" cx="146.9" cy="72.5" rx="3.5" ry="5.6"/>
	<path class="st34" d="M145.2,49l-14.3,2.2c-0.4,0.1-0.9-0.2-0.9-0.7l0-0.2c-0.1-0.4,0.2-0.9,0.6-1l14.1-4c0.4-0.1,0.9,0.1,1,0.6
		c0,0,0,0.1,0,0.1l0.3,2.1C146,48.5,145.7,49,145.2,49C145.2,49,145.2,49,145.2,49z"/>
	<path class="st34" d="M149.8,50.3l12.1,8c0.4,0.2,0.9,0.2,1.1-0.2l0.1-0.2c0.3-0.4,0.2-0.8-0.1-1.1l-11.1-9.6
		c-0.4-0.3-0.9-0.3-1.2,0.1c0,0,0,0.1-0.1,0.1l-1.1,1.7C149.3,49.5,149.4,50,149.8,50.3z"/>
	<ellipse transform="matrix(0.5622 -0.827 0.827 0.5622 6.7217 155.077)" class="st36" cx="149.8" cy="71.2" rx="0.8" ry="2.1"/>
	<path class="st37" d="M183.6,86c1.8,0.9,4,1,5.9,0.3c1.2-0.4,2.2-1.2,3.4-1.6c0.9-0.3,1.8-0.5,2.6-0.8c1.5-0.4,3.3-0.9,4.7-1.6
		c1.1-0.6,1.1-1.4,0.9-2c-0.2-0.4-0.6-0.7-1.1-0.8c-0.5-0.1-0.9-0.1-1.4,0c-1.1,0.2-2.1,0.5-3.1,0.9c-0.5,0.2-1,0.4-1.5,0.5
		c-0.5,0.1-0.8,0.1-1.1-0.1c-0.1-0.2-0.2-0.5-0.2-0.7c0-0.2,0.3-0.2,0.5-0.3c2-0.7,4.6-1.5,6.1-2.3c0.4-0.3,1.1-0.7,1.3-1.1
		c0.2-0.4,0.2-0.9,0-1.4c-0.2-0.5-0.5-0.9-0.9-1.2c-0.3-0.2-0.7-0.3-1-0.2c-0.9,0.1-1.7,0.4-2.5,0.9c-1.1,0.5-2.2,1.2-3.2,1.8
		c-0.4,0.3-0.9,0.6-1.4,0.4c-0.2-0.1-0.4-0.4-0.5-0.6c0-0.1-0.1-0.2-0.1-0.3c0-0.2,0.2-0.3,0.4-0.3c1.7-0.6,3.3-1.5,4.7-2.5
		c0.2-0.1,0.4-0.3,0.6-0.5c0.5-0.7,0.5-1.7-0.1-2.4c-0.6-0.6-1.6-0.9-2.4-0.6c-0.8,0.3-1.5,0.7-2.1,1.3l-3,2.5
		c-0.5,0.4-1,0.8-1.6,1.1c-0.1,0-0.2,0-0.2,0c-0.1-0.1-0.1-0.2-0.1-0.3c0.1-1,0-2-0.2-3.1c-0.2-1-0.8-1.9-1.8-2.4
		c-0.2-0.1-0.4-0.1-0.6-0.2c-0.7,0-1.2,0.8-1.3,1.4c-0.2,0.8-0.2,1.6-0.1,2.3c0.1,0.5,0.2,0.9,0.3,1.4c0.1,0.8-0.1,1.6-0.6,2.3
		c-0.4,0.6-0.9,1-1.4,1.6s-0.9,1.3-0.7,2c-0.9,0.1-1.9,0.8-1.9,1.7c0.1,0.5,0.2,1.1,0.5,1.6c0.4,0.9,0.7,1.7,1.1,2.7
		c0.4,1.1,2.1,1.2,2.8,0.6L183.6,86z"/>
	<path class="st38" d="M183.5,86.1c1.4,0.7,2.9,0.9,4.5,0.7c1.7-0.2,3-1.2,4.6-1.9c0.9-0.3,1.8-0.6,2.7-0.8c0.8-0.2,1.6-0.4,2.4-0.7
		c0.8-0.2,1.5-0.5,2.2-0.8c0.5-0.3,1.1-0.6,1.4-1.2c0.4-1-0.3-1.9-1.3-2.1c-0.7-0.1-1.4,0-2.1,0.2c-0.8,0.2-1.6,0.5-2.3,0.8
		c-0.6,0.3-1.4,0.6-2.1,0.5c-0.2,0-0.4-0.2-0.5-0.4c0-0.2,0-0.3,0.2-0.4c0.3-0.2,0.7-0.2,1.1-0.4c1.5-0.5,2.9-1,4.4-1.6
		c1.1-0.5,2.5-1.2,2.3-2.6c-0.1-0.7-0.4-1.3-0.9-1.7c-0.5-0.4-1.2-0.5-1.8-0.3c-0.8,0.2-1.6,0.5-2.3,0.9c-0.8,0.4-1.6,0.8-2.4,1.3
		c-0.3,0.2-0.6,0.5-1,0.6c-0.3,0.2-0.7,0.3-1,0c-0.1-0.1-0.1-0.2-0.2-0.3c-0.1-0.3-0.1-0.4,0.1-0.6c0.3-0.2,0.7-0.3,1-0.4
		c0.4-0.2,0.8-0.4,1.2-0.6c0.8-0.4,1.5-0.8,2.2-1.3c0.5-0.4,1.1-0.7,1.2-1.4c0.3-1.1-0.4-2.3-1.5-2.6c-0.1,0-0.1,0-0.2,0
		c-1.5-0.3-2.7,0.7-3.8,1.6l-2.2,1.8c-0.4,0.3-0.8,0.6-1.1,0.9c-0.2,0.1-0.3,0.2-0.5,0.3c-0.2,0.1-0.6,0.4-0.7,0.1
		c0-0.2,0-0.4,0-0.6c0-0.2,0-0.5,0-0.7c0-0.4,0-0.9-0.1-1.3c-0.1-0.7-0.4-1.3-0.8-1.9c-0.7-0.9-2-1.6-2.8-0.5
		c-0.9,1.2-0.6,2.9-0.3,4.3c0.2,1,0,2-0.6,2.7c-0.5,0.6-1.1,1.1-1.6,1.8c-0.3,0.5-0.6,1.1-0.5,1.7l0.1-0.2c-0.9,0.1-1.8,0.6-2,1.6
		c0,0.5,0.1,1,0.3,1.5c0.2,0.6,0.5,1.2,0.8,1.8c0.3,0.9,0.5,1.9,1.5,2.2c0.4,0.1,0.8,0.1,1.2,0.1c0.2,0,0.3-0.1,0.5-0.2
		C183.3,86.1,183.3,86,183.5,86.1c0.2,0.1,0.3-0.2,0.1-0.2c-0.3-0.1-0.3-0.1-0.6,0.1c-0.3,0.2-0.7,0.2-1,0.2c-0.4,0-0.8-0.1-1.1-0.4
		c-0.4-0.3-0.5-0.9-0.7-1.4c-0.4-0.9-0.8-1.7-1.1-2.6c-0.2-0.5-0.1-1.1,0.2-1.5c0.4-0.4,0.8-0.6,1.4-0.7c0.1,0,0.1-0.1,0.1-0.2
		c0,0,0,0,0,0c-0.2-0.8,0.5-1.7,1-2.3c0.5-0.5,1-1,1.3-1.7c0.3-0.6,0.4-1.3,0.3-2c-0.1-0.8-0.3-1.5-0.3-2.3s0.1-1.7,0.6-2.3
		c0.7-0.8,1.6-0.2,2.1,0.4c0.5,0.6,0.8,1.3,0.9,2.1c0.1,0.4,0.1,0.9,0.1,1.3c0,0.4,0,0.9,0,1.3c0.2,1,2.3-0.9,2.6-1.2l2.1-1.7
		c0.6-0.5,1.2-1,1.9-1.4c0.7-0.4,1.6-0.4,2.4,0c0.7,0.4,1.1,1.2,0.9,1.9c-0.2,0.8-1.1,1.3-1.8,1.7c-0.7,0.4-1.3,0.8-2.1,1.1
		c-0.4,0.2-0.8,0.4-1.2,0.5c-0.3,0.1-0.6,0.2-0.9,0.4c-0.3,0.3-0.1,0.7,0.1,1c0.3,0.4,0.9,0.5,1.3,0.2c0.7-0.4,1.4-0.9,2.1-1.3
		c0.7-0.4,1.4-0.8,2.1-1.1c0.7-0.4,1.9-0.9,2.7-0.5c0.8,0.4,1.2,1.3,1.1,2.2c-0.1,0.7-0.9,1.2-1.6,1.5c-1.3,0.6-2.7,1.1-4.1,1.6
		c-0.6,0.2-1.3,0.5-2,0.7c-0.5,0.1-0.5,0.4-0.3,0.9c0.3,0.9,1.9,0.4,2.5,0.1c0.7-0.3,1.5-0.6,2.3-0.9c0.7-0.2,1.5-0.4,2.3-0.3
		c0.7,0.1,1.3,0.5,1.3,1.3c0,0.8-0.8,1.2-1.4,1.5c-1.4,0.6-2.9,1.1-4.5,1.5c-0.8,0.2-1.5,0.4-2.3,0.7c-0.7,0.3-1.4,0.6-2.1,1
		c-1.4,0.8-3.1,1.2-4.7,1c-0.8-0.1-1.6-0.3-2.4-0.7C183.5,85.8,183.3,86,183.5,86.1z"/>
	<path class="st37" d="M180.7,79.6c0,0.6,0.2,1.2,0.5,1.7"/>
	<path class="st38" d="M180.6,79.6c0,0.6,0.2,1.2,0.6,1.7c0.1,0.2,0.3,0,0.2-0.1c-0.3-0.5-0.5-1-0.5-1.6c0-0.1-0.1-0.1-0.2-0.1
		C180.6,79.5,180.6,79.5,180.6,79.6L180.6,79.6z"/>
	<path class="st37" d="M182.8,84.4c0.3,0.6,0.7,1.2,1.1,1.7"/>
	<path class="st38" d="M182.6,84.5c0.3,0.6,0.7,1.2,1.2,1.7c0.1,0.1,0.3-0.1,0.2-0.2c-0.5-0.5-0.9-1.1-1.1-1.7
		c0-0.1-0.1-0.1-0.2-0.1C182.6,84.3,182.6,84.4,182.6,84.5C182.6,84.5,182.6,84.5,182.6,84.5L182.6,84.5z"/>
	<path class="st37" d="M189.9,75.4c1.1,0.6,1.9,1.6,2.2,2.8c0.3,1.2,0.5,2.4,0.5,3.6"/>
	<path class="st38" d="M189.8,75.5c2.3,1.2,2.6,4,2.7,6.4c0,0.2,0.3,0.2,0.3,0c-0.1-2.4-0.4-5.3-2.8-6.6
		C189.8,75.2,189.6,75.5,189.8,75.5z"/>
	<path class="st37" d="M187.2,74.1c0.2,0.4,0.2,0.8,0.1,1.2c-0.1,0.7-0.3,1.3-0.6,1.9c-0.3,0.6-0.9,1-1.5,1.2"/>
	<path class="st38" d="M187.1,74.1c0.2,0.4,0.2,0.8,0.1,1.2c-0.1,0.4-0.2,0.8-0.3,1.2c-0.2,0.8-0.9,1.4-1.7,1.6
		c-0.2,0-0.1,0.3,0.1,0.3c0.9-0.2,1.5-0.9,1.8-1.7c0.2-0.5,0.3-1,0.4-1.5c0.1-0.4,0.1-0.9-0.1-1.3C187.2,73.8,187,74,187.1,74.1
		L187.1,74.1z"/>
	<g id="Manga">
		<path class="st25" d="M107.9,59.8l2.7,10.8c0.1,0.2,2.3,0,2.7-0.1l3.4-0.2c0.4-0.1,0.7-0.2,1.1-0.3l0.3-11.4
			C116.7,57.2,108.3,57.6,107.9,59.8z"/>
		<path class="st24" d="M115.3,58.7c-0.3-1.2-0.5-2.4-0.7-3.6c0,0.1,0.1,0.5,0,0.1c0-0.2,0-0.3-0.1-0.5c0-0.3-0.1-0.5-0.1-0.8
			c0-0.6-0.1-1.2-0.1-1.8c0-0.6,0-1.2,0-1.7c0-0.3,0-0.6,0.1-0.9c0-0.1,0-0.2,0-0.4c0-0.1,0.1-0.9,0-0.3c0.1-0.8,0.3-1.5,0.5-2.2
			c0.1-0.3,0.2-0.7,0.4-1c0.1-0.3-0.1,0.2-0.1,0.2c0-0.1,0.1-0.2,0.1-0.3c0.1-0.2,0.2-0.4,0.3-0.6c0.3-0.7,0.7-1.4,1.1-2.1
			c0.7-1.3,1.5-2.5,2.3-3.8c0.4-0.6,0.8-1.3,1.3-1.9c0.7-1,0.2-2.6-0.8-3.1c-1.2-0.6-2.4-0.2-3.1,0.8c-1.2,1.7-2.4,3.5-3.4,5.3
			c-0.9,1.5-1.6,3.1-2.3,4.7c-0.8,2-0.9,4.2-0.9,6.3c0,2.9,0.4,5.8,1,8.6c0.3,1.2,1.6,1.9,2.8,1.6c0,0,0,0,0,0
			C114.9,61.1,115.6,59.9,115.3,58.7z"/>
		<path class="st29" d="M108.1,60.5c0,0,2,10.6,2.9,10.5l6.5-0.6c0.8-0.2,0.6-10.2,0.6-11.1C114.9,60.5,111.4,60.9,108.1,60.5z"/>
	</g>
	<path class="st37" d="M115.1,34.4c-0.8-1.9-0.7-4,0.1-5.9c0.5-1.1,1.3-2.1,1.8-3.3c0.4-0.8,0.6-1.7,0.9-2.6c0.5-1.5,1.1-3.2,2-4.5
		c0.7-1.1,1.5-1,2-0.8c0.4,0.2,0.6,0.7,0.7,1.1c0.1,0.5,0,0.9-0.1,1.4c-0.3,1-0.6,2-1.2,3c-0.3,0.4-0.5,0.9-0.6,1.4
		c-0.1,0.5-0.2,0.8,0,1.1c0.2,0.2,0.4,0.2,0.7,0.3c0.2,0,0.3-0.3,0.3-0.5c0.9-2,1.9-4.5,2.7-5.9c0.3-0.4,0.8-1,1.2-1.2
		c0.5-0.1,0.9-0.1,1.4,0.1c0.5,0.2,0.9,0.6,1.1,1c0.2,0.3,0.2,0.7,0.2,1c-0.2,0.9-0.5,1.7-1,2.4c-0.6,1.1-1.3,2.1-2,3
		c-0.3,0.4-0.7,0.9-0.5,1.4c0.1,0.2,0.3,0.4,0.6,0.5c0.1,0.1,0.2,0.1,0.3,0.1c0.2,0,0.3-0.2,0.3-0.4c0.7-1.6,1.7-3.2,2.8-4.6
		c0.2-0.2,0.3-0.4,0.6-0.6c0.8-0.5,1.7-0.4,2.4,0.3c0.6,0.7,0.8,1.6,0.5,2.5c-0.3,0.8-0.8,1.5-1.4,2l-2.7,2.9
		c-0.5,0.5-0.9,1-1.2,1.5c0,0.1-0.1,0.2,0,0.2c0,0.1,0.2,0.1,0.3,0.1c1,0,2,0.1,3,0.4c1,0.3,1.8,1,2.3,1.9c0.1,0.2,0.1,0.4,0.1,0.6
		c-0.1,0.7-0.8,1.1-1.5,1.2c-0.8,0.1-1.6,0.1-2.3-0.1c-0.5-0.1-0.9-0.3-1.4-0.4c-0.8-0.1-1.6,0-2.3,0.4c-0.6,0.4-1.1,0.9-1.7,1.3
		c-0.6,0.4-1.4,0.9-2,0.6c-0.1,0.9-0.9,1.8-1.8,1.7c-0.5-0.1-1.1-0.3-1.5-0.6c-0.8-0.5-1.6-0.8-2.6-1.3c-1.1-0.5-1-2.1-0.4-2.8
		L115.1,34.4z"/>
	<path class="st38" d="M115.2,34.4c-0.6-1.5-0.7-3.1-0.3-4.7c0.4-1.6,1.5-2.8,2.2-4.2c0.7-1.4,1.1-2.9,1.6-4.3
		c0.3-0.8,0.6-1.5,1-2.3c0.3-0.6,0.8-1.4,1.6-1.5c2-0.2,1.2,2.6,0.9,3.6c-0.4,1.3-1.4,2.5-1.5,3.9c0,0.4,0,0.7,0.4,0.9
		c0.5,0.2,0.8,0.2,0.9-0.3c0.5-1.4,1.1-2.8,1.8-4.1c0.3-0.6,0.6-1.2,0.9-1.7s0.9-1.4,1.7-1.5c0.9,0,1.7,0.5,2,1.4
		c0.3,0.9-0.3,1.8-0.7,2.5c-0.4,0.7-0.8,1.4-1.3,2.1s-1,1.3-1.4,2c-0.3,0.4-0.2,1,0.2,1.3c0.3,0.3,0.8,0.5,1.1,0.1
		c0.2-0.3,0.3-0.6,0.4-0.9c0.2-0.4,0.4-0.8,0.6-1.1c0.4-0.7,0.8-1.3,1.3-2c0.5-0.7,1-1.5,2-1.6c0.8,0,1.5,0.4,1.8,1.2
		c0.7,1.7-0.8,3.1-1.9,4.2l-1.8,2c-0.5,0.5-1,1.1-1.4,1.7c-0.2,0.4-0.3,0.7,0.2,0.8c0.8,0,1.7,0.1,2.5,0.2c0.8,0.1,1.5,0.5,2,1
		c0.6,0.6,1.1,1.6,0.2,2.2c-0.7,0.4-1.5,0.5-2.2,0.4c-0.8,0-1.6-0.4-2.4-0.5c-0.7-0.1-1.3,0-2,0.2c-0.6,0.3-1.2,0.7-1.7,1.2
		c-0.6,0.5-1.5,1.1-2.3,0.8c-0.1,0-0.2,0-0.2,0.1c0,0,0,0,0,0c-0.1,0.6-0.4,1-0.8,1.4c-0.4,0.3-1,0.3-1.4,0.1
		c-0.9-0.4-1.9-0.8-2.8-1.3c-0.4-0.2-0.8-0.4-1.2-0.7c-0.2-0.3-0.4-0.7-0.4-1.1c0-0.4,0.1-0.7,0.3-1.1
		C115.2,34.7,115.3,34.7,115.2,34.4c0-0.2-0.3-0.1-0.3,0.1c0,0.2,0.1,0.1-0.1,0.3c-0.1,0.2-0.2,0.3-0.2,0.5
		c-0.1,0.4-0.1,0.7-0.1,1.1c0.2,1.1,1.1,1.4,2,1.8c0.6,0.3,1.1,0.6,1.7,0.9c0.4,0.3,0.9,0.4,1.4,0.5c1,0,1.8-0.9,1.9-1.8l-0.2,0.1
		c1.4,0.5,2.7-1.2,3.8-1.8c0.8-0.5,1.8-0.6,2.7-0.3c0.8,0.2,1.6,0.4,2.4,0.4c1,0,2.7-0.4,2.5-1.7c-0.2-1.3-1.7-2.2-2.9-2.5
		c-0.4-0.1-0.7-0.1-1.1-0.2c-0.5,0-0.9,0-1.4-0.1c-0.2,0-0.3,0.1-0.2-0.3c0-0.1,0.1-0.1,0.1-0.2c0.1-0.2,0.3-0.4,0.4-0.6
		c0.3-0.4,0.6-0.7,0.9-1l2-2.1c0.6-0.5,1.1-1.2,1.5-1.8c0.6-1.1,0.6-2.6-0.5-3.4c-0.5-0.4-1.1-0.5-1.6-0.4c-0.7,0.1-1.2,0.7-1.6,1.3
		c-0.5,0.6-0.9,1.3-1.4,2c-0.2,0.4-0.4,0.7-0.6,1.1c-0.2,0.4-0.3,0.8-0.5,1.2c-0.2,0.3-0.4,0.2-0.6,0c-0.3-0.2-0.4-0.7-0.2-1
		c0.2-0.4,0.5-0.7,0.8-1.1c0.5-0.7,1-1.5,1.5-2.3c0.7-1.1,1.8-2.8,0.9-4c-0.8-1-2.3-1.4-3.2-0.5c-0.9,1-1.5,2.4-2,3.7
		c-0.3,0.8-0.6,1.5-1,2.3c-0.1,0.3-0.3,0.6-0.4,0.9c-0.1,0.2-0.1,0.3-0.4,0.3c-0.2,0-0.4-0.1-0.4-0.3c-0.2-0.6,0.3-1.6,0.5-2.1
		c0.4-0.7,0.7-1.5,1-2.3c0.3-1,0.9-3-0.4-3.6c-1.1-0.5-1.9,0.3-2.5,1.2c-0.8,1.4-1.4,3-1.8,4.5c-0.3,0.9-0.6,1.7-1,2.6
		c-0.4,0.8-0.9,1.4-1.3,2.2c-0.8,1.4-1.2,2.9-1,4.5c0.1,0.8,0.2,1.5,0.5,2.2C115,34.6,115.3,34.5,115.2,34.4z"/>
	<path class="st37" d="M121.2,37.7c-0.6-0.1-1.2-0.3-1.6-0.7"/>
	<path class="st38" d="M121.2,37.5c-0.6-0.1-1.1-0.3-1.5-0.6c-0.1-0.1-0.1-0.1-0.2,0s-0.1,0.1,0,0.2l0,0c0.5,0.4,1.1,0.6,1.7,0.7
		c0.1,0,0.1-0.1,0.1-0.2C121.4,37.6,121.3,37.5,121.2,37.5L121.2,37.5z"/>
	<path class="st37" d="M116.5,35.3c-0.6-0.3-1.2-0.7-1.6-1.3"/>
	<path class="st38" d="M116.6,35.2c-0.6-0.3-1.1-0.7-1.6-1.2c-0.1-0.1-0.3,0.1-0.2,0.2c0.5,0.5,1,0.9,1.7,1.3
		C116.6,35.5,116.8,35.3,116.6,35.2L116.6,35.2z"/>
	<path class="st37" d="M126,28.9c-0.5-1.1-1.5-2-2.7-2.4c-1.2-0.4-2.4-0.7-3.6-0.8"/>
	<path class="st38" d="M126.1,28.8c-1.1-2.5-4-3-6.4-3.3c-0.2,0-0.2,0.3,0,0.3c2.3,0.3,5.1,0.8,6.1,3.1
		C126,29.1,126.2,29,126.1,28.8L126.1,28.8z"/>
	<path class="st37" d="M127.2,31.6c-0.4-0.2-0.8-0.3-1.2-0.2c-0.7,0-1.3,0.2-1.9,0.5c-0.6,0.3-1.1,0.8-1.3,1.4"/>
	<path class="st38" d="M127.3,31.5c-0.4-0.2-0.8-0.3-1.2-0.2c-0.5,0-1,0.1-1.6,0.3c-0.8,0.2-1.5,0.9-1.8,1.7c0,0.1,0,0.2,0.1,0.2
		c0.1,0,0.2,0,0.2-0.1c0.3-0.8,0.9-1.3,1.6-1.5c0.4-0.1,0.9-0.2,1.3-0.3c0.4-0.1,0.8-0.1,1.2,0.1C127.3,31.8,127.4,31.6,127.3,31.5z
		"/>
	<path class="st27" d="M212.7,124.5c-4.2-1.3-9.1,1.3-10.2,5.1c-0.9-1.5-1-3.2-0.4-5.2l6.1-3C210,121.9,211.5,123,212.7,124.5z"/>
	<path class="st28" d="M205.4,122.7l2.8-1.4c0.6-0.9,0.8-1.6,0.4-2.4c-0.4-0.9-2-0.9-3.6-0.4l-3.4,1.7c-1.1,0.9-1.8,1.9-1.5,3
		c0.4,0.9,1.2,1.1,2.1,1.2l1.3-0.7"/>
	<path class="st26" d="M215.4,126.9c0.6,0,1.2,0.3,1.5,0.8c0.4,0.8,0,3.6-5.6,6.4c-5.6,2.8-8.2,1.8-8.6,1c-0.2-0.5-0.2-1.1,0.2-1.5"
		/>
	<path class="st23" d="M215,126.3c-3.8-5-13.9-0.8-12.7,6.3c0.2,0.8,0.6,1.2,1.2,1.3c2.8,1.1,11.6-3.4,11.9-5.7
		C215.7,127.5,215.5,126.8,215,126.3z"/>
	<path class="st22" d="M205,121.7L205,121.7c1.2-0.6,1.6-2.2,0.9-3.6c-2.2-7.8-6.3-15.5-11.4-22.9l-4.3,2.1
		c5.3,7.8,9.4,15.4,11.4,22.9C202.3,121.6,203.8,122.3,205,121.7z"/>
	<path class="st27" d="M185.1,132.3c-3.2-3.1-8.7-2.9-11.4,0c-0.2-1.7,0.5-3.3,2-4.8h6.8C183.8,128.8,184.7,130.5,185.1,132.3z"/>
	<path class="st28" d="M179.4,127.5h3.1c1-0.5,1.4-1.1,1.4-2c0-1-1.4-1.7-3-1.9H177c-1.4,0.3-2.4,0.9-2.7,2c0,0.9,0.6,1.5,1.4,2h1.5
		"/>
	<path class="st26" d="M186.5,135.7c0.5,0.2,0.9,0.8,0.9,1.4c0,0.9-1.6,3.3-7.8,3.3s-8.2-2.1-8.2-3c0-0.6,0.3-1.1,0.8-1.3"/>
	<path class="st23" d="M186.4,134.9c-1.2-6.1-12.1-6.9-14.2,0c-0.2,0.8,0,1.3,0.5,1.7c2.1,2.2,11.8,2.2,13.2,0.2
		C186.4,136.4,186.6,135.6,186.4,134.9z"/>
	<path class="st22" d="M179.2,126.5L179.2,126.5c1.3,0,2.4-1.3,2.4-2.9c-2.2-7.3-1.9-16,0-25.6h-4.8c-1.8,9.3-2,17.9,0,25.6
		C176.8,125.2,177.9,126.5,179.2,126.5z"/>
	<path class="st22" d="M201.8,58.6c0.1,0.1,0.2,0.2,0.3,0.4C202.4,59.2,201.7,58.3,201.8,58.6c0.1,0.1,0.2,0.2,0.2,0.3
		c0.2,0.3,0.4,0.6,0.6,1c0.4,0.8,0.8,1.6,1.2,2.4l-0.3-0.7c0.9,2.1,1.5,4.2,1.9,6.4l-0.1-0.8c0.1,0.7,0.1,1.4,0.1,2l0.1-0.8
		c-0.1,0.7-0.3,1.4-0.6,2l0.3-0.7c-0.2,0.5-0.5,0.9-0.8,1.3c-0.1,0.2-0.4,0.5,0.2-0.2c-0.1,0.1-0.1,0.2-0.2,0.3
		c-0.2,0.2-0.3,0.3-0.5,0.5c-0.2,0.2-0.3,0.3-0.5,0.5l-0.3,0.2c-0.5,0.4,0.4-0.3,0.2-0.1c-0.4,0.3-0.8,0.6-1.2,0.8
		c-1.9,1.2-3.8,2.4-5.5,3.9c-1.1,1.1-1.1,2.9,0,4c1.1,1.1,2.9,1.1,4,0c0.4-0.4,0.8-0.7,1.2-1c-0.8,0.7-0.1,0.1,0.1-0.1
		s0.5-0.3,0.7-0.5c0.8-0.5,1.6-1,2.4-1.6c1.9-1.2,3.7-2.7,4.7-4.7c0.6-1.2,1-2.6,1.2-4c0-1,0-1.9-0.2-2.8c-0.3-1.9-0.9-3.8-1.6-5.6
		c-0.9-2.1-1.8-4.4-3.4-6.1c-1.1-1.1-2.9-1.1-4,0C200.8,55.7,200.8,57.4,201.8,58.6L201.8,58.6z"/>
	<path class="st23" d="M199.9,55.9l0.3,1.3c0.1,0.4,0.4,0.8,0.8,1c0.6,0.3,1.7,0.5,3.6-0.3c1.8-0.8,2.5-1.5,2.8-2.1
		c0.2-0.4,0.1-1-0.2-1.3l-0.9-1.1L199.9,55.9z"/>
	<path class="st23" d="M203.2,55.8c-0.4,0.5-1.3,0.9-2.2,1.2c-0.4,0.1-0.9,0.1-1.4,0c-0.7-0.2-1.4-0.6-2-1.1
		c-0.3-0.4-0.8-0.6-1.2-0.8c-0.6-0.2-1.2-0.3-1.8,0l-0.2,0.1c-1.3,0.4-2.6,0.5-3.9,0.4c-1.2-0.1-1.9-1.4-1.4-2.6
		c0.2-0.4,0.5-0.8,0.9-1c1.5-0.8,3-0.9,5-0.7c-0.1-0.4-0.2-0.9-0.3-1.3c-0.2-0.6-0.5-1.1-0.9-1.5c-1.4-1.5-2.5-3.2-3.4-5.1
		c-0.8-1.5,0.1-2.9,1.5-3c0.9-0.1,1.7,0.3,2.3,1.1c0.7,1,1.3,2.2,1.7,3.4c0.9-2.1,2-2.5,3.4-1.2c0.3-1.5,1.2-2.5,2.9-2
		c0.6,0.2,1.1,0.5,1.5,0.9c2.5,2.3,5.3,8.2,3.3,11.3c-0.3,0.5-1,0.8-1.7,1.2"/>
	<path class="st39" d="M205.5,47.9c-0.9-0.6-1.5-1.7-1.9-3"/>
	<path class="st39" d="M196,44.4c-0.2,1.9,1.3,5.1,2.7,6c1.1,0.7,2.4-0.3,2.8-1.9"/>
	<path class="st39" d="M199.3,43.4c0,2,0.8,3.8,2.4,5.3c1.3,1.1,2.7-0.2,2.7-1.9"/>
	<path class="st40" d="M179.4,50.2l33.3,46.1c-16.5,8.9-34,12.1-52.3,9.5l14.1-54.7c0.4-1.5,1.9-2.4,3.4-2
		C178.5,49.3,179,49.7,179.4,50.2z"/>
	<path class="st41" d="M179.4,50.2L212,95.3c-16.6,8.7-33,11.8-51.3,9.3l13.8-53.5c0.4-1.5,2-2.4,3.5-1.9
		C178.5,49.3,179,49.7,179.4,50.2z"/>
	<path class="st42" d="M178.8,47.1l31.4,45.7c-16.6,8.7-30.5,11.4-48.9,8.9L173.9,48c0.4-1.5,2-2.4,3.5-1.9
		C177.9,46.3,178.5,46.6,178.8,47.1z"/>
	<path class="st43" d="M181.1,55.5l0.2-1.7c0.1-0.8-0.4-1.7-0.9-1.6h0c-0.5,0.1-0.6,1-0.3,1.8l0.8,1.6
		C181,55.6,181.1,55.6,181.1,55.5z"/>
	<path class="st43" d="M186,71.1l0.8-1.3c0.3-0.7,0.2-1.7-0.3-1.9h0c-0.5-0.2-1,0.5-0.9,1.3l0.2,1.8C185.8,71.2,186,71.3,186,71.1z"
		/>
	<path class="st43" d="M198.9,83.6l0.7-1.6c0.3-0.8,0-1.7-0.4-1.8h0c-0.5,0-0.9,0.8-0.8,1.6l0.4,1.7
		C198.7,83.7,198.9,83.7,198.9,83.6z"/>
	<path class="st43" d="M183.2,74.7l0.2-1.7c0.1-0.8-0.4-1.7-0.9-1.6h0c-0.5,0.1-0.6,1-0.3,1.8l0.8,1.6
		C183,74.8,183.2,74.8,183.2,74.7z"/>
	<path class="st43" d="M185.9,61.6l0.2-1.7c0.1-0.8-0.4-1.7-0.9-1.6h0c-0.5,0.1-0.6,1-0.3,1.8l0.8,1.6
		C185.7,61.8,185.8,61.8,185.9,61.6z"/>
	<path class="st43" d="M167.1,99.4l0.2-1.7c0.1-0.8-0.4-1.7-0.9-1.6h0c-0.5,0.1-0.6,1-0.3,1.8l0.8,1.6
		C167,99.6,167.1,99.5,167.1,99.4z"/>
	<path class="st43" d="M204.6,92.7l0.2-1.7c0.1-0.8-0.4-1.7-0.9-1.6h0c-0.5,0.1-0.6,1-0.3,1.8l0.8,1.6
		C204.5,92.8,204.6,92.8,204.6,92.7z"/>
	<path class="st43" d="M175.4,55.5l0.2-1.7c0.1-0.8-0.4-1.7-0.9-1.6l0,0c-0.5,0.1-0.6,1-0.3,1.8l0.8,1.6
		C175.3,55.7,175.4,55.7,175.4,55.5z"/>
	<path class="st43" d="M171.5,98.3l0.2-1.7c0.1-0.8-0.4-1.7-0.9-1.6l0,0c-0.5,0.1-0.6,1-0.3,1.8l0.8,1.6
		C171.4,98.4,171.5,98.4,171.5,98.3z"/>
	<path class="st43" d="M177.6,50.2l0.2-1.7c0.1-0.8-0.4-1.7-0.9-1.6h0c-0.5,0.1-0.6,1-0.3,1.8l0.8,1.6
		C177.5,50.3,177.6,50.3,177.6,50.2z"/>
	<path class="st43" d="M178.3,61.1l0.2-1.7c0.1-0.8-0.4-1.7-0.9-1.6l0,0c-0.5,0.1-0.6,1-0.3,1.8l0.8,1.6
		C178.2,61.3,178.3,61.2,178.3,61.1z"/>
	<path class="st43" d="M198.1,91.7l0.2-1.7c0.1-0.8-0.4-1.7-0.9-1.6h0c-0.5,0.1-0.6,1-0.3,1.8l0.8,1.6
		C198,91.9,198.1,91.9,198.1,91.7z"/>
	<path class="st43" d="M178.8,72.8l-0.2-1.8c-0.1-0.8-0.8-1.5-1.2-1.2l0,0c-0.4,0.3-0.4,1.3,0.1,1.9l1.1,1.3
		C178.7,73,178.8,72.9,178.8,72.8z"/>
	<path class="st43" d="M173.2,61.7l0.2-1.8c0.1-0.8-0.4-1.7-0.9-1.6l0,0c-0.5,0.1-0.6,1-0.3,1.8l0.8,1.6
		C173.1,61.8,173.2,61.8,173.2,61.7z"/>
	<path class="st43" d="M173.7,72.8l-0.9-1.5c-0.5-0.7-1.4-1-1.7-0.7l0,0c-0.3,0.4,0.1,1.2,0.9,1.6l1.6,0.7
		C173.7,73,173.8,72.9,173.7,72.8z"/>
	<path class="st43" d="M168.4,89.6l-0.2-1.8c-0.1-0.8-0.8-1.5-1.2-1.2l0,0c-0.4,0.3-0.3,1.3,0.1,1.9l1.1,1.2
		C168.3,89.8,168.4,89.8,168.4,89.6z"/>
	<path class="st43" d="M189.5,66.1l0.2-1.7c0.1-0.8-0.4-1.7-0.9-1.6h0c-0.5,0.1-0.6,1-0.3,1.8l0.8,1.6
		C189.4,66.3,189.5,66.3,189.5,66.1z"/>
	<path class="st43" d="M182,66l0.2-1.7c0.1-0.8-0.4-1.7-0.9-1.6h0c-0.5,0.1-0.6,1-0.3,1.8l0.8,1.6C181.9,66.1,182,66.1,182,66z"/>
	<path class="st43" d="M174.5,67.7l0.5-1.7c0.2-0.8-0.2-1.7-0.7-1.7l0,0c-0.5,0-0.8,0.9-0.5,1.7l0.6,1.7
		C174.3,67.9,174.4,67.9,174.5,67.7z"/>
	<path class="st43" d="M190.5,70l1.3-0.2c0.6-0.2,0.9-0.9,0.7-1.5c0,0,0,0,0-0.1v0c-0.3-0.5-1-0.5-1.4,0.2l-0.7,1.4
		C190.3,69.9,190.4,70.1,190.5,70z"/>
	
		<ellipse transform="matrix(0.9594 -0.2822 0.2822 0.9594 -14.6777 56.8817)" class="st44" cx="190.1" cy="79.4" rx="5.9" ry="7.5"/>
	<path class="st45" d="M195.8,74.8c0-1.5-1.3-2.8-3.9-3.9"/>
	<path class="st45" d="M185.8,85c-4.2,0.4-4.6,3.2-0.6,4.8"/>
	<path class="st43" d="M190.3,88.9c-3.6,2.3-7.3,3-11.3,2.1c-2.8-0.8-5.5,2.2-4,5c5,6.4,18.5,3.9,20.1-3.7
		C195.3,89.3,193,87.3,190.3,88.9z"/>
	
		<ellipse transform="matrix(0.9594 -0.2822 0.2822 0.9594 -16.0774 52.6956)" class="st44" cx="174.9" cy="82.2" rx="5.9" ry="7.5"/>
	<path class="st43" d="M177.7,76.1l-2.8,3.4l3.3-0.6c0,0-3.2,2.7-3.7,3.7c-0.2,0.4-0.2,1.3-0.1,2.1c0.2,1.7,1,3.3,2.3,4.5l0.3,0.2
		c2.6-0.9,3.8-3.1,4-5.4C181.3,80.9,180.1,77.6,177.7,76.1z"/>
	<path class="st45" d="M168.3,79.1c-0.5-1.5,0.3-3.1,2.3-5"/>
	<path class="st46" d="M185.2,94.4c0.6-1.8,2.2-1.5,3.3-0.6c1.1,0.9,2.1,3.9,2.1,3.9c-3.1,1.5-6.5,2.2-10,1.8c0,0,0.2-3.3,1.1-4.5
		C182.8,93.9,183.8,93.3,185.2,94.4z"/>
	<path class="st45" d="M184.7,101.7c-2.4,0.6-4.2,0.4-5.4-0.5"/>
	<path class="st43" d="M185.4,74.2l3.8,2.2l-3.3,0.6c0,0,4,1.4,4.8,2.1c0.4,0.4,0.7,1.3,0.9,2.2c0.3,1.5,0.2,3.1-0.3,4.6
		c-0.1,0.3-0.2,0.6-0.4,0.9c-2.9-0.1-4.9-2.3-5.8-4.1C183.7,80,183.7,76.4,185.4,74.2z"/>
</g>
</svg>
