<?xml version="1.0" encoding="utf-8"?>
<!-- Generator: Adobe Illustrator 26.0.0, SVG Export Plug-In . SVG Version: 6.00 Build 0)  -->
<svg version="1.1" id="Capa_1" xmlns="http://www.w3.org/2000/svg" xmlns:xlink="http://www.w3.org/1999/xlink" x="0px" y="0px"
	 viewBox="0 0 296 148" style="enable-background:new 0 0 296 148;" xml:space="preserve">
<style type="text/css">
	.st0{fill:#CBEBFC;}
	.st1{fill:#7A1F69;}
	.st2{opacity:0.6;}
	.st3{stroke:#000000;stroke-width:4;stroke-miterlimit:10;}
	
		.st4{clip-path:url(#SVGID_00000006702580464526696400000014820750384683489435_);stroke:#000000;stroke-width:4;stroke-miterlimit:10;}
	
		.st5{clip-path:url(#SVGID_00000092423845722767830980000017216169277664588477_);stroke:#000000;stroke-width:4;stroke-miterlimit:10;}
	
		.st6{clip-path:url(#SVGID_00000085222276202194348000000013066754629209164187_);stroke:#000000;stroke-width:4;stroke-miterlimit:10;}
	
		.st7{clip-path:url(#SVGID_00000116231808871644072290000009601677279353559479_);stroke:#000000;stroke-width:4;stroke-miterlimit:10;}
	
		.st8{clip-path:url(#SVGID_00000139984504565597868290000005636192652846624398_);stroke:#000000;stroke-width:4;stroke-miterlimit:10;}
	
		.st9{clip-path:url(#SVGID_00000005983290999487956600000000467156314739383938_);stroke:#000000;stroke-width:4;stroke-miterlimit:10;}
	
		.st10{clip-path:url(#SVGID_00000183228625242755033530000000338201736480842656_);stroke:#000000;stroke-width:4;stroke-miterlimit:10;}
	
		.st11{clip-path:url(#SVGID_00000079468260948918910620000009086730790101010621_);stroke:#000000;stroke-width:4;stroke-miterlimit:10;}
	.st12{display:none;}
	.st13{display:inline;}
	.st14{display:none;stroke:#000000;stroke-width:4;stroke-miterlimit:10;}
	.st15{fill:#C0E181;}
	.st16{fill:#105418;}
	.st17{fill:#969696;stroke:#303030;stroke-miterlimit:10;}
	.st18{fill:#C6C6C6;stroke:#7F7F7F;stroke-miterlimit:10;}
	.st19{fill:#969696;stroke:#636363;stroke-miterlimit:10;}
	.st20{fill:#EAEAEA;stroke:#545454;stroke-miterlimit:10;}
	.st21{fill:#197226;}
	.st22{fill:#3B7610;}
	.st23{fill:#96B023;}
	.st24{clip-path:url(#SVGID_00000082340888408664711830000013415827650407562392_);fill:#C2E183;}
	.st25{clip-path:url(#SVGID_00000174593964619438421210000016829508696049196190_);fill:#C2E183;}
	.st26{clip-path:url(#SVGID_00000164491348792439363000000017927963351880446870_);fill:#C2E183;}
	.st27{clip-path:url(#SVGID_00000049927052901291353520000015334837119448800919_);fill:#C2E183;}
	.st28{clip-path:url(#SVGID_00000024686961771739378800000007283866521732953000_);fill:#C2E183;}
	.st29{clip-path:url(#SVGID_00000163033714386430277200000013366875146741644166_);fill:#C2E183;}
	.st30{clip-path:url(#SVGID_00000048500827989500360090000003396678911593751205_);fill:#C2E183;}
	.st31{clip-path:url(#SVGID_00000041293288681170732330000016838157163177494961_);fill:#C2E183;}
	.st32{fill:#1C231D;}
	.st33{fill:#DB2A44;}
	.st34{fill:#EA607B;}
	.st35{fill:#EAEAEA;}
	.st36{fill:#545454;}
	.st37{display:none;fill:#C0E181;}
	.st38{fill:#8C312C;}
	.st39{fill:#F67C01;}
	.st40{fill:#F0AA0E;}
	.st41{fill:none;stroke:#FBE87F;stroke-miterlimit:10;}
	.st42{fill:#CB4039;}
	.st43{fill:#FBE87F;}
	.st44{font-family:'Bauhaus93';}
	.st45{font-size:1.4167px;}
	.st46{fill:#98D3FA;}
	.st47{fill:#FBD897;}
	.st48{fill:#FF9999;}
</style>
<rect x="-2.1" y="-4.9" class="st0" width="298.1" height="159.2"/>
<g id="mancha">
	<path class="st1" d="M151.5,1.9c8.8-3.5,10.7-7.5,16.7-6.7c6.1,0.9,11.6,6.3,14.3,12.1c2.5,5.4-0.6,7.9,1.8,12.1
		c3,5.1,9.8,6.4,14.6,7.3c12.2,2.3,15.1-2.4,22.2,0.6c8.3,3.5,13.9,14,11.5,19.5c-1.9,4.2-7.6,3.4-8.7,7.6
		c-1.2,4.4,4.8,6.8,5.4,13.4c0.6,6.2-3.7,14.4-10.9,16.1c-5.1,1.2-7.2-4.2-12.4-3.3c-5.6,0.9-11.1,7.9-10,12.8
		c1.5,6.4,13.3,4.8,19.5,13.9c0.7,1.1,6,8.6,3,14.6c-2.7,5.3-11,7.4-16.7,5.5c-4.2-1.3-4.5-4-8.5-4.6c-4.3-0.6-9.8,1.7-11.3,5.4
		c-2.1,5.3,5.3,9.9,3.4,14c-2.3,4.9-16.6,6.2-21.9,0c-5.1-6.1,0.6-17.1-3.1-18.8c-1.9-0.9-4.2,1.6-10.3,5.8
		c-9.9,6.8-15.3,10.4-20,9.4c-8.3-1.9-13.6-17.9-9.5-22.5c2.6-2.8,7.4,0.2,11.6-3.3c3.3-2.8,5.1-8.9,3-12.5
		c-4.2-7.4-21.3-0.5-25.2-7.2c-3.7-6.3,9.5-15.9,6.1-24C112.1,60.2,94,65.4,89.2,56c-3.8-7.5,2.3-21.1,11.3-25.2
		c8.1-3.7,15.1,2,19.1-2.1c4.9-5-3.5-14.9,1.2-21.3C125.4,1.1,135.4,8.3,151.5,1.9z"/>
</g>
<g id="Capa_1_00000059308545540584453430000010679611954980757121_" class="st2">
	<g>
		<g>
			<path class="st3" d="M197.8,60.2c0.3-0.3,0.7-0.6,1-0.8c-0.3,0.2-0.5,0.4-0.8,0.6c1.2-1,2.6-1.8,3.9-2.6c1.4-0.9,2.8-1.7,4.2-2.5
				c1.6-1,3.2-2.1,4.6-3.3c0.6-0.5,1.1-1,1.7-1.5c0.4-0.4,0.7-0.8,1-1.3c0.1-0.2,0.3-0.4,0.4-0.6c0.4-0.7,0.7-1.4,1-2.2
				c0.2-0.5,0.4-1,0.5-1.5c0.4-1.4,0.6-2.9,0.7-4.3c0.1-1.1,0.2-2.3,0.2-3.4c0-1,0-2.1,0-3.1c0-0.8-0.1-1.6-0.1-2.4
				c0-0.4-0.1-0.8-0.1-1.2c0,0,0,0,0-0.1c0-0.5-0.1-1-0.3-1.5c-0.2-0.5-0.4-0.9-0.8-1.2c-0.3-0.4-0.7-0.6-1.2-0.8
				c-0.5-0.2-0.9-0.3-1.5-0.3c-0.3,0-0.7,0.1-1,0.1c-0.6,0.2-1.2,0.5-1.7,1c-0.2,0.3-0.4,0.5-0.6,0.8c-0.3,0.6-0.5,1.2-0.5,1.9
				c0.1,0.8,0.1,1.5,0.2,2.3c0.1,1.7,0.1,3.5,0.1,5.2c0,1.1-0.1,2.2-0.3,3.4c0-0.3,0.1-0.7,0.1-1c-0.2,1.2-0.4,2.3-0.7,3.4
				c-0.1,0.3-0.2,0.6-0.3,0.9c0.1-0.3,0.3-0.6,0.4-0.9c-0.2,0.6-0.6,1.2-0.9,1.7c0.2-0.3,0.4-0.5,0.6-0.8c-0.3,0.4-0.7,0.8-1.1,1.2
				c-0.5,0.5-1,0.9-1.6,1.3c0.3-0.2,0.5-0.4,0.8-0.6c-1.5,1.2-3.2,2.2-4.9,3.2c-1.7,1-3.4,2-5,3.1c-1.1,0.8-2.2,1.6-3.2,2.4
				c-0.4,0.3-0.6,0.7-0.8,1.2c-0.2,0.5-0.3,0.9-0.3,1.5c0,0.5,0.1,1,0.3,1.5c0.2,0.5,0.4,0.9,0.8,1.2c0.3,0.2,0.5,0.4,0.8,0.6
				c0.6,0.3,1.2,0.5,1.9,0.5c0.3,0,0.7-0.1,1-0.1C196.7,61,197.3,60.6,197.8,60.2L197.8,60.2z"/>
		</g>
	</g>
	<g>
		<path class="st3" d="M178.3,98.9c-3.5,0.2-8-0.6-8-0.6c-0.2,0-0.6-9.3-0.6-9.3c0-0.3,0.2-0.5,0.5-0.5c0,0,4.1,0.8,7.7,0.5
			c3.6-0.3,7.5-1.7,7.5-1.7c0.3-0.1,0.5,0.1,0.5,0.4l0.4,8.9C186.3,96.9,181.8,98.7,178.3,98.9z"/>
	</g>
	<g>
		<path class="st3" d="M174.7,137.4c-1.3,0.7-2.1,1.8-1.7,3.6c0.9,2.3,3.3,3.4,6.8,3.3l5.1-0.5c0.4,0,0.8,0,1.2,0l6.5,0.2
			c3.6,0.1,6.9-0.1,9.9-0.9c2.7-1,4.2-2.6,3.1-5.4c-1.3-1.4-3.9-1.9-6.5-2.4L174.7,137.4z"/>
		<path class="st3" d="M188.2,133.2c1.2-2.2,3.4-3.9,6.9-4.5c0.1,0,0.3,0,0.5,0c4.3-0.3,7.8,0.8,9.3,3.7c0.8,1.7,0.9,3.6,0,5.2
			c-1.1,2.1-3.5,3.2-6.9,3.7c-0.3,0-0.7,0.1-1,0c-5.4-0.2-8.4-0.4-10.9-0.4c-1.2,0-2.4,0.1-3.6,0.3c-1.2,0.2-2.3,0.2-3.4,0.1
			c-2-0.2-3.7-1.4-4.6-3.2c-0.5-1-0.8-2.4-0.8-4.2c0-5.7,2.9-7.5,3.6-7.5c0.7,0.3,1.5,0.5,2.5,0.7c0,0,1.5-1.1,2.2-1.1
			c0.6,0,2,1.2,2,1.2c1.5-0.1,2.8-0.3,3.8-0.6c0.5,0.2,2.4,2.4,3.1,3.6"/>
		<path class="st3" d="M179.8,127.4c-3-0.5-5.1-1.9-5.1-3.6c0-2.1,3.4-3.8,7.7-3.8s7.7,1.7,7.7,3.8c0,1.9-2.7,3.4-6.3,3.7"/>
	</g>
	<g>
		<path class="st3" d="M167.9,132.9c-4.6-5.1-12.6-4.8-16.4,0c-0.3-2.9,0.8-5.5,2.8-8l9.8,0C166.3,127.3,167.3,130,167.9,132.9z"/>
		<path class="st3" d="M159.6,124.9l4.5,0c1.4-0.9,2-1.8,2-3.4c0-1.6-2.1-2.8-4.4-3.2l-5.5,0c-2,0.5-3.5,1.5-3.9,3.3
			c-0.1,1.6,0.8,2.5,2,3.3l2.2,0"/>
		<path class="st3" d="M169.9,138.6c0,0,1.4,0.7,1.4,2.3c0,1.6-2.3,5.4-11.3,5.5c-9,0-11.8-3.4-11.8-4.9c0-1.5,1.2-2.2,1.2-2.2"/>
		<path class="st3" d="M169.8,137.3c-1.7-10.2-17.5-11.5-20.5,0.1c-0.2,1.2,0,2.2,0.7,2.8c3,3.7,17.1,3.6,19,0.3
			C169.9,139.5,170,138.4,169.8,137.3z"/>
	</g>
	<g>
		<g>
			<path class="st3" d="M174.9,87.8c0.5,2.1,1.1,4.3,1.5,6.5c0.5,2.2,0.9,4.3,1.3,6.5c0.2,1.2,0.4,2.5,0.6,3.7
				c0-0.3-0.1-0.6-0.1-0.9c0.3,2.3,0.5,4.5,0.6,6.8c0.1,2.3,0.1,4.6,0,6.9c-0.1,1.3-0.2,2.6-0.4,3.9c0,0.5,0.1,0.9,0.3,1.3
				c0.1,0.4,0.4,0.8,0.7,1.1c0.3,0.3,0.7,0.6,1.1,0.7c0.4,0.2,0.8,0.3,1.3,0.3c0.3,0,0.6-0.1,0.9-0.1c0.6-0.2,1.1-0.5,1.5-0.9
				c0.2-0.2,0.4-0.5,0.5-0.7c0.3-0.5,0.5-1.1,0.5-1.7c0.3-2.3,0.4-4.5,0.4-6.8c0-2.3-0.1-4.5-0.3-6.8c-0.2-2.5-0.6-5-1-7.5
				c-0.4-2.2-0.8-4.4-1.3-6.7c-0.5-2.2-1-4.4-1.5-6.5c-0.1-0.3-0.1-0.5-0.2-0.8c-0.1-0.4-0.3-0.8-0.6-1.2c-0.2-0.4-0.6-0.7-1-0.9
				c-0.4-0.3-0.8-0.4-1.3-0.4c-0.5-0.1-0.9-0.1-1.4,0.1c-0.3,0.1-0.5,0.2-0.8,0.3c-0.5,0.3-0.9,0.7-1.2,1.2
				c-0.1,0.3-0.2,0.5-0.3,0.8C174.8,86.5,174.8,87.1,174.9,87.8L174.9,87.8z"/>
		</g>
	</g>
	<g>
		<path class="st3" d="M178.1,96c-1.6,0.1-4.6-0.5-6,0.2c-1.7,0.8-1.8,2.1-1.8,2.1c-0.2,0-0.6-9.4-0.6-9.4c0-0.2,0.2-0.4,0.5-0.4
			c0,0,4.1,0.5,7.7,0.3c3.6-0.2,7.6-1.4,7.6-1.4c0.3,0,0.5,0.1,0.5,0.3l0.4,9c0,0.1-0.1-1.3-2.4-1.8C182.5,94.6,179.3,95.9,178.1,96
			z"/>
	</g>
	<g>
		<path class="st3" d="M160.5,98.7c-3.5-0.1-8-1.2-8-1.2c-0.2,0,0-8.5,0-8.5c0-0.3,0.2-0.5,0.5-0.4c0,0,4,1.1,7.6,1.2
			c3.6,0.1,7.6-0.9,7.6-0.9c0.3,0,0.5,0.2,0.5,0.4l-0.2,8.1C168.6,97.6,164,98.8,160.5,98.7z"/>
	</g>
	<g>
		<g>
			<path class="st3" d="M156.8,85.9c0,0.5,0,1,0.1,1.4c0.1,1.2,0.1,2.4,0.2,3.6c0.1,1.6,0.1,3.1,0.2,4.7c0.1,1.6,0.1,3.1,0.2,4.7
				c0.1,1.2,0.1,2.4,0.2,3.6c0,0.4,0,0.7,0.1,1.1c0,0.1,0,0.3,0,0.4c0,0.2,0,0.3-0.1,0.5c-0.1,0.5-0.1,0.9-0.2,1.4
				c-0.2,1.4-0.4,2.9-0.6,4.3c-0.2,1.5-0.4,3.1-0.6,4.6c-0.1,0.9-0.2,1.8-0.4,2.7c0,0,0,0.1,0,0.1c0,0.5,0.1,0.9,0.3,1.3
				c0.1,0.4,0.4,0.8,0.7,1.1c0.3,0.3,0.7,0.6,1.1,0.7c0.4,0.2,0.8,0.3,1.3,0.3c0.3,0,0.6-0.1,0.9-0.1c0.6-0.2,1.1-0.5,1.5-0.9
				c0.2-0.2,0.4-0.5,0.5-0.7c0.3-0.5,0.5-1.1,0.5-1.7c0.1-0.6,0.2-1.3,0.2-1.9c0.2-1.5,0.4-2.9,0.6-4.4c0.2-1.5,0.4-3.1,0.6-4.6
				c0.1-0.9,0.2-1.8,0.3-2.7c0-0.3,0-0.7,0-1c-0.1-1.1-0.1-2.1-0.2-3.2c-0.1-1.5-0.1-3-0.2-4.5c-0.1-1.6-0.2-3.2-0.2-4.8
				c-0.1-1.3-0.1-2.7-0.2-4c0-0.7-0.1-1.4-0.1-2.1c0,0,0-0.1,0-0.1c0-0.5-0.1-0.9-0.3-1.3c-0.1-0.4-0.4-0.8-0.7-1.1
				c-0.3-0.3-0.7-0.6-1.1-0.7c-0.4-0.2-0.8-0.3-1.3-0.3c-0.3,0-0.6,0.1-0.9,0.1c-0.6,0.2-1.1,0.5-1.5,0.9c-0.2,0.2-0.4,0.5-0.5,0.7
				C156.9,84.7,156.8,85.3,156.8,85.9L156.8,85.9z"/>
		</g>
	</g>
	<g>
		<path class="st3" d="M160.5,96c-1.6,0-4.5-0.9-6-0.4c-1.8,0.6-1.9,1.8-1.9,1.8c-0.2,0,0-8.5,0-8.5c0-0.2,0.2-0.3,0.5-0.3
			c0,0,4,0.8,7.6,0.9c3.6,0.1,7.6-0.6,7.6-0.6c0.3,0,0.5,0.1,0.5,0.3l-0.1,8.2c0,0.1-0.1-1.2-2.3-1.9C165,95.1,161.8,96.1,160.5,96z
			"/>
	</g>
	<ellipse class="st3" cx="166.6" cy="57.5" rx="35.7" ry="34.8"/>
	<ellipse class="st3" cx="170.4" cy="57.8" rx="30.9" ry="34.1"/>
	<g>
		<g>
			<g>
				<defs>
					<ellipse id="SVGID_1_" cx="171.4" cy="57.8" rx="29.7" ry="32.9"/>
				</defs>
				<use xlink:href="#SVGID_1_"  style="overflow:visible;"/>
				<clipPath id="SVGID_00000083075874310217518950000006527690659244986762_">
					<use xlink:href="#SVGID_1_"  style="overflow:visible;"/>
				</clipPath>
				
					<path style="clip-path:url(#SVGID_00000083075874310217518950000006527690659244986762_);stroke:#000000;stroke-width:4;stroke-miterlimit:10;" d="
					M171,26.3c-2.9-5.9-21.6,3.8-18.8,9.7L168.5,51c1.1,1.1,4.6-0.8,4.4-2.3L171,26.3z"/>
				<use xlink:href="#SVGID_1_"  style="overflow:visible;fill:none;stroke:#000000;stroke-width:4;stroke-miterlimit:10;"/>
			</g>
			<g>
				<defs>
					<ellipse id="SVGID_00000040547688714232817530000009860868451258950785_" cx="171.4" cy="57.8" rx="29.7" ry="32.9"/>
				</defs>
				<use xlink:href="#SVGID_00000040547688714232817530000009860868451258950785_"  style="overflow:visible;"/>
				<clipPath id="SVGID_00000016049111349692979140000012429068541617268866_">
					<use xlink:href="#SVGID_00000040547688714232817530000009860868451258950785_"  style="overflow:visible;"/>
				</clipPath>
				
					<path style="clip-path:url(#SVGID_00000016049111349692979140000012429068541617268866_);stroke:#000000;stroke-width:4;stroke-miterlimit:10;" d="
					M193,32.8c1.8-6.3-18.2-12.6-20.1-6.3l1.7,22.4c0,1.5,3.9,2.7,4.7,1.5L193,32.8z"/>
				
					<use xlink:href="#SVGID_00000040547688714232817530000009860868451258950785_"  style="overflow:visible;fill:none;stroke:#000000;stroke-width:4;stroke-miterlimit:10;"/>
			</g>
			<g>
				<defs>
					<ellipse id="SVGID_00000174601549410824609020000002911960495751608754_" cx="171.4" cy="57.8" rx="29.7" ry="32.9"/>
				</defs>
				<use xlink:href="#SVGID_00000174601549410824609020000002911960495751608754_"  style="overflow:visible;"/>
				<clipPath id="SVGID_00000147219149103873225560000018096154633200057474_">
					<use xlink:href="#SVGID_00000174601549410824609020000002911960495751608754_"  style="overflow:visible;"/>
				</clipPath>
				
					<path style="clip-path:url(#SVGID_00000147219149103873225560000018096154633200057474_);stroke:#000000;stroke-width:4;stroke-miterlimit:10;" d="
					M204.6,53.4c5.6-3.2-4.5-22.1-10.1-18.9l-14.1,17.2c-1,1.1,0.9,4.7,2.4,4.4L204.6,53.4z"/>
				
					<use xlink:href="#SVGID_00000174601549410824609020000002911960495751608754_"  style="overflow:visible;fill:none;stroke:#000000;stroke-width:4;stroke-miterlimit:10;"/>
			</g>
			<g>
				<defs>
					<ellipse id="SVGID_00000023967143948859081610000014882387446263058339_" cx="171.4" cy="57.8" rx="29.7" ry="32.9"/>
				</defs>
				<use xlink:href="#SVGID_00000023967143948859081610000014882387446263058339_"  style="overflow:visible;"/>
				<clipPath id="SVGID_00000152960553981482063170000016533135709264501679_">
					<use xlink:href="#SVGID_00000023967143948859081610000014882387446263058339_"  style="overflow:visible;"/>
				</clipPath>
				
					<path style="clip-path:url(#SVGID_00000152960553981482063170000016533135709264501679_);stroke:#000000;stroke-width:4;stroke-miterlimit:10;" d="
					M198.9,76.2c6.2,1.6,11.5-19.2,5.4-20.8l-21.8,2.6c-1.5,0.1-2.5,4.1-1.3,4.9L198.9,76.2z"/>
				
					<use xlink:href="#SVGID_00000023967143948859081610000014882387446263058339_"  style="overflow:visible;fill:none;stroke:#000000;stroke-width:4;stroke-miterlimit:10;"/>
			</g>
			<g>
				<defs>
					<ellipse id="SVGID_00000151540439195798584270000011125579670770361276_" cx="171.4" cy="57.8" rx="29.7" ry="32.9"/>
				</defs>
				<use xlink:href="#SVGID_00000151540439195798584270000011125579670770361276_"  style="overflow:visible;"/>
				<clipPath id="SVGID_00000081627731486898928590000003339366837207228816_">
					<use xlink:href="#SVGID_00000151540439195798584270000011125579670770361276_"  style="overflow:visible;"/>
				</clipPath>
				
					<path style="clip-path:url(#SVGID_00000081627731486898928590000003339366837207228816_);stroke:#000000;stroke-width:4;stroke-miterlimit:10;" d="
					M179.1,88.3c3.4,5.6,21.3-5.6,17.9-11.2l-17.4-13.7c-1.1-1-4.6,1.2-4.2,2.6L179.1,88.3z"/>
				
					<use xlink:href="#SVGID_00000151540439195798584270000011125579670770361276_"  style="overflow:visible;fill:none;stroke:#000000;stroke-width:4;stroke-miterlimit:10;"/>
			</g>
			<g>
				<defs>
					<ellipse id="SVGID_00000088108220534666259120000012458082764927960497_" cx="171.4" cy="57.8" rx="29.7" ry="32.9"/>
				</defs>
				<use xlink:href="#SVGID_00000088108220534666259120000012458082764927960497_"  style="overflow:visible;"/>
				<clipPath id="SVGID_00000022540216628419571410000009864795399316616087_">
					<use xlink:href="#SVGID_00000088108220534666259120000012458082764927960497_"  style="overflow:visible;"/>
				</clipPath>
				
					<path style="clip-path:url(#SVGID_00000022540216628419571410000009864795399316616087_);stroke:#000000;stroke-width:4;stroke-miterlimit:10;" d="
					M151,37c-6.1-2.1-12.9,18.2-6.9,20.4l21.9-0.8c1.5,0,2.8-3.9,1.6-4.8L151,37z"/>
				
					<use xlink:href="#SVGID_00000088108220534666259120000012458082764927960497_"  style="overflow:visible;fill:none;stroke:#000000;stroke-width:4;stroke-miterlimit:10;"/>
			</g>
			<g>
				<defs>
					<ellipse id="SVGID_00000043455012368491062260000015504252644148700587_" cx="171.4" cy="57.8" rx="29.7" ry="32.9"/>
				</defs>
				<use xlink:href="#SVGID_00000043455012368491062260000015504252644148700587_"  style="overflow:visible;"/>
				<clipPath id="SVGID_00000155148051721830452910000004365996094718450356_">
					<use xlink:href="#SVGID_00000043455012368491062260000015504252644148700587_"  style="overflow:visible;"/>
				</clipPath>
				
					<path style="clip-path:url(#SVGID_00000155148051721830452910000004365996094718450356_);stroke:#000000;stroke-width:4;stroke-miterlimit:10;" d="
					M144.1,59.5c-5.8,2.7,2.7,22.4,8.5,19.7l15.4-16c1.1-1-0.5-4.8-2-4.6L144.1,59.5z"/>
				
					<use xlink:href="#SVGID_00000043455012368491062260000015504252644148700587_"  style="overflow:visible;fill:none;stroke:#000000;stroke-width:4;stroke-miterlimit:10;"/>
			</g>
			<g>
				<defs>
					<ellipse id="SVGID_00000160171974351353519680000008006116209778036882_" cx="171.4" cy="57.8" rx="29.7" ry="32.9"/>
				</defs>
				<use xlink:href="#SVGID_00000160171974351353519680000008006116209778036882_"  style="overflow:visible;"/>
				<clipPath id="SVGID_00000029021573245826006440000011511300402748724150_">
					<use xlink:href="#SVGID_00000160171974351353519680000008006116209778036882_"  style="overflow:visible;"/>
				</clipPath>
				
					<path style="clip-path:url(#SVGID_00000029021573245826006440000011511300402748724150_);stroke:#000000;stroke-width:4;stroke-miterlimit:10;" d="
					M154.5,80.2c-2.3,6.1,17.1,14.1,19.5,8l0.2-22.5c0.1-1.5-3.6-3.1-4.6-1.9L154.5,80.2z"/>
				
					<use xlink:href="#SVGID_00000160171974351353519680000008006116209778036882_"  style="overflow:visible;fill:none;stroke:#000000;stroke-width:4;stroke-miterlimit:10;"/>
			</g>
		</g>
	</g>
	<path class="st3" d="M170.5,44.7c0,6.3-2.4,11.4-5.4,11.4c-2.6,0-4.8-4.7-5.3-9.8c6.5-2.7,5.8-1.3,0.1-4.8c0.6-4.8,2.7-8.2,5.2-8.2
		C168.1,33.2,170.5,38.4,170.5,44.7z"/>
	<path class="st3" d="M188.3,45c0,6.3-2.4,11.4-5.4,11.4c-2.6,0-4.8-4.7-5.3-9.8c6.5-2.7,5.8-1.3,0.1-4.8c0.6-4.8,2.7-8.2,5.2-8.2
		C185.9,33.6,188.3,38.7,188.3,45z"/>
	<path class="st3" d="M194,68.2c0,2.2-1,4.3-2.7,6c-3.7,4-11,6.6-19.4,6.6c-12.2,0-22.1-5.7-22.1-12.7c0-3.3,1.9-7.2,5.9-8.7
		c3.6-1.3,11.4,5.1,16.4,7.3C183.4,71.6,194,61.1,194,68.2z"/>
	<path class="st3" d="M150.6,64.5c-1.4,3.8-0.4,6.7,0.7,8.3c2.2,3.8,8.2,5.8,9.1,6.2c7.7,2.7,13.7,1.7,13.7,1.7
		c4.2-1,3.2-6.6-0.1-8.1c-1.8-0.4-5.2-1.6-8.6-0.1c-0.6-3-6.3-7.8-6.3-7.8S152.6,59.9,150.6,64.5z"/>
	<g>
		<g>
			<path class="st3" d="M164.8,71c0.2,1.1,0.3,2.2,0.4,3.4c0,0.1,0.2,0.2,0.2,0c0.3-1.2,0.3-2.5,0-3.7c-0.1,0-0.2,0-0.2,0.1
				c0.2,0.8,0.3,1.6,0.2,2.5c0,0.1,0.2,0.2,0.2,0c0.1-0.5,0.1-1,0-1.5c0-0.1-0.2-0.1-0.2,0c-0.1,0.5-0.1,1-0.2,1.5
				c0.1,0,0.2,0,0.2,0c0-0.6,0-1.2,0-1.8c0-0.2-0.2-0.2-0.2,0c0,0.5,0,0.9-0.1,1.4c0,0.1,0.1,0.1,0.2,0.1c0.3-0.2,0.3-0.6,0.3-0.9
				c0-0.5,0-0.9,0-1.4c0-0.2-0.2-0.2-0.2,0c0,0.4,0,0.8,0,1.2c0,0.2,0,0.4,0,0.5c0,0.1,0,0.3-0.1,0.3c0.1,0,0.1,0.1,0.2,0.1
				c0-0.5,0-0.9,0.1-1.4c-0.1,0-0.2,0-0.2,0c0,0.6,0,1.2,0,1.8c0,0.2,0.2,0.1,0.2,0c0.1-0.5,0.1-1,0.2-1.5c-0.1,0-0.2,0-0.2,0
				c0.1,0.5,0.1,0.9,0,1.4c0.1,0,0.2,0,0.2,0c0.1-0.8,0-1.7-0.2-2.5c0-0.1-0.3-0.1-0.2,0.1c0.3,1.2,0.3,2.4,0,3.5c0.1,0,0.2,0,0.2,0
				c-0.1-1.2-0.2-2.3-0.4-3.4C165,70.7,164.8,70.8,164.8,71L164.8,71z"/>
		</g>
	</g>
	<g>
		<g>
			<path class="st3" d="M166.3,67.4c0.3,0.5,0.6,1.1,0.9,1.6c0.1,0.1,0.3,0,0.2-0.1c-0.3-0.5-0.6-1.1-0.9-1.6
				C166.5,67.1,166.3,67.3,166.3,67.4L166.3,67.4z"/>
		</g>
	</g>
	<g>
		<g>
			<path class="st3" d="M162.4,64.5c0.3,0.7,0.6,1.4,0.9,2c0.2,0.6,0.5,1.2,0.8,1.7c0.2,0.3,0.4,0.6,0.7,0.8
				c0.1,0.1,0.3-0.1,0.2-0.2c-0.4-0.4-0.8-1-1-1.6c-0.3-0.6-0.5-1.2-0.8-1.8c-0.2-0.4-0.3-0.8-0.5-1.2c0-0.1-0.1-0.1-0.2,0
				C162.4,64.3,162.4,64.4,162.4,64.5L162.4,64.5z"/>
		</g>
	</g>
	<ellipse class="st3" cx="177.8" cy="54.6" rx="7.4" ry="4.7"/>
	<path class="st3" d="M168.9,24.5l-18.1,7c-0.6,0.2-1.2,0-1.4-0.6l-0.1-0.3c-0.2-0.5,0-1.2,0.5-1.5l17.2-9.3c0.6-0.3,1.3,0,1.6,0.6
		l1,2.6C169.7,23.7,169.4,24.3,168.9,24.5z"/>
	<path class="st3" d="M175.2,24.8l18.1,7c0.6,0.2,1.2,0,1.4-0.6l0.1-0.3c0.2-0.5,0-1.2-0.5-1.5l-17.2-9.3c-0.6-0.3-1.3,0-1.6,0.6
		l-1,2.6C174.3,24,174.6,24.6,175.2,24.8z"/>
	<ellipse transform="matrix(0.3708 -0.9287 0.9287 0.3708 65.6797 201.1098)" class="st3" cx="181.3" cy="52.1" rx="1" ry="2.8"/>
	<g>
		<g>
			<g>
				<g>
					<path class="st3" d="M216.9,28.2c2-1.8,3.2-4.4,3.3-7.1c0-1.7-0.3-3.3-0.3-5c0-1.2,0.3-2.4,0.4-3.6c0.2-2.1,0.6-4.5,0.3-6.6
						c-0.2-1.7-1.2-2.1-2-2.1c-0.6,0-1.2,0.5-1.5,0.9c-0.3,0.5-0.6,1.2-0.7,1.7c-0.3,1.4-0.4,2.8-0.4,4.3c0,1,0,1.3-0.2,2.1
						c-0.2,0.7-0.3,1.1-0.7,1.4c-0.1,0.1-0.5,0.1-1-0.1c-0.3-0.1-0.1-0.5-0.1-0.8c0.1-2.9,0.4-6.5,0.2-8.7c-0.1-0.6-0.3-1.7-0.8-2.1
						c-0.5-0.5-1-0.6-1.7-0.7c-0.6-0.1-1.4,0.2-2,0.6c-0.4,0.3-0.6,0.7-0.8,1.1c-0.4,1.1-0.3,2.3-0.2,3.5c0.2,1.6,0.3,3.3,0.7,4.9
						c0.2,0.7,0.3,1.5-0.2,1.9c-0.3,0.2-0.7,0.3-1,0.3c-0.1,0-0.3,0-0.4-0.1c-0.2-0.1-0.2-0.4-0.2-0.6c0.1-2.4-0.2-4.8-0.7-7.1
						c-0.1-0.3-0.2-0.7-0.3-1c-0.6-1-1.9-1.5-3-1.1s-1.8,1.5-2,2.7c-0.1,1.1,0.2,2.2,0.5,3.3c0.5,1.7,1,3.3,1.5,5
						c0.3,0.8,0.5,1.7,0.5,2.5c0,0.1,0,0.2-0.1,0.3c-0.1,0.1-0.3,0-0.4,0c-1.3-0.5-2.5-1.1-3.9-1.3c-1.3-0.2-2.8,0-3.8,1
						c-0.2,0.2-0.4,0.4-0.5,0.7c-0.3,0.9,0.4,1.8,1.1,2.4c0.8,0.6,1.8,1.1,2.8,1.3c0.6,0.1,1.3,0.2,1.9,0.4c1,0.3,1.9,1,2.5,1.9
						c0.5,0.8,0.8,1.7,1.3,2.5c0.5,0.8,1.1,1.8,2.1,1.8c-0.4,1.2,0,2.7,1.2,3.2c0.6,0.2,1.5,0.2,2.2,0.2c1.3-0.1,2.5,0,3.9,0
						c1.6,0.1,2.5-2,2.1-3.2L216.9,28.2z"/>
					<g>
						<path class="st3" d="M217,28.3c1.4-1.3,2.5-3,3-4.9c0.3-1,0.4-2,0.3-3c0-1.2-0.2-2.4-0.3-3.5c-0.1-1.2,0.1-2.4,0.3-3.6
							c0.1-1.1,0.3-2.2,0.4-3.3c0.1-1.1,0.2-2.2,0.1-3.4c-0.1-0.8-0.1-1.8-0.8-2.4c-0.4-0.4-1-0.6-1.5-0.6c-0.5,0-0.9,0.3-1.2,0.6
							c-0.3,0.3-0.6,0.7-0.7,1.2c-0.2,0.5-0.3,1-0.4,1.5C216.1,7.4,216,8,216,8.5c0,0.6-0.1,1.2,0,1.7c0,0.5,0.1,1,0,1.5
							c0,0.4-0.1,0.9-0.3,1.3c-0.1,0.2-0.1,0.4-0.2,0.6c-0.1,0.1-0.2,0.3-0.3,0.4c-0.1,0.1-0.4,0-0.5,0c-0.1,0-0.3,0-0.4-0.1
							c-0.1,0-0.1-0.1-0.1-0.2c0-0.2,0-0.4,0.1-0.6c0-0.2,0-0.5,0-0.7c0.1-2,0.2-4.1,0.2-6.1c0-0.4,0-0.9,0-1.3
							c0-0.4-0.1-0.8-0.2-1.2c-0.1-0.4-0.2-0.8-0.4-1.2c-0.2-0.4-0.6-0.6-0.9-0.8c-0.4-0.2-0.9-0.3-1.3-0.3c-0.5,0-0.9,0.1-1.3,0.3
							c-0.4,0.2-0.8,0.5-1,0.9c-0.3,0.4-0.4,1-0.5,1.5c-0.2,1.1,0,2.3,0.1,3.4c0.1,1.2,0.2,2.3,0.5,3.5c0.1,0.5,0.2,1,0.3,1.5
							c0,0.4-0.1,0.9-0.5,1.1c-0.2,0.1-0.5,0.1-0.7,0.1c-0.1,0-0.2,0-0.3-0.1c-0.1-0.1-0.1-0.2-0.1-0.3c0-0.3,0-0.5,0-0.8
							c0-0.3,0-0.6,0-0.9c0-1.2-0.1-2.3-0.3-3.5c-0.1-0.6-0.2-1.2-0.3-1.7c-0.1-0.5-0.2-1-0.5-1.5c-0.4-0.7-1.2-1.1-2-1.2
							c-0.9-0.1-1.7,0.3-2.2,0.9c-0.6,0.7-1,1.6-1,2.5c0,1.2,0.4,2.3,0.7,3.4c0.4,1.2,0.7,2.3,1.1,3.5c0.2,0.6,0.4,1.1,0.5,1.7
							c0.2,0.6,0.3,1.1,0.3,1.7c0,0.2,0,0.3-0.2,0.2c-0.1,0-0.3-0.1-0.4-0.2c-0.3-0.1-0.5-0.2-0.8-0.3c-0.5-0.2-1-0.4-1.5-0.6
							c-1-0.3-2-0.4-3-0.3c-0.9,0.1-1.9,0.5-2.4,1.3c-0.3,0.4-0.4,0.8-0.3,1.2c0.1,0.5,0.3,0.9,0.7,1.2c0.3,0.4,0.8,0.7,1.2,0.9
							c0.5,0.3,0.9,0.5,1.4,0.7c0.5,0.2,1.1,0.3,1.6,0.4c0.5,0.1,1.1,0.2,1.6,0.4c0.9,0.4,1.6,1.1,2.1,1.9c0.3,0.5,0.5,1,0.7,1.5
							c0.2,0.4,0.4,0.9,0.7,1.3c0.4,0.6,1,1.4,1.9,1.4c0,0-0.1-0.1-0.1-0.1c-0.3,0.9-0.2,1.9,0.4,2.6c0.3,0.3,0.6,0.6,1,0.7
							c0.5,0.2,1.1,0.2,1.6,0.2c0.6,0,1.1,0,1.7,0c0.6,0,1.3,0,1.9,0c0.5,0,1,0.1,1.5-0.1c0.4-0.1,0.7-0.4,0.9-0.7
							c0.5-0.7,0.8-1.7,0.6-2.5c0,0,0,0.1,0,0.1C216.9,28.4,217,28.3,217,28.3c0.1-0.1-0.1-0.3-0.2-0.2c-0.1,0.1-0.2,0.2-0.2,0.3
							c0,0.1,0,0.2,0,0.2c0,0.1,0,0.2,0,0.3c0,0.4-0.1,0.8-0.2,1.1c-0.3,0.7-0.9,1.4-1.7,1.5c-0.6,0-1.2,0-1.8,0c-0.6,0-1.2,0-1.8,0
							c-0.5,0-1.1,0-1.6,0c-0.5,0-1-0.1-1.4-0.4c-0.8-0.6-1-1.8-0.7-2.8c0-0.1,0-0.1-0.1-0.1c-0.9,0-1.5-0.9-1.9-1.6
							c-0.5-0.9-0.8-1.9-1.4-2.8c-0.5-0.8-1.3-1.3-2.1-1.7c-0.5-0.2-1-0.3-1.6-0.4c-0.5-0.1-1.1-0.2-1.6-0.4c-0.5-0.2-1-0.4-1.4-0.7
							c-0.4-0.3-0.8-0.6-1.2-0.9c-0.3-0.4-0.6-0.8-0.5-1.3c0-0.5,0.4-0.9,0.8-1.2c1.7-1.3,3.9-0.8,5.7-0.1c0.5,0.2,1,0.4,1.6,0.7
							c0.2,0.1,0.4,0.2,0.6,0c0.2-0.2,0.1-0.4,0.1-0.6c-0.1-1.2-0.5-2.3-0.8-3.4c-0.3-1.1-0.7-2.3-1-3.4c-0.3-1.1-0.7-2.2-0.7-3.4
							c0-0.9,0.4-1.8,1.1-2.4c0.6-0.6,1.5-0.8,2.3-0.6c0.4,0.1,0.8,0.3,1,0.6c0.3,0.4,0.5,0.8,0.6,1.3c0.3,1.1,0.5,2.3,0.6,3.4
							c0.1,1.2,0.2,2.3,0.2,3.5c0,0.4-0.1,0.9,0.4,1.1c0.2,0.1,0.5,0,0.7,0c0.2,0,0.5-0.1,0.6-0.2c0.8-0.5,0.4-1.6,0.3-2.4
							c-0.2-1.1-0.4-2.3-0.5-3.5c-0.1-1.1-0.3-2.3-0.2-3.4c0-0.5,0.2-1.1,0.4-1.6c0.2-0.4,0.6-0.7,1-0.9c0.4-0.2,0.9-0.4,1.4-0.3
							c0.4,0,0.9,0.1,1.3,0.4c0.4,0.2,0.6,0.6,0.8,1c0.2,0.4,0.2,0.8,0.3,1.2c0.1,0.4,0.1,0.8,0.1,1.2c0,0.5,0,0.9,0,1.4
							c0,1-0.1,2-0.1,3c0,1-0.1,2-0.2,3c0,0.2,0,0.4-0.1,0.6c0,0.1,0,0.3,0.1,0.5c0.1,0.2,0.4,0.2,0.6,0.2c0.2,0,0.4,0.1,0.6,0
							c0.3,0,0.5-0.4,0.6-0.6c0.2-0.4,0.3-0.8,0.3-1.2c0.2-0.9,0-1.9,0.1-2.8c0-1.1,0.2-2.2,0.4-3.3c0.1-0.5,0.3-0.9,0.5-1.3
							c0.2-0.4,0.6-0.8,1.1-0.9c0.5-0.2,1.2,0.1,1.6,0.4c0.6,0.6,0.7,1.6,0.7,2.4c0.1,1.1,0,2.2-0.1,3.3c-0.1,1.1-0.2,2.2-0.4,3.3
							c-0.2,1.1-0.3,2.3-0.3,3.5c0.1,1.2,0.2,2.3,0.3,3.5c0.1,2-0.4,3.9-1.5,5.6c-0.5,0.8-1.1,1.5-1.8,2.1
							C216.7,28.2,216.9,28.4,217,28.3z"/>
					</g>
				</g>
			</g>
			<g>
				<path class="st3" d="M207.6,28.5c0.7,0.3,1.6,0.3,2.3,0.2"/>
				<g>
					<path class="st3" d="M207.6,28.6c0.8,0.3,1.6,0.3,2.4,0.2c0.1,0,0.1-0.3-0.1-0.2c-0.8,0.2-1.5,0.1-2.3-0.2
						C207.5,28.3,207.5,28.5,207.6,28.6L207.6,28.6z"/>
				</g>
			</g>
			<g>
				<path class="st3" d="M214.6,28.4c0.9,0,1.8-0.2,2.7-0.6"/>
				<g>
					<path class="st3" d="M214.6,28.5c0.9,0,1.9-0.2,2.7-0.6c0.1-0.1,0.1-0.3-0.1-0.2c-0.8,0.3-1.7,0.5-2.7,0.5
						C214.5,28.3,214.5,28.5,214.6,28.5L214.6,28.5z"/>
				</g>
			</g>
			<g>
				<path class="st3" d="M207,15.1c1.2-1.1,3-1.4,4.6-1.3c1.6,0.1,3.2,0.6,4.8,1.2"/>
				<g>
					<path class="st3" d="M207.1,15.2c0.9-0.8,2-1.2,3.2-1.3c1.3-0.1,2.6,0.1,3.8,0.4c0.8,0.2,1.5,0.5,2.2,0.7
						c0.1,0.1,0.2-0.2,0.1-0.2c-1.3-0.5-2.7-0.9-4.1-1.1c-1.2-0.2-2.5-0.1-3.7,0.3c-0.6,0.2-1.2,0.6-1.7,1
						C206.8,15.1,207,15.3,207.1,15.2L207.1,15.2z"/>
				</g>
			</g>
		</g>
		<g>
			<path class="st3" d="M204,17.7c0.5-0.1,1.1,0.2,1.5,0.5c0.7,0.5,1.5,1,2,1.7c0.5,0.7,0.9,1.6,0.7,2.5"/>
			<g>
				<path class="st3" d="M204,17.9c0.5-0.1,0.9,0.1,1.3,0.4c0.4,0.2,0.7,0.5,1.1,0.7c0.7,0.5,1.3,1.2,1.6,2c0.2,0.4,0.2,0.9,0.1,1.4
					c0,0.1,0.2,0.2,0.2,0.1c0.2-0.9-0.1-1.8-0.7-2.5c-0.6-0.8-1.4-1.3-2.2-1.8c-0.5-0.3-1-0.5-1.5-0.4
					C203.8,17.7,203.9,17.9,204,17.9L204,17.9z"/>
			</g>
		</g>
	</g>
	<g>
		<g>
			<path class="st3" d="M134.1,65.5c-1.3-1.3-2.8-2.4-4.2-3.5c-1.3-1-2.6-1.9-3.9-2.8c-0.7-0.5-1.5-1.1-2.2-1.6
				c0.3,0.2,0.5,0.4,0.8,0.6c-1.3-1-2.5-2-3.6-3.2c-0.3-0.3-0.5-0.6-0.8-0.9c0.2,0.3,0.4,0.5,0.6,0.8c-0.3-0.4-0.6-0.9-0.8-1.4
				c0.1,0.3,0.3,0.6,0.4,0.9c-0.4-1-0.7-2.2-0.8-3.3c0,0.3,0.1,0.7,0.1,1c-0.2-1.4-0.2-2.8-0.2-4.2c0-1.3,0.1-2.7,0.2-4
				c0.1-0.6,0.1-1.3,0.2-1.9c0,0.3-0.1,0.7-0.1,1c0.1-0.8,0.2-1.5,0.4-2.3c0,0,0-0.1,0-0.1c0.2-0.5,0.2-1,0.1-1.5
				c0-0.5-0.2-1-0.4-1.4c-0.2-0.4-0.6-0.8-1-1.1c-0.4-0.3-0.8-0.6-1.3-0.7c-0.3,0-0.7-0.1-1-0.1c-0.7,0-1.3,0.2-1.9,0.5
				c-0.3,0.2-0.5,0.4-0.8,0.6c-0.5,0.5-0.8,1-1,1.7c-0.2,1.2-0.4,2.4-0.5,3.6c-0.3,2-0.4,4-0.4,5.9c0,1.1,0,2.2,0.1,3.3
				c0.1,1.3,0.3,2.7,0.7,4c0.2,0.7,0.5,1.5,0.9,2.2c0.2,0.4,0.4,0.7,0.6,1.1c0.6,0.8,1.2,1.5,1.9,2.3c0.5,0.5,1.1,1,1.6,1.5
				c2.6,2.2,5.4,4,8.1,6c0.3,0.2,0.6,0.4,0.9,0.6c-0.3-0.2-0.5-0.4-0.8-0.6c1,0.8,2,1.6,2.9,2.5c0.3,0.4,0.7,0.6,1.2,0.8
				c0.5,0.2,0.9,0.3,1.5,0.3c0.5,0,1-0.1,1.5-0.3c0.5-0.2,0.9-0.4,1.2-0.8c0.2-0.3,0.4-0.5,0.6-0.8c0.3-0.6,0.5-1.2,0.5-1.9
				c0-0.3-0.1-0.7-0.1-1C134.9,66.5,134.6,65.9,134.1,65.5L134.1,65.5z"/>
		</g>
	</g>
	<g>
		<g>
			<g>
				<g>
					<path class="st3" d="M112.6,35.4c-1.8-2-2.8-4.7-2.6-7.4c0.1-1.7,0.6-3.3,0.8-4.9c0.1-1.2,0-2.4-0.1-3.7c0-2.1-0.2-4.5,0.3-6.6
						c0.4-1.7,1.4-1.9,2.2-1.9c0.6,0,1.1,0.6,1.4,1.1c0.3,0.5,0.4,1.2,0.5,1.8c0.2,1.5,0.2,2.8,0,4.3c-0.1,0.9-0.1,1.3,0,2.1
						c0.1,0.7,0.2,1.1,0.5,1.4c0.1,0.1,0.5,0.1,1,0c0.3-0.1,0.2-0.5,0.2-0.8c0.1-2.9,0.2-6.5,0.6-8.7c0.2-0.6,0.5-1.6,1-2
						c0.5-0.4,1.1-0.5,1.8-0.6c0.6,0,1.4,0.3,1.9,0.7c0.4,0.3,0.6,0.7,0.7,1.2c0.3,1.1,0.1,2.3-0.2,3.5c-0.3,1.6-0.6,3.2-1.1,4.8
						c-0.2,0.6-0.4,1.4,0,1.9c0.3,0.3,0.6,0.3,1,0.4c0.1,0,0.3,0,0.4,0c0.2-0.1,0.2-0.4,0.3-0.6c0.1-2.4,0.6-4.7,1.4-7
						c0.1-0.3,0.2-0.7,0.4-1c0.6-1,2-1.3,3.1-0.8c1,0.5,1.7,1.7,1.7,2.8c0,1.1-0.4,2.2-0.8,3.2c-0.7,1.6-1.3,3.2-2,4.8
						c-0.3,0.8-0.7,1.6-0.7,2.5c0,0.1,0,0.2,0.1,0.3c0.1,0.1,0.3,0.1,0.4,0c1.3-0.4,2.6-0.9,4-1c1.4-0.1,2.8,0.3,3.7,1.3
						c0.2,0.2,0.3,0.4,0.4,0.7c0.3,0.9-0.5,1.8-1.3,2.3c-0.9,0.5-1.9,0.9-2.9,1c-0.6,0.1-1.3,0.1-1.9,0.2c-1,0.2-2,0.8-2.7,1.6
						c-0.6,0.7-0.9,1.6-1.5,2.4c-0.5,0.8-1.3,1.7-2.2,1.6c0.3,1.2-0.3,2.7-1.5,3c-0.6,0.2-1.6,0.1-2.2,0c-1.3-0.2-2.4-0.2-3.9-0.4
						c-1.6-0.1-2.3-2.2-1.8-3.4L112.6,35.4z"/>
					<g>
						<path class="st3" d="M112.7,35.3c-1.3-1.4-2.2-3.3-2.5-5.2c-0.2-1-0.1-2.1,0-3.1c0.2-1.1,0.4-2.2,0.6-3.3
							c0.2-1.2,0.1-2.3,0-3.5c0-1.1-0.1-2.2-0.1-3.3c0-1.1,0-2.2,0.2-3.3c0.1-0.8,0.3-1.8,1-2.3c0.4-0.3,1.2-0.5,1.7-0.2
							c0.9,0.5,1.2,1.5,1.3,2.4c0.2,1.1,0.2,2.3,0.1,3.4c-0.1,1-0.3,1.9-0.2,2.8c0.1,0.4,0.1,0.9,0.2,1.2c0.1,0.3,0.3,0.6,0.6,0.6
							c0.2,0,0.4,0,0.6,0c0.2,0,0.4,0,0.5-0.2c0.1-0.1,0.1-0.3,0.1-0.5c0-0.2,0-0.4,0-0.6c0.1-2,0.1-4,0.3-6c0-0.5,0.1-0.9,0.1-1.4
							c0-0.4,0.1-0.8,0.2-1.2c0.1-0.4,0.2-0.8,0.4-1.2c0.2-0.4,0.5-0.7,0.9-0.9c0.4-0.2,0.9-0.2,1.4-0.2c0.5,0,1,0.2,1.4,0.5
							c0.4,0.3,0.7,0.6,0.9,1.1c0.2,0.5,0.2,1.1,0.2,1.6c0,0.6-0.1,1.2-0.2,1.7c-0.1,0.6-0.2,1.1-0.3,1.7c-0.2,1.1-0.5,2.2-0.8,3.3
							c-0.2,0.7-0.6,1.8,0.3,2.3c0.2,0.1,0.4,0.2,0.6,0.2c0.2,0,0.4,0.1,0.6,0c0.4-0.2,0.3-0.8,0.4-1.2c0.2-2.3,0.6-4.5,1.4-6.7
							c0.2-0.5,0.4-0.9,0.8-1.2c0.3-0.3,0.7-0.4,1.1-0.5c0.9-0.1,1.7,0.2,2.3,0.8c0.6,0.7,0.9,1.7,0.8,2.6c-0.1,1.1-0.6,2.2-1,3.2
							c-0.5,1.1-0.9,2.2-1.4,3.3c-0.4,1-0.9,2.1-1.1,3.2c0,0.2-0.1,0.5,0,0.7c0.1,0.2,0.3,0.2,0.5,0.1c0.5-0.2,1.1-0.4,1.6-0.5
							c1-0.3,2.1-0.5,3.2-0.5c0.9,0.1,1.9,0.4,2.6,1c0.4,0.3,0.7,0.7,0.7,1.2c0,0.5-0.3,0.9-0.6,1.2c-0.3,0.4-0.8,0.6-1.2,0.9
							c-0.5,0.2-1,0.4-1.5,0.6c-0.5,0.1-1.1,0.2-1.6,0.2c-0.5,0-1.1,0.1-1.6,0.2c-0.9,0.3-1.7,0.8-2.3,1.5c-0.7,0.8-1,1.8-1.6,2.6
							c-0.5,0.6-1.1,1.5-2,1.5c-0.1,0-0.1,0.1-0.1,0.1c0.2,0.9,0,1.9-0.7,2.5c-0.4,0.3-0.8,0.4-1.3,0.5c-0.5,0-1.1,0-1.6-0.1
							c-1.2-0.2-2.5-0.2-3.7-0.4c-0.4,0-0.8-0.1-1.1-0.4c-0.3-0.3-0.5-0.6-0.6-1c-0.2-0.4-0.2-0.8-0.2-1.3c0-0.2,0.1-0.4,0.1-0.5
							C112.9,35.6,112.8,35.5,112.7,35.3c-0.1-0.1-0.3,0-0.2,0.1c0.1,0.1,0.1,0.2,0.2,0.3c0,0,0-0.1,0-0.1c-0.3,0.7-0.1,1.5,0.2,2.2
							c0.2,0.4,0.4,0.7,0.7,0.9c0.3,0.3,0.7,0.3,1.1,0.4c1.3,0.1,2.6,0.2,3.8,0.4c0.5,0.1,1.1,0.1,1.6,0.1c0.5,0,0.9-0.2,1.3-0.5
							c0.8-0.7,1.1-1.8,0.8-2.8c0,0-0.1,0.1-0.1,0.1c0.9,0,1.6-0.7,2.1-1.4c0.3-0.4,0.6-0.8,0.8-1.3c0.3-0.5,0.5-1,0.9-1.4
							c0.6-0.8,1.5-1.3,2.4-1.6c0.6-0.1,1.1-0.2,1.7-0.2c0.5,0,1.1-0.1,1.6-0.3c1-0.3,2-0.7,2.7-1.5c0.3-0.3,0.5-0.7,0.6-1.2
							c0.1-0.5-0.2-0.9-0.5-1.3c-0.6-0.7-1.5-1.1-2.4-1.3c-1-0.2-2.1-0.1-3,0.1c-0.6,0.1-1.1,0.3-1.7,0.5c-0.3,0.1-0.5,0.2-0.8,0.3
							c-0.1,0-0.1,0-0.2,0c-0.1,0-0.1-0.1-0.1-0.2c0-0.1,0-0.3,0-0.4c0.1-0.6,0.3-1.1,0.5-1.6c0.2-0.5,0.4-1.1,0.7-1.6
							c0.5-1.1,0.9-2.2,1.4-3.3c0.4-1,0.9-2.1,1-3.2c0.1-1.7-1.1-3.6-3-3.6c-0.8,0-1.6,0.4-2,1.1c-0.3,0.5-0.4,1-0.6,1.5
							c-0.2,0.6-0.3,1.1-0.5,1.7c-0.3,1.1-0.5,2.2-0.6,3.4c0,0.3-0.1,0.6-0.1,0.9c0,0.3,0,0.5-0.1,0.8c0,0.1-0.1,0.2-0.1,0.3
							c-0.1,0.1-0.3,0-0.4,0c-0.2,0-0.5-0.1-0.7-0.2c-0.4-0.2-0.5-0.7-0.4-1.2c0.1-0.5,0.3-1,0.4-1.5c0.3-1.1,0.6-2.3,0.8-3.4
							c0.2-1.1,0.5-2.3,0.4-3.4c0-0.5-0.1-1-0.4-1.5c-0.2-0.4-0.6-0.7-1-0.9c-0.4-0.2-0.9-0.4-1.4-0.4c-0.4,0-0.9,0.1-1.3,0.2
							c-0.4,0.2-0.7,0.4-0.9,0.8c-0.2,0.4-0.4,0.8-0.5,1.2c-0.2,0.8-0.3,1.6-0.4,2.5c-0.1,1-0.1,2-0.2,3c0,1-0.1,2.1-0.1,3.1
							c0,0.2,0,0.5,0,0.7c0,0.2,0,0.4,0,0.6c0,0.1-0.1,0.1-0.2,0.1c-0.1,0-0.3,0-0.4,0c-0.1,0-0.2,0-0.3,0c-0.1,0-0.1,0-0.1-0.1
							c-0.2-0.3-0.3-0.7-0.4-1c-0.1-0.4-0.1-0.8-0.1-1.3c0-0.5,0.1-1,0.2-1.5c0.1-0.6,0.1-1.2,0.1-1.8c0-0.6,0-1.2-0.1-1.8
							c-0.1-0.5-0.1-1-0.3-1.4c-0.1-0.4-0.4-0.8-0.7-1.2c-0.3-0.3-0.7-0.6-1.1-0.6c-0.6,0-1.1,0.1-1.5,0.5c-0.7,0.6-0.8,1.6-0.9,2.4
							c-0.2,1.1-0.2,2.2-0.2,3.3c0,1.1,0,2.2,0.1,3.4c0.1,1.2,0.1,2.4-0.1,3.6c-0.2,1.1-0.5,2.2-0.6,3.4c-0.3,2,0.1,4,1,5.9
							c0.4,0.9,1,1.7,1.6,2.4C112.6,35.6,112.8,35.4,112.7,35.3z"/>
					</g>
				</g>
			</g>
			<g>
				<path class="st3" d="M121.9,36.6c-0.8,0.2-1.6,0.2-2.3-0.1"/>
				<g>
					<path class="st3" d="M121.8,36.5c-0.7,0.2-1.5,0.2-2.3-0.1c-0.1,0-0.2,0.2-0.1,0.2c0.8,0.3,1.6,0.3,2.4,0.1
						C122,36.6,122,36.4,121.8,36.5L121.8,36.5z"/>
				</g>
			</g>
			<g>
				<path class="st3" d="M114.9,35.9c-0.9-0.1-1.8-0.4-2.6-0.8"/>
				<g>
					<path class="st3" d="M114.9,35.7c-0.9-0.1-1.8-0.4-2.6-0.8c-0.1-0.1-0.3,0.1-0.1,0.2c0.8,0.4,1.8,0.7,2.7,0.8
						C115,36,115,35.8,114.9,35.7L114.9,35.7z"/>
				</g>
			</g>
			<g>
				<path class="st3" d="M123.7,23.3c-1.1-1.2-2.8-1.7-4.5-1.8c-1.6,0-3.3,0.3-4.9,0.7"/>
				<g>
					<path class="st3" d="M123.8,23.2c-0.8-0.9-1.9-1.4-3.1-1.6c-1.3-0.3-2.7-0.2-4,0c-0.8,0.1-1.6,0.3-2.4,0.5
						c-0.1,0-0.1,0.3,0.1,0.2c1.4-0.3,2.7-0.7,4.2-0.7c1.2,0,2.4,0.1,3.5,0.6c0.6,0.3,1.1,0.6,1.6,1.1
						C123.7,23.5,123.9,23.4,123.8,23.2L123.8,23.2z"/>
				</g>
			</g>
		</g>
		<g>
			<path class="st3" d="M126.5,26.2c-0.5-0.2-1.1,0.1-1.5,0.3c-0.8,0.4-1.6,0.8-2.2,1.5c-0.6,0.6-1,1.5-0.9,2.4"/>
			<g>
				<path class="st3" d="M126.5,26.1c-0.5-0.1-1,0-1.4,0.2c-0.4,0.2-0.8,0.4-1.2,0.7c-0.8,0.5-1.5,1.1-1.9,2c-0.2,0.5-0.3,1-0.3,1.5
					c0,0.1,0.3,0.2,0.2,0c-0.1-0.9,0.3-1.7,0.9-2.3c0.6-0.6,1.4-1.1,2.1-1.5c0.4-0.2,1-0.5,1.5-0.3
					C126.6,26.4,126.6,26.1,126.5,26.1L126.5,26.1z"/>
			</g>
		</g>
	</g>
	<g id="Manga_00000122683890976060496820000003147948941323461799_">
		<g>
			<path class="st3" d="M128.6,57.2l-8,8.1c-0.4,0.5-0.4,1.1-0.1,1.3l13.7,7.2c0.3,0.2,0.8,0,1.1-0.4l3.8-3c0.3-0.4,0.4-0.9,0.2-1.2
				L129.9,57C129.6,56.6,129,56.8,128.6,57.2z"/>
		</g>
		<g>
			<path class="st3" d="M128.6,57.2l-8.1,8.1c-0.4,0.5-0.4,1.1-0.1,1.3l0.1,0c1,0.5,1.8-0.1,2.5-0.9l6.3-6.1
				c0.7-0.9,1.2-1.8,0.5-2.7l0,0C129.6,56.6,129,56.8,128.6,57.2z"/>
		</g>
	</g>
	<g id="Manga_00000127732446892929060260000003498197801717428616_" class="st12">
		<g class="st13">
			<path class="st3" d="M137.2,53.8L126,56.3c-0.6,0.2-1,0.7-0.7,1l7.7,13.4c0.2,0.3,0.7,0.4,1.1,0.3l4.8-0.5
				c0.5-0.2,0.8-0.5,0.8-0.9l-1.3-15.4C138.3,53.8,137.8,53.6,137.2,53.8z"/>
		</g>
		<g class="st13">
			<path class="st3" d="M137.2,53.8L126,56.3c-0.6,0.2-1,0.7-0.7,1l0,0.1c0.6,1,1.6,0.9,2.6,0.6l8.6-1.7c1.1-0.3,2-0.9,1.8-2l0,0
				C138.3,53.8,137.8,53.6,137.2,53.8z"/>
		</g>
	</g>
	
		<rect id="Brazo_00000179636557864953851850000007415406327593273245_" x="125.7" y="30.2" transform="matrix(0.9788 -0.205 0.205 0.9788 -6.2343 27.3994)" class="st14" width="6.7" height="27.1"/>
	<g class="st12">
		<g class="st13">
			<g>
				<g>
					<path class="st3" d="M130.9,30.2c1.7-2.1,2.5-4.9,2.1-7.6c-0.2-1.7-0.9-3.2-1.1-4.9c-0.2-1.2-0.1-2.4-0.2-3.7
						c-0.1-2.1-0.1-4.5-0.7-6.6c-0.5-1.7-1.5-1.8-2.3-1.8c-0.6,0.1-1.1,0.6-1.3,1.2c-0.3,0.5-0.4,1.2-0.4,1.8
						c-0.1,1.5,0,2.8,0.3,4.3c0.2,0.9,0.2,1.3,0.2,2.1c-0.1,0.7-0.1,1.1-0.4,1.4c-0.1,0.1-0.5,0.1-1,0.1c-0.3,0-0.2-0.5-0.2-0.8
						c-0.3-2.9-0.6-6.5-1.2-8.7c-0.2-0.6-0.6-1.6-1.1-2c-0.6-0.4-1.1-0.4-1.8-0.4c-0.6,0-1.4,0.4-1.8,0.9c-0.3,0.3-0.5,0.8-0.6,1.2
						c-0.2,1.2,0.1,2.3,0.4,3.5c0.4,1.6,0.8,3.2,1.4,4.7c0.3,0.6,0.5,1.4,0.1,1.9c-0.2,0.3-0.6,0.4-1,0.4c-0.1,0-0.3,0.1-0.4,0
						c-0.2-0.1-0.3-0.4-0.3-0.6c-0.3-2.4-0.9-4.7-1.8-6.9c-0.1-0.3-0.3-0.7-0.5-0.9C116.4,8,115,7.8,114,8.4c-1,0.6-1.6,1.8-1.5,2.9
						c0,1.1,0.5,2.1,1,3.1c0.8,1.6,1.5,3.1,2.3,4.7c0.4,0.8,0.8,1.6,0.9,2.4c0,0.1,0,0.2-0.1,0.3c-0.1,0.1-0.2,0.1-0.4,0
						c-1.3-0.3-2.7-0.7-4-0.7c-1.4,0-2.8,0.5-3.6,1.6c-0.2,0.2-0.3,0.5-0.4,0.7c-0.2,0.9,0.6,1.7,1.5,2.2c0.9,0.5,2,0.8,3,0.8
						c0.6,0,1.3,0,1.9,0.1c1,0.1,2,0.7,2.8,1.5c0.6,0.7,1,1.5,1.6,2.3c0.6,0.7,1.4,1.6,2.3,1.5c-0.2,1.2,0.5,2.7,1.7,2.9
						c0.6,0.1,1.6,0,2.2-0.1c1.3-0.3,2.4-0.4,3.8-0.6c1.6-0.2,2.1-2.3,1.6-3.5L130.9,30.2z"/>
					<g>
						<path class="st3" d="M130.9,30.3c1.2-1.5,2-3.4,2.2-5.4c0.1-1,0-2-0.2-3c-0.2-1.1-0.6-2.2-0.8-3.3c-0.2-1.2-0.3-2.4-0.3-3.6
							c0-1.1-0.1-2.2-0.1-3.3c-0.1-1.1-0.2-2.2-0.4-3.2c-0.2-0.8-0.4-1.8-1.1-2.4c-0.4-0.4-1-0.5-1.6-0.4c-0.9,0.1-1.5,1.1-1.7,1.9
							c-0.1,0.5-0.2,1-0.2,1.5c0,0.6,0,1.2,0,1.7c0,0.6,0.1,1.1,0.2,1.7c0.1,0.5,0.2,1,0.3,1.5c0,0.4,0,0.8,0,1.3
							c0,0.4-0.1,0.8-0.3,1.1c0,0.1-0.1,0.1-0.1,0.1c-0.1,0-0.2,0-0.3,0c-0.1,0-0.2,0-0.3,0c-0.1,0-0.3,0-0.3-0.1
							c-0.1-0.1,0-0.4-0.1-0.5c0-0.2,0-0.4-0.1-0.7c-0.2-2-0.4-4-0.7-6c-0.1-0.8-0.3-1.7-0.5-2.5c-0.1-0.4-0.3-0.8-0.6-1.2
							c-0.2-0.4-0.6-0.6-1-0.8c-0.4-0.2-0.9-0.2-1.4-0.2c-0.5,0-0.9,0.2-1.3,0.5c-0.4,0.2-0.8,0.6-1,1c-0.2,0.5-0.3,1-0.3,1.5
							c0,1.2,0.3,2.3,0.6,3.4c0.3,1.1,0.6,2.2,1,3.3c0.2,0.5,0.4,1,0.5,1.5c0.1,0.5,0.1,1-0.3,1.3c-0.2,0.1-0.4,0.2-0.7,0.2
							c-0.1,0-0.3,0.1-0.4,0c-0.1-0.1-0.1-0.2-0.1-0.3c-0.1-0.2-0.1-0.5-0.1-0.8c0-0.3-0.1-0.6-0.1-0.9c-0.2-1.1-0.5-2.2-0.8-3.3
							c-0.2-0.5-0.4-1.1-0.6-1.6c-0.2-0.5-0.4-1-0.7-1.5c-0.5-0.7-1.3-1-2.1-1c-0.9,0-1.6,0.5-2.1,1.2c-0.5,0.8-0.7,1.7-0.6,2.6
							c0.1,1.1,0.7,2.1,1.1,3.1c0.5,1.1,1.1,2.2,1.6,3.3c0.3,0.5,0.5,1.1,0.8,1.6c0.2,0.5,0.5,1,0.6,1.6c0,0.1,0.1,0.3,0.1,0.4
							c0,0,0,0.1,0,0.2c0,0.1-0.1,0-0.2,0c-0.3-0.1-0.6-0.1-0.8-0.2c-0.6-0.1-1.1-0.3-1.7-0.4c-1-0.2-2.1-0.2-3.1,0.1
							c-0.9,0.2-1.7,0.7-2.3,1.4c-0.3,0.4-0.5,0.8-0.4,1.3c0.1,0.4,0.3,0.8,0.6,1.1c0.7,0.7,1.8,1.1,2.7,1.3
							c0.5,0.1,1.1,0.2,1.6,0.2c0.6,0,1.2,0,1.8,0.1c1,0.2,1.9,0.7,2.5,1.4c0.4,0.4,0.6,0.9,0.9,1.3c0.3,0.4,0.6,0.8,0.9,1.2
							c0.5,0.6,1.3,1.4,2.2,1.3c0,0-0.1-0.1-0.1-0.1c-0.1,0.9,0.1,1.9,0.8,2.6c0.8,0.7,1.9,0.6,2.9,0.4c0.6-0.1,1.2-0.2,1.8-0.3
							c0.6-0.1,1.3-0.2,1.9-0.3c0.5-0.1,0.9-0.1,1.3-0.4c0.3-0.2,0.6-0.5,0.7-0.9c0.4-0.7,0.5-1.7,0.1-2.5c0,0,0,0.1,0,0.1
							C130.9,30.5,130.9,30.4,130.9,30.3c0.1-0.2-0.1-0.3-0.2-0.1c-0.1,0.1-0.2,0.2-0.2,0.3c0,0.1,0.1,0.2,0.1,0.2
							c0,0.1,0.1,0.2,0.1,0.3c0.1,0.4,0.1,0.8,0,1.1c-0.1,0.7-0.6,1.5-1.3,1.7c-0.3,0.1-0.5,0.1-0.8,0.1c-0.3,0.1-0.6,0.1-0.9,0.1
							c-0.6,0.1-1.2,0.2-1.8,0.3c-0.6,0.1-1.1,0.2-1.7,0.3c-0.5,0-1,0.1-1.5-0.1c-1-0.5-1.4-1.7-1.2-2.7c0-0.1,0-0.2-0.1-0.1
							c-0.9,0.1-1.7-0.8-2.2-1.4c-0.7-0.8-1.1-1.7-1.8-2.5c-0.7-0.7-1.5-1.1-2.5-1.3c-0.6-0.1-1.1-0.1-1.7-0.1
							c-0.6,0-1.1-0.1-1.7-0.2c-1-0.2-2-0.6-2.7-1.3c-0.3-0.3-0.5-0.7-0.5-1.2c0.1-0.5,0.4-0.9,0.8-1.2c1.6-1.4,3.9-1.2,5.8-0.7
							c0.3,0.1,0.6,0.1,0.8,0.2c0.2,0.1,0.5,0.2,0.7,0.2c0.6,0,0.3-0.7,0.3-1c-0.1-0.5-0.4-1-0.6-1.5c-0.3-0.5-0.5-1-0.8-1.6
							c-0.5-1.1-1-2.1-1.6-3.2c-0.5-1-1-2-1.2-3.1c-0.1-0.9,0.1-1.9,0.7-2.6c0.6-0.7,1.4-1,2.3-0.9c0.4,0.1,0.8,0.2,1.1,0.5
							c0.4,0.3,0.6,0.8,0.8,1.3c0.4,1,0.8,2.1,1.1,3.2c0.3,1.1,0.5,2.2,0.7,3.3c0.1,0.4,0,1,0.5,1.1c0.2,0.1,0.5,0,0.7-0.1
							c0.2-0.1,0.4-0.1,0.6-0.3c0.8-0.6,0.2-1.8-0.1-2.5c-0.4-1.1-0.7-2.1-1-3.2c-0.3-1.1-0.7-2.2-0.7-3.4c0-0.5,0-1.1,0.2-1.6
							c0.2-0.5,0.5-0.8,0.9-1.1c0.4-0.3,0.9-0.5,1.4-0.5c0.5,0,1,0,1.4,0.3c0.4,0.2,0.6,0.5,0.8,0.9c0.2,0.4,0.4,0.8,0.5,1.2
							c0.2,0.8,0.3,1.7,0.5,2.6c0.1,1,0.3,2,0.4,3c0.1,1,0.2,2,0.3,3c0,0.3-0.1,0.7,0.2,0.9c0.2,0.1,0.5,0.1,0.6,0.1
							c0.2,0,0.4,0,0.5-0.1c0.1-0.1,0.2-0.2,0.3-0.3c0.1-0.1,0.1-0.3,0.2-0.5c0.1-0.4,0.1-0.9,0.1-1.3c0-0.4,0-0.8-0.1-1.2
							c-0.1-0.6-0.2-1.1-0.3-1.7c-0.1-1.1-0.2-2.2-0.1-3.3c0-0.5,0.1-1,0.4-1.4c0.2-0.4,0.5-0.8,0.9-1c0.3-0.1,0.6-0.1,0.9-0.1
							c0.3,0,0.5,0.1,0.8,0.3c0.7,0.5,0.9,1.5,1.1,2.4c0.2,1.1,0.3,2.1,0.4,3.2c0.1,1.1,0.1,2.2,0.1,3.3c0,1.2,0.1,2.3,0.3,3.4
							c0.2,1.1,0.6,2.2,0.8,3.3c0.4,2,0.3,4-0.5,5.9c-0.4,0.9-0.8,1.7-1.4,2.5C130.7,30.3,130.8,30.4,130.9,30.3z"/>
					</g>
				</g>
			</g>
			<g>
				<path class="st3" d="M121.7,32c0.8,0.2,1.6,0.1,2.3-0.2"/>
				<g>
					<path class="st3" d="M121.7,32.1c0.8,0.2,1.6,0.1,2.4-0.2c0.1-0.1,0.1-0.3-0.1-0.2c-0.7,0.3-1.5,0.4-2.3,0.2
						C121.6,31.9,121.5,32.1,121.7,32.1L121.7,32.1z"/>
				</g>
			</g>
			<g>
				<path class="st3" d="M128.6,30.8c0.9-0.2,1.8-0.5,2.6-1"/>
				<g>
					<path class="st3" d="M128.7,31c0.9-0.2,1.8-0.5,2.6-1c0.1-0.1,0-0.3-0.1-0.2c-0.8,0.5-1.6,0.8-2.5,1
						C128.4,30.8,128.5,31,128.7,31L128.7,31z"/>
				</g>
			</g>
			<g>
				<path class="st3" d="M119,18.9c1.1-1.3,2.7-1.9,4.3-2.1c1.6-0.2,3.3,0.1,4.9,0.4"/>
				<g>
					<path class="st3" d="M119.1,19c0.7-0.9,1.8-1.5,2.9-1.8c1.3-0.4,2.6-0.4,3.9-0.2c0.8,0.1,1.6,0.2,2.4,0.4
						c0.1,0,0.2-0.2,0.1-0.2c-1.4-0.3-2.9-0.5-4.3-0.5c-1.2,0-2.4,0.3-3.5,0.9c-0.6,0.3-1.1,0.7-1.5,1.2C118.8,19,119,19.1,119.1,19
						L119.1,19z"/>
				</g>
			</g>
		</g>
		<g class="st13">
			<path class="st3" d="M116.4,22c0.5-0.2,1.1,0,1.6,0.2c0.8,0.4,1.6,0.7,2.3,1.3c0.6,0.6,1.1,1.4,1.1,2.3"/>
			<g>
				<path class="st3" d="M116.5,22.1c0.4-0.2,0.9,0,1.3,0.1c0.4,0.2,0.8,0.4,1.2,0.6c0.8,0.4,1.5,1,1.9,1.7c0.2,0.4,0.3,0.9,0.3,1.3
					c0,0.2,0.2,0.2,0.2,0c0-0.9-0.4-1.7-1-2.3c-0.7-0.7-1.6-1.1-2.5-1.5c-0.5-0.2-1-0.4-1.6-0.2C116.3,21.9,116.3,22.2,116.5,22.1
					L116.5,22.1z"/>
			</g>
		</g>
	</g>
</g>
<g id="Capa_1_00000026879941309703679270000008348791954536736950_">
	<g>
		<g>
			<path class="st15" d="M195.9,60.9c0.3-0.3,0.7-0.6,1-0.8c-0.3,0.2-0.5,0.4-0.8,0.6c1.2-1,2.6-1.8,3.9-2.6
				c1.4-0.9,2.8-1.7,4.2-2.5c1.6-1,3.2-2.1,4.6-3.3c0.6-0.5,1.1-1,1.7-1.5c0.4-0.4,0.7-0.8,1-1.3c0.1-0.2,0.3-0.4,0.4-0.6
				c0.4-0.7,0.7-1.4,1-2.2c0.2-0.5,0.4-1,0.5-1.5c0.4-1.4,0.6-2.9,0.7-4.3c0.1-1.1,0.2-2.3,0.2-3.4c0-1,0-2.1,0-3.1
				c0-0.8-0.1-1.6-0.1-2.4c0-0.4-0.1-0.8-0.1-1.2c0,0,0,0,0-0.1c0-0.5-0.1-1-0.3-1.5c-0.2-0.5-0.4-0.9-0.8-1.2
				c-0.3-0.4-0.7-0.6-1.2-0.8c-0.5-0.2-0.9-0.3-1.5-0.3c-0.3,0-0.7,0.1-1,0.1c-0.6,0.2-1.2,0.5-1.7,1c-0.2,0.3-0.4,0.5-0.6,0.8
				c-0.3,0.6-0.5,1.2-0.5,1.9c0.1,0.8,0.1,1.5,0.2,2.3c0.1,1.7,0.1,3.5,0.1,5.2c0,1.1-0.1,2.2-0.3,3.4c0-0.3,0.1-0.7,0.1-1
				c-0.2,1.2-0.4,2.3-0.7,3.4c-0.1,0.3-0.2,0.6-0.3,0.9c0.1-0.3,0.3-0.6,0.4-0.9c-0.2,0.6-0.6,1.2-0.9,1.7c0.2-0.3,0.4-0.5,0.6-0.8
				c-0.3,0.4-0.7,0.8-1.1,1.2c-0.5,0.5-1,0.9-1.6,1.3c0.3-0.2,0.5-0.4,0.8-0.6c-1.5,1.2-3.2,2.2-4.9,3.2c-1.7,1-3.4,2-5,3.1
				c-1.1,0.8-2.2,1.6-3.2,2.4c-0.4,0.3-0.6,0.7-0.8,1.2c-0.2,0.5-0.3,0.9-0.3,1.5c0,0.5,0.1,1,0.3,1.5c0.2,0.5,0.4,0.9,0.8,1.2
				c0.3,0.2,0.5,0.4,0.8,0.6c0.6,0.3,1.2,0.5,1.9,0.5c0.3,0,0.7-0.1,1-0.1C194.9,61.7,195.4,61.3,195.9,60.9L195.9,60.9z"/>
		</g>
	</g>
	<g>
		<path class="st16" d="M176.5,99.6c-3.5,0.2-8-0.6-8-0.6c-0.2,0-0.6-9.3-0.6-9.3c0-0.3,0.2-0.5,0.5-0.5c0,0,4.1,0.8,7.7,0.5
			c3.6-0.3,7.5-1.7,7.5-1.7c0.3-0.1,0.5,0.1,0.5,0.4l0.4,8.9C184.5,97.6,179.9,99.4,176.5,99.6z"/>
	</g>
	<g>
		<path class="st17" d="M172.8,138.1c-1.3,0.7-2.1,1.8-1.7,3.6c0.9,2.3,3.3,3.4,6.8,3.3l5.1-0.5c0.4,0,0.8,0,1.2,0l6.5,0.2
			c3.6,0.1,6.9-0.1,9.9-0.9c2.7-1,4.2-2.6,3.1-5.4c-1.3-1.4-3.9-1.9-6.5-2.4L172.8,138.1z"/>
		<path class="st18" d="M186.4,133.9c1.2-2.2,3.4-3.9,6.9-4.5c0.1,0,0.3,0,0.5,0c4.3-0.3,7.8,0.8,9.3,3.7c0.8,1.7,0.9,3.6,0,5.2
			c-1.1,2.1-3.5,3.2-6.9,3.7c-0.3,0-0.7,0.1-1,0c-5.4-0.2-8.4-0.4-10.9-0.4c-1.2,0-2.4,0.1-3.6,0.3c-1.2,0.2-2.3,0.2-3.4,0.1
			c-2-0.2-3.7-1.4-4.6-3.2c-0.5-1-0.8-2.4-0.8-4.2c0-5.7,2.9-7.5,3.6-7.5c0.7,0.3,1.5,0.5,2.5,0.7c0,0,1.5-1.1,2.2-1.1
			c0.6,0,2,1.2,2,1.2c1.5-0.1,2.8-0.3,3.8-0.6c0.5,0.2,2.4,2.4,3.1,3.6"/>
		<path class="st19" d="M178,128.1c-3-0.5-5.1-1.9-5.1-3.6c0-2.1,3.4-3.8,7.7-3.8c4.2,0,7.7,1.7,7.7,3.8c0,1.9-2.7,3.4-6.3,3.7"/>
	</g>
	<g>
		<path class="st18" d="M166,133.6c-4.6-5.1-12.6-4.8-16.4,0c-0.3-2.9,0.8-5.5,2.8-8l9.8,0C164.4,128,165.5,130.7,166,133.6z"/>
		<path class="st19" d="M157.8,125.6l4.5,0c1.4-0.9,2-1.8,2-3.4c0-1.6-2.1-2.8-4.4-3.2l-5.5,0c-2,0.5-3.5,1.5-3.9,3.3
			c-0.1,1.6,0.8,2.5,2,3.3l2.2,0"/>
		<path class="st17" d="M168.1,139.3c0,0,1.4,0.7,1.4,2.3s-2.3,5.4-11.3,5.5c-9,0-11.8-3.4-11.8-4.9c0-1.5,1.2-2.2,1.2-2.2"/>
		<path class="st20" d="M167.9,138c-1.7-10.2-17.5-11.5-20.5,0.1c-0.2,1.2,0,2.2,0.7,2.8c3,3.7,17.1,3.6,19,0.3
			C168.1,140.2,168.2,139.1,167.9,138z"/>
	</g>
	<g>
		<g>
			<path class="st15" d="M173.1,88.4c0.5,2.1,1.1,4.3,1.5,6.5c0.5,2.2,0.9,4.3,1.3,6.5c0.2,1.2,0.4,2.5,0.6,3.7
				c0-0.3-0.1-0.6-0.1-0.9c0.3,2.3,0.5,4.5,0.6,6.8c0.1,2.3,0.1,4.6,0,6.9c-0.1,1.3-0.2,2.6-0.4,3.9c0,0.5,0.1,0.9,0.3,1.3
				c0.1,0.4,0.4,0.8,0.7,1.1c0.3,0.3,0.7,0.6,1.1,0.7c0.4,0.2,0.8,0.3,1.3,0.3c0.3,0,0.6-0.1,0.9-0.1c0.6-0.2,1.1-0.5,1.5-0.9
				c0.2-0.2,0.4-0.5,0.5-0.7c0.3-0.5,0.5-1.1,0.5-1.7c0.3-2.3,0.4-4.5,0.4-6.8c0-2.3-0.1-4.5-0.3-6.8c-0.2-2.5-0.6-5-1-7.5
				c-0.4-2.2-0.8-4.4-1.3-6.7c-0.5-2.2-1-4.4-1.5-6.5c-0.1-0.3-0.1-0.5-0.2-0.8c-0.1-0.4-0.3-0.8-0.6-1.2c-0.2-0.4-0.6-0.7-1-0.9
				c-0.4-0.3-0.8-0.4-1.3-0.4c-0.5-0.1-0.9-0.1-1.4,0.1c-0.3,0.1-0.5,0.2-0.8,0.3c-0.5,0.3-0.9,0.7-1.2,1.2
				c-0.1,0.3-0.2,0.5-0.3,0.8C172.9,87.2,172.9,87.8,173.1,88.4L173.1,88.4z"/>
		</g>
	</g>
	<g>
		<path class="st21" d="M176.2,96.7c-1.6,0.1-4.6-0.5-6,0.2c-1.7,0.8-1.8,2.1-1.8,2.1c-0.2,0-0.6-9.4-0.6-9.4c0-0.2,0.2-0.4,0.5-0.4
			c0,0,4.1,0.5,7.7,0.3c3.6-0.2,7.6-1.4,7.6-1.4c0.3,0,0.5,0.1,0.5,0.3l0.4,9c0,0.1-0.1-1.3-2.4-1.8
			C180.7,95.3,177.5,96.6,176.2,96.7z"/>
	</g>
	<g>
		<path class="st16" d="M158.7,99.4c-3.5-0.1-8-1.2-8-1.2c-0.2,0,0-8.5,0-8.5c0-0.3,0.2-0.5,0.5-0.4c0,0,4,1.1,7.6,1.2
			s7.6-0.9,7.6-0.9c0.3,0,0.5,0.2,0.5,0.4l-0.2,8.1C166.8,98.3,162.2,99.5,158.7,99.4z"/>
	</g>
	<g>
		<g>
			<path class="st15" d="M154.9,86.6c0,0.5,0,1,0.1,1.4c0.1,1.2,0.1,2.4,0.2,3.6c0.1,1.6,0.1,3.1,0.2,4.7c0.1,1.6,0.1,3.1,0.2,4.7
				c0.1,1.2,0.1,2.4,0.2,3.6c0,0.4,0,0.7,0.1,1.1c0,0.1,0,0.3,0,0.4c0,0.2,0,0.3-0.1,0.5c-0.1,0.5-0.1,0.9-0.2,1.4
				c-0.2,1.4-0.4,2.9-0.6,4.3c-0.2,1.5-0.4,3.1-0.6,4.6c-0.1,0.9-0.2,1.8-0.4,2.7c0,0,0,0.1,0,0.1c0,0.5,0.1,0.9,0.3,1.3
				c0.1,0.4,0.4,0.8,0.7,1.1c0.3,0.3,0.7,0.6,1.1,0.7c0.4,0.2,0.8,0.3,1.3,0.3c0.3,0,0.6-0.1,0.9-0.1c0.6-0.2,1.1-0.5,1.5-0.9
				c0.2-0.2,0.4-0.5,0.5-0.7c0.3-0.5,0.5-1.1,0.5-1.7c0.1-0.6,0.2-1.3,0.2-1.9c0.2-1.5,0.4-2.9,0.6-4.4c0.2-1.5,0.4-3.1,0.6-4.6
				c0.1-0.9,0.2-1.8,0.3-2.7c0-0.3,0-0.7,0-1c-0.1-1.1-0.1-2.1-0.2-3.2c-0.1-1.5-0.1-3-0.2-4.5c-0.1-1.6-0.2-3.2-0.2-4.8
				c-0.1-1.3-0.1-2.7-0.2-4c0-0.7-0.1-1.4-0.1-2.1c0,0,0-0.1,0-0.1c0-0.5-0.1-0.9-0.3-1.3c-0.1-0.4-0.4-0.8-0.7-1.1
				c-0.3-0.3-0.7-0.6-1.1-0.7c-0.4-0.2-0.8-0.3-1.3-0.3c-0.3,0-0.6,0.1-0.9,0.1c-0.6,0.2-1.1,0.5-1.5,0.9c-0.2,0.2-0.4,0.5-0.5,0.7
				C155.1,85.4,154.9,86,154.9,86.6L154.9,86.6z"/>
		</g>
	</g>
	<g>
		<path class="st21" d="M158.7,96.7c-1.6,0-4.5-0.9-6-0.4c-1.8,0.6-1.9,1.8-1.9,1.8c-0.2,0,0-8.5,0-8.5c0-0.2,0.2-0.3,0.5-0.3
			c0,0,4,0.8,7.6,0.9c3.6,0.1,7.6-0.6,7.6-0.6c0.3,0,0.5,0.1,0.5,0.3l-0.1,8.2c0,0.1-0.1-1.2-2.3-1.9
			C163.2,95.8,160,96.8,158.7,96.7z"/>
	</g>
	<ellipse class="st22" cx="164.7" cy="58.2" rx="35.7" ry="34.8"/>
	<ellipse class="st23" cx="168.5" cy="58.5" rx="30.9" ry="34.1"/>
	<g>
		<g>
			<g>
				<defs>
					<ellipse id="SVGID_00000045601693927043399590000016105570097476467643_" cx="169.5" cy="58.5" rx="29.7" ry="32.9"/>
				</defs>
				<clipPath id="SVGID_00000183931759351261626510000010452072111906262709_">
					<use xlink:href="#SVGID_00000045601693927043399590000016105570097476467643_"  style="overflow:visible;"/>
				</clipPath>
				<path style="clip-path:url(#SVGID_00000183931759351261626510000010452072111906262709_);fill:#C2E183;" d="M169.1,27
					c-2.9-5.9-21.6,3.8-18.8,9.7l16.3,15.1c1.1,1.1,4.6-0.8,4.4-2.3L169.1,27z"/>
			</g>
			<g>
				<defs>
					<ellipse id="SVGID_00000098194598702889971850000005295761981697412765_" cx="169.5" cy="58.5" rx="29.7" ry="32.9"/>
				</defs>
				<clipPath id="SVGID_00000009590192627989343350000016938239324335324858_">
					<use xlink:href="#SVGID_00000098194598702889971850000005295761981697412765_"  style="overflow:visible;"/>
				</clipPath>
				<path style="clip-path:url(#SVGID_00000009590192627989343350000016938239324335324858_);fill:#C2E183;" d="M191.1,33.5
					c1.8-6.3-18.2-12.6-20.1-6.3l1.7,22.4c0,1.5,3.9,2.7,4.7,1.5L191.1,33.5z"/>
			</g>
			<g>
				<defs>
					<ellipse id="SVGID_00000019678852153408491070000001944177897843762567_" cx="169.5" cy="58.5" rx="29.7" ry="32.9"/>
				</defs>
				<clipPath id="SVGID_00000071545038587428578730000007233248196308653470_">
					<use xlink:href="#SVGID_00000019678852153408491070000001944177897843762567_"  style="overflow:visible;"/>
				</clipPath>
				<path style="clip-path:url(#SVGID_00000071545038587428578730000007233248196308653470_);fill:#C2E183;" d="M202.8,54.1
					c5.6-3.2-4.5-22.1-10.1-18.9l-14.1,17.2c-1,1.1,0.9,4.7,2.4,4.4L202.8,54.1z"/>
			</g>
			<g>
				<defs>
					<ellipse id="SVGID_00000127020183778174227000000011137845994074399918_" cx="169.5" cy="58.5" rx="29.7" ry="32.9"/>
				</defs>
				<clipPath id="SVGID_00000117672143154777907920000002757370363129603969_">
					<use xlink:href="#SVGID_00000127020183778174227000000011137845994074399918_"  style="overflow:visible;"/>
				</clipPath>
				<path style="clip-path:url(#SVGID_00000117672143154777907920000002757370363129603969_);fill:#C2E183;" d="M197,76.9
					c6.2,1.6,11.5-19.2,5.4-20.8l-21.8,2.6c-1.5,0.1-2.5,4.1-1.3,4.9L197,76.9z"/>
			</g>
			<g>
				<defs>
					<ellipse id="SVGID_00000089573399593668945740000011177762533949383826_" cx="169.5" cy="58.5" rx="29.7" ry="32.9"/>
				</defs>
				<clipPath id="SVGID_00000176753243345779541980000011668002683440350904_">
					<use xlink:href="#SVGID_00000089573399593668945740000011177762533949383826_"  style="overflow:visible;"/>
				</clipPath>
				<path style="clip-path:url(#SVGID_00000176753243345779541980000011668002683440350904_);fill:#C2E183;" d="M177.2,89
					c3.4,5.6,21.3-5.6,17.9-11.2l-17.4-13.7c-1.1-1-4.6,1.2-4.2,2.6L177.2,89z"/>
			</g>
			<g>
				<defs>
					<ellipse id="SVGID_00000145743635977243940230000015136317088666736522_" cx="169.5" cy="58.5" rx="29.7" ry="32.9"/>
				</defs>
				<clipPath id="SVGID_00000003784088124218718780000000534937879764892059_">
					<use xlink:href="#SVGID_00000145743635977243940230000015136317088666736522_"  style="overflow:visible;"/>
				</clipPath>
				<path style="clip-path:url(#SVGID_00000003784088124218718780000000534937879764892059_);fill:#C2E183;" d="M149.2,37.7
					c-6.1-2.1-12.9,18.2-6.9,20.4l21.9-0.8c1.5,0,2.8-3.9,1.6-4.8L149.2,37.7z"/>
			</g>
			<g>
				<defs>
					<ellipse id="SVGID_00000130628068658900446970000004694497218874829483_" cx="169.5" cy="58.5" rx="29.7" ry="32.9"/>
				</defs>
				<clipPath id="SVGID_00000013884593808364943470000017554830817203795130_">
					<use xlink:href="#SVGID_00000130628068658900446970000004694497218874829483_"  style="overflow:visible;"/>
				</clipPath>
				<path style="clip-path:url(#SVGID_00000013884593808364943470000017554830817203795130_);fill:#C2E183;" d="M142.3,60.2
					c-5.8,2.7,2.7,22.4,8.5,19.7l15.4-16c1.1-1-0.5-4.8-2-4.6L142.3,60.2z"/>
			</g>
			<g>
				<defs>
					<ellipse id="SVGID_00000174600903702775399020000012132286251048270777_" cx="169.5" cy="58.5" rx="29.7" ry="32.9"/>
				</defs>
				<clipPath id="SVGID_00000086651796860000157410000006111195540689066656_">
					<use xlink:href="#SVGID_00000174600903702775399020000012132286251048270777_"  style="overflow:visible;"/>
				</clipPath>
				<path style="clip-path:url(#SVGID_00000086651796860000157410000006111195540689066656_);fill:#C2E183;" d="M152.7,80.9
					c-2.3,6.1,17.1,14.1,19.5,8l0.2-22.5c0.1-1.5-3.6-3.1-4.6-1.9L152.7,80.9z"/>
			</g>
		</g>
	</g>
	<path class="st32" d="M168.6,45.4c0,6.3-2.4,11.4-5.4,11.4c-2.6,0-4.8-4.7-5.3-9.8c6.5-2.7,5.8-1.3,0.1-4.8
		c0.6-4.8,2.7-8.2,5.2-8.2C166.2,33.9,168.6,39.1,168.6,45.4z"/>
	<path class="st32" d="M186.5,45.7c0,6.3-2.4,11.4-5.4,11.4c-2.6,0-4.8-4.7-5.3-9.8c6.5-2.7,5.8-1.3,0.1-4.8
		c0.6-4.8,2.7-8.2,5.2-8.2C184.1,34.3,186.5,39.4,186.5,45.7z"/>
	<path class="st32" d="M192.1,68.8c0,2.2-1,4.3-2.7,6c-3.7,4-11,6.6-19.4,6.6c-12.2,0-22.1-5.7-22.1-12.7c0-3.3,1.9-7.2,5.9-8.7
		c3.6-1.3,11.4,5.1,16.4,7.3C181.6,72.3,192.1,61.8,192.1,68.8z"/>
	<path class="st33" d="M148.7,65.2c-1.4,3.8-0.4,6.7,0.7,8.3c2.2,3.8,8.2,5.8,9.1,6.2c7.7,2.7,13.7,1.7,13.7,1.7
		c4.2-1,3.2-6.6-0.1-8.1c-1.8-0.4-5.2-1.6-8.6-0.1c-0.6-3-6.3-7.8-6.3-7.8S150.7,60.6,148.7,65.2z"/>
	<g>
		<g>
			<path class="st32" d="M163,71.7c0.2,1.1,0.3,2.2,0.4,3.4c0,0.1,0.2,0.2,0.2,0c0.3-1.2,0.3-2.5,0-3.7c-0.1,0-0.2,0-0.2,0.1
				c0.2,0.8,0.3,1.6,0.2,2.5c0,0.1,0.2,0.2,0.2,0c0.1-0.5,0.1-1,0-1.5c0-0.1-0.2-0.1-0.2,0c-0.1,0.5-0.1,1-0.2,1.5
				c0.1,0,0.2,0,0.2,0c0-0.6,0-1.2,0-1.8c0-0.2-0.2-0.2-0.2,0c0,0.5,0,0.9-0.1,1.4c0,0.1,0.1,0.1,0.2,0.1c0.3-0.2,0.3-0.6,0.3-0.9
				c0-0.5,0-0.9,0-1.4c0-0.2-0.2-0.2-0.2,0c0,0.4,0,0.8,0,1.2c0,0.2,0,0.4,0,0.5c0,0.1,0,0.3-0.1,0.3c0.1,0,0.1,0.1,0.2,0.1
				c0-0.5,0-0.9,0.1-1.4c-0.1,0-0.2,0-0.2,0c0,0.6,0,1.2,0,1.8c0,0.2,0.2,0.1,0.2,0c0.1-0.5,0.1-1,0.2-1.5c-0.1,0-0.2,0-0.2,0
				c0.1,0.5,0.1,0.9,0,1.4c0.1,0,0.2,0,0.2,0c0.1-0.8,0-1.7-0.2-2.5c0-0.1-0.3-0.1-0.2,0.1c0.3,1.2,0.3,2.4,0,3.5c0.1,0,0.2,0,0.2,0
				c-0.1-1.2-0.2-2.3-0.4-3.4C163.2,71.4,163,71.5,163,71.7L163,71.7z"/>
		</g>
	</g>
	<g>
		<g>
			<path class="st32" d="M164.5,68.1c0.3,0.5,0.6,1.1,0.9,1.6c0.1,0.1,0.3,0,0.2-0.1c-0.3-0.5-0.6-1.1-0.9-1.6
				C164.6,67.8,164.4,68,164.5,68.1L164.5,68.1z"/>
		</g>
	</g>
	<g>
		<g>
			<path class="st32" d="M160.6,65.2c0.3,0.7,0.6,1.4,0.9,2c0.2,0.6,0.5,1.2,0.8,1.7c0.2,0.3,0.4,0.6,0.7,0.8
				c0.1,0.1,0.3-0.1,0.2-0.2c-0.4-0.4-0.8-1-1-1.6c-0.3-0.6-0.5-1.2-0.8-1.8c-0.2-0.4-0.3-0.8-0.5-1.2c0-0.1-0.1-0.1-0.2,0
				C160.6,65,160.5,65.1,160.6,65.2L160.6,65.2z"/>
		</g>
	</g>
	<ellipse class="st33" cx="176" cy="55.3" rx="7.4" ry="4.7"/>
	<path class="st32" d="M167,25.2l-18.1,7c-0.6,0.2-1.2,0-1.4-0.6l-0.1-0.3c-0.2-0.5,0-1.2,0.5-1.5l17.2-9.3c0.6-0.3,1.3,0,1.6,0.6
		l1,2.6C167.9,24.4,167.6,25,167,25.2z"/>
	<path class="st32" d="M173.3,25.5l18.1,7c0.6,0.2,1.2,0,1.4-0.6l0.1-0.3c0.2-0.5,0-1.2-0.5-1.5l-17.2-9.3c-0.6-0.3-1.3,0-1.6,0.6
		l-1,2.6C172.4,24.7,172.7,25.3,173.3,25.5z"/>
	<ellipse transform="matrix(0.3708 -0.9287 0.9287 0.3708 63.8628 199.8266)" class="st34" cx="179.4" cy="52.8" rx="1" ry="2.8"/>
	<g>
		<g>
			<g>
				<g>
					<path class="st35" d="M215.1,28.9c2-1.8,3.2-4.4,3.3-7.1c0-1.7-0.3-3.3-0.3-5c0-1.2,0.3-2.4,0.4-3.6c0.2-2.1,0.6-4.5,0.3-6.6
						c-0.2-1.7-1.2-2.1-2-2.1c-0.6,0-1.2,0.5-1.5,0.9s-0.6,1.2-0.7,1.7c-0.3,1.4-0.4,2.8-0.4,4.3c0,1,0,1.3-0.2,2.1
						c-0.2,0.7-0.3,1.1-0.7,1.4c-0.1,0.1-0.5,0.1-1-0.1c-0.3-0.1-0.1-0.5-0.1-0.8c0.1-2.9,0.4-6.5,0.2-8.7c-0.1-0.6-0.3-1.7-0.8-2.1
						c-0.5-0.5-1-0.6-1.7-0.7c-0.6-0.1-1.4,0.2-2,0.6c-0.4,0.3-0.6,0.7-0.8,1.1c-0.4,1.1-0.3,2.3-0.2,3.5c0.2,1.6,0.3,3.3,0.7,4.9
						c0.2,0.7,0.3,1.5-0.2,1.9c-0.3,0.2-0.7,0.3-1,0.3c-0.1,0-0.3,0-0.4-0.1c-0.2-0.1-0.2-0.4-0.2-0.6c0.1-2.4-0.2-4.8-0.7-7.1
						c-0.1-0.3-0.2-0.7-0.3-1c-0.6-1-1.9-1.5-3-1.1c-1.1,0.4-1.8,1.5-2,2.7c-0.1,1.1,0.2,2.2,0.5,3.3c0.5,1.7,1,3.3,1.5,5
						c0.3,0.8,0.5,1.7,0.5,2.5c0,0.1,0,0.2-0.1,0.3c-0.1,0.1-0.3,0-0.4,0c-1.3-0.5-2.5-1.1-3.9-1.3s-2.8,0-3.8,1
						c-0.2,0.2-0.4,0.4-0.5,0.7c-0.3,0.9,0.4,1.8,1.1,2.4c0.8,0.6,1.8,1.1,2.8,1.3c0.6,0.1,1.3,0.2,1.9,0.4c1,0.3,1.9,1,2.5,1.9
						c0.5,0.8,0.8,1.7,1.3,2.5c0.5,0.8,1.1,1.8,2.1,1.8c-0.4,1.2,0,2.7,1.2,3.2c0.6,0.2,1.5,0.2,2.2,0.2c1.3-0.1,2.5,0,3.9,0
						c1.6,0.1,2.5-2,2.1-3.2L215.1,28.9z"/>
					<g>
						<path class="st36" d="M215.2,29c1.4-1.3,2.5-3,3-4.9c0.3-1,0.4-2,0.3-3c0-1.2-0.2-2.4-0.3-3.5c-0.1-1.2,0.1-2.4,0.3-3.6
							c0.1-1.1,0.3-2.2,0.4-3.3c0.1-1.1,0.2-2.2,0.1-3.4c-0.1-0.8-0.1-1.8-0.8-2.4c-0.4-0.4-1-0.6-1.5-0.6c-0.5,0-0.9,0.3-1.2,0.6
							c-0.3,0.3-0.6,0.7-0.7,1.2c-0.2,0.5-0.3,1-0.4,1.5c-0.1,0.6-0.2,1.1-0.2,1.7c0,0.6-0.1,1.2,0,1.7c0,0.5,0.1,1,0,1.5
							c0,0.4-0.1,0.9-0.3,1.3c-0.1,0.2-0.1,0.4-0.2,0.6c-0.1,0.1-0.2,0.3-0.3,0.4c-0.1,0.1-0.4,0-0.5,0c-0.1,0-0.3,0-0.4-0.1
							c-0.1,0-0.1-0.1-0.1-0.2c0-0.2,0-0.4,0.1-0.6c0-0.2,0-0.5,0-0.7c0.1-2,0.2-4.1,0.2-6.1c0-0.4,0-0.9,0-1.3
							c0-0.4-0.1-0.8-0.2-1.2c-0.1-0.4-0.2-0.8-0.4-1.2c-0.2-0.4-0.6-0.6-0.9-0.8c-0.4-0.2-0.9-0.3-1.3-0.3c-0.5,0-0.9,0.1-1.3,0.3
							c-0.4,0.2-0.8,0.5-1,0.9c-0.3,0.4-0.4,1-0.5,1.5c-0.2,1.1,0,2.3,0.1,3.4c0.1,1.2,0.2,2.3,0.5,3.5c0.1,0.5,0.2,1,0.3,1.5
							c0,0.4-0.1,0.9-0.5,1.1c-0.2,0.1-0.5,0.1-0.7,0.1c-0.1,0-0.2,0-0.3-0.1c-0.1-0.1-0.1-0.2-0.1-0.3c0-0.3,0-0.5,0-0.8
							c0-0.3,0-0.6,0-0.9c0-1.2-0.1-2.3-0.3-3.5c-0.1-0.6-0.2-1.2-0.3-1.7c-0.1-0.5-0.2-1-0.5-1.5c-0.4-0.7-1.2-1.1-2-1.2
							c-0.9-0.1-1.7,0.3-2.2,0.9c-0.6,0.7-1,1.6-1,2.5c0,1.2,0.4,2.3,0.7,3.4c0.4,1.2,0.7,2.3,1.1,3.5c0.2,0.6,0.4,1.1,0.5,1.7
							c0.2,0.6,0.3,1.1,0.3,1.7c0,0.2,0,0.3-0.2,0.2c-0.1,0-0.3-0.1-0.4-0.2c-0.3-0.1-0.5-0.2-0.8-0.3c-0.5-0.2-1-0.4-1.5-0.6
							c-1-0.3-2-0.4-3-0.3c-0.9,0.1-1.9,0.5-2.4,1.3c-0.3,0.4-0.4,0.8-0.3,1.2c0.1,0.5,0.3,0.9,0.7,1.2c0.3,0.4,0.8,0.7,1.2,0.9
							c0.5,0.3,0.9,0.5,1.4,0.7c0.5,0.2,1.1,0.3,1.6,0.4c0.5,0.1,1.1,0.2,1.6,0.4c0.9,0.4,1.6,1.1,2.1,1.9c0.3,0.5,0.5,1,0.7,1.5
							c0.2,0.4,0.4,0.9,0.7,1.3c0.4,0.6,1,1.4,1.9,1.4c0,0-0.1-0.1-0.1-0.1c-0.3,0.9-0.2,1.9,0.4,2.6c0.3,0.3,0.6,0.6,1,0.7
							c0.5,0.2,1.1,0.2,1.6,0.2c0.6,0,1.1,0,1.7,0c0.6,0,1.3,0,1.9,0c0.5,0,1,0.1,1.5-0.1c0.4-0.1,0.7-0.4,0.9-0.7
							c0.5-0.7,0.8-1.7,0.6-2.5c0,0,0,0.1,0,0.1C215,29.1,215.1,29,215.2,29c0.1-0.1-0.1-0.3-0.2-0.2c-0.1,0.1-0.2,0.2-0.2,0.3
							c0,0.1,0,0.2,0,0.2c0,0.1,0,0.2,0,0.3c0,0.4-0.1,0.8-0.2,1.1c-0.3,0.7-0.9,1.4-1.7,1.5c-0.6,0-1.2,0-1.8,0c-0.6,0-1.2,0-1.8,0
							c-0.5,0-1.1,0-1.6,0c-0.5,0-1-0.1-1.4-0.4c-0.8-0.6-1-1.8-0.7-2.8c0-0.1,0-0.1-0.1-0.1c-0.9,0-1.5-0.9-1.9-1.6
							c-0.5-0.9-0.8-1.9-1.4-2.8c-0.5-0.8-1.3-1.3-2.1-1.7c-0.5-0.2-1-0.3-1.6-0.4c-0.5-0.1-1.1-0.2-1.6-0.4c-0.5-0.2-1-0.4-1.4-0.7
							c-0.4-0.3-0.8-0.6-1.2-0.9c-0.3-0.4-0.6-0.8-0.5-1.3c0-0.5,0.4-0.9,0.8-1.2c1.7-1.3,3.9-0.8,5.7-0.1c0.5,0.2,1,0.4,1.6,0.7
							c0.2,0.1,0.4,0.2,0.6,0c0.2-0.2,0.1-0.4,0.1-0.6c-0.1-1.2-0.5-2.3-0.8-3.4c-0.3-1.1-0.7-2.3-1-3.4c-0.3-1.1-0.7-2.2-0.7-3.4
							c0-0.9,0.4-1.8,1.1-2.4c0.6-0.6,1.5-0.8,2.3-0.6c0.4,0.1,0.8,0.3,1,0.6c0.3,0.4,0.5,0.8,0.6,1.3c0.3,1.1,0.5,2.3,0.6,3.4
							c0.1,1.2,0.2,2.3,0.2,3.5c0,0.4-0.1,0.9,0.4,1.1c0.2,0.1,0.5,0,0.7,0c0.2,0,0.5-0.1,0.6-0.2c0.8-0.5,0.4-1.6,0.3-2.4
							c-0.2-1.1-0.4-2.3-0.5-3.5c-0.1-1.1-0.3-2.3-0.2-3.4c0-0.5,0.2-1.1,0.4-1.6c0.2-0.4,0.6-0.7,1-0.9c0.4-0.2,0.9-0.4,1.4-0.3
							c0.4,0,0.9,0.1,1.3,0.4c0.4,0.2,0.6,0.6,0.8,1c0.2,0.4,0.2,0.8,0.3,1.2c0.1,0.4,0.1,0.8,0.1,1.2c0,0.5,0,0.9,0,1.4
							c0,1-0.1,2-0.1,3c0,1-0.1,2-0.2,3c0,0.2,0,0.4-0.1,0.6c0,0.1,0,0.3,0.1,0.5c0.1,0.2,0.4,0.2,0.6,0.2c0.2,0,0.4,0.1,0.6,0
							c0.3,0,0.5-0.4,0.6-0.6c0.2-0.4,0.3-0.8,0.3-1.2c0.2-0.9,0-1.9,0.1-2.8c0-1.1,0.2-2.2,0.4-3.3c0.1-0.5,0.3-0.9,0.5-1.3
							c0.2-0.4,0.6-0.8,1.1-0.9c0.5-0.2,1.2,0.1,1.6,0.4c0.6,0.6,0.7,1.6,0.7,2.4c0.1,1.1,0,2.2-0.1,3.3c-0.1,1.1-0.2,2.2-0.4,3.3
							c-0.2,1.1-0.3,2.3-0.3,3.5c0.1,1.2,0.2,2.3,0.3,3.5c0.1,2-0.4,3.9-1.5,5.6c-0.5,0.8-1.1,1.5-1.8,2.1
							C214.9,28.9,215.1,29.1,215.2,29z"/>
					</g>
				</g>
			</g>
			<g>
				<path class="st35" d="M205.8,29.2c0.7,0.3,1.6,0.3,2.3,0.2"/>
				<g>
					<path class="st36" d="M205.7,29.3c0.8,0.3,1.6,0.3,2.4,0.2c0.1,0,0.1-0.3-0.1-0.2c-0.8,0.2-1.5,0.1-2.3-0.2
						C205.7,29,205.6,29.2,205.7,29.3L205.7,29.3z"/>
				</g>
			</g>
			<g>
				<path class="st35" d="M212.8,29.1c0.9,0,1.8-0.2,2.7-0.6"/>
				<g>
					<path class="st36" d="M212.8,29.2c0.9,0,1.9-0.2,2.7-0.6c0.1-0.1,0.1-0.3-0.1-0.2c-0.8,0.3-1.7,0.5-2.7,0.5
						C212.6,29,212.6,29.2,212.8,29.2L212.8,29.2z"/>
				</g>
			</g>
			<g>
				<path class="st35" d="M205.2,15.8c1.2-1.1,3-1.4,4.6-1.3c1.6,0.1,3.2,0.6,4.8,1.2"/>
				<g>
					<path class="st36" d="M205.3,15.9c0.9-0.8,2-1.2,3.2-1.3c1.3-0.1,2.6,0.1,3.8,0.4c0.8,0.2,1.5,0.5,2.2,0.7
						c0.1,0.1,0.2-0.2,0.1-0.2c-1.3-0.5-2.7-0.9-4.1-1.1c-1.2-0.2-2.5-0.1-3.7,0.3c-0.6,0.2-1.2,0.6-1.7,1
						C205,15.8,205.2,16,205.3,15.9L205.3,15.9z"/>
				</g>
			</g>
		</g>
		<g>
			<path class="st35" d="M202.2,18.4c0.5-0.1,1.1,0.2,1.5,0.5c0.7,0.5,1.5,1,2,1.7c0.5,0.7,0.9,1.6,0.7,2.5"/>
			<g>
				<path class="st36" d="M202.2,18.6c0.5-0.1,0.9,0.1,1.3,0.4c0.4,0.2,0.7,0.5,1.1,0.7c0.7,0.5,1.3,1.2,1.6,2
					c0.2,0.4,0.2,0.9,0.1,1.4c0,0.1,0.2,0.2,0.2,0.1c0.2-0.9-0.1-1.8-0.7-2.5c-0.6-0.8-1.4-1.3-2.2-1.8c-0.5-0.3-1-0.5-1.5-0.4
					C202,18.4,202,18.6,202.2,18.6L202.2,18.6z"/>
			</g>
		</g>
	</g>
	<g>
		<g>
			<path class="st15" d="M132.2,66.2c-1.3-1.3-2.8-2.4-4.2-3.5c-1.3-1-2.6-1.9-3.9-2.8c-0.7-0.5-1.5-1.1-2.2-1.6
				c0.3,0.2,0.5,0.4,0.8,0.6c-1.3-1-2.5-2-3.6-3.2c-0.3-0.3-0.5-0.6-0.8-0.9c0.2,0.3,0.4,0.5,0.6,0.8c-0.3-0.4-0.6-0.9-0.8-1.4
				c0.1,0.3,0.3,0.6,0.4,0.9c-0.4-1-0.7-2.2-0.8-3.3c0,0.3,0.1,0.7,0.1,1c-0.2-1.4-0.2-2.8-0.2-4.2c0-1.3,0.1-2.7,0.2-4
				c0.1-0.6,0.1-1.3,0.2-1.9c0,0.3-0.1,0.7-0.1,1c0.1-0.8,0.2-1.5,0.4-2.3c0,0,0-0.1,0-0.1c0.2-0.5,0.2-1,0.1-1.5
				c0-0.5-0.2-1-0.4-1.4c-0.2-0.4-0.6-0.8-1-1.1c-0.4-0.3-0.8-0.6-1.3-0.7c-0.3,0-0.7-0.1-1-0.1c-0.7,0-1.3,0.2-1.9,0.5
				c-0.3,0.2-0.5,0.4-0.8,0.6c-0.5,0.5-0.8,1-1,1.7c-0.2,1.2-0.4,2.4-0.5,3.6c-0.3,2-0.4,4-0.4,5.9c0,1.1,0,2.2,0.1,3.3
				c0.1,1.3,0.3,2.7,0.7,4c0.2,0.7,0.5,1.5,0.9,2.2c0.2,0.4,0.4,0.7,0.6,1.1c0.6,0.8,1.2,1.5,1.9,2.3c0.5,0.5,1.1,1,1.6,1.5
				c2.6,2.2,5.4,4,8.1,6c0.3,0.2,0.6,0.4,0.9,0.6c-0.3-0.2-0.5-0.4-0.8-0.6c1,0.8,2,1.6,2.9,2.5c0.3,0.4,0.7,0.6,1.2,0.8
				c0.5,0.2,0.9,0.3,1.5,0.3c0.5,0,1-0.1,1.5-0.3c0.5-0.2,0.9-0.4,1.2-0.8c0.2-0.3,0.4-0.5,0.6-0.8c0.3-0.6,0.5-1.2,0.5-1.9
				c0-0.3-0.1-0.7-0.1-1C133,67.2,132.7,66.6,132.2,66.2L132.2,66.2z"/>
		</g>
	</g>
	<g>
		<g>
			<g>
				<g>
					<path class="st35" d="M110.8,36.1c-1.8-2-2.8-4.7-2.6-7.4c0.1-1.7,0.6-3.3,0.8-4.9c0.1-1.2,0-2.4-0.1-3.7
						c0-2.1-0.2-4.5,0.3-6.6c0.4-1.7,1.4-1.9,2.2-1.9c0.6,0,1.1,0.6,1.4,1.1c0.3,0.5,0.4,1.2,0.5,1.8c0.2,1.5,0.2,2.8,0,4.3
						c-0.1,0.9-0.1,1.3,0,2.1c0.1,0.7,0.2,1.1,0.5,1.4c0.1,0.1,0.5,0.1,1,0c0.3-0.1,0.2-0.5,0.2-0.8c0.1-2.9,0.2-6.5,0.6-8.7
						c0.2-0.6,0.5-1.6,1-2c0.5-0.4,1.1-0.5,1.8-0.6c0.6,0,1.4,0.3,1.9,0.7c0.4,0.3,0.6,0.7,0.7,1.2c0.3,1.1,0.1,2.3-0.2,3.5
						c-0.3,1.6-0.6,3.2-1.1,4.8c-0.2,0.6-0.4,1.4,0,1.9c0.3,0.3,0.6,0.3,1,0.4c0.1,0,0.3,0,0.4,0c0.2-0.1,0.2-0.4,0.3-0.6
						c0.1-2.4,0.6-4.7,1.4-7c0.1-0.3,0.2-0.7,0.4-1c0.6-1,2-1.3,3.1-0.8c1,0.5,1.7,1.7,1.7,2.8c0,1.1-0.4,2.2-0.8,3.2
						c-0.7,1.6-1.3,3.2-2,4.8c-0.3,0.8-0.7,1.6-0.7,2.5c0,0.1,0,0.2,0.1,0.3c0.1,0.1,0.3,0.1,0.4,0c1.3-0.4,2.6-0.9,4-1
						c1.4-0.1,2.8,0.3,3.7,1.3c0.2,0.2,0.3,0.4,0.4,0.7c0.3,0.9-0.5,1.8-1.3,2.3c-0.9,0.5-1.9,0.9-2.9,1c-0.6,0.1-1.3,0.1-1.9,0.2
						c-1,0.2-2,0.8-2.7,1.6c-0.6,0.7-0.9,1.6-1.5,2.4s-1.3,1.7-2.2,1.6c0.3,1.2-0.3,2.7-1.5,3c-0.6,0.2-1.6,0.1-2.2,0
						c-1.3-0.2-2.4-0.2-3.9-0.4c-1.6-0.1-2.3-2.2-1.8-3.4L110.8,36.1z"/>
					<g>
						<path class="st36" d="M110.8,36c-1.3-1.4-2.2-3.3-2.5-5.2c-0.2-1-0.1-2.1,0-3.1c0.2-1.1,0.4-2.2,0.6-3.3
							c0.2-1.2,0.1-2.3,0-3.5c0-1.1-0.1-2.2-0.1-3.3c0-1.1,0-2.2,0.2-3.3c0.1-0.8,0.3-1.8,1-2.3c0.4-0.3,1.2-0.5,1.7-0.2
							c0.9,0.5,1.2,1.5,1.3,2.4c0.2,1.1,0.2,2.3,0.1,3.4c-0.1,1-0.3,1.9-0.2,2.8c0.1,0.4,0.1,0.9,0.2,1.2c0.1,0.3,0.3,0.6,0.6,0.6
							c0.2,0,0.4,0,0.6,0c0.2,0,0.4,0,0.5-0.2c0.1-0.1,0.1-0.3,0.1-0.5c0-0.2,0-0.4,0-0.6c0.1-2,0.1-4,0.3-6c0-0.5,0.1-0.9,0.1-1.4
							c0-0.4,0.1-0.8,0.2-1.2c0.1-0.4,0.2-0.8,0.4-1.2c0.2-0.4,0.5-0.7,0.9-0.9c0.4-0.2,0.9-0.2,1.4-0.2c0.5,0,1,0.2,1.4,0.5
							c0.4,0.3,0.7,0.6,0.9,1.1c0.2,0.5,0.2,1.1,0.2,1.6c0,0.6-0.1,1.2-0.2,1.7c-0.1,0.6-0.2,1.1-0.3,1.7c-0.2,1.1-0.5,2.2-0.8,3.3
							c-0.2,0.7-0.6,1.8,0.3,2.3c0.2,0.1,0.4,0.2,0.6,0.2c0.2,0,0.4,0.1,0.6,0c0.4-0.2,0.3-0.8,0.4-1.2c0.2-2.3,0.6-4.5,1.4-6.7
							c0.2-0.5,0.4-0.9,0.8-1.2c0.3-0.3,0.7-0.4,1.1-0.5c0.9-0.1,1.7,0.2,2.3,0.8c0.6,0.7,0.9,1.7,0.8,2.6c-0.1,1.1-0.6,2.2-1,3.2
							c-0.5,1.1-0.9,2.2-1.4,3.3c-0.4,1-0.9,2.1-1.1,3.2c0,0.2-0.1,0.5,0,0.7c0.1,0.2,0.3,0.2,0.5,0.1c0.5-0.2,1.1-0.4,1.6-0.5
							c1-0.3,2.1-0.5,3.2-0.5c0.9,0.1,1.9,0.4,2.6,1c0.4,0.3,0.7,0.7,0.7,1.2c0,0.5-0.3,0.9-0.6,1.2c-0.3,0.4-0.8,0.6-1.2,0.9
							c-0.5,0.2-1,0.4-1.5,0.6c-0.5,0.1-1.1,0.2-1.6,0.2c-0.5,0-1.1,0.1-1.6,0.2c-0.9,0.3-1.7,0.8-2.3,1.5c-0.7,0.8-1,1.8-1.6,2.6
							c-0.5,0.6-1.1,1.5-2,1.5c-0.1,0-0.1,0.1-0.1,0.1c0.2,0.9,0,1.9-0.7,2.5c-0.4,0.3-0.8,0.4-1.3,0.5c-0.5,0-1.1,0-1.6-0.1
							c-1.2-0.2-2.5-0.2-3.7-0.4c-0.4,0-0.8-0.1-1.1-0.4c-0.3-0.3-0.5-0.6-0.6-1c-0.2-0.4-0.2-0.8-0.2-1.3c0-0.2,0.1-0.4,0.1-0.5
							C111.1,36.3,110.9,36.2,110.8,36c-0.1-0.1-0.3,0-0.2,0.1c0.1,0.1,0.1,0.2,0.2,0.3c0,0,0-0.1,0-0.1c-0.3,0.7-0.1,1.5,0.2,2.2
							c0.2,0.4,0.4,0.7,0.7,0.9c0.3,0.3,0.7,0.3,1.1,0.4c1.3,0.1,2.6,0.2,3.8,0.4c0.5,0.1,1.1,0.1,1.6,0.1c0.5,0,0.9-0.2,1.3-0.5
							c0.8-0.7,1.1-1.8,0.8-2.8c0,0-0.1,0.1-0.1,0.1c0.9,0,1.6-0.7,2.1-1.4c0.3-0.4,0.6-0.8,0.8-1.3c0.3-0.5,0.5-1,0.9-1.4
							c0.6-0.8,1.5-1.3,2.4-1.6c0.6-0.1,1.1-0.2,1.7-0.2c0.5,0,1.1-0.1,1.6-0.3c1-0.3,2-0.7,2.7-1.5c0.3-0.3,0.5-0.7,0.6-1.2
							c0.1-0.5-0.2-0.9-0.5-1.3c-0.6-0.7-1.5-1.1-2.4-1.3c-1-0.2-2.1-0.1-3,0.1c-0.6,0.1-1.1,0.3-1.7,0.5c-0.3,0.1-0.5,0.2-0.8,0.3
							c-0.1,0-0.1,0-0.2,0c-0.1,0-0.1-0.1-0.1-0.2c0-0.1,0-0.3,0-0.4c0.1-0.6,0.3-1.1,0.5-1.6c0.2-0.5,0.4-1.1,0.7-1.6
							c0.5-1.1,0.9-2.2,1.4-3.3c0.4-1,0.9-2.1,1-3.2c0.1-1.7-1.1-3.6-3-3.6c-0.8,0-1.6,0.4-2,1.1c-0.3,0.5-0.4,1-0.6,1.5
							c-0.2,0.6-0.3,1.1-0.5,1.7c-0.3,1.1-0.5,2.2-0.6,3.4c0,0.3-0.1,0.6-0.1,0.9c0,0.3,0,0.5-0.1,0.8c0,0.1-0.1,0.2-0.1,0.3
							c-0.1,0.1-0.3,0-0.4,0c-0.2,0-0.5-0.1-0.7-0.2c-0.4-0.2-0.5-0.7-0.4-1.2c0.1-0.5,0.3-1,0.4-1.5c0.3-1.1,0.6-2.3,0.8-3.4
							c0.2-1.1,0.5-2.3,0.4-3.4c0-0.5-0.1-1-0.4-1.5c-0.2-0.4-0.6-0.7-1-0.9c-0.4-0.2-0.9-0.4-1.4-0.4c-0.4,0-0.9,0.1-1.3,0.2
							c-0.4,0.2-0.7,0.4-0.9,0.8c-0.2,0.4-0.4,0.8-0.5,1.2c-0.2,0.8-0.3,1.6-0.4,2.5c-0.1,1-0.1,2-0.2,3c0,1-0.1,2.1-0.1,3.1
							c0,0.2,0,0.5,0,0.7c0,0.2,0,0.4,0,0.6c0,0.1-0.1,0.1-0.2,0.1c-0.1,0-0.3,0-0.4,0c-0.1,0-0.2,0-0.3,0c-0.1,0-0.1,0-0.1-0.1
							c-0.2-0.3-0.3-0.7-0.4-1c-0.1-0.4-0.1-0.8-0.1-1.3c0-0.5,0.1-1,0.2-1.5c0.1-0.6,0.1-1.2,0.1-1.8c0-0.6,0-1.2-0.1-1.8
							c-0.1-0.5-0.1-1-0.3-1.4c-0.1-0.4-0.4-0.8-0.7-1.2c-0.3-0.3-0.7-0.6-1.1-0.6c-0.6,0-1.1,0.1-1.5,0.5c-0.7,0.6-0.8,1.6-0.9,2.4
							c-0.2,1.1-0.2,2.2-0.2,3.3c0,1.1,0,2.2,0.1,3.4c0.1,1.2,0.1,2.4-0.1,3.6c-0.2,1.1-0.5,2.2-0.6,3.4c-0.3,2,0.1,4,1,5.9
							c0.4,0.9,1,1.7,1.6,2.4C110.8,36.3,111,36.1,110.8,36z"/>
					</g>
				</g>
			</g>
			<g>
				<path class="st35" d="M120,37.3c-0.8,0.2-1.6,0.2-2.3-0.1"/>
				<g>
					<path class="st36" d="M120,37.2c-0.7,0.2-1.5,0.2-2.3-0.1c-0.1,0-0.2,0.2-0.1,0.2c0.8,0.3,1.6,0.3,2.4,0.1
						C120.2,37.3,120.1,37.1,120,37.2L120,37.2z"/>
				</g>
			</g>
			<g>
				<path class="st35" d="M113,36.6c-0.9-0.1-1.8-0.4-2.6-0.8"/>
				<g>
					<path class="st36" d="M113,36.4c-0.9-0.1-1.8-0.4-2.6-0.8c-0.1-0.1-0.3,0.1-0.1,0.2c0.8,0.4,1.8,0.7,2.7,0.8
						C113.2,36.7,113.2,36.5,113,36.4L113,36.4z"/>
				</g>
			</g>
			<g>
				<path class="st35" d="M121.8,24c-1.1-1.2-2.8-1.7-4.5-1.8s-3.3,0.3-4.9,0.7"/>
				<g>
					<path class="st36" d="M121.9,23.9c-0.8-0.9-1.9-1.4-3.1-1.6c-1.3-0.3-2.7-0.2-4,0c-0.8,0.1-1.6,0.3-2.4,0.5
						c-0.1,0-0.1,0.3,0.1,0.2c1.4-0.3,2.7-0.7,4.2-0.7c1.2,0,2.4,0.1,3.5,0.6c0.6,0.3,1.1,0.6,1.6,1.1
						C121.8,24.2,122,24.1,121.9,23.9L121.9,23.9z"/>
				</g>
			</g>
		</g>
		<g>
			<path class="st35" d="M124.6,26.9c-0.5-0.2-1.1,0.1-1.5,0.3c-0.8,0.4-1.6,0.8-2.2,1.5c-0.6,0.6-1,1.5-0.9,2.4"/>
			<g>
				<path class="st36" d="M124.6,26.8c-0.5-0.1-1,0-1.4,0.2c-0.4,0.2-0.8,0.4-1.2,0.7c-0.8,0.5-1.5,1.1-1.9,2
					c-0.2,0.5-0.3,1-0.3,1.5c0,0.1,0.3,0.2,0.2,0c-0.1-0.9,0.3-1.7,0.9-2.3c0.6-0.6,1.4-1.1,2.1-1.5c0.4-0.2,1-0.5,1.5-0.3
					C124.7,27.1,124.8,26.8,124.6,26.8L124.6,26.8z"/>
			</g>
		</g>
	</g>
	<g id="Manga_2_">
		<g>
			<path class="st21" d="M126.8,57.9l-8,8.1c-0.4,0.5-0.4,1.1-0.1,1.3l13.7,7.2c0.3,0.2,0.8,0,1.1-0.4l3.8-3
				c0.3-0.4,0.4-0.9,0.2-1.2L128,57.7C127.8,57.3,127.2,57.5,126.8,57.9z"/>
		</g>
		<g>
			<path class="st16" d="M126.7,57.9l-8.1,8.1c-0.4,0.5-0.4,1.1-0.1,1.3l0.1,0c1,0.5,1.8-0.1,2.5-0.9l6.3-6.1
				c0.7-0.9,1.2-1.8,0.5-2.7l0,0C127.7,57.3,127.1,57.5,126.7,57.9z"/>
		</g>
	</g>
	<g id="Manga_1_" class="st12">
		<g class="st13">
			<path class="st21" d="M135.3,54.5L124.2,57c-0.6,0.2-1,0.7-0.7,1l7.7,13.4c0.2,0.3,0.7,0.4,1.1,0.3l4.8-0.5
				c0.5-0.2,0.8-0.5,0.8-0.9l-1.3-15.4C136.5,54.5,135.9,54.3,135.3,54.5z"/>
		</g>
		<g class="st13">
			<path class="st16" d="M135.3,54.5L124.1,57c-0.6,0.2-1,0.7-0.7,1l0,0.1c0.6,1,1.6,0.9,2.6,0.6l8.6-1.7c1.1-0.3,2-0.9,1.8-2l0,0
				C136.5,54.5,135.9,54.3,135.3,54.5z"/>
		</g>
	</g>
	
		<rect id="Brazo_2_" x="123.9" y="30.9" transform="matrix(0.9788 -0.205 0.205 0.9788 -6.4171 27.0339)" class="st37" width="6.7" height="27.1"/>
	<g class="st12">
		<g class="st13">
			<g>
				<g>
					<path class="st35" d="M129,30.9c1.7-2.1,2.5-4.9,2.1-7.6c-0.2-1.7-0.9-3.2-1.1-4.9c-0.2-1.2-0.1-2.4-0.2-3.7
						c-0.1-2.1-0.1-4.5-0.7-6.6c-0.5-1.7-1.5-1.8-2.3-1.8c-0.6,0.1-1.1,0.6-1.3,1.2c-0.3,0.5-0.4,1.2-0.4,1.8
						c-0.1,1.5,0,2.8,0.3,4.3c0.2,0.9,0.2,1.3,0.2,2.1c-0.1,0.7-0.1,1.1-0.4,1.4c-0.1,0.1-0.5,0.1-1,0.1c-0.3,0-0.2-0.5-0.2-0.8
						c-0.3-2.9-0.6-6.5-1.2-8.7c-0.2-0.6-0.6-1.6-1.1-2c-0.6-0.4-1.1-0.4-1.8-0.4c-0.6,0-1.4,0.4-1.8,0.9c-0.3,0.3-0.5,0.8-0.6,1.2
						c-0.2,1.2,0.1,2.3,0.4,3.5c0.4,1.6,0.8,3.2,1.4,4.7c0.3,0.6,0.5,1.4,0.1,1.9c-0.2,0.3-0.6,0.4-1,0.4c-0.1,0-0.3,0.1-0.4,0
						c-0.2-0.1-0.3-0.4-0.3-0.6c-0.3-2.4-0.9-4.7-1.8-6.9c-0.1-0.3-0.3-0.7-0.5-0.9c-0.7-0.9-2.1-1.1-3.1-0.6s-1.6,1.8-1.5,2.9
						c0,1.1,0.5,2.1,1,3.1c0.8,1.6,1.5,3.1,2.3,4.7c0.4,0.8,0.8,1.6,0.9,2.4c0,0.1,0,0.2-0.1,0.3c-0.1,0.1-0.2,0.1-0.4,0
						c-1.3-0.3-2.7-0.7-4-0.7c-1.4,0-2.8,0.5-3.6,1.6c-0.2,0.2-0.3,0.5-0.4,0.7c-0.2,0.9,0.6,1.7,1.5,2.2c0.9,0.5,2,0.8,3,0.8
						c0.6,0,1.3,0,1.9,0.1c1,0.1,2,0.7,2.8,1.5c0.6,0.7,1,1.5,1.6,2.3s1.4,1.6,2.3,1.5c-0.2,1.2,0.5,2.7,1.7,2.9
						c0.6,0.1,1.6,0,2.2-0.1c1.3-0.3,2.4-0.4,3.8-0.6c1.6-0.2,2.1-2.3,1.6-3.5L129,30.9z"/>
					<g>
						<path class="st36" d="M129.1,31c1.2-1.5,2-3.4,2.2-5.4c0.1-1,0-2-0.2-3c-0.2-1.1-0.6-2.2-0.8-3.3c-0.2-1.2-0.3-2.4-0.3-3.6
							c0-1.1-0.1-2.2-0.1-3.3c-0.1-1.1-0.2-2.2-0.4-3.2c-0.2-0.8-0.4-1.8-1.1-2.4c-0.4-0.4-1-0.5-1.6-0.4c-0.9,0.1-1.5,1.1-1.7,1.9
							c-0.1,0.5-0.2,1-0.2,1.5c0,0.6,0,1.2,0,1.7c0,0.6,0.1,1.1,0.2,1.7c0.1,0.5,0.2,1,0.3,1.5c0,0.4,0,0.8,0,1.3
							c0,0.4-0.1,0.8-0.3,1.1c0,0.1-0.1,0.1-0.1,0.1c-0.1,0-0.2,0-0.3,0c-0.1,0-0.2,0-0.3,0c-0.1,0-0.3,0-0.3-0.1
							c-0.1-0.1,0-0.4-0.1-0.5c0-0.2,0-0.4-0.1-0.7c-0.2-2-0.4-4-0.7-6c-0.1-0.8-0.3-1.7-0.5-2.5c-0.1-0.4-0.3-0.8-0.6-1.2
							c-0.2-0.4-0.6-0.6-1-0.8c-0.4-0.2-0.9-0.2-1.4-0.2c-0.5,0-0.9,0.2-1.3,0.5c-0.4,0.2-0.8,0.6-1,1c-0.2,0.5-0.3,1-0.3,1.5
							c0,1.2,0.3,2.3,0.6,3.4c0.3,1.1,0.6,2.2,1,3.3c0.2,0.5,0.4,1,0.5,1.5c0.1,0.5,0.1,1-0.3,1.3c-0.2,0.1-0.4,0.2-0.7,0.2
							c-0.1,0-0.3,0.1-0.4,0c-0.1-0.1-0.1-0.2-0.1-0.3c-0.1-0.2-0.1-0.5-0.1-0.8c0-0.3-0.1-0.6-0.1-0.9c-0.2-1.1-0.5-2.2-0.8-3.3
							c-0.2-0.5-0.4-1.1-0.6-1.6c-0.2-0.5-0.4-1-0.7-1.5c-0.5-0.7-1.3-1-2.1-1c-0.9,0-1.6,0.5-2.1,1.2c-0.5,0.8-0.7,1.7-0.6,2.6
							c0.1,1.1,0.7,2.1,1.1,3.1c0.5,1.1,1.1,2.2,1.6,3.3c0.3,0.5,0.5,1.1,0.8,1.6c0.2,0.5,0.5,1,0.6,1.6c0,0.1,0.1,0.3,0.1,0.4
							c0,0,0,0.1,0,0.2c0,0.1-0.1,0-0.2,0c-0.3-0.1-0.6-0.1-0.8-0.2c-0.6-0.1-1.1-0.3-1.7-0.4c-1-0.2-2.1-0.2-3.1,0.1
							c-0.9,0.2-1.7,0.7-2.3,1.4c-0.3,0.4-0.5,0.8-0.4,1.3c0.1,0.4,0.3,0.8,0.6,1.1c0.7,0.7,1.8,1.1,2.7,1.3
							c0.5,0.1,1.1,0.2,1.6,0.2c0.6,0,1.2,0,1.8,0.1c1,0.2,1.9,0.7,2.5,1.4c0.4,0.4,0.6,0.9,0.9,1.3c0.3,0.4,0.6,0.8,0.9,1.2
							c0.5,0.6,1.3,1.4,2.2,1.3c0,0-0.1-0.1-0.1-0.1c-0.1,0.9,0.1,1.9,0.8,2.6c0.8,0.7,1.9,0.6,2.9,0.4c0.6-0.1,1.2-0.2,1.8-0.3
							c0.6-0.1,1.3-0.2,1.9-0.3c0.5-0.1,0.9-0.1,1.3-0.4c0.3-0.2,0.6-0.5,0.7-0.9c0.4-0.7,0.5-1.7,0.1-2.5c0,0,0,0.1,0,0.1
							C129,31.2,129.1,31.1,129.1,31c0.1-0.2-0.1-0.3-0.2-0.1c-0.1,0.1-0.2,0.2-0.2,0.3c0,0.1,0.1,0.2,0.1,0.2
							c0,0.1,0.1,0.2,0.1,0.3c0.1,0.4,0.1,0.8,0,1.1c-0.1,0.7-0.6,1.5-1.3,1.7c-0.3,0.1-0.5,0.1-0.8,0.1c-0.3,0.1-0.6,0.1-0.9,0.1
							c-0.6,0.1-1.2,0.2-1.8,0.3c-0.6,0.1-1.1,0.2-1.7,0.3c-0.5,0-1,0.1-1.5-0.1c-1-0.5-1.4-1.7-1.2-2.7c0-0.1,0-0.2-0.1-0.1
							c-0.9,0.1-1.7-0.8-2.2-1.4c-0.7-0.8-1.1-1.7-1.8-2.5c-0.7-0.7-1.5-1.1-2.5-1.3c-0.6-0.1-1.1-0.1-1.7-0.1
							c-0.6,0-1.1-0.1-1.7-0.2c-1-0.2-2-0.6-2.7-1.3c-0.3-0.3-0.5-0.7-0.5-1.2c0.1-0.5,0.4-0.9,0.8-1.2c1.6-1.4,3.9-1.2,5.8-0.7
							c0.3,0.1,0.6,0.1,0.8,0.2c0.2,0.1,0.5,0.2,0.7,0.2c0.6,0,0.3-0.7,0.3-1c-0.1-0.5-0.4-1-0.6-1.5c-0.3-0.5-0.5-1-0.8-1.6
							c-0.5-1.1-1-2.1-1.6-3.2c-0.5-1-1-2-1.2-3.1c-0.1-0.9,0.1-1.9,0.7-2.6c0.6-0.7,1.4-1,2.3-0.9c0.4,0.1,0.8,0.2,1.1,0.5
							c0.4,0.3,0.6,0.8,0.8,1.3c0.4,1,0.8,2.1,1.1,3.2c0.3,1.1,0.5,2.2,0.7,3.3c0.1,0.4,0,1,0.5,1.1c0.2,0.1,0.5,0,0.7-0.1
							c0.2-0.1,0.4-0.1,0.6-0.3c0.8-0.6,0.2-1.8-0.1-2.5c-0.4-1.1-0.7-2.1-1-3.2c-0.3-1.1-0.7-2.2-0.7-3.4c0-0.5,0-1.1,0.2-1.6
							c0.2-0.5,0.5-0.8,0.9-1.1c0.4-0.3,0.9-0.5,1.4-0.5c0.5,0,1,0,1.4,0.3c0.4,0.2,0.6,0.5,0.8,0.9c0.2,0.4,0.4,0.8,0.5,1.2
							c0.2,0.8,0.3,1.7,0.5,2.6c0.1,1,0.3,2,0.4,3c0.1,1,0.2,2,0.3,3c0,0.3-0.1,0.7,0.2,0.9c0.2,0.1,0.5,0.1,0.6,0.1
							c0.2,0,0.4,0,0.5-0.1c0.1-0.1,0.2-0.2,0.3-0.3c0.1-0.1,0.1-0.3,0.2-0.5c0.1-0.4,0.1-0.9,0.1-1.3c0-0.4,0-0.8-0.1-1.2
							c-0.1-0.6-0.2-1.1-0.3-1.7c-0.1-1.1-0.2-2.2-0.1-3.3c0-0.5,0.1-1,0.4-1.4c0.2-0.4,0.5-0.8,0.9-1c0.3-0.1,0.6-0.1,0.9-0.1
							c0.3,0,0.5,0.1,0.8,0.3c0.7,0.5,0.9,1.5,1.1,2.4c0.2,1.1,0.3,2.1,0.4,3.2c0.1,1.1,0.1,2.2,0.1,3.3c0,1.2,0.1,2.3,0.3,3.4
							c0.2,1.1,0.6,2.2,0.8,3.3c0.4,2,0.3,4-0.5,5.9c-0.4,0.9-0.8,1.7-1.4,2.5C128.8,31,129,31.1,129.1,31z"/>
					</g>
				</g>
			</g>
			<g>
				<path class="st35" d="M119.9,32.7c0.8,0.2,1.6,0.1,2.3-0.2"/>
				<g>
					<path class="st36" d="M119.8,32.8c0.8,0.2,1.6,0.1,2.4-0.2c0.1-0.1,0.1-0.3-0.1-0.2c-0.7,0.3-1.5,0.4-2.3,0.2
						C119.7,32.6,119.7,32.8,119.8,32.8L119.8,32.8z"/>
				</g>
			</g>
			<g>
				<path class="st35" d="M126.8,31.5c0.9-0.2,1.8-0.5,2.6-1"/>
				<g>
					<path class="st36" d="M126.8,31.7c0.9-0.2,1.8-0.5,2.6-1c0.1-0.1,0-0.3-0.1-0.2c-0.8,0.5-1.6,0.8-2.5,1
						C126.6,31.5,126.6,31.7,126.8,31.7L126.8,31.7z"/>
				</g>
			</g>
			<g>
				<path class="st35" d="M117.2,19.6c1.1-1.3,2.7-1.9,4.3-2.1c1.6-0.2,3.3,0.1,4.9,0.4"/>
				<g>
					<path class="st36" d="M117.2,19.7c0.7-0.9,1.8-1.5,2.9-1.8c1.3-0.4,2.6-0.4,3.9-0.2c0.8,0.1,1.6,0.2,2.4,0.4
						c0.1,0,0.2-0.2,0.1-0.2c-1.4-0.3-2.9-0.5-4.3-0.5c-1.2,0-2.4,0.3-3.5,0.9c-0.6,0.3-1.1,0.7-1.5,1.2
						C117,19.7,117.2,19.8,117.2,19.7L117.2,19.7z"/>
				</g>
			</g>
		</g>
		<g class="st13">
			<path class="st35" d="M114.6,22.7c0.5-0.2,1.1,0,1.6,0.2c0.8,0.4,1.6,0.7,2.3,1.3c0.6,0.6,1.1,1.4,1.1,2.3"/>
			<g>
				<path class="st36" d="M114.6,22.8c0.4-0.2,0.9,0,1.3,0.1c0.4,0.2,0.8,0.4,1.2,0.6c0.8,0.4,1.5,1,1.9,1.7
					c0.2,0.4,0.3,0.9,0.3,1.3c0,0.2,0.2,0.2,0.2,0c0-0.9-0.4-1.7-1-2.3c-0.7-0.7-1.6-1.1-2.5-1.5c-0.5-0.2-1-0.4-1.6-0.2
					C114.4,22.6,114.5,22.9,114.6,22.8L114.6,22.8z"/>
			</g>
		</g>
	</g>
</g>
<g id="medalla">
	
		<image style="display:none;overflow:visible;enable-background:new    ;" width="5119" height="5119" xlink:href="24B279D9.jpg"  transform="matrix(1.628634e-02 0 0 1.628634e-02 132.5417 36.2956)">
	</image>
	<g>
		<polygon class="st38" points="129.1,60 129.1,63.7 129.5,67.3 171.9,95.8 173.5,93 		"/>
		<g>
			<path class="st39" d="M168.7,92.4c0,0-0.5-1.3,0.3-2.3c0.8-0.9,2.8-0.8,2.9-0.8s2,0,2.5,0.7c0.5,0.6,0.9,1.8,0.5,2.5
				c-0.4,0.7-0.7-0.4-0.7-0.4s0.4-1.2-0.3-1.5c-0.7-0.3-4.3-0.1-4.3-0.1s-0.7,0.6-0.3,1.7C169.8,93.3,168.7,92.4,168.7,92.4z"/>
			<ellipse class="st40" cx="171.8" cy="98.3" rx="6.7" ry="6.6"/>
			<ellipse class="st41" cx="171.8" cy="98.3" rx="5.1" ry="5.1"/>
		</g>
		<path class="st42" d="M171.8,91.6L197,70.8c0,0,0.6,0.7-0.9,3.6c-1.4,2.9-22.2,17.8-22.2,17.8L171.8,91.6z"/>
	</g>
	<g>
		<text transform="matrix(1 0 0 1 167.4834 98.3203)" class="st43 st44 st45">ExpoCiencias</text>
		<text transform="matrix(1 0 0 1 170.1104 100.0195)" class="st43 st44 st45">UTCV</text>
	</g>
</g>
<g id="mancha_00000044136530632709114060000001436352134635130788_">
	<path class="st46" d="M-11.2,104.1c8.8-3.5,10.7-7.5,16.7-6.7c6.1,0.9,11.6,6.3,14.3,12.1c2.5,5.4-0.6,7.9,1.8,12.1
		c3,5.1,9.8,6.4,14.6,7.3c12.2,2.3,15.1-2.4,22.2,0.6c8.3,3.5,13.9,14,11.5,19.5c-1.9,4.2-7.6,3.4-8.7,7.6
		c-1.2,4.4,4.8,6.8,5.4,13.4c0.6,6.2-3.7,14.4-10.9,16.1c-5.1,1.2-7.2-4.2-12.4-3.3c-5.6,0.9-11.1,7.9-10,12.8
		c1.5,6.4,13.3,4.8,19.5,13.9c0.7,1.1,6,8.6,3,14.6c-2.7,5.3-11,7.4-16.7,5.5c-4.2-1.3-4.5-4-8.5-4.6c-4.3-0.6-9.8,1.7-11.3,5.4
		c-2.1,5.3,5.3,9.9,3.4,14c-2.3,4.9-16.6,6.2-21.9,0c-5.1-6.1,0.6-17.1-3.1-18.8c-1.9-0.9-4.3,1.6-10.3,5.8
		c-9.9,6.8-15.3,10.4-20,9.4c-8.3-1.9-13.6-17.9-9.5-22.5c2.6-2.8,7.4,0.2,11.6-3.3c3.3-2.8,5.1-8.9,3-12.5
		c-4.2-7.4-21.3-0.5-25.2-7.2c-3.7-6.3,9.5-15.9,6.1-24c-3.7-8.8-21.9-3.7-26.7-13.1c-3.8-7.5,2.3-21.1,11.3-25.2
		c8.1-3.7,15.1,2,19.1-2.1c4.9-5-3.5-14.9,1.2-21.3C-37.3,103.4-27.3,110.5-11.2,104.1z"/>
</g>
<g id="mancha_00000050633632433690532550000001384187961817614523_">
	<path class="st47" d="M303.5-86.1c8.8-3.5,10.7-7.5,16.7-6.7c6.1,0.9,11.6,6.3,14.3,12.1c2.5,5.4-0.6,7.9,1.8,12.1
		c3,5.1,9.8,6.4,14.6,7.3c12.2,2.3,15.1-2.4,22.2,0.6c8.3,3.5,13.9,14,11.5,19.5c-1.9,4.2-7.6,3.4-8.7,7.6
		c-1.2,4.4,4.8,6.8,5.4,13.4c0.6,6.2-3.7,14.4-10.9,16.1c-5.1,1.2-7.2-4.2-12.4-3.3c-5.6,0.9-11.1,7.9-10,12.8
		c1.5,6.4,13.3,4.8,19.5,13.9c0.7,1.1,6,8.6,3,14.6c-2.7,5.3-11,7.4-16.7,5.5c-4.2-1.3-4.5-4-8.5-4.6c-4.3-0.6-9.8,1.7-11.3,5.4
		c-2.1,5.3,5.3,9.9,3.4,14c-2.3,4.9-16.6,6.2-21.9,0c-5.1-6.1,0.6-17.1-3.1-18.8c-1.9-0.9-4.2,1.6-10.3,5.8
		c-9.9,6.8-15.3,10.4-20,9.4c-8.3-1.9-13.6-17.9-9.5-22.5c2.6-2.8,7.4,0.2,11.6-3.3c3.3-2.8,5.1-8.9,3-12.5
		c-4.2-7.4-21.3-0.5-25.2-7.2c-3.7-6.3,9.5-15.9,6.1-24c-3.7-8.8-21.9-3.7-26.7-13.1c-3.8-7.5,2.3-21.1,11.3-25.2
		c8.1-3.7,15.1,2,19.1-2.1c4.9-5-3.5-14.9,1.2-21.3C277.4-86.9,287.4-79.7,303.5-86.1z"/>
</g>
<rect x="6" y="5" transform="matrix(0.6101 -0.7923 0.7923 0.6101 -6.1977 9.6668)" class="st46" width="1.5" height="12.3"/>
<rect x="59.9" y="11.1" transform="matrix(-0.1229 0.9924 -0.9924 -0.1229 85.2558 -40.784)" class="st46" width="1.5" height="12.3"/>
<rect x="268.9" y="19.4" transform="matrix(0.6101 0.7923 -0.7923 0.6101 125.4126 -203.7206)" class="st46" width="1.5" height="12.3"/>
<rect x="242.7" y="101.5" transform="matrix(0.6101 -0.7923 0.7923 0.6101 9.5893 234.8486)" class="st46" width="1.5" height="12.3"/>
<rect x="53.3" y="68.5" transform="matrix(-0.9924 -0.1229 0.1229 -0.9924 98.5266 155.4446)" class="st46" width="1.5" height="12.3"/>
<rect x="218.2" y="134.2" transform="matrix(-0.6101 -0.7923 0.7923 -0.6101 241.3224 399.528)" class="st46" width="1.5" height="12.3"/>
<rect x="50.7" y="38.3" transform="matrix(0.6101 -0.7923 0.7923 0.6101 -15.1548 58.0838)" class="st46" width="1.5" height="12.3"/>
<rect x="25" y="80" transform="matrix(-0.6101 -0.7923 0.7923 -0.6101 -26.7983 159.1083)" class="st46" width="1.5" height="12.3"/>
<rect x="15" y="26.1" transform="matrix(0.6101 -0.7923 0.7923 0.6101 -19.4458 25.0544)" class="st47" width="1.5" height="12.3"/>
<rect x="-9.5" y="58.8" transform="matrix(-0.6101 -0.7923 0.7923 -0.6101 -65.5381 97.7352)" class="st47" width="1.5" height="12.3"/>
<rect x="243.3" y="48.1" transform="matrix(0.6101 -0.7923 0.7923 0.6101 52.2194 214.5545)" class="st47" width="1.5" height="12.3"/>
<rect x="237.7" y="74.1" transform="matrix(-0.9072 0.4207 -0.4207 -0.9072 488.5341 52.7742)" class="st47" width="1.5" height="12.3"/>
<rect x="252.1" y="123.5" transform="matrix(-0.6385 -0.7696 0.7696 -0.6385 314.4893 406.9732)" class="st47" width="1.5" height="12.3"/>
<rect x="283.8" y="139.2" transform="matrix(-0.9072 0.4207 -0.4207 -0.9072 603.8762 157.5497)" class="st47" width="1.5" height="12.3"/>
<rect x="69.6" y="105.9" transform="matrix(-0.6101 -0.7923 0.7923 -0.6101 24.5796 236.1775)" class="st47" width="1.5" height="12.3"/>
<rect x="100.8" y="137.1" transform="matrix(0.6101 -0.7923 0.7923 0.6101 -73.8885 136.3205)" class="st47" width="1.5" height="12.3"/>
<rect x="232.1" y="-1.3" transform="matrix(-0.6101 -0.7923 0.7923 -0.6101 371.0029 192.3628)" class="st48" width="1.5" height="12.3"/>
<rect x="256.5" y="24.6" transform="matrix(0.6101 -0.7923 0.7923 0.6101 75.984 215.8255)" class="st48" width="1.5" height="12.3"/>
<rect x="266.9" y="59.2" transform="matrix(-0.6101 -0.7923 0.7923 -0.6101 379.1729 317.3133)" class="st48" width="1.5" height="12.3"/>
<rect x="276.9" y="93.9" transform="matrix(0.6101 -0.7923 0.7923 0.6101 28.9929 258.9572)" class="st48" width="1.5" height="12.3"/>
<rect x="85.6" y="74.1" transform="matrix(-0.6101 -0.7923 0.7923 -0.6101 75.5319 197.7)" class="st48" width="1.5" height="12.3"/>
<rect x="100.8" y="103.1" transform="matrix(0.6101 -0.7923 0.7923 0.6101 -46.9765 123.0774)" class="st48" width="1.5" height="12.3"/>
<rect x="24.3" y="1.6" transform="matrix(-0.6101 -0.7923 0.7923 -0.6101 34.2072 32.4275)" class="st48" width="1.5" height="12.3"/>
<rect x="33.1" y="48.3" transform="matrix(0.6101 -0.7923 0.7923 0.6101 -29.9006 48.0861)" class="st48" width="1.5" height="12.3"/>
<rect x="14" y="68.5" transform="matrix(-0.6101 -0.7923 0.7923 -0.6101 -35.4054 131.9448)" class="st48" width="1.5" height="12.3"/>
<rect x="38.5" y="101.2" transform="matrix(0.6101 -0.7923 0.7923 0.6101 -69.797 72.9435)" class="st48" width="1.5" height="12.3"/>
<rect x="92.6" y="9.7" transform="matrix(-0.6101 -0.7923 0.7923 -0.6101 137.7684 99.4483)" class="st48" width="1.5" height="12.3"/>
<rect x="75" y="48.1" transform="matrix(0.6101 -0.7923 0.7923 0.6101 -13.4138 81.1777)" class="st48" width="1.5" height="12.3"/>
</svg>
