<svg id="Capa_1" data-name="Capa 1" xmlns="http://www.w3.org/2000/svg" xmlns:xlink="http://www.w3.org/1999/xlink" viewBox="0 0 2000 2000"><defs><style>.cls-1{fill:url(#Degradado_sin_nombre);}.cls-2,.cls-3,.cls-4,.cls-5,.cls-6{fill:none;stroke:#000;}.cls-2,.cls-3,.cls-4,.cls-5,.cls-6,.cls-8{stroke-miterlimit:10;}.cls-2{stroke-width:5px;}.cls-3{stroke-width:24px;}.cls-4{stroke-width:9px;}.cls-5{stroke-width:10px;}.cls-6{stroke-width:16px;}.cls-7{fill:url(#Degradado_sin_nombre_2);}.cls-8{font-size:90px;stroke:#fff;stroke-width:2px;font-family:LilitaOne, Lilita One;}.cls-9{letter-spacing:-0.01em;}.cls-10{letter-spacing:-0.03em;}</style><linearGradient id="Degradado_sin_nombre" x1="70.89" y1="1108.56" x2="1991.2" y2="1108.56" gradientTransform="matrix(1, -0.03, -0.05, -1.06, 24.88, 2169)" gradientUnits="userSpaceOnUse"><stop offset="0" stop-color="#666"/><stop offset="1" stop-color="#4d4d4d"/></linearGradient><linearGradient id="Degradado_sin_nombre_2" x1="226.28" y1="363.66" x2="2048.33" y2="363.66" gradientTransform="matrix(0.98, 0.22, 0.21, -1.01, -29.61, 1195.13)" gradientUnits="userSpaceOnUse"><stop offset="0" stop-color="#666"/><stop offset="1" stop-color="#b3b3b3"/></linearGradient></defs><g id="Capa_2" data-name="Capa 2"><path class="cls-1" d="M1951.56,1300.87,367.19,1638.48c-19.15,4.08-39.1-6.33-44.57-23.25l-302.34-935c-5.47-16.92,5.61-33.94,24.76-38L1629.4,304.54c19.15-4.08,39.1,6.33,44.57,23.25l302.34,935.05C1981.79,1279.76,1970.7,1296.79,1951.56,1300.87Z"/><polyline class="cls-2" points="363.85 1599.16 84.03 680.97 1618.83 368.59 1915.73 1271.08"/><line class="cls-3" x1="206.62" y1="797.66" x2="1607.79" y2="453.77"/><line class="cls-4" x1="236.9" y1="929.24" x2="1625.45" y2="497.19"/><line class="cls-4" x1="245.03" y1="962.83" x2="1647.38" y2="522.78"/><line class="cls-4" x1="251.38" y1="995.95" x2="1653.73" y2="555.91"/><line class="cls-5" x1="236.9" y1="929.24" x2="1625.45" y2="497.19"/><line class="cls-5" x1="245.03" y1="962.83" x2="1647.38" y2="522.78"/><line class="cls-5" x1="251.38" y1="995.95" x2="1653.73" y2="555.91"/><line class="cls-5" x1="267.26" y1="1033.61" x2="1655.81" y2="601.57"/><line class="cls-5" x1="275.4" y1="1067.2" x2="1677.75" y2="627.15"/><line class="cls-5" x1="281.75" y1="1100.33" x2="1684.1" y2="660.28"/><line class="cls-5" x1="295.42" y1="1132.24" x2="1697.77" y2="692.2"/><line class="cls-5" x1="317.09" y1="1192.18" x2="1719.44" y2="752.13"/><line class="cls-5" x1="323.44" y1="1225.31" x2="1725.79" y2="785.26"/><line class="cls-6" x1="337.12" y1="1257.23" x2="1739.47" y2="817.18"/><path class="cls-7" d="M1949.87,1626.62,377.71,1641a32,32,0,0,1-32.25-31.67l-9.6-1051.44a32,32,0,0,1,31.67-32.25l1572.16-14.36a32,32,0,0,1,32.25,31.67l9.6,1051.44A32,32,0,0,1,1949.87,1626.62Z"/><polyline class="cls-2" points="387.13 1630.75 394.73 576.24 1908.81 580.75 1921.61 1622.08"/><path d="M762.4,776.56l30.53-3.76,8.2.14,36.75,4.93-.27,15.37-75.47-1.31Zm17.74-162.24,16.36,8.39-31-3.18.27-15.57,64.59,1.12L930.56,747.72l-.83,47.66L905.51,795Zm9.57-9.94,18.16,15.89-3,172.39-18.43-.32Zm92.14,1.6,75.47,1.31-.27,15.37L928,626.45l-8-.14-38.38-5Zm32.72.57,18.43.32-3.27,188.52-18.11-18.75Z"/><path d="M1018,776.7l-.34,19.66-46-.8.27-15.37,41.6-3.57ZM974.62,623l.27-15.37,46,.8-.34,19.66-4.51-.08Zm20.75,73.7c.51-29.47,1-59.22.68-88.7l49.76.86c-1.36,28.88-1.88,58.63-2.4,88.67l-.16,9.43c-.53,30.63-1,60.38-.7,89.87l-49.76-.86c1.36-28.88,1.88-58.63,2.4-88.67ZM1126.32,749l-2.86,49.24-105.79-1.83.28-16,96.19,1.67-21,15.6,9.31-49.13Zm-44.11-40.08-63-1.09.29-16.88,63,1.09Zm8.47-99.27,20.44,16.52-90.47-1.57.28-16.16L1121,610.13l1.15,49.31-23.86-.41Zm-17,87.17,4.77-27.36,16.59.29L1094,731.31l-16.59-.29-3.79-28.94Z"/><path d="M1177.91,630.78l-40.21-5,.27-15.37,88.8,1.54-.27,15.37-39,3.62Zm96.82-18,29.18.51L1343.82,763,1326.65,793l54.06-178.4,18.23.32L1339.47,802.5l-28-.48-42.7-146.6,12.41-9.08-49.85,154.28-27.88-.48-53.14-189.5,50.76.88,35.46,149.6-18,30Zm8.43,19.81-34.89-4.9.27-15.37,85.71,1.49-.27,15.37-35.39,3.68Zm98.41,1.71-26.66-4.76.27-15.37,60.48,1.05-.27,15.37-26.24,3.84Z"/><path d="M1516.84,766.07c.26-15.09-7.06-22.07-24.18-30l-12-5.74c-33.46-15.95-52.57-33.29-52-64.95.6-34.35,28.71-54.72,72.06-54,20.41.35,40,6.08,53.81,15.48l-3,40-26.25-.46L1519,623.13l22.92,8.6-.25,14.3c-15.07-11.31-25.76-17.4-40.51-17.65-16.33-.28-29.67,9.82-29.94,25.5-.26,15.13,8.65,23.19,25.48,31.08l13.32,6.38c36.24,17.08,51,33.11,50.47,62.07-.59,33.76-26.85,57.21-75.74,56.36-21.46-.37-45.56-5.59-61.85-16l2.45-42.5,26.66.46,6.63,46.46-22-7.36.24-13.73c18,10.09,29.68,15.4,48.11,15.72C1505.36,793.15,1516.57,781.57,1516.84,766.07Z"/></g><text class="cls-8"><tspan x="540.57" y="989.99">ยก</tspan><tspan class="cls-9" x="566.39" y="989.99">T</tspan><tspan x="610.22" y="989.99">riun</tspan><tspan class="cls-10" x="768.98" y="989.99">f</tspan><tspan x="800.48" y="989.99">o de Shadow Corporation</tspan><tspan x="703.51" y="1097.99">con &quot;Proyecto Alimon&quot;! </tspan></text><path d="M635.78,1222.11v6.37H603.65v-48.86H610v42.49Z"/><path d="M643.34,1194.74a32.3,32.3,0,0,1,13-2.66c4.65,0,8.2,1.35,10.68,4.06a13.94,13.94,0,0,1,3.71,9.73v22.61h-5.6l-.77-4.48h-.21a17.3,17.3,0,0,1-13,5.18,12,12,0,0,1-8.09-2.87,9.83,9.83,0,0,1-3.32-7.84,9.61,9.61,0,0,1,4.09-8q4.1-3.08,12-3.08h8.47v-.56q0-4.62-2.28-6.65c-1.51-1.35-4.14-2-7.87-2a23.63,23.63,0,0,0-10.5,2.38h-.42Zm21.07,23.59v-5.88h-7.63q-10.57,0-10.57,5.56t7.42,5.57a12.61,12.61,0,0,0,6-1.51A16.61,16.61,0,0,0,664.41,1218.33Z"/><path d="M758.33,1210.63v2.24h-27a11.5,11.5,0,0,0,3.64,7.63q3.07,2.73,9.35,2.73a20.7,20.7,0,0,0,11.58-3.5h.35v6.16a27.89,27.89,0,0,1-13.82,3.29q-7.95,0-12.74-4.87t-4.8-13.16q0-8.3,4.27-13.68t12.46-5.39q8.19,0,12.46,5.39A20.51,20.51,0,0,1,758.33,1210.63Zm-27-2.94H752q-.29-5-3.39-7.63a10.62,10.62,0,0,0-7-2.59,10.46,10.46,0,0,0-6.93,2.59Q731.6,1202.66,731.31,1207.69Z"/><path d="M808.73,1192.08q5.74,0,8.71,4.06a15.41,15.41,0,0,1,3,9.38v23h-6.37v-21.7q0-4.54-1.65-6.69t-5.49-2.13q-6,0-10.08,6.72v23.8h-6.37v-21.7q0-4.54-1.61-6.69c-1.07-1.42-2.92-2.13-5.53-2.13q-6,0-10.08,6.72v23.8h-6.37v-35.7h5.6l.77,4.48v1h.14a13.86,13.86,0,0,1,11.76-6.23,11,11,0,0,1,6.68,2,11.26,11.26,0,0,1,4,5H796A14,14,0,0,1,808.73,1192.08Z"/><path d="M861.4,1224.14a16.29,16.29,0,0,1-11.86,5,15.76,15.76,0,0,1-11.76-5.18h-.21v20.58H831.2v-51.8h5.6l.77,4.48h.21a15.76,15.76,0,0,1,11.76-5.18,16.29,16.29,0,0,1,11.86,5q5.08,5,5.08,13.51T861.4,1224.14ZM848.63,1198a14.52,14.52,0,0,0-11.06,5.25V1218a14.52,14.52,0,0,0,11.06,5.25,11,11,0,0,0,8.33-3.29q3.15-3.29,3.15-9.31t-3.15-9.31A11,11,0,0,0,848.63,1198Z"/><path d="M895,1192.08h.56v6.09H895a18.57,18.57,0,0,0-7.7,1.61,13.43,13.43,0,0,0-5.6,4.48v24.22h-6.37v-35.7H881l.77,4.48v1h.14A16.14,16.14,0,0,1,895,1192.08Z"/><path d="M933.82,1210.63v2.24h-27a11.46,11.46,0,0,0,3.64,7.63q3.07,2.73,9.34,2.73a20.7,20.7,0,0,0,11.59-3.5h.35v6.16a27.9,27.9,0,0,1-13.83,3.29q-7.93,0-12.74-4.87t-4.79-13.16q0-8.3,4.27-13.68t12.46-5.39q8.19,0,12.46,5.39A20.57,20.57,0,0,1,933.82,1210.63Zm-27-2.94h20.65q-.29-5-3.4-7.63a10.59,10.59,0,0,0-7-2.59,10.46,10.46,0,0,0-6.93,2.59Q907.07,1202.66,906.8,1207.69Z"/><path d="M955.31,1197.89c-3,0-5.19.44-6.62,1.31a3.84,3.84,0,0,0-2.13,3.31,3.34,3.34,0,0,0,2.21,3.06,28.91,28.91,0,0,0,5.3,1.89l6.2,1.63a10.2,10.2,0,0,1,5.24,3.26,9.93,9.93,0,0,1,2.12,6.7,9,9,0,0,1-3.54,7.19q-3.52,2.94-10.5,2.94a25.94,25.94,0,0,1-12.7-3.15v-6.09h.35a24,24,0,0,0,12.46,3.36q7.77,0,7.77-5c0-1.08-.72-2-2.17-2.64a31.8,31.8,0,0,0-5.21-1.84l-6.16-1.65a11,11,0,0,1-5.29-3.15,8.23,8.23,0,0,1-2.17-5.88,10.1,10.1,0,0,1,3.53-8q3.54-3.08,9.63-3.08a32.09,32.09,0,0,1,11.34,2v5.81h-.49A23.66,23.66,0,0,0,955.31,1197.89Z"/><path d="M976.59,1194.74a32.3,32.3,0,0,1,13-2.66c4.65,0,8.2,1.35,10.68,4.06a13.94,13.94,0,0,1,3.71,9.73v22.61h-5.6l-.77-4.48h-.21a17.3,17.3,0,0,1-13,5.18,12,12,0,0,1-8.09-2.87,9.83,9.83,0,0,1-3.32-7.84,9.61,9.61,0,0,1,4.09-8q4.1-3.08,12-3.08h8.47v-.56q0-4.62-2.28-6.65c-1.51-1.35-4.14-2-7.87-2a23.63,23.63,0,0,0-10.5,2.38h-.42Zm21.07,23.59v-5.88H990q-10.57,0-10.57,5.56t7.42,5.57a12.61,12.61,0,0,0,6-1.51A16.61,16.61,0,0,0,997.66,1218.33Z"/><path d="M1065.05,1192.78a5.35,5.35,0,0,0,2.25,4.41,16.36,16.36,0,0,0,5.47,2.69l7.11,2.1,7.24,2.14a10.3,10.3,0,0,1,5.52,4,12.36,12.36,0,0,1,2.16,7.44,11.87,11.87,0,0,1-4.93,9.83q-4.93,3.83-13.76,3.82a38.77,38.77,0,0,1-16.8-3.78v-6.23h.35a33.43,33.43,0,0,0,16.59,4.06q12.26,0,12.25-8.12,0-4-6-5.85l-5.71-1.69-6.35-1.88a29.3,29.3,0,0,1-5.81-2.38,11.51,11.51,0,0,1-4.27-4,10.9,10.9,0,0,1-1.65-6,13,13,0,0,1,4.79-10.22q4.8-4.12,13-4.13a40.94,40.94,0,0,1,14.73,2.52v6h-.49a33.75,33.75,0,0,0-12.63-2.66q-6.06,0-9.56,2.13A6.63,6.63,0,0,0,1065.05,1192.78Z"/><path d="M1122.73,1192.08a11.46,11.46,0,0,1,9.17,3.92,14.52,14.52,0,0,1,3.36,9.8v22.68h-6.37v-22q0-8.54-7.7-8.54-6.09,0-11.48,6.72v23.8h-6.37v-51.1h6.37v20.93h.21Q1115.59,1192.09,1122.73,1192.08Z"/><path d="M1146.6,1194.74a32.3,32.3,0,0,1,13.05-2.66q7,0,10.68,4.06a13.94,13.94,0,0,1,3.71,9.73v22.61h-5.6l-.77-4.48h-.21a17.3,17.3,0,0,1-13,5.18,12,12,0,0,1-8.09-2.87,9.83,9.83,0,0,1-3.32-7.84,9.61,9.61,0,0,1,4.09-8q4.1-3.08,12-3.08h8.47v-.56q0-4.62-2.28-6.65c-1.51-1.35-4.14-2-7.87-2a23.69,23.69,0,0,0-10.5,2.38h-.42Zm21.07,23.59v-5.88H1160q-10.57,0-10.57,5.56t7.42,5.57a12.61,12.61,0,0,0,5.95-1.51A16.61,16.61,0,0,0,1167.67,1218.33Z"/><path d="M1187.72,1197.12a16.33,16.33,0,0,1,11.87-5,15.76,15.76,0,0,1,11.76,5.18h.21v-19.88h6.37v51.1h-5.6l-.77-4.48h-.21a15.76,15.76,0,0,1-11.76,5.18,16.33,16.33,0,0,1-11.87-5q-5.07-5-5.07-13.51T1187.72,1197.12Zm12.78,26.11q6.3,0,11.06-5.25v-14.7q-4.77-5.25-11.06-5.25a11,11,0,0,0-8.33,3.29q-3.15,3.29-3.15,9.31t3.15,9.31A11,11,0,0,0,1200.5,1223.23Z"/><path d="M1226.82,1210.63q0-8.33,4.9-13.44t13-5.11q8.08,0,13,5.11t4.94,13.44q0,8.32-4.94,13.44t-13,5.11q-8.09,0-13-5.11T1226.82,1210.63Zm9.83,9.55a11.84,11.84,0,0,0,16.17,0q3.47-3.18,3.47-9.59t-3.47-9.55a12,12,0,0,0-16.17,0q-3.47,3.15-3.46,9.55T1236.65,1220.18Z"/><path d="M1313.66,1192.78h6.72l-12.25,35.7h-6.41l-8.12-25.55h-.23l-8.12,25.56H1279l-12.25-35.7h6.72l8.47,28h.21l8.68-28h5.45l8.66,27.94h.21Z"/><path d="M1411,1189.77a28.27,28.27,0,0,0-15.89-4.76q-8.69,0-13.58,5.32t-4.9,13.72q0,8.4,4.9,13.72t13.58,5.32a28.27,28.27,0,0,0,15.89-4.76h.35v6.3a31.6,31.6,0,0,1-16.59,4.55q-10.71,0-17.6-6.83t-6.9-18.3q0-11.47,6.9-18.31t17.6-6.82a31.6,31.6,0,0,1,16.59,4.55v6.3Z"/><path d="M1418.6,1210.63q0-8.33,4.9-13.44t13-5.11q8.09,0,13,5.11t4.94,13.44q0,8.32-4.94,13.44t-13,5.11q-8.1,0-13-5.11T1418.6,1210.63Zm9.83,9.55a11.85,11.85,0,0,0,16.18,0q3.47-3.18,3.46-9.59t-3.46-9.55a12,12,0,0,0-16.18,0q-3.47,3.15-3.46,9.55T1428.43,1220.18Z"/><path d="M1483,1192.08h.56v6.09H1483a18.57,18.57,0,0,0-7.7,1.61,13.43,13.43,0,0,0-5.6,4.48v24.22h-6.37v-35.7h5.6l.77,4.48v1h.14A16.12,16.12,0,0,1,1483,1192.08Z"/><path d="M1520.62,1224.14a16.3,16.3,0,0,1-11.86,5A15.76,15.76,0,0,1,1497,1224h-.21v20.58h-6.37v-51.8h5.6l.77,4.48h.21a15.76,15.76,0,0,1,11.76-5.18,16.3,16.3,0,0,1,11.86,5q5.09,5,5.08,13.51T1520.62,1224.14ZM1507.85,1198a14.52,14.52,0,0,0-11.06,5.25V1218a14.52,14.52,0,0,0,11.06,5.25,11,11,0,0,0,8.33-3.29q3.15-3.29,3.15-9.31t-3.15-9.31A11,11,0,0,0,1507.85,1198Z"/><path d="M1532.42,1210.63q0-8.33,4.9-13.44t13-5.11q8.09,0,13,5.11t4.94,13.44q0,8.32-4.94,13.44t-13,5.11q-8.08,0-13-5.11T1532.42,1210.63Zm9.83,9.55a11.84,11.84,0,0,0,16.17,0q3.46-3.18,3.47-9.59t-3.47-9.55a12,12,0,0,0-16.17,0q-3.46,3.15-3.46,9.55T1542.25,1220.18Z"/><path d="M1596.82,1192.08h.56v6.09h-.56a18.54,18.54,0,0,0-7.7,1.61,13.43,13.43,0,0,0-5.6,4.48v24.22h-6.37v-35.7h5.6l.77,4.48v1h.14A16.12,16.12,0,0,1,1596.82,1192.08Z"/><path d="M1604.87,1194.74a32.3,32.3,0,0,1,13.05-2.66c4.65,0,8.2,1.35,10.68,4.06a13.94,13.94,0,0,1,3.71,9.73v22.61h-5.6l-.77-4.48h-.21a17.3,17.3,0,0,1-13,5.18,12,12,0,0,1-8.09-2.87,9.8,9.8,0,0,1-3.32-7.84,9.61,9.61,0,0,1,4.09-8q4.1-3.08,12-3.08h8.47v-.56q0-4.62-2.28-6.65t-7.87-2a23.63,23.63,0,0,0-10.5,2.38h-.42Zm21.07,23.59v-5.88h-7.63q-10.57,0-10.57,5.56t7.42,5.57a12.61,12.61,0,0,0,5.95-1.51A16.61,16.61,0,0,0,1625.94,1218.33Z"/><path d="M1661.92,1198.24h-10.15v21.14c0,2,.53,3.17,1.61,3.64a9,9,0,0,0,3.43.56,11.43,11.43,0,0,0,4.62-1.12h.49v5.18a13.46,13.46,0,0,1-6.3,1.54q-10.23,0-10.22-9.24v-21.7h-6.65v-.42l13-12.74v7.7h10.15Z"/><path d="M1676.9,1178.36v6.86H1670v-6.86Zm-6.65,50.12v-35.7h6.37v35.7Z"/><path d="M1685.79,1210.63q0-8.33,4.89-13.44t13-5.11q8.08,0,13,5.11t4.93,13.44q0,8.32-4.93,13.44t-13,5.11q-8.09,0-13-5.11T1685.79,1210.63Zm9.83,9.55a11.84,11.84,0,0,0,16.17,0q3.46-3.18,3.46-9.59t-3.46-9.55a12,12,0,0,0-16.17,0q-3.46,3.15-3.46,9.55T1695.62,1220.18Z"/><path d="M1749.9,1192.08a11.45,11.45,0,0,1,9.17,3.92,14.52,14.52,0,0,1,3.36,9.8v22.68h-6.37v-22q0-8.54-7.7-8.54-6.09,0-11.48,6.72v23.8h-6.37v-35.7h5.6l.77,4.48v1h.14Q1742.69,1192.09,1749.9,1192.08Z"/><path d="M629.9,1276.78h5.6v34.16q0,8.82-4.27,13.58t-12.36,4.76a30.62,30.62,0,0,1-14.73-3.57v-6.3h.35a25.11,25.11,0,0,0,13.93,3.85q10.71,0,10.71-11.41v-4.55h-.21a15.26,15.26,0,0,1-11.55,5.18,17.14,17.14,0,0,1-11.94-4.8q-5.2-4.79-5.21-13.4t5.21-13.41a17.17,17.17,0,0,1,11.94-4.79,15.26,15.26,0,0,1,11.55,5.18h.21Zm-.77,24.71v-14.42q-5-5.17-10.47-5.18a12.15,12.15,0,0,0-8.75,3.18q-3.31,3.2-3.32,9.21t3.32,9.2a12.11,12.11,0,0,0,8.75,3.19Q624.09,1306.67,629.13,1301.49Z"/><path d="M647.19,1278.74a32.3,32.3,0,0,1,13-2.66c4.65,0,8.2,1.35,10.68,4.06a13.94,13.94,0,0,1,3.71,9.73v22.61H669l-.77-4.48h-.21a17.3,17.3,0,0,1-12.95,5.18,12,12,0,0,1-8.09-2.87,9.83,9.83,0,0,1-3.32-7.84,9.61,9.61,0,0,1,4.09-8q4.1-3.08,12-3.08h8.47v-.56q0-4.62-2.28-6.65c-1.51-1.35-4.14-2-7.87-2a23.63,23.63,0,0,0-10.5,2.38h-.42Zm21.07,23.59v-5.88h-7.63q-10.57,0-10.57,5.56t7.42,5.57a12.61,12.61,0,0,0,5.95-1.51A16.61,16.61,0,0,0,668.26,1302.33Z"/><path d="M704.8,1276.08A11.46,11.46,0,0,1,714,1280a14.52,14.52,0,0,1,3.36,9.8v22.68H711v-22q0-8.54-7.7-8.54-6.09,0-11.48,6.72v23.8h-6.37v-35.7H691l.77,4.48v1h.14Q697.59,1276.09,704.8,1276.08Z"/><path d="M728.67,1278.74a32.3,32.3,0,0,1,13.05-2.66c4.65,0,8.2,1.35,10.68,4.06a13.94,13.94,0,0,1,3.71,9.73v22.61h-5.6l-.77-4.48h-.21a17.3,17.3,0,0,1-12.95,5.18,12,12,0,0,1-8.09-2.87,9.83,9.83,0,0,1-3.32-7.84,9.61,9.61,0,0,1,4.09-8q4.1-3.08,12-3.08h8.47v-.56q0-4.62-2.28-6.65c-1.51-1.35-4.14-2-7.87-2a23.63,23.63,0,0,0-10.5,2.38h-.42Zm21.07,23.59v-5.88h-7.63q-10.58,0-10.57,5.56t7.42,5.57a12.61,12.61,0,0,0,5.95-1.51A16.61,16.61,0,0,0,749.74,1302.33Z"/><path d="M837.42,1294.63v2.24h-27a11.55,11.55,0,0,0,3.64,7.63q3.09,2.73,9.35,2.73a20.67,20.67,0,0,0,11.58-3.5h.35v6.16a27.89,27.89,0,0,1-13.82,3.29q-7.95,0-12.74-4.87t-4.8-13.16q0-8.3,4.27-13.68t12.46-5.39q8.19,0,12.46,5.39A20.51,20.51,0,0,1,837.42,1294.63Zm-27-2.94h20.65c-.18-3.36-1.32-5.9-3.39-7.63a10.62,10.62,0,0,0-7-2.59,10.5,10.5,0,0,0-6.93,2.59Q810.69,1286.66,810.4,1291.69Z"/><path d="M865.35,1276.08a11.45,11.45,0,0,1,9.17,3.92,14.52,14.52,0,0,1,3.36,9.8v22.68h-6.37v-22q0-8.54-7.7-8.54-6.09,0-11.48,6.72v23.8H846v-35.7h5.6l.77,4.48v1h.14Q858.14,1276.09,865.35,1276.08Z"/><path d="M962.91,1269.57H935.4V1285h25v6h-25v15.54h27.51v6H929v-48.86h33.88Z"/><path d="M1003.37,1276.78l-13.79,17.64,13.79,18.06h-8l-9.59-12.67h-.35l-9.1,12.67h-8l13.72-17.64-13.72-18.06h8l9.45,12.74h.35l9.24-12.74Z"/><path d="M1040.57,1308.14a16.3,16.3,0,0,1-11.86,5A15.76,15.76,0,0,1,1017,1308h-.21v20.58h-6.37v-51.8h5.6l.77,4.48h.21a15.76,15.76,0,0,1,11.76-5.18,16.3,16.3,0,0,1,11.86,5q5.07,5,5.08,13.51T1040.57,1308.14ZM1027.8,1282a14.52,14.52,0,0,0-11.06,5.25V1302a14.52,14.52,0,0,0,11.06,5.25,11,11,0,0,0,8.33-3.29q3.15-3.29,3.15-9.31t-3.15-9.31A11,11,0,0,0,1027.8,1282Z"/><path d="M1052.37,1294.63q0-8.33,4.9-13.44t13-5.11q8.09,0,13,5.11t4.94,13.44q0,8.32-4.94,13.44t-13,5.11q-8.09,0-13-5.11T1052.37,1294.63Zm9.83,9.55a11.84,11.84,0,0,0,16.17,0q3.47-3.18,3.47-9.59t-3.47-9.55a12,12,0,0,0-16.17,0q-3.46,3.15-3.46,9.55T1062.2,1304.18Z"/><path d="M1175.4,1273.77a28.27,28.27,0,0,0-15.89-4.76q-8.68,0-13.58,5.32t-4.9,13.72q0,8.4,4.9,13.72t13.58,5.32a28.27,28.27,0,0,0,15.89-4.76h.35v6.3a31.6,31.6,0,0,1-16.59,4.55q-10.71,0-17.6-6.83t-6.9-18.3q0-11.47,6.9-18.31t17.6-6.82a31.6,31.6,0,0,1,16.59,4.55v6.3Z"/><path d="M1192.06,1262.36v6.86h-6.86v-6.86Zm-6.65,50.12v-35.7h6.37v35.7Z"/><path d="M1234.48,1294.63v2.24h-27a11.5,11.5,0,0,0,3.64,7.63q3.08,2.73,9.34,2.73a20.7,20.7,0,0,0,11.59-3.5h.35v6.16a27.9,27.9,0,0,1-13.83,3.29q-7.93,0-12.74-4.87t-4.79-13.16q0-8.3,4.27-13.68t12.46-5.39q8.19,0,12.46,5.39A20.51,20.51,0,0,1,1234.48,1294.63Zm-27-2.94h20.65q-.28-5-3.4-7.63a10.57,10.57,0,0,0-7-2.59,10.46,10.46,0,0,0-6.93,2.59Q1207.74,1286.66,1207.46,1291.69Z"/><path d="M1262.41,1276.08a11.46,11.46,0,0,1,9.17,3.92,14.52,14.52,0,0,1,3.36,9.8v22.68h-6.37v-22q0-8.54-7.7-8.54-6.09,0-11.48,6.72v23.8H1243v-35.7h5.6l.77,4.48v1h.14Q1255.2,1276.09,1262.41,1276.08Z"/><path d="M1313.86,1285.53a19.72,19.72,0,0,0-11.24-3.5c-4,0-7.2,1.15-9.48,3.46a13.88,13.88,0,0,0,0,18.27c2.28,2.31,5.45,3.47,9.48,3.47a19.72,19.72,0,0,0,11.24-3.5h.28v6a23.48,23.48,0,0,1-12.11,3.43,18.8,18.8,0,0,1-13.23-5q-5.46-5-5.46-13.51t5.46-13.51a18.8,18.8,0,0,1,13.23-5,23.48,23.48,0,0,1,12.11,3.43v6Z"/><path d="M1330.1,1262.36v6.86h-6.86v-6.86Zm-6.65,50.12v-35.7h6.37v35.7Z"/><path d="M1341.79,1278.74a32.3,32.3,0,0,1,13-2.66c4.65,0,8.2,1.35,10.68,4.06a13.94,13.94,0,0,1,3.71,9.73v22.61h-5.6l-.77-4.48h-.21a17.3,17.3,0,0,1-13,5.18,12,12,0,0,1-8.09-2.87,9.83,9.83,0,0,1-3.32-7.84,9.61,9.61,0,0,1,4.09-8q4.09-3.08,12-3.08h8.47v-.56q0-4.62-2.28-6.65c-1.51-1.35-4.14-2-7.87-2a23.63,23.63,0,0,0-10.5,2.38h-.42Zm21.07,23.59v-5.88h-7.63q-10.57,0-10.57,5.56t7.42,5.57a12.61,12.61,0,0,0,6-1.51A16.61,16.61,0,0,0,1362.86,1302.33Z"/><path d="M1393,1281.89q-4.49,0-6.62,1.31a3.84,3.84,0,0,0-2.13,3.31,3.33,3.33,0,0,0,2.21,3.06,28.91,28.91,0,0,0,5.3,1.89l6.2,1.63a10.2,10.2,0,0,1,5.24,3.26,9.93,9.93,0,0,1,2.12,6.7,9,9,0,0,1-3.54,7.19q-3.54,2.94-10.5,2.94a25.94,25.94,0,0,1-12.7-3.15v-6.09h.35a24,24,0,0,0,12.46,3.36q7.77,0,7.77-5c0-1.08-.73-2-2.17-2.64a31.8,31.8,0,0,0-5.21-1.84l-6.17-1.65a11,11,0,0,1-5.28-3.15,8.23,8.23,0,0,1-2.17-5.88,10.07,10.07,0,0,1,3.53-8q3.54-3.08,9.63-3.08a32.09,32.09,0,0,1,11.34,2v5.81h-.49A23.66,23.66,0,0,0,1393,1281.89Z"/><path d="M1413.26,1304.64h7.84v7.84q0,8.12-7.84,11.41v-4.55a7.23,7.23,0,0,0,3.85-6.86h-3.85Z"/><path d="M1499.19,1285.53A19.69,19.69,0,0,0,1488,1282q-6.06,0-9.49,3.46a13.88,13.88,0,0,0,0,18.27q3.43,3.46,9.49,3.47a19.69,19.69,0,0,0,11.23-3.5h.28v6a23.45,23.45,0,0,1-12.11,3.43,18.8,18.8,0,0,1-13.23-5q-5.46-5-5.46-13.51t5.46-13.51a18.8,18.8,0,0,1,13.23-5,23.45,23.45,0,0,1,12.11,3.43v6Z"/><path d="M1506.33,1294.63q0-8.33,4.9-13.44t13-5.11q8.08,0,13,5.11t4.93,13.44q0,8.32-4.93,13.44t-13,5.11q-8.09,0-13-5.11T1506.33,1294.63Zm9.84,9.55a11.84,11.84,0,0,0,16.17,0q3.47-3.18,3.46-9.59t-3.46-9.55a12,12,0,0,0-16.17,0q-3.47,3.15-3.47,9.55T1516.17,1304.18Z"/><path d="M1570.45,1276.08a11.46,11.46,0,0,1,9.17,3.92,14.52,14.52,0,0,1,3.36,9.8v22.68h-6.37v-22q0-8.54-7.7-8.54-6.09,0-11.48,6.72v23.8h-6.37v-35.7h5.6l.77,4.48v1h.14Q1563.24,1276.09,1570.45,1276.08Z"/><path d="M1664.23,1294.63v2.24h-27a11.46,11.46,0,0,0,3.64,7.63q3.08,2.73,9.34,2.73a20.7,20.7,0,0,0,11.59-3.5h.35v6.16a27.9,27.9,0,0,1-13.83,3.29q-8,0-12.74-4.87t-4.79-13.16q0-8.3,4.27-13.68t12.46-5.39q8.19,0,12.46,5.39A20.57,20.57,0,0,1,1664.23,1294.63Zm-27-2.94h20.65q-.28-5-3.4-7.63a10.61,10.61,0,0,0-7-2.59,10.46,10.46,0,0,0-6.93,2.59Q1637.48,1286.66,1637.21,1291.69Z"/><path d="M1685.72,1281.89q-4.48,0-6.62,1.31a3.84,3.84,0,0,0-2.13,3.31,3.33,3.33,0,0,0,2.21,3.06,28.79,28.79,0,0,0,5.29,1.89l6.21,1.63a10.18,10.18,0,0,1,5.23,3.26,9.88,9.88,0,0,1,2.13,6.7,9,9,0,0,1-3.54,7.19q-3.54,2.94-10.5,2.94a26,26,0,0,1-12.71-3.15v-6.09h.36a24,24,0,0,0,12.46,3.36q7.77,0,7.77-5c0-1.08-.73-2-2.17-2.64a31.8,31.8,0,0,0-5.21-1.84l-6.17-1.65A11.07,11.07,0,0,1,1673,1293a8.27,8.27,0,0,1-2.16-5.88,10.07,10.07,0,0,1,3.53-8q3.54-3.08,9.63-3.08a32.09,32.09,0,0,1,11.34,2v5.81h-.49A23.66,23.66,0,0,0,1685.72,1281.89Z"/><path d="M1725.2,1282.24H1715v21.14c0,2,.54,3.17,1.62,3.64a8.91,8.91,0,0,0,3.42.56,11.44,11.44,0,0,0,4.63-1.12h.49v5.18a13.5,13.5,0,0,1-6.31,1.54q-10.22,0-10.22-9.24v-21.7H1702v-.42l13-12.74v7.7h10.16Z"/><path d="M1764.6,1294.63v2.24h-27a11.55,11.55,0,0,0,3.64,7.63q3.09,2.73,9.35,2.73a20.65,20.65,0,0,0,11.58-3.5h.35v6.16a27.89,27.89,0,0,1-13.82,3.29q-8,0-12.74-4.87t-4.8-13.16q0-8.3,4.27-13.68t12.46-5.39q8.19,0,12.46,5.39A20.51,20.51,0,0,1,1764.6,1294.63Zm-27-2.94h20.65q-.27-5-3.39-7.63a10.62,10.62,0,0,0-7-2.59,10.5,10.5,0,0,0-6.93,2.59Q1737.87,1286.66,1737.58,1291.69Z"/><path d="M904.58,1346.36v6.86h-6.85v-6.86Zm-6.64,50.12v-35.7h6.37v35.7Z"/><path d="M935,1360.08a11.45,11.45,0,0,1,9.17,3.92,14.52,14.52,0,0,1,3.36,9.8v22.68h-6.37v-22q0-8.54-7.7-8.54-6.09,0-11.48,6.72v23.8h-6.37v-35.7h5.6l.77,4.48v1h.14Q927.82,1360.09,935,1360.08Z"/><path d="M986.48,1369.53a19.69,19.69,0,0,0-11.23-3.5q-6.06,0-9.49,3.46a13.88,13.88,0,0,0,0,18.27q3.43,3.46,9.49,3.47a19.69,19.69,0,0,0,11.23-3.5h.28v6a23.45,23.45,0,0,1-12.11,3.43,18.8,18.8,0,0,1-13.23-5q-5.46-5-5.46-13.51t5.46-13.51a18.8,18.8,0,0,1,13.23-5,23.45,23.45,0,0,1,12.11,3.43v6Z"/><path d="M1015.46,1360.08h.56v6.09h-.56a18.57,18.57,0,0,0-7.7,1.61,13.49,13.49,0,0,0-5.6,4.48v24.22h-6.37v-35.7h5.6l.77,4.48v1h.14A16.14,16.14,0,0,1,1015.46,1360.08Z"/><path d="M1029.81,1346.36v6.86H1023v-6.86Zm-6.65,50.12v-35.7h6.37v35.7Z"/><path d="M1059.21,1360.08a16.33,16.33,0,0,1,11.87,5q5.07,5,5.07,13.51t-5.07,13.51a16.33,16.33,0,0,1-11.87,5,15.76,15.76,0,0,1-11.76-5.18h-.21l-.77,4.48h-5.6v-51.1h6.37v19.88h.21A15.76,15.76,0,0,1,1059.21,1360.08Zm-.91,31.15a11,11,0,0,0,8.33-3.29q3.15-3.29,3.15-9.31t-3.15-9.31a11,11,0,0,0-8.33-3.29q-6.3,0-11.06,5.25V1386Q1052,1391.23,1058.3,1391.23Z"/><path d="M1092,1345.38v51.1h-6.37v-51.1Z"/><path d="M1135,1378.63v2.24h-27a11.5,11.5,0,0,0,3.64,7.63q3.08,2.73,9.35,2.73a20.67,20.67,0,0,0,11.58-3.5h.35v6.16a27.89,27.89,0,0,1-13.82,3.29q-8,0-12.74-4.87t-4.8-13.16q0-8.3,4.27-13.68t12.46-5.39q8.19,0,12.46,5.39A20.51,20.51,0,0,1,1135,1378.63Zm-27-2.94h20.65q-.28-5-3.39-7.63a10.62,10.62,0,0,0-7-2.59,10.46,10.46,0,0,0-6.93,2.59Q1108.22,1370.66,1107.93,1375.69Z"/><path d="M1191.9,1392.14a16.33,16.33,0,0,1-11.87,5,15.76,15.76,0,0,1-11.76-5.18h-.21v20.58h-6.37v-51.8h5.6l.77,4.48h.21a15.76,15.76,0,0,1,11.76-5.18,16.33,16.33,0,0,1,11.87,5q5.07,5,5.07,13.51T1191.9,1392.14ZM1179.12,1366a14.52,14.52,0,0,0-11.06,5.25V1386a14.52,14.52,0,0,0,11.06,5.25,11,11,0,0,0,8.33-3.29q3.15-3.29,3.15-9.31t-3.15-9.31A11,11,0,0,0,1179.12,1366Z"/><path d="M1225.53,1360.08h.56v6.09h-.56a18.57,18.57,0,0,0-7.7,1.61,13.43,13.43,0,0,0-5.6,4.48v24.22h-6.37v-35.7h5.6l.77,4.48v1h.14A16.14,16.14,0,0,1,1225.53,1360.08Z"/><path d="M1230.78,1378.63q0-8.33,4.9-13.44t13-5.11q8.07,0,13,5.11t4.93,13.44q0,8.32-4.93,13.44t-13,5.11q-8.09,0-13-5.11T1230.78,1378.63Zm9.84,9.55a11.84,11.84,0,0,0,16.17,0q3.45-3.18,3.46-9.59t-3.46-9.55a12,12,0,0,0-16.17,0q-3.48,3.15-3.47,9.55T1240.62,1388.18Z"/><path d="M1307,1360.78l-21.49,51.8h-6.44l6-15.54-14.77-36.26h6.86l11.2,28.21h.28l11.48-28.21Z"/><path d="M1344.18,1378.63v2.24h-27a11.46,11.46,0,0,0,3.64,7.63q3.08,2.73,9.34,2.73a20.7,20.7,0,0,0,11.59-3.5h.35v6.16a27.9,27.9,0,0,1-13.83,3.29q-7.93,0-12.74-4.87t-4.79-13.16q0-8.3,4.27-13.68t12.46-5.39q8.19,0,12.46,5.39A20.57,20.57,0,0,1,1344.18,1378.63Zm-27-2.94h20.65q-.29-5-3.4-7.63a10.59,10.59,0,0,0-7-2.59,10.46,10.46,0,0,0-6.93,2.59Q1317.43,1370.66,1317.16,1375.69Z"/><path d="M1380.93,1369.53a19.72,19.72,0,0,0-11.24-3.5c-4,0-7.2,1.15-9.48,3.46a13.88,13.88,0,0,0,0,18.27c2.28,2.31,5.45,3.47,9.48,3.47a19.72,19.72,0,0,0,11.24-3.5h.28v6a23.48,23.48,0,0,1-12.11,3.43,18.8,18.8,0,0,1-13.23-5q-5.46-5-5.46-13.51t5.46-13.51a18.8,18.8,0,0,1,13.23-5,23.48,23.48,0,0,1,12.11,3.43v6Z"/><path d="M1409.07,1366.24h-10.15v21.14c0,2,.53,3.17,1.61,3.64a9,9,0,0,0,3.43.56,11.43,11.43,0,0,0,4.62-1.12h.49v5.18a13.46,13.46,0,0,1-6.3,1.54q-10.23,0-10.22-9.24v-21.7h-6.65v-.42l13-12.74v7.7h10.15Z"/><path d="M1415,1378.63q0-8.33,4.9-13.44t13-5.11q8.09,0,13,5.11t4.94,13.44q0,8.32-4.94,13.44t-13,5.11q-8.08,0-13-5.11T1415,1378.63Zm9.83,9.55a11.84,11.84,0,0,0,16.17,0q3.46-3.18,3.47-9.59T1441,1369a12,12,0,0,0-16.17,0q-3.46,3.15-3.46,9.55T1424.78,1388.18Z"/><path d="M1459.33,1396.48v-7.84h7.84v7.84Z"/></svg>