<svg id="Capa_1" data-name="Capa 1" xmlns="http://www.w3.org/2000/svg" xmlns:xlink="http://www.w3.org/1999/xlink" viewBox="0 0 296 148"><defs><style>.cls-1,.cls-100,.cls-107,.cls-109,.cls-11,.cls-110,.cls-17,.cls-18,.cls-24,.cls-31,.cls-45,.cls-46,.cls-53,.cls-54,.cls-58,.cls-62,.cls-64,.cls-68,.cls-73,.cls-81,.cls-84,.cls-89,.cls-91,.cls-94,.cls-97{fill:none;}.cls-111,.cls-2,.cls-22,.cls-23,.cls-25,.cls-48,.cls-49,.cls-74,.cls-9{fill:#eaeaea;}.cls-111,.cls-2,.cls-73,.cls-74,.cls-9{stroke:#545454;}.cls-100,.cls-107,.cls-109,.cls-11,.cls-110,.cls-17,.cls-18,.cls-2,.cls-23,.cls-24,.cls-31,.cls-45,.cls-46,.cls-53,.cls-54,.cls-58,.cls-6,.cls-62,.cls-63,.cls-64,.cls-68,.cls-7,.cls-73,.cls-8,.cls-81,.cls-84,.cls-89,.cls-9,.cls-91,.cls-94,.cls-97{stroke-miterlimit:10;}.cls-3{fill:#a56c3d;}.cls-4{fill:#a07a5f;}.cls-5{fill:#5a7d00;}.cls-6{fill:#c6c6c6;stroke:#7f7f7f;}.cls-107,.cls-111,.cls-18,.cls-23,.cls-24,.cls-31,.cls-46,.cls-48,.cls-49,.cls-6,.cls-68,.cls-7,.cls-73,.cls-74,.cls-8,.cls-89,.cls-9{stroke-width:0.5px;}.cls-7,.cls-8{fill:#969696;}.cls-7{stroke:#636363;}.cls-8{stroke:#303030;}.cls-10{fill:#79891b;}.cls-11{stroke:#fcb61a;}.cls-12{fill:#e49a0f;}.cls-13{clip-path:url(#clip-path);}.cls-14{fill:#fed117;}.cls-15{fill:#fcb61a;}.cls-16{fill:#8fa726;}.cls-17,.cls-18{stroke:#232323;}.cls-19{fill:#f1eef0;}.cls-20{fill:#232323;}.cls-21{fill:#eaa700;}.cls-22,.cls-23,.cls-24,.cls-25,.cls-48,.cls-49{stroke:#666;}.cls-22{stroke-miterlimit:10;}.cls-25{stroke-miterlimit:10;}.cls-26{fill:#639113;}.cls-27{fill:#ee3346;}.cls-28{fill:#fda4a8;opacity:0.5;}.cls-28,.cls-96{isolation:isolate;}.cls-29{fill:#be3034;}.cls-30{fill:#fbb95c;}.cls-31{stroke:#aa6b26;}.cls-32{fill:#190606;}.cls-33{fill:#bc0000;}.cls-34{fill:#e54c4c;}.cls-35{fill:#ff7d8a;}.cls-36{fill:#438019;}.cls-37{fill:#3c9924;}.cls-38{fill:#85d94f;}.cls-39{fill:#0e5b00;}.cls-40{fill:#033a00;}.cls-41{fill:#efd93f;}.cls-42{fill:#63b030;}.cls-43{fill:#53a926;}.cls-44{fill:#075b00;}.cls-45,.cls-46{stroke:#075b00;}.cls-45,.cls-54{stroke-width:0.75px;}.cls-47{fill:#e87e00;}.cls-48{stroke-miterlimit:10;}.cls-49{stroke-miterlimit:10;}.cls-50,.cls-63{fill:#fb8b01;}.cls-51{fill:#716b3a;}.cls-52{fill:#59512b;}.cls-53,.cls-54,.cls-58,.cls-63{stroke:#03020a;}.cls-109,.cls-53,.cls-64,.cls-81{stroke-width:2px;}.cls-55{fill:#03020a;}.cls-56{fill:#fdfdfd;}.cls-57{fill:#ff6c7a;}.cls-110,.cls-58{stroke-width:0.25px;}.cls-59{fill:#ec6a15;}.cls-60{opacity:0.69;}.cls-61{fill:#9ec9ef;}.cls-62{stroke:#9ec9ef;}.cls-63,.cls-94{stroke-width:1.5px;}.cls-64,.cls-68{stroke:#747d00;}.cls-65{fill:#747d00;}.cls-66{fill:#b2b715;}.cls-67{fill:#d2c521;}.cls-69{fill:#f2f2f2;}.cls-70{clip-path:url(#clip-path-2);}.cls-71{fill:#333;}.cls-72{clip-path:url(#clip-path-3);}.cls-74{stroke-miterlimit:10;}.cls-75{fill:#a1a50e;}.cls-76{fill:#afb55b;}.cls-77{fill:#858513;}.cls-78{fill:#4c7032;}.cls-79{fill:#4d823c;}.cls-80{fill:#5b883c;}.cls-81,.cls-84{stroke:#5a698a;}.cls-82{fill:#5a698a;}.cls-83{fill:#6284a7;}.cls-85{fill:#434d57;}.cls-86{fill:#6facc6;}.cls-87{fill:#e21a62;}.cls-88{fill:#8aaad0;}.cls-89{stroke:#363f4c;}.cls-90{fill:#ff77a3;}.cls-91{stroke:#2f3945;}.cls-92{fill:#fcfcfc;}.cls-93{fill:#2f3945;}.cls-94{stroke:#232a33;}.cls-95,.cls-96{fill:#232a33;}.cls-96{opacity:0.32;}.cls-97{stroke:#efcdb7;}.cls-100,.cls-97{stroke-width:3px;}.cls-98{fill:#efcdb7;}.cls-99{fill:url(#Degradado_sin_nombre);}.cls-100{stroke:#f2888f;}.cls-101{fill:#e02f35;}.cls-102{fill:#047a0a;}.cls-103{fill:#7b401e;}.cls-104{fill:#662809;}.cls-105{fill:#b60f11;}.cls-106{fill:#110301;}.cls-107,.cls-109,.cls-110{stroke:#110301;}.cls-108{fill:#f7f7f7;}.cls-111{stroke-miterlimit:10;}</style><clipPath id="clip-path"><path class="cls-1" d="M37.38,107.49H28.21A8.22,8.22,0,0,1,20,99.28a7.3,7.3,0,0,1,.09-1.14l4.58-32.58A8.21,8.21,0,0,1,32.8,58.5h0a8.2,8.2,0,0,1,8.12,7.06l4.59,32.58a8.21,8.21,0,0,1-7,9.27A8.77,8.77,0,0,1,37.38,107.49Z"/></clipPath><clipPath id="clip-path-2"><ellipse class="cls-1" cx="232.7" cy="100.61" rx="1.26" ry="2.38"/></clipPath><clipPath id="clip-path-3"><ellipse class="cls-1" cx="241.05" cy="100.61" rx="1.26" ry="2.38"/></clipPath><linearGradient id="Degradado_sin_nombre" x1="194.89" y1="29.4" x2="194.89" y2="63.26" gradientTransform="matrix(1, 0, 0, -1, 0, 150)" gradientUnits="userSpaceOnUse"><stop offset="0.11" stop-color="#f2e7df"/><stop offset="0.51" stop-color="#efc6ac"/></linearGradient></defs><g id="Capa_2" data-name="Capa 2"><rect class="cls-2" x="-3.43" y="-2.75" width="301.76" height="133.24"/><rect class="cls-3" x="-2.43" y="127.52" width="307.09" height="20.98"/><ellipse class="cls-4" cx="34.87" cy="139.6" rx="23.31" ry="3.16"/><ellipse class="cls-4" cx="90.16" cy="140.34" rx="23.31" ry="3.16"/><ellipse class="cls-4" cx="145.78" cy="140.01" rx="23.31" ry="3.16"/><ellipse class="cls-4" cx="195.96" cy="140.12" rx="21.32" ry="3.16"/><ellipse class="cls-4" cx="238.93" cy="140.01" rx="18.32" ry="3.16"/><ellipse class="cls-4" cx="269.96" cy="140.59" rx="9.94" ry="2.3"/></g><g id="Capa_1-2" data-name="Capa 1"><path class="cls-5" d="M39.71,76.55q3.33-.35,6.66-6.79a47.3,47.3,0,0,0-.92,12.64Z"/><path class="cls-5" d="M28.84,71q-3.78-.09-8-6.26a41.69,41.69,0,0,1,1.89,12.56Z"/><path class="cls-5" d="M36.23,71.35q3.8-.09,8-6.25a41.55,41.55,0,0,0-1.89,12.56Z"/><path class="cls-6" d="M22.06,131.24a6.08,6.08,0,0,1,9.16,0,6,6,0,0,0-1.59-4.48H24.14A8.52,8.52,0,0,0,22.06,131.24Z"/><path class="cls-7" d="M26.65,126.76H24.14A2,2,0,0,1,23,124.88c0-.9,1.16-1.56,2.45-1.8h3.08a2.61,2.61,0,0,1,2.18,1.85,2.08,2.08,0,0,1-1.09,1.85h-1.2"/><path class="cls-8" d="M20.92,134.42a1.52,1.52,0,0,0-.76,1.28c0,.89,1.28,3.05,6.31,3.05s6.58-1.92,6.58-2.78a1.39,1.39,0,0,0-.66-1.23"/><path class="cls-9" d="M21,133.69c.92-5.73,9.77-6.44,11.44,0a1.61,1.61,0,0,1-.39,1.58c-1.66,2-9.55,2-10.6.17A1.7,1.7,0,0,1,21,133.69Z"/><path class="cls-6" d="M35.25,131.32a6.1,6.1,0,0,1,9.17,0,6,6,0,0,0-1.59-4.48H37.34A8.61,8.61,0,0,0,35.25,131.32Z"/><path class="cls-7" d="M39.85,126.84H37.34A2,2,0,0,1,36.21,125c0-.91,1.15-1.56,2.45-1.8h3.08A2.61,2.61,0,0,1,43.92,125a2.11,2.11,0,0,1-1.09,1.85h-1.2"/><path class="cls-8" d="M34.12,134.5a1.51,1.51,0,0,0-.76,1.28c0,.88,1.28,3.05,6.31,3.05s6.58-1.92,6.58-2.78a1.41,1.41,0,0,0-.66-1.23"/><path class="cls-9" d="M34.18,133.77c1-5.73,9.77-6.44,11.45,0a1.59,1.59,0,0,1-.4,1.58c-1.65,2.05-9.54,2-10.59.17A1.71,1.71,0,0,1,34.18,133.77Z"/><path class="cls-10" d="M26.59,125.5h0a2,2,0,0,1-1.91-2.21V105.84H28.5v17.45A2,2,0,0,1,26.59,125.5Z"/><path class="cls-10" d="M39.92,125.54h0A2,2,0,0,1,38,123.32c-1.31-5.26-1.1-11.17,0-17.45h3.82c-1.56,6.23-1.82,12.11,0,17.45A2,2,0,0,1,39.92,125.54Z"/><path class="cls-11" d="M27.82,51.36c-1.68,3.56-1.28,4.85-.45,5.29s2.63,0,3.17.74c.37.51,0,1.28-.43,1.85"/><path class="cls-11" d="M30,51.37c-.13,1.16,0,2.58,1.22,3.27,1,.55,2,.34,2.41.91s.08,1.38-2.14,3.42"/><path class="cls-11" d="M22,56.07c3.3-.25,4.26.11,4.4.57.26.87-2.32,2.13-2.07,3.23.14.68,1.28,1,2.35,1.1"/><path class="cls-11" d="M37.26,64.57c-.39-3.92.41-5,1.34-5.14s2.47.87,3.24.36c.51-.35.4-1.22.22-1.9"/><path class="cls-11" d="M39.35,65.3c.26-1.15.83-2.44,2.23-2.68,1.09-.19,2.05.36,2.58-.06s.54-1.27-.87-3.93"/><path class="cls-11" d="M33.37,59.12c3,1.34,3.44-.22,3.73-.62.54-.73-.87-2.16-.27-3.12.37-.59,1.55-.48,2.59-.24"/><path class="cls-10" d="M18.85,83.88a121.28,121.28,0,0,0-3.92,20.61c-.19,1.92-.34,3.84-.43,5.77a1.85,1.85,0,0,0,1.85,1.85,1.89,1.89,0,0,0,1.85-1.85c.09-1.68.21-3.36.36-5,.08-.84.17-1.68.27-2.51l.15-1.26c0-.1,0-.19,0-.3s.05-.39,0-.13,0-.06,0-.12,0-.25.05-.37q.72-5.07,1.87-10.06.66-2.83,1.45-5.62a1.85,1.85,0,1,0-3.57-1Z"/><path class="cls-10" d="M42.19,84.18c.42.8.8,1.62,1.16,2.45.14.31,0,0,0-.07l.15.38c.05.12.14.33.2.5.17.44.34.88.5,1.32.6,1.68,1.11,3.4,1.57,5.12.93,3.44,1.67,6.94,2.58,10.39.52,2,1.09,3.89,1.77,5.79a1.89,1.89,0,0,0,2.28,1.29,1.87,1.87,0,0,0,1.29-2.27c-2.45-6.8-3.39-14-5.76-20.85a45.35,45.35,0,0,0-2.52-5.92,1.85,1.85,0,0,0-2.53-.66h0A1.89,1.89,0,0,0,42.19,84.18Z"/><path class="cls-12" d="M37.38,107.49H28.21A8.22,8.22,0,0,1,20,99.28a7.3,7.3,0,0,1,.09-1.14l4.58-32.58A8.21,8.21,0,0,1,32.8,58.5h0a8.2,8.2,0,0,1,8.12,7.06l4.59,32.58a8.21,8.21,0,0,1-7,9.27A8.77,8.77,0,0,1,37.38,107.49Z"/><g class="cls-13"><rect class="cls-14" x="24.36" y="92.74" width="5.71" height="3.55" rx="1.11"/><path class="cls-15" d="M24.37,95.33s4.28.39,4.62-.14-.13-2.45-.13-2.45a1.19,1.19,0,0,1,1.21,1.07v1.45a1.23,1.23,0,0,1-1.26,1h-3.4A1.2,1.2,0,0,1,24.37,95.33Z"/><rect class="cls-14" x="30.15" y="92.63" width="5.71" height="3.55" rx="1.11"/><path class="cls-15" d="M30.14,95.22s4.29.39,4.63-.14-.13-2.45-.13-2.45a1.18,1.18,0,0,1,1.21,1.07v1.44a1.23,1.23,0,0,1-1.26,1H31.2A1.22,1.22,0,0,1,30.14,95.22Z"/><rect class="cls-14" x="24.34" y="89.05" width="5.71" height="3.55" rx="1.11"/><path class="cls-15" d="M24.35,91.64S28.64,92,29,91.5s-.13-2.45-.13-2.45a1.2,1.2,0,0,1,1.21,1.06v1.45a1.24,1.24,0,0,1-1.27,1H25.4A1.2,1.2,0,0,1,24.35,91.64Z"/><rect class="cls-14" x="30.14" y="88.94" width="5.71" height="3.55" rx="1.11"/><path class="cls-15" d="M30.14,91.54s4.29.39,4.63-.14S34.64,89,34.64,89A1.19,1.19,0,0,1,35.85,90v1.44a1.23,1.23,0,0,1-1.26,1H31.2A1.22,1.22,0,0,1,30.14,91.54Z"/><rect class="cls-14" x="24.42" y="85.4" width="5.71" height="3.55" rx="1.11"/><path class="cls-15" d="M24.43,88s4.28.39,4.62-.14-.13-2.45-.13-2.45a1.19,1.19,0,0,1,1.21,1.07v1.45a1.23,1.23,0,0,1-1.26,1H25.48A1.2,1.2,0,0,1,24.43,88Z"/><rect class="cls-14" x="30.21" y="85.29" width="5.71" height="3.55" rx="1.11"/><path class="cls-15" d="M30.22,87.88s4.29.39,4.62-.14-.13-2.45-.13-2.45a1.19,1.19,0,0,1,1.21,1.07V87.8a1.2,1.2,0,0,1-1.26,1H31.27A1.19,1.19,0,0,1,30.22,87.88Z"/><rect class="cls-14" x="35.89" y="88.98" width="5.71" height="3.55" rx="1.11"/><path class="cls-15" d="M35.9,91.58s4.29.38,4.63-.14S40.39,89,40.39,89a1.17,1.17,0,0,1,1.21,1.06V91.5a1.23,1.23,0,0,1-1.26,1H37A1.19,1.19,0,0,1,35.9,91.58Z"/><rect class="cls-14" x="21.3" y="82.41" width="4.78" height="2.97" rx="1.11"/><path class="cls-15" d="M21.31,84.58s3.58.33,3.86-.12-.11-2-.11-2a1,1,0,0,1,1,.89v1.21a1,1,0,0,1-1,.85H22.2A1,1,0,0,1,21.31,84.58Z"/><rect class="cls-14" x="26.09" y="82.34" width="4.78" height="2.97" rx="1.11"/><path class="cls-15" d="M26.1,84.51s3.59.32,3.87-.12-.11-2-.11-2a1,1,0,0,1,1,.89v1.21a1,1,0,0,1-1.06.86H27A1,1,0,0,1,26.1,84.51Z"/><rect class="cls-14" x="30.94" y="82.23" width="4.78" height="2.97" rx="1.11"/><path class="cls-15" d="M30.94,84.4s3.59.32,3.87-.12-.11-2-.11-2a1,1,0,0,1,1,.89v1.21a1,1,0,0,1-1.05.86H31.83A1,1,0,0,1,30.94,84.4Z"/><rect class="cls-14" x="35.78" y="82.3" width="4.78" height="2.97" rx="1.11"/><path class="cls-15" d="M35.79,84.46s3.58.31,3.87-.11-.12-2-.12-2a1,1,0,0,1,1,.89V84.4a1,1,0,0,1-1.06.86H36.67A1,1,0,0,1,35.79,84.46Z"/><rect class="cls-14" x="21.29" y="79.34" width="4.78" height="2.97" rx="1.11"/><path class="cls-15" d="M21.3,81.5s3.58.33,3.86-.11-.11-2-.11-2a1,1,0,0,1,1,.89v1.21A1,1,0,0,1,25,82.3H22.19A1,1,0,0,1,21.3,81.5Z"/><rect class="cls-14" x="26.09" y="79.27" width="4.78" height="2.97" rx="1.11"/><path class="cls-15" d="M26.09,81.44s3.59.32,3.87-.12-.11-2-.11-2a1,1,0,0,1,1,.89v1.21a1,1,0,0,1-1.05.87H27A1,1,0,0,1,26.09,81.44Z"/><rect class="cls-14" x="30.93" y="79.16" width="4.78" height="2.97" rx="1.11"/><path class="cls-15" d="M30.94,81.33s3.58.32,3.86-.12-.11-2-.11-2a1,1,0,0,1,1,.89v1.21a1,1,0,0,1-1.06.86H31.81A1,1,0,0,1,30.94,81.33Z"/><rect class="cls-14" x="35.77" y="79.22" width="4.78" height="2.97" rx="1.11"/><path class="cls-15" d="M35.78,81.39s3.59.31,3.87-.12-.11-2-.11-2a1,1,0,0,1,1,.9v1.21a1,1,0,0,1-1.06.86H36.67A1,1,0,0,1,35.78,81.39Z"/><rect class="cls-14" x="40.62" y="79.18" width="4.78" height="2.97" rx="1.11"/><path class="cls-15" d="M40.63,81.36s3.58.31,3.86-.11-.11-2-.11-2a1,1,0,0,1,1,.89V81.3a1,1,0,0,1-1.06.86H41.52A1,1,0,0,1,40.63,81.36Z"/><rect class="cls-14" x="36.02" y="85.37" width="5.71" height="3.55" rx="1.11"/><path class="cls-15" d="M36,88s4.28.39,4.62-.14-.13-2.45-.13-2.45a1.2,1.2,0,0,1,1.21,1.07v1.45a1.22,1.22,0,0,1-1.26,1H37.09A1.18,1.18,0,0,1,36,88Z"/><rect class="cls-14" x="40.63" y="82.26" width="4.78" height="2.97" rx="1.11"/><path class="cls-15" d="M40.63,84.42s3.58.33,3.87-.11-.12-2-.12-2a1,1,0,0,1,1,.89v1.21a1,1,0,0,1-1.06.86H41.52A1,1,0,0,1,40.63,84.42Z"/><rect class="cls-14" x="21.39" y="76.28" width="4.78" height="2.97" rx="1.11"/><path class="cls-15" d="M21.4,78.45s3.58.32,3.86-.12-.11-2-.11-2a1,1,0,0,1,1,.89v1.21a1,1,0,0,1-1.06.87H22.28A1,1,0,0,1,21.4,78.45Z"/><rect class="cls-14" x="26.19" y="76.21" width="4.78" height="2.97" rx="1.11"/><path class="cls-15" d="M26.19,78.38s3.58.32,3.87-.12-.12-2.05-.12-2.05a1,1,0,0,1,1,.89v1.21a1,1,0,0,1-1.06.87H27.08A1,1,0,0,1,26.19,78.38Z"/><rect class="cls-14" x="31.03" y="76.1" width="4.78" height="2.97" rx="1.11"/><path class="cls-15" d="M31,78.28s3.58.32,3.86-.12-.11-2-.11-2a1,1,0,0,1,1,.89v1.21a1,1,0,0,1-1,.87H31.92A1,1,0,0,1,31,78.28Z"/><rect class="cls-14" x="35.87" y="76.16" width="4.78" height="2.97" rx="1.11"/><path class="cls-15" d="M35.88,78.33s3.58.31,3.87-.12-.12-2-.12-2a1,1,0,0,1,1,.87v1.21a1,1,0,0,1-1.06.87H36.76A1,1,0,0,1,35.88,78.33Z"/><rect class="cls-14" x="40.72" y="76.12" width="4.78" height="2.97" rx="1.11"/><path class="cls-15" d="M40.73,78.28s3.58.33,3.86-.12-.11-2-.11-2a1,1,0,0,1,1,.88v1.22a1,1,0,0,1-1.05.86H41.61A1,1,0,0,1,40.73,78.28Z"/><rect class="cls-14" x="21.33" y="73.23" width="4.78" height="2.97" rx="1.11"/><path class="cls-15" d="M21.34,75.4s3.59.32,3.87-.12-.11-2-.11-2a1,1,0,0,1,1,.89v1.21a1,1,0,0,1-1.05.87H22.23A1,1,0,0,1,21.34,75.4Z"/><rect class="cls-14" x="26.13" y="73.16" width="4.78" height="2.97" rx="1.11"/><path class="cls-15" d="M26.14,75.33s3.58.31,3.86-.12-.11-2-.11-2a1,1,0,0,1,1,.89v1.21a1,1,0,0,1-1,.87H27A1,1,0,0,1,26.14,75.33Z"/><rect class="cls-14" x="30.97" y="73.05" width="4.78" height="2.97" rx="1.11"/><path class="cls-15" d="M31,75.22s3.58.32,3.86-.12-.11-2-.11-2a1,1,0,0,1,1,.89v1.21a1,1,0,0,1-1.06.86H31.87A1,1,0,0,1,31,75.22Z"/><rect class="cls-14" x="35.82" y="73.11" width="4.78" height="2.97" rx="1.11"/><path class="cls-15" d="M35.83,75.28s3.58.31,3.86-.12-.11-2-.11-2a1,1,0,0,1,1,.89v1.21a1,1,0,0,1-1.06.86H36.71A1,1,0,0,1,35.83,75.28Z"/><rect class="cls-14" x="40.66" y="73.07" width="4.78" height="2.97" rx="1.11"/><path class="cls-15" d="M40.67,75.24s3.58.32,3.86-.12-.11-2-.11-2a1,1,0,0,1,1,.88v1.21a1,1,0,0,1-1.06.87H41.56A1,1,0,0,1,40.67,75.24Z"/><rect class="cls-14" x="21.22" y="70.18" width="4.78" height="2.97" rx="1.11"/><path class="cls-15" d="M21.23,72.35s3.59.32,3.87-.12-.11-2-.11-2a1,1,0,0,1,1,.89v1.21a1,1,0,0,1-1.06.87H22.12A1,1,0,0,1,21.23,72.35Z"/><rect class="cls-14" x="26.02" y="70.11" width="4.78" height="2.97" rx="1.11"/><path class="cls-15" d="M26,72.28s3.59.31,3.87-.12-.11-2-.11-2a1,1,0,0,1,1,.89v1.21a1,1,0,0,1-1.05.87H26.91A1,1,0,0,1,26,72.28Z"/><rect class="cls-14" x="30.86" y="70" width="4.78" height="2.97" rx="1.11"/><path class="cls-15" d="M30.87,72.17s3.58.3,3.86-.12-.11-2-.11-2a1,1,0,0,1,1,.89V72.1a1,1,0,0,1-1.06.86H31.75A1,1,0,0,1,30.87,72.17Z"/><rect class="cls-14" x="35.71" y="70.06" width="4.78" height="2.97" rx="1.11"/><path class="cls-15" d="M35.71,72.23s3.59.31,3.87-.12-.11-2-.11-2a1,1,0,0,1,1,.89v1.21a1,1,0,0,1-1.06.86h-2.8A1,1,0,0,1,35.71,72.23Z"/><rect class="cls-14" x="40.55" y="70.02" width="4.78" height="2.97" rx="1.11"/><path class="cls-15" d="M40.56,72.19s3.58.31,3.86-.12-.11-2-.11-2a1,1,0,0,1,1,.88v1.22a1,1,0,0,1-1.06.86H41.44A1,1,0,0,1,40.56,72.19Z"/><rect class="cls-14" x="21.17" y="67.13" width="4.78" height="2.97" rx="1.11"/><path class="cls-15" d="M21.18,69.3s3.58.31,3.86-.12-.11-2.05-.11-2.05a1,1,0,0,1,1,.89v1.21a1,1,0,0,1-1,.87H22.08A1,1,0,0,1,21.18,69.3Z"/><rect class="cls-14" x="25.96" y="67.06" width="4.78" height="2.97" rx="1.11"/><path class="cls-15" d="M26,69.23s3.58.32,3.87-.12-.12-2-.12-2a1,1,0,0,1,1,.89v1.21a1,1,0,0,1-1.06.87H26.86A1,1,0,0,1,26,69.23Z"/><rect class="cls-14" x="30.8" y="66.95" width="4.78" height="2.97" rx="1.11"/><path class="cls-15" d="M30.81,69.12s3.59.32,3.87-.12-.11-2-.11-2a1,1,0,0,1,1,.89v1.21a1,1,0,0,1-1.06.86H31.7A1,1,0,0,1,30.81,69.12Z"/><rect class="cls-14" x="35.65" y="67.01" width="4.78" height="2.97" rx="1.11"/><path class="cls-15" d="M35.66,69.18s3.58.31,3.86-.11-.11-2-.11-2a1,1,0,0,1,1,.89v1.21a1,1,0,0,1-1.06.86H36.54A1,1,0,0,1,35.66,69.18Z"/><rect class="cls-14" x="40.49" y="66.97" width="4.78" height="2.97" rx="1.11"/><path class="cls-15" d="M40.5,69.14s3.59.32,3.87-.12-.11-2-.11-2a1,1,0,0,1,1,.88v1.22a1,1,0,0,1-1.06.86H41.39A1,1,0,0,1,40.5,69.14Z"/><rect class="cls-14" x="21.17" y="64.1" width="4.78" height="2.97" rx="1.11"/><path class="cls-15" d="M21.18,66.27s3.58.32,3.86-.12-.11-2.06-.11-2.06a1,1,0,0,1,1,.89v1.21a1,1,0,0,1-1,.88H22.08A1,1,0,0,1,21.18,66.27Z"/><rect class="cls-14" x="25.96" y="64.03" width="4.78" height="2.97" rx="1.11"/><path class="cls-15" d="M26,66.2s3.58.3,3.87-.12-.12-2-.12-2a1,1,0,0,1,1,.89v1.21a1,1,0,0,1-1.06.86H26.86A1,1,0,0,1,26,66.2Z"/><rect class="cls-14" x="30.8" y="63.92" width="4.78" height="2.97" rx="1.11"/><path class="cls-15" d="M30.81,66.08s3.59.31,3.87-.11-.11-2-.11-2a1,1,0,0,1,1,.89V66a1,1,0,0,1-1.06.86H31.7A1,1,0,0,1,30.81,66.08Z"/><rect class="cls-14" x="35.65" y="63.98" width="4.78" height="2.97" rx="1.11"/><path class="cls-15" d="M35.66,66.15s3.58.31,3.86-.11S39.41,64,39.41,64a1,1,0,0,1,1,.9v1.21a1,1,0,0,1-1.06.86H36.54A1,1,0,0,1,35.66,66.15Z"/><rect class="cls-14" x="40.49" y="63.94" width="4.78" height="2.97" rx="1.11"/><path class="cls-15" d="M40.5,66.11s3.59.32,3.87-.12-.11-2-.11-2a1,1,0,0,1,1,.89V66a1,1,0,0,1-1.06.87H41.39A1,1,0,0,1,40.5,66.11Z"/><rect class="cls-14" x="21.15" y="61.04" width="4.78" height="2.97" rx="1.11"/><path class="cls-15" d="M21.16,63.21s3.58.31,3.86-.12S24.9,61,24.9,61a1,1,0,0,1,1,.89v1.22a1,1,0,0,1-1.06.86H22A1,1,0,0,1,21.16,63.21Z"/><rect class="cls-14" x="25.94" y="60.97" width="4.78" height="2.97" rx="1.11"/><path class="cls-15" d="M26,63.14s3.58.34,3.87-.12S29.7,61,29.7,61a1,1,0,0,1,1,.89v1.21a1,1,0,0,1-1.06.87H26.84A1,1,0,0,1,26,63.14Z"/><rect class="cls-14" x="30.79" y="60.86" width="4.78" height="2.97" rx="1.11"/><path class="cls-15" d="M30.8,63s3.58.32,3.86-.12-.11-2-.11-2a1,1,0,0,1,1,.89V63a1,1,0,0,1-1.05.87H31.68A1,1,0,0,1,30.8,63Z"/><rect class="cls-14" x="35.63" y="60.93" width="4.78" height="2.97" rx="1.11"/><path class="cls-15" d="M35.64,63.09s3.58.31,3.86-.11-.11-2-.11-2a1,1,0,0,1,1,.89V63a1,1,0,0,1-1.06.86H36.53A1,1,0,0,1,35.64,63.09Z"/><rect class="cls-14" x="25.94" y="57.9" width="4.78" height="2.97" rx="1.11"/><path class="cls-15" d="M26,60.08s3.58.31,3.87-.13-.12-2-.12-2a1,1,0,0,1,1,.88V60a1,1,0,0,1-1.06.86H26.84A1,1,0,0,1,26,60.08Z"/><rect class="cls-14" x="30.79" y="57.79" width="4.78" height="2.97" rx="1.11"/><path class="cls-15" d="M30.8,60s3.58.32,3.86-.12-.11-2-.11-2a1,1,0,0,1,1,.88V59.9a1,1,0,0,1-1.05.86H31.68A1,1,0,0,1,30.8,60Z"/><rect class="cls-14" x="35.63" y="57.86" width="4.78" height="2.97" rx="1.11"/><path class="cls-15" d="M35.64,60s3.58.33,3.86-.11-.11-2-.11-2a1,1,0,0,1,1,.89V60a1,1,0,0,1-1.06.86H36.53A1,1,0,0,1,35.64,60Z"/><rect class="cls-14" x="28.42" y="99.78" width="5.71" height="3.55" rx="1.11"/><path class="cls-15" d="M28.43,102.38s4.28.38,4.62-.14-.13-2.45-.13-2.45a1.17,1.17,0,0,1,1.21,1.06v1.45a1.23,1.23,0,0,1-1.26,1H29.48A1.18,1.18,0,0,1,28.43,102.38Z"/><rect class="cls-14" x="24.43" y="96.33" width="5.71" height="3.55" rx="1.11"/><path class="cls-15" d="M24.44,98.92s4.29.39,4.63-.14-.14-2.45-.14-2.45a1.19,1.19,0,0,1,1.21,1.07v1.45a1.23,1.23,0,0,1-1.26,1H25.49A1.19,1.19,0,0,1,24.44,98.92Z"/><rect class="cls-14" x="30.22" y="96.22" width="5.71" height="3.55" rx="1.11"/><path class="cls-15" d="M30.23,98.81s4.29.39,4.63-.14-.14-2.45-.14-2.45a1.21,1.21,0,0,1,1.22,1.07v1.45a1.23,1.23,0,0,1-1.26,1h-3.4A1.19,1.19,0,0,1,30.23,98.81Z"/></g><path class="cls-16" d="M32.57,108c-1.58-5.09-.72-12.15,3-16.84A53.58,53.58,0,0,0,46.36,69.77c-2.31,21.12,1.38,30.81-2.07,35.18S32.57,108,32.57,108Z"/><path class="cls-16" d="M32.71,108c.51-3.14-1.73-5.19-4.28-9-6.21-9.19-3.39-21-8.9-26.06,1.1,10-5.11,23.74,1.46,32.05C24.32,109.19,32.71,108,32.71,108Z"/><rect class="cls-16" x="29.35" y="105.65" width="6.9" height="4.37"/><path d="M25,66.87a3.32,3.32,0,0,1,3.51-1.65A2.81,2.81,0,0,0,26,65,2.41,2.41,0,0,0,25,66.87Z"/><path d="M40.54,66.73A3.32,3.32,0,0,0,37,65.08a2.81,2.81,0,0,1,2.47-.18A2.41,2.41,0,0,1,40.54,66.73Z"/><path class="cls-17" d="M33.94,77.55s-1.32-1.47-2-.7c-.52.58.66,1.15,1,2"/><path class="cls-18" d="M28.09,82a10.15,10.15,0,0,1,5.12-1.65,9.46,9.46,0,0,1,5.33,1.58"/><path class="cls-18" d="M40.68,80.46c-1.91.75-2.75,2-2.39,3.79"/><path class="cls-18" d="M25.84,80.33c1.91.75,2.75,2,2.39,3.79"/><ellipse class="cls-19" cx="28.16" cy="71.74" rx="3.12" ry="5.46"/><ellipse class="cls-20" cx="28.19" cy="71.92" rx="1.38" ry="2.19"/><path class="cls-21" d="M31.27,71.73H25c0-3,1.4-5.45,3.12-5.45S31.27,68.72,31.27,71.73Z"/><ellipse class="cls-19" cx="37.35" cy="71.8" rx="3.12" ry="5.46"/><ellipse class="cls-20" cx="37.38" cy="71.97" rx="1.38" ry="2.19"/><path class="cls-21" d="M40.46,71.76H34.23c0-3,1.4-5.45,3.12-5.45S40.46,68.75,40.46,71.76Z"/><polygon class="cls-20" points="38.91 71.76 40.89 70.18 40.01 71.74 40.93 71.06 40.5 71.79 38.91 71.76"/><polygon class="cls-20" points="26.65 71.73 24.65 70.12 25.53 71.68 24.61 71.01 25.04 71.73 26.65 71.73"/><rect class="cls-22" x="16.46" y="111.68" width="0.65" height="1.86" transform="translate(-37.61 12.59) rotate(-20.06)"/><path class="cls-23" d="M17.73,114.1a2.1,2.1,0,0,1,.64,1c.11.42.2.85.27,1.28,0,.27.14.87.2,1.2s.05,2.78.05,2.78a1.81,1.81,0,0,1-.16.75c-.54,1.23-2.13,1.16-2.33-.62-.11,2.48-3.12,2.51-2.84-.29-.58,1-1.65.92-2,.28a1,1,0,0,1-.13-.7l.49-3.22a7.2,7.2,0,0,0,.07-.8l0-2.25a4,4,0,0,1,.14-1,3.55,3.55,0,0,1,.42-1,6,6,0,0,1,1.09-1.27.62.62,0,0,1,.39-.14l.82,0a.67.67,0,0,0,.55-.28l.54-.71.4.77a.55.55,0,0,0,.42.29l1.32.14a.85.85,0,0,1,.31.09,2.88,2.88,0,0,1,1.49,1.85c.13.5.23,1,.31,1.52a6.81,6.81,0,0,1,0,2.16v0a1.12,1.12,0,0,1-.54.78c-.48.26-.76,0-1.06-.76"/><line class="cls-24" x1="16.42" y1="120.75" x2="16.45" y2="116.98"/><path class="cls-24" d="M13.51,120.42c.24-1,.46-2.34.67-3.8"/><path class="cls-23" d="M16.5,110.26a5.38,5.38,0,0,0,1.65.1h0a.76.76,0,0,0,0-1.09.44.44,0,0,0-.11-.09,3.82,3.82,0,0,0-1.92-.52,3.08,3.08,0,0,0-1.89.38.78.78,0,0,0-.33.72,2.52,2.52,0,0,0,.1.46,3.35,3.35,0,0,0,1.3,0"/><rect class="cls-25" x="49.97" y="110.82" width="1.86" height="0.65" transform="translate(-70.96 120.83) rotate(-69.94)"/><path class="cls-23" d="M50,112.64a2,2,0,0,0-.64,1,11.16,11.16,0,0,0-.26,1.28c0,.27-.15.87-.21,1.2s-.05,2.77-.05,2.77a1.81,1.81,0,0,0,.15.76c.54,1.23,2.13,1.16,2.33-.62.11,2.48,3.12,2.51,2.84-.29.58,1,1.65.92,2,.28a1,1,0,0,0,.13-.7l-.49-3.22a7.2,7.2,0,0,1-.07-.8l-.05-2.25a3.84,3.84,0,0,0-.14-1,3.54,3.54,0,0,0-.42-1A6,6,0,0,0,54,108.88a.57.57,0,0,0-.39-.14l-.82,0a.68.68,0,0,1-.55-.28l-.55-.71-.4.77a.55.55,0,0,1-.42.29l-1.32.14a.85.85,0,0,0-.31.09,2.88,2.88,0,0,0-1.49,1.85c-.13.5-.23,1-.31,1.52a6.8,6.8,0,0,0,0,2.16v0a1.14,1.14,0,0,0,.55.78c.48.26.76,0,1.06-.76"/><line class="cls-24" x1="51.27" y1="119.29" x2="51.23" y2="115.52"/><path class="cls-24" d="M54.17,119c-.24-1-.46-2.34-.67-3.79"/><path class="cls-23" d="M51.18,108.81a5.38,5.38,0,0,1-1.65.1h0a.77.77,0,0,1,0-1.09l.11-.09a3.78,3.78,0,0,1,1.91-.52,3,3,0,0,1,1.89.38.74.74,0,0,1,.33.72,1.8,1.8,0,0,1-.1.46,3.55,3.55,0,0,1-1.3,0"/><path class="cls-8" d="M144.34,135.49a1.5,1.5,0,0,1,.78,1.72c-.39,1.1-1.49,1.64-3.07,1.56l-2.3-.22a4.73,4.73,0,0,0-.53,0l-2.94.08a14.49,14.49,0,0,1-4.45-.43c-1.2-.48-1.87-1.24-1.37-2.6a5.4,5.4,0,0,1,2.93-1.17Z"/><path class="cls-6" d="M138.25,133.48a4,4,0,0,0-3.11-2.13,1.2,1.2,0,0,1-.2,0c-2-.13-3.52.4-4.17,1.8a2.93,2.93,0,0,0,0,2.52,3.84,3.84,0,0,0,3.11,1.77,2.13,2.13,0,0,0,.44,0c2.44-.1,3.77-.19,4.92-.2a8.84,8.84,0,0,1,1.62.12,6.12,6.12,0,0,0,1.54.07,2.56,2.56,0,0,0,2.07-1.53,5,5,0,0,0,.38-2c0-2.72-1.32-3.62-1.6-3.6a3.5,3.5,0,0,1-1.15.31s-.67-.53-1-.52-.89.59-.89.59a6.13,6.13,0,0,1-1.7-.3,7.19,7.19,0,0,0-1.39,1.75"/><path class="cls-7" d="M142,130.68c1.34-.25,2.29-.92,2.29-1.7,0-1-1.54-1.81-3.44-1.81s-3.44.81-3.44,1.81,1.23,1.63,2.83,1.78"/><path class="cls-8" d="M147.15,135.41a1.5,1.5,0,0,0-.77,1.72c.38,1.1,1.48,1.63,3.06,1.56l2.3-.22a3.15,3.15,0,0,1,.53,0l2.95.08a14.49,14.49,0,0,0,4.45-.43c1.2-.48,1.87-1.24,1.38-2.59a5.47,5.47,0,0,0-2.94-1.18Z"/><path class="cls-6" d="M153.25,133.41a4,4,0,0,1,3.1-2.13l.21,0c1.95-.13,3.51.4,4.16,1.8a2.93,2.93,0,0,1,0,2.52,3.84,3.84,0,0,1-3.1,1.77,2.26,2.26,0,0,1-.45,0c-2.44-.1-3.76-.19-4.91-.2a8.88,8.88,0,0,0-1.63.12,6.08,6.08,0,0,1-1.54.07,2.53,2.53,0,0,1-2.06-1.54,4.72,4.72,0,0,1-.38-2c0-2.71,1.31-3.61,1.59-3.59a3.57,3.57,0,0,0,1.15.31s.67-.53,1-.52.89.58.89.58a6.13,6.13,0,0,0,1.7-.3,6.7,6.7,0,0,1,1.39,1.74"/><path class="cls-7" d="M149.46,130.6c-1.34-.25-2.29-.92-2.29-1.7,0-1,1.54-1.82,3.44-1.82s3.45.82,3.45,1.82-1.24,1.63-2.84,1.78"/><path class="cls-26" d="M140.65,129.33h0c-.78,0-1.41-.85-1.41-1.9a57.68,57.68,0,0,1,0-17h2.83a57.58,57.58,0,0,0,0,17C142.07,128.48,141.43,129.33,140.65,129.33Z"/><path class="cls-26" d="M150.58,129.47h0c-.79,0-1.42-.85-1.42-1.9,1.31-4.84,1.14-10.6,0-17H152a42.76,42.76,0,0,1,0,17C152,128.62,151.34,129.47,150.58,129.47Z"/><path class="cls-26" d="M163.47,121.07h0c.69-.22.92-1.4.54-2.64a95.89,95.89,0,0,0-6.39-20l-2.51.8a95.71,95.71,0,0,1,6.39,20C161.89,120.47,162.77,121.3,163.47,121.07Z"/><path class="cls-9" d="M164.82,119.47c.08-.54,0-1-.52-1.19a2.41,2.41,0,0,0-1.74.2,3.24,3.24,0,0,0-1.46,1.18.83.83,0,0,0,0,1,.81.81,0,0,0,.36.3Z"/><path class="cls-9" d="M162.23,119.79a1.13,1.13,0,0,0-.45.54l-.46,1.12a7.42,7.42,0,0,1-2.13,2.33.73.73,0,0,0-.24.87.48.48,0,0,0,.56.31,3.75,3.75,0,0,0,2.74-1.19,11.79,11.79,0,0,0,2.88,2.8c.16.1.32.2.48.28.39.2.73.4,1.1.55a2,2,0,0,0,1.32.17c.8-.23.79-.86-.44-1.85l1.34.09a2.66,2.66,0,0,0,1.39-.26c1.11-.54.81-1.37-.52-1.89.59-.36.93-.74.64-1.17a.81.81,0,0,0-.5-.35l-1.23-.31a2.37,2.37,0,0,1-.84-.38,25.63,25.63,0,0,0-2.61-1.67,8.25,8.25,0,0,0-1.46-.46,1.17,1.17,0,0,0-.69.06"/><path class="cls-9" d="M166.66,122.5a3.88,3.88,0,0,0,3.14,1.13"/><path class="cls-9" d="M165.13,123.78a4.88,4.88,0,0,0,2.47,1.91"/><path class="cls-26" d="M128,121.52h0c-.7-.22-.93-1.4-.54-2.64a95.92,95.92,0,0,1,6.38-20l2.51.8a95.24,95.24,0,0,0-6.38,20C129.59,120.92,128.71,121.74,128,121.52Z"/><path class="cls-27" d="M145.88,118.76c9.5-2.16,13.18-13.45,13.49-14.44,4.51-16.3-6.68-18.87-6.68-18.87H138.14s-10.15,3-5.56,19.87C135.79,116,143.59,118.76,145.88,118.76Z"/><ellipse class="cls-28" cx="135.01" cy="107.57" rx="0.93" ry="3.17" transform="translate(-32.74 66.84) rotate(-24.9)"/><path class="cls-29" d="M157.58,101.32c.09,3.56-.51,4.24-1,4.54-1.28.77-3.66.18-4.73-1.13-1.44-1.78.24-4-1-4.94s-3.49,1.11-5.86.11a3.91,3.91,0,0,1-2.36-3.4c0-2.48,3.5-3.92,4.5-4.31.51-.21,5.14-2.12,8.21,0C157.38,93.56,157.45,96.15,157.58,101.32Z"/><ellipse class="cls-30" cx="149.53" cy="114.36" rx="0.37" ry="1.16"/><ellipse class="cls-31" cx="149.49" cy="114.35" rx="0.37" ry="1.16"/><ellipse class="cls-30" cx="149.53" cy="114.36" rx="0.37" ry="1.16"/><ellipse class="cls-30" cx="145.44" cy="116.37" rx="0.37" ry="1.16"/><ellipse class="cls-31" cx="145.4" cy="116.37" rx="0.37" ry="1.16"/><ellipse class="cls-30" cx="145.44" cy="116.37" rx="0.37" ry="1.16"/><ellipse class="cls-30" cx="141.26" cy="114.07" rx="0.37" ry="1.16"/><ellipse class="cls-31" cx="141.21" cy="114.06" rx="0.37" ry="1.16"/><ellipse class="cls-30" cx="141.26" cy="114.07" rx="0.37" ry="1.16"/><ellipse class="cls-30" cx="156.64" cy="107.29" rx="0.37" ry="1.16"/><ellipse class="cls-31" cx="156.6" cy="107.28" rx="0.37" ry="1.16"/><ellipse class="cls-30" cx="156.64" cy="107.29" rx="0.37" ry="1.16"/><ellipse class="cls-30" cx="153.14" cy="111.72" rx="0.37" ry="1.16"/><ellipse class="cls-31" cx="153.09" cy="111.71" rx="0.37" ry="1.16"/><ellipse class="cls-30" cx="153.14" cy="111.72" rx="0.37" ry="1.16"/><ellipse class="cls-30" cx="140.55" cy="109.18" rx="0.37" ry="1.16"/><ellipse class="cls-31" cx="140.51" cy="109.17" rx="0.37" ry="1.16"/><ellipse class="cls-30" cx="140.55" cy="109.18" rx="0.37" ry="1.16"/><ellipse class="cls-30" cx="143.99" cy="111.64" rx="0.37" ry="1.16"/><ellipse class="cls-31" cx="143.95" cy="111.63" rx="0.37" ry="1.16"/><ellipse class="cls-30" cx="143.99" cy="111.64" rx="0.37" ry="1.16"/><ellipse class="cls-30" cx="137.69" cy="105.84" rx="0.37" ry="1.16"/><ellipse class="cls-31" cx="137.65" cy="105.83" rx="0.37" ry="1.16"/><ellipse class="cls-30" cx="137.69" cy="105.84" rx="0.37" ry="1.16"/><ellipse class="cls-30" cx="147.51" cy="111.47" rx="0.37" ry="1.16"/><ellipse class="cls-31" cx="147.46" cy="111.46" rx="0.37" ry="1.16"/><ellipse class="cls-30" cx="147.51" cy="111.47" rx="0.37" ry="1.16"/><ellipse class="cls-30" cx="151.22" cy="108.85" rx="0.37" ry="1.16"/><ellipse class="cls-31" cx="151.17" cy="108.84" rx="0.37" ry="1.16"/><ellipse class="cls-30" cx="151.22" cy="108.85" rx="0.37" ry="1.16"/><ellipse class="cls-30" cx="154.13" cy="105.08" rx="0.37" ry="1.16"/><ellipse class="cls-31" cx="154.08" cy="105.07" rx="0.37" ry="1.16"/><ellipse class="cls-30" cx="154.13" cy="105.08" rx="0.37" ry="1.16"/><ellipse class="cls-30" cx="134.65" cy="101.95" rx="0.37" ry="1.16"/><ellipse class="cls-31" cx="134.61" cy="101.94" rx="0.37" ry="1.16"/><ellipse class="cls-30" cx="134.65" cy="101.95" rx="0.37" ry="1.16"/><ellipse class="cls-30" cx="157.43" cy="101.59" rx="0.37" ry="1.16"/><ellipse class="cls-31" cx="157.38" cy="101.58" rx="0.37" ry="1.16"/><ellipse class="cls-30" cx="157.43" cy="101.59" rx="0.37" ry="1.16"/><ellipse class="cls-30" cx="145.4" cy="108.16" rx="0.37" ry="1.16"/><ellipse class="cls-31" cx="145.36" cy="108.15" rx="0.37" ry="1.16"/><ellipse class="cls-30" cx="145.4" cy="108.16" rx="0.37" ry="1.16"/><ellipse class="cls-30" cx="151.94" cy="86.92" rx="0.37" ry="1.16"/><ellipse class="cls-31" cx="151.89" cy="86.93" rx="0.37" ry="1.16"/><ellipse class="cls-30" cx="151.94" cy="86.92" rx="0.37" ry="1.16"/><ellipse class="cls-30" cx="141.26" cy="86.77" rx="0.37" ry="1.16"/><ellipse class="cls-31" cx="141.21" cy="86.78" rx="0.37" ry="1.16"/><ellipse class="cls-30" cx="141.26" cy="86.77" rx="0.37" ry="1.16"/><ellipse class="cls-30" cx="136.49" cy="88.92" rx="0.37" ry="1.16"/><ellipse class="cls-31" cx="136.45" cy="88.93" rx="0.37" ry="1.16"/><ellipse class="cls-30" cx="136.49" cy="88.92" rx="0.37" ry="1.16"/><ellipse class="cls-30" cx="133.31" cy="92.94" rx="0.37" ry="1.16"/><ellipse class="cls-31" cx="133.27" cy="92.95" rx="0.37" ry="1.16"/><ellipse class="cls-30" cx="133.31" cy="92.94" rx="0.37" ry="1.16"/><ellipse class="cls-30" cx="157.52" cy="92.9" rx="0.37" ry="1.16"/><ellipse class="cls-31" cx="157.47" cy="92.91" rx="0.37" ry="1.16"/><ellipse class="cls-30" cx="157.52" cy="92.9" rx="0.37" ry="1.16"/><ellipse class="cls-30" cx="155.54" cy="89.56" rx="0.37" ry="1.16"/><path class="cls-31" d="M155.49,88.41c.21,0,.37.52.37,1.16s-.16,1.16-.37,1.16-.36-.52-.36-1.16S155.29,88.41,155.49,88.41Z"/><ellipse class="cls-30" cx="155.54" cy="89.56" rx="0.37" ry="1.16"/><ellipse class="cls-30" cx="140.55" cy="91.66" rx="0.37" ry="1.16"/><ellipse class="cls-31" cx="140.51" cy="91.67" rx="0.37" ry="1.16"/><ellipse class="cls-30" cx="140.55" cy="91.66" rx="0.37" ry="1.16"/><ellipse class="cls-30" cx="143.99" cy="89.2" rx="0.37" ry="1.16"/><ellipse class="cls-31" cx="143.95" cy="89.21" rx="0.37" ry="1.16"/><ellipse class="cls-30" cx="143.99" cy="89.2" rx="0.37" ry="1.16"/><ellipse class="cls-30" cx="137.69" cy="95" rx="0.37" ry="1.16"/><ellipse class="cls-31" cx="137.65" cy="95.01" rx="0.37" ry="1.16"/><ellipse class="cls-30" cx="137.69" cy="95" rx="0.37" ry="1.16"/><ellipse class="cls-30" cx="147.07" cy="89.15" rx="0.37" ry="1.16"/><ellipse class="cls-31" cx="147.03" cy="89.16" rx="0.37" ry="1.16"/><ellipse class="cls-30" cx="147.07" cy="89.15" rx="0.37" ry="1.16"/><ellipse class="cls-30" cx="150.78" cy="91.34" rx="0.37" ry="1.16"/><ellipse class="cls-31" cx="150.74" cy="91.35" rx="0.37" ry="1.16"/><ellipse class="cls-30" cx="150.78" cy="91.34" rx="0.37" ry="1.16"/><ellipse class="cls-30" cx="154.13" cy="95.54" rx="0.37" ry="1.16"/><ellipse class="cls-31" cx="154.08" cy="95.55" rx="0.37" ry="1.16"/><ellipse class="cls-30" cx="154.13" cy="95.54" rx="0.37" ry="1.16"/><ellipse class="cls-30" cx="132.9" cy="98.23" rx="0.37" ry="1.16"/><ellipse class="cls-31" cx="132.86" cy="98.24" rx="0.37" ry="1.16"/><ellipse class="cls-30" cx="132.9" cy="98.23" rx="0.37" ry="1.16"/><ellipse class="cls-30" cx="158.52" cy="96.85" rx="0.37" ry="1.16"/><ellipse class="cls-31" cx="158.48" cy="96.86" rx="0.37" ry="1.16"/><ellipse class="cls-30" cx="158.52" cy="96.85" rx="0.37" ry="1.16"/><ellipse class="cls-30" cx="145.4" cy="92.68" rx="0.37" ry="1.16"/><ellipse class="cls-31" cx="145.36" cy="92.69" rx="0.37" ry="1.16"/><ellipse class="cls-30" cx="145.4" cy="92.68" rx="0.37" ry="1.16"/><path class="cls-32" d="M147.27,96.75c-.23,2.15.61,4,1.91,4.17,1.11.12,1.8-1,2.22-2.8-2.81-1.08-2.69-.42.14-1.31-.11-1.67-.47-3.63-1.53-3.75C148.73,92.93,147.5,94.57,147.27,96.75Z"/><polygon class="cls-32" points="150.84 96.99 152.11 96.02 151.44 96.78 152.8 96.14 151.89 96.81 150.84 96.99"/><path class="cls-32" d="M143.78,96.78c.21,2.16-.67,4-2,4.16-1.11.1-1.79-1.07-2.19-2.82,2.82-1.05,2.69-.4-.12-1.32.12-1.66.5-3.63,1.56-3.73C142.36,93,143.57,94.62,143.78,96.78Z"/><polygon class="cls-32" points="140.27 96.99 139.01 96.01 139.67 96.77 138.32 96.12 139.22 96.79 140.27 96.99"/><path class="cls-32" d="M154.12,104.56c-.08-2.39-2.25-2.65-5.92-.68l.17-.17a7.55,7.55,0,0,1,2.25-1.3c1.27-.36,2.94-.35,3.44.39a1.81,1.81,0,0,1,.2,1.52Z"/><path class="cls-32" d="M137.47,104.45c.08-2.39,2.25-2.65,5.91-.67l-.17-.18a7.63,7.63,0,0,0-2.24-1.3c-1.27-.36-2.95-.34-3.45.39a1.81,1.81,0,0,0-.2,1.52Z"/><ellipse class="cls-33" cx="145.67" cy="103.39" rx="2.78" ry="1.44"/><ellipse class="cls-34" cx="145.66" cy="102.41" rx="1.2" ry="0.36"/><path class="cls-32" d="M140.44,105.51c3.47,1.35,7.54,1.57,10.63-.33a5.14,5.14,0,0,1-5.32,4.26C141.08,109.39,140.44,105.51,140.44,105.51Z"/><path class="cls-32" d="M151.44,105.83c-.12-.56-.57-.75-1.27-.62h0l.26-.14a1,1,0,0,1,.27-.09.71.71,0,0,1,.29,0h0a.61.61,0,0,1,.39.25.51.51,0,0,1,.07.46l0,.13Z"/><path class="cls-32" d="M140.12,106.07c.12-.56.58-.75,1.27-.62h0l-.26-.14a1.22,1.22,0,0,0-.27-.09.71.71,0,0,0-.29,0h0a.61.61,0,0,0-.39.25.53.53,0,0,0-.07.47l0,.12Z"/><ellipse class="cls-35" cx="139" cy="103.96" rx="0.29" ry="0.28"/><ellipse class="cls-35" cx="139.83" cy="103.78" rx="0.33" ry="0.31"/><ellipse class="cls-35" cx="139.59" cy="104.45" rx="0.21" ry="0.19"/><ellipse class="cls-35" cx="152.43" cy="103.95" rx="0.29" ry="0.28"/><ellipse class="cls-35" cx="151.61" cy="103.77" rx="0.33" ry="0.31"/><ellipse class="cls-35" cx="151.84" cy="104.45" rx="0.21" ry="0.19"/><path class="cls-36" d="M142.81,83.21c1.18-1.45,3.74-1.51,5.35,0l-2.68,2.18Z"/><path class="cls-37" d="M145.25,85.16c1.93,2.16,5.3,2.78,9.6.57a1.89,1.89,0,0,0,.9-1.45c-2,.21-3.24-.28-4-1.23C149.7,82.16,147.75,82.83,145.25,85.16Z"/><path class="cls-38" d="M145.31,85s-2.47-3-5.57-2.43c-1.88.44-4.39,2.7-4.39,2.7a39.54,39.54,0,0,0,5.05,1.11C143.82,86.26,145.31,85,145.31,85Z"/><path class="cls-39" d="M147.05,81.39a1.94,1.94,0,0,0-1.19-1.6.24.24,0,0,0-.24.11,9.3,9.3,0,0,0-.41,2c-.1.65-.11,3.28-.11,3.28a.41.41,0,0,0,.58,0s.21-1.88.35-2.32a2.59,2.59,0,0,1,.88-1.29A.23.23,0,0,0,147.05,81.39Z"/><path class="cls-40" d="M146.92,81.45a3.21,3.21,0,0,1-1.2-1.56.08.08,0,0,1,.05-.1h0a1.87,1.87,0,0,1,1.23,1.6.07.07,0,0,1-.07.09S146.93,81.47,146.92,81.45Z"/><path class="cls-41" d="M145.69,85.25c.21,2.72,2.79,5.2,7.6,5.92a5,5,0,0,0,2-.21c-1.75-1-3-2-3-3.2C151.17,86,149.13,84.87,145.69,85.25Z"/><path class="cls-42" d="M145.31,85.09A5.19,5.19,0,0,0,144,90.52a13,13,0,0,0,3.28,3.77,38.81,38.81,0,0,0,.22-5.17C147,85.57,145.31,85.09,145.31,85.09Z"/><path class="cls-43" d="M145.33,85.06c-3.62-1.13-7.23.45-8,5.19a9.72,9.72,0,0,0,.07,1.79c1.3-1.39,2.56-2.3,3.73-2.16A11.28,11.28,0,0,0,145.33,85.06Z"/><ellipse class="cls-28" cx="137.27" cy="111.97" rx="0.47" ry="0.97" transform="translate(-34.38 68.2) rotate(-24.9)"/><g id="LENTES"><polygon class="cls-44" points="157.5 93.94 158.19 95.28 164.75 92.81 163.56 90.47 157.5 93.94"/></g><path class="cls-45" d="M148.93,101.56l5.13.46a3.15,3.15,0,0,0,3.57-2.44l.5-4.16a2.91,2.91,0,0,0-2.9-3L150.11,92a3.15,3.15,0,0,0-3.57,2.45L146,98.54A2.9,2.9,0,0,0,148.93,101.56Z"/><path class="cls-45" d="M142.09,101.49l-5.13.45a3.14,3.14,0,0,1-3.57-2.45l-.51-4.15a2.89,2.89,0,0,1,2.9-3l5.13-.45a3.14,3.14,0,0,1,3.57,2.44l.51,4.15A2.91,2.91,0,0,1,142.09,101.49Z"/><path class="cls-46" d="M144.5,95.38a3.42,3.42,0,0,1,1.85,0"/><g id="LENTES-2"><polygon class="cls-44" points="133.39 93.83 132.7 95.17 126.14 92.71 127.33 90.36 133.39 93.83"/></g><ellipse class="cls-30" cx="135.24" cy="97.89" rx="0.37" ry="1.16"/><ellipse class="cls-31" cx="135.2" cy="97.89" rx="0.37" ry="1.16"/><ellipse class="cls-30" cx="135.24" cy="97.89" rx="0.37" ry="1.16"/><path class="cls-8" d="M87,134.3a1.65,1.65,0,0,1,.94,1.94c-.46,1.26-1.8,1.85-3.72,1.78l-2.78-.25c-.21,0-.43,0-.64,0l-3.57.1a19.16,19.16,0,0,1-5.39-.5c-1.46-.54-2.27-1.4-1.67-3,.72-.78,2.14-1.06,3.56-1.33Z"/><path class="cls-6" d="M79.61,132a4.88,4.88,0,0,0-3.77-2.43l-.25,0c-2.37-.15-4.26.45-5,2a3.08,3.08,0,0,0,0,2.86c.62,1.15,1.94,1.76,3.77,2a3.25,3.25,0,0,0,.54,0c3-.12,4.56-.22,6-.23a12,12,0,0,1,2,.14,7.63,7.63,0,0,0,1.85.08,3.12,3.12,0,0,0,2.51-1.74,5.21,5.21,0,0,0,.45-2.27c0-3.08-1.59-4.11-1.93-4.08a4.76,4.76,0,0,1-1.39.37s-.82-.62-1.21-.59-1.09.66-1.09.66a8,8,0,0,1-2.06-.33,7.94,7.94,0,0,0-1.68,2"/><path class="cls-7" d="M84.2,128.83c1.62-.29,2.78-1.05,2.78-1.94,0-1.14-1.87-2.06-4.18-2.06s-4.18.93-4.18,2.06,1.48,1.85,3.44,2"/><path class="cls-8" d="M90.41,134.21a1.65,1.65,0,0,0-.94,1.94c.46,1.26,1.8,1.86,3.72,1.78l2.79-.25c.22,0,.43,0,.65,0l3.56.1a18.51,18.51,0,0,0,5.4-.5c1.45-.53,2.27-1.39,1.67-2.94-.73-.79-2.16-1.06-3.56-1.34Z"/><path class="cls-6" d="M97.8,131.94a4.88,4.88,0,0,1,3.77-2.43,1.9,1.9,0,0,0,.25,0c2.37-.14,4.26.46,5.05,2.05a3.08,3.08,0,0,1,0,2.86c-.61,1.15-1.93,1.76-3.76,2a2.45,2.45,0,0,1-.54,0c-3-.12-4.56-.22-6-.24a14.39,14.39,0,0,0-2,.14,7.16,7.16,0,0,1-1.85.08,3.07,3.07,0,0,1-2.51-1.73,5.22,5.22,0,0,1-.46-2.27c0-3.08,1.6-4.11,1.94-4.09a4.21,4.21,0,0,0,1.39.37,3.27,3.27,0,0,1,1.21-.59c.33,0,1.09.67,1.09.67a7.84,7.84,0,0,0,2-.33,7.56,7.56,0,0,1,1.69,2"/><path class="cls-7" d="M93.21,128.73c-1.62-.28-2.78-1-2.78-1.94,0-1.13,1.87-2.05,4.18-2.05s4.18.93,4.18,2.05-1.48,1.86-3.44,2"/><path class="cls-47" d="M82.75,127.12h0a1.65,1.65,0,0,1-1.65-1.65,37.77,37.77,0,0,1,0-14.76h3.3a37.9,37.9,0,0,0,0,14.76A1.65,1.65,0,0,1,82.75,127.12Z"/><path class="cls-47" d="M94.33,127.25h0a1.65,1.65,0,0,1-1.65-1.66c1.54-4.21,1.34-9.22,0-14.76H96c1.26,5.34,1.38,10.3,0,14.76A1.66,1.66,0,0,1,94.33,127.25Z"/><path class="cls-47" d="M107.32,96.83a28.68,28.68,0,0,1,.93,3.87c0,.32.11.65.16,1,0,.14,0,.28,0,.42,0-.22,0,0,0,.05a2.36,2.36,0,0,0,0,.28c.08.66.15,1.33.21,2,.23,2.67.3,5.34.54,8,.13,1.6.31,3.19.59,4.77a1.4,1.4,0,0,0,1.71,1,1.43,1.43,0,0,0,1-1.71c-.06-.33-.11-.66-.16-1l-.06-.42c0,.06,0,.23,0-.06,0-.09,0-.18,0-.28-.08-.66-.14-1.33-.2-2-.12-1.33-.2-2.67-.28-4-.16-2.74-.34-5.48-.76-8.19a30.14,30.14,0,0,0-1-4.42,1.38,1.38,0,1,0-2.67.73Z"/><rect class="cls-48" x="109.55" y="117.91" width="1.52" height="0.53" transform="translate(-40.02 177.63) rotate(-68.55)"/><path class="cls-23" d="M109.51,119.38a1.65,1.65,0,0,0-.54.83,9.75,9.75,0,0,0-.24,1c0,.22-.14.71-.2,1s-.09,2.26-.09,2.26a1.4,1.4,0,0,0,.1.61c.42,1,1.72,1,1.92-.45,0,2,2.49,2.11,2.32-.18a.94.94,0,0,0,1.65.27.82.82,0,0,0,.12-.57l-.34-2.64c0-.21,0-.43,0-.65V119a3.55,3.55,0,0,0-.09-.79,3.26,3.26,0,0,0-.32-.8,5.19,5.19,0,0,0-.86-1.06.47.47,0,0,0-.31-.12l-.67,0a.59.59,0,0,1-.44-.24l-.43-.59-.35.61a.43.43,0,0,1-.34.23l-1.09.09a.78.78,0,0,0-.25.07,2.35,2.35,0,0,0-1.25,1.47c-.12.41-.21.82-.29,1.24a5.77,5.77,0,0,0,0,1.76v0a1,1,0,0,0,.44.65c.38.22.62,0,.88-.6"/><line class="cls-24" x1="110.45" y1="124.83" x2="110.49" y2="121.76"/><path class="cls-24" d="M112.83,124.61c-.18-.8-.33-1.91-.47-3.1"/><path class="cls-23" d="M110.59,116.27a4.71,4.71,0,0,1-1.35,0h0a.64.64,0,0,1,.05-.9l.09-.06a3.16,3.16,0,0,1,1.56-.38,2.49,2.49,0,0,1,1.55.35.59.59,0,0,1,.25.59,2.22,2.22,0,0,1-.09.37,2.71,2.71,0,0,1-1.06-.05"/><path class="cls-47" d="M67.71,96.51c-1.62,5.19-1.58,10.68-2,16-.06.76-.13,1.52-.22,2.28,0,.19,0,.38-.07.57,0,0,0,.23,0,.1s0,.14,0,.17c-.06.4-.12.8-.19,1.2a1.39,1.39,0,0,0,2.68.73,74.76,74.76,0,0,0,.81-8.18c.08-1.34.16-2.67.27-4,.05-.66.11-1.33.18-2l.12-1c0,.21,0-.13,0-.19s0-.37.08-.56a30.57,30.57,0,0,1,1-4.43,1.39,1.39,0,0,0-2.68-.74Z"/><rect class="cls-49" x="67.13" y="117.84" width="0.53" height="1.52" transform="translate(-38.7 32.86) rotate(-21.45)"/><path class="cls-23" d="M68.19,119.79a1.63,1.63,0,0,1,.55.84,9.22,9.22,0,0,1,.24,1c0,.22.14.71.2,1s.09,2.26.09,2.26a1.65,1.65,0,0,1-.1.62c-.42,1-1.72,1-1.92-.45,0,2-2.49,2.1-2.32-.19-.45.85-1.33.79-1.65.27a.79.79,0,0,1-.12-.56l.33-2.64a3.55,3.55,0,0,0,0-.65v-1.85a3,3,0,0,1,.1-.79,2.91,2.91,0,0,1,.32-.8,4.87,4.87,0,0,1,.86-1.06.43.43,0,0,1,.31-.12l.66,0a.61.61,0,0,0,.45-.24l.43-.6.35.62a.42.42,0,0,0,.34.22l1.09.1a.65.65,0,0,1,.24.06,2.34,2.34,0,0,1,1.25,1.48,10.46,10.46,0,0,1,.29,1.23,5.47,5.47,0,0,1,0,1.76v0a.91.91,0,0,1-.44.65c-.38.23-.61,0-.87-.6"/><line class="cls-24" x1="67.26" y1="125.25" x2="67.21" y2="122.17"/><path class="cls-24" d="M64.88,125c.18-.8.33-1.92.47-3.11"/><path class="cls-23" d="M67.12,116.69a4.69,4.69,0,0,0,1.35,0h0a.64.64,0,0,0-.06-.9l-.09-.06a3.08,3.08,0,0,0-1.57-.39,2.45,2.45,0,0,0-1.54.35.62.62,0,0,0-.26.59,2.22,2.22,0,0,0,.09.37,2.69,2.69,0,0,0,1.06,0"/><ellipse class="cls-50" cx="88.64" cy="95.09" rx="23.35" ry="18.67"/><path class="cls-47" d="M87.81,78.36a6.9,6.9,0,0,0-3.83-1c1.11.55,2.26.89,2.27,1.85A14,14,0,0,0,81,81.94a18.06,18.06,0,0,1,6.6-1.43,7.24,7.24,0,0,1,3,4.08c.24-1.62.43-3.21-.12-4.23a25.2,25.2,0,0,1,5.92.8,13.57,13.57,0,0,0-5.37-2.28c.12-.9.9-1.59,2.09-2.16A16.57,16.57,0,0,0,87.81,78.36Z"/><ellipse class="cls-51" cx="88.69" cy="79.31" rx="1.57" ry="0.58"/><path class="cls-51" d="M91.54,72.63a3.34,3.34,0,0,0-2-2.73.4.4,0,0,0-.43.19,16.94,16.94,0,0,0-.7,3.48c-.16,1.11-.18,5.62-.18,5.62a.72.72,0,0,0,1,0s.36-3.21.6-4A4.44,4.44,0,0,1,91.3,73,.38.38,0,0,0,91.54,72.63Z"/><path class="cls-52" d="M91.31,72.75a5.53,5.53,0,0,1-2-2.67.15.15,0,0,1,.1-.19h.06c1,.12,2,1.58,2.11,2.75a.14.14,0,0,1-.13.15A.12.12,0,0,1,91.31,72.75Z"/><path class="cls-53" d="M77.17,84.56c.7-2.53,3.65-3.31,5.83-1.34"/><path class="cls-54" d="M81.67,101.69c3.43,3.39,8,3.26,13.08,1.23"/><path class="cls-54" d="M95.32,99.93c-1.17,2.67-.7,4.16,1.89,4.15"/><polygon class="cls-55" points="79.41 88.54 76.68 90.28 78.91 89.85 77.73 90.69 78.77 90.46 79.41 88.54"/><ellipse class="cls-56" cx="82.2" cy="92.26" rx="3.76" ry="5.63"/><ellipse class="cls-55" cx="81.28" cy="92.28" rx="2.87" ry="5.17"/><circle class="cls-56" cx="83.87" cy="92.66" r="1.17"/><polygon class="cls-55" points="97.71 88.58 100.44 90.34 98.21 89.91 99.39 90.74 98.35 90.52 97.71 88.58"/><ellipse class="cls-56" cx="94.92" cy="92.31" rx="3.76" ry="5.63"/><ellipse class="cls-55" cx="93.99" cy="92.33" rx="2.87" ry="5.17"/><circle class="cls-56" cx="96.58" cy="92.71" r="1.17"/><path class="cls-53" d="M99.9,84.45c-.7-2.54-3.66-3.31-5.84-1.34"/><path class="cls-57" d="M89.94,104.43s.26,3.11,2.74,2.69,1.42-3.86,1.42-3.86A15.92,15.92,0,0,1,89.94,104.43Z"/><path class="cls-54" d="M89.94,104.43s.26,3.11,2.74,2.69,1.42-3.86,1.42-3.86A15.92,15.92,0,0,1,89.94,104.43Z"/><line class="cls-58" x1="91.96" y1="104.06" x2="92.81" y2="106.91"/><ellipse class="cls-59" cx="74.46" cy="99.84" rx="3.43" ry="1.24"/><ellipse class="cls-59" cx="102.21" cy="99.84" rx="3.43" ry="1.24"/><ellipse class="cls-47" cx="69.49" cy="88.4" rx="0.77" ry="0.5"/><ellipse class="cls-47" cx="67.4" cy="90.12" rx="0.51" ry="0.3"/><ellipse class="cls-47" cx="69.14" cy="89.83" rx="0.39" ry="0.24"/><ellipse class="cls-47" cx="71.86" cy="88.06" rx="0.73" ry="0.4"/><ellipse class="cls-47" cx="67.9" cy="88.26" rx="0.29" ry="0.17"/><ellipse class="cls-47" cx="70.7" cy="89.71" rx="0.51" ry="0.3"/><ellipse class="cls-47" cx="69.58" cy="85.68" rx="0.5" ry="0.77" transform="translate(-40.56 92.8) rotate(-54.62)"/><ellipse class="cls-47" cx="71.54" cy="86.09" rx="0.3" ry="0.51" transform="translate(-40.07 94.57) rotate(-54.62)"/><ellipse class="cls-47" cx="70.8" cy="84.74" rx="0.24" ry="0.39" transform="translate(-39.28 93.4) rotate(-54.62)"/><ellipse class="cls-47" cx="72.97" cy="89.54" rx="0.4" ry="0.73" transform="translate(-42.29 97.19) rotate(-54.62)"/><ellipse class="cls-47" cx="70.27" cy="87.07" rx="0.17" ry="0.29" transform="translate(-41.41 93.95) rotate(-54.62)"/><ellipse class="cls-47" cx="68.93" cy="86.64" rx="0.3" ry="0.51" transform="translate(-41.62 92.68) rotate(-54.62)"/><ellipse class="cls-47" cx="103.13" cy="106.79" rx="0.77" ry="0.5" transform="translate(-43.47 83.39) rotate(-36.93)"/><ellipse class="cls-47" cx="105.84" cy="106.91" rx="0.51" ry="0.3" transform="translate(-43 85.04) rotate(-36.93)"/><ellipse class="cls-47" cx="104.27" cy="107.72" rx="0.39" ry="0.24" transform="translate(-43.8 84.26) rotate(-36.93)"/><ellipse class="cls-47" cx="101.03" cy="107.94" rx="0.73" ry="0.4" transform="translate(-44.58 82.36) rotate(-36.93)"/><ellipse class="cls-47" cx="104.32" cy="105.71" rx="0.29" ry="0.17" transform="translate(-42.59 83.89) rotate(-36.93)"/><ellipse class="cls-47" cx="102.94" cy="108.56" rx="0.51" ry="0.3" transform="translate(-44.58 83.63) rotate(-36.93)"/><ellipse class="cls-47" cx="101.42" cy="104.67" rx="0.77" ry="0.5" transform="translate(-29.11 169.49) rotate(-72.31)"/><ellipse class="cls-47" cx="100.1" cy="106.17" rx="0.51" ry="0.3" transform="translate(-31.46 169.28) rotate(-72.31)"/><ellipse class="cls-47" cx="99.89" cy="104.65" rx="0.39" ry="0.24" transform="translate(-30.16 168.02) rotate(-72.31)"/><ellipse class="cls-47" cx="101.04" cy="109.8" rx="0.73" ry="0.4" transform="translate(-34.27 172.69) rotate(-72.31)"/><ellipse class="cls-47" cx="101.72" cy="106.2" rx="0.29" ry="0.17" transform="matrix(0.3, -0.95, 0.95, 0.3, -30.36, 170.83)"/><ellipse class="cls-47" cx="102.53" cy="105.05" rx="0.51" ry="0.3" transform="translate(-28.71 170.81) rotate(-72.31)"/><g class="cls-60"><g id="LENTES-3"><polygon class="cls-61" points="73.88 88.45 72.56 90.25 61.47 83.17 63.77 80.02 73.88 88.45"/><polygon class="cls-61" points="103.44 88.6 104.75 90.41 115.84 83.32 113.54 80.18 103.44 88.6"/><ellipse class="cls-62" cx="96.67" cy="92.14" rx="7.92" ry="7.62"/><ellipse class="cls-62" cx="80.88" cy="91.89" rx="7.92" ry="7.62"/></g></g><path class="cls-63" d="M90.17,97.5c-4.08-3.31-7.65-.89-3.24,2.16"/><path class="cls-64" d="M227.85,103.62l-4,7.89a2.14,2.14,0,0,0,.93,2.87,1.91,1.91,0,0,0,.57.19l7.77,1.49"/><line class="cls-64" x1="246.19" y1="103.99" x2="247.25" y2="121.55"/><path class="cls-6" d="M230,134a3.7,3.7,0,0,1,5.57,0,3.7,3.7,0,0,0-1-2.71h-3.34A5.2,5.2,0,0,0,230,134Z"/><path class="cls-7" d="M232.79,131.32h-1.52a1.17,1.17,0,0,1-.68-1.14c0-.55.7-1,1.48-1.09h1.87a1.6,1.6,0,0,1,1.33,1.11,1.26,1.26,0,0,1-.66,1.12h-.73"/><path class="cls-8" d="M229.31,136a.94.94,0,0,0-.46.78c0,.54.78,1.85,3.84,1.85s4-1.16,4-1.69a.83.83,0,0,0-.4-.74"/><path class="cls-9" d="M229.37,135.52c.57-3.48,5.93-3.92,6.95,0a1,1,0,0,1-.24,1c-1,1.23-5.8,1.23-6.44.1A1,1,0,0,1,229.37,135.52Z"/><path class="cls-6" d="M238,134.08a3.7,3.7,0,0,1,5.57,0,3.71,3.71,0,0,0-1-2.73h-3.34A5.27,5.27,0,0,0,238,134.08Z"/><path class="cls-7" d="M240.81,131.35h-1.52a1.19,1.19,0,0,1-.69-1.14c0-.54.7-.94,1.49-1.09H242a1.6,1.6,0,0,1,1.32,1.12,1.23,1.23,0,0,1-.65,1.11h-.73"/><path class="cls-8" d="M237.33,136a.93.93,0,0,0-.46.78c0,.53.77,1.85,3.83,1.85s4-1.17,4-1.69a.85.85,0,0,0-.4-.75"/><path class="cls-9" d="M237.39,135.57c.57-3.49,5.93-3.92,7,0a1,1,0,0,1-.24,1c-1,1.24-5.8,1.24-6.44.11A1,1,0,0,1,237.39,135.57Z"/><path class="cls-65" d="M232.87,130.86h0a1.2,1.2,0,0,1-1-1.54,24.46,24.46,0,0,0-.39-11.33h2.09a25.44,25.44,0,0,1,.2,12A1,1,0,0,1,232.87,130.86Z"/><path class="cls-65" d="M241,130.94h0c.64,0,1.12-.77,1-1.55a24.45,24.45,0,0,1,.38-11.33H240.2A25.7,25.7,0,0,0,240,130,1.06,1.06,0,0,0,241,130.94Z"/><ellipse class="cls-66" cx="236.88" cy="106.03" rx="10.64" ry="14.95"/><ellipse class="cls-65" cx="236.88" cy="92.05" rx="2.04" ry="0.85"/><ellipse class="cls-67" cx="228.44" cy="108.8" rx="1.12" ry="2.57" transform="translate(-13.99 36.36) rotate(-8.83)"/><ellipse class="cls-67" cx="228.24" cy="103.87" rx="0.58" ry="1.21"/><path class="cls-65" d="M242.54,97a3.7,3.7,0,0,0,1.77.93h-.61a2.31,2.31,0,0,0,1.34.92l-1.68,0Z"/><path class="cls-65" d="M231.28,97a3.15,3.15,0,0,1-1.58.93h.61a2.31,2.31,0,0,1-1.33.92l1.3,0Z"/><ellipse class="cls-65" cx="236.88" cy="103.57" rx="1.74" ry="0.72"/><path class="cls-68" d="M230.71,106.41c1.82-.14,2.82-.77,2.61-2.11"/><path class="cls-68" d="M240.33,104.3c.21,1.21,1.11,1.92,2.72,2.11"/><path class="cls-68" d="M232.86,105.73c2.82,2.46,5.55,2.68,8.13,0"/><path class="cls-68" d="M235.18,109.05a3.37,3.37,0,0,0,3.39,0"/><path class="cls-69" d="M233.47,97.12l1.24-1.48c-.93-1-1.85-1.25-2.76-.84a2.47,2.47,0,0,0-1.33,1.7,9.12,9.12,0,0,0-.28,2.85,6.23,6.23,0,0,0,1.11,3c.61-.82,1.81-.93,3.42-.45a26.25,26.25,0,0,0,.25-4.85Z"/><g class="cls-70"><path class="cls-71" d="M232.89,97.42l1.79-1.67c-.93-1-1.85-1.26-2.76-.84a2.52,2.52,0,0,0-1.33,1.7,8.83,8.83,0,0,0-.27,2.85,6.09,6.09,0,0,0,1.1,3c.61-.81,1.81-.91,3.42-.45a24.58,24.58,0,0,0,.24-4.85Z"/></g><path class="cls-69" d="M241.8,97,243,95.51c-.93-1-1.85-1.25-2.76-.83a2.47,2.47,0,0,0-1.33,1.7,8.77,8.77,0,0,0-.27,2.84,22.81,22.81,0,0,0,.33,2.6,3.36,3.36,0,0,1,3.73.55,13,13,0,0,0,.71-5.43Z"/><g class="cls-72"><path class="cls-71" d="M241.21,97.29,243,95.62c-.92-1-1.85-1.25-2.75-.84a2.51,2.51,0,0,0-1.32,1.69,8.84,8.84,0,0,0-.28,2.85,22.36,22.36,0,0,0,.33,2.59,3.37,3.37,0,0,1,3.73.55,12.62,12.62,0,0,0,.71-5.42Z"/></g><path class="cls-68" d="M244.07,94.36a3.77,3.77,0,0,0-2.36-1.75"/><path class="cls-68" d="M229.31,94.55a3.79,3.79,0,0,1,2.36-1.74"/><line class="cls-64" x1="224.16" y1="114.12" x2="233.12" y2="116.06"/><path class="cls-9" d="M233.85,118.86a7.6,7.6,0,0,0,2.66.67,1.4,1.4,0,0,0,.75-.16c.57-.34.58-1-.08-1.37,1.3,0,1.57-1.37.37-1.68,1.11.09,1.32-1.13.31-1.56a1.58,1.58,0,0,0-.37-.11l-1.25-.19.67-1.23a1,1,0,0,0,.11-.29.78.78,0,0,0-.39-.81.84.84,0,0,0-1.13.34.3.3,0,0,0,0,.08l-.31.71s-.31.8-1,.9a1.66,1.66,0,0,0-1.07.65l-.07.31a.8.8,0,0,1-.39.51l-.44.25.3.39a.77.77,0,0,1,.13.59l-.1.53A2.6,2.6,0,0,0,233.85,118.86Z"/><line class="cls-73" x1="236.54" y1="116.14" x2="237.64" y2="116.34"/><line class="cls-73" x1="236.21" y1="117.81" x2="237.29" y2="118.02"/><path class="cls-9" d="M232.9,115.53a2.77,2.77,0,0,0,.2-.86.59.59,0,0,0-.76,0s-.37.16-.56,1a2.31,2.31,0,0,0-.1,1.22.75.75,0,0,0,.59.5h.23a3.84,3.84,0,0,0,.19-.88"/><rect class="cls-74" x="247.6" y="121.13" width="0.42" height="1.19" transform="translate(-28.01 109.44) rotate(-23.61)"/><path class="cls-9" d="M247.48,121.18a1.75,1.75,0,0,0,.41,1l.58.45a1.29,1.29,0,0,1,.46.64,3.44,3.44,0,0,1,.12.91l.16.28a.85.85,0,0,1,.12.38l.14,1.77a1.35,1.35,0,0,1-.06.49c-.31.82-1.33.84-1.53-.29,0,1.6-1.9,1.73-1.83-.08-.33.68-1,.66-1.29.26a.62.62,0,0,1-.11-.44l.19-2.08a4.51,4.51,0,0,0,0-.52l-.06-1.44a2.6,2.6,0,0,1,.05-.62,2.1,2.1,0,0,1,.23-.65,3.63,3.63,0,0,1,.64-.86.34.34,0,0,1,.25-.11l.52,0a.47.47,0,0,0,.34-.2l.33-.48.29.48a.32.32,0,0,0,.28.16l.85,0a.65.65,0,0,1,.2,0,1.87,1.87,0,0,1,1,1.12,8.16,8.16,0,0,1,.26,1,4.32,4.32,0,0,1,.07,1.39h0a.77.77,0,0,1-.31.52c-.31.2-.57,0-.8-.44"/><line class="cls-73" x1="247.9" y1="126.97" x2="247.77" y2="124.55"/><path class="cls-9" d="M246,126.87c.12-.64.2-1.52.28-2.47"/><path class="cls-9" d="M248.39,124.4a3.3,3.3,0,0,1-2.61-.23"/><path class="cls-9" d="M247.53,120.22a3.84,3.84,0,0,0,1.07,0h0a.5.5,0,0,0-.07-.7l-.07,0a2.32,2.32,0,0,0-1.24-.26,1.92,1.92,0,0,0-1.19.31.48.48,0,0,0-.19.47,2.45,2.45,0,0,0,.08.29,2.16,2.16,0,0,0,.84-.07"/><ellipse class="cls-75" cx="236.9" cy="103.16" rx="0.66" ry="0.18"/><path class="cls-76" d="M239.06,86.91a2.72,2.72,0,0,0-1.66-2.23.31.31,0,0,0-.34.16,14.17,14.17,0,0,0-.58,2.84c-.13.9-.14,4.58-.14,4.58a.58.58,0,0,0,.81,0s.31-2.62.49-3.24a3.5,3.5,0,0,1,1.23-1.81A.32.32,0,0,0,239.06,86.91Z"/><path class="cls-77" d="M238.87,87a4.54,4.54,0,0,1-1.67-2.19.12.12,0,0,1,.08-.15h.05a2.62,2.62,0,0,1,1.72,2.24.12.12,0,0,1-.11.13Z"/><path class="cls-78" d="M237.89,89.35a20.51,20.51,0,0,0,7.21,2.26c.3.11.33.42,0,.74-2.06,2.25-4.82.34-7.37-2.68Z"/><path class="cls-79" d="M237.91,89.45a7.86,7.86,0,0,0,7.4,2.69c-.87,1.16-2.09,1.55-3.85.8a13.67,13.67,0,0,1-3.68-3.28Z"/><path class="cls-80" d="M237.31,89.2l.26-.26a8.15,8.15,0,0,0,7.71,3.21l0,0A8.77,8.77,0,0,1,237.31,89.2Z"/><path class="cls-78" d="M236.46,86.94a20.38,20.38,0,0,1-7.21,2.27c-.31.11-.33.41-.05.74,2.07,2.25,4.82.33,7.37-2.69Z"/><path class="cls-79" d="M236.46,87a7.85,7.85,0,0,1-7.4,2.7c.86,1.16,2.09,1.54,3.84.79a13.4,13.4,0,0,0,3.69-3.28Z"/><path class="cls-80" d="M237.05,86.79l-.27-.26a8.14,8.14,0,0,1-7.71,3.21l.05.05A8.75,8.75,0,0,0,237.05,86.79Z"/><path class="cls-6" d="M273.72,135.49a3.19,3.19,0,0,0-4.34,0,2.28,2.28,0,0,1,.76-1.83h2.59A3.25,3.25,0,0,1,273.72,135.49Z"/><path class="cls-7" d="M271.55,133.66h1.18a.82.82,0,0,0,.54-.77c0-.37-.55-.64-1.16-.74h-1.46c-.53.12-.92.34-1,.75a.84.84,0,0,0,.52.76h.57"/><path class="cls-8" d="M274.26,136.78a.66.66,0,0,1,.36.53c0,.36-.62,1.23-3,1.23s-3.1-.77-3.1-1.13a.58.58,0,0,1,.31-.49"/><path class="cls-9" d="M274.23,136.48c-.45-2.33-4.63-2.63-5.42,0a.61.61,0,0,0,.19.65c.78.83,4.51.82,5,.07A.65.65,0,0,0,274.23,136.48Z"/><path class="cls-6" d="M267.48,135.52a3.18,3.18,0,0,0-4.33,0,2.22,2.22,0,0,1,.75-1.83h2.59A3.25,3.25,0,0,1,267.48,135.52Z"/><path class="cls-7" d="M265.31,133.69h1.18a.82.82,0,0,0,.54-.77c0-.37-.55-.64-1.16-.73h-1.46c-.53.12-.92.33-1,.75a.84.84,0,0,0,.52.75h.57"/><path class="cls-8" d="M268,136.82a.63.63,0,0,1,.36.52c0,.36-.62,1.23-3,1.23s-3.11-.78-3.11-1.13a.56.56,0,0,1,.31-.5"/><path class="cls-9" d="M268,136.52c-.44-2.34-4.62-2.63-5.41,0a.6.6,0,0,0,.19.64c.78.84,4.51.82,5,.07A.61.61,0,0,0,268,136.52Z"/><path class="cls-81" d="M279,114.11l2.69,5.3a1.44,1.44,0,0,1-.63,1.93,1.71,1.71,0,0,1-.38.13l-5.22,1"/><path class="cls-82" d="M271.27,133.09h.18a1,1,0,0,0,1-1h0V120.61h-2.21v11.47a1,1,0,0,0,1,1Z"/><path class="cls-82" d="M265.12,133.13h.17a1,1,0,0,0,1-1h0V120.65h-2.2v11.47a1,1,0,0,0,1,1Z"/><path class="cls-81" d="M257.74,114.32l-2.69,5.3a1.43,1.43,0,0,0,.63,1.93,1.32,1.32,0,0,0,.38.13l5.23,1"/><ellipse class="cls-83" cx="268.26" cy="114.72" rx="12.49" ry="9.42"/><line class="cls-84" x1="280.2" y1="121.4" x2="274.13" y2="122.47"/><path class="cls-85" d="M272.72,108.42s2.95-2.84,1.72-4.45-4,1.47-4,1.47-.87-3.34-2.2-3.44-2,3.35-2,3.35-1.69-2.2-3.34-2.34c-2.34.31.14,4.54.14,4.54Z"/><ellipse class="cls-86" cx="268.2" cy="107.64" rx="5.09" ry="2.38"/><ellipse class="cls-85" cx="268.22" cy="107.21" rx="2.46" ry="1.15"/><path class="cls-82" d="M268.22,109.88c1.61-.61,2.2-2.75,2.57-3.39a1.53,1.53,0,0,1,2.61,1.28C273,111.35,268.22,109.88,268.22,109.88Z"/><path class="cls-82" d="M268.17,109.88c-1.61-.61-2.2-2.75-2.57-3.39a1.53,1.53,0,0,0-2.61,1.28C263.4,111.35,268.17,109.88,268.17,109.88Z"/><ellipse class="cls-87" cx="268.21" cy="116.99" rx="1.31" ry="0.71"/><ellipse class="cls-88" cx="273.11" cy="117.12" rx="0.36" ry="0.27"/><ellipse class="cls-88" cx="272.35" cy="118.52" rx="0.36" ry="0.27"/><ellipse class="cls-88" cx="271.48" cy="117.19" rx="0.36" ry="0.27"/><ellipse class="cls-88" cx="263.48" cy="117.14" rx="0.36" ry="0.27"/><ellipse class="cls-88" cx="264.24" cy="118.54" rx="0.36" ry="0.27"/><ellipse class="cls-88" cx="265.12" cy="117.21" rx="0.36" ry="0.27"/><path class="cls-89" d="M270.49,117.85c-1.47,1.94-3,2-4.47,0"/><path class="cls-89" d="M269.25,120a1.3,1.3,0,0,1-1.95,0"/><ellipse class="cls-90" cx="268.24" cy="116.57" rx="0.47" ry="0.19"/><path class="cls-9" d="M274.59,124.82a6.25,6.25,0,0,1-2.2.55,1,1,0,0,1-.62-.13c-.47-.28-.49-.79.06-1.13-1.08,0-1.29-1.14-.31-1.39-.92.07-1.09-.93-.25-1.3a1,1,0,0,1,.3-.08l1-.16-.56-1a.85.85,0,0,1-.08-.24.62.62,0,0,1,.31-.66.69.69,0,0,1,.94.28l0,.07.25.59s.25.67.82.75a1.4,1.4,0,0,1,.88.53l.07.26a.7.7,0,0,0,.3.43l.37.2-.24.33a.63.63,0,0,0-.11.48l.08.45A2.16,2.16,0,0,1,274.59,124.82Z"/><line class="cls-73" x1="272.36" y1="122.57" x2="271.45" y2="122.73"/><line class="cls-73" x1="272.63" y1="123.95" x2="271.74" y2="124.13"/><path class="cls-9" d="M275.37,122.07a2.51,2.51,0,0,1-.16-.72.5.5,0,0,1,.62,0s.31.14.47.84a1.85,1.85,0,0,1,.08,1,.59.59,0,0,1-.49.42h-.19a2.58,2.58,0,0,1-.16-.73"/><line class="cls-84" x1="256.51" y1="121.61" x2="262.58" y2="122.68"/><path class="cls-9" d="M262.12,125a6.42,6.42,0,0,0,2.2.55,1,1,0,0,0,.61-.14c.48-.27.49-.79-.05-1.13,1.07,0,1.29-1.13.3-1.39.93.07,1.1-.92.26-1.29a1.11,1.11,0,0,0-.31-.09l-1-.16.55-1a.85.85,0,0,0,.09-.24.62.62,0,0,0-.31-.66.68.68,0,0,0-.93.28.16.16,0,0,0,0,.07l-.25.58s-.24.67-.82.75a1.37,1.37,0,0,0-.88.54l-.06.26a.67.67,0,0,1-.31.42l-.37.21.24.31a.6.6,0,0,1,.12.48l-.09.44A2.16,2.16,0,0,0,262.12,125Z"/><line class="cls-73" x1="264.35" y1="122.78" x2="265.26" y2="122.95"/><line class="cls-73" x1="264.07" y1="124.17" x2="264.97" y2="124.34"/><path class="cls-9" d="M261.33,122.28a2.22,2.22,0,0,0,.16-.72.48.48,0,0,0-.61,0s-.31.14-.47.84a1.78,1.78,0,0,0-.08,1,.59.59,0,0,0,.49.41.6.6,0,0,0,.19,0,3,3,0,0,0,.15-.73"/><path class="cls-91" d="M266,108.7a1.91,1.91,0,0,0-2-.48"/><path class="cls-92" d="M266.45,116.11a2.11,2.11,0,0,0-2.77,0c-.76-2-.88-4.53-.34-5.55s1.87-1.15,2.66.13A8.38,8.38,0,0,1,266.45,116.11Z"/><path class="cls-93" d="M263.4,111.74l1.48,0-.67-1.89c-1.48.33-1.66,3.58-.54,6.29a2.76,2.76,0,0,1,1.42-.52v-2.31Z"/><path class="cls-91" d="M272.75,108.75a1.89,1.89,0,0,0-2-.48"/><path class="cls-92" d="M273,116.08a2.1,2.1,0,0,0-2.77,0c-.76-2-.88-4.54-.34-5.55s1.87-1.15,2.66.13A8.38,8.38,0,0,1,273,116.08Z"/><path class="cls-93" d="M269.94,111.71l1.48,0-.67-1.88c-1.48.33-1.66,3.58-.55,6.29a2.65,2.65,0,0,1,1.42-.52v-2.31Z"/><g id="LENTES-4"><ellipse class="cls-94" cx="264.28" cy="112.81" rx="3.85" ry="3.71"/><ellipse class="cls-94" cx="271.96" cy="112.69" rx="3.85" ry="3.71"/><polygon class="cls-95" points="275.37 111.01 276.01 111.89 281.41 108.45 280.29 106.91 275.37 111.01"/><polygon class="cls-95" points="260.99 111.08 260.35 111.96 254.95 108.52 256.07 106.99 260.99 111.08"/></g><ellipse class="cls-96" cx="264.3" cy="112.72" rx="3.85" ry="3.71"/><ellipse class="cls-96" cx="272.04" cy="112.65" rx="3.85" ry="3.71"/><line class="cls-97" x1="208.32" y1="103.11" x2="215.54" y2="120.43"/><line class="cls-97" x1="181.14" y1="102.95" x2="181.14" y2="121.71"/><path class="cls-6" d="M187,133.93a4.47,4.47,0,0,1,6.43,0,3.76,3.76,0,0,0-1.11-2.93h-3.85A5.36,5.36,0,0,0,187,133.93Z"/><path class="cls-7" d="M190.2,131h-1.76a1.27,1.27,0,0,1-.79-1.23c0-.59.81-1,1.72-1.18h2.15a1.87,1.87,0,0,1,1.55,1.2,1.32,1.32,0,0,1-.77,1.21h-.84"/><path class="cls-8" d="M186.19,136a1,1,0,0,0-.53.84c0,.58.9,2,4.43,2s4.63-1.26,4.63-1.82a.92.92,0,0,0-.47-.8"/><path class="cls-9" d="M186.24,135.53c.66-3.75,6.86-4.21,8,0a1,1,0,0,1-.28,1c-1.16,1.34-6.7,1.32-7.43.12A1.07,1.07,0,0,1,186.24,135.53Z"/><path class="cls-6" d="M196.25,134a4.49,4.49,0,0,1,6.44,0,3.81,3.81,0,0,0-1.12-2.93h-3.85A5.47,5.47,0,0,0,196.25,134Z"/><path class="cls-7" d="M199.48,131.05h-1.76a1.26,1.26,0,0,1-.79-1.24c0-.59.81-1,1.71-1.18h2.16c.79.2,1.37.55,1.54,1.21a1.32,1.32,0,0,1-.76,1.2h-.85"/><path class="cls-8" d="M195.44,136.06a1,1,0,0,0-.53.84c0,.57.9,2,4.43,2s4.63-1.26,4.63-1.82a.94.94,0,0,0-.46-.8"/><path class="cls-9" d="M195.5,135.58c.66-3.75,6.86-4.21,8,0a1,1,0,0,1-.28,1c-1.16,1.35-6.7,1.32-7.44.12A1.08,1.08,0,0,1,195.5,135.58Z"/><path class="cls-98" d="M188.68,114.86h3.25v13.69a1.54,1.54,0,0,1-1.54,1.54h-.19a1.54,1.54,0,0,1-1.54-1.54v-13.7Z"/><path class="cls-98" d="M198,114.9h3.25v13.69a1.54,1.54,0,0,1-1.54,1.54h-.19a1.54,1.54,0,0,1-1.54-1.54V114.9Z"/><ellipse class="cls-99" cx="194.89" cy="103.67" rx="15.51" ry="16.93"/><path class="cls-100" d="M179.84,103.69c7.11-15.23,22.85-16,29.81.07"/><path id="picos" class="cls-101" d="M179.05,103.84l-.31.5a.88.88,0,0,0,.07,1l.63.77a.84.84,0,0,1,.18.71l-.36,1.83a.87.87,0,0,0,.29.83l1,.85a.87.87,0,0,1,.31.66v1.12a.85.85,0,0,0,.39.71l1.08.73a.86.86,0,0,1,.38.72v1a.87.87,0,0,0,.87.86h.62a.86.86,0,0,1,.81.58l.38,1.07a.86.86,0,0,0,.81.58h1.19a.87.87,0,0,1,.73.4l.55.87a.87.87,0,0,0,1,.37l.77-.24a.92.92,0,0,1,.84.19l.73.68a.87.87,0,0,0,1.15,0h0a.86.86,0,0,1,1.08,0l.73.56a.86.86,0,0,0,1.11,0l.66-.6a.87.87,0,0,1,.87-.17l.92.3a.87.87,0,0,0,1.1-.52l.09-.27a.87.87,0,0,1,.89-.57l1.09.1a.86.86,0,0,0,.9-.62l.12-.42a.86.86,0,0,1,.82-.61h.94a.88.88,0,0,0,.84-.72l.15-.85a.86.86,0,0,1,.78-.71l.88-.07a.87.87,0,0,0,.79-.94.2.2,0,0,0,0-.07l-.15-.92a.86.86,0,0,1,.41-.89l.89-.53a.87.87,0,0,0,.41-.87l-.13-.9a.87.87,0,0,1,.49-.9l.1-.05a.87.87,0,0,0,.45-1l-.25-.85a.86.86,0,0,1,.31-.93l.45-.35a.86.86,0,0,0,.27-1l-.48-1.18c-.16-.39-.62-.35-1-.51-9.49-3.86-19.43-3.55-29.69,0C179.63,103.57,179.24,103.53,179.05,103.84Z"/><path id="picos-2" class="cls-101" d="M179.07,103.14l-.31-.49a.86.86,0,0,1,.06-1l.64-.77a.87.87,0,0,0,.18-.71l-.36-1.83a.89.89,0,0,1,.28-.83l1-.85a.85.85,0,0,0,.31-.66V94.88a.86.86,0,0,1,.38-.72l1.09-.73a.89.89,0,0,0,.38-.72v-1a.86.86,0,0,1,.86-.87h.62a.86.86,0,0,0,.81-.58l.38-1.07a.86.86,0,0,1,.81-.58h1.19a.86.86,0,0,0,.73-.4l.56-.87a.83.83,0,0,1,1-.36l.78.23a.87.87,0,0,0,.83-.19l.73-.67a.86.86,0,0,1,1.15,0h0a.86.86,0,0,0,1.09,0l.73-.56a.87.87,0,0,1,1.1,0l.67.6a.85.85,0,0,0,.86.18l.92-.31a.86.86,0,0,1,1.1.53l.1.26a.86.86,0,0,0,.88.57l1.09-.1a.89.89,0,0,1,.91.62l.12.42a.86.86,0,0,0,.81.62h.95a.86.86,0,0,1,.83.71l.15.85a.86.86,0,0,0,.78.71l.89.08a.87.87,0,0,1,.79.93.17.17,0,0,0,0,.07l-.16.93a.85.85,0,0,0,.41.88l.89.54a.86.86,0,0,1,.42.86l-.13.9a.85.85,0,0,0,.48.9l.1,0a.88.88,0,0,1,.46,1l-.26.86a.84.84,0,0,0,.31.92l.46.38a.87.87,0,0,1,.28,1l-.49,1.18a.85.85,0,0,1-1,.51c-6-16.14-23-15.92-29.7,0A.85.85,0,0,1,179.07,103.14Z"/><path class="cls-102" d="M194.43,85.68l-.65-.47a3.81,3.81,0,0,0-.27-2.49c-.62-1-2.7-1.31-3.15-1.71s-1.14-1.43-1.4-1.68c-1,1.21-.78,2.16-.45,3.68a2.73,2.73,0,0,0,1.27,1.93c.8.56,3.62.62,3.62.62l.74.62Z"/><path class="cls-103" d="M198.88,81.72c.17-1-1.23-2.92-2.58-2.83,0,0-1.21,1.94-1.92,2.8s-.19,5.25-.19,5.25a.9.9,0,0,0,1.1,0,18,18,0,0,1,.66-3.71C196.33,82.58,198.88,81.72,198.88,81.72Z"/><path class="cls-104" d="M198.88,81.72a5.46,5.46,0,0,1-2.58-2.82C197.53,78.79,199,80.52,198.88,81.72Z"/><path class="cls-105" d="M181.17,104.44l-.25,1.3a.21.21,0,0,0,.17.25h0l1.4.13a.21.21,0,0,0,.23-.19.24.24,0,0,0-.05-.16l-1.14-1.44a.23.23,0,0,0-.31,0A.21.21,0,0,0,181.17,104.44Z"/><path class="cls-105" d="M181.26,108l-.25,1.3a.22.22,0,0,0,.17.25h0l1.39.14a.22.22,0,0,0,.24-.19.18.18,0,0,0-.05-.16l-1.14-1.45a.22.22,0,0,0-.3,0A.18.18,0,0,0,181.26,108Z"/><path class="cls-105" d="M184.45,109.12l-.25,1.3a.22.22,0,0,0,.18.25h0l1.4.13a.2.2,0,0,0,.23-.19.2.2,0,0,0,0-.15L184.83,109a.21.21,0,0,0-.3,0A.22.22,0,0,0,184.45,109.12Z"/><path class="cls-105" d="M184.24,112.82l.31,1.29a.22.22,0,0,0,.26.15h0l1.32-.46a.21.21,0,0,0,.13-.27.2.2,0,0,0-.1-.12l-1.64-.84a.23.23,0,0,0-.29.12A.19.19,0,0,0,184.24,112.82Z"/><path class="cls-105" d="M187.57,112.09l.31,1.29a.21.21,0,0,0,.26.16h0l1.32-.46a.21.21,0,0,0,.13-.27.19.19,0,0,0-.1-.12l-1.64-.83a.22.22,0,0,0-.29.11A.29.29,0,0,0,187.57,112.09Z"/><path class="cls-105" d="M187.91,115.68l.53,1.22a.22.22,0,0,0,.28.12l0,0,1.23-.67a.2.2,0,0,0,.09-.29.23.23,0,0,0-.12-.1l-1.76-.55a.22.22,0,0,0-.28.12A.25.25,0,0,0,187.91,115.68Z"/><path class="cls-105" d="M191.86,113.24l.31,1.29a.22.22,0,0,0,.26.15h0l1.33-.46a.21.21,0,0,0,.12-.28.16.16,0,0,0-.1-.11l-1.64-.84a.23.23,0,0,0-.29.11A.33.33,0,0,0,191.86,113.24Z"/><path class="cls-105" d="M192.32,117l.84,1a.22.22,0,0,0,.3,0h0l1-1a.22.22,0,0,0,0-.31.2.2,0,0,0-.14-.06l-1.85-.06a.21.21,0,0,0-.2.23A.25.25,0,0,0,192.32,117Z"/><path class="cls-105" d="M196,115.16l.83,1a.21.21,0,0,0,.3,0h0l1-1a.21.21,0,0,0-.14-.37l-1.85-.06a.21.21,0,0,0-.21.22A.21.21,0,0,0,196,115.16Z"/><path class="cls-105" d="M199.06,116.8l1.05.81a.21.21,0,0,0,.29,0h0l.75-1.18a.21.21,0,0,0-.22-.33l-1.81.36a.22.22,0,0,0-.16.26A.22.22,0,0,0,199.06,116.8Z"/><path class="cls-105" d="M201.06,114l1.32.15a.21.21,0,0,0,.23-.2h0l0-1.4a.21.21,0,0,0-.21-.22.27.27,0,0,0-.15,0l-1.35,1.25a.23.23,0,0,0,0,.31A.21.21,0,0,0,201.06,114Z"/><path class="cls-105" d="M204.31,113.79h1.32a.22.22,0,0,0,.22-.22h0l-.14-1.4a.21.21,0,0,0-.23-.19.21.21,0,0,0-.15.07l-1.19,1.4a.21.21,0,0,0,0,.3A.2.2,0,0,0,204.31,113.79Z"/><path class="cls-105" d="M208.11,104.49l.25,1.31a.22.22,0,0,1-.18.25h0l-1.4.14a.22.22,0,0,1-.23-.19.22.22,0,0,1,0-.16l1.15-1.44a.21.21,0,0,1,.3,0A.2.2,0,0,1,208.11,104.49Z"/><path class="cls-105" d="M208,108l.25,1.31a.22.22,0,0,1-.18.25h0l-1.4.14a.21.21,0,0,1-.23-.2.2.2,0,0,1,0-.15l1.15-1.44a.22.22,0,0,1,.3,0A.26.26,0,0,1,208,108Z"/><path class="cls-105" d="M204.83,109.18l.24,1.3a.2.2,0,0,1-.17.25h0l-1.39.13a.21.21,0,0,1-.23-.19.23.23,0,0,1,0-.16l1.15-1.44a.22.22,0,0,1,.3,0A.22.22,0,0,1,204.83,109.18Z"/><path class="cls-105" d="M180,101.72l-.25-1.31a.22.22,0,0,1,.17-.25h0l1.4-.14a.21.21,0,0,1,.23.2.2.2,0,0,1,0,.15l-1.15,1.44a.21.21,0,0,1-.3,0A.2.2,0,0,1,180,101.72Z"/><path class="cls-105" d="M181.74,98.38l-.24-1.3a.2.2,0,0,1,.17-.25h0l1.39-.14a.21.21,0,0,1,.23.19.2.2,0,0,1,0,.15l-1.15,1.45a.22.22,0,0,1-.3,0A.25.25,0,0,1,181.74,98.38Z"/><path class="cls-105" d="M184.72,93.55l.31-1.29a.22.22,0,0,1,.25-.16h0l1.33.46a.2.2,0,0,1,.12.27.17.17,0,0,1-.1.12l-1.64.83a.21.21,0,0,1-.28-.11A.2.2,0,0,1,184.72,93.55Z"/><path class="cls-105" d="M188.4,90.69l.52-1.24a.22.22,0,0,1,.29-.11h0l1.24.67a.23.23,0,0,1,.09.29.21.21,0,0,1-.13.1l-1.76.55a.21.21,0,0,1-.27-.13A.17.17,0,0,1,188.4,90.69Z"/><path class="cls-105" d="M192.81,89.38l.83-1a.21.21,0,0,1,.3,0h0l1,1a.22.22,0,0,1,0,.3.2.2,0,0,1-.17.09l-1.85.06a.22.22,0,0,1-.24-.19A.21.21,0,0,1,192.81,89.38Z"/><path class="cls-105" d="M196.52,91.21l.84-1a.21.21,0,0,1,.3,0h0l1,1a.21.21,0,0,1,0,.3.21.21,0,0,1-.15.07l-1.85.06a.21.21,0,0,1-.2-.23A.25.25,0,0,1,196.52,91.21Z"/><path class="cls-105" d="M199.54,89.57l1.05-.81a.21.21,0,0,1,.3,0h0l.75,1.18a.21.21,0,0,1-.07.3.2.2,0,0,1-.15,0L199.62,90a.21.21,0,0,1-.16-.25A.22.22,0,0,1,199.54,89.57Z"/><path class="cls-105" d="M201.54,92.38l1.32-.15a.22.22,0,0,1,.24.19v0l0,1.4a.22.22,0,0,1-.22.22.2.2,0,0,1-.14-.06l-1.35-1.25a.21.21,0,0,1,0-.3A.24.24,0,0,1,201.54,92.38Z"/><path class="cls-105" d="M204.79,92.58h1.33a.21.21,0,0,1,.21.21v0l-.14,1.39a.21.21,0,0,1-.22.2.19.19,0,0,1-.15-.08l-1.2-1.4a.21.21,0,0,1,0-.3A.17.17,0,0,1,204.79,92.58Z"/><path class="cls-105" d="M210.41,102.48l.24-1.31a.21.21,0,0,0-.17-.25h0l-1.4-.14a.21.21,0,0,0-.23.2.2.2,0,0,0,0,.15l1.15,1.44a.21.21,0,0,0,.3,0A.2.2,0,0,0,210.41,102.48Z"/><path class="cls-105" d="M208.5,98.32l.25-1.3a.21.21,0,0,0-.17-.25h0l-1.4-.13a.21.21,0,0,0-.23.19.23.23,0,0,0,0,.16l1.15,1.44a.23.23,0,0,0,.31,0A.27.27,0,0,0,208.5,98.32Z"/><path class="cls-106" d="M187.23,100.73a5.91,5.91,0,0,1,5.74-.46,16.21,16.21,0,0,0,.05-5.6c-.69-2.5-4.4-2.22-5.32.46l2.43,1.71-2.9.14A7.68,7.68,0,0,0,187.23,100.73Z"/><path class="cls-106" d="M196.68,96.84l.56,3.37c2.53-1,3.58-.7,5.5.52a14.06,14.06,0,0,0-.28-5.27c-.78-3.2-5-3.66-5.5-.31l2.54,1.43Z"/><path class="cls-107" d="M193.58,99.34c1.94-1.62,3.45-.4,1.48,1.39"/><path class="cls-108" d="M189.64,101.66a1.9,1.9,0,0,0-2,2.92c4.44,4.58,10.51,5,14.8,0a1.88,1.88,0,0,0-1.85-2.92A12.25,12.25,0,0,1,189.64,101.66Z"/><path class="cls-107" d="M189.64,101.66a1.9,1.9,0,0,0-2,2.92c4.44,4.58,10.51,5,14.8,0a1.88,1.88,0,0,0-1.85-2.92A12.25,12.25,0,0,1,189.64,101.66Z"/><path class="cls-109" d="M188,92.08a2.64,2.64,0,0,1,2.78-.93"/><path class="cls-109" d="M199.08,91.15c1.53-.38,2.47,0,2.83,1.16"/><path class="cls-110" d="M192.83,109.53a3.77,3.77,0,0,0,4.22,0"/><line class="cls-107" x1="190.12" y1="101.88" x2="188.71" y2="105.56"/><line class="cls-107" x1="192.53" y1="102.67" x2="191.55" y2="107.34"/><line class="cls-107" x1="194.94" y1="102.95" x2="194.94" y2="108.14"/><line class="cls-107" x1="197.83" y1="102.67" x2="198.88" y2="107.34"/><line class="cls-107" x1="200.11" y1="101.88" x2="201.83" y2="105.25"/><path class="cls-9" d="M217.24,119.16c-.05-.53-.25-.91-.77-1a2.32,2.32,0,0,0-1.58.6,3.17,3.17,0,0,0-1.1,1.43.82.82,0,0,0,.21.9.86.86,0,0,0,.41.19Z"/><path class="cls-9" d="M214.87,120.06a1.19,1.19,0,0,0-.31.61l-.16,1.16A7.4,7.4,0,0,1,213,124.5a.71.71,0,0,0,0,.87.49.49,0,0,0,.6.15,3.68,3.68,0,0,0,2.29-1.75,11.49,11.49,0,0,0,3.35,2,4.44,4.44,0,0,0,.52.15c.41.09.78.21,1.15.26a1.89,1.89,0,0,0,1.28-.15c.7-.4.54-1-.85-1.64l1.29-.22a2.73,2.73,0,0,0,1.23-.57c.92-.77.44-1.48-.93-1.65.47-.47.7-.91.33-1.24a.82.82,0,0,0-.54-.2h-1.24a2.36,2.36,0,0,1-.87-.17,25.62,25.62,0,0,0-2.84-1,9,9,0,0,0-1.47-.09,1.09,1.09,0,0,0-.63.22"/><path class="cls-9" d="M219.66,121.57a3.71,3.71,0,0,0,3.21.31"/><path class="cls-9" d="M218.52,123.12a4.66,4.66,0,0,0,2.75,1.21"/><rect class="cls-111" x="179.83" y="122.83" width="1.51" height="0.53" transform="translate(-0.41 245.59) rotate(-68.37)"/><path class="cls-9" d="M181,122.4a2.16,2.16,0,0,1-.47,1.3l-.73.6a1.61,1.61,0,0,0-.54.83,3.72,3.72,0,0,0-.12,1.15l-.19.36a1.19,1.19,0,0,0-.13.49l-.1,2.25a1.47,1.47,0,0,0,.1.62c.4,1,1.71,1,1.92-.44,0,2,2.46,2.11,2.31-.17a.94.94,0,0,0,1.65.27.85.85,0,0,0,.11-.56l-.32-2.63a4.73,4.73,0,0,1,0-.65V124a3.31,3.31,0,0,0-.09-.77,3.41,3.41,0,0,0-.32-.82,4.83,4.83,0,0,0-.85-1.06.47.47,0,0,0-.31-.12l-.66,0a.59.59,0,0,1-.45-.25l-.43-.59L181,121a.42.42,0,0,1-.34.22l-1.08.09a.72.72,0,0,0-.25.07,2.37,2.37,0,0,0-1.24,1.46,9,9,0,0,0-.3,1.24,5.14,5.14,0,0,0,0,1.75h0a.92.92,0,0,0,.41.65c.4.24.72,0,1-.6"/><line class="cls-73" x1="180.69" y1="129.74" x2="180.75" y2="126.67"/><path class="cls-9" d="M183.06,129.53c-.17-.8-.32-1.91-.45-3.1"/><path class="cls-9" d="M180,126.51a4.16,4.16,0,0,0,3.29-.4"/><path class="cls-9" d="M180.86,121.2a4.69,4.69,0,0,1-1.35,0h0a.64.64,0,0,1,.06-.9l.09-.06a3.07,3.07,0,0,1,1.57-.38,2.51,2.51,0,0,1,1.54.35.61.61,0,0,1,.25.6,1.19,1.19,0,0,1-.09.36,2.65,2.65,0,0,1-1.05,0"/><path class="cls-9" d="M126.67,119.91a1,1,0,0,1,.52-1.19,2.48,2.48,0,0,1,1.74.2,3.24,3.24,0,0,1,1.46,1.18.83.83,0,0,1,0,1,.81.81,0,0,1-.36.3Z"/><path class="cls-9" d="M129.26,120.24a1.09,1.09,0,0,1,.45.54l.45,1.11a7.54,7.54,0,0,0,2.13,2.33.72.72,0,0,1,.25.87.5.5,0,0,1-.57.31,3.82,3.82,0,0,1-2.73-1.19,11.57,11.57,0,0,1-2.88,2.79,3.31,3.31,0,0,1-.47.29c-.39.2-.74.4-1.1.55a2,2,0,0,1-1.32.17c-.8-.23-.79-.86.44-1.85l-1.35.09a2.64,2.64,0,0,1-1.38-.26c-1.11-.54-.81-1.38.52-1.89-.59-.36-.93-.74-.64-1.18a.84.84,0,0,1,.5-.34l1.23-.31a2.9,2.9,0,0,0,.84-.38,24.57,24.57,0,0,1,2.61-1.67,7.5,7.5,0,0,1,1.46-.46,1.13,1.13,0,0,1,.68.06"/><path class="cls-9" d="M124.82,123a3.87,3.87,0,0,1-3.14,1.12"/><path class="cls-9" d="M126.36,124.23a4.85,4.85,0,0,1-2.46,1.91"/></g></svg>