<?xml version="1.0" encoding="utf-8"?>
<!-- Generator: Adobe Illustrator 26.0.0, SVG Export Plug-In . SVG Version: 6.00 Build 0)  -->
<svg version="1.1" id="Capa_1" xmlns="http://www.w3.org/2000/svg" xmlns:xlink="http://www.w3.org/1999/xlink" x="0px" y="0px"
	 viewBox="0 0 296 148" style="enable-background:new 0 0 296 148;" xml:space="preserve">
<style type="text/css">
	.st0{fill:#EAEAEA;stroke:#545454;stroke-miterlimit:10;}
	.st1{fill:#A56C3D;}
	.st2{fill:#A07A5F;}
	.st3{fill:#5A7D00;}
	.st4{fill:#C6C6C6;stroke:#7F7F7F;stroke-width:0.5;stroke-miterlimit:10;}
	.st5{fill:#969696;stroke:#636363;stroke-width:0.5;stroke-miterlimit:10;}
	.st6{fill:#969696;stroke:#303030;stroke-width:0.5;stroke-miterlimit:10;}
	.st7{fill:#EAEAEA;stroke:#545454;stroke-width:0.5;stroke-miterlimit:10;}
	.st8{fill:#79891B;}
	.st9{fill:none;stroke:#FCB61A;stroke-miterlimit:10;}
	.st10{fill:#E49A0F;}
	.st11{clip-path:url(#SVGID_00000179608099458728110390000007352528870298096800_);}
	.st12{fill:#FED117;}
	.st13{fill:#FCB61A;}
	.st14{fill:#8FA726;}
	.st15{fill:none;stroke:#232323;stroke-miterlimit:10;}
	.st16{fill:none;stroke:#232323;stroke-width:0.5;stroke-miterlimit:10;}
	.st17{fill:#F1EEF0;}
	.st18{fill:#232323;}
	.st19{fill:#EAA700;}
	.st20{fill:#EAEAEA;stroke:#666666;stroke-miterlimit:10;}
	.st21{fill:#EAEAEA;stroke:#666666;stroke-width:0.5;stroke-miterlimit:10;}
	.st22{fill:none;stroke:#666666;stroke-width:0.5;stroke-miterlimit:10;}
	.st23{fill:#639113;}
	.st24{fill:#EE3346;}
	.st25{opacity:0.5;fill:#FDA4A8;enable-background:new    ;}
	.st26{fill:#BE3034;}
	.st27{fill:#FBB95C;}
	.st28{fill:none;stroke:#AA6B26;stroke-width:0.5;stroke-miterlimit:10;}
	.st29{fill:#190606;}
	.st30{fill:#BC0000;}
	.st31{fill:#E54C4C;}
	.st32{fill:#FF7D8A;}
	.st33{fill:#438019;}
	.st34{fill:#3C9924;}
	.st35{fill:#85D94F;}
	.st36{fill:#0E5B00;}
	.st37{fill:#033A00;}
	.st38{fill:#EFD93F;}
	.st39{fill:#63B030;}
	.st40{fill:#53A926;}
	.st41{fill:#075B00;}
	.st42{fill:none;stroke:#075B00;stroke-width:0.75;stroke-miterlimit:10;}
	.st43{fill:none;stroke:#075B00;stroke-width:0.5;stroke-miterlimit:10;}
	.st44{fill:#E87E00;}
	.st45{fill:#FB8B01;}
	.st46{fill:#716B3A;}
	.st47{fill:#59512B;}
	.st48{fill:none;stroke:#03020A;stroke-width:2;stroke-miterlimit:10;}
	.st49{fill:none;stroke:#03020A;stroke-width:0.75;stroke-miterlimit:10;}
	.st50{fill:#03020A;}
	.st51{fill:#FDFDFD;}
	.st52{fill:#FF6C7A;}
	.st53{fill:none;stroke:#03020A;stroke-width:0.25;stroke-miterlimit:10;}
	.st54{fill:#EC6A15;}
	.st55{opacity:0.69;}
	.st56{fill:#9EC9EF;}
	.st57{fill:none;stroke:#9EC9EF;stroke-miterlimit:10;}
	.st58{fill:#FB8B01;stroke:#03020A;stroke-width:1.5;stroke-miterlimit:10;}
	.st59{fill:none;stroke:#747D00;stroke-width:2;stroke-miterlimit:10;}
	.st60{fill:#747D00;}
	.st61{fill:#B2B715;}
	.st62{fill:#D2C521;}
	.st63{fill:none;stroke:#747D00;stroke-width:0.5;stroke-miterlimit:10;}
	.st64{fill:#F2F2F2;}
	.st65{clip-path:url(#SVGID_00000140007643295689711510000007063888919084861623_);}
	.st66{fill:#333333;}
	.st67{clip-path:url(#SVGID_00000021832136074013433790000015672317394887545729_);}
	.st68{fill:none;stroke:#545454;stroke-width:0.5;stroke-miterlimit:10;}
	.st69{fill:#A1A50E;}
	.st70{fill:#AFB55B;}
	.st71{fill:#858513;}
	.st72{fill:#4C7032;}
	.st73{fill:#4D823C;}
	.st74{fill:#5B883C;}
	.st75{fill:none;stroke:#5A698A;stroke-width:2;stroke-miterlimit:10;}
	.st76{fill:#5A698A;}
	.st77{fill:#6284A7;}
	.st78{fill:none;stroke:#5A698A;stroke-miterlimit:10;}
	.st79{fill:#434D57;}
	.st80{fill:#6FACC6;}
	.st81{fill:#E21A62;}
	.st82{fill:#8AAAD0;}
	.st83{fill:none;stroke:#363F4C;stroke-width:0.5;stroke-miterlimit:10;}
	.st84{fill:#FF77A3;}
	.st85{fill:none;stroke:#2F3945;stroke-miterlimit:10;}
	.st86{fill:#FCFCFC;}
	.st87{fill:#2F3945;}
	.st88{fill:none;stroke:#232A33;stroke-width:1.5;stroke-miterlimit:10;}
	.st89{fill:#232A33;}
	.st90{opacity:0.32;fill:#232A33;enable-background:new    ;}
	.st91{fill:none;stroke:#EFCDB7;stroke-width:3;stroke-miterlimit:10;}
	.st92{fill:#EFCDB7;}
	.st93{fill:url(#SVGID_00000022539404461062395690000004300355347455190183_);}
	.st94{fill:none;stroke:#F2888F;stroke-width:3;stroke-miterlimit:10;}
	.st95{fill:#E02F35;}
	.st96{fill:#047A0A;}
	.st97{fill:#7B401E;}
	.st98{fill:#662809;}
	.st99{fill:#B60F11;}
	.st100{fill:#110301;}
	.st101{fill:none;stroke:#110301;stroke-width:0.5;stroke-miterlimit:10;}
	.st102{fill:#F7F7F7;}
	.st103{fill:none;stroke:#110301;stroke-width:2;stroke-miterlimit:10;}
	.st104{fill:none;stroke:#110301;stroke-width:0.25;stroke-miterlimit:10;}
</style>
<g id="Capa_2_00000062903249044989263100000006897228347038354339_">
	<rect x="-3.4" y="-2.8" class="st0" width="301.8" height="133.2"/>
	<rect x="-2.4" y="127.5" class="st1" width="307.1" height="21"/>
	<ellipse class="st2" cx="34.9" cy="139.6" rx="23.3" ry="3.2"/>
	<ellipse class="st2" cx="90.2" cy="140.3" rx="23.3" ry="3.2"/>
	<ellipse class="st2" cx="145.8" cy="140" rx="23.3" ry="3.2"/>
	<ellipse class="st2" cx="196" cy="140.1" rx="21.3" ry="3.2"/>
	<ellipse class="st2" cx="238.9" cy="140" rx="18.3" ry="3.2"/>
	<ellipse class="st2" cx="270" cy="140.6" rx="9.9" ry="2.3"/>
</g>
<g id="Capa_1_00000061443957007944305530000018307355601984748176_">
	<path class="st3" d="M39.7,76.5c2.2-0.2,4.4-2.5,6.7-6.8c-0.8,4.2-1.3,8.4-0.9,12.6L39.7,76.5z"/>
	<path class="st3" d="M28.8,71c-2.5-0.1-5.2-2.1-8-6.3c1.2,4.1,2,8.3,1.9,12.6L28.8,71z"/>
	<path class="st3" d="M36.2,71.4c2.5-0.1,5.2-2.1,8-6.2c-1.2,4.1-2,8.3-1.9,12.6L36.2,71.4z"/>
	<path class="st4" d="M22.1,131.2c2.5-2.9,7-2.7,9.2,0c0.1-1.6-0.4-3.1-1.6-4.5h-5.5C23,128,22.3,129.6,22.1,131.2z"/>
	<path class="st5" d="M26.7,126.8h-2.5c-0.8-0.5-1.1-1-1.1-1.9c0-0.9,1.2-1.6,2.4-1.8h3.1c1.1,0.3,1.9,0.8,2.2,1.9
		c0,0.9-0.5,1.4-1.1,1.9h-1.2"/>
	<path class="st6" d="M20.9,134.4c-0.5,0.3-0.8,0.7-0.8,1.3c0,0.9,1.3,3,6.3,3s6.6-1.9,6.6-2.8c0-0.5-0.2-1-0.7-1.2"/>
	<path class="st7" d="M21,133.7c0.9-5.7,9.8-6.4,11.4,0c0.1,0.7,0,1.2-0.4,1.6c-1.7,2-9.5,2-10.6,0.2C21,135,20.8,134.3,21,133.7z"
		/>
	<path class="st4" d="M35.3,131.3c2.5-2.9,7-2.7,9.2,0c0.1-1.6-0.4-3.1-1.6-4.5h-5.5C36.2,128.1,35.5,129.7,35.3,131.3z"/>
	<path class="st5" d="M39.8,126.8h-2.5c-0.8-0.5-1.1-1-1.1-1.9s1.2-1.6,2.4-1.8h3.1c1.1,0.3,1.9,0.8,2.2,1.9c0,0.9-0.5,1.4-1.1,1.9
		h-1.2"/>
	<path class="st6" d="M34.1,134.5c-0.5,0.3-0.7,0.7-0.8,1.3c0,0.9,1.3,3,6.3,3s6.6-1.9,6.6-2.8c0-0.5-0.2-1-0.7-1.2"/>
	<path class="st7" d="M34.2,133.8c0.9-5.7,9.8-6.4,11.4,0c0.1,0.7,0,1.2-0.4,1.6c-1.7,2-9.5,2-10.6,0.2
		C34.2,135.1,34,134.4,34.2,133.8z"/>
	<path class="st8" d="M26.6,125.5L26.6,125.5c-1.2,0-1.9-1-1.9-2.2v-17.4h3.8v17.4C28.5,124.5,27.8,125.5,26.6,125.5z"/>
	<path class="st8" d="M39.9,125.5L39.9,125.5c-1.2,0-1.9-1-1.9-2.2c-1.3-5.3-1.1-11.2,0-17.4h3.8c-1.6,6.2-1.8,12.1,0,17.4
		C41.8,124.5,41.1,125.5,39.9,125.5z"/>
	<path class="st9" d="M27.8,51.4c-1.7,3.6-1.3,4.9-0.5,5.3c0.9,0.5,2.6,0,3.2,0.7c0.4,0.5,0,1.3-0.4,1.9"/>
	<path class="st9" d="M30,51.4c-0.1,1.2,0,2.6,1.2,3.3c1,0.5,2.1,0.3,2.4,0.9c0.3,0.5,0.1,1.4-2.1,3.4"/>
	<path class="st9" d="M22,56.1c3.3-0.3,4.3,0.1,4.4,0.6c0.3,0.9-2.3,2.1-2.1,3.2c0.1,0.7,1.3,1,2.4,1.1"/>
	<path class="st9" d="M37.3,64.6c-0.4-3.9,0.4-5,1.3-5.1c1.1-0.2,2.5,0.9,3.2,0.4c0.5-0.4,0.4-1.2,0.2-1.9"/>
	<path class="st9" d="M39.4,65.3c0.3-1.1,0.8-2.4,2.2-2.7c1.1-0.2,2,0.4,2.6-0.1c0.4-0.3,0.5-1.3-0.9-3.9"/>
	<path class="st9" d="M33.4,59.1c3,1.3,3.4-0.2,3.7-0.6c0.5-0.7-0.9-2.2-0.3-3.1c0.4-0.6,1.5-0.5,2.6-0.2"/>
	<path class="st8" d="M18.9,83.9c-1.9,6.7-3.2,13.6-3.9,20.6c-0.2,1.9-0.3,3.8-0.4,5.8c0,1,0.8,1.9,1.9,1.9c1,0,1.8-0.8,1.9-1.9
		c0.1-1.7,0.2-3.4,0.4-5c0.1-0.8,0.2-1.7,0.3-2.5c0-0.4,0.1-0.8,0.2-1.3c0-0.1,0-0.2,0-0.3c0-0.1,0-0.4,0-0.1c0,0.3,0-0.1,0-0.1
		c0-0.1,0-0.2,0.1-0.4c0.5-3.4,1.1-6.7,1.9-10.1c0.4-1.9,0.9-3.8,1.4-5.6c0.3-1-0.3-2-1.3-2.3C20.1,82.3,19.1,82.9,18.9,83.9
		L18.9,83.9z"/>
	<path class="st8" d="M42.2,84.2c0.4,0.8,0.8,1.6,1.2,2.4c0.1,0.3,0,0,0-0.1c0.1,0.1,0.1,0.2,0.2,0.4c0,0.1,0.1,0.3,0.2,0.5
		c0.2,0.4,0.3,0.9,0.5,1.3c0.6,1.7,1.1,3.4,1.6,5.1c0.9,3.4,1.7,6.9,2.6,10.4c0.5,2,1.1,3.9,1.8,5.8c0.3,0.9,1.3,1.6,2.3,1.3
		c0.9-0.3,1.6-1.3,1.3-2.3c-2.4-6.8-3.4-14-5.8-20.9c-0.7-2-1.5-4-2.5-5.9c-0.5-0.9-1.6-1.2-2.5-0.7c0,0,0,0,0,0
		C42,82.2,41.7,83.3,42.2,84.2z"/>
	<path class="st10" d="M37.4,107.5h-9.2c-4.5,0-8.2-3.7-8.2-8.2c0-0.4,0-0.8,0.1-1.1l4.6-32.6c0.6-4,4-7.1,8.1-7.1l0,0
		c4.1,0,7.6,3,8.1,7.1l4.6,32.6c0.6,4.5-2.5,8.6-7,9.3C38.1,107.5,37.8,107.5,37.4,107.5z"/>
	<g>
		<defs>
			<path id="SVGID_1_" d="M37.4,107.5h-9.2c-4.5,0-8.2-3.7-8.2-8.2c0-0.4,0-0.8,0.1-1.1l4.6-32.6c0.6-4,4-7.1,8.1-7.1l0,0
				c4.1,0,7.6,3,8.1,7.1l4.6,32.6c0.6,4.5-2.5,8.6-7,9.3C38.1,107.5,37.8,107.5,37.4,107.5z"/>
		</defs>
		<clipPath id="SVGID_00000147205248628080243610000009842509595720990633_">
			<use xlink:href="#SVGID_1_"  style="overflow:visible;"/>
		</clipPath>
		<g style="clip-path:url(#SVGID_00000147205248628080243610000009842509595720990633_);">
			<path class="st12" d="M25.5,92.7H29c0.6,0,1.1,0.5,1.1,1.1v1.3c0,0.6-0.5,1.1-1.1,1.1h-3.5c-0.6,0-1.1-0.5-1.1-1.1v-1.3
				C24.4,93.2,24.9,92.7,25.5,92.7z"/>
			<path class="st13" d="M24.4,95.3c0,0,4.3,0.4,4.6-0.1c0.3-0.5-0.1-2.4-0.1-2.4c0.6,0,1.1,0.4,1.2,1.1v1.4c-0.1,0.6-0.6,1.1-1.3,1
				h-3.4C24.9,96.2,24.5,95.8,24.4,95.3z"/>
			<path class="st12" d="M31.3,92.6h3.5c0.6,0,1.1,0.5,1.1,1.1v1.3c0,0.6-0.5,1.1-1.1,1.1h-3.5c-0.6,0-1.1-0.5-1.1-1.1v-1.3
				C30.1,93.1,30.6,92.6,31.3,92.6z"/>
			<path class="st13" d="M30.1,95.2c0,0,4.3,0.4,4.6-0.1c0.3-0.5-0.1-2.4-0.1-2.4c0.6,0,1.1,0.4,1.2,1.1v1.4c-0.1,0.6-0.6,1.1-1.3,1
				h-3.4C30.7,96.1,30.2,95.7,30.1,95.2z"/>
			<path class="st12" d="M25.5,89h3.5c0.6,0,1.1,0.5,1.1,1.1v1.3c0,0.6-0.5,1.1-1.1,1.1h-3.5c-0.6,0-1.1-0.5-1.1-1.1v-1.3
				C24.3,89.5,24.8,89,25.5,89z"/>
			<path class="st13" d="M24.4,91.6c0,0,4.3,0.4,4.6-0.1c0.3-0.5-0.1-2.5-0.1-2.5c0.6,0,1.1,0.4,1.2,1.1v1.4c-0.1,0.6-0.6,1.1-1.3,1
				h-3.4C24.9,92.5,24.5,92.2,24.4,91.6z"/>
			<path class="st12" d="M31.2,88.9h3.5c0.6,0,1.1,0.5,1.1,1.1v1.3c0,0.6-0.5,1.1-1.1,1.1h-3.5c-0.6,0-1.1-0.5-1.1-1.1V90
				C30.1,89.4,30.6,88.9,31.2,88.9z"/>
			<path class="st13" d="M30.1,91.5c0,0,4.3,0.4,4.6-0.1c0.3-0.5-0.1-2.4-0.1-2.4c0.6,0,1.1,0.4,1.2,1.1v1.4c-0.1,0.6-0.6,1.1-1.3,1
				h-3.4C30.7,92.4,30.2,92.1,30.1,91.5z"/>
			<path class="st12" d="M25.5,85.4H29c0.6,0,1.1,0.5,1.1,1.1v1.3c0,0.6-0.5,1.1-1.1,1.1h-3.5c-0.6,0-1.1-0.5-1.1-1.1v-1.3
				C24.4,85.9,24.9,85.4,25.5,85.4z"/>
			<path class="st13" d="M24.4,88c0,0,4.3,0.4,4.6-0.1c0.3-0.5-0.1-2.4-0.1-2.4c0.6,0,1.1,0.4,1.2,1.1v1.4c-0.1,0.6-0.6,1.1-1.3,1
				h-3.4C25,88.9,24.5,88.5,24.4,88z"/>
			<path class="st12" d="M31.3,85.3h3.5c0.6,0,1.1,0.5,1.1,1.1v1.3c0,0.6-0.5,1.1-1.1,1.1h-3.5c-0.6,0-1.1-0.5-1.1-1.1v-1.3
				C30.2,85.8,30.7,85.3,31.3,85.3z"/>
			<path class="st13" d="M30.2,87.9c0,0,4.3,0.4,4.6-0.1c0.3-0.5-0.1-2.4-0.1-2.4c0.6,0,1.1,0.4,1.2,1.1v1.4c-0.1,0.6-0.6,1.1-1.3,1
				h-3.4C30.7,88.8,30.3,88.4,30.2,87.9z"/>
			<path class="st12" d="M37,89h3.5c0.6,0,1.1,0.5,1.1,1.1v1.3c0,0.6-0.5,1.1-1.1,1.1H37c-0.6,0-1.1-0.5-1.1-1.1v-1.3
				C35.9,89.5,36.4,89,37,89z"/>
			<path class="st13" d="M35.9,91.6c0,0,4.3,0.4,4.6-0.1c0.3-0.5-0.1-2.5-0.1-2.5c0.6,0,1.1,0.4,1.2,1.1v1.4c-0.1,0.6-0.6,1.1-1.3,1
				H37C36.4,92.5,36,92.1,35.9,91.6z"/>
			<path class="st12" d="M22.4,82.4H25c0.6,0,1.1,0.5,1.1,1.1v0.7c0,0.6-0.5,1.1-1.1,1.1h-2.6c-0.6,0-1.1-0.5-1.1-1.1v-0.7
				C21.3,82.9,21.8,82.4,22.4,82.4z"/>
			<path class="st13" d="M21.3,84.6c0,0,3.6,0.3,3.9-0.1c0.3-0.4-0.1-2-0.1-2c0.5,0,1,0.4,1,0.9v1.2c-0.1,0.5-0.5,0.9-1,0.9h-2.8
				C21.8,85.3,21.4,85,21.3,84.6z"/>
			<path class="st12" d="M27.2,82.3h2.6c0.6,0,1.1,0.5,1.1,1.1v0.7c0,0.6-0.5,1.1-1.1,1.1h-2.6c-0.6,0-1.1-0.5-1.1-1.1v-0.7
				C26.1,82.8,26.6,82.3,27.2,82.3z"/>
			<path class="st13" d="M26.1,84.5c0,0,3.6,0.3,3.9-0.1c0.3-0.4-0.1-2-0.1-2c0.5,0,1,0.4,1,0.9v1.2c-0.1,0.5-0.5,0.9-1.1,0.9H27
				C26.5,85.3,26.2,84.9,26.1,84.5z"/>
			<path class="st12" d="M32,82.2h2.6c0.6,0,1.1,0.5,1.1,1.1v0.7c0,0.6-0.5,1.1-1.1,1.1H32c-0.6,0-1.1-0.5-1.1-1.1v-0.7
				C30.9,82.7,31.4,82.2,32,82.2z"/>
			<path class="st13" d="M30.9,84.4c0,0,3.6,0.3,3.9-0.1c0.3-0.4-0.1-2-0.1-2c0.5,0,1,0.4,1,0.9v1.2c-0.1,0.5-0.5,0.9-1.1,0.9h-2.8
				C31.4,85.2,31,84.8,30.9,84.4z"/>
			<path class="st12" d="M36.9,82.3h2.6c0.6,0,1.1,0.5,1.1,1.1v0.7c0,0.6-0.5,1.1-1.1,1.1h-2.6c-0.6,0-1.1-0.5-1.1-1.1v-0.7
				C35.8,82.8,36.3,82.3,36.9,82.3z"/>
			<path class="st13" d="M35.8,84.5c0,0,3.6,0.3,3.9-0.1s-0.1-2-0.1-2c0.5,0,1,0.4,1,0.9v1.2c-0.1,0.5-0.5,0.9-1.1,0.9h-2.8
				C36.2,85.2,35.9,84.9,35.8,84.5z"/>
			<path class="st12" d="M22.4,79.3H25c0.6,0,1.1,0.5,1.1,1.1v0.7c0,0.6-0.5,1.1-1.1,1.1h-2.6c-0.6,0-1.1-0.5-1.1-1.1v-0.7
				C21.3,79.8,21.8,79.3,22.4,79.3z"/>
			<path class="st13" d="M21.3,81.5c0,0,3.6,0.3,3.9-0.1c0.3-0.4-0.1-2.1-0.1-2.1c0.5,0,1,0.4,1,0.9v1.2C26,82,25.5,82.3,25,82.3
				h-2.8C21.7,82.3,21.4,81.9,21.3,81.5z"/>
			<path class="st12" d="M27.2,79.3h2.6c0.6,0,1.1,0.5,1.1,1.1v0.7c0,0.6-0.5,1.1-1.1,1.1h-2.6c-0.6,0-1.1-0.5-1.1-1.1v-0.7
				C26.1,79.8,26.6,79.3,27.2,79.3z"/>
			<path class="st13" d="M26.1,81.4c0,0,3.6,0.3,3.9-0.1c0.3-0.4-0.1-2-0.1-2c0.5,0,1,0.4,1,0.9v1.2c-0.1,0.5-0.5,0.9-1.1,0.9H27
				C26.5,82.2,26.2,81.9,26.1,81.4z"/>
			<path class="st12" d="M32,79.2h2.6c0.6,0,1.1,0.5,1.1,1.1V81c0,0.6-0.5,1.1-1.1,1.1H32c-0.6,0-1.1-0.5-1.1-1.1v-0.7
				C30.9,79.7,31.4,79.2,32,79.2z"/>
			<path class="st13" d="M30.9,81.3c0,0,3.6,0.3,3.9-0.1c0.3-0.4-0.1-2-0.1-2c0.5,0,0.9,0.4,1,0.9v1.2c-0.1,0.5-0.5,0.9-1.1,0.9
				h-2.8C31.4,82.1,31,81.8,30.9,81.3z"/>
			<path class="st12" d="M36.9,79.2h2.6c0.6,0,1.1,0.5,1.1,1.1v0.7c0,0.6-0.5,1.1-1.1,1.1h-2.6c-0.6,0-1.1-0.5-1.1-1.1v-0.7
				C35.8,79.7,36.3,79.2,36.9,79.2z"/>
			<path class="st13" d="M35.8,81.4c0,0,3.6,0.3,3.9-0.1s-0.1-2-0.1-2c0.5,0,1,0.4,1,0.9v1.2c-0.1,0.5-0.5,0.9-1.1,0.9h-2.8
				C36.2,82.2,35.9,81.8,35.8,81.4z"/>
			<path class="st12" d="M41.7,79.2h2.6c0.6,0,1.1,0.5,1.1,1.1V81c0,0.6-0.5,1.1-1.1,1.1h-2.6c-0.6,0-1.1-0.5-1.1-1.1v-0.7
				C40.6,79.7,41.1,79.2,41.7,79.2z"/>
			<path class="st13" d="M40.6,81.4c0,0,3.6,0.3,3.9-0.1s-0.1-2-0.1-2c0.5,0,1,0.4,1,0.9v1.2c-0.1,0.5-0.5,0.9-1.1,0.9h-2.8
				C41.1,82.1,40.7,81.8,40.6,81.4z"/>
			<path class="st12" d="M37.1,85.4h3.5c0.6,0,1.1,0.5,1.1,1.1v1.3c0,0.6-0.5,1.1-1.1,1.1h-3.5c-0.6,0-1.1-0.5-1.1-1.1v-1.3
				C36,85.9,36.5,85.4,37.1,85.4z"/>
			<path class="st13" d="M36,88c0,0,4.3,0.4,4.6-0.1c0.3-0.5-0.1-2.4-0.1-2.4c0.6,0,1.1,0.4,1.2,1.1v1.4c-0.1,0.6-0.6,1.1-1.3,1
				h-3.4C36.6,88.9,36.1,88.5,36,88z"/>
			<path class="st12" d="M41.7,82.3h2.6c0.6,0,1.1,0.5,1.1,1.1v0.7c0,0.6-0.5,1.1-1.1,1.1h-2.6c-0.6,0-1.1-0.5-1.1-1.1v-0.7
				C40.6,82.8,41.1,82.3,41.7,82.3z"/>
			<path class="st13" d="M40.6,84.4c0,0,3.6,0.3,3.9-0.1s-0.1-2-0.1-2c0.5,0,1,0.4,1,0.9v1.2c-0.1,0.5-0.5,0.9-1.1,0.9h-2.8
				C41.1,85.2,40.7,84.9,40.6,84.4z"/>
			<path class="st12" d="M22.5,76.3h2.6c0.6,0,1.1,0.5,1.1,1.1v0.7c0,0.6-0.5,1.1-1.1,1.1h-2.6c-0.6,0-1.1-0.5-1.1-1.1v-0.7
				C21.4,76.8,21.9,76.3,22.5,76.3z"/>
			<path class="st13" d="M21.4,78.4c0,0,3.6,0.3,3.9-0.1c0.3-0.4-0.1-2-0.1-2c0.5,0,1,0.4,1,0.9v1.2c-0.1,0.5-0.5,0.9-1.1,0.9h-2.8
				C21.8,79.2,21.5,78.9,21.4,78.4z"/>
			<path class="st12" d="M27.3,76.2h2.6c0.6,0,1.1,0.5,1.1,1.1v0.7c0,0.6-0.5,1.1-1.1,1.1h-2.6c-0.6,0-1.1-0.5-1.1-1.1v-0.7
				C26.2,76.7,26.7,76.2,27.3,76.2z"/>
			<path class="st13" d="M26.2,78.4c0,0,3.6,0.3,3.9-0.1c0.3-0.4-0.1-2-0.1-2c0.5,0,1,0.4,1,0.9v1.2c-0.1,0.5-0.5,0.9-1.1,0.9h-2.8
				C26.6,79.1,26.3,78.8,26.2,78.4z"/>
			<path class="st12" d="M32.1,76.1h2.6c0.6,0,1.1,0.5,1.1,1.1V78c0,0.6-0.5,1.1-1.1,1.1h-2.6c-0.6,0-1.1-0.5-1.1-1.1v-0.7
				C31,76.6,31.5,76.1,32.1,76.1z"/>
			<path class="st13" d="M31,78.3c0,0,3.6,0.3,3.9-0.1c0.3-0.4-0.1-2-0.1-2c0.5,0,1,0.4,1,0.9v1.2c-0.1,0.5-0.5,0.9-1.1,0.9h-2.8
				C31.5,79,31.1,78.7,31,78.3z"/>
			<path class="st12" d="M37,76.2h2.6c0.6,0,1.1,0.5,1.1,1.1V78c0,0.6-0.5,1.1-1.1,1.1H37c-0.6,0-1.1-0.5-1.1-1.1v-0.7
				C35.9,76.7,36.4,76.2,37,76.2z"/>
			<path class="st13" d="M35.9,78.3c0,0,3.6,0.3,3.9-0.1c0.3-0.4-0.1-2-0.1-2c0.5,0,1,0.4,1,0.9v1.2c-0.1,0.5-0.5,0.9-1.1,0.9h-2.8
				C36.3,79.1,36,78.8,35.9,78.3z"/>
			<path class="st12" d="M41.8,76.1h2.6c0.6,0,1.1,0.5,1.1,1.1V78c0,0.6-0.5,1.1-1.1,1.1h-2.6c-0.6,0-1.1-0.5-1.1-1.1v-0.7
				C40.7,76.6,41.2,76.1,41.8,76.1z"/>
			<path class="st13" d="M40.7,78.3c0,0,3.6,0.3,3.9-0.1s-0.1-2-0.1-2c0.5,0,1,0.4,1,0.9v1.2c-0.1,0.5-0.5,0.9-1.1,0.9h-2.8
				C41.2,79,40.8,78.7,40.7,78.3z"/>
			<path class="st12" d="M22.4,73.2H25c0.6,0,1.1,0.5,1.1,1.1v0.7c0,0.6-0.5,1.1-1.1,1.1h-2.6c-0.6,0-1.1-0.5-1.1-1.1v-0.7
				C21.3,73.7,21.8,73.2,22.4,73.2z"/>
			<path class="st13" d="M21.3,75.4c0,0,3.6,0.3,3.9-0.1c0.3-0.4-0.1-2-0.1-2c0.5,0,1,0.4,1,0.9v1.2c-0.1,0.5-0.5,0.9-1.1,0.9h-2.8
				C21.8,76.2,21.4,75.8,21.3,75.4z"/>
			<path class="st12" d="M27.2,73.2h2.6c0.6,0,1.1,0.5,1.1,1.1V75c0,0.6-0.5,1.1-1.1,1.1h-2.6c-0.6,0-1.1-0.5-1.1-1.1v-0.7
				C26.1,73.7,26.6,73.2,27.2,73.2z"/>
			<path class="st13" d="M26.1,75.3c0,0,3.6,0.3,3.9-0.1c0.3-0.4-0.1-2-0.1-2c0.5,0,1,0.4,1,0.9v1.2c-0.1,0.5-0.5,0.9-1.1,0.9
				l-2.8,0C26.6,76.1,26.2,75.8,26.1,75.3z"/>
			<path class="st12" d="M32.1,73h2.6c0.6,0,1.1,0.5,1.1,1.1v0.7c0,0.6-0.5,1.1-1.1,1.1h-2.6c-0.6,0-1.1-0.5-1.1-1.1v-0.7
				C31,73.5,31.5,73,32.1,73z"/>
			<path class="st13" d="M31,75.2c0,0,3.6,0.3,3.9-0.1c0.3-0.4-0.1-2-0.1-2c0.5,0,1,0.4,1,0.9v1.2c-0.1,0.5-0.5,0.9-1.1,0.9h-2.8
				C31.4,76,31.1,75.6,31,75.2z"/>
			<path class="st12" d="M36.9,73.1h2.6c0.6,0,1.1,0.5,1.1,1.1V75c0,0.6-0.5,1.1-1.1,1.1h-2.6c-0.6,0-1.1-0.5-1.1-1.1v-0.7
				C35.8,73.6,36.3,73.1,36.9,73.1z"/>
			<path class="st13" d="M35.8,75.3c0,0,3.6,0.3,3.9-0.1s-0.1-2-0.1-2c0.5,0,1,0.4,1,0.9v1.2c-0.1,0.5-0.5,0.9-1.1,0.9h-2.8
				C36.3,76,35.9,75.7,35.8,75.3z"/>
			<path class="st12" d="M41.8,73.1h2.6c0.6,0,1.1,0.5,1.1,1.1v0.7c0,0.6-0.5,1.1-1.1,1.1h-2.6c-0.6,0-1.1-0.5-1.1-1.1v-0.7
				C40.7,73.6,41.2,73.1,41.8,73.1z"/>
			<path class="st13" d="M40.7,75.2c0,0,3.6,0.3,3.9-0.1s-0.1-2-0.1-2c0.5,0,1,0.4,1,0.9v1.2c-0.1,0.5-0.5,0.9-1.1,0.9h-2.8
				C41.1,76,40.8,75.7,40.7,75.2z"/>
			<path class="st12" d="M22.3,70.2h2.6c0.6,0,1.1,0.5,1.1,1.1V72c0,0.6-0.5,1.1-1.1,1.1h-2.6c-0.6,0-1.1-0.5-1.1-1.1v-0.7
				C21.2,70.7,21.7,70.2,22.3,70.2z"/>
			<path class="st13" d="M21.2,72.3c0,0,3.6,0.3,3.9-0.1c0.3-0.4-0.1-2-0.1-2c0.5,0,1,0.4,1,0.9v1.2c-0.1,0.5-0.5,0.9-1.1,0.9h-2.8
				C21.7,73.1,21.3,72.8,21.2,72.3z"/>
			<path class="st12" d="M27.1,70.1h2.6c0.6,0,1.1,0.5,1.1,1.1V72c0,0.6-0.5,1.1-1.1,1.1h-2.6c-0.6,0-1.1-0.5-1.1-1.1v-0.7
				C26,70.6,26.5,70.1,27.1,70.1z"/>
			<path class="st13" d="M26,72.3c0,0,3.6,0.3,3.9-0.1s-0.1-2-0.1-2c0.5,0,1,0.4,1,0.9v1.2c-0.1,0.5-0.5,0.9-1.1,0.9h-2.8
				C26.5,73,26.1,72.7,26,72.3z"/>
			<path class="st12" d="M32,70h2.6c0.6,0,1.1,0.5,1.1,1.1v0.7c0,0.6-0.5,1.1-1.1,1.1H32c-0.6,0-1.1-0.5-1.1-1.1v-0.7
				C30.9,70.5,31.4,70,32,70z"/>
			<path class="st13" d="M30.9,72.2c0,0,3.6,0.3,3.9-0.1s-0.1-2-0.1-2c0.5,0,1,0.4,1,0.9v1.2c-0.1,0.5-0.5,0.9-1.1,0.9h-2.8
				C31.3,72.9,31,72.6,30.9,72.2z"/>
			<path class="st12" d="M36.8,70.1h2.6c0.6,0,1.1,0.5,1.1,1.1v0.7c0,0.6-0.5,1.1-1.1,1.1h-2.6c-0.6,0-1.1-0.5-1.1-1.1v-0.7
				C35.7,70.6,36.2,70.1,36.8,70.1z"/>
			<path class="st13" d="M35.7,72.2c0,0,3.6,0.3,3.9-0.1s-0.1-2-0.1-2c0.5,0,1,0.4,1,0.9v1.2c-0.1,0.5-0.5,0.9-1.1,0.9l-2.8,0
				C36.2,73,35.8,72.7,35.7,72.2z"/>
			<path class="st12" d="M41.7,70h2.6c0.6,0,1.1,0.5,1.1,1.1v0.7c0,0.6-0.5,1.1-1.1,1.1h-2.6c-0.6,0-1.1-0.5-1.1-1.1v-0.7
				C40.6,70.5,41,70,41.7,70z"/>
			<path class="st13" d="M40.6,72.2c0,0,3.6,0.3,3.9-0.1c0.3-0.4-0.1-2-0.1-2c0.5,0,1,0.4,1,0.9v1.2c-0.1,0.5-0.5,0.9-1.1,0.9h-2.8
				C41,72.9,40.6,72.6,40.6,72.2z"/>
			<path class="st12" d="M22.3,67.1h2.6c0.6,0,1.1,0.5,1.1,1.1V69c0,0.6-0.5,1.1-1.1,1.1h-2.6c-0.6,0-1.1-0.5-1.1-1.1v-0.7
				C21.2,67.6,21.7,67.1,22.3,67.1z"/>
			<path class="st13" d="M21.2,69.3c0,0,3.6,0.3,3.9-0.1c0.3-0.4-0.1-2-0.1-2c0.5,0,1,0.4,1,0.9v1.2c-0.1,0.5-0.5,0.9-1,0.9h-2.8
				C21.6,70.1,21.3,69.7,21.2,69.3z"/>
			<path class="st12" d="M27.1,67.1h2.6c0.6,0,1.1,0.5,1.1,1.1v0.7c0,0.6-0.5,1.1-1.1,1.1h-2.6c-0.6,0-1.1-0.5-1.1-1.1v-0.7
				C26,67.6,26.5,67.1,27.1,67.1z"/>
			<path class="st13" d="M26,69.2c0,0,3.6,0.3,3.9-0.1c0.3-0.4-0.1-2-0.1-2c0.5,0,1,0.4,1,0.9v1.2c-0.1,0.5-0.5,0.9-1.1,0.9h-2.8
				C26.4,70,26.1,69.7,26,69.2z"/>
			<path class="st12" d="M31.9,66.9h2.6c0.6,0,1.1,0.5,1.1,1.1v0.7c0,0.6-0.5,1.1-1.1,1.1h-2.6c-0.6,0-1.1-0.5-1.1-1.1v-0.7
				C30.8,67.4,31.3,66.9,31.9,66.9z"/>
			<path class="st13" d="M30.8,69.1c0,0,3.6,0.3,3.9-0.1S34.6,67,34.6,67c0.5,0,1,0.4,1,0.9v1.2c-0.1,0.5-0.5,0.9-1.1,0.9h-2.8
				C31.3,69.9,30.9,69.5,30.8,69.1z"/>
			<path class="st12" d="M36.8,67h2.6c0.6,0,1.1,0.5,1.1,1.1v0.7c0,0.6-0.5,1.1-1.1,1.1h-2.6c-0.6,0-1.1-0.5-1.1-1.1v-0.7
				C35.6,67.5,36.1,67,36.8,67z"/>
			<path class="st13" d="M35.7,69.2c0,0,3.6,0.3,3.9-0.1c0.3-0.4-0.1-2.1-0.1-2.1c0.5,0,1,0.4,1,0.9v1.2c-0.1,0.5-0.5,0.9-1.1,0.9
				h-2.8C36.1,69.9,35.7,69.6,35.7,69.2z"/>
			<path class="st12" d="M41.6,67h2.6c0.6,0,1.1,0.5,1.1,1.1v0.7c0,0.6-0.5,1.1-1.1,1.1h-2.6c-0.6,0-1.1-0.5-1.1-1.1v-0.7
				C40.5,67.5,41,67,41.6,67z"/>
			<path class="st13" d="M40.5,69.1c0,0,3.6,0.3,3.9-0.1s-0.1-2-0.1-2c0.5,0,1,0.4,1,0.9v1.2c-0.1,0.5-0.5,0.9-1.1,0.9h-2.8
				C40.9,69.9,40.6,69.6,40.5,69.1z"/>
			<path class="st12" d="M22.3,64.1h2.6c0.6,0,1.1,0.5,1.1,1.1V66c0,0.6-0.5,1.1-1.1,1.1h-2.6c-0.6,0-1.1-0.5-1.1-1.1v-0.7
				C21.2,64.6,21.7,64.1,22.3,64.1z"/>
			<path class="st13" d="M21.2,66.3c0,0,3.6,0.3,3.9-0.1c0.3-0.4-0.1-2.1-0.1-2.1c0.5,0,1,0.4,1,0.9v1.2c-0.1,0.5-0.5,0.9-1,0.9
				h-2.8C21.6,67,21.3,66.7,21.2,66.3z"/>
			<path class="st12" d="M27.1,64h2.6c0.6,0,1.1,0.5,1.1,1.1v0.7c0,0.6-0.5,1.1-1.1,1.1h-2.6c-0.6,0-1.1-0.5-1.1-1.1v-0.7
				C26,64.5,26.5,64,27.1,64z"/>
			<path class="st13" d="M26,66.2c0,0,3.6,0.3,3.9-0.1c0.3-0.4-0.1-2.1-0.1-2.1c0.5,0,1,0.4,1,0.9v1.2c-0.1,0.5-0.5,0.9-1.1,0.9
				h-2.8C26.4,67,26.1,66.6,26,66.2z"/>
			<path class="st12" d="M31.9,63.9h2.6c0.6,0,1.1,0.5,1.1,1.1v0.7c0,0.6-0.5,1.1-1.1,1.1h-2.6c-0.6,0-1.1-0.5-1.1-1.1V65
				C30.8,64.4,31.3,63.9,31.9,63.9z"/>
			<path class="st13" d="M30.8,66.1c0,0,3.6,0.3,3.9-0.1s-0.1-2.1-0.1-2.1c0.5,0,1,0.4,1,0.9V66c-0.1,0.5-0.5,0.9-1.1,0.9h-2.8
				C31.3,66.8,30.9,66.5,30.8,66.1z"/>
			<path class="st12" d="M36.8,64h2.6c0.6,0,1.1,0.5,1.1,1.1v0.7c0,0.6-0.5,1.1-1.1,1.1h-2.6c-0.6,0-1.1-0.5-1.1-1.1v-0.7
				C35.6,64.5,36.1,64,36.8,64z"/>
			<path class="st13" d="M35.7,66.1c0,0,3.6,0.3,3.9-0.1c0.3-0.4-0.1-2.1-0.1-2.1c0.5,0,1,0.4,1,0.9v1.2c-0.1,0.5-0.5,0.9-1.1,0.9
				h-2.8C36.1,66.9,35.7,66.6,35.7,66.1z"/>
			<path class="st12" d="M41.6,63.9h2.6c0.6,0,1.1,0.5,1.1,1.1v0.7c0,0.6-0.5,1.1-1.1,1.1h-2.6c-0.6,0-1.1-0.5-1.1-1.1v-0.7
				C40.5,64.4,41,63.9,41.6,63.9z"/>
			<path class="st13" d="M40.5,66.1c0,0,3.6,0.3,3.9-0.1s-0.1-2-0.1-2c0.5,0,1,0.4,1,0.9V66c-0.1,0.5-0.5,0.9-1.1,0.9h-2.8
				C40.9,66.9,40.6,66.5,40.5,66.1z"/>
			<path class="st12" d="M22.3,61h2.6c0.6,0,1.1,0.5,1.1,1.1v0.7c0,0.6-0.5,1.1-1.1,1.1h-2.6c-0.6,0-1.1-0.5-1.1-1.1v-0.7
				C21.1,61.5,21.6,61,22.3,61z"/>
			<path class="st13" d="M21.2,63.2c0,0,3.6,0.3,3.9-0.1c0.3-0.4-0.1-2-0.1-2c0.5,0,1,0.4,1,0.9v1.2c-0.1,0.5-0.5,0.9-1.1,0.9H22
				C21.6,64,21.2,63.6,21.2,63.2z"/>
			<path class="st12" d="M27.1,61h2.6c0.6,0,1.1,0.5,1.1,1.1v0.7c0,0.6-0.5,1.1-1.1,1.1h-2.6c-0.6,0-1.1-0.5-1.1-1.1v-0.7
				C25.9,61.5,26.4,61,27.1,61z"/>
			<path class="st13" d="M26,63.1c0,0,3.6,0.3,3.9-0.1c0.3-0.5-0.1-2-0.1-2c0.5,0,1,0.4,1,0.9v1.2c-0.1,0.5-0.5,0.9-1.1,0.9h-2.8
				C26.4,63.9,26,63.6,26,63.1z"/>
			<path class="st12" d="M31.9,60.9h2.6c0.6,0,1.1,0.5,1.1,1.1v0.7c0,0.6-0.5,1.1-1.1,1.1h-2.6c-0.6,0-1.1-0.5-1.1-1.1V62
				C30.8,61.4,31.3,60.9,31.9,60.9z"/>
			<path class="st13" d="M30.8,63c0,0,3.6,0.3,3.9-0.1c0.3-0.4-0.1-2-0.1-2c0.5,0,1,0.4,1,0.9V63c-0.1,0.5-0.5,0.9-1.1,0.9h-2.8
				C31.2,63.8,30.9,63.5,30.8,63z"/>
			<path class="st12" d="M36.7,60.9h2.6c0.6,0,1.1,0.5,1.1,1.1v0.7c0,0.6-0.5,1.1-1.1,1.1h-2.6c-0.6,0-1.1-0.5-1.1-1.1V62
				C35.6,61.4,36.1,60.9,36.7,60.9z"/>
			<path class="st13" d="M35.6,63.1c0,0,3.6,0.3,3.9-0.1c0.3-0.4-0.1-2-0.1-2c0.5,0,1,0.4,1,0.9V63c-0.1,0.5-0.5,0.9-1.1,0.9h-2.8
				C36.1,63.9,35.7,63.5,35.6,63.1z"/>
			<path class="st12" d="M27.1,57.9h2.6c0.6,0,1.1,0.5,1.1,1.1v0.7c0,0.6-0.5,1.1-1.1,1.1h-2.6c-0.6,0-1.1-0.5-1.1-1.1V59
				C25.9,58.4,26.4,57.9,27.1,57.9z"/>
			<path class="st13" d="M26,60.1c0,0,3.6,0.3,3.9-0.1c0.3-0.4-0.1-2-0.1-2c0.5,0,1,0.4,1,0.9V60c-0.1,0.5-0.5,0.9-1.1,0.9h-2.8
				C26.4,60.8,26,60.5,26,60.1z"/>
			<path class="st12" d="M31.9,57.8h2.6c0.6,0,1.1,0.5,1.1,1.1v0.7c0,0.6-0.5,1.1-1.1,1.1h-2.6c-0.6,0-1.1-0.5-1.1-1.1v-0.7
				C30.8,58.3,31.3,57.8,31.9,57.8z"/>
			<path class="st13" d="M30.8,60c0,0,3.6,0.3,3.9-0.1c0.3-0.4-0.1-2-0.1-2c0.5,0,1,0.4,1,0.9v1.2c-0.1,0.5-0.5,0.9-1.1,0.9h-2.8
				C31.2,60.7,30.9,60.4,30.8,60z"/>
			<path class="st12" d="M36.7,57.9h2.6c0.6,0,1.1,0.5,1.1,1.1v0.7c0,0.6-0.5,1.1-1.1,1.1h-2.6c-0.6,0-1.1-0.5-1.1-1.1V59
				C35.6,58.4,36.1,57.9,36.7,57.9z"/>
			<path class="st13" d="M35.6,60c0,0,3.6,0.3,3.9-0.1c0.3-0.4-0.1-2-0.1-2c0.5,0,1,0.4,1,0.9V60c-0.1,0.5-0.5,0.9-1.1,0.9h-2.8
				C36.1,60.8,35.7,60.5,35.6,60z"/>
			<path class="st12" d="M29.5,99.8H33c0.6,0,1.1,0.5,1.1,1.1v1.3c0,0.6-0.5,1.1-1.1,1.1h-3.5c-0.6,0-1.1-0.5-1.1-1.1v-1.3
				C28.4,100.3,28.9,99.8,29.5,99.8z"/>
			<path class="st13" d="M28.4,102.4c0,0,4.3,0.4,4.6-0.1s-0.1-2.5-0.1-2.5c0.6,0,1.1,0.4,1.2,1.1v1.4c-0.1,0.6-0.6,1.1-1.3,1h-3.4
				C29,103.3,28.5,102.9,28.4,102.4z"/>
			<path class="st12" d="M25.5,96.3H29c0.6,0,1.1,0.5,1.1,1.1v1.3c0,0.6-0.5,1.1-1.1,1.1h-3.5c-0.6,0-1.1-0.5-1.1-1.1v-1.3
				C24.4,96.8,24.9,96.3,25.5,96.3z"/>
			<path class="st13" d="M24.4,98.9c0,0,4.3,0.4,4.6-0.1c0.3-0.5-0.1-2.4-0.1-2.4c0.6,0,1.1,0.4,1.2,1.1v1.4c-0.1,0.6-0.6,1.1-1.3,1
				h-3.4C25,99.8,24.5,99.4,24.4,98.9z"/>
			<path class="st12" d="M31.3,96.2h3.5c0.6,0,1.1,0.5,1.1,1.1v1.3c0,0.6-0.5,1.1-1.1,1.1h-3.5c-0.6,0-1.1-0.5-1.1-1.1v-1.3
				C30.2,96.7,30.7,96.2,31.3,96.2z"/>
			<path class="st13" d="M30.2,98.8c0,0,4.3,0.4,4.6-0.1c0.3-0.5-0.1-2.4-0.1-2.4c0.6,0,1.1,0.4,1.2,1.1v1.4c-0.1,0.6-0.6,1.1-1.3,1
				h-3.4C30.8,99.7,30.3,99.3,30.2,98.8z"/>
		</g>
	</g>
	<path class="st14" d="M32.6,107.9c-1.6-5.1-0.7-12.1,3.1-16.8c6.6-8.2,9.4-15.8,10.7-21.3c-2.3,21.1,1.4,30.8-2.1,35.2
		C41,109.2,32.6,107.9,32.6,107.9z"/>
	<path class="st14" d="M32.7,108c0.5-3.1-1.7-5.2-4.3-9c-6.2-9.2-3.4-21-8.9-26.1c1.1,10-5.1,23.7,1.5,32
		C24.3,109.2,32.7,108,32.7,108z"/>
	<rect x="29.3" y="105.6" class="st14" width="6.9" height="4.4"/>
	<path d="M25,66.9c0.7-1.1,1.7-1.9,3.5-1.6c0,0-1.4-0.8-2.5-0.2C25.4,65.5,25,66.1,25,66.9z"/>
	<path d="M40.5,66.7c-0.7-1.1-1.7-1.9-3.5-1.6c0,0,1.4-0.8,2.5-0.2C40.1,65.3,40.5,66,40.5,66.7z"/>
	<path class="st15" d="M33.9,77.6c0,0-1.3-1.5-2-0.7c-0.5,0.6,0.7,1.2,1,2"/>
	<path class="st16" d="M28.1,82c1.5-1,3.3-1.6,5.1-1.6c1.9,0,3.8,0.5,5.3,1.6"/>
	<path class="st16" d="M40.7,80.5c-1.9,0.8-2.8,2-2.4,3.8"/>
	<path class="st16" d="M25.8,80.3c1.9,0.8,2.7,2,2.4,3.8"/>
	<ellipse class="st17" cx="28.2" cy="71.7" rx="3.1" ry="5.5"/>
	<ellipse class="st18" cx="28.2" cy="71.9" rx="1.4" ry="2.2"/>
	<path class="st19" d="M31.3,71.7H25c0-3,1.4-5.5,3.1-5.5C29.9,66.3,31.3,68.7,31.3,71.7z"/>
	<ellipse class="st17" cx="37.3" cy="71.8" rx="3.1" ry="5.5"/>
	<ellipse class="st18" cx="37.4" cy="72" rx="1.4" ry="2.2"/>
	<path class="st19" d="M40.5,71.8h-6.2c0-3,1.4-5.5,3.1-5.5C39.1,66.3,40.5,68.7,40.5,71.8z"/>
	<polygon class="st18" points="38.9,71.8 40.9,70.2 40,71.7 40.9,71.1 40.5,71.8 	"/>
	<polygon class="st18" points="26.6,71.7 24.6,70.1 25.5,71.7 24.6,71 25,71.7 	"/>
	<rect x="16.5" y="111.7" transform="matrix(0.9393 -0.343 0.343 0.9393 -37.6075 12.588)" class="st20" width="0.6" height="1.9"/>
	<path class="st21" d="M17.7,114.1c0.3,0.3,0.5,0.6,0.6,1c0.1,0.4,0.2,0.9,0.3,1.3c0,0.3,0.1,0.9,0.2,1.2s0,2.8,0,2.8
		c0,0.3,0,0.5-0.2,0.7c-0.5,1.2-2.1,1.2-2.3-0.6c-0.1,2.5-3.1,2.5-2.8-0.3c-0.6,1-1.6,0.9-2,0.3c-0.1-0.2-0.2-0.5-0.1-0.7l0.5-3.2
		c0-0.3,0.1-0.5,0.1-0.8l0.1-2.3c0-0.3,0.1-0.7,0.1-1c0.1-0.3,0.2-0.7,0.4-1c0.3-0.5,0.7-0.9,1.1-1.3c0.1-0.1,0.2-0.1,0.4-0.1l0.8,0
		c0.2,0,0.4-0.1,0.6-0.3l0.5-0.7l0.4,0.8c0.1,0.2,0.2,0.3,0.4,0.3l1.3,0.1c0.1,0,0.2,0,0.3,0.1c0.7,0.4,1.3,1,1.5,1.9
		c0.1,0.5,0.2,1,0.3,1.5c0.1,0.7,0.1,1.4,0,2.2v0c-0.1,0.3-0.3,0.6-0.5,0.8c-0.5,0.3-0.8,0-1.1-0.8"/>
	<line class="st22" x1="16.4" y1="120.8" x2="16.5" y2="117"/>
	<path class="st22" d="M13.5,120.4c0.2-1,0.5-2.3,0.7-3.8"/>
	<path class="st21" d="M16.5,110.3c0.5,0.1,1.1,0.2,1.7,0.1l0,0c0.3-0.3,0.3-0.8,0-1.1c0,0-0.1-0.1-0.1-0.1
		c-0.6-0.3-1.2-0.5-1.9-0.5c-1,0-1.6,0.2-1.9,0.4c-0.2,0.2-0.4,0.4-0.3,0.7c0,0.2,0,0.3,0.1,0.5c0.4,0.1,0.9,0.1,1.3,0"/>
	<rect x="50" y="110.8" transform="matrix(0.343 -0.9393 0.9393 0.343 -70.9602 120.8324)" class="st20" width="1.9" height="0.6"/>
	<path class="st21" d="M50,112.6c-0.3,0.3-0.5,0.6-0.6,1c-0.1,0.4-0.2,0.9-0.3,1.3c0,0.3-0.1,0.9-0.2,1.2c-0.1,0.3,0,2.8,0,2.8
		c0,0.3,0,0.5,0.1,0.8c0.5,1.2,2.1,1.2,2.3-0.6c0.1,2.5,3.1,2.5,2.8-0.3c0.6,1,1.6,0.9,2,0.3c0.1-0.2,0.2-0.5,0.1-0.7l-0.5-3.2
		c0-0.3-0.1-0.5-0.1-0.8l-0.1-2.3c0-0.3,0-0.7-0.1-1c-0.1-0.3-0.2-0.7-0.4-1c-0.3-0.5-0.7-0.9-1.1-1.3c-0.1-0.1-0.2-0.1-0.4-0.1
		l-0.8,0c-0.2,0-0.4-0.1-0.6-0.3l-0.5-0.7l-0.4,0.8c-0.1,0.2-0.2,0.3-0.4,0.3l-1.3,0.1c-0.1,0-0.2,0-0.3,0.1c-0.7,0.4-1.3,1-1.5,1.9
		c-0.1,0.5-0.2,1-0.3,1.5c-0.1,0.7-0.1,1.4,0,2.2v0c0.1,0.3,0.3,0.6,0.6,0.8c0.5,0.3,0.8,0,1.1-0.8"/>
	<line class="st22" x1="51.3" y1="119.3" x2="51.2" y2="115.5"/>
	<path class="st22" d="M54.2,118.9c-0.2-1-0.5-2.3-0.7-3.8"/>
	<path class="st21" d="M51.2,108.8c-0.5,0.1-1.1,0.2-1.7,0.1l0,0c-0.3-0.3-0.3-0.8,0-1.1c0,0,0.1-0.1,0.1-0.1
		c0.6-0.3,1.2-0.5,1.9-0.5c1,0,1.6,0.2,1.9,0.4c0.2,0.2,0.4,0.4,0.3,0.7c0,0.2-0.1,0.3-0.1,0.5c-0.4,0.1-0.9,0.1-1.3,0"/>
	<path class="st6" d="M144.3,135.5c0.6,0.3,1,1,0.8,1.7c-0.4,1.1-1.5,1.6-3.1,1.6l-2.3-0.2c-0.2,0-0.4,0-0.5,0l-2.9,0.1
		c-1.5,0.1-3-0.1-4.4-0.4c-1.2-0.5-1.9-1.2-1.4-2.6c0.6-0.7,1.8-0.9,2.9-1.2L144.3,135.5z"/>
	<path class="st4" d="M138.2,133.5c-0.6-1.2-1.8-2-3.1-2.1c-0.1,0-0.1,0-0.2,0c-2-0.1-3.5,0.4-4.2,1.8c-0.4,0.8-0.4,1.7,0,2.5
		c0.5,1,1.6,1.5,3.1,1.8c0.1,0,0.3,0,0.4,0c2.4-0.1,3.8-0.2,4.9-0.2c0.5,0,1.1,0,1.6,0.1c0.5,0.1,1,0.1,1.5,0.1
		c0.9-0.1,1.7-0.7,2.1-1.5c0.3-0.6,0.4-1.3,0.4-2c0-2.7-1.3-3.6-1.6-3.6c-0.4,0.2-0.7,0.3-1.1,0.3c0,0-0.7-0.5-1-0.5
		c-0.3,0-0.9,0.6-0.9,0.6c-0.6,0-1.1-0.1-1.7-0.3c-0.2,0.1-1.1,1.1-1.4,1.7"/>
	<path class="st5" d="M142,130.7c1.3-0.2,2.3-0.9,2.3-1.7c0-1-1.5-1.8-3.4-1.8c-1.9,0-3.4,0.8-3.4,1.8c0,0.9,1.2,1.6,2.8,1.8"/>
	<path class="st6" d="M147.2,135.4c-0.6,0.3-1,1-0.8,1.7c0.4,1.1,1.5,1.6,3.1,1.6l2.3-0.2c0.2,0,0.4,0,0.5,0l2.9,0.1
		c1.5,0.1,3-0.1,4.5-0.4c1.2-0.5,1.9-1.2,1.4-2.6c-0.6-0.7-1.8-0.9-2.9-1.2L147.2,135.4z"/>
	<path class="st4" d="M153.2,133.4c0.6-1.2,1.8-2,3.1-2.1c0.1,0,0.1,0,0.2,0c2-0.1,3.5,0.4,4.2,1.8c0.4,0.8,0.4,1.7,0,2.5
		c-0.5,1-1.6,1.5-3.1,1.8c-0.1,0-0.3,0-0.4,0c-2.4-0.1-3.8-0.2-4.9-0.2c-0.5,0-1.1,0-1.6,0.1c-0.5,0.1-1,0.1-1.5,0.1
		c-0.9-0.1-1.7-0.7-2.1-1.5c-0.3-0.6-0.4-1.3-0.4-2c0-2.7,1.3-3.6,1.6-3.6c0.4,0.2,0.7,0.3,1.1,0.3c0,0,0.7-0.5,1-0.5
		c0.3,0,0.9,0.6,0.9,0.6c0.6,0,1.1-0.1,1.7-0.3c0.2,0.1,1.1,1.1,1.4,1.7"/>
	<path class="st5" d="M149.5,130.6c-1.3-0.2-2.3-0.9-2.3-1.7c0-1,1.5-1.8,3.4-1.8s3.4,0.8,3.4,1.8c0,0.9-1.2,1.6-2.8,1.8"/>
	<path class="st23" d="M140.7,129.3L140.7,129.3c-0.8,0-1.4-0.8-1.4-1.9c-0.9-5.3-0.8-11,0-17h2.8c-0.8,6.2-0.9,11.9,0,17
		C142.1,128.5,141.4,129.3,140.7,129.3z"/>
	<path class="st23" d="M150.6,129.5L150.6,129.5c-0.8,0-1.4-0.9-1.4-1.9c1.3-4.8,1.1-10.6,0-17h2.8c1.1,6.1,1.2,11.8,0,17
		C152,128.6,151.3,129.5,150.6,129.5z"/>
	<path class="st23" d="M163.5,121.1L163.5,121.1c0.7-0.2,0.9-1.4,0.5-2.6c-1.2-6.5-3.5-13.2-6.4-20l-2.5,0.8c3,7.1,5.3,13.8,6.4,20
		C161.9,120.5,162.8,121.3,163.5,121.1z"/>
	<path class="st7" d="M164.8,119.5c0.1-0.5,0-1-0.5-1.2c0,0-0.6-0.3-1.7,0.2c-0.6,0.2-1.1,0.6-1.5,1.2c-0.2,0.3-0.2,0.7,0,0.9
		c0.1,0.1,0.2,0.2,0.4,0.3L164.8,119.5z"/>
	<path class="st7" d="M162.2,119.8c-0.2,0.1-0.4,0.3-0.5,0.5l-0.5,1.1c-0.5,0.9-1.3,1.7-2.1,2.3c-0.3,0.2-0.4,0.6-0.2,0.9
		c0.1,0.2,0.3,0.4,0.6,0.3c1,0,2-0.4,2.7-1.2c0.8,1.1,1.8,2,2.9,2.8c0.2,0.1,0.3,0.2,0.5,0.3c0.4,0.2,0.7,0.4,1.1,0.5
		c0.4,0.2,0.9,0.3,1.3,0.2c0.8-0.2,0.8-0.9-0.4-1.9l1.3,0.1c0.5,0,1-0.1,1.4-0.3c1.1-0.5,0.8-1.4-0.5-1.9c0.6-0.4,0.9-0.7,0.6-1.2
		c-0.1-0.2-0.3-0.3-0.5-0.3l-1.2-0.3c-0.3-0.1-0.6-0.2-0.8-0.4c-0.8-0.6-1.7-1.2-2.6-1.7c-0.5-0.2-1-0.4-1.5-0.5
		c-0.2-0.1-0.5,0-0.7,0.1"/>
	<path class="st7" d="M166.7,122.5c0.9,0.8,2,1.3,3.1,1.1"/>
	<path class="st7" d="M165.1,123.8c0.6,0.9,1.5,1.6,2.5,1.9"/>
	<path class="st23" d="M128,121.5L128,121.5c-0.7-0.2-0.9-1.4-0.5-2.6c1.2-6.5,3.5-13.2,6.4-20l2.5,0.8c-3,7.1-5.3,13.8-6.4,20
		C129.6,120.9,128.7,121.7,128,121.5z"/>
	<path class="st24" d="M145.9,118.8c9.5-2.2,13.2-13.4,13.5-14.4c4.5-16.3-6.7-18.9-6.7-18.9h-14.5c0,0-10.2,3-5.6,19.9
		C135.8,116,143.6,118.8,145.9,118.8z"/>
	<ellipse transform="matrix(0.907 -0.421 0.421 0.907 -32.7392 66.8411)" class="st25" cx="135" cy="107.6" rx="0.9" ry="3.2"/>
	<path class="st26" d="M157.6,101.3c0.1,3.6-0.5,4.2-1,4.5c-1.3,0.8-3.7,0.2-4.7-1.1c-1.4-1.8,0.2-4-1-4.9c-1.2-0.9-3.5,1.1-5.9,0.1
		c-1.4-0.6-2.4-2.1-2.4-3.4c0-2.5,3.5-3.9,4.5-4.3c0.5-0.2,5.1-2.1,8.2,0C157.4,93.6,157.4,96.1,157.6,101.3z"/>
	<ellipse class="st27" cx="149.5" cy="114.4" rx="0.4" ry="1.2"/>
	<ellipse class="st28" cx="149.5" cy="114.4" rx="0.4" ry="1.2"/>
	<ellipse class="st27" cx="149.5" cy="114.4" rx="0.4" ry="1.2"/>
	<ellipse class="st27" cx="145.4" cy="116.4" rx="0.4" ry="1.2"/>
	<ellipse class="st28" cx="145.4" cy="116.4" rx="0.4" ry="1.2"/>
	<ellipse class="st27" cx="145.4" cy="116.4" rx="0.4" ry="1.2"/>
	<ellipse class="st27" cx="141.3" cy="114.1" rx="0.4" ry="1.2"/>
	<ellipse class="st28" cx="141.2" cy="114.1" rx="0.4" ry="1.2"/>
	<ellipse class="st27" cx="141.3" cy="114.1" rx="0.4" ry="1.2"/>
	<ellipse class="st27" cx="156.6" cy="107.3" rx="0.4" ry="1.2"/>
	<ellipse class="st28" cx="156.6" cy="107.3" rx="0.4" ry="1.2"/>
	<ellipse class="st27" cx="156.6" cy="107.3" rx="0.4" ry="1.2"/>
	<ellipse class="st27" cx="153.1" cy="111.7" rx="0.4" ry="1.2"/>
	<ellipse class="st28" cx="153.1" cy="111.7" rx="0.4" ry="1.2"/>
	<ellipse class="st27" cx="153.1" cy="111.7" rx="0.4" ry="1.2"/>
	<ellipse class="st27" cx="140.6" cy="109.2" rx="0.4" ry="1.2"/>
	<ellipse class="st28" cx="140.5" cy="109.2" rx="0.4" ry="1.2"/>
	<ellipse class="st27" cx="140.6" cy="109.2" rx="0.4" ry="1.2"/>
	<ellipse class="st27" cx="144" cy="111.6" rx="0.4" ry="1.2"/>
	<ellipse class="st28" cx="143.9" cy="111.6" rx="0.4" ry="1.2"/>
	<ellipse class="st27" cx="144" cy="111.6" rx="0.4" ry="1.2"/>
	<ellipse class="st27" cx="137.7" cy="105.8" rx="0.4" ry="1.2"/>
	<ellipse class="st28" cx="137.6" cy="105.8" rx="0.4" ry="1.2"/>
	<ellipse class="st27" cx="137.7" cy="105.8" rx="0.4" ry="1.2"/>
	<ellipse class="st27" cx="147.5" cy="111.5" rx="0.4" ry="1.2"/>
	<ellipse class="st28" cx="147.5" cy="111.5" rx="0.4" ry="1.2"/>
	<ellipse class="st27" cx="147.5" cy="111.5" rx="0.4" ry="1.2"/>
	<ellipse class="st27" cx="151.2" cy="108.8" rx="0.4" ry="1.2"/>
	<ellipse class="st28" cx="151.2" cy="108.8" rx="0.4" ry="1.2"/>
	<ellipse class="st27" cx="151.2" cy="108.8" rx="0.4" ry="1.2"/>
	<ellipse class="st27" cx="154.1" cy="105.1" rx="0.4" ry="1.2"/>
	<ellipse class="st28" cx="154.1" cy="105.1" rx="0.4" ry="1.2"/>
	<ellipse class="st27" cx="154.1" cy="105.1" rx="0.4" ry="1.2"/>
	<ellipse class="st27" cx="134.7" cy="102" rx="0.4" ry="1.2"/>
	<ellipse class="st28" cx="134.6" cy="101.9" rx="0.4" ry="1.2"/>
	<ellipse class="st27" cx="134.7" cy="102" rx="0.4" ry="1.2"/>
	<ellipse class="st27" cx="157.4" cy="101.6" rx="0.4" ry="1.2"/>
	<ellipse class="st28" cx="157.4" cy="101.6" rx="0.4" ry="1.2"/>
	<ellipse class="st27" cx="157.4" cy="101.6" rx="0.4" ry="1.2"/>
	<ellipse class="st27" cx="145.4" cy="108.2" rx="0.4" ry="1.2"/>
	<ellipse class="st28" cx="145.4" cy="108.1" rx="0.4" ry="1.2"/>
	<ellipse class="st27" cx="145.4" cy="108.2" rx="0.4" ry="1.2"/>
	<ellipse class="st27" cx="151.9" cy="86.9" rx="0.4" ry="1.2"/>
	<ellipse class="st28" cx="151.9" cy="86.9" rx="0.4" ry="1.2"/>
	<ellipse class="st27" cx="151.9" cy="86.9" rx="0.4" ry="1.2"/>
	<ellipse class="st27" cx="141.3" cy="86.8" rx="0.4" ry="1.2"/>
	<ellipse class="st28" cx="141.2" cy="86.8" rx="0.4" ry="1.2"/>
	<ellipse class="st27" cx="141.3" cy="86.8" rx="0.4" ry="1.2"/>
	<ellipse class="st27" cx="136.5" cy="88.9" rx="0.4" ry="1.2"/>
	<ellipse class="st28" cx="136.5" cy="88.9" rx="0.4" ry="1.2"/>
	<ellipse class="st27" cx="136.5" cy="88.9" rx="0.4" ry="1.2"/>
	<ellipse class="st27" cx="133.3" cy="92.9" rx="0.4" ry="1.2"/>
	<ellipse class="st28" cx="133.3" cy="93" rx="0.4" ry="1.2"/>
	<ellipse class="st27" cx="133.3" cy="92.9" rx="0.4" ry="1.2"/>
	<ellipse class="st27" cx="157.5" cy="92.9" rx="0.4" ry="1.2"/>
	<ellipse class="st28" cx="157.5" cy="92.9" rx="0.4" ry="1.2"/>
	<ellipse class="st27" cx="157.5" cy="92.9" rx="0.4" ry="1.2"/>
	<ellipse class="st27" cx="155.5" cy="89.6" rx="0.4" ry="1.2"/>
	<path class="st28" d="M155.5,88.4c0.2,0,0.4,0.5,0.4,1.2s-0.2,1.2-0.4,1.2s-0.4-0.5-0.4-1.2S155.3,88.4,155.5,88.4z"/>
	<ellipse class="st27" cx="155.5" cy="89.6" rx="0.4" ry="1.2"/>
	<ellipse class="st27" cx="140.6" cy="91.7" rx="0.4" ry="1.2"/>
	<ellipse class="st28" cx="140.5" cy="91.7" rx="0.4" ry="1.2"/>
	<ellipse class="st27" cx="140.6" cy="91.7" rx="0.4" ry="1.2"/>
	<ellipse class="st27" cx="144" cy="89.2" rx="0.4" ry="1.2"/>
	<ellipse class="st28" cx="143.9" cy="89.2" rx="0.4" ry="1.2"/>
	<ellipse class="st27" cx="144" cy="89.2" rx="0.4" ry="1.2"/>
	<ellipse class="st27" cx="137.7" cy="95" rx="0.4" ry="1.2"/>
	<ellipse class="st28" cx="137.6" cy="95" rx="0.4" ry="1.2"/>
	<ellipse class="st27" cx="137.7" cy="95" rx="0.4" ry="1.2"/>
	<ellipse class="st27" cx="147.1" cy="89.1" rx="0.4" ry="1.2"/>
	<ellipse class="st28" cx="147" cy="89.2" rx="0.4" ry="1.2"/>
	<ellipse class="st27" cx="147.1" cy="89.1" rx="0.4" ry="1.2"/>
	<ellipse class="st27" cx="150.8" cy="91.3" rx="0.4" ry="1.2"/>
	<ellipse class="st28" cx="150.7" cy="91.3" rx="0.4" ry="1.2"/>
	<ellipse class="st27" cx="150.8" cy="91.3" rx="0.4" ry="1.2"/>
	<ellipse class="st27" cx="154.1" cy="95.5" rx="0.4" ry="1.2"/>
	<ellipse class="st28" cx="154.1" cy="95.5" rx="0.4" ry="1.2"/>
	<ellipse class="st27" cx="154.1" cy="95.5" rx="0.4" ry="1.2"/>
	<ellipse class="st27" cx="132.9" cy="98.2" rx="0.4" ry="1.2"/>
	<ellipse class="st28" cx="132.9" cy="98.2" rx="0.4" ry="1.2"/>
	<ellipse class="st27" cx="132.9" cy="98.2" rx="0.4" ry="1.2"/>
	<ellipse class="st27" cx="158.5" cy="96.8" rx="0.4" ry="1.2"/>
	<ellipse class="st28" cx="158.5" cy="96.9" rx="0.4" ry="1.2"/>
	<ellipse class="st27" cx="158.5" cy="96.8" rx="0.4" ry="1.2"/>
	<ellipse class="st27" cx="145.4" cy="92.7" rx="0.4" ry="1.2"/>
	<ellipse class="st28" cx="145.4" cy="92.7" rx="0.4" ry="1.2"/>
	<ellipse class="st27" cx="145.4" cy="92.7" rx="0.4" ry="1.2"/>
	<path class="st29" d="M147.3,96.7c-0.2,2.2,0.6,4,1.9,4.2c1.1,0.1,1.8-1.1,2.2-2.8c-2.8-1.1-2.7-0.4,0.1-1.3
		c-0.1-1.7-0.5-3.6-1.5-3.7C148.7,92.9,147.5,94.6,147.3,96.7z"/>
	<polygon class="st29" points="150.8,97 152.1,96 151.4,96.8 152.8,96.1 151.9,96.8 	"/>
	<path class="st29" d="M143.8,96.8c0.2,2.2-0.7,4-2,4.2c-1.1,0.1-1.8-1.1-2.2-2.8c2.8-1.1,2.7-0.4-0.1-1.3c0.1-1.7,0.5-3.6,1.6-3.7
		C142.4,93,143.6,94.6,143.8,96.8z"/>
	<polygon class="st29" points="140.3,97 139,96 139.7,96.8 138.3,96.1 139.2,96.8 	"/>
	<path class="st29" d="M154.1,104.6c-0.1-2.4-2.3-2.7-5.9-0.7l0.2-0.2c0.7-0.6,1.4-1,2.2-1.3c1.3-0.4,2.9-0.3,3.4,0.4
		c0.3,0.4,0.4,1,0.2,1.5L154.1,104.6z"/>
	<path class="st29" d="M137.5,104.5c0.1-2.4,2.3-2.7,5.9-0.7l-0.2-0.2c-0.7-0.6-1.4-1-2.2-1.3c-1.3-0.4-2.9-0.3-3.4,0.4
		c-0.3,0.5-0.4,1-0.2,1.5L137.5,104.5z"/>
	<ellipse class="st30" cx="145.7" cy="103.4" rx="2.8" ry="1.4"/>
	<ellipse class="st31" cx="145.7" cy="102.4" rx="1.2" ry="0.4"/>
	<path class="st29" d="M140.4,105.5c3.5,1.4,7.5,1.6,10.6-0.3c0,0-0.6,4.3-5.3,4.3C141.1,109.4,140.4,105.5,140.4,105.5z"/>
	<path class="st29" d="M151.4,105.8c-0.1-0.6-0.6-0.7-1.3-0.6l0,0l0.3-0.1c0.1,0,0.2-0.1,0.3-0.1c0.1,0,0.2,0,0.3,0h0
		c0.2,0,0.3,0.1,0.4,0.3c0.1,0.1,0.1,0.3,0.1,0.5L151.4,105.8L151.4,105.8z"/>
	<path class="st29" d="M140.1,106.1c0.1-0.6,0.6-0.7,1.3-0.6l0,0l-0.3-0.1c-0.1,0-0.2-0.1-0.3-0.1c-0.1,0-0.2,0-0.3,0h0
		c-0.2,0-0.3,0.1-0.4,0.3c-0.1,0.1-0.1,0.3-0.1,0.5L140.1,106.1L140.1,106.1z"/>
	<ellipse class="st32" cx="139" cy="104" rx="0.3" ry="0.3"/>
	<ellipse class="st32" cx="139.8" cy="103.8" rx="0.3" ry="0.3"/>
	<ellipse class="st32" cx="139.6" cy="104.5" rx="0.2" ry="0.2"/>
	<ellipse class="st32" cx="152.4" cy="103.9" rx="0.3" ry="0.3"/>
	<ellipse class="st32" cx="151.6" cy="103.8" rx="0.3" ry="0.3"/>
	<ellipse class="st32" cx="151.8" cy="104.4" rx="0.2" ry="0.2"/>
	<path class="st33" d="M142.8,83.2c1.2-1.5,3.7-1.5,5.4,0l-2.7,2.2L142.8,83.2z"/>
	<path class="st34" d="M145.2,85.2c1.9,2.2,5.3,2.8,9.6,0.6c0.8-0.4,0.9-1.4,0.9-1.4c-2,0.2-3.2-0.3-4-1.2
		C149.7,82.2,147.7,82.8,145.2,85.2z"/>
	<path class="st35" d="M145.3,85c0,0-2.5-3-5.6-2.4c-1.9,0.4-4.4,2.7-4.4,2.7c1.7,0.5,3.3,0.9,5,1.1C143.8,86.3,145.3,85,145.3,85z"
		/>
	<path class="st36" d="M147.1,81.4c0-0.6-0.6-1.5-1.2-1.6c-0.1,0-0.2,0-0.2,0.1c-0.2,0.3-0.3,1.5-0.4,2c-0.1,0.6-0.1,3.3-0.1,3.3
		c0.2,0.2,0.4,0.2,0.6,0c0,0,0.2-1.9,0.3-2.3c0.1-0.4,0.5-1.1,0.9-1.3C147,81.6,147.1,81.5,147.1,81.4z"/>
	<path class="st37" d="M146.9,81.5c-0.5-0.4-1-0.9-1.2-1.6c0,0,0-0.1,0-0.1c0,0,0,0,0,0c0.6,0.1,1.2,0.9,1.2,1.6
		C147,81.4,147,81.5,146.9,81.5C146.9,81.5,146.9,81.5,146.9,81.5z"/>
	<path class="st38" d="M145.7,85.2c0.2,2.7,2.8,5.2,7.6,5.9c0.7,0.1,1.3,0,2-0.2c-1.8-1-3-2-3-3.2C151.2,85.9,149.1,84.9,145.7,85.2
		z"/>
	<path class="st39" d="M145.3,85.1c-1.5,1.4-2,3.5-1.3,5.4c0.8,1.8,3.3,3.8,3.3,3.8c0.2-1.7,0.3-3.4,0.2-5.2
		C147,85.6,145.3,85.1,145.3,85.1z"/>
	<path class="st40" d="M145.3,85.1c-3.6-1.1-7.2,0.5-8,5.2c0,0.6,0,1.2,0.1,1.8c1.3-1.4,2.6-2.3,3.7-2.2
		C142.7,88.8,144.4,87.2,145.3,85.1z"/>
	<ellipse transform="matrix(0.907 -0.421 0.421 0.907 -34.3828 68.2022)" class="st25" cx="137.3" cy="112" rx="0.5" ry="1"/>
	<g id="LENTES">
		<polygon class="st41" points="157.5,93.9 158.2,95.3 164.8,92.8 163.6,90.5 		"/>
	</g>
	<path class="st42" d="M148.9,101.6l5.1,0.5c1.8,0.2,3.4-0.9,3.6-2.4l0.5-4.2c0.2-1.5-1.1-2.9-2.9-3l-5.1-0.5
		c-1.8-0.2-3.4,0.9-3.6,2.4l-0.5,4.1C145.8,100.1,147.1,101.4,148.9,101.6z"/>
	<path class="st42" d="M142.1,101.5l-5.1,0.5c-1.8,0.2-3.4-0.9-3.6-2.4l-0.5-4.1c-0.2-1.5,1.1-2.9,2.9-3l5.1-0.5
		c1.8-0.2,3.4,0.9,3.6,2.4l0.5,4.1C145.2,100,143.9,101.3,142.1,101.5z"/>
	<path class="st43" d="M144.5,95.4c0.6-0.2,1.2-0.2,1.9,0"/>
	<g id="LENTES-2">
		<polygon class="st41" points="133.4,93.8 132.7,95.2 126.1,92.7 127.3,90.4 		"/>
	</g>
	<ellipse class="st27" cx="135.2" cy="97.9" rx="0.4" ry="1.2"/>
	<ellipse class="st28" cx="135.2" cy="97.9" rx="0.4" ry="1.2"/>
	<ellipse class="st27" cx="135.2" cy="97.9" rx="0.4" ry="1.2"/>
	<path class="st6" d="M87,134.3c0.8,0.3,1.2,1.2,0.9,1.9c-0.5,1.3-1.8,1.9-3.7,1.8l-2.8-0.2c-0.2,0-0.4,0-0.6,0l-3.6,0.1
		c-1.8,0.1-3.6-0.1-5.4-0.5c-1.5-0.5-2.3-1.4-1.7-2.9c0.7-0.8,2.1-1.1,3.6-1.3L87,134.3z"/>
	<path class="st4" d="M79.6,132c-0.7-1.2-1.9-2.1-3.8-2.4c-0.1,0-0.2,0-0.2,0c-2.4-0.1-4.3,0.5-5,2c-0.5,0.9-0.5,2,0,2.9
		c0.6,1.1,1.9,1.8,3.8,2c0.2,0,0.4,0,0.5,0c3-0.1,4.6-0.2,6-0.2c0.7,0,1.3,0,2,0.1c0.6,0.1,1.2,0.1,1.9,0.1c1.1-0.1,2-0.8,2.5-1.7
		c0.3-0.7,0.5-1.5,0.5-2.3c0-3.1-1.6-4.1-1.9-4.1c-0.4,0.2-0.9,0.3-1.4,0.4c0,0-0.8-0.6-1.2-0.6c-0.3,0-1.1,0.7-1.1,0.7
		c-0.7,0-1.4-0.1-2.1-0.3c-0.3,0.1-1.3,1.3-1.7,2"/>
	<path class="st5" d="M84.2,128.8c1.6-0.3,2.8-1,2.8-1.9c0-1.1-1.9-2.1-4.2-2.1s-4.2,0.9-4.2,2.1c0,1,1.5,1.9,3.4,2"/>
	<path class="st6" d="M90.4,134.2c-0.8,0.3-1.2,1.2-0.9,1.9c0.5,1.3,1.8,1.9,3.7,1.8l2.8-0.2c0.2,0,0.4,0,0.6,0l3.6,0.1
		c1.8,0.1,3.6-0.1,5.4-0.5c1.5-0.5,2.3-1.4,1.7-2.9c-0.7-0.8-2.2-1.1-3.6-1.3L90.4,134.2z"/>
	<path class="st4" d="M97.8,131.9c0.7-1.2,1.9-2.1,3.8-2.4c0.1,0,0.2,0,0.2,0c2.4-0.1,4.3,0.5,5.1,2c0.5,0.9,0.5,2,0,2.9
		c-0.6,1.1-1.9,1.8-3.8,2c-0.2,0-0.4,0-0.5,0c-3-0.1-4.6-0.2-6-0.2c-0.7,0-1.3,0-2,0.1c-0.6,0.1-1.2,0.1-1.9,0.1
		c-1.1-0.1-2-0.8-2.5-1.7c-0.3-0.7-0.5-1.5-0.5-2.3c0-3.1,1.6-4.1,1.9-4.1c0.4,0.2,0.9,0.3,1.4,0.4c0,0,0.8-0.6,1.2-0.6
		c0.3,0,1.1,0.7,1.1,0.7c0.7,0,1.4-0.1,2.1-0.3c0.3,0.1,1.3,1.3,1.7,2"/>
	<path class="st5" d="M93.2,128.7c-1.6-0.3-2.8-1-2.8-1.9c0-1.1,1.9-2.1,4.2-2.1s4.2,0.9,4.2,2.1c0,1-1.5,1.9-3.4,2"/>
	<path class="st44" d="M82.7,127.1L82.7,127.1c-0.9,0-1.6-0.7-1.6-1.7c-1-4.6-0.9-9.6,0-14.8h3.3c-0.9,5.4-1,10.4,0,14.8
		C84.4,126.4,83.7,127.1,82.7,127.1z"/>
	<path class="st44" d="M94.3,127.2L94.3,127.2c-0.9,0-1.7-0.7-1.7-1.7c1.5-4.2,1.3-9.2,0-14.8H96c1.3,5.3,1.4,10.3,0,14.8
		C96,126.5,95.2,127.2,94.3,127.2z"/>
	<path class="st44" d="M107.3,96.8c0.4,1.3,0.7,2.6,0.9,3.9c0.1,0.3,0.1,0.7,0.2,1c0,0.1,0,0.3,0.1,0.4c0-0.2,0,0,0,0.1
		c0,0.1,0,0.2,0,0.3c0.1,0.7,0.1,1.3,0.2,2c0.2,2.7,0.3,5.3,0.5,8c0.1,1.6,0.3,3.2,0.6,4.8c0.1,0.7,1,1.2,1.7,1c0.7-0.2,1.2-1,1-1.7
		c-0.1-0.3-0.1-0.7-0.2-1c0-0.1,0-0.3-0.1-0.4c0,0.1,0,0.2,0-0.1c0-0.1,0-0.2,0-0.3c-0.1-0.7-0.1-1.3-0.2-2c-0.1-1.3-0.2-2.7-0.3-4
		c-0.2-2.7-0.3-5.5-0.8-8.2c-0.2-1.5-0.6-3-1-4.4c-0.2-0.7-1-1.2-1.7-1C107.6,95.3,107.1,96.1,107.3,96.8L107.3,96.8z"/>
	
		<rect x="109.6" y="117.9" transform="matrix(0.3657 -0.9307 0.9307 0.3657 -40.0232 177.633)" class="st21" width="1.5" height="0.5"/>
	<path class="st21" d="M109.5,119.4c-0.3,0.2-0.5,0.5-0.5,0.8c-0.1,0.3-0.2,0.7-0.2,1c0,0.2-0.1,0.7-0.2,1c-0.1,0.3-0.1,2.3-0.1,2.3
		c0,0.2,0,0.4,0.1,0.6c0.4,1,1.7,1,1.9-0.5c0,2,2.5,2.1,2.3-0.2c0.5,0.9,1.3,0.8,1.7,0.3c0.1-0.2,0.1-0.4,0.1-0.6l-0.3-2.6
		c0-0.2,0-0.4,0-0.6V119c0-0.3,0-0.5-0.1-0.8c-0.1-0.3-0.2-0.6-0.3-0.8c-0.2-0.4-0.5-0.8-0.9-1.1c-0.1-0.1-0.2-0.1-0.3-0.1l-0.7,0
		c-0.2,0-0.3-0.1-0.4-0.2l-0.4-0.6l-0.3,0.6c-0.1,0.1-0.2,0.2-0.3,0.2l-1.1,0.1c-0.1,0-0.2,0-0.2,0.1c-0.6,0.3-1.1,0.8-1.2,1.5
		c-0.1,0.4-0.2,0.8-0.3,1.2c-0.1,0.6-0.1,1.2,0,1.8v0c0,0.3,0.2,0.5,0.4,0.6c0.4,0.2,0.6,0,0.9-0.6"/>
	<line class="st22" x1="110.5" y1="124.8" x2="110.5" y2="121.8"/>
	<path class="st22" d="M112.8,124.6c-0.2-0.8-0.3-1.9-0.5-3.1"/>
	<path class="st21" d="M110.6,116.3c-0.4,0.1-0.9,0.1-1.4,0l0,0c-0.2-0.3-0.2-0.7,0.1-0.9c0,0,0.1,0,0.1-0.1c0.5-0.3,1-0.4,1.6-0.4
		c0.5-0.1,1.1,0.1,1.5,0.3c0.2,0.1,0.3,0.4,0.3,0.6c0,0.1,0,0.3-0.1,0.4c-0.4,0.1-0.7,0-1.1-0.1"/>
	<path class="st44" d="M67.7,96.5c-1.6,5.2-1.6,10.7-2,16c-0.1,0.8-0.1,1.5-0.2,2.3c0,0.2,0,0.4-0.1,0.6c0,0,0,0.2,0,0.1
		s0,0.1,0,0.2c-0.1,0.4-0.1,0.8-0.2,1.2c-0.1,0.7,0.2,1.5,1,1.7c0.7,0.2,1.6-0.2,1.7-1c0.4-2.7,0.7-5.4,0.8-8.2
		c0.1-1.3,0.2-2.7,0.3-4c0.1-0.7,0.1-1.3,0.2-2c0-0.3,0.1-0.7,0.1-1c0,0.2,0-0.1,0-0.2c0-0.2,0.1-0.4,0.1-0.6c0.2-1.5,0.6-3,1-4.4
		c0.2-0.7-0.2-1.5-1-1.7C68.7,95.3,67.9,95.8,67.7,96.5L67.7,96.5z"/>
	
		<rect x="67.1" y="117.8" transform="matrix(0.9307 -0.3657 0.3657 0.9307 -38.7028 32.8592)" class="st21" width="0.5" height="1.5"/>
	<path class="st21" d="M68.2,119.8c0.3,0.2,0.5,0.5,0.5,0.8c0.1,0.3,0.2,0.7,0.2,1c0,0.2,0.1,0.7,0.2,1c0.1,0.3,0.1,2.3,0.1,2.3
		c0,0.2,0,0.4-0.1,0.6c-0.4,1-1.7,1-1.9-0.5c0,2-2.5,2.1-2.3-0.2c-0.5,0.9-1.3,0.8-1.7,0.3c-0.1-0.2-0.1-0.4-0.1-0.6l0.3-2.6
		c0-0.2,0-0.4,0-0.7v-1.9c0-0.3,0-0.5,0.1-0.8c0.1-0.3,0.2-0.6,0.3-0.8c0.2-0.4,0.5-0.7,0.9-1.1c0.1-0.1,0.2-0.1,0.3-0.1l0.7,0
		c0.2,0,0.3-0.1,0.4-0.2l0.4-0.6l0.3,0.6c0.1,0.1,0.2,0.2,0.3,0.2l1.1,0.1c0.1,0,0.2,0,0.2,0.1c0.6,0.3,1.1,0.8,1.2,1.5
		c0.1,0.4,0.2,0.8,0.3,1.2c0.1,0.6,0.1,1.2,0,1.8v0c0,0.3-0.2,0.5-0.4,0.6c-0.4,0.2-0.6,0-0.9-0.6"/>
	<line class="st22" x1="67.3" y1="125.2" x2="67.2" y2="122.2"/>
	<path class="st22" d="M64.9,125c0.2-0.8,0.3-1.9,0.5-3.1"/>
	<path class="st21" d="M67.1,116.7c0.4,0.1,0.9,0.1,1.4,0.1l0,0c0.2-0.3,0.2-0.7-0.1-0.9c0,0-0.1,0-0.1-0.1c-0.5-0.3-1-0.4-1.6-0.4
		c-0.5-0.1-1.1,0.1-1.5,0.3c-0.2,0.1-0.3,0.4-0.3,0.6c0,0.1,0,0.3,0.1,0.4c0.4,0.1,0.7,0,1.1-0.1"/>
	<ellipse class="st45" cx="88.6" cy="95.1" rx="23.4" ry="18.7"/>
	<path class="st44" d="M87.8,78.4c-1.1-0.7-2.5-1.1-3.8-1c1.1,0.5,2.3,0.9,2.3,1.9c-1.8,0.4-3.7,1.6-5.2,2.8
		c2.1-0.9,4.3-1.4,6.6-1.4c1.5,0.9,2.5,2.4,3,4.1c0.2-1.6,0.4-3.2-0.1-4.2c2,0,4,0.3,5.9,0.8c-1.8-1.1-3.5-2-5.4-2.3
		c0.1-0.9,0.9-1.6,2.1-2.2C91.1,77,89.3,77.6,87.8,78.4z"/>
	<ellipse class="st46" cx="88.7" cy="79.3" rx="1.6" ry="0.6"/>
	<path class="st46" d="M91.5,72.6c-0.1-1-1-2.5-2-2.7c-0.2,0-0.3,0-0.4,0.2c-0.3,0.6-0.6,2.6-0.7,3.5c-0.2,1.1-0.2,5.6-0.2,5.6
		c0.3,0.3,0.7,0.3,1,0c0,0,0.4-3.2,0.6-4c0.2-0.7,0.9-2,1.5-2.2C91.5,72.9,91.5,72.8,91.5,72.6z"/>
	<path class="st47" d="M91.3,72.8c-0.9-0.7-1.7-1.6-2-2.7c0-0.1,0-0.2,0.1-0.2c0,0,0,0,0.1,0c1,0.1,2,1.6,2.1,2.7
		C91.5,72.7,91.5,72.8,91.3,72.8C91.4,72.8,91.3,72.8,91.3,72.8z"/>
	<path class="st48" d="M77.2,84.6c0.7-2.5,3.7-3.3,5.8-1.3"/>
	<path class="st49" d="M81.7,101.7c3.4,3.4,8,3.3,13.1,1.2"/>
	<path class="st49" d="M95.3,99.9c-1.2,2.7-0.7,4.2,1.9,4.1"/>
	<polygon class="st50" points="79.4,88.5 76.7,90.3 78.9,89.9 77.7,90.7 78.8,90.5 	"/>
	<ellipse class="st51" cx="82.2" cy="92.3" rx="3.8" ry="5.6"/>
	<ellipse class="st50" cx="81.3" cy="92.3" rx="2.9" ry="5.2"/>
	<circle class="st51" cx="83.9" cy="92.7" r="1.2"/>
	<polygon class="st50" points="97.7,88.6 100.4,90.3 98.2,89.9 99.4,90.7 98.4,90.5 	"/>
	<ellipse class="st51" cx="94.9" cy="92.3" rx="3.8" ry="5.6"/>
	<ellipse class="st50" cx="94" cy="92.3" rx="2.9" ry="5.2"/>
	<circle class="st51" cx="96.6" cy="92.7" r="1.2"/>
	<path class="st48" d="M99.9,84.4c-0.7-2.5-3.7-3.3-5.8-1.3"/>
	<path class="st52" d="M89.9,104.4c0,0,0.3,3.1,2.7,2.7c2.5-0.4,1.4-3.9,1.4-3.9C92.8,103.8,91.4,104.2,89.9,104.4z"/>
	<path class="st49" d="M89.9,104.4c0,0,0.3,3.1,2.7,2.7c2.5-0.4,1.4-3.9,1.4-3.9C92.8,103.8,91.4,104.2,89.9,104.4z"/>
	<line class="st53" x1="92" y1="104.1" x2="92.8" y2="106.9"/>
	<ellipse class="st54" cx="74.5" cy="99.8" rx="3.4" ry="1.2"/>
	<ellipse class="st54" cx="102.2" cy="99.8" rx="3.4" ry="1.2"/>
	<ellipse class="st44" cx="69.5" cy="88.4" rx="0.8" ry="0.5"/>
	<ellipse class="st44" cx="67.4" cy="90.1" rx="0.5" ry="0.3"/>
	<ellipse class="st44" cx="69.1" cy="89.8" rx="0.4" ry="0.2"/>
	<ellipse class="st44" cx="71.9" cy="88.1" rx="0.7" ry="0.4"/>
	<ellipse class="st44" cx="67.9" cy="88.3" rx="0.3" ry="0.2"/>
	<ellipse class="st44" cx="70.7" cy="89.7" rx="0.5" ry="0.3"/>
	<ellipse transform="matrix(0.579 -0.8153 0.8153 0.579 -40.5591 92.8029)" class="st44" cx="69.6" cy="85.7" rx="0.5" ry="0.8"/>
	<ellipse transform="matrix(0.579 -0.8153 0.8153 0.579 -40.0699 94.5711)" class="st44" cx="71.5" cy="86.1" rx="0.3" ry="0.5"/>
	<ellipse transform="matrix(0.579 -0.8153 0.8153 0.579 -39.2822 93.3992)" class="st44" cx="70.8" cy="84.7" rx="0.2" ry="0.4"/>
	<ellipse transform="matrix(0.579 -0.8153 0.8153 0.579 -42.2876 97.1923)" class="st44" cx="73" cy="89.5" rx="0.4" ry="0.7"/>
	<ellipse transform="matrix(0.579 -0.8153 0.8153 0.579 -41.4127 93.9479)" class="st44" cx="70.3" cy="87.1" rx="0.2" ry="0.3"/>
	<ellipse transform="matrix(0.579 -0.8153 0.8153 0.579 -41.6243 92.678)" class="st44" cx="68.9" cy="86.6" rx="0.3" ry="0.5"/>
	
		<ellipse transform="matrix(0.7994 -0.6008 0.6008 0.7994 -43.4728 83.3889)" class="st44" cx="103.1" cy="106.8" rx="0.8" ry="0.5"/>
	
		<ellipse transform="matrix(0.7994 -0.6008 0.6008 0.7994 -42.9999 85.0386)" class="st44" cx="105.8" cy="106.9" rx="0.5" ry="0.3"/>
	
		<ellipse transform="matrix(0.7994 -0.6008 0.6008 0.7994 -43.8011 84.263)" class="st44" cx="104.3" cy="107.7" rx="0.4" ry="0.2"/>
	<ellipse transform="matrix(0.7994 -0.6008 0.6008 0.7994 -44.5834 82.3571)" class="st44" cx="101" cy="107.9" rx="0.7" ry="0.4"/>
	
		<ellipse transform="matrix(0.7994 -0.6008 0.6008 0.7994 -42.5876 83.888)" class="st44" cx="104.3" cy="105.7" rx="0.3" ry="0.2"/>
	
		<ellipse transform="matrix(0.7994 -0.6008 0.6008 0.7994 -44.5754 83.6341)" class="st44" cx="102.9" cy="108.6" rx="0.5" ry="0.3"/>
	
		<ellipse transform="matrix(0.3039 -0.9527 0.9527 0.3039 -29.112 169.4882)" class="st44" cx="101.4" cy="104.7" rx="0.8" ry="0.5"/>
	
		<ellipse transform="matrix(0.3039 -0.9527 0.9527 0.3039 -31.464 169.2776)" class="st44" cx="100.1" cy="106.2" rx="0.5" ry="0.3"/>
	
		<ellipse transform="matrix(0.3039 -0.9527 0.9527 0.3039 -30.1632 168.0163)" class="st44" cx="99.9" cy="104.6" rx="0.4" ry="0.2"/>
	
		<ellipse transform="matrix(0.3039 -0.9527 0.9527 0.3039 -34.2663 172.6942)" class="st44" cx="101" cy="109.8" rx="0.7" ry="0.4"/>
	
		<ellipse transform="matrix(0.3039 -0.9527 0.9527 0.3039 -30.3645 170.8349)" class="st44" cx="101.7" cy="106.2" rx="0.3" ry="0.2"/>
	
		<ellipse transform="matrix(0.3039 -0.9527 0.9527 0.3039 -28.7075 170.8103)" class="st44" cx="102.5" cy="105" rx="0.5" ry="0.3"/>
	<g class="st55">
		<g id="LENTES-3">
			<polygon class="st56" points="73.9,88.5 72.6,90.3 61.5,83.2 63.8,80 			"/>
			<polygon class="st56" points="103.4,88.6 104.8,90.4 115.8,83.3 113.5,80.2 			"/>
			<ellipse class="st57" cx="96.7" cy="92.1" rx="7.9" ry="7.6"/>
			<ellipse class="st57" cx="80.9" cy="91.9" rx="7.9" ry="7.6"/>
		</g>
	</g>
	<path class="st58" d="M90.2,97.5c-4.1-3.3-7.6-0.9-3.2,2.2"/>
	<path class="st59" d="M227.8,103.6l-4,7.9c-0.5,1.1-0.1,2.3,0.9,2.9c0.2,0.1,0.4,0.2,0.6,0.2l7.8,1.5"/>
	<line class="st59" x1="246.2" y1="104" x2="247.2" y2="121.5"/>
	<path class="st4" d="M230,134c1.5-1.7,4.3-1.6,5.6,0c0.1-1-0.3-2-1-2.7h-3.3C230.6,132.1,230.2,133,230,134z"/>
	<path class="st5" d="M232.8,131.3h-1.5c-0.4-0.2-0.7-0.7-0.7-1.1c0-0.5,0.7-0.9,1.5-1.1h1.9c0.7,0.2,1.2,0.5,1.3,1.1
		c0,0.5-0.2,0.9-0.7,1.1h-0.7"/>
	<path class="st6" d="M229.3,136c-0.3,0.2-0.5,0.5-0.5,0.8c0,0.5,0.8,1.9,3.8,1.9c3.1,0,4-1.2,4-1.7c0-0.3-0.1-0.6-0.4-0.7"/>
	<path class="st7" d="M229.4,135.5c0.6-3.5,5.9-3.9,6.9,0c0.1,0.3,0,0.7-0.2,1c-1,1.2-5.8,1.2-6.4,0.1
		C229.4,136.3,229.2,135.9,229.4,135.5z"/>
	<path class="st4" d="M238,134.1c1.5-1.7,4.3-1.6,5.6,0c0.1-1-0.3-2-1-2.7h-3.3C238.6,132.1,238.2,133.1,238,134.1z"/>
	<path class="st5" d="M240.8,131.4h-1.5c-0.4-0.2-0.7-0.7-0.7-1.1c0-0.5,0.7-0.9,1.5-1.1h1.9c0.7,0.2,1.2,0.5,1.3,1.1
		c0,0.5-0.2,0.9-0.7,1.1h-0.7"/>
	<path class="st6" d="M237.3,136c-0.3,0.2-0.5,0.5-0.5,0.8c0,0.5,0.8,1.9,3.8,1.9c3.1,0,4-1.2,4-1.7c0-0.3-0.1-0.6-0.4-0.7"/>
	<path class="st7" d="M237.4,135.6c0.6-3.5,5.9-3.9,7,0c0.1,0.3,0,0.7-0.2,1c-1,1.2-5.8,1.2-6.4,0.1
		C237.4,136.4,237.3,135.9,237.4,135.6z"/>
	<path class="st60" d="M232.9,130.9L232.9,130.9c-0.6,0-1.1-0.8-1-1.5c0.8-3.6,0.6-7.3-0.4-11.3h2.1c1,3.8,1,7.8,0.2,12
		C233.8,130.4,233.4,130.8,232.9,130.9z"/>
	<path class="st60" d="M241,130.9L241,130.9c0.6,0,1.1-0.8,1-1.5c-0.8-3.6-0.6-7.3,0.4-11.3h-2.1c-1,3.8-1,7.8-0.2,12
		C240.1,130.5,240.5,130.9,241,130.9z"/>
	<ellipse class="st61" cx="236.9" cy="106" rx="10.6" ry="15"/>
	<ellipse class="st60" cx="236.9" cy="92" rx="2" ry="0.9"/>
	
		<ellipse transform="matrix(0.9881 -0.1535 0.1535 0.9881 -13.9932 36.3556)" class="st62" cx="228.4" cy="108.8" rx="1.1" ry="2.6"/>
	<ellipse class="st62" cx="228.2" cy="103.9" rx="0.6" ry="1.2"/>
	<path class="st60" d="M242.5,97c0.5,0.5,1.1,0.8,1.8,0.9h-0.6c0.2,0.5,0.8,0.7,1.3,0.9l-1.7-0.1L242.5,97z"/>
	<path class="st60" d="M231.3,97c-0.4,0.5-1,0.8-1.6,0.9h0.6c-0.2,0.5-0.8,0.7-1.3,0.9l1.3-0.1L231.3,97z"/>
	<ellipse class="st60" cx="236.9" cy="103.6" rx="1.7" ry="0.7"/>
	<path class="st63" d="M230.7,106.4c1.8-0.1,2.8-0.8,2.6-2.1"/>
	<path class="st63" d="M240.3,104.3c0.2,1.2,1.1,1.9,2.7,2.1"/>
	<path class="st63" d="M232.9,105.7c2.8,2.5,5.6,2.7,8.1,0"/>
	<path class="st63" d="M235.2,109c1,0.6,2.3,0.6,3.4,0"/>
	<path class="st64" d="M233.5,97.1l1.2-1.5c-0.9-0.9-1.9-1.3-2.8-0.8c-0.7,0.3-1.2,1-1.3,1.7c-0.2,0.9-0.3,1.9-0.3,2.8
		c0.1,1.1,0.5,2.1,1.1,3c0.6-0.8,1.8-0.9,3.4-0.5c0.2-1.6,0.3-3.2,0.2-4.9L233.5,97.1z"/>
	<g>
		<defs>
			<ellipse id="SVGID_00000008852226338898369570000003889960384113656493_" cx="232.7" cy="100.6" rx="1.3" ry="2.4"/>
		</defs>
		<clipPath id="SVGID_00000013911954373382668280000004805153069750612124_">
			<use xlink:href="#SVGID_00000008852226338898369570000003889960384113656493_"  style="overflow:visible;"/>
		</clipPath>
		<g style="clip-path:url(#SVGID_00000013911954373382668280000004805153069750612124_);">
			<path class="st66" d="M232.9,97.4l1.8-1.7c-0.9-0.9-1.9-1.3-2.8-0.8c-0.7,0.3-1.2,1-1.3,1.7c-0.2,0.9-0.3,1.9-0.3,2.8
				c0.1,1.1,0.5,2.1,1.1,3c0.6-0.8,1.8-0.9,3.4-0.4c0.2-1.6,0.3-3.2,0.2-4.9L232.9,97.4z"/>
		</g>
	</g>
	<path class="st64" d="M241.8,97l1.2-1.5c-0.9-0.9-1.9-1.3-2.8-0.8c-0.7,0.3-1.2,1-1.3,1.7c-0.2,0.9-0.3,1.9-0.3,2.8
		c0.1,0.9,0.2,1.7,0.3,2.6c1.6-0.9,3.3,0.2,3.7,0.6c0.6-1.9,0.9-3.8,0.7-5.4L241.8,97z"/>
	<g>
		<defs>
			<ellipse id="SVGID_00000095310037780097717700000009600664180975887761_" cx="241" cy="100.6" rx="1.3" ry="2.4"/>
		</defs>
		<clipPath id="SVGID_00000176010311538070285810000006425212089039073175_">
			<use xlink:href="#SVGID_00000095310037780097717700000009600664180975887761_"  style="overflow:visible;"/>
		</clipPath>
		<g style="clip-path:url(#SVGID_00000176010311538070285810000006425212089039073175_);">
			<path class="st66" d="M241.2,97.3l1.8-1.7c-0.9-0.9-1.9-1.3-2.8-0.8c-0.7,0.3-1.2,1-1.3,1.7c-0.2,0.9-0.3,1.9-0.3,2.8
				c0.1,0.9,0.2,1.7,0.3,2.6c1.6-0.9,3.3,0.2,3.7,0.5c0.6-1.9,0.9-3.8,0.7-5.4L241.2,97.3z"/>
		</g>
	</g>
	<path class="st63" d="M244.1,94.4c-0.5-0.9-1.4-1.5-2.4-1.7"/>
	<path class="st63" d="M229.3,94.6c0.5-0.9,1.4-1.5,2.4-1.7"/>
	<line class="st59" x1="224.2" y1="114.1" x2="233.1" y2="116.1"/>
	<path class="st7" d="M233.8,118.9c0.8,0.5,2.1,0.6,2.7,0.7c0.3,0,0.5,0,0.7-0.2c0.6-0.3,0.6-1-0.1-1.4c1.3,0,1.6-1.4,0.4-1.7
		c1.1,0.1,1.3-1.1,0.3-1.6c-0.1,0-0.2-0.1-0.4-0.1l-1.3-0.2l0.7-1.2c0-0.1,0.1-0.2,0.1-0.3c0.1-0.3-0.1-0.6-0.4-0.8
		c-0.4-0.2-0.9-0.1-1.1,0.3c0,0,0,0.1,0,0.1l-0.3,0.7c0,0-0.3,0.8-1,0.9c-0.4,0.1-0.8,0.3-1.1,0.6l-0.1,0.3c0,0.2-0.2,0.4-0.4,0.5
		l-0.4,0.2l0.3,0.4c0.1,0.2,0.2,0.4,0.1,0.6l-0.1,0.5C232.8,118,233.2,118.6,233.8,118.9z"/>
	<line class="st68" x1="236.5" y1="116.1" x2="237.6" y2="116.3"/>
	<line class="st68" x1="236.2" y1="117.8" x2="237.3" y2="118"/>
	<path class="st7" d="M232.9,115.5c0.1-0.3,0.2-0.6,0.2-0.9c-0.2-0.2-0.5-0.2-0.8,0c0,0-0.4,0.2-0.6,1c-0.2,0.7-0.2,0.9-0.1,1.2
		c0.1,0.3,0.3,0.5,0.6,0.5c0.1,0,0.2,0,0.2,0c0.1-0.3,0.2-0.6,0.2-0.9"/>
	
		<rect x="247.6" y="121.1" transform="matrix(0.9163 -0.4005 0.4005 0.9163 -28.0112 109.4385)" class="st7" width="0.4" height="1.2"/>
	<path class="st7" d="M247.5,121.2c0,0,0.1,0.7,0.4,1l0.6,0.5c0.2,0.2,0.4,0.4,0.5,0.6c0.1,0.3,0.1,0.6,0.1,0.9l0.2,0.3
		c0.1,0.1,0.1,0.2,0.1,0.4l0.1,1.8c0,0.2,0,0.3-0.1,0.5c-0.3,0.8-1.3,0.8-1.5-0.3c0,1.6-1.9,1.7-1.8-0.1c-0.3,0.7-1,0.7-1.3,0.3
		c-0.1-0.1-0.1-0.3-0.1-0.4l0.2-2.1c0-0.2,0-0.3,0-0.5l-0.1-1.4c0-0.2,0-0.4,0-0.6c0-0.2,0.1-0.5,0.2-0.7c0.2-0.3,0.4-0.6,0.6-0.9
		c0.1-0.1,0.2-0.1,0.2-0.1l0.5,0c0.1,0,0.3-0.1,0.3-0.2l0.3-0.5l0.3,0.5c0.1,0.1,0.2,0.2,0.3,0.2l0.9,0c0.1,0,0.1,0,0.2,0
		c0.5,0.2,0.9,0.6,1,1.1c0.1,0.3,0.2,0.6,0.3,1c0.1,0.5,0.1,0.9,0.1,1.4l0,0c0,0.2-0.1,0.4-0.3,0.5c-0.3,0.2-0.6,0-0.8-0.4"/>
	<line class="st68" x1="247.9" y1="127" x2="247.8" y2="124.5"/>
	<path class="st7" d="M246,126.9c0.1-0.6,0.2-1.5,0.3-2.5"/>
	<path class="st7" d="M248.4,124.4c-0.9,0.3-1.8,0.2-2.6-0.2"/>
	<path class="st7" d="M247.5,120.2c0.4,0.1,0.7,0.1,1.1,0l0,0c0.2-0.2,0.1-0.5-0.1-0.7c0,0,0,0-0.1,0c-0.4-0.2-0.8-0.3-1.2-0.3
		c-0.4,0-0.8,0.1-1.2,0.3c-0.1,0.1-0.2,0.3-0.2,0.5c0,0.1,0,0.2,0.1,0.3c0.3,0,0.6,0,0.8-0.1"/>
	<ellipse class="st69" cx="236.9" cy="103.2" rx="0.7" ry="0.2"/>
	<path class="st70" d="M239.1,86.9c0-0.8-0.8-2.1-1.7-2.2c-0.1,0-0.3,0-0.3,0.2c-0.2,0.5-0.5,2.1-0.6,2.8c-0.1,0.9-0.1,4.6-0.1,4.6
		c0.2,0.2,0.6,0.2,0.8,0c0,0,0.3-2.6,0.5-3.2c0.2-0.6,0.7-1.6,1.2-1.8C239,87.2,239.1,87,239.1,86.9z"/>
	<path class="st71" d="M238.9,87c-0.8-0.5-1.3-1.3-1.7-2.2c0-0.1,0-0.1,0.1-0.2c0,0,0,0,0.1,0c0.8,0.1,1.7,1.3,1.7,2.2
		C239.1,87,239,87,238.9,87C238.9,87,238.9,87,238.9,87z"/>
	<path class="st72" d="M237.9,89.3c2.2,1.2,4.7,2,7.2,2.3c0.3,0.1,0.3,0.4,0,0.7c-2.1,2.3-4.8,0.3-7.4-2.7L237.9,89.3z"/>
	<path class="st73" d="M237.9,89.4c1.9,2.2,5,3.2,7.4,2.7c-0.9,1.2-2.1,1.5-3.8,0.8c-1-0.5-2.4-1.9-3.7-3.3L237.9,89.4z"/>
	<path class="st74" d="M237.3,89.2l0.3-0.3c2.2,2.7,4.9,3.6,7.7,3.2l0,0.1C242.2,92.7,239.4,91.5,237.3,89.2z"/>
	<path class="st72" d="M236.5,86.9c-2.2,1.2-4.7,2-7.2,2.3c-0.3,0.1-0.3,0.4,0,0.7c2.1,2.3,4.8,0.3,7.4-2.7L236.5,86.9z"/>
	<path class="st73" d="M236.5,87c-1.9,2.2-5,3.2-7.4,2.7c0.9,1.2,2.1,1.5,3.8,0.8c1.1-0.5,2.5-1.9,3.7-3.3L236.5,87z"/>
	<path class="st74" d="M237,86.8l-0.3-0.3c-2.2,2.7-4.9,3.6-7.7,3.2l0,0C232.2,90.3,234.9,89.1,237,86.8z"/>
	<path class="st4" d="M273.7,135.5c-1.2-1.2-3.3-1.1-4.3,0c-0.1-0.7,0.2-1.3,0.8-1.8h2.6C273.3,134.1,273.6,134.8,273.7,135.5z"/>
	<path class="st5" d="M271.5,133.7h1.2c0.3-0.1,0.5-0.4,0.5-0.8c0-0.4-0.5-0.6-1.2-0.7h-1.5c-0.5,0.1-0.9,0.3-1,0.8
		c0,0.3,0.2,0.6,0.5,0.8h0.6"/>
	<path class="st6" d="M274.3,136.8c0.2,0.1,0.3,0.3,0.4,0.5c0,0.4-0.6,1.2-3,1.2s-3.1-0.8-3.1-1.1c0-0.2,0.1-0.4,0.3-0.5"/>
	<path class="st7" d="M274.2,136.5c-0.4-2.3-4.6-2.6-5.4,0c-0.1,0.2,0,0.5,0.2,0.6c0.8,0.8,4.5,0.8,5,0.1
		C274.2,137,274.3,136.7,274.2,136.5z"/>
	<path class="st4" d="M267.5,135.5c-1.2-1.2-3.3-1.1-4.3,0c-0.1-0.7,0.2-1.3,0.8-1.8h2.6C267,134.2,267.4,134.8,267.5,135.5z"/>
	<path class="st5" d="M265.3,133.7h1.2c0.3-0.1,0.5-0.4,0.5-0.8c0-0.4-0.5-0.6-1.2-0.7h-1.5c-0.5,0.1-0.9,0.3-1,0.7
		c0,0.3,0.2,0.6,0.5,0.8h0.6"/>
	<path class="st6" d="M268,136.8c0.2,0.1,0.3,0.3,0.4,0.5c0,0.4-0.6,1.2-3,1.2s-3.1-0.8-3.1-1.1c0-0.2,0.1-0.4,0.3-0.5"/>
	<path class="st7" d="M268,136.5c-0.4-2.3-4.6-2.6-5.4,0c-0.1,0.2,0,0.5,0.2,0.6c0.8,0.8,4.5,0.8,5,0.1
		C268,137.1,268.1,136.8,268,136.5z"/>
	<path class="st75" d="M279,114.1l2.7,5.3c0.4,0.7,0.1,1.6-0.6,1.9c-0.1,0.1-0.2,0.1-0.4,0.1l-5.2,1"/>
	<path class="st76" d="M271.3,133.1h0.2c0.6,0,1-0.4,1-1c0,0,0,0,0,0v-11.5h-2.2v11.5C270.3,132.6,270.7,133.1,271.3,133.1
		L271.3,133.1z"/>
	<path class="st76" d="M265.1,133.1h0.2c0.6,0,1-0.4,1-1c0,0,0,0,0,0v-11.5h-2.2v11.5C264.1,132.7,264.6,133.1,265.1,133.1
		L265.1,133.1z"/>
	<path class="st75" d="M257.7,114.3l-2.7,5.3c-0.4,0.7-0.1,1.6,0.6,1.9c0.1,0.1,0.3,0.1,0.4,0.1l5.2,1"/>
	<ellipse class="st77" cx="268.3" cy="114.7" rx="12.5" ry="9.4"/>
	<line class="st78" x1="280.2" y1="121.4" x2="274.1" y2="122.5"/>
	<path class="st79" d="M272.7,108.4c0,0,2.9-2.8,1.7-4.4s-4,1.5-4,1.5s-0.9-3.3-2.2-3.4c-1.3-0.1-2,3.3-2,3.3s-1.7-2.2-3.3-2.3
		c-2.3,0.3,0.1,4.5,0.1,4.5L272.7,108.4z"/>
	<ellipse class="st80" cx="268.2" cy="107.6" rx="5.1" ry="2.4"/>
	<ellipse class="st79" cx="268.2" cy="107.2" rx="2.5" ry="1.2"/>
	<path class="st76" d="M268.2,109.9c1.6-0.6,2.2-2.8,2.6-3.4c0.4-0.6,2.7-0.9,2.6,1.3C273,111.3,268.2,109.9,268.2,109.9z"/>
	<path class="st76" d="M268.2,109.9c-1.6-0.6-2.2-2.8-2.6-3.4c-0.4-0.6-2.7-0.9-2.6,1.3C263.4,111.3,268.2,109.9,268.2,109.9z"/>
	<ellipse class="st81" cx="268.2" cy="117" rx="1.3" ry="0.7"/>
	<ellipse class="st82" cx="273.1" cy="117.1" rx="0.4" ry="0.3"/>
	<ellipse class="st82" cx="272.4" cy="118.5" rx="0.4" ry="0.3"/>
	<ellipse class="st82" cx="271.5" cy="117.2" rx="0.4" ry="0.3"/>
	<ellipse class="st82" cx="263.5" cy="117.1" rx="0.4" ry="0.3"/>
	<ellipse class="st82" cx="264.2" cy="118.5" rx="0.4" ry="0.3"/>
	<ellipse class="st82" cx="265.1" cy="117.2" rx="0.4" ry="0.3"/>
	<path class="st83" d="M270.5,117.8c-1.5,1.9-3,2-4.5,0"/>
	<path class="st83" d="M269.2,119.9c-0.6,0.6-1.3,0.6-1.9,0"/>
	<ellipse class="st84" cx="268.2" cy="116.6" rx="0.5" ry="0.2"/>
	<path class="st7" d="M274.6,124.8c-0.7,0.3-1.4,0.5-2.2,0.5c-0.2,0-0.4,0-0.6-0.1c-0.5-0.3-0.5-0.8,0.1-1.1c-1.1,0-1.3-1.1-0.3-1.4
		c-0.9,0.1-1.1-0.9-0.3-1.3c0.1,0,0.2-0.1,0.3-0.1l1-0.2l-0.6-1c0-0.1-0.1-0.2-0.1-0.2c-0.1-0.3,0.1-0.5,0.3-0.7
		c0.3-0.2,0.8-0.1,0.9,0.3c0,0,0,0,0,0.1l0.2,0.6c0,0,0.2,0.7,0.8,0.8c0.4,0.1,0.7,0.2,0.9,0.5l0.1,0.3c0,0.2,0.2,0.3,0.3,0.4
		l0.4,0.2l-0.2,0.3c-0.1,0.1-0.1,0.3-0.1,0.5l0.1,0.4C275.5,124.1,275.1,124.6,274.6,124.8z"/>
	<line class="st68" x1="272.4" y1="122.6" x2="271.4" y2="122.7"/>
	<line class="st68" x1="272.6" y1="124" x2="271.7" y2="124.1"/>
	<path class="st7" d="M275.4,122.1c-0.1-0.2-0.1-0.5-0.2-0.7c0.2-0.2,0.4-0.2,0.6,0c0,0,0.3,0.1,0.5,0.8c0.1,0.6,0.1,0.8,0.1,1
		c-0.1,0.2-0.3,0.4-0.5,0.4c-0.1,0-0.1,0-0.2,0c-0.1-0.2-0.1-0.5-0.2-0.7"/>
	<line class="st78" x1="256.5" y1="121.6" x2="262.6" y2="122.7"/>
	<path class="st7" d="M262.1,125c0.7,0.3,1.4,0.5,2.2,0.5c0.2,0,0.4,0,0.6-0.1c0.5-0.3,0.5-0.8-0.1-1.1c1.1,0,1.3-1.1,0.3-1.4
		c0.9,0.1,1.1-0.9,0.3-1.3c-0.1,0-0.2-0.1-0.3-0.1l-1-0.2l0.6-1c0-0.1,0.1-0.2,0.1-0.2c0.1-0.3-0.1-0.5-0.3-0.7
		c-0.3-0.2-0.8-0.1-0.9,0.3c0,0,0,0,0,0.1l-0.2,0.6c0,0-0.2,0.7-0.8,0.7c-0.4,0.1-0.7,0.2-0.9,0.5l-0.1,0.3c0,0.2-0.2,0.3-0.3,0.4
		l-0.4,0.2l0.2,0.3c0.1,0.1,0.1,0.3,0.1,0.5l-0.1,0.4C261.2,124.3,261.6,124.8,262.1,125z"/>
	<line class="st68" x1="264.3" y1="122.8" x2="265.3" y2="122.9"/>
	<line class="st68" x1="264.1" y1="124.2" x2="265" y2="124.3"/>
	<path class="st7" d="M261.3,122.3c0.1-0.2,0.1-0.5,0.2-0.7c-0.2-0.2-0.4-0.2-0.6,0c0,0-0.3,0.1-0.5,0.8c-0.1,0.6-0.1,0.8-0.1,1
		c0.1,0.2,0.3,0.4,0.5,0.4c0.1,0,0.1,0,0.2,0c0.1-0.2,0.1-0.5,0.2-0.7"/>
	<path class="st85" d="M266,108.7c-0.5-0.5-1.3-0.7-2-0.5"/>
	<path class="st86" d="M266.5,116.1c-0.9-0.7-1.8-0.7-2.8,0c-0.8-2-0.9-4.5-0.3-5.6c0.5-1,1.9-1.2,2.7,0.1
		C266.8,112.2,266.8,114.1,266.5,116.1z"/>
	<path class="st87" d="M263.4,111.7l1.5,0l-0.7-1.9c-1.5,0.3-1.7,3.6-0.5,6.3c0.4-0.3,0.9-0.5,1.4-0.5v-2.3L263.4,111.7z"/>
	<path class="st85" d="M272.7,108.8c-0.5-0.5-1.3-0.7-2-0.5"/>
	<path class="st86" d="M273,116.1c-0.9-0.7-1.8-0.7-2.8,0c-0.8-2-0.9-4.5-0.3-5.6c0.5-1,1.9-1.2,2.7,0.1
		C273.4,112.2,273.3,114.1,273,116.1z"/>
	<path class="st87" d="M269.9,111.7l1.5,0l-0.7-1.9c-1.5,0.3-1.7,3.6-0.5,6.3c0.4-0.3,0.9-0.5,1.4-0.5v-2.3L269.9,111.7z"/>
	<g id="LENTES-4">
		<ellipse class="st88" cx="264.3" cy="112.8" rx="3.9" ry="3.7"/>
		<ellipse class="st88" cx="272" cy="112.7" rx="3.9" ry="3.7"/>
		<polygon class="st89" points="275.4,111 276,111.9 281.4,108.4 280.3,106.9 		"/>
		<polygon class="st89" points="261,111.1 260.3,112 255,108.5 256.1,107 		"/>
	</g>
	<ellipse class="st90" cx="264.3" cy="112.7" rx="3.9" ry="3.7"/>
	<ellipse class="st90" cx="272" cy="112.6" rx="3.9" ry="3.7"/>
	<line class="st91" x1="208.3" y1="103.1" x2="215.5" y2="120.4"/>
	<line class="st91" x1="181.1" y1="102.9" x2="181.1" y2="121.7"/>
	<path class="st4" d="M187,133.9c1.8-1.9,4.9-1.8,6.4,0c0.1-1-0.3-2-1.1-2.9h-3.9C187.7,131.8,187.2,132.8,187,133.9z"/>
	<path class="st5" d="M190.2,131h-1.8c-0.6-0.3-0.8-0.6-0.8-1.2s0.8-1,1.7-1.2h2.2c0.8,0.2,1.4,0.5,1.5,1.2c0,0.6-0.3,0.9-0.8,1.2
		h-0.8"/>
	<path class="st6" d="M186.2,136c-0.3,0.2-0.5,0.5-0.5,0.8c0,0.6,0.9,2,4.4,2s4.6-1.3,4.6-1.8c0-0.3-0.2-0.6-0.5-0.8"/>
	<path class="st7" d="M186.2,135.5c0.7-3.7,6.9-4.2,8,0c0.1,0.4,0,0.8-0.3,1c-1.2,1.3-6.7,1.3-7.4,0.1
		C186.2,136.4,186.1,135.9,186.2,135.5z"/>
	<path class="st4" d="M196.3,134c1.8-1.9,4.9-1.8,6.4,0c0.1-1.1-0.3-2-1.1-2.9h-3.9C196.9,131.9,196.4,132.9,196.3,134z"/>
	<path class="st5" d="M199.5,131h-1.8c-0.6-0.3-0.8-0.6-0.8-1.2s0.8-1,1.7-1.2h2.2c0.8,0.2,1.4,0.5,1.5,1.2c0,0.6-0.3,0.9-0.8,1.2
		h-0.8"/>
	<path class="st6" d="M195.4,136.1c-0.3,0.2-0.5,0.5-0.5,0.8c0,0.6,0.9,2,4.4,2s4.6-1.3,4.6-1.8c0-0.3-0.2-0.6-0.5-0.8"/>
	<path class="st7" d="M195.5,135.6c0.7-3.7,6.9-4.2,8,0c0.1,0.4,0,0.8-0.3,1c-1.2,1.3-6.7,1.3-7.4,0.1
		C195.5,136.4,195.4,136,195.5,135.6z"/>
	<path class="st92" d="M188.7,114.9h3.3l0,0v13.7c0,0.9-0.7,1.5-1.5,1.5h-0.2c-0.9,0-1.5-0.7-1.5-1.5L188.7,114.9L188.7,114.9z"/>
	<path class="st92" d="M197.9,114.9h3.3l0,0v13.7c0,0.9-0.7,1.5-1.5,1.5h-0.2c-0.9,0-1.5-0.7-1.5-1.5L197.9,114.9L197.9,114.9z"/>
	
		<linearGradient id="SVGID_00000092443479943037982960000010035568492962328485_" gradientUnits="userSpaceOnUse" x1="194.8918" y1="29.4007" x2="194.8918" y2="63.2561" gradientTransform="matrix(1 0 0 -1 0 150)">
		<stop  offset="0.11" style="stop-color:#F2E7DF"/>
		<stop  offset="0.51" style="stop-color:#EFC6AC"/>
	</linearGradient>
	
		<ellipse style="fill:url(#SVGID_00000092443479943037982960000010035568492962328485_);" cx="194.9" cy="103.7" rx="15.5" ry="16.9"/>
	<path class="st94" d="M179.8,103.7c7.1-15.2,22.8-16,29.8,0.1"/>
	<path id="picos" class="st95" d="M179,103.8l-0.3,0.5c-0.2,0.3-0.2,0.7,0.1,1l0.6,0.8c0.2,0.2,0.2,0.5,0.2,0.7l-0.4,1.8
		c-0.1,0.3,0,0.6,0.3,0.8l1,0.9c0.2,0.2,0.3,0.4,0.3,0.7v1.1c0,0.3,0.2,0.6,0.4,0.7l1.1,0.7c0.2,0.2,0.4,0.4,0.4,0.7v1
		c0,0.5,0.4,0.9,0.9,0.9c0,0,0,0,0,0h0.6c0.4,0,0.7,0.2,0.8,0.6l0.4,1.1c0.1,0.3,0.5,0.6,0.8,0.6h1.2c0.3,0,0.6,0.2,0.7,0.4l0.6,0.9
		c0.2,0.3,0.6,0.5,1,0.4l0.8-0.2c0.3-0.1,0.6,0,0.8,0.2l0.7,0.7c0.3,0.3,0.8,0.3,1.1,0l0,0c0.3-0.3,0.8-0.3,1.1,0l0.7,0.6
		c0.3,0.3,0.8,0.2,1.1,0l0.7-0.6c0.2-0.2,0.6-0.3,0.9-0.2l0.9,0.3c0.4,0.2,0.9-0.1,1.1-0.5l0.1-0.3c0.1-0.4,0.5-0.6,0.9-0.6l1.1,0.1
		c0.4,0,0.8-0.2,0.9-0.6l0.1-0.4c0.1-0.4,0.4-0.6,0.8-0.6h0.9c0.4,0,0.8-0.3,0.8-0.7l0.2-0.9c0.1-0.4,0.4-0.7,0.8-0.7l0.9-0.1
		c0.5,0,0.8-0.5,0.8-0.9c0,0,0,0,0-0.1l-0.2-0.9c-0.1-0.4,0.1-0.7,0.4-0.9l0.9-0.5c0.3-0.2,0.5-0.5,0.4-0.9l-0.1-0.9
		c-0.1-0.4,0.1-0.7,0.5-0.9l0.1,0c0.4-0.2,0.6-0.6,0.5-1l-0.3-0.9c-0.1-0.3,0-0.7,0.3-0.9l0.5-0.4c0.3-0.2,0.4-0.7,0.3-1l-0.5-1.2
		c-0.2-0.4-0.6-0.4-1-0.5c-9.5-3.9-19.4-3.5-29.7,0C179.6,103.6,179.2,103.5,179,103.8z"/>
	<path id="picos-2" class="st95" d="M179.1,103.1l-0.3-0.5c-0.2-0.3-0.2-0.7,0.1-1l0.6-0.8c0.2-0.2,0.2-0.5,0.2-0.7l-0.4-1.8
		c-0.1-0.3,0-0.6,0.3-0.8l1-0.9c0.2-0.2,0.3-0.4,0.3-0.7v-1.1c0-0.3,0.1-0.6,0.4-0.7l1.1-0.7c0.2-0.2,0.4-0.4,0.4-0.7v-1
		c0-0.5,0.4-0.9,0.9-0.9h0.6c0.4,0,0.7-0.2,0.8-0.6l0.4-1.1c0.1-0.3,0.4-0.6,0.8-0.6h1.2c0.3,0,0.6-0.2,0.7-0.4l0.6-0.9
		c0.2-0.3,0.6-0.5,1-0.4l0.8,0.2c0.3,0.1,0.6,0,0.8-0.2l0.7-0.7c0.3-0.3,0.8-0.3,1.2,0l0,0c0.3,0.3,0.8,0.3,1.1,0l0.7-0.6
		c0.3-0.3,0.8-0.2,1.1,0l0.7,0.6c0.2,0.2,0.6,0.3,0.9,0.2l0.9-0.3c0.4-0.2,0.9,0.1,1.1,0.5l0.1,0.3c0.1,0.4,0.5,0.6,0.9,0.6l1.1-0.1
		c0.4,0,0.8,0.2,0.9,0.6l0.1,0.4c0.1,0.4,0.4,0.6,0.8,0.6h0.9c0.4,0,0.8,0.3,0.8,0.7l0.2,0.9c0.1,0.4,0.4,0.7,0.8,0.7l0.9,0.1
		c0.5,0,0.8,0.5,0.8,0.9c0,0,0,0,0,0.1l-0.2,0.9c-0.1,0.4,0.1,0.7,0.4,0.9l0.9,0.5c0.3,0.2,0.5,0.5,0.4,0.9l-0.1,0.9
		c-0.1,0.4,0.1,0.7,0.5,0.9l0.1,0c0.4,0.2,0.6,0.6,0.5,1l-0.3,0.9c-0.1,0.3,0,0.7,0.3,0.9l0.5,0.4c0.3,0.2,0.4,0.7,0.3,1l-0.5,1.2
		c-0.2,0.4-0.6,0.6-1,0.5c-6-16.1-23-15.9-29.7,0C179.6,103.6,179.3,103.5,179.1,103.1z"/>
	<path class="st96" d="M194.4,85.7l-0.7-0.5c0,0,0.3-1.5-0.3-2.5c-0.6-1-2.7-1.3-3.2-1.7s-1.1-1.4-1.4-1.7c-1,1.2-0.8,2.2-0.5,3.7
		c0.1,0.8,0.6,1.5,1.3,1.9c0.8,0.6,3.6,0.6,3.6,0.6l0.7,0.6L194.4,85.7z"/>
	<path class="st97" d="M198.9,81.7c0.2-1-1.2-2.9-2.6-2.8c0,0-1.2,1.9-1.9,2.8c-0.7,0.9-0.2,5.2-0.2,5.2c0.3,0.3,0.8,0.3,1.1,0
		c0,0,0.3-3,0.7-3.7S198.9,81.7,198.9,81.7z"/>
	<path class="st98" d="M198.9,81.7c-1.2-0.6-2.1-1.6-2.6-2.8C197.5,78.8,199,80.5,198.9,81.7z"/>
	<path class="st99" d="M181.2,104.4l-0.2,1.3c0,0.1,0.1,0.2,0.2,0.2c0,0,0,0,0,0l1.4,0.1c0.1,0,0.2-0.1,0.2-0.2c0-0.1,0-0.1,0-0.2
		l-1.1-1.4c-0.1-0.1-0.2-0.1-0.3,0C181.2,104.3,181.2,104.4,181.2,104.4z"/>
	<path class="st99" d="M181.3,108l-0.2,1.3c0,0.1,0.1,0.2,0.2,0.3c0,0,0,0,0,0l1.4,0.1c0.1,0,0.2-0.1,0.2-0.2c0-0.1,0-0.1,0-0.2
		l-1.1-1.4c-0.1-0.1-0.2-0.1-0.3,0C181.3,107.9,181.3,107.9,181.3,108z"/>
	<path class="st99" d="M184.5,109.1l-0.2,1.3c0,0.1,0.1,0.2,0.2,0.3c0,0,0,0,0,0l1.4,0.1c0.1,0,0.2-0.1,0.2-0.2c0-0.1,0-0.1,0-0.2
		l-1.2-1.4c-0.1-0.1-0.2-0.1-0.3,0C184.5,109,184.5,109.1,184.5,109.1z"/>
	<path class="st99" d="M184.2,112.8l0.3,1.3c0,0.1,0.1,0.2,0.3,0.2c0,0,0,0,0,0l1.3-0.5c0.1,0,0.2-0.2,0.1-0.3
		c0-0.1-0.1-0.1-0.1-0.1l-1.6-0.8c-0.1,0-0.2,0-0.3,0.1C184.2,112.7,184.2,112.8,184.2,112.8z"/>
	<path class="st99" d="M187.6,112.1l0.3,1.3c0,0.1,0.1,0.2,0.3,0.2c0,0,0,0,0,0l1.3-0.5c0.1,0,0.2-0.2,0.1-0.3
		c0-0.1-0.1-0.1-0.1-0.1l-1.6-0.8c-0.1,0-0.2,0-0.3,0.1C187.6,112,187.6,112,187.6,112.1z"/>
	<path class="st99" d="M187.9,115.7l0.5,1.2c0,0.1,0.2,0.2,0.3,0.1c0,0,0,0,0,0l1.2-0.7c0.1-0.1,0.1-0.2,0.1-0.3
		c0-0.1-0.1-0.1-0.1-0.1l-1.8-0.5c-0.1,0-0.2,0-0.3,0.1C187.9,115.6,187.9,115.6,187.9,115.7z"/>
	<path class="st99" d="M191.9,113.2l0.3,1.3c0,0.1,0.1,0.2,0.3,0.2c0,0,0,0,0,0l1.3-0.5c0.1,0,0.2-0.2,0.1-0.3
		c0-0.1-0.1-0.1-0.1-0.1l-1.6-0.8c-0.1,0-0.2,0-0.3,0.1C191.9,113.1,191.9,113.2,191.9,113.2z"/>
	<path class="st99" d="M192.3,117l0.8,1c0.1,0.1,0.2,0.1,0.3,0c0,0,0,0,0,0l1-1c0.1-0.1,0.1-0.2,0-0.3c0,0-0.1-0.1-0.1-0.1l-1.9-0.1
		c-0.1,0-0.2,0.1-0.2,0.2C192.3,116.9,192.3,116.9,192.3,117z"/>
	<path class="st99" d="M196,115.2l0.8,1c0.1,0.1,0.2,0.1,0.3,0c0,0,0,0,0,0l1-1c0.1-0.1,0.1-0.2,0-0.3c0,0-0.1-0.1-0.1-0.1l-1.9-0.1
		c-0.1,0-0.2,0.1-0.2,0.2C196,115.1,196,115.1,196,115.2z"/>
	<path class="st99" d="M199.1,116.8l1,0.8c0.1,0.1,0.2,0.1,0.3,0c0,0,0,0,0,0l0.8-1.2c0.1-0.1,0-0.2-0.1-0.3c0,0-0.1,0-0.2,0
		l-1.8,0.4c-0.1,0-0.2,0.1-0.2,0.3C199,116.7,199,116.8,199.1,116.8z"/>
	<path class="st99" d="M201.1,114l1.3,0.1c0.1,0,0.2-0.1,0.2-0.2c0,0,0,0,0,0l0-1.4c0-0.1-0.1-0.2-0.2-0.2c-0.1,0-0.1,0-0.1,0.1
		l-1.4,1.3c-0.1,0.1-0.1,0.2,0,0.3C201,114,201,114,201.1,114z"/>
	<path class="st99" d="M204.3,113.8h1.3c0.1,0,0.2-0.1,0.2-0.2c0,0,0,0,0,0l-0.1-1.4c0-0.1-0.1-0.2-0.2-0.2c-0.1,0-0.1,0-0.1,0.1
		l-1.2,1.4c-0.1,0.1-0.1,0.2,0,0.3C204.2,113.8,204.3,113.8,204.3,113.8z"/>
	<path class="st99" d="M208.1,104.5l0.2,1.3c0,0.1-0.1,0.2-0.2,0.3c0,0,0,0,0,0l-1.4,0.1c-0.1,0-0.2-0.1-0.2-0.2c0-0.1,0-0.1,0-0.2
		l1.1-1.4c0.1-0.1,0.2-0.1,0.3,0C208.1,104.4,208.1,104.4,208.1,104.5z"/>
	<path class="st99" d="M208,108l0.2,1.3c0,0.1-0.1,0.2-0.2,0.3c0,0,0,0,0,0l-1.4,0.1c-0.1,0-0.2-0.1-0.2-0.2c0-0.1,0-0.1,0-0.2
		l1.1-1.4c0.1-0.1,0.2-0.1,0.3,0C208,107.9,208,108,208,108z"/>
	<path class="st99" d="M204.8,109.2l0.2,1.3c0,0.1-0.1,0.2-0.2,0.3c0,0,0,0,0,0l-1.4,0.1c-0.1,0-0.2-0.1-0.2-0.2c0-0.1,0-0.1,0-0.2
		l1.1-1.4c0.1-0.1,0.2-0.1,0.3,0C204.8,109.1,204.8,109.1,204.8,109.2z"/>
	<path class="st99" d="M180,101.7l-0.2-1.3c0-0.1,0.1-0.2,0.2-0.3c0,0,0,0,0,0l1.4-0.1c0.1,0,0.2,0.1,0.2,0.2c0,0.1,0,0.1,0,0.2
		l-1.1,1.4c-0.1,0.1-0.2,0.1-0.3,0C180.1,101.8,180,101.8,180,101.7z"/>
	<path class="st99" d="M181.7,98.4l-0.2-1.3c0-0.1,0.1-0.2,0.2-0.3c0,0,0,0,0,0l1.4-0.1c0.1,0,0.2,0.1,0.2,0.2c0,0.1,0,0.1,0,0.2
		l-1.1,1.4c-0.1,0.1-0.2,0.1-0.3,0C181.8,98.5,181.8,98.4,181.7,98.4z"/>
	<path class="st99" d="M184.7,93.6l0.3-1.3c0-0.1,0.1-0.2,0.3-0.2c0,0,0,0,0,0l1.3,0.5c0.1,0,0.2,0.2,0.1,0.3c0,0.1-0.1,0.1-0.1,0.1
		l-1.6,0.8c-0.1,0-0.2,0-0.3-0.1C184.7,93.6,184.7,93.6,184.7,93.6z"/>
	<path class="st99" d="M188.4,90.7l0.5-1.2c0-0.1,0.2-0.2,0.3-0.1c0,0,0,0,0,0l1.2,0.7c0.1,0.1,0.1,0.2,0.1,0.3
		c0,0.1-0.1,0.1-0.1,0.1l-1.8,0.5c-0.1,0-0.2,0-0.3-0.1C188.4,90.8,188.4,90.7,188.4,90.7z"/>
	<path class="st99" d="M192.8,89.4l0.8-1c0.1-0.1,0.2-0.1,0.3,0c0,0,0,0,0,0l1,1c0.1,0.1,0.1,0.2,0,0.3c0,0.1-0.1,0.1-0.2,0.1
		l-1.9,0.1c-0.1,0-0.2-0.1-0.2-0.2C192.7,89.5,192.8,89.4,192.8,89.4z"/>
	<path class="st99" d="M196.5,91.2l0.8-1c0.1-0.1,0.2-0.1,0.3,0c0,0,0,0,0,0l1,1c0.1,0.1,0.1,0.2,0,0.3c0,0-0.1,0.1-0.1,0.1
		l-1.9,0.1c-0.1,0-0.2-0.1-0.2-0.2C196.5,91.3,196.5,91.2,196.5,91.2z"/>
	<path class="st99" d="M199.5,89.6l1-0.8c0.1-0.1,0.2,0,0.3,0c0,0,0,0,0,0l0.8,1.2c0.1,0.1,0,0.2-0.1,0.3c0,0-0.1,0-0.2,0l-1.8-0.4
		c-0.1,0-0.2-0.1-0.2-0.3C199.5,89.6,199.5,89.6,199.5,89.6z"/>
	<path class="st99" d="M201.5,92.4l1.3-0.1c0.1,0,0.2,0.1,0.2,0.2c0,0,0,0,0,0l0,1.4c0,0.1-0.1,0.2-0.2,0.2c-0.1,0-0.1,0-0.1-0.1
		l-1.4-1.3c-0.1-0.1-0.1-0.2,0-0.3C201.4,92.4,201.5,92.4,201.5,92.4z"/>
	<path class="st99" d="M204.8,92.6h1.3c0.1,0,0.2,0.1,0.2,0.2c0,0,0,0,0,0l-0.1,1.4c0,0.1-0.1,0.2-0.2,0.2c-0.1,0-0.1,0-0.1-0.1
		l-1.2-1.4c-0.1-0.1-0.1-0.2,0-0.3C204.7,92.6,204.7,92.6,204.8,92.6z"/>
	<path class="st99" d="M210.4,102.5l0.2-1.3c0-0.1-0.1-0.2-0.2-0.3c0,0,0,0,0,0l-1.4-0.1c-0.1,0-0.2,0.1-0.2,0.2c0,0.1,0,0.1,0,0.2
		l1.1,1.4c0.1,0.1,0.2,0.1,0.3,0C210.4,102.6,210.4,102.5,210.4,102.5z"/>
	<path class="st99" d="M208.5,98.3l0.2-1.3c0-0.1-0.1-0.2-0.2-0.3c0,0,0,0,0,0l-1.4-0.1c-0.1,0-0.2,0.1-0.2,0.2c0,0.1,0,0.1,0,0.2
		l1.1,1.4c0.1,0.1,0.2,0.1,0.3,0C208.5,98.4,208.5,98.4,208.5,98.3z"/>
	<path class="st100" d="M187.2,100.7c1.7-1.1,3.9-1.3,5.7-0.5c0.2-2.1,0.5-3.5,0-5.6c-0.7-2.5-4.4-2.2-5.3,0.5l2.4,1.7l-2.9,0.1
		C186.9,98.2,186.9,99.5,187.2,100.7z"/>
	<path class="st100" d="M196.7,96.8l0.6,3.4c2.5-1,3.6-0.7,5.5,0.5c0.1-1.8,0.3-3-0.3-5.3c-0.8-3.2-5-3.7-5.5-0.3l2.5,1.4
		L196.7,96.8z"/>
	<path class="st101" d="M193.6,99.3c1.9-1.6,3.5-0.4,1.5,1.4"/>
	<path class="st102" d="M189.6,101.7c-1.9-0.5-2.9,1.9-2,2.9c4.4,4.6,10.5,5,14.8,0c0.6-0.9,0.4-2-0.5-2.6c-0.4-0.3-0.9-0.4-1.4-0.3
		C196.9,103.4,193.3,103.4,189.6,101.7z"/>
	<path class="st101" d="M189.6,101.7c-1.9-0.5-2.9,1.9-2,2.9c4.4,4.6,10.5,5,14.8,0c0.6-0.9,0.4-2-0.5-2.6c-0.4-0.3-0.9-0.4-1.4-0.3
		C196.9,103.4,193.3,103.4,189.6,101.7z"/>
	<path class="st103" d="M188,92.1c0.9-0.9,1.9-1.2,2.8-0.9"/>
	<path class="st103" d="M199.1,91.2c1.5-0.4,2.5,0,2.8,1.2"/>
	<path class="st104" d="M192.8,109.5c1.4,0.8,2.9,0.9,4.2,0"/>
	<line class="st101" x1="190.1" y1="101.9" x2="188.7" y2="105.6"/>
	<line class="st101" x1="192.5" y1="102.7" x2="191.5" y2="107.3"/>
	<line class="st101" x1="194.9" y1="103" x2="194.9" y2="108.1"/>
	<line class="st101" x1="197.8" y1="102.7" x2="198.9" y2="107.3"/>
	<line class="st101" x1="200.1" y1="101.9" x2="201.8" y2="105.3"/>
	<path class="st7" d="M217.2,119.2c-0.1-0.5-0.3-0.9-0.8-1c0,0-0.6-0.1-1.6,0.6c-0.5,0.4-0.9,0.9-1.1,1.4c-0.1,0.3,0,0.7,0.2,0.9
		c0.1,0.1,0.3,0.2,0.4,0.2L217.2,119.2z"/>
	<path class="st7" d="M214.9,120.1c-0.2,0.2-0.3,0.4-0.3,0.6l-0.2,1.2c-0.3,1-0.8,1.9-1.5,2.7c-0.2,0.2-0.2,0.6,0,0.9
		c0.1,0.2,0.4,0.2,0.6,0.1c1-0.2,1.8-0.9,2.3-1.7c1,0.8,2.1,1.5,3.4,1.9c0.2,0.1,0.3,0.1,0.5,0.2c0.4,0.1,0.8,0.2,1.2,0.3
		c0.4,0.1,0.9,0,1.3-0.1c0.7-0.4,0.5-1-0.8-1.6l1.3-0.2c0.5-0.1,0.9-0.3,1.2-0.6c0.9-0.8,0.4-1.5-0.9-1.7c0.5-0.5,0.7-0.9,0.3-1.2
		c-0.1-0.1-0.3-0.2-0.5-0.2h-1.2c-0.3,0-0.6-0.1-0.9-0.2c-0.9-0.4-1.9-0.7-2.8-1c-0.5-0.1-1-0.1-1.5-0.1c-0.2,0-0.4,0.1-0.6,0.2"/>
	<path class="st7" d="M219.7,121.6c1.1,0.5,2.2,0.8,3.2,0.3"/>
	<path class="st7" d="M218.5,123.1c0.8,0.7,1.7,1.1,2.7,1.2"/>
	
		<rect x="179.8" y="122.8" transform="matrix(0.3686 -0.9296 0.9296 0.3686 -0.4084 245.5918)" class="st7" width="1.5" height="0.5"/>
	<path class="st7" d="M181,122.4c0,0,0,0.9-0.5,1.3l-0.7,0.6c-0.3,0.2-0.5,0.5-0.5,0.8c-0.1,0.4-0.1,0.8-0.1,1.2l-0.2,0.4
		c-0.1,0.2-0.1,0.3-0.1,0.5l-0.1,2.2c0,0.2,0,0.4,0.1,0.6c0.4,1,1.7,1,1.9-0.4c0,2,2.5,2.1,2.3-0.2c0.4,0.8,1.3,0.8,1.6,0.3
		c0.1-0.2,0.1-0.4,0.1-0.6l-0.3-2.6c0-0.2,0-0.4,0-0.6V124c0-0.3,0-0.5-0.1-0.8c-0.1-0.3-0.2-0.6-0.3-0.8c-0.2-0.4-0.5-0.7-0.8-1.1
		c-0.1-0.1-0.2-0.1-0.3-0.1l-0.7,0c-0.2,0-0.3-0.1-0.4-0.2l-0.4-0.6L181,121c-0.1,0.1-0.2,0.2-0.3,0.2l-1.1,0.1
		c-0.1,0-0.2,0-0.3,0.1c-0.6,0.3-1.1,0.8-1.2,1.5c-0.1,0.4-0.2,0.8-0.3,1.2c-0.1,0.6-0.1,1.2,0,1.8l0,0c0,0.3,0.2,0.5,0.4,0.7
		c0.4,0.2,0.7,0,1-0.6"/>
	<line class="st68" x1="180.7" y1="129.7" x2="180.7" y2="126.7"/>
	<path class="st7" d="M183.1,129.5c-0.2-0.8-0.3-1.9-0.5-3.1"/>
	<path class="st7" d="M180,126.5c1.1,0.3,2.3,0.2,3.3-0.4"/>
	<path class="st7" d="M180.9,121.2c-0.4,0.1-0.9,0.1-1.3,0l0,0c-0.2-0.3-0.2-0.7,0.1-0.9c0,0,0.1,0,0.1-0.1c0.5-0.3,1-0.4,1.6-0.4
		c0.5-0.1,1.1,0.1,1.5,0.4c0.2,0.1,0.3,0.4,0.3,0.6c0,0.1,0,0.2-0.1,0.4c-0.4,0.1-0.7,0-1.1-0.1"/>
	<path class="st7" d="M126.7,119.9c-0.1-0.5,0-1,0.5-1.2c0,0,0.6-0.3,1.7,0.2c0.6,0.2,1.1,0.6,1.5,1.2c0.2,0.3,0.2,0.7,0,0.9
		c-0.1,0.1-0.2,0.2-0.4,0.3L126.7,119.9z"/>
	<path class="st7" d="M129.3,120.2c0.2,0.1,0.4,0.3,0.5,0.5l0.5,1.1c0.5,0.9,1.3,1.7,2.1,2.3c0.3,0.2,0.4,0.6,0.2,0.9
		c-0.1,0.2-0.3,0.4-0.6,0.3c-1,0-2-0.4-2.7-1.2c-0.8,1.1-1.8,2-2.9,2.8c-0.2,0.1-0.3,0.2-0.5,0.3c-0.4,0.2-0.7,0.4-1.1,0.5
		c-0.4,0.2-0.9,0.3-1.3,0.2c-0.8-0.2-0.8-0.9,0.4-1.9l-1.3,0.1c-0.5,0-1-0.1-1.4-0.3c-1.1-0.5-0.8-1.4,0.5-1.9
		c-0.6-0.4-0.9-0.7-0.6-1.2c0.1-0.2,0.3-0.3,0.5-0.3l1.2-0.3c0.3-0.1,0.6-0.2,0.8-0.4c0.8-0.6,1.7-1.2,2.6-1.7
		c0.5-0.2,1-0.4,1.5-0.5c0.2-0.1,0.5,0,0.7,0.1"/>
	<path class="st7" d="M124.8,122.9c-1,0.8-2,1.3-3.1,1.1"/>
	<path class="st7" d="M126.4,124.2c-0.6,0.9-1.5,1.6-2.5,1.9"/>
</g>
</svg>
