<?xml version="1.0" encoding="utf-8"?>
<!-- Generator: Adobe Illustrator 26.0.0, SVG Export Plug-In . SVG Version: 6.00 Build 0)  -->
<svg version="1.1" id="Capa_1" xmlns="http://www.w3.org/2000/svg" xmlns:xlink="http://www.w3.org/1999/xlink" x="0px" y="0px"
	 viewBox="0 0 2000 2000" style="enable-background:new 0 0 2000 2000;" xml:space="preserve">
<style type="text/css">
	.st0{display:none;}
	.st1{display:inline;}
	.st2{fill:#DBC0FF;}
	.st3{fill:#969696;stroke:#303030;stroke-width:1.903;stroke-miterlimit:10;}
	.st4{fill:#C6C6C6;stroke:#7F7F7F;stroke-width:1.903;stroke-miterlimit:10;}
	.st5{fill:#969696;stroke:#636363;stroke-width:1.903;stroke-miterlimit:10;}
	.st6{fill:#282828;}
	.st7{fill:#3A3A3A;}
	.st8{display:inline;fill:#5177E5;stroke:#01155E;stroke-width:3.2359;stroke-miterlimit:10;}
	.st9{display:inline;fill:#5177E5;stroke:#01155E;stroke-width:3.236;stroke-miterlimit:10.0004;}
	.st10{display:inline;fill:#FFFFFF;stroke:#000000;stroke-width:3.236;stroke-miterlimit:10.0004;}
	.st11{display:inline;fill:#FFFFFF;}
	.st12{display:inline;fill:none;stroke:#191919;stroke-width:5.3932;stroke-miterlimit:10;}
	.st13{fill:#EAEAEA;}
	.st14{fill:#545454;}
	.st15{fill:#3F3F3F;}
	.st16{fill:#E6C07F;stroke:#000000;stroke-width:4;stroke-miterlimit:10;}
	.st17{fill:#643513;}
	.st18{fill:#643513;stroke:#000000;stroke-width:2;stroke-miterlimit:10;}
</style>
<g id="Capa_1_00000103974150278752553210000017250512570753693630_" class="st0">
	<g class="st1">
		<g>
			<path class="st2" d="M1431.3,720.8c1.9,0,1.9-3,0-3C1429.4,717.8,1429.4,720.8,1431.3,720.8L1431.3,720.8z"/>
		</g>
	</g>
	<g class="st1">
		<path class="st3" d="M1010.1,1712.9c10.8,5.8,16.6,14.7,13.9,28.7c-6.9,18.5-26.6,27.5-55,26.3l-41.2-3.7
			c-3.2-0.3-6.3-0.4-9.5-0.3l-52.7,1.5c-28.8,1-55.5-1.2-79.6-7.4c-21.5-7.9-33.5-20.6-24.6-43.5c10.7-11.6,31.6-15.6,52.5-19.7
			L1010.1,1712.9z"/>
		<path class="st4" d="M901,1679.3c-10-18-27.7-31.6-55.6-35.8c-1.2-0.2-2.4-0.3-3.6-0.4c-35-2.2-62.9,6.7-74.5,30.2
			c-6.6,13.4-6.9,29.2,0.2,42.3c9.2,16.9,28.6,26,55.6,29.7c2.7,0.4,5.3,0.5,8,0.4c43.6-1.8,67.4-3.3,87.9-3.5
			c9.7-0.1,19.5,0.6,29.1,2.1c9.5,1.5,18.7,2,27.5,1.2c16-1.5,30.1-11.2,37-25.7c3.9-8.2,6.8-19.1,6.8-33.5
			c0-45.5-23.5-60.7-28.6-60.3c-5.6,2.6-11.8,4.3-20.4,5.5c0,0-12.1-8.9-17.9-8.7c-4.9,0.1-16.1,9.8-16.1,9.8
			c-12-0.6-22.4-2.2-30.3-4.9c-4.1,1.9-19.4,19.2-24.9,29.3"/>
		<path class="st5" d="M968.8,1632.1c23.9-4.2,41-15.4,41-28.6c0-16.8-27.6-30.4-61.7-30.4s-61.7,13.6-61.7,30.4
			c0,14.9,21.9,27.3,50.7,29.9"/>
	</g>
	<g class="st1">
		<g>
			<path class="st6" d="M931.8,1198.5c-1.2,51-2.4,102-3.6,153c-1.2,50.7-2.4,101.5-3.6,152.2c-0.7,28.6-1.4,57.2-2,85.9
				c-0.2,7.2,3.3,15.1,8.3,20.2c2.6,2.8,5.6,4.7,9.2,5.9c3.4,1.8,7.1,2.6,11,2.4c7.4-0.3,15-2.8,20.2-8.3c5.2-5.7,8.2-12.4,8.3-20.2
				c1.2-51,2.4-102,3.6-153c1.2-50.7,2.4-101.5,3.6-152.2c0.7-28.6,1.4-57.2,2-85.9c0.2-7.2-3.3-15.1-8.3-20.2
				c-2.6-2.8-5.6-4.7-9.2-5.9c-3.4-1.8-7.1-2.6-11-2.4c-7.4,0.3-15,2.8-20.2,8.3C934.9,1184,931.9,1190.7,931.8,1198.5L931.8,1198.5
				z"/>
		</g>
	</g>
	<g class="st1">
		<path class="st3" d="M1110.6,1697.9c-11.7,6.2-17.8,15.8-15,30.9c7.4,20,28.6,29.6,59.2,28.3l44.4-4c3.4-0.3,6.8-0.4,10.2-0.3
			l56.7,1.6c31,1.1,59.8-1.3,85.7-7.9c23.1-8.6,36.1-22.1,26.5-46.8c-11.5-12.5-34-16.8-56.5-21.2L1110.6,1697.9z"/>
		<path class="st4" d="M1228,1661.7c10.8-19.4,29.8-34,59.9-38.6c1.3-0.2,2.6-0.3,3.9-0.4c37.7-2.3,67.7,7.2,80.3,32.5
			c7.2,14.4,7.5,31.4-0.2,45.5c-10,18.2-30.8,28-59.8,32c-2.8,0.4-5.7,0.5-8.6,0.4c-46.9-1.9-72.5-3.6-94.7-3.7
			c-10.5-0.1-20.9,0.6-31.3,2.2c-10.3,1.6-20.2,2.1-29.6,1.3c-17.2-1.6-32.4-12-39.9-27.6c-4.2-8.8-7.3-20.6-7.3-36
			c0-49,25.3-65.3,30.8-64.9c6,2.7,12.7,4.7,22,5.9c0,0,13-9.6,19.3-9.4c5.3,0.1,17.3,10.6,17.3,10.6c12.9-0.6,24.1-2.4,32.6-5.3
			c4.4,2.1,20.9,20.6,26.8,31.5"/>
		<path class="st5" d="M1155,1611c-25.7-4.5-44.2-16.6-44.2-30.8c0-18.1,29.7-32.7,66.4-32.7s66.4,14.6,66.4,32.7
			c0,16.1-23.6,29.4-54.6,32.2"/>
	</g>
	<g class="st1">
		<g>
			<path class="st6" d="M1118,1281.7c3.8,20.1,7,40.3,9.7,60.6c-0.3-2.5-0.7-5.1-1-7.6c4.1,30.4,7,61,8.8,91.6
				c1.8,30.7,2.3,61.5,1.8,92.3c-0.3,17.3-1.1,34.5-2.1,51.8c-0.2,3.9,0.7,7.6,2.4,11c1.2,3.5,3.1,6.6,5.9,9.2
				c2.6,2.8,5.6,4.7,9.2,5.9c3.4,1.8,7.1,2.6,11,2.4c2.5-0.3,5.1-0.7,7.6-1c4.8-1.3,9-3.8,12.6-7.3c1.5-1.9,3-3.8,4.5-5.8
				c2.6-4.4,3.9-9.2,3.9-14.4c1.2-19.4,2-38.7,2.2-58.1s0.1-38.8-0.6-58.2c-0.7-19.4-1.8-38.8-3.4-58.1s-3.7-38.6-6.2-57.8
				c-2.8-21.6-6-43.1-9.9-64.5c-0.4-2.4-0.9-4.8-1.3-7.1c-0.9-3.7-2.6-6.9-5.1-9.7c-2-3.1-4.7-5.6-8-7.3c-3.3-2.1-6.8-3.2-10.6-3.4
				c-3.8-0.8-7.6-0.7-11.4,0.5c-2.3,1-4.5,1.9-6.8,2.9c-4.3,2.5-7.7,5.9-10.2,10.2c-1,2.3-1.9,4.5-2.9,6.8
				C1116.6,1271.6,1116.6,1276.6,1118,1281.7L1118,1281.7z"/>
		</g>
	</g>
	<g class="st1">
		<g>
			<path class="st6" d="M526.2,807.7c0.8,7.7,1.9,15.4,3.8,22.8c1.3,5.2,3.1,10.2,5.1,15.1c2.9,7,5.9,13.9,9.7,20.5
				c2.7,4.7,5.6,9.2,8.8,13.5c7.8,10.5,16.1,20.3,25.9,29c10.2,9.1,21.4,17.3,33,24.5c9.8,6,20,11.3,30.5,16.1
				c12.9,5.9,26.1,11.2,39.4,16.1c23.4,8.5,47.4,15.3,71.7,20.5c26.6,5.6,53.8,9.4,80.9,11.2c3.1,0.2,6.2,0.4,9.2,0.5
				c3.9,0.2,7.6-0.7,11-2.5c3.5-1.2,6.6-3.1,9.2-5.9c2.8-2.6,4.7-5.6,5.9-9.2c1.8-3.4,2.6-7.1,2.5-11c-0.3-2.5-0.7-5-1-7.6
				c-1.3-4.8-3.8-9-7.3-12.6c-1.9-1.5-3.8-3-5.8-4.5c-4.5-2.6-9.2-3.9-14.4-3.9c-14.5-0.7-29-2.1-43.4-4c2.5,0.3,5,0.7,7.6,1
				c-18-2.4-35.9-5.7-53.5-10c-17.8-4.3-35.3-9.4-52.5-15.5c-9.4-3.3-18.6-6.8-27.8-10.7c2.3,1,4.5,1.9,6.8,2.9
				c-16-6.8-31.6-14.5-46.2-24.1c-4.1-2.7-8.1-5.6-12-8.6c1.9,1.5,3.8,3,5.8,4.5c-10.9-8.4-20.8-18-29.2-28.9c1.5,1.9,3,3.8,4.5,5.8
				c-6.9-9-12.8-18.8-17.2-29.2c1,2.3,1.9,4.5,2.9,6.8c-3.7-8.8-6.3-18.1-7.6-27.6c0.3,2.5,0.7,5,1,7.6c-0.1-0.9-0.2-1.8-0.3-2.8
				c0.2-3.9-0.7-7.6-2.5-11c-1.2-3.5-3.1-6.6-5.9-9.2c-2.6-2.8-5.6-4.7-9.2-5.9c-3.4-1.8-7.1-2.6-11-2.5c-2.5,0.3-5,0.7-7.6,1
				c-4.8,1.3-9,3.8-12.6,7.3c-1.5,1.9-3,3.8-4.5,5.8C527.6,797.8,526.3,802.6,526.2,807.7L526.2,807.7z"/>
		</g>
	</g>
	<g class="st1">
		<path class="st6" d="M1242.9,349.5c-106.8-53.8-214.2-2-243.7,12.2C896.2,411.2,851.7,501.3,812.3,581
			c-17.3,34.9-86.9,183.3-69.1,385.9c9.6,108.5,19.5,221.5,109.7,304.7c18,16.7,96.1,86.4,211.2,81.2c25.4-1.1,146.6-10.2,195-93.4
			c46.1-79.4-29.1-131.2-12.2-308.7c10.4-109,49.2-199,52.8-207.2c40.8-92.8,69.9-98.1,77.2-154.4
			C1388,503.7,1336.4,396.6,1242.9,349.5z"/>
		<g>
			<path class="st7" d="M1259.2,806.1c-9.8,15.1-14,33.5-17.9,51.4c-1.8,8.3-3.7,16.5-5.5,24.8c-1.4,6.3-2.8,12.7-3.4,19.1
				c-0.7,6.8-0.5,13.7-1,20.6c-1.7,22.8-11.1,44.1-14.2,66.7c-2,14.5-1.6,30.4-9.5,42.4c-6.6,9.9-19,15.3-29.9,11.9
				c-10.8-3.4-18.2-13.9-23.1-24.8c-9.6-21-12.7-45-12-68.4s5.1-46.5,10-69.3c4.2-19.5,8.8-39.3,18.9-56.1
				c5-8.4,11.2-15.8,17.3-23.2c4.4-5.3,8.9-10.7,14.6-14.4c2.8-1.9,5.9-3.3,9.1-4.5c9.7-3.4,20.6-3.9,30,0.2s17.2,13.3,18.8,24.2"/>
		</g>
	</g>
	<rect x="972.9" y="631.6" class="st8" width="86.5" height="50.1"/>
	<path class="st8" d="M1238.7,670.5c11.6,7.5,21.9-4,34.4,2.8c19.5,10.6,8.2,46.4,26.1,55.5c11.2,5.7,29-1.5,36.7-12.8
		c13.4-19.8-6.5-48.7-10.6-54.6c-12.9-18.7-30.5-26-47.2-33c-19.9-8.3-36-15-45.4-7.3C1220.7,630.9,1224.3,661.2,1238.7,670.5z"/>
	
		<ellipse transform="matrix(8.529630e-02 -0.9964 0.9964 8.529630e-02 395.2302 1740.1677)" class="st9" cx="1145.4" cy="654.8" rx="145.9" ry="86.4"/>
	
		<ellipse transform="matrix(8.529630e-02 -0.9964 0.9964 8.529630e-02 174.1156 1469.5652)" class="st9" cx="887.4" cy="640" rx="145.9" ry="86.4"/>
	
		<ellipse transform="matrix(8.529620e-02 -0.9964 0.9964 8.529620e-02 402.5528 1735.8403)" class="st10" cx="1146.7" cy="648.7" rx="105.3" ry="67.4"/>
	
		<ellipse transform="matrix(8.529620e-02 -0.9964 0.9964 8.529620e-02 165.4162 1477.5513)" class="st10" cx="887.4" cy="648.7" rx="105.3" ry="67.4"/>
	
		<ellipse transform="matrix(0.1467 -0.9892 0.9892 0.1467 338.0745 1698.6769)" class="st1" cx="1153.6" cy="653.4" rx="68.5" ry="28.1"/>
	<polygon class="st11" points="1185.7,617.3 1145.3,661.2 1185.7,662.7 	"/>
	
		<ellipse transform="matrix(0.1467 -0.9892 0.9892 0.1467 116.1462 1413.0204)" class="st1" cx="877.1" cy="639.2" rx="68.5" ry="28.1"/>
	<polygon class="st11" points="909.2,608.9 868.8,652.8 909.2,654.3 	"/>
	<path class="st12" d="M1004.3,701.3c-4.9,2.7-14.8,9.3-21.3,21.7c-2.1,4-10.4,20-4.5,28.9c6,9.1,26.5,10.2,48.8-1.4"/>
	<path class="st11" d="M955.5,784h92.4c0,0,2.3,58.7-22.7,51.6c-25-7.1-25-50.5-25-50.5s4.8,52.8-17.9,51S955.5,784,955.5,784z"/>
	<g class="st1">
		<g>
			<g>
				<g>
					<path class="st13" d="M515.5,827.4c-18.2-7.8-33.1-23.5-40-42.3c-4.3-11.6-5.6-24.1-9.8-35.7c-3.1-8.5-7.6-16.4-11.4-24.5
						c-6.7-14.2-14.9-30.1-18-45.5c-2.5-12.5-0.9-12.5,9-19.6c3.4-2.4,9.3,0.4,12.7,2.9c3.5,2.5,6.7,6.9,8.9,10.6
						c5.5,9.3,9.7,18.6,12.7,29c2,6.8,3.2,9.5,6.1,14c2.9,4.5,4.6,6.7,7.8,7.9c0.6,0.2,3.5-0.7,6.7-2.9c1.8-1.2-0.4-4-1.1-6
						c-7.7-19.8-18.2-44.4-22.3-60.8c-0.8-4.8-1.9-12.4,0.2-16.8c2.2-4.5,4.5-7.1,9-9.3c4.2-2.1,11.8-1.6,16.4-0.4
						c3.3,0.9,6.1,3.3,8.2,6c5.3,6.9,7.5,15.7,9.5,24.1c2.8,11.8,5.6,23.7,6.9,35.7c0.5,5,1.5,11,6.1,12.9c2.5,1,5.3,0.3,7.9-0.4
						c0.9-0.2,1.8-0.5,2.4-1.2c1.1-1.3,0.5-3.3-0.1-5c-6.2-16.5-10.3-33.9-12-51.5c-0.2-2.6-0.5-5.3,0-7.9
						c1.4-8.5,10-14.8,18.5-14.5c8.5,0.2,16.4,6.2,20.3,14c3.6,7.3,4,15.8,4.2,24c0.4,12.9,0.8,25.8,1.2,38.7
						c0.2,6.4,0.4,12.9,2.6,19c0.3,0.8,0.7,1.7,1.5,1.9c0.9,0.3,1.9-0.4,2.6-1.1c7.5-6.8,14.8-14,23.8-18.6c9-4.7,19.9-6.5,29.2-2.4
						c1.9,0.8,3.7,1.9,5,3.5c4.5,5.3,1.8,13.6-2.2,19.2c-4.4,6.4-10.2,11.8-16.8,15.8c-4.1,2.5-8.5,4.4-12.4,7.2
						c-6.3,4.6-11,11.5-13,19.1c-1.7,6.7-1.5,13.7-2.8,20.5s-3.7,15.5-10.1,17.9c5.7,7.4,6.3,19.2-0.8,25
						c-3.6,2.9-10.2,5.4-14.7,6.7c-9.1,2.6-17.2,5.8-27.3,9.1c-11.1,4.5-22.1-7.9-22.6-17.2L515.5,827.4z"/>
					<g>
						<path class="st14" d="M516.2,826c-12.6-5.4-23.6-14.5-31.3-25.9c-4-5.8-7.1-12.2-9.2-19c-2.5-8-4-16.3-6.2-24.5
							c-2.2-8.2-5.6-15.8-9.4-23.4c-3.7-7.4-7.3-14.9-10.8-22.4c-3.5-7.5-6.9-15.2-9.3-23.1c-1.2-3.7-2.1-7.5-2.8-11.3
							c-0.4-2.1-0.8-4.5-0.4-6.5c0.8-3.8,5.4-6.1,8.4-8.2c1.3-0.9,2.3-1.4,3.9-1.2c1.6,0.2,3.1,0.8,4.5,1.5c3.2,1.6,5.8,3.9,8.1,6.7
							c2.4,3,4.4,6.4,6.2,9.7c1.9,3.5,3.7,7.1,5.3,10.8c1.6,3.8,3,7.6,4.2,11.5c1,3.3,1.9,6.7,3.3,9.9c1.2,2.8,2.9,5.4,4.5,8
							c1.6,2.4,3.4,4.9,6,6.4c1.1,0.6,2,1,3.3,0.7c1.4-0.3,2.8-1,4-1.6c1.5-0.8,3.3-1.7,3.7-3.4c0.3-1.5-0.5-3.1-1.2-4.4
							c-1.6-3.2-2.7-6.6-4-9.9c-1.5-3.6-2.9-7.3-4.4-10.9c-2.8-7.1-5.6-14.2-8.2-21.4c-2.3-6.3-4.5-12.6-6.1-19.1
							c-0.8-3-1-6.3-1.1-9.5c-0.1-3.4,0.5-6.2,2.2-9.1c1.5-2.6,3.6-4.5,6.2-6c2.8-1.6,6-1.8,9.2-1.8c3.1,0.1,6.6,0.4,9.3,1.9
							c3.2,1.8,5.5,4.9,7.4,8c3.9,6.7,5.6,14.5,7.4,22c2,8.6,4,17.2,5.4,25.9c0.6,3.8,0.8,7.7,1.5,11.5c0.5,3,1.4,6,3.5,8.3
							c2.5,2.7,6.2,3,9.7,2.3c1.6-0.3,3.6-0.7,4.9-1.9c1.3-1.2,1.6-2.9,1.3-4.6c-0.3-2-1.3-3.9-1.9-5.8c-0.7-2-1.4-4-2-6
							c-1.3-4-2.5-8.1-3.5-12.2c-2.1-8.3-3.7-16.7-4.7-25.2c-0.5-4-1.2-8.4-0.4-12.4c0.7-3.1,2.4-5.9,4.7-8
							c4.8-4.4,11.5-5.7,17.7-3.7c6.5,2.2,11.6,7.6,14.2,13.8c3.1,7.5,3.1,15.9,3.3,23.9c0.3,9,0.6,18,0.9,27.1
							c0.3,8.4-0.1,17.1,1.9,25.3c0.4,1.8,0.8,4.1,2.1,5.5c1.2,1.4,3.1,1.4,4.5,0.4c1.6-1.1,2.9-2.5,4.3-3.8c1.5-1.3,2.9-2.7,4.4-4
							c5.9-5.2,12.3-10.3,19.7-13.2c7.1-2.8,15.1-3.8,22.4-1.2c3.3,1.2,6.5,3.1,7.5,6.7c0.9,3.2,0.1,6.6-1.2,9.6
							c-2.8,6.6-8.3,12.3-13.9,16.6c-6.2,4.8-13.8,7.5-19.8,12.6c-5.4,4.6-9.4,11-11.3,17.8c-2.1,7.8-1.7,16-3.6,23.9
							c-1.2,5-3.1,11.7-8.3,13.8c-0.8,0.3-1.6,1.4-0.9,2.3c3.8,5,5.4,11.9,3.2,17.9c-2.4,6.4-10,9-16,10.9
							c-3.8,1.2-7.7,2.3-11.5,3.6c-4,1.4-8,2.8-12,4.2c-3.5,1.2-7.2,3-11,2.7c-3.1-0.3-6-1.9-8.2-3.9c-2.6-2.3-4.7-5.2-5.9-8.5
							c-0.3-0.8-0.5-1.5-0.7-2.3c-0.2-0.8-0.1-1.7-0.4-2.5C518.5,827.1,517,826.5,516.2,826c-1.7-1-3.3,1.6-1.6,2.7
							c0.7,0.4,1.3,0.8,2,1.2c-0.3-0.5-0.5-0.9-0.8-1.3c0.4,6.5,4.5,12.6,9.6,16.3c2.6,1.9,5.8,3.2,9,3.3c4,0.2,7.9-1.6,11.5-2.9
							c4.2-1.4,8.3-2.9,12.4-4.3c3.9-1.3,7.9-2.4,11.8-3.7c6.5-2.1,13.9-5.1,16.8-11.7c3-6.9,1.4-15.5-3.1-21.4
							c-0.3,0.8-0.6,1.5-0.9,2.3c5.9-2.3,8.6-8.6,10.1-14.3c0.9-3.5,1.5-7.1,1.9-10.7c0.5-4.4,0.7-8.8,1.6-13.1
							c1.6-7.2,5.5-13.6,11.1-18.3c3.1-2.6,6.8-4.5,10.4-6.5c3.4-1.9,6.7-4,9.8-6.4c5.7-4.5,11.2-10.5,14-17.2
							c1.3-3.2,2.2-6.7,1.7-10.1c-0.5-3.5-2.6-6.4-5.6-8.2c-6.5-4.1-15.1-4.5-22.4-2.8c-7.8,1.8-14.8,5.9-21,10.8
							c-3.2,2.5-6.2,5.2-9.2,7.9c-1.5,1.4-3,2.8-4.5,4.2c-0.2,0.2-0.6,0.7-0.9,0.7c-0.3,0-0.4-0.4-0.5-0.7c-0.4-1-0.7-2-0.9-3
							c-1.1-4.2-1.4-8.5-1.6-12.7c-0.2-4.5-0.3-8.9-0.4-13.4c-0.3-9.2-0.6-18.4-0.9-27.6c-0.3-8.1-0.5-16.4-3.7-24
							c-2.8-6.4-7.9-11.8-14.3-14.5c-6.3-2.6-13.3-2.3-19.2,1.3c-2.7,1.7-5.1,4-6.8,6.8c-1.8,3.2-2.5,6.7-2.4,10.3
							c0.1,4.3,0.8,8.7,1.4,13c0.6,4.3,1.3,8.5,2.2,12.7c1.8,8.5,4.1,16.9,7,25.1c0.7,2,1.5,3.9,2.1,6c0.2,0.7,0.5,1.6,0.2,2.3
							c-0.4,0.7-1.3,0.8-2,1c-3.5,1-7.3,1.4-9.4-2c-1.6-2.5-2-5.7-2.3-8.7c-0.5-4.4-1.1-8.8-1.9-13.2c-1.5-8.6-3.6-17.2-5.7-25.7
							c-1.8-7.5-4-15.3-8.7-21.5c-2.2-3-5-5.7-8.6-7c-3-1.1-6.5-1.3-9.7-1.4c-3.2,0-6.5,0.4-9.3,1.9c-2.8,1.5-5.2,3.5-7,6.1
							c-1.9,2.7-3,5.5-3.4,8.8c-0.3,3.5,0.1,7,0.6,10.4c0.9,6.4,3.3,12.7,5.4,18.7c2.6,7.3,5.4,14.6,8.3,21.8
							c2.9,7.2,5.8,14.5,8.6,21.7c0.6,1.5,1.6,3,2,4.5c0.2,0.7-0.2,0.7-0.8,1.1c-0.9,0.5-1.8,1-2.7,1.5c-0.5,0.2-1.1,0.5-1.7,0.6
							c-0.2,0-0.3,0-0.3,0c-0.2,0,0.3,0.1,0,0c-0.1-0.1-0.3-0.1-0.5-0.2c-1.2-0.6-2.2-1.4-3.1-2.4c-2.1-2.4-3.9-5.3-5.4-8.2
							c-1.5-2.8-2.5-5.7-3.4-8.7c-2.4-7.8-5.2-15.5-8.9-22.8c-3.5-6.8-7.4-14.3-13.7-18.9c-2.7-1.9-5.9-3.6-9.2-4
							c-1.5-0.2-3-0.1-4.5,0.6c-1.4,0.7-2.6,1.8-3.9,2.6c-3.4,2.4-7,4.8-7.6,9.2c-0.3,2.5,0.1,4.9,0.5,7.3c0.7,3.9,1.6,7.8,2.8,11.6
							c2.5,8.1,6,15.9,9.6,23.6c3.5,7.6,7.2,15.2,10.9,22.7c2,3.9,3.9,7.8,5.5,11.9c1.6,4,2.8,8,3.9,12.1c2.1,8.3,3.6,16.8,6.4,24.9
							c4.6,13.4,13,25.4,24.1,34.3c5.2,4.2,11,7.8,17.2,10.4c0.8,0.3,1.7,0.2,2.1-0.6C517.2,827.5,517,826.4,516.2,826z"/>
					</g>
				</g>
			</g>
			<g>
				<g>
					<path class="st15" d="M579.8,805.6c-1.8,1.5-4.4,3.1-6.7,4c-1.1,0.5-2.5,0.9-3.8,1.2c-1.3,0.3-2.7,0.6-3.8,0.7
						c-1.2,0.1-2.3,1-2.3,2.3c0,1.2,1.1,2.5,2.3,2.3c6.5-0.7,12.5-3.2,17.6-7.3c1-0.8,0.8-2.5,0-3.3
						C582.2,804.6,580.8,804.8,579.8,805.6L579.8,805.6z"/>
				</g>
			</g>
			<g>
				<g>
					<path class="st15" d="M531.6,821.3c-6.4,2-12.9,2.8-19.6,2.5c-1.2-0.1-2.3,1.1-2.3,2.3c0,1.3,1.1,2.3,2.3,2.3
						c7,0.3,14.1-0.6,20.8-2.7C535.7,824.9,534.5,820.4,531.6,821.3L531.6,821.3z"/>
				</g>
			</g>
			<g>
				<path class="st13" d="M553.6,712.3c-11.3-4.6-24.3-3-35.6,1.7c-11.2,4.7-21,12.2-30.6,19.7"/>
				<g>
					<path class="st14" d="M554,710.8c-18.7-7.5-38.8,1-54.3,11.7c-4.6,3.2-9,6.6-13.3,10c-1.6,1.2,0.6,3.4,2.2,2.2
						c14.4-11.3,30.3-23.3,49.4-23.7c5.2-0.1,10.4,0.8,15.2,2.7C555,714.5,555.8,711.5,554,710.8L554,710.8z"/>
				</g>
			</g>
		</g>
		<g>
			<path class="st13" d="M581.1,723.3c-4,0.5-7,3.8-9.4,6.9c-4.1,5.1-8.1,10.5-10.2,16.6c-2.2,6.2-2.3,13.4,1.1,19"/>
			<g>
				<path class="st14" d="M580.7,721.8c-3.2,0.4-5.9,2.5-8,4.8c-2.4,2.7-4.6,5.6-6.7,8.6c-4.2,5.9-7.5,12.6-7.6,19.9
					c-0.1,4,0.8,8,2.9,11.5c1,1.7,3.7,0.2,2.7-1.6c-4.4-7.3-2.3-16.3,1.6-23.3c2.1-3.7,4.6-7.1,7.3-10.4c2.3-2.9,4.9-6,8.8-6.5
					c0.8-0.1,1.3-1.2,1.1-1.9C582.3,722,581.5,721.7,580.7,721.8L580.7,721.8z"/>
			</g>
		</g>
	</g>
	<g class="st1">
		<g>
			<path class="st6" d="M1237.8,973.5c3.5,1.4,6.9,2.8,10.3,4.3c-2.3-1-4.5-1.9-6.8-2.9c19.6,8.3,38.8,17.6,57.5,27.8
				c18.6,10.2,36.7,21.3,54.2,33.3c9.9,6.8,19.6,13.8,29.1,21.2c-1.9-1.5-3.8-3-5.8-4.5c4.9,3.8,10.2,7.4,14,12.4
				c-1.5-1.9-3-3.8-4.5-5.8c1,1.3,1.8,2.7,2.5,4.2c-1-2.3-1.9-4.5-2.9-6.8c0.5,1.3,0.9,2.6,1.1,3.9c-0.3-2.5-0.7-5.1-1-7.6
				c0.1,1.2,0.1,2.5,0,3.7c0.3-2.5,0.7-5.1,1-7.6c-0.2,1.3-0.6,2.5-1.1,3.7c1-2.3,1.9-4.5,2.9-6.8c-0.6,1.4-1.4,2.7-2.4,4
				c1.5-1.9,3-3.8,4.5-5.8c-1.7,2.2-3.7,4-5.8,5.7c1.9-1.5,3.8-3,5.8-4.5c-5.7,4.4-12.4,7.3-18.8,10.4c-7.6,3.7-15.3,7.2-23,10.6
				c-4.4,1.9-8.8,3.8-13.2,5.7c2.3-1,4.5-1.9,6.8-2.9c-15.8,6.7-31.9,12.8-48.1,18.5c-3.7,0.9-6.9,2.6-9.7,5.1c-3.1,2-5.6,4.7-7.3,8
				c-2.1,3.3-3.2,6.8-3.4,10.6c-0.8,3.8-0.7,7.6,0.5,11.4c1,2.3,1.9,4.5,2.9,6.8c2.5,4.3,5.9,7.7,10.2,10.2c2.3,1,4.5,1.9,6.8,2.9
				c5.1,1.4,10.1,1.4,15.2,0c24.9-8.7,49.5-18.6,73.5-29.5c5.4-2.5,10.8-5,16.2-7.6c4.9-2.3,9.9-4.6,14.6-7.4
				c4-2.4,7.6-5.2,11.3-8.1c1.8-1.4,3.5-2.9,4.9-4.6c2.2-2.5,4.3-5.2,6.1-7.9c0.6-0.9,1.1-1.9,1.6-2.9c1.3-3,2.9-6.1,3.7-9.3
				c0.4-1.7,0.5-3.4,0.8-5.1c0.2-1.7,0.6-3.6,0.7-5.4c0-0.4,0-0.9,0-1.3c-0.2-3-0.7-6.1-1.2-9c-0.4-2.3-1.5-4.4-2.4-6.6
				c-0.9-2.2-1.7-4.4-3-6.3c-1.9-2.9-4.1-5.7-6.4-8.3c-3.3-3.8-7.5-6.8-11.5-10c-10.7-8.3-21.6-16.5-32.8-24.3
				c-18.5-12.8-37.6-24.7-57.3-35.5c-21.8-11.9-44.3-22.4-67.2-31.9c-2.6-1.1-5.2-2.2-7.9-3.2c-3.8-1.2-7.6-1.4-11.4-0.5
				c-3.8,0.2-7.3,1.3-10.6,3.4c-3.3,1.8-6,4.2-8,7.3c-2.5,2.8-4.2,6-5.1,9.7c-0.3,2.5-0.7,5-1,7.6c0,5.1,1.3,9.9,3.9,14.4
				c1.5,1.9,3,3.8,4.5,5.8C1228.7,969.7,1232.9,972.2,1237.8,973.5L1237.8,973.5z"/>
		</g>
	</g>
</g>
<g id="Capa_3">
	<g>
		<path class="st16" d="M505.9,167.6c205.7,5.8,364.9,9.3,473.8,11.4c57.4,1.1,121.4,2.2,205.1,2.1c127.6-0.3,232.3-3.4,303-6.2
			c0,0,5.2,197.2,5.2,203.4s0,105.9,0,105.9l-58.3,7.3l50,5.2l8.3,160.9l-35.4,5.2l30.2,12.5l5.2,193l-169.7,16.6L1493,891v241.8
			l-71.8,13.5l71.8,14.5V1328l-96.8,15.6l96.8,15.6l-7.3,183.7l7.3,213.8H516.3l-2.1-221.1l-1.6-215.4l80.2-5.2l-86.4-22.8V967.3
			l132.2-5.2l-132.2-12.5V727.6l112.5-10.4l-110.4-16.6l2.1-76.8h77.1l-76-13.5l2.1-181.6l104.1-1L509.6,410L505.9,167.6z"/>
		<g>
			
				<image style="overflow:visible;enable-background:new    ;" width="253" height="1632" xlink:href="5B6252F7.png"  transform="matrix(1 0 0 1 515 139)">
			</image>
		</g>
		<g>
			
				<image style="overflow:visible;enable-background:new    ;" width="956" height="1613" xlink:href="5B6252F5.png"  transform="matrix(1 0 0 1 539 156)">
			</image>
		</g>
		<g>
			
				<image style="overflow:visible;enable-background:new    ;" width="1033" height="190" xlink:href="5B6252FB.png"  transform="matrix(1 0 0 1 483 165)">
			</image>
		</g>
		<g>
			
				<image style="overflow:visible;enable-background:new    ;" width="1033" height="190" xlink:href="5B6252FD.png"  transform="matrix(1 0 0 1 486 248)">
			</image>
		</g>
		<path class="st17" d="M1547.9,245.1c0,0,74-2,104-8s62-24,62-24c6.2,1,19.2,4.1,29,15c17.6,19.6,16.3,54.8-3,72
			c-9.9,8.9-22,10.6-28,11c0,0-16-12-47-18s-117-13-117-13"/>
		<path class="st17" d="M1529.9,353L1529.9,353c-9.9,0-18-8.1-18-18V185c0-9.9,8.1-18,18-18l0,0c9.9,0,18,8.1,18,18v150
			C1547.9,345,1539.9,353,1529.9,353z"/>
		<path class="st17" d="M1504.9,377L1504.9,377c-7.7,0-14-6.3-14-14V157c0-7.7,6.3-14,14-14l0,0c7.7,0,14,6.3,14,14v206
			C1518.9,370.8,1512.7,377,1504.9,377z"/>
		<path class="st18" d="M452.9,247.1c0,0-74-2-104-8s-62-24-62-24c-6.2,1-19.2,4.1-29,15c-17.6,19.6-16.3,54.8,3,72
			c9.9,8.9,22,10.6,28,11c0,0,16-12,47-18s117-13,117-13"/>
		<path class="st17" d="M470.9,355L470.9,355c9.9,0,18-8.1,18-18V187c0-9.9-8.1-18-18-18l0,0c-9.9,0-18,8.1-18,18v150
			C452.9,347,461,355,470.9,355z"/>
		<path class="st17" d="M495.9,379L495.9,379c7.7,0,14-6.3,14-14V159c0-7.7-6.3-14-14-14l0,0c-7.7,0-14,6.3-14,14v206
			C481.9,372.8,488.2,379,495.9,379z"/>
		<g>
			
				<image style="overflow:visible;enable-background:new    ;" width="1002" height="190" xlink:href="5B6252FF.png"  transform="matrix(1 0 0 1 514 1482)">
			</image>
		</g>
		<g>
			
				<image style="overflow:visible;enable-background:new    ;" width="1033" height="190" xlink:href="5B6252FC.png"  transform="matrix(1 0 0 1 483 1590)">
			</image>
		</g>
		<path class="st17" d="M1536.9,1622.1c0,0,74-2,104-8s62-24,62-24c6.2,1,19.2,4.1,29,15c17.6,19.6,16.3,54.8-3,72
			c-9.9,8.9-22,10.6-28,11c0,0-16-12-47-18s-117-13-117-13"/>
		<path class="st17" d="M1518.9,1730.1L1518.9,1730.1c-9.9,0-18-8.1-18-18v-150c0-9.9,8.1-18,18-18l0,0c9.9,0,18,8.1,18,18v150
			C1536.9,1722,1528.9,1730.1,1518.9,1730.1z"/>
		<path class="st17" d="M1493.9,1754.1L1493.9,1754.1c-7.7,0-14-6.3-14-14v-206c0-7.7,6.3-14,14-14l0,0c7.7,0,14,6.3,14,14v206
			C1507.9,1747.8,1501.7,1754.1,1493.9,1754.1z"/>
		<path class="st17" d="M467.9,1625.1c0,0-74-2-104-8s-62-24-62-24c-6.2,1-19.2,4.1-29,15c-17.6,19.6-16.3,54.8,3,72
			c9.9,8.9,22,10.6,28,11c0,0,16-12,47-18s117-13,117-13"/>
		<path class="st17" d="M485.9,1733.1L485.9,1733.1c9.9,0,18-8.1,18-18v-150c0-9.9-8.1-18-18-18l0,0c-9.9,0-18,8.1-18,18v150
			C467.9,1725,476,1733.1,485.9,1733.1z"/>
		<path class="st17" d="M510.9,1757.1L510.9,1757.1c7.7,0,14-6.3,14-14v-206c0-7.7-6.3-14-14-14l0,0c-7.7,0-14,6.3-14,14v206
			C496.9,1750.8,503.2,1757.1,510.9,1757.1z"/>
	</g>
</g>
</svg>
