<?xml version="1.0" encoding="utf-8"?>
<!-- Generator: Adobe Illustrator 26.0.0, SVG Export Plug-In . SVG Version: 6.00 Build 0)  -->
<svg version="1.1" id="Capa_1" xmlns="http://www.w3.org/2000/svg" xmlns:xlink="http://www.w3.org/1999/xlink" x="0px" y="0px"
	 viewBox="0 0 500 500" style="enable-background:new 0 0 500 500;" xml:space="preserve">
<style type="text/css">
	.st0{fill:#BDDCF0;}
	.st1{fill:none;stroke:#698DA7;stroke-width:4;stroke-miterlimit:10;stroke-dasharray:100,30,20,5;}
	.st2{fill:#DBC0FF;}
	.st3{fill:#969696;stroke:#303030;stroke-width:1.903;stroke-miterlimit:10;}
	.st4{fill:#C6C6C6;stroke:#7F7F7F;stroke-width:1.903;stroke-miterlimit:10;}
	.st5{fill:#969696;stroke:#636363;stroke-width:1.903;stroke-miterlimit:10;}
	.st6{fill:#282828;}
	.st7{fill:#3A3A3A;}
	.st8{fill:#5177E5;stroke:#01155E;stroke-width:3.2359;stroke-miterlimit:10;}
	.st9{fill:#5177E5;stroke:#01155E;stroke-width:3.236;stroke-miterlimit:10.0004;}
	.st10{fill:#FFFFFF;stroke:#000000;stroke-width:3.236;stroke-miterlimit:10.0004;}
	.st11{fill:#FFFFFF;}
	.st12{fill:none;stroke:#191919;stroke-width:5.3932;stroke-miterlimit:10;}
	.st13{fill:#EAEAEA;}
	.st14{fill:#545454;}
	.st15{fill:#3F3F3F;}
	.st16{fill:#E5EFF1;}
	.st17{fill:#73A8DC;}
	.st18{fill:#2F7FBE;}
	.st19{fill:#106A9F;}
	.st20{fill:#E5EFF1;stroke:#000000;stroke-miterlimit:10;}
	.st21{fill:none;stroke:#0D6CBA;stroke-width:2;stroke-miterlimit:10;}
	.st22{fill:#348DD6;}
	.st23{font-family:'BowlbyOneSC-Regular';}
	.st24{font-size:9.1981px;}
	.st25{font-family:'ArialMT';}
	.st26{fill:#EAEAEA;stroke:#545454;stroke-width:2.2064;stroke-miterlimit:10;}
	.st27{fill:none;stroke:#545454;stroke-width:2.2064;stroke-miterlimit:10;}
</style>
<g>
	<path class="st0" d="M449.9,235c-2,49.9,28.7,53.4,28.7,99.7c-0.1,46.3-5.6,46.3-57.5,98s-183.2,51.5-287.5-9.4
		C30.8,434.2,5.6,365.8,41.5,235C-13.2,94.8,36.4,26.8,205.9,41.9c0,0,185-66.4,244,15.4S452,185.1,449.9,235z"/>
	<path class="st1" d="M464.8,245.5c-2,49.8,28.7,53.3,28.7,99.7c-0.1,46.3-5.6,46.3-57.5,97.9s-183.2,51.5-287.4-9.4
		c-102.8,10.9-127.9-57.5-92-188.2C1.8,105.3,51.3,37.4,220.9,52.5c0,0,185-66.4,243.9,15.4S466.8,195.7,464.8,245.5z"/>
</g>
<g id="Capa_1_00000045616304374134710890000005365694149719112366_">
	<g>
		<g>
			<path class="st2" d="M395.2,142.8c0.6,0,0.6-1,0-1C394.6,141.9,394.6,142.8,395.2,142.8L395.2,142.8z"/>
		</g>
	</g>
	<g>
		<path class="st3" d="M261.6,457.5c3.4,1.8,5.3,4.7,4.4,9.1c-2.2,5.9-8.4,8.7-17.4,8.3l-13.1-1.2c-1-0.1-2-0.1-3-0.1l-16.7,0.5
			c-9.1,0.3-17.6-0.4-25.2-2.3c-6.8-2.5-10.6-6.5-7.8-13.8c3.4-3.7,10-5,16.7-6.2L261.6,457.5z"/>
		<path class="st4" d="M227,446.8c-3.2-5.7-8.8-10-17.6-11.4c-0.4-0.1-0.8-0.1-1.2-0.1c-11.1-0.7-19.9,2.1-23.6,9.6
			c-2.1,4.2-2.2,9.3,0.1,13.4c2.9,5.4,9.1,8.2,17.6,9.4c0.8,0.1,1.7,0.2,2.5,0.1c13.8-0.6,21.4-1,27.9-1.1c3.1,0,6.2,0.2,9.2,0.7
			c3,0.5,5.9,0.6,8.7,0.4c5.1-0.5,9.6-3.5,11.7-8.1c1.2-2.6,2.1-6.1,2.1-10.6c0-14.4-7.5-19.2-9.1-19.1c-1.8,0.8-3.7,1.4-6.5,1.7
			c0,0-3.8-2.8-5.7-2.8c-1.6,0-5.1,3.1-5.1,3.1c-3.8-0.2-7.1-0.7-9.6-1.6c-1.3,0.6-6.1,6.1-7.9,9.3"/>
		<path class="st5" d="M248.5,431.9c7.6-1.3,13-4.9,13-9.1c0-5.3-8.8-9.6-19.6-9.6c-10.8,0-19.6,4.3-19.6,9.6
			c0,4.7,6.9,8.7,16.1,9.5"/>
	</g>
	<g>
		<g>
			<path class="st6" d="M236.7,294.3c-0.4,16.2-0.8,32.4-1.2,48.5c-0.4,16.1-0.8,32.2-1.1,48.3c-0.2,9.1-0.4,18.2-0.6,27.2
				c-0.1,2.3,1,4.8,2.6,6.4c0.8,0.9,1.8,1.5,2.9,1.9c1.1,0.6,2.2,0.8,3.5,0.8c2.3-0.1,4.8-0.9,6.4-2.6c1.6-1.8,2.6-3.9,2.6-6.4
				c0.4-16.2,0.8-32.4,1.2-48.5c0.4-16.1,0.8-32.2,1.1-48.3c0.2-9.1,0.4-18.2,0.6-27.2c0.1-2.3-1-4.8-2.6-6.4
				c-0.8-0.9-1.8-1.5-2.9-1.9c-1.1-0.6-2.2-0.8-3.5-0.8c-2.3,0.1-4.8,0.9-6.4,2.6C237.7,289.7,236.8,291.9,236.7,294.3L236.7,294.3z
				"/>
		</g>
	</g>
	<g>
		<path class="st3" d="M293.4,452.8c-3.7,2-5.7,5-4.8,9.8c2.4,6.3,9.1,9.4,18.8,9l14.1-1.3c1.1-0.1,2.2-0.1,3.2-0.1l18,0.5
			c9.8,0.4,19-0.4,27.2-2.5c7.3-2.7,11.4-7,8.4-14.9c-3.6-4-10.8-5.3-17.9-6.7L293.4,452.8z"/>
		<path class="st4" d="M330.7,441.3c3.4-6.2,9.5-10.8,19-12.2c0.4-0.1,0.8-0.1,1.2-0.1c12-0.7,21.5,2.3,25.5,10.3
			c2.3,4.6,2.4,10-0.1,14.4c-3.2,5.8-9.8,8.9-19,10.1c-0.9,0.1-1.8,0.2-2.7,0.1c-14.9-0.6-23-1.1-30-1.2c-3.3,0-6.6,0.2-9.9,0.7
			c-3.3,0.5-6.4,0.7-9.4,0.4c-5.5-0.5-10.3-3.8-12.6-8.8c-1.3-2.8-2.3-6.5-2.3-11.4c0-15.5,8-20.7,9.8-20.6c1.9,0.9,4,1.5,7,1.9
			c0,0,4.1-3,6.1-3c1.7,0,5.5,3.4,5.5,3.4c4.1-0.2,7.7-0.8,10.4-1.7c1.4,0.7,6.6,6.5,8.5,10"/>
		<path class="st5" d="M307.5,425.2c-8.2-1.4-14-5.3-14-9.8c0-5.7,9.4-10.4,21.1-10.4c11.6,0,21.1,4.6,21.1,10.4
			c0,5.1-7.5,9.3-17.3,10.2"/>
	</g>
	<g>
		<g>
			<path class="st6" d="M295.8,320.7c1.2,6.4,2.2,12.8,3.1,19.2c-0.1-0.8-0.2-1.6-0.3-2.4c1.3,9.6,2.2,19.3,2.8,29.1
				c0.6,9.7,0.7,19.5,0.6,29.3c-0.1,5.5-0.3,11-0.7,16.4c0,1.2,0.2,2.4,0.8,3.5c0.4,1.1,1,2.1,1.9,2.9c0.8,0.9,1.8,1.5,2.9,1.9
				c1.1,0.6,2.2,0.8,3.5,0.8c0.8-0.1,1.6-0.2,2.4-0.3c1.5-0.4,2.9-1.2,4-2.3c0.5-0.6,0.9-1.2,1.4-1.8c0.8-1.4,1.2-2.9,1.2-4.6
				c0.4-6.1,0.6-12.3,0.7-18.4c0.1-6.2,0-12.3-0.2-18.5c-0.2-6.1-0.6-12.3-1.1-18.4c-0.5-6.1-1.2-12.3-2-18.4
				c-0.9-6.8-1.9-13.7-3.1-20.5c-0.1-0.8-0.3-1.5-0.4-2.3c-0.3-1.2-0.8-2.2-1.6-3.1c-0.6-1-1.5-1.8-2.5-2.3c-1-0.7-2.2-1-3.4-1.1
				c-1.2-0.3-2.4-0.2-3.6,0.2c-0.7,0.3-1.4,0.6-2.2,0.9c-1.4,0.8-2.4,1.9-3.2,3.2c-0.3,0.7-0.6,1.4-0.9,2.2
				C295.3,317.5,295.3,319.1,295.8,320.7L295.8,320.7z"/>
		</g>
	</g>
	<g>
		<g>
			<path class="st6" d="M108.1,170.4c0.3,2.4,0.6,4.9,1.2,7.2c0.4,1.6,1,3.2,1.6,4.8c0.9,2.2,1.9,4.4,3.1,6.5
				c0.8,1.5,1.8,2.9,2.8,4.3c2.5,3.3,5.1,6.5,8.2,9.2c3.3,2.9,6.8,5.5,10.5,7.8c3.1,1.9,6.4,3.6,9.7,5.1c4.1,1.9,8.3,3.6,12.5,5.1
				c7.4,2.7,15,4.9,22.7,6.5c8.4,1.8,17.1,3,25.7,3.6c1,0.1,2,0.1,2.9,0.2c1.2,0,2.4-0.2,3.5-0.8c1.1-0.4,2.1-1,2.9-1.9
				c0.9-0.8,1.5-1.8,1.9-2.9c0.6-1.1,0.8-2.2,0.8-3.5c-0.1-0.8-0.2-1.6-0.3-2.4c-0.4-1.5-1.2-2.9-2.3-4c-0.6-0.5-1.2-0.9-1.8-1.4
				c-1.4-0.8-2.9-1.2-4.6-1.2c-4.6-0.2-9.2-0.7-13.8-1.3c0.8,0.1,1.6,0.2,2.4,0.3c-5.7-0.8-11.4-1.8-17-3.2
				c-5.6-1.4-11.2-3-16.6-4.9c-3-1-5.9-2.2-8.8-3.4c0.7,0.3,1.4,0.6,2.2,0.9c-5.1-2.1-10-4.6-14.6-7.6c-1.3-0.9-2.6-1.8-3.8-2.7
				c0.6,0.5,1.2,0.9,1.8,1.4c-3.4-2.7-6.6-5.7-9.3-9.2c0.5,0.6,0.9,1.2,1.4,1.8c-2.2-2.9-4.1-6-5.5-9.3c0.3,0.7,0.6,1.4,0.9,2.2
				c-1.2-2.8-2-5.7-2.4-8.8c0.1,0.8,0.2,1.6,0.3,2.4c0-0.3-0.1-0.6-0.1-0.9c0-1.2-0.2-2.4-0.8-3.5c-0.4-1.1-1-2.1-1.9-2.9
				c-0.8-0.9-1.8-1.5-2.9-1.9c-1.1-0.6-2.2-0.8-3.5-0.8c-0.8,0.1-1.6,0.2-2.4,0.3c-1.5,0.4-2.9,1.2-4,2.3c-0.5,0.6-0.9,1.2-1.4,1.8
				C108.5,167.2,108.1,168.8,108.1,170.4L108.1,170.4z"/>
		</g>
	</g>
	<g>
		<path class="st6" d="M335.4,25c-33.9-17.1-67.9-0.6-77.3,3.9c-32.6,15.7-46.8,44.3-59.3,69.6c-5.5,11.1-27.6,58.1-21.9,122.4
			c3,34.4,6.2,70.3,34.8,96.6c5.7,5.3,30.5,27.4,67,25.8c8.1-0.4,46.5-3.2,61.8-29.6c14.6-25.2-9.2-41.6-3.9-97.9
			c3.3-34.6,15.6-63.1,16.8-65.7c12.9-29.4,22.2-31.1,24.5-49C381.4,74,365.1,40,335.4,25z"/>
		<g>
			<path class="st7" d="M340.6,169.9c-3.1,4.8-4.4,10.6-5.7,16.3c-0.6,2.6-1.2,5.2-1.7,7.9c-0.4,2-0.9,4-1.1,6.1
				c-0.2,2.2-0.1,4.4-0.3,6.5c-0.5,7.2-3.5,14-4.5,21.2c-0.6,4.6-0.5,9.6-3,13.4c-2.1,3.1-6,4.8-9.5,3.8c-3.4-1.1-5.8-4.4-7.3-7.9
				c-3-6.7-4-14.3-3.8-21.7c0.2-7.4,1.6-14.8,3.2-22c1.3-6.2,2.8-12.5,6-17.8c1.6-2.7,3.5-5,5.5-7.4c1.4-1.7,2.8-3.4,4.6-4.6
				c0.9-0.6,1.9-1.1,2.9-1.4c3.1-1.1,6.5-1.2,9.5,0.1c3,1.3,5.5,4.2,5.9,7.7"/>
		</g>
	</g>
	<rect x="249.7" y="114.5" class="st8" width="27.4" height="15.9"/>
	<path class="st8" d="M334.1,126.9c3.7,2.4,7-1.3,10.9,0.9c6.2,3.4,2.6,14.7,8.3,17.6c3.6,1.8,9.2-0.5,11.6-4.1
		c4.3-6.3-2.1-15.5-3.3-17.3c-4.1-5.9-9.7-8.3-15-10.5c-6.3-2.6-11.4-4.8-14.4-2.3C328.3,114.3,329.5,123.9,334.1,126.9z"/>
	
		<ellipse transform="matrix(8.529630e-02 -0.9964 0.9964 8.529630e-02 157.0505 414.8367)" class="st9" cx="304.5" cy="121.9" rx="46.3" ry="27.4"/>
	
		<ellipse transform="matrix(8.529630e-02 -0.9964 0.9964 8.529630e-02 86.9125 329.0011)" class="st9" cx="222.6" cy="117.2" rx="46.3" ry="27.4"/>
	
		<ellipse transform="matrix(8.529620e-02 -0.9964 0.9964 8.529620e-02 159.3732 413.464)" class="st10" cx="304.9" cy="119.9" rx="33.4" ry="21.4"/>
	
		<ellipse transform="matrix(8.529620e-02 -0.9964 0.9964 8.529620e-02 84.1531 331.5343)" class="st10" cx="222.6" cy="119.9" rx="33.4" ry="21.4"/>
	<ellipse transform="matrix(0.1467 -0.9892 0.9892 0.1467 141.9185 407.368)" cx="307.1" cy="121.4" rx="21.7" ry="8.9"/>
	<polygon class="st11" points="317.2,110 304.4,123.9 317.2,124.4 	"/>
	<ellipse transform="matrix(0.1467 -0.9892 0.9892 0.1467 71.5225 316.7572)" cx="219.4" cy="116.9" rx="21.7" ry="8.9"/>
	<polygon class="st11" points="229.5,107.3 216.7,121.3 229.5,121.7 	"/>
	<path class="st12" d="M259.7,136.6c-1.5,0.9-4.7,2.9-6.8,6.9c-0.7,1.3-3.3,6.3-1.4,9.2c1.9,2.9,8.4,3.2,15.5-0.4"/>
	<path class="st11" d="M244.2,162.9h29.3c0,0,0.7,18.6-7.2,16.4c-7.9-2.3-7.9-16-7.9-16s1.5,16.7-5.7,16.2S244.2,162.9,244.2,162.9z
		"/>
	<g>
		<g>
			<g>
				<g>
					<path class="st13" d="M104.7,176.6c-5.8-2.5-10.5-7.4-12.7-13.4c-1.4-3.7-1.8-7.6-3.1-11.3c-1-2.7-2.4-5.2-3.6-7.8
						c-2.1-4.5-4.7-9.6-5.7-14.4c-0.8-4-0.3-4,2.9-6.2c1.1-0.8,2.9,0.1,4,0.9c1.1,0.8,2.1,2.2,2.8,3.3c1.8,2.9,3.1,5.9,4,9.2
						c0.6,2.2,1,3,2,4.5c0.9,1.4,1.4,2.1,2.5,2.5c0.2,0.1,1.1-0.2,2.1-0.9c0.6-0.4-0.1-1.3-0.4-1.9c-2.5-6.3-5.8-14.1-7.1-19.3
						c-0.2-1.5-0.6-3.9,0.1-5.3c0.7-1.4,1.4-2.2,2.8-3c1.3-0.7,3.8-0.5,5.2-0.1c1.1,0.3,1.9,1,2.6,1.9c1.7,2.2,2.4,5,3,7.7
						c0.9,3.7,1.8,7.5,2.2,11.3c0.2,1.6,0.5,3.5,1.9,4.1c0.8,0.3,1.7,0.1,2.5-0.1c0.3-0.1,0.6-0.2,0.8-0.4c0.4-0.4,0.2-1.1,0-1.6
						c-2-5.2-3.3-10.8-3.8-16.3c-0.1-0.8-0.1-1.7,0-2.5c0.4-2.7,3.2-4.7,5.9-4.6c2.7,0.1,5.2,2,6.4,4.4c1.2,2.3,1.3,5,1.3,7.6
						c0.1,4.1,0.3,8.2,0.4,12.3c0.1,2,0.1,4.1,0.8,6c0.1,0.3,0.2,0.5,0.5,0.6c0.3,0.1,0.6-0.1,0.8-0.3c2.4-2.2,4.7-4.4,7.5-5.9
						c2.8-1.5,6.3-2.1,9.3-0.8c0.6,0.3,1.2,0.6,1.6,1.1c1.4,1.7,0.6,4.3-0.7,6.1c-1.4,2-3.2,3.7-5.3,5c-1.3,0.8-2.7,1.4-3.9,2.3
						c-2,1.5-3.5,3.6-4.1,6.1c-0.6,2.1-0.5,4.4-0.9,6.5c-0.4,2.1-1.2,4.9-3.2,5.7c1.8,2.3,2,6.1-0.3,7.9c-1.1,0.9-3.2,1.7-4.6,2.1
						c-2.9,0.8-5.5,1.8-8.7,2.9c-3.5,1.4-7-2.5-7.2-5.4L104.7,176.6z"/>
					<g>
						<path class="st14" d="M104.9,176.2c-4-1.7-7.5-4.6-9.9-8.2c-1.3-1.9-2.2-3.9-2.9-6c-0.8-2.5-1.3-5.2-2-7.8
							c-0.7-2.6-1.8-5-3-7.4c-1.2-2.4-2.3-4.7-3.4-7.1c-1.1-2.4-2.2-4.8-3-7.3c-0.4-1.2-0.7-2.4-0.9-3.6c-0.1-0.7-0.3-1.4-0.1-2.1
							c0.2-1.2,1.7-1.9,2.7-2.6c0.4-0.3,0.7-0.4,1.2-0.4c0.5,0.1,1,0.2,1.4,0.5c1,0.5,1.8,1.2,2.6,2.1c0.8,1,1.4,2,2,3.1
							c0.6,1.1,1.2,2.2,1.7,3.4c0.5,1.2,1,2.4,1.3,3.7c0.3,1.1,0.6,2.1,1.1,3.1c0.4,0.9,0.9,1.7,1.4,2.5c0.5,0.8,1.1,1.6,1.9,2
							c0.3,0.2,0.7,0.3,1,0.2c0.4-0.1,0.9-0.3,1.3-0.5c0.5-0.2,1.1-0.5,1.2-1.1c0.1-0.5-0.2-1-0.4-1.4c-0.5-1-0.9-2.1-1.3-3.1
							c-0.5-1.2-0.9-2.3-1.4-3.5c-0.9-2.3-1.8-4.5-2.6-6.8c-0.7-2-1.4-4-1.9-6.1c-0.2-1-0.3-2-0.4-3c0-1.1,0.1-2,0.7-2.9
							c0.5-0.8,1.1-1.4,2-1.9c0.9-0.5,1.9-0.6,2.9-0.6c1,0,2.1,0.1,3,0.6c1,0.6,1.8,1.6,2.3,2.5c1.2,2.1,1.8,4.6,2.3,7
							c0.6,2.7,1.3,5.4,1.7,8.2c0.2,1.2,0.3,2.4,0.5,3.6c0.2,0.9,0.4,1.9,1.1,2.6c0.8,0.9,2,1,3.1,0.7c0.5-0.1,1.1-0.2,1.6-0.6
							c0.4-0.4,0.5-0.9,0.4-1.5c-0.1-0.6-0.4-1.2-0.6-1.8c-0.2-0.6-0.4-1.3-0.6-1.9c-0.4-1.3-0.8-2.6-1.1-3.9
							c-0.7-2.6-1.2-5.3-1.5-8c-0.1-1.3-0.4-2.7-0.1-3.9c0.2-1,0.8-1.9,1.5-2.6c1.5-1.4,3.7-1.8,5.6-1.2c2.1,0.7,3.7,2.4,4.5,4.4
							c1,2.4,1,5,1.1,7.6c0.1,2.9,0.2,5.7,0.3,8.6c0.1,2.7,0,5.4,0.6,8c0.1,0.6,0.3,1.3,0.7,1.7c0.4,0.4,1,0.4,1.4,0.1
							c0.5-0.3,0.9-0.8,1.4-1.2c0.5-0.4,0.9-0.9,1.4-1.3c1.9-1.7,3.9-3.3,6.2-4.2c2.2-0.9,4.8-1.2,7.1-0.4c1,0.4,2.1,1,2.4,2.1
							c0.3,1,0,2.1-0.4,3c-0.9,2.1-2.6,3.9-4.4,5.3c-2,1.5-4.4,2.4-6.3,4c-1.7,1.5-3,3.5-3.6,5.7c-0.7,2.5-0.5,5.1-1.1,7.6
							c-0.4,1.6-1,3.7-2.6,4.4c-0.3,0.1-0.5,0.4-0.3,0.7c1.2,1.6,1.7,3.8,1,5.7c-0.8,2-3.2,2.9-5.1,3.5c-1.2,0.4-2.5,0.7-3.7,1.2
							c-1.3,0.4-2.5,0.9-3.8,1.3c-1.1,0.4-2.3,1-3.5,0.9c-1-0.1-1.9-0.6-2.6-1.2c-0.8-0.7-1.5-1.7-1.9-2.7c-0.1-0.2-0.2-0.5-0.2-0.7
							c-0.1-0.2,0-0.6-0.1-0.8C105.6,176.5,105.2,176.3,104.9,176.2c-0.5-0.3-1,0.5-0.5,0.9c0.2,0.1,0.4,0.3,0.6,0.4
							c-0.1-0.1-0.2-0.3-0.2-0.4c0.1,2.1,1.4,4,3.1,5.2c0.8,0.6,1.8,1,2.9,1.1c1.3,0.1,2.5-0.5,3.7-0.9c1.3-0.5,2.6-0.9,3.9-1.4
							c1.2-0.4,2.5-0.8,3.7-1.2c2-0.7,4.4-1.6,5.3-3.7c1-2.2,0.5-4.9-1-6.8c-0.1,0.2-0.2,0.5-0.3,0.7c1.9-0.7,2.7-2.7,3.2-4.5
							c0.3-1.1,0.5-2.2,0.6-3.4c0.1-1.4,0.2-2.8,0.5-4.2c0.5-2.3,1.7-4.3,3.5-5.8c1-0.8,2.2-1.4,3.3-2c1.1-0.6,2.1-1.3,3.1-2
							c1.8-1.4,3.5-3.3,4.4-5.5c0.4-1,0.7-2.1,0.5-3.2c-0.2-1.1-0.8-2-1.8-2.6c-2.1-1.3-4.8-1.4-7.1-0.9c-2.5,0.6-4.7,1.9-6.7,3.4
							c-1,0.8-2,1.6-2.9,2.5c-0.5,0.4-0.9,0.9-1.4,1.3c-0.1,0-0.2,0.2-0.3,0.2c-0.1,0-0.1-0.1-0.2-0.2c-0.1-0.3-0.2-0.6-0.3-0.9
							c-0.3-1.3-0.4-2.7-0.5-4c-0.1-1.4-0.1-2.8-0.1-4.3c-0.1-2.9-0.2-5.8-0.3-8.7c-0.1-2.6-0.2-5.2-1.2-7.6c-0.9-2-2.5-3.7-4.5-4.6
							c-2-0.8-4.2-0.7-6.1,0.4c-0.9,0.5-1.6,1.3-2.1,2.2c-0.6,1-0.8,2.1-0.8,3.3c0,1.4,0.2,2.8,0.4,4.1c0.2,1.4,0.4,2.7,0.7,4
							c0.6,2.7,1.3,5.4,2.2,8c0.2,0.6,0.5,1.2,0.7,1.9c0.1,0.2,0.2,0.5,0,0.7c-0.1,0.2-0.4,0.3-0.6,0.3c-1.1,0.3-2.3,0.5-3-0.6
							c-0.5-0.8-0.6-1.8-0.7-2.8c-0.2-1.4-0.3-2.8-0.6-4.2c-0.5-2.7-1.1-5.5-1.8-8.2c-0.6-2.4-1.3-4.8-2.8-6.8
							c-0.7-0.9-1.6-1.8-2.7-2.2c-1-0.3-2.1-0.4-3.1-0.4c-1,0-2.1,0.1-3,0.6c-0.9,0.5-1.6,1.1-2.2,1.9c-0.6,0.9-1,1.8-1.1,2.8
							c-0.1,1.1,0,2.2,0.2,3.3c0.3,2,1,4,1.7,5.9c0.8,2.3,1.7,4.6,2.6,6.9c0.9,2.3,1.8,4.6,2.7,6.9c0.2,0.5,0.5,0.9,0.6,1.4
							c0.1,0.2-0.1,0.2-0.3,0.4c-0.3,0.2-0.6,0.3-0.9,0.5c-0.2,0.1-0.4,0.1-0.5,0.2c-0.1,0-0.1,0-0.1,0c-0.1,0,0.1,0,0,0
							c0,0-0.1,0-0.2-0.1c-0.4-0.2-0.7-0.5-1-0.8c-0.7-0.8-1.2-1.7-1.7-2.6c-0.5-0.9-0.8-1.8-1.1-2.8c-0.7-2.5-1.6-4.9-2.8-7.2
							c-1.1-2.1-2.3-4.5-4.3-6c-0.8-0.6-1.9-1.1-2.9-1.3c-0.5-0.1-1,0-1.4,0.2c-0.4,0.2-0.8,0.6-1.2,0.8c-1.1,0.8-2.2,1.5-2.4,2.9
							c-0.1,0.8,0,1.6,0.2,2.3c0.2,1.2,0.5,2.5,0.9,3.7c0.8,2.6,1.9,5.1,3,7.5c1.1,2.4,2.3,4.8,3.5,7.2c0.6,1.2,1.2,2.5,1.8,3.8
							c0.5,1.3,0.9,2.5,1.2,3.8c0.7,2.6,1.1,5.3,2,7.9c1.5,4.2,4.1,8.1,7.6,10.9c1.7,1.3,3.5,2.5,5.5,3.3c0.2,0.1,0.5,0.1,0.7-0.2
							C105.2,176.7,105.1,176.3,104.9,176.2z"/>
					</g>
				</g>
			</g>
			<g>
				<g>
					<path class="st15" d="M125.1,169.7c-0.6,0.5-1.4,1-2.1,1.3c-0.3,0.1-0.8,0.3-1.2,0.4c-0.4,0.1-0.9,0.2-1.2,0.2
						c-0.4,0-0.7,0.3-0.7,0.7c0,0.4,0.3,0.8,0.7,0.7c2.1-0.2,4-1,5.6-2.3c0.3-0.3,0.3-0.8,0-1C125.8,169.4,125.4,169.4,125.1,169.7
						L125.1,169.7z"/>
				</g>
			</g>
			<g>
				<g>
					<path class="st15" d="M109.8,174.7c-2,0.6-4.1,0.9-6.2,0.8c-0.4,0-0.7,0.4-0.7,0.7c0,0.4,0.3,0.7,0.7,0.7
						c2.2,0.1,4.5-0.2,6.6-0.8C111.1,175.8,110.7,174.4,109.8,174.7L109.8,174.7z"/>
				</g>
			</g>
			<g>
				<path class="st13" d="M116.7,140.1c-3.6-1.5-7.7-1-11.3,0.5c-3.6,1.5-6.7,3.9-9.7,6.3"/>
				<g>
					<path class="st14" d="M116.9,139.6c-5.9-2.4-12.3,0.3-17.2,3.7c-1.4,1-2.8,2.1-4.2,3.2c-0.5,0.4,0.2,1.1,0.7,0.7
						c4.6-3.6,9.6-7.4,15.7-7.5c1.7,0,3.3,0.2,4.8,0.9C117.2,140.8,117.5,139.9,116.9,139.6L116.9,139.6z"/>
				</g>
			</g>
		</g>
		<g>
			<path class="st13" d="M125.5,143.6c-1.3,0.1-2.2,1.2-3,2.2c-1.3,1.6-2.6,3.3-3.2,5.3c-0.7,2-0.7,4.2,0.4,6"/>
			<g>
				<path class="st14" d="M125.3,143.1c-1,0.1-1.9,0.8-2.5,1.5c-0.8,0.8-1.5,1.8-2.1,2.7c-1.3,1.9-2.4,4-2.4,6.3
					c0,1.3,0.3,2.5,0.9,3.6c0.3,0.5,1.2,0,0.9-0.5c-1.4-2.3-0.7-5.2,0.5-7.4c0.7-1.2,1.5-2.3,2.3-3.3c0.7-0.9,1.6-1.9,2.8-2.1
					c0.3,0,0.4-0.4,0.3-0.6C125.9,143.2,125.6,143.1,125.3,143.1L125.3,143.1z"/>
			</g>
		</g>
	</g>
	<g>
		<g>
			<path class="st6" d="M333.8,223c1.1,0.4,2.2,0.9,3.3,1.4c-0.7-0.3-1.4-0.6-2.2-0.9c6.2,2.6,12.3,5.6,18.2,8.8
				c5.9,3.2,11.7,6.8,17.2,10.6c3.1,2.2,6.2,4.4,9.2,6.7c-0.6-0.5-1.2-0.9-1.8-1.4c1.5,1.2,3.2,2.4,4.4,3.9
				c-0.5-0.6-0.9-1.2-1.4-1.8c0.3,0.4,0.6,0.8,0.8,1.3c-0.3-0.7-0.6-1.4-0.9-2.2c0.2,0.4,0.3,0.8,0.3,1.2c-0.1-0.8-0.2-1.6-0.3-2.4
				c0,0.4,0,0.8,0,1.2c0.1-0.8,0.2-1.6,0.3-2.4c-0.1,0.4-0.2,0.8-0.3,1.2c0.3-0.7,0.6-1.4,0.9-2.2c-0.2,0.5-0.5,0.9-0.8,1.3
				c0.5-0.6,0.9-1.2,1.4-1.8c-0.5,0.7-1.2,1.3-1.8,1.8c0.6-0.5,1.2-0.9,1.8-1.4c-1.8,1.4-3.9,2.3-6,3.3c-2.4,1.2-4.8,2.3-7.3,3.4
				c-1.4,0.6-2.8,1.2-4.2,1.8c0.7-0.3,1.4-0.6,2.2-0.9c-5,2.1-10.1,4.1-15.3,5.9c-1.2,0.3-2.2,0.8-3.1,1.6c-1,0.6-1.8,1.5-2.3,2.5
				c-0.7,1-1,2.2-1.1,3.4c-0.3,1.2-0.2,2.4,0.2,3.6c0.3,0.7,0.6,1.4,0.9,2.2c0.8,1.4,1.9,2.4,3.2,3.2c0.7,0.3,1.4,0.6,2.2,0.9
				c1.6,0.4,3.2,0.4,4.8,0c7.9-2.8,15.7-5.9,23.3-9.4c1.7-0.8,3.4-1.6,5.1-2.4c1.6-0.7,3.1-1.5,4.6-2.3c1.3-0.7,2.4-1.7,3.6-2.6
				c0.6-0.4,1.1-0.9,1.6-1.5c0.7-0.8,1.4-1.6,1.9-2.5c0.2-0.3,0.4-0.6,0.5-0.9c0.4-0.9,0.9-1.9,1.2-2.9c0.1-0.5,0.2-1.1,0.2-1.6
				c0.1-0.5,0.2-1.2,0.2-1.7c0-0.1,0-0.3,0-0.4c-0.1-0.9-0.2-1.9-0.4-2.9c-0.1-0.7-0.5-1.4-0.8-2.1c-0.3-0.7-0.5-1.4-1-2
				c-0.6-0.9-1.3-1.8-2-2.6c-1.1-1.2-2.4-2.2-3.6-3.2c-3.4-2.6-6.8-5.2-10.4-7.7c-5.9-4.1-11.9-7.8-18.2-11.3
				c-6.9-3.8-14-7.1-21.3-10.1c-0.8-0.3-1.7-0.7-2.5-1c-1.2-0.4-2.4-0.4-3.6-0.2c-1.2,0.1-2.3,0.4-3.4,1.1c-1.1,0.6-1.9,1.3-2.5,2.3
				c-0.8,0.9-1.3,1.9-1.6,3.1c-0.1,0.8-0.2,1.6-0.3,2.4c0,1.6,0.4,3.2,1.2,4.6c0.5,0.6,0.9,1.2,1.4,1.8
				C330.9,221.8,332.2,222.5,333.8,223L333.8,223z"/>
		</g>
	</g>
</g>
<g id="Capa_2_00000095311127720171313060000001297862505553778847_">
	
		<image style="display:none;overflow:visible;enable-background:new    ;" width="986" height="986" xlink:href="CB30E4C9.jpg"  transform="matrix(0.3626 0 0 0.3626 70.5647 -7.1632)">
	</image>
	
		<image style="display:none;overflow:visible;enable-background:new    ;" width="1046" height="1046" xlink:href="CB30E4CB.jpg"  transform="matrix(4.937277e-02 0 0 4.937277e-02 195.8593 75.9437)">
	</image>
	
		<image style="display:none;overflow:visible;enable-background:new    ;" width="1082" height="1449" xlink:href="CB30E4CE.jpg"  transform="matrix(0.1227 0 0 0.1227 18.2264 69.1023)">
	</image>
	<g>
		<polyline class="st16" points="180.7,187.3 198,181.4 256.4,207.9 315.8,181.4 333.4,186.9 334.3,213.8 208.5,214.6 180.7,188.1 
					"/>
		<path class="st17" d="M273.9,209.8l56.8-21c0,0,13.5-5.5,13,3.4c-0.4,8.8,0,103.5,0,103.5l-69.8,31.5V209.8z"/>
		<path class="st18" d="M274.1,327.2c-3.5,1.7-10.8,4.5-20.2,3.8c-6.1-0.5-10.8-2.3-13.9-3.8l-0.2-117.5c3,1.5,7.8,3.3,13.9,3.8
			c9.4,0.8,16.7-2.1,20.2-3.8L274.1,327.2z"/>
		<path class="st17" d="M239.8,209.6l-56.8-21c0,0-13.5-5.5-13,3.4c0.4,8.8,0,103.5,0,103.5l69.8,31.5V209.6z"/>
		<path class="st19" d="M273.8,229.5c-3.5,1.4-9.5,3.4-17.2,3.4c-7.5,0-13.3-1.9-16.8-3.4l0.1-4.5c3.4,1.4,9.3,3.3,16.8,3.4
			c7.7,0,13.7-1.9,17.2-3.4L273.8,229.5z"/>
		<path class="st19" d="M273.7,239.3c-3.5,1.4-9.5,3.4-17.2,3.4c-7.5,0-13.3-1.9-16.8-3.4l0.1-4.5c3.4,1.4,9.3,3.3,16.8,3.4
			c7.7,0,13.7-1.9,17.2-3.4L273.7,239.3z"/>
		<path class="st19" d="M274,312.6c-3.5,1.4-9.5,3.4-17.2,3.4c-7.5,0-13.3-1.9-16.8-3.4l0.1-4.5c3.4,1.4,9.3,3.3,16.8,3.4
			c7.7,0,13.7-1.9,17.2-3.4L274,312.6z"/>
		<path class="st19" d="M274,302.1c-3.5,1.4-9.5,3.4-17.2,3.4c-7.5,0-13.3-1.9-16.8-3.4l0.1-4.5c3.4,1.4,9.3,3.3,16.8,3.4
			c7.7,0,13.7-1.9,17.2-3.4L274,302.1z"/>
		
			<image style="overflow:visible;enable-background:new    ;" width="1138" height="2143" xlink:href="CB30E4CF.png"  transform="matrix(4.028461e-02 -3.107295e-03 3.107295e-03 4.028461e-02 281.8984 221.7245)">
		</image>
		<path class="st20" d="M289.5,224.6c-1.7-3-2.2-8.1,0.6-10.3c1.5-1.2,3.5-1.1,4.5-1c0.4-4.1,3.2-7.5,6.9-8.3c4.5-1,9.7,2,11,7.2
			c0,0,4.6-2,8.3,0.1c0.4,0.3,2.8,1.7,3.5,4.5c1.3,5-3.9,9.2-5.1,10.2c-0.4,0.3-1.8,1.4-4.9,2.5c-1.8,0.6-10.8,3.7-19.3-0.5
			C293,228,290.9,227,289.5,224.6z"/>
		<path d="M303.3,220.7c0.3,0-0.2,2,0.7,3.4c1.2,2.1,5.1,2.9,7.8,1.7c2.2-1,3.2-3.4,3.4-3.3c0.1,0.1-0.3,1.2-1.2,2.2
			c-1.5,1.7-3.5,2-4.1,2.1c-1.8,0.3-4.9,0.1-6.3-2c-0.4-0.7-0.8-1.8-0.7-3C303,221.3,303.2,220.7,303.3,220.7z"/>
		<path class="st20" d="M314.5,235.8c-1.8-0.7-4.4-1.5-7.8-1.7c-4.7-0.2-8.4,1.1-10.5,2l-0.2-6.7c1.3-0.9,3.8-2.3,7.1-2.8
			c5.7-0.8,10.1,1.7,11.5,2.5L314.5,235.8z"/>
		<g>
			<g>
				<path d="M294,213.3c0.5,1.2,1.5,2.3,2.6,3c0.1,0.1,0.2-0.1,0.1-0.2c-0.5-0.4-1-0.8-1.3-1.4c-0.3-0.5-0.5-1.1-0.7-1.7
					c-0.1-0.1-0.3-0.1-0.2,0.1c0.2,0.6,0.4,1.2,0.7,1.8c0.1,0.3,0.3,0.5,0.5,0.7c0.2,0.3,0.5,0.5,0.8,0.7c0-0.1,0.1-0.1,0.1-0.2
					c-1.1-0.7-2-1.7-2.5-3C294.2,213,293.9,213.2,294,213.3L294,213.3z"/>
			</g>
		</g>
		<path d="M301.8,226.6c-1.3,0.1-2.1-0.2-2.6-0.4c-1.2-0.6-2-1.6-2.6-2.3c-0.7-0.9-1-1.6-1.1-1.5c-0.1,0.1,0.1,1,0.3,1.5
			c0.3,0.7,1.3,2.4,5.1,3.5"/>
		<g>
			<g>
				<path class="st17" d="M284.7,262.4c0.5,1.8,0.9,3.7,1.2,5.6c0,0.3,0.4,0.4,0.6,0.3c0.3-0.1,0.4-0.3,0.3-0.6
					c-0.2-1.4-0.4-2.7-0.6-4.1c-0.1-0.5-0.9-0.4-0.9,0.1c0,1.7,0,3.3,0,5c0,0.6,0.9,0.6,1,0c0.1-2,0-4.1-0.2-6.1
					c-0.1-0.5-0.8-0.4-0.9,0c-0.5,1.9-0.2,4.1,0.9,5.7c0.3,0.5,1.1,0.1,0.8-0.5c-0.6-1.2-0.3-2.7,0.7-3.6c-0.3-0.1-0.5-0.2-0.8-0.3
					c0,0.6,0,1.3,0,1.9c0.3-0.1,0.6-0.2,0.9-0.2c-0.4-0.9-0.7-1.9-1-2.8c-0.1-0.5-0.9-0.4-0.9,0.1c0,1.9,0,3.7,0,5.6
					c0,0.6,1,0.6,1,0c0-1.9,0-3.7,0-5.6c-0.3,0-0.6,0.1-0.9,0.1c0.2,1.1,0.6,2.1,1,3.1c0.2,0.5,0.9,0.2,0.9-0.2c0-0.6,0-1.3,0-1.9
					c0-0.4-0.5-0.6-0.8-0.3c-1.3,1.2-1.6,3.2-0.8,4.8c0.3-0.2,0.5-0.3,0.8-0.5c-0.9-1.5-1.2-3.3-0.8-5c-0.3,0-0.6,0-0.9,0
					c0.3,1.9,0.3,3.9,0.2,5.8c0.3,0,0.6,0,1,0c0-1.7,0-3.3,0-5c-0.3,0-0.6,0.1-0.9,0.1c0.2,1.4,0.4,2.7,0.6,4.1
					c0.3-0.1,0.6-0.2,0.9-0.3c-0.3-1.9-0.7-3.7-1.2-5.6C285.4,261.5,284.5,261.8,284.7,262.4L284.7,262.4z"/>
			</g>
		</g>
		<g>
			<polygon class="st21" points="177.7,252.3 204.8,248.5 231.9,253.3 214.4,259.2 			"/>
			<g>
				<line class="st21" x1="212.6" y1="252" x2="208.3" y2="259.2"/>
				<g>
					<line class="st21" x1="184.5" y1="250.9" x2="182.3" y2="253.1"/>
					<line class="st21" x1="187.1" y1="250.7" x2="183.7" y2="253.8"/>
					<line class="st21" x1="189.6" y1="250.5" x2="186" y2="254"/>
					<line class="st21" x1="192.1" y1="250.1" x2="188.1" y2="254.6"/>
					<line class="st21" x1="194.9" y1="249.6" x2="190.8" y2="255"/>
					<line class="st21" x1="198.1" y1="249.2" x2="192.2" y2="255.6"/>
					<line class="st21" x1="199.6" y1="249.6" x2="194.6" y2="256.3"/>
					<line class="st21" x1="201.4" y1="250.5" x2="197.2" y2="256.2"/>
					<line class="st21" x1="203.8" y1="250.8" x2="199.2" y2="257"/>
					<line class="st21" x1="206.5" y1="251.2" x2="201" y2="257.2"/>
					<line class="st21" x1="207.5" y1="251.6" x2="203" y2="257.5"/>
					<line class="st21" x1="209" y1="251.9" x2="205" y2="258.4"/>
					<line class="st21" x1="211.3" y1="252" x2="207.1" y2="258.4"/>
					<line class="st21" x1="214.3" y1="252.5" x2="210.5" y2="258.5"/>
					<line class="st21" x1="217.1" y1="253.6" x2="211.9" y2="259"/>
					<line class="st21" x1="219.1" y1="253.9" x2="215" y2="258.8"/>
					<line class="st21" x1="221.4" y1="254.1" x2="218.7" y2="257.7"/>
					<line class="st21" x1="223.1" y1="254.5" x2="221.5" y2="256.7"/>
				</g>
			</g>
			<polygon class="st22" points="188.3,234.2 190.1,242.2 184.6,247.1 232,256.5 237.2,243.7 			"/>
			<polygon class="st22" points="240.2,263.5 176,251.5 169.9,266.4 236.5,279.4 233.3,271.2 			"/>
		</g>
		<text transform="matrix(0.9811 0.1933 -0.1933 0.9811 175.7378 262.9289)" class="st23 st24">RECETARIO</text>
		<text transform="matrix(0.9811 0.1933 -0.1933 0.9811 231.8322 273.9809)" class="st25 st24"> </text>
		<text transform="matrix(0.9811 0.1933 -0.1933 0.9811 196.1301 245.1772)" class="st23 st24">GRAN</text>
		<text transform="matrix(0.9811 0.1933 -0.1933 0.9811 225.2308 250.9107)" class="st25 st24"> </text>
	</g>
	<g>
		<g>
			<g>
				<polygon class="st26" points="339.6,272.1 341.1,274.4 333.4,279 331.9,276.7 				"/>
				<path class="st26" d="M340.3,272.7c0,0-5.4,1.3-7.2,4c-1,1.5-2.1,3.2-2.9,4.4c-1.1,1.6-2.6,3-4.4,3.8c-1.9,0.9-4.2,1.6-6.6,2
					l-1.9,1.4c-0.8,0.6-1.8,1-2.8,1.3l-12.9,3.2c-1.2,0.3-2.4,0.4-3.6,0.2c-6.2-0.9-7.1-7.6,1.1-10.4c-11.7,2.3-14.1-10.2-0.7-12.1
					c-5.2-1.3-5.6-5.9-2.8-8.2c0.9-0.8,2-1.2,3.2-1.3l15.5-1.5c1.3-0.1,2.5-0.3,3.8-0.6l10.6-2.2c1.5-0.3,3-0.5,4.5-0.5
					c1.8,0,3.4,0.2,5,0.7c2.6,0.8,5,1.9,6.8,3.1c0.5,0.3,0.9,0.9,0.9,1.5l0.7,3.4c0.2,0.9,0.8,1.6,1.7,2l3.8,1.5l-3.3,2.5
					c-0.7,0.5-1.1,1.3-1,2l0.3,5.7c0,0.5,0,0.9-0.2,1.4c-1.2,3.5-3.8,6.2-7.6,8.2c-2.2,1.1-4.5,2.1-7,3c-3.3,1.2-6.7,2-10.1,2.2
					c0,0-0.1,0-0.1,0c-1.6,0.1-3.1-0.4-4.1-1.4c-1.7-1.7-0.5-3.7,2.7-5.8"/>
				<line class="st27" x1="298" y1="283" x2="315.7" y2="279"/>
				<path class="st26" d="M297.4,270.5c4.8-0.1,11.3-0.6,18.3-1.4"/>
				<path class="st26" d="M317.2,282.9c-2.8-5.7-2.7-11.6-0.1-17.5"/>
			</g>
			<path class="st26" d="M347.3,271.8c-0.2,2.1,0.1,4.5,0.7,7c0,0,0,0,0,0c1.9,1,4.5,0.1,5.4-1.9c0.8-1.7,1.5-4.4,1-8.6
				c-0.5-4.2-2-6.4-3.2-7.4c-0.9-0.8-2.3-1-3.6-0.6c-0.7,0.2-1.4,0.5-2.1,0.9c0,1.9,0.4,3.7,1.1,5.4"/>
		</g>
		<g>
			<path class="st13" d="M328.4,283.6c0.9-1.1,1.7-2.3,2.6-3.4c0.6-0.8,1.2-1.5,1.6-2.4c0.4-0.7,0.7-1.4,1.2-2.1
				c1-1.2,2.5-1.9,3.9-2.5c0.8-0.3,1.6-0.6,2.3-1"/>
			<g>
				<path class="st13" d="M329.2,284c0.9-1.2,1.8-2.4,2.7-3.6c0.4-0.5,0.8-1.1,1.2-1.7c0.4-0.6,0.6-1.2,1-1.7c0.6-1,1.4-1.7,2.5-2.2
					c1.2-0.6,2.5-1.1,3.7-1.6c0.5-0.2,0.8-0.6,0.7-1.2c-0.1-0.5-0.7-0.9-1.2-0.7c-1.4,0.6-2.8,1.1-4.1,1.7c-1.2,0.6-2.3,1.4-3,2.6
					c-0.4,0.6-0.7,1.2-1,1.9c-0.4,0.6-0.8,1.2-1.2,1.8c-0.9,1.2-1.9,2.5-2.8,3.7c-0.3,0.4-0.1,1.1,0.3,1.3
					C328.4,284.7,328.9,284.4,329.2,284L329.2,284z"/>
			</g>
		</g>
		<g>
			<g>
				<path class="st13" d="M316.6,264.7c-2.7,1.2-3.1,4.4-3.1,7.1c0.1,2.6,0.1,5.3,0.6,7.9c0.3,1.4,0.8,2.7,1.6,3.9
					c0.4,0.6,1.3,0.9,2,0.5c0.6-0.4,1-1.3,0.5-2c-0.1-0.2-0.3-0.4-0.4-0.7c-0.1-0.1-0.1-0.2-0.2-0.3c0-0.1-0.1-0.1-0.1-0.2
					c0,0-0.1-0.3-0.1-0.1c0.1,0.1-0.1-0.2-0.1-0.2c0-0.1-0.1-0.2-0.1-0.4c-0.1-0.3-0.2-0.5-0.2-0.8c-0.1-0.3-0.1-0.5-0.2-0.8
					c0-0.1,0-0.3-0.1-0.4c0-0.1,0-0.1,0-0.2c0,0,0-0.3,0-0.1c0,0.1,0-0.2,0-0.3c0-0.1,0-0.3,0-0.4c0-0.3-0.1-0.6-0.1-0.9
					c-0.1-1.2-0.1-2.4-0.2-3.6c0-0.6-0.1-1.3,0-1.9c0-0.3,0-0.6,0-0.9c0-0.1,0-0.4,0-0.2c0-0.2,0.1-0.3,0.1-0.5
					c0-0.1,0.1-0.3,0.1-0.4c0-0.1,0-0.1,0.1-0.2c0,0,0.1-0.3,0-0.1c-0.1,0.2,0,0,0,0c0-0.1,0.1-0.1,0.1-0.2c0.1-0.1,0.1-0.2,0.2-0.4
					c0-0.1,0.1-0.1,0.1-0.1c-0.1,0.1-0.1,0.1,0,0c0.1-0.1,0.2-0.2,0.3-0.3c0,0,0.1-0.1,0.1-0.1c-0.1,0.1-0.1,0.1,0,0
					c0.1-0.1,0.3-0.2,0.4-0.2c0.7-0.3,0.9-1.3,0.5-2C318.1,264.5,317.3,264.4,316.6,264.7L316.6,264.7z"/>
			</g>
		</g>
		<g>
			<g>
				<path class="st14" d="M316.8,278.8c1.2-0.8,2.7-1.3,4.1-1.4c0.5,0,0.5-0.7,0-0.7c-1.6,0.1-3.1,0.6-4.5,1.5
					C316.1,278.4,316.4,279,316.8,278.8L316.8,278.8z"/>
			</g>
		</g>
		<g>
			<g>
				<path class="st14" d="M316.7,270.7c1.4,0.1,2.7,0.3,4.1,0.5c0.2,0,0.4-0.1,0.4-0.3c0-0.2-0.1-0.4-0.3-0.4
					c-1.4-0.3-2.8-0.4-4.3-0.5C316.2,270,316.2,270.7,316.7,270.7L316.7,270.7z"/>
			</g>
		</g>
	</g>
</g>
</svg>
