<svg id="Capa_1" data-name="Capa 1" xmlns="http://www.w3.org/2000/svg" viewBox="0 0 500 500"><defs><style>.cls-1{fill:#e89634;}.cls-2{fill:#fdaf40;}.cls-3{fill:#f2f2f2;}.cls-4{fill:#7ec1aa;}.cls-5,.cls-8{fill:#91d2be;}.cls-6{fill:#4a6659;}.cls-7{fill:#d6d6d6;}.cls-8{isolation:isolate;opacity:0.3;}.cls-9{fill:#fff;}.cls-10{font-size:12px;font-family:Varela;}.cls-11{font-size:13px;font-family:LilitaOne, Lilita One;}.cls-12{letter-spacing:-0.06em;}</style></defs><g id="Capa_2" data-name="Capa 2"><rect class="cls-1" x="118.24" y="70.42" width="262" height="411" rx="29.16"/><rect class="cls-2" x="124.24" y="65.42" width="262" height="411" rx="29.16"/><rect class="cls-3" x="136.24" y="105.42" width="238" height="347" rx="1.9"/><path class="cls-4" d="M170.38,80.26H342.93c-6.15-16.14-12.49-33.4-25.29-34.56H294.37C281.57,2.65,232.7,5,221.07,46.86H193.14C181.51,46.86,174.85,64.42,170.38,80.26Z"/><path class="cls-5" d="M170.71,80.28H345.24c-6.15-16.14-12.8-31.42-25.6-32.58H296.37C283.57,4.65,234.7,7,223.07,48.86H195.14C183.51,48.86,175.17,64.48,170.71,80.28Z"/><circle class="cls-6" cx="260.46" cy="45.39" r="8.14" transform="matrix(0.16, -0.99, 0.99, 0.16, 173.93, 295.21)"/><circle class="cls-7" cx="150.72" cy="155.74" r="6.5"/><ellipse class="cls-2" cx="151.44" cy="155.74" rx="5.78" ry="6.5"/><circle class="cls-7" cx="150.38" cy="205.56" r="6.5"/><ellipse class="cls-2" cx="151.1" cy="205.56" rx="5.78" ry="6.5"/><circle class="cls-7" cx="150.38" cy="255.56" r="6.5"/><ellipse class="cls-2" cx="151.1" cy="255.56" rx="5.78" ry="6.5"/><circle class="cls-7" cx="150.38" cy="304.88" r="6.5"/><ellipse class="cls-2" cx="151.1" cy="304.88" rx="5.78" ry="6.5"/><circle class="cls-7" cx="150.38" cy="355.28" r="6.5"/><ellipse class="cls-2" cx="151.1" cy="355.28" rx="5.78" ry="6.5"/><circle class="cls-7" cx="150.38" cy="405.28" r="6.5"/><ellipse class="cls-2" cx="151.1" cy="405.28" rx="5.78" ry="6.5"/><rect class="cls-8" x="162.21" y="163.17" width="199.83" height="0.97"/><rect class="cls-8" x="162.16" y="152.43" width="199.83" height="0.97"/><rect class="cls-8" x="162.37" y="141.28" width="199.83" height="0.97"/><rect class="cls-8" x="162.16" y="174.35" width="199.83" height="0.97"/><rect class="cls-8" x="162.2" y="185.19" width="199.83" height="0.97"/><rect class="cls-8" x="162.2" y="196.39" width="199.83" height="0.97"/><rect class="cls-8" x="162.34" y="217.91" width="199.83" height="0.97"/><rect class="cls-8" x="162.3" y="207.17" width="199.83" height="0.97"/><rect class="cls-8" x="162.3" y="229.09" width="199.83" height="0.97"/><rect class="cls-8" x="162.33" y="239.93" width="199.83" height="0.97"/><rect class="cls-8" x="162.33" y="251.13" width="199.83" height="0.97"/><rect class="cls-8" x="161.99" y="272.47" width="199.83" height="0.97"/><rect class="cls-8" x="161.95" y="261.73" width="199.83" height="0.97"/><rect class="cls-8" x="161.95" y="283.65" width="199.83" height="0.97"/><rect class="cls-8" x="161.99" y="294.49" width="199.83" height="0.97"/><rect class="cls-8" x="161.99" y="305.69" width="199.83" height="0.97"/><rect class="cls-8" x="162.21" y="327.99" width="199.83" height="0.97"/><rect class="cls-8" x="162.16" y="317.25" width="199.83" height="0.97"/><rect class="cls-8" x="162.16" y="339.17" width="199.83" height="0.97"/><rect class="cls-8" x="162.2" y="350.01" width="199.83" height="0.97"/><rect class="cls-8" x="162.2" y="361.21" width="199.83" height="0.97"/><rect class="cls-8" x="162.22" y="382.61" width="199.83" height="0.97"/><rect class="cls-8" x="162.18" y="371.87" width="199.83" height="0.97"/><rect class="cls-8" x="162.18" y="393.79" width="199.83" height="0.97"/><rect class="cls-8" x="162.22" y="404.63" width="199.83" height="0.97"/><rect class="cls-8" x="162.22" y="415.83" width="199.83" height="0.97"/><ellipse class="cls-9" cx="261.28" cy="45.39" rx="7.32" ry="8.14"/></g><text class="cls-10" transform="translate(162.51 161.94)"><tspan xml:space="preserve">Pan integral o linaza  2 rebanadas.</tspan><tspan x="0" y="17">Mayonesa light 1 cucharada.</tspan><tspan x="0" y="34">Queso panela 40 grms.</tspan><tspan x="0" y="51">Lechuga 1-2 hojas medianas.</tspan><tspan x="0" y="68">Jitomate 2 rodajas medianas.</tspan><tspan x="0" y="85">Aguacate 2 rebanadas pequeñas.</tspan><tspan x="0" y="102" xml:space="preserve">  </tspan><tspan x="0" y="119">Fruta:</tspan><tspan x="0" y="136">Papaya picada 1 taza</tspan><tspan x="0" y="170">Bebida:</tspan><tspan x="0" y="187">Leche 150 ml. </tspan></text><text class="cls-11" transform="translate(175.94 130.19)">SÁNDWICH DE QUESO <tspan class="cls-12" x="126.93" y="0">P</tspan><tspan x="133.56" y="0">ANELA</tspan></text></svg>