<svg id="Capa_1" data-name="Capa 1" xmlns="http://www.w3.org/2000/svg" viewBox="0 0 500 500"><defs><style>.cls-1{fill:#e89634;}.cls-2{fill:#fdaf40;}.cls-3{fill:#f2f2f2;}.cls-4{fill:#7ec1aa;}.cls-5,.cls-8{fill:#91d2be;}.cls-6{fill:#4a6659;}.cls-7{fill:#d6d6d6;}.cls-8{isolation:isolate;opacity:0.3;}.cls-9{fill:#fff;}.cls-10,.cls-11{font-size:12px;}.cls-10{font-family:Varela;}.cls-11{font-family:LilitaOne, Lilita One;}</style></defs><g id="Capa_2" data-name="Capa 2"><rect class="cls-1" x="117.32" y="66.02" width="262" height="411" rx="29.16"/><rect class="cls-2" x="123.32" y="61.02" width="262" height="411" rx="29.16"/><rect class="cls-3" x="135.32" y="101.02" width="238" height="347" rx="1.9"/><path class="cls-4" d="M169.46,75.86H342c-6.15-16.14-12.49-33.4-25.29-34.56H293.45c-12.8-43-61.67-40.72-73.3,1.16H192.22C180.59,42.46,173.93,60,169.46,75.86Z"/><path class="cls-5" d="M169.79,75.88H344.32c-6.15-16.14-12.8-31.42-25.6-32.58H295.45c-12.8-43-61.67-40.72-73.3,1.16H194.22C182.59,44.46,174.25,60.08,169.79,75.88Z"/><circle class="cls-6" cx="259.54" cy="40.99" r="8.14" transform="matrix(0.16, -0.99, 0.99, 0.16, 177.5, 290.61)"/><circle class="cls-7" cx="149.8" cy="151.34" r="6.5"/><ellipse class="cls-2" cx="150.52" cy="151.34" rx="5.78" ry="6.5"/><circle class="cls-7" cx="149.46" cy="201.16" r="6.5"/><ellipse class="cls-2" cx="150.18" cy="201.16" rx="5.78" ry="6.5"/><circle class="cls-7" cx="149.46" cy="251.16" r="6.5"/><ellipse class="cls-2" cx="150.18" cy="251.16" rx="5.78" ry="6.5"/><circle class="cls-7" cx="149.46" cy="300.48" r="6.5"/><ellipse class="cls-2" cx="150.18" cy="300.48" rx="5.78" ry="6.5"/><circle class="cls-7" cx="149.46" cy="350.88" r="6.5"/><ellipse class="cls-2" cx="150.18" cy="350.88" rx="5.78" ry="6.5"/><circle class="cls-7" cx="149.46" cy="400.88" r="6.5"/><ellipse class="cls-2" cx="150.18" cy="400.88" rx="5.78" ry="6.5"/><rect class="cls-8" x="161.29" y="158.77" width="199.83" height="0.97"/><rect class="cls-8" x="161.24" y="148.03" width="199.83" height="0.97"/><rect class="cls-8" x="161.45" y="136.88" width="199.83" height="0.97"/><rect class="cls-8" x="161.24" y="169.95" width="199.83" height="0.97"/><rect class="cls-8" x="161.28" y="180.79" width="199.83" height="0.97"/><rect class="cls-8" x="161.28" y="191.99" width="199.83" height="0.97"/><rect class="cls-8" x="161.42" y="213.51" width="199.83" height="0.97"/><rect class="cls-8" x="161.38" y="202.77" width="199.83" height="0.97"/><rect class="cls-8" x="161.38" y="224.69" width="199.83" height="0.97"/><rect class="cls-8" x="161.41" y="235.53" width="199.83" height="0.97"/><rect class="cls-8" x="161.41" y="246.73" width="199.83" height="0.97"/><rect class="cls-8" x="161.07" y="268.07" width="199.83" height="0.97"/><rect class="cls-8" x="161.03" y="257.33" width="199.83" height="0.97"/><rect class="cls-8" x="161.03" y="279.25" width="199.83" height="0.97"/><rect class="cls-8" x="161.07" y="290.09" width="199.83" height="0.97"/><rect class="cls-8" x="161.07" y="301.29" width="199.83" height="0.97"/><rect class="cls-8" x="161.29" y="323.59" width="199.83" height="0.97"/><rect class="cls-8" x="161.24" y="312.85" width="199.83" height="0.97"/><rect class="cls-8" x="161.24" y="334.77" width="199.83" height="0.97"/><rect class="cls-8" x="161.28" y="345.61" width="199.83" height="0.97"/><rect class="cls-8" x="161.28" y="356.81" width="199.83" height="0.97"/><rect class="cls-8" x="161.3" y="378.21" width="199.83" height="0.97"/><rect class="cls-8" x="161.26" y="367.47" width="199.83" height="0.97"/><rect class="cls-8" x="161.26" y="389.39" width="199.83" height="0.97"/><rect class="cls-8" x="161.3" y="400.23" width="199.83" height="0.97"/><rect class="cls-8" x="161.3" y="411.43" width="199.83" height="0.97"/><ellipse class="cls-9" cx="260.36" cy="40.99" rx="7.32" ry="8.14"/><rect class="cls-8" x="160.96" y="421.15" width="199.83" height="0.97"/><rect class="cls-8" x="160.96" y="432.35" width="199.83" height="0.97"/></g><text class="cls-10" transform="translate(166.25 157.89)">Verduras mixtas ½ taza.<tspan x="0" y="17" xml:space="preserve">Arroz  cocido  ¼  taza </tspan><tspan x="0" y="34">(1/2 cucharada de guiso). </tspan><tspan x="0" y="51" xml:space="preserve">Aceite 2  cucharadas.</tspan><tspan x="0" y="68">Pierna de pollo sin piel 1 pza o</tspan><tspan x="0" y="85">pechuga deshebrada 30 g.</tspan><tspan x="0" y="102" xml:space="preserve">Caldo de pollo  desengrasado. </tspan><tspan x="0" y="119">con orégano 1 taza. </tspan><tspan x="0" y="136" xml:space="preserve">Tortilla de maíz  1  pieza. </tspan><tspan x="0" y="170">Fruta:</tspan><tspan x="0" y="187" xml:space="preserve"> Uvas 10 pzas.</tspan><tspan x="0" y="221">Bebida: </tspan><tspan x="0" y="238">Agua de Jamaica 1 taza </tspan><tspan x="0" y="255">(endulzada con sustituto de azúcar)</tspan><tspan x="0" y="272"> </tspan></text><text class="cls-11" transform="translate(172.13 120.72)">CALDO DE POLLO CON VERDURA <tspan x="60.51" y="17">Y ARROZ</tspan></text></svg>