<svg id="Capa_1" data-name="Capa 1" xmlns="http://www.w3.org/2000/svg" viewBox="0 0 500 500"><defs><style>.cls-1{fill:#e89634;}.cls-2{fill:#fdaf40;}.cls-3{fill:#f2f2f2;}.cls-4{fill:#7ec1aa;}.cls-5,.cls-8{fill:#91d2be;}.cls-6{fill:#4a6659;}.cls-7{fill:#d6d6d6;}.cls-8{isolation:isolate;opacity:0.3;}.cls-9{fill:#fff;}.cls-10{font-size:12px;font-family:Varela;}.cls-11{font-size:13px;font-family:LilitaOne, Lilita One;}.cls-12{letter-spacing:-0.06em;}</style></defs><g id="Capa_2" data-name="Capa 2"><rect class="cls-1" x="116" y="72.39" width="262" height="411" rx="29.16"/><rect class="cls-2" x="122" y="67.39" width="262" height="411" rx="29.16"/><rect class="cls-3" x="134" y="107.39" width="238" height="347" rx="1.9"/><path class="cls-4" d="M168.14,82.22H340.69c-6.15-16.14-12.49-33.4-25.29-34.56H292.13c-12.8-43-61.67-40.72-73.3,1.16H190.9C179.27,48.83,172.61,66.39,168.14,82.22Z"/><path class="cls-5" d="M168.47,82.25H343c-6.15-16.14-12.8-31.42-25.6-32.58H294.13c-12.8-43.05-61.67-40.73-73.3,1.16H192.9C181.27,50.83,172.93,66.45,168.47,82.25Z"/><circle class="cls-6" cx="258.22" cy="47.36" r="8.14" transform="matrix(0.16, -0.99, 0.99, 0.16, 170.11, 294.66)"/><circle class="cls-7" cx="148.48" cy="157.71" r="6.5"/><ellipse class="cls-2" cx="149.2" cy="157.71" rx="5.78" ry="6.5"/><circle class="cls-7" cx="148.14" cy="207.53" r="6.5"/><ellipse class="cls-2" cx="148.86" cy="207.53" rx="5.78" ry="6.5"/><circle class="cls-7" cx="148.14" cy="257.53" r="6.5"/><ellipse class="cls-2" cx="148.86" cy="257.53" rx="5.78" ry="6.5"/><circle class="cls-7" cx="148.14" cy="306.84" r="6.5"/><ellipse class="cls-2" cx="148.86" cy="306.84" rx="5.78" ry="6.5"/><circle class="cls-7" cx="148.14" cy="357.24" r="6.5"/><ellipse class="cls-2" cx="148.86" cy="357.24" rx="5.78" ry="6.5"/><circle class="cls-7" cx="148.14" cy="407.24" r="6.5"/><ellipse class="cls-2" cx="148.86" cy="407.24" rx="5.78" ry="6.5"/><rect class="cls-8" x="159.97" y="165.14" width="199.83" height="0.97"/><rect class="cls-8" x="159.92" y="154.39" width="199.83" height="0.97"/><rect class="cls-8" x="160.13" y="143.25" width="199.83" height="0.97"/><rect class="cls-8" x="159.92" y="176.31" width="199.83" height="0.97"/><rect class="cls-8" x="159.96" y="187.16" width="199.83" height="0.97"/><rect class="cls-8" x="159.96" y="198.36" width="199.83" height="0.97"/><rect class="cls-8" x="160.1" y="219.88" width="199.83" height="0.97"/><rect class="cls-8" x="160.06" y="209.14" width="199.83" height="0.97"/><rect class="cls-8" x="160.06" y="231.06" width="199.83" height="0.97"/><rect class="cls-8" x="160.09" y="241.89" width="199.83" height="0.97"/><rect class="cls-8" x="160.09" y="253.1" width="199.83" height="0.97"/><rect class="cls-8" x="159.75" y="274.43" width="199.83" height="0.97"/><rect class="cls-8" x="159.71" y="263.69" width="199.83" height="0.97"/><rect class="cls-8" x="159.71" y="285.62" width="199.83" height="0.97"/><rect class="cls-8" x="159.75" y="296.46" width="199.83" height="0.97"/><rect class="cls-8" x="159.75" y="307.65" width="199.83" height="0.97"/><rect class="cls-8" x="159.97" y="329.96" width="199.83" height="0.97"/><rect class="cls-8" x="159.92" y="319.21" width="199.83" height="0.97"/><rect class="cls-8" x="159.92" y="341.14" width="199.83" height="0.97"/><rect class="cls-8" x="159.96" y="351.97" width="199.83" height="0.97"/><rect class="cls-8" x="159.96" y="363.18" width="199.83" height="0.97"/><rect class="cls-8" x="159.98" y="384.58" width="199.83" height="0.97"/><rect class="cls-8" x="159.94" y="373.84" width="199.83" height="0.97"/><rect class="cls-8" x="159.94" y="395.75" width="199.83" height="0.97"/><rect class="cls-8" x="159.98" y="406.59" width="199.83" height="0.97"/><rect class="cls-8" x="159.98" y="417.8" width="199.83" height="0.97"/><ellipse class="cls-9" cx="259.04" cy="47.36" rx="7.32" ry="8.14"/><rect class="cls-8" x="159.64" y="427.51" width="199.83" height="0.97"/><rect class="cls-8" x="159.64" y="438.71" width="199.83" height="0.97"/></g><text class="cls-10" transform="translate(164.49 177.45)"><tspan xml:space="preserve">Espinaca cocida  ½ taza.</tspan><tspan x="0" y="17">Queso panela 40 grms.</tspan><tspan x="0" y="34">Tortilla de maíz 2 piezas. </tspan><tspan x="0" y="51">Aguacate 2-3 rebanadas pequeñas.</tspan><tspan x="0" y="68">Pan tostado integral 1 rebanada. </tspan><tspan x="0" y="102">Bebida:</tspan><tspan x="0" y="119" xml:space="preserve">Leche  150 ml. </tspan><tspan x="0" y="136"> </tspan><tspan x="0" y="153">Fruta:</tspan><tspan x="0" y="170" xml:space="preserve">Manzana  cocida ½   </tspan></text><text class="cls-11" transform="translate(164.51 128.92)">QUESADILLAS DE ESPINACA CON <tspan x="49.37" y="17">QUESO </tspan><tspan class="cls-12" x="91.52" y="17">P</tspan><tspan x="98.15" y="17">ANELA </tspan></text></svg>