<svg xmlns="http://www.w3.org/2000/svg" xmlns:xlink="http://www.w3.org/1999/xlink" viewBox="0 0 300 300"><defs><style>.cls-1,.cls-10,.cls-16{fill:none;}.cls-2{clip-path:url(#clip-path);}.cls-3{fill:#8eb9bf;}.cls-4{fill:#195600;}.cls-15,.cls-5,.cls-6,.cls-7{fill:#fff;}.cls-5{opacity:0.9;}.cls-6{opacity:0.7;}.cls-7{opacity:0.5;}.cls-8{fill:#639113;}.cls-9{fill:#eaeaea;}.cls-10,.cls-9{stroke:#545454;}.cls-10,.cls-16,.cls-9{stroke-miterlimit:10;}.cls-11{fill:#487003;}.cls-12{fill:#ffccd6;}.cls-13{fill:#f23d57;}.cls-14{fill:#190606;}.cls-16{stroke:#190606;}.cls-17{fill:#ff77a3;}</style><clipPath id="clip-path"><circle class="cls-1" cx="149.5" cy="151.1" r="145.42"/></clipPath></defs><g id="Capa_3" data-name="Capa 3"><g class="cls-2"><circle class="cls-3" cx="149.5" cy="151.1" r="145.42"/><rect class="cls-4" x="-38.61" y="244.5" width="393.1" height="141.35"/><path class="cls-5" d="M189.15,29.61c1.6-5.68,4.72-7.92,11.14-8,.22-3.88,1.24-7.45,4.55-9.95A11.81,11.81,0,0,1,211.76,9c6.09-.17,10.27,3.06,12.49,9.82,2.91-1.49,5.87-2,8.76,0s3.7,4.82,3.15,8.36a10.84,10.84,0,0,1,7.35-.44A9.75,9.75,0,0,1,250.21,37,9.32,9.32,0,0,1,241,45.45c-3.91.11-7.84,0-11.75,0-6.67,0-13.34.12-20,.12-7.78,0-15.56,0-23.34-.17a8.07,8.07,0,1,1,1.23-16.09C187.76,29.42,188.39,29.51,189.15,29.61Z"/><path class="cls-6" d="M235.34,100a27.1,27.1,0,0,1,4.54-.27,8.44,8.44,0,0,1,6.7,4.44,1.51,1.51,0,0,0,1.57,1,5.59,5.59,0,0,1,4,9.67,5.53,5.53,0,0,1-6.34,1A1.48,1.48,0,0,0,244,116a8.8,8.8,0,0,1-9.89.33L233,115.7c-2.33,2.18-4.47,2.21-6.44,1.28a20,20,0,0,1-3.5,1.92,5.41,5.41,0,0,1-6.79-3.67,1.1,1.1,0,0,0-1.17-.92,6,6,0,0,1-5.55-4.58,5.93,5.93,0,0,1,2.69-6.28,19.81,19.81,0,0,1,3.3-1.15,9.84,9.84,0,0,1,3.53-7.62,9.53,9.53,0,0,1,5.51-2.34C229.58,92,232.84,94.32,235.34,100Z"/><path class="cls-5" d="M91.25,23.86A9.65,9.65,0,0,1,102,31.47a25.23,25.23,0,0,1,3-.41,6.24,6.24,0,0,1,6.42,5.7c.26,3.69-1.92,6.59-5.44,7.06a32.06,32.06,0,0,1-3.92,0c-5.29,0-10.58.1-15.87.1s-10.68-.06-16-.09H59.5A7.26,7.26,0,0,1,52.33,37a7.48,7.48,0,0,1,6.13-7.58c.28-.06.57-.1,1-.17.11-2,.28-3.94,2-5.36A5.67,5.67,0,0,1,67.11,23c1.77-7.27,6.13-11.19,13.76-10.47C86.35,13,89.55,16.69,91.25,23.86Z"/><path class="cls-7" d="M283.22,175c-1.69,4.48-5.29,5.72-9.21,3.21a21.19,21.19,0,0,1-1.84,1.44,5.49,5.49,0,0,1-7.82-2.25,1.31,1.31,0,0,0-1.08-.78,23,23,0,0,1-3-1.15,11.17,11.17,0,0,1-2.17.55,4.58,4.58,0,0,1-4.75-4,4.67,4.67,0,0,1,3.95-5.2,1,1,0,0,0,.66-.5c.9-2.64,2.45-3.38,5-2.26a5.45,5.45,0,0,1,3.61-2.39,5.85,5.85,0,0,1,4.22.82,18.9,18.9,0,0,1,2.4-1.7,5.47,5.47,0,0,1,7.73,3.25,1,1,0,0,0,1,.81c2.34.19,3.41,1.69,3.31,4.47,2.35.62,3.1,2.46,2.43,4.17S285.24,175.78,283.22,175Z"/><path class="cls-7" d="M45.58,167c-2.15,2.64-3.76,3.06-6.85,1.85a7.11,7.11,0,0,1-12.46-2.29,9,9,0,0,1-7.4-.78,8.76,8.76,0,0,1-3-12.37,8.58,8.58,0,0,1,8.52-4,1.3,1.3,0,0,0,1.49-.8c3.5-6.48,11.48-7.27,16.23-1.67l.39.45c2.23-1.16,4.08-.65,5.64,1.23a1,1,0,0,0,.84.26c4.89-1.1,8.09.85,9.3,5.68a1.24,1.24,0,0,0,.1.2c3.82.71,5.56,2.65,5,5.53s-3,4-6.51,3.18a6.14,6.14,0,0,1-4.59,5.83A6,6,0,0,1,45.58,167Z"/><path class="cls-8" d="M54,99.65c-3.1,4.76-4.84,10.6-6.21,16.07a120.44,120.44,0,0,0-3.22,20.67c-.39,5.62-.49,11.75,1.14,17.2a35.38,35.38,0,0,0,13.68,18.54c6.08,4.36,13.39,6.73,20.22,9.61L77.82,181a72.69,72.69,0,0,1,11.67,6,7.58,7.58,0,0,0,10.27-2.69A7.68,7.68,0,0,0,97.07,174c-6.48-4.25-13.82-6.86-20.93-9.84l1.8.76c-2.06-.87-4.09-1.77-6.07-2.8-.94-.49-1.87-1-2.78-1.57-.47-.29-.93-.59-1.39-.9a7.66,7.66,0,0,0-1.34-1c.18.06,1.62,1.3.69.53l-.58-.48c-.42-.36-.83-.73-1.23-1.12-.78-.75-1.49-1.55-2.19-2.37-.84-1,1.14,1.59.4.52l-.46-.66c-.34-.49-.66-1-1-1.51a30.66,30.66,0,0,1-1.7-3.39l.75,1.79a23.21,23.21,0,0,1-1.6-5.84l.27,2c-.81-6.14-.29-12.47.53-18.59l-.27,2a87.36,87.36,0,0,1,5.43-21.78l-.75,1.79a28.17,28.17,0,0,1,2.27-4.4A7.56,7.56,0,0,0,64.26,97,7.66,7.66,0,0,0,54,99.65Z"/><path class="cls-9" d="M74.21,98.54l-.27,5a5.56,5.56,0,0,1-2.22,4.22c-2.06,1.47-6,2.76-13.1,1.16-6.81-1.52-9.93-3.92-11.36-5.85a4.52,4.52,0,0,1-.2-4.85l2.57-4.54Z"/><path class="cls-9" d="M62.33,100.11c1.94,1.66,5.07,2.38,8.6,2.79a8.67,8.67,0,0,0,4.86-.81,15.86,15.86,0,0,0,6.35-5.29A12.35,12.35,0,0,1,85.94,93a9.28,9.28,0,0,1,6.54-1.33c.31,0,.63.11,1,.15a38.13,38.13,0,0,0,14.2-1c4.22-1.17,5.83-6.39,3.21-10.33a7.89,7.89,0,0,0-4-3c-5.88-2-11.4-1.2-18.35.74a30.35,30.35,0,0,1,.3-4.9A16.3,16.3,0,0,1,91,67.2c3.58-5.91,7.17-13.15,8.92-20.47,1.65-6-2.39-10.18-7.48-9.68a9.27,9.27,0,0,0-7.37,5.32,49.55,49.55,0,0,0-4,13.19c-4.41-6.83-8.74-7.79-13-2.08-2.08-5.16-6-8.33-11.7-5.38a14.42,14.42,0,0,0-4.87,4.25c-7.41,10-13.65,32.73-4.41,42.57,1.41,1.41,4,2.36,7,3.14"/><path class="cls-10" d="M49,73.43c2.72-2.83,4.32-6.89,5-12"/><path class="cls-10" d="M80.82,54.85c1.93,6.73-1.16,19.18-5.73,23.2-3.5,3.11-8.85.58-11.39-5.11"/><path class="cls-10" d="M68,53.48c1.47,7.14-.53,14-5.13,20.65-4,4.79-9.82,1.21-11.06-5"/><path class="cls-8" d="M278.94,266.26h0c4-3.13,3.45-10.51-1.23-16.48-19.14-33.84-45.25-65.79-75.66-96.56l-14.48,11.34c31.45,32.11,57.74,64.28,75.66,96.56C267.91,267.09,274.94,269.39,278.94,266.26Z"/><path class="cls-9" d="M285.05,250.1c-.79-3.75-2.57-6.37-6.37-6.63,0,0-4.37-.28-11,5.64a23,23,0,0,0-6.78,11.35,5.89,5.89,0,0,0,2.24,6.32,6,6,0,0,0,3.13,1.06Z"/><path class="cls-9" d="M268.67,258.58a8.14,8.14,0,0,0-1.64,4.67l-.27,8.5a52.74,52.74,0,0,1-8.36,20.64,5.13,5.13,0,0,0,.51,6.34c1,1.08,2.41,1.49,4.45.54,6.95-2.44,11.8-7.56,15.17-14.58a83,83,0,0,0,26,11.41,26.33,26.33,0,0,0,3.85.7c3.06.33,5.83.84,8.61.95,3.28.13,6.48-.2,9.12-2.13,4.78-3.49,3.14-7.62-7.47-11.24l9.13-2.69a19.18,19.18,0,0,0,8.5-5.12c6-6.32,2-11.1-8.06-11.22,3-3.81,4.31-7.16,1.33-9.34a5.92,5.92,0,0,0-4.12-1.06l-8.88.93a18.25,18.25,0,0,1-6.5-.49c-5.55-1.45-16.87-4.3-21.36-4.61a55.2,55.2,0,0,0-10.74.54,8,8,0,0,0-4.41,2.07"/><path class="cls-9" d="M297.65,277.82a34.08,34.08,0,0,0,21,6.56"/><path class="cls-8" d="M116.61,358.23h0c-5.08,0-9.2-5-9.2-11.08-5.81-31-5-64.33,0-99h18.4c-5,36.05-5.81,69.58,0,99C125.81,353.27,121.69,358.23,116.61,358.23Z"/><path class="cls-8" d="M181.09,359.06h0c-5.08,0-9.19-5-9.19-11.08,8.5-28.28,7.43-61.89,0-99h18.39c7,35.82,7.69,69.1,0,99C190.29,354.1,186.17,359.06,181.09,359.06Z"/><path class="cls-11" d="M143.94,64.78,54.62,251.55c65.05,21.05,129.62,21.38,193.69,0l-86-186.64A10.13,10.13,0,0,0,143.94,64.78Z"/><path class="cls-12" d="M143.94,64.64,56.56,247.56c65.05,20.56,125.88,20.87,189.94,0L162.28,64.77A10.24,10.24,0,0,0,143.94,64.64Z"/><path class="cls-13" d="M143.94,53.3,61.1,237.43c65.05,20.56,116.8,20.88,180.86,0l-79.68-184A10.24,10.24,0,0,0,143.94,53.3Z"/><path class="cls-14" d="M141.11,84.75l-1.94-6.11c-.73-2.91.45-6.23,2.22-6.25h.07c1.76,0,2.94,3.28,2.23,6.19l-1.87,6.16C141.68,85.27,141.25,85.28,141.11,84.75Z"/><path class="cls-14" d="M133.81,144.07,130,139.85c-1.66-2.14-1.77-5.8-.2-6.91l.06,0c1.56-1.08,3.74,1.1,4.13,4.11l.47,6.61C134.5,144.18,134.13,144.45,133.81,144.07Z"/><path class="cls-14" d="M95.72,197.09l-3.5-5.36c-1.48-2.61-1.25-6.12.46-6.61l.07,0c1.7-.46,3.71,2.37,3.81,5.36l-.15,6.43C96.42,197.44,96,197.57,95.72,197.09Z"/><path class="cls-14" d="M146.3,154.87l-1.93-6.11c-.73-2.91.44-6.23,2.22-6.25h.06c1.77,0,2.94,3.28,2.24,6.19L147,154.86C146.88,155.39,146.45,155.4,146.3,154.87Z"/><path class="cls-14" d="M128.24,109.8l-1.93-6.1c-.73-2.91.44-6.23,2.21-6.25h.07c1.76,0,2.94,3.28,2.24,6.19L129,109.8C128.81,110.33,128.39,110.33,128.24,109.8Z"/><path class="cls-14" d="M220,232.93,218,226.82c-.73-2.91.44-6.23,2.21-6.25h.07c1.76,0,2.94,3.28,2.24,6.19l-1.88,6.16C220.54,233.45,220.11,233.46,220,232.93Z"/><path class="cls-14" d="M81.33,233.32l-1.93-6.11c-.73-2.91.44-6.23,2.22-6.25h.06c1.77,0,2.94,3.28,2.24,6.19l-1.87,6.16C81.91,233.84,81.48,233.85,81.33,233.32Z"/><path class="cls-14" d="M161.61,81.16l-1.94-6.11c-.73-2.91.45-6.23,2.22-6.25H162c1.76,0,2.94,3.28,2.24,6.19l-1.88,6.16C162.18,81.68,161.75,81.69,161.61,81.16Z"/><path class="cls-14" d="M203.41,231.81l-1.94-6.11c-.73-2.91.44-6.23,2.22-6.24h.07c1.76,0,2.93,3.28,2.23,6.19l-1.87,6.15C204,232.33,203.55,232.34,203.41,231.81Z"/><path class="cls-14" d="M150.28,63.49l-1.94-6.1c-.72-2.92.45-6.24,2.22-6.25h.07c1.76,0,2.94,3.28,2.24,6.19L151,63.48C150.85,64,150.42,64,150.28,63.49Z"/><path class="cls-14" d="M154.88,103l-1.94-6.11c-.72-2.91.45-6.23,2.22-6.24h.07c1.76,0,2.94,3.28,2.24,6.19L155.59,103C155.45,103.57,155,103.57,154.88,103Z"/><path class="cls-14" d="M103.87,225.66l-1.94-6.11c-.73-2.91.45-6.23,2.22-6.24h.07c1.76,0,2.94,3.28,2.24,6.18l-1.88,6.16C104.44,226.18,104,226.19,103.87,225.66Z"/><path class="cls-14" d="M160.71,145.21l-.56-6.59c-.08-3.06,1.75-5.8,3.46-5.15l.06,0c1.69.67,2.12,4.26.83,6.78l-3.11,5.19C161.14,145.93,160.73,145.77,160.71,145.21Z"/><path class="cls-14" d="M173.51,101.79l-1.93-6.1c-.73-2.92.44-6.24,2.22-6.25h.06c1.77,0,2.94,3.28,2.24,6.19l-1.87,6.15C174.09,102.32,173.66,102.32,173.51,101.79Z"/><path class="cls-14" d="M178.85,142l2.26-6c1.23-2.74,4.2-4.62,5.6-3.54l.06.05c1.38,1.09.28,4.39-2.07,6.24l-5.28,3.68C179,142.71,178.64,142.45,178.85,142Z"/><path class="cls-14" d="M209.07,198.72l-.41-6.6c0-3.07,1.87-5.74,3.56-5l.06,0c1.68.73,2,4.33.69,6.8L209.75,199C209.5,199.46,209.09,199.29,209.07,198.72Z"/><path class="cls-14" d="M118.1,128.46l-1.94-6.11c-.72-2.91.45-6.23,2.22-6.24h.07c1.76,0,2.94,3.28,2.24,6.19l-1.88,6.15C118.67,129,118.24,129,118.1,128.46Z"/><path class="cls-14" d="M144.77,123l-1.93-6.11c-.73-2.91.44-6.23,2.21-6.25h.07c1.76,0,2.94,3.28,2.24,6.19l-1.88,6.16C145.35,123.47,144.92,123.48,144.77,123Z"/><path class="cls-14" d="M172.92,124.32l-2.72-5.81c-1.1-2.79-.38-6.23,1.38-6.48h.07c1.74-.22,3.34,2.87,3,5.84l-1.05,6.35C173.56,124.76,173.13,124.82,172.92,124.32Z"/><path class="cls-14" d="M117.16,143.05h-5a4.28,4.28,0,0,1-3.45-5.15l0-.09c.69-2.16,3.41-2.33,5.15-.34l3.53,4.7C117.74,142.54,117.58,143.07,117.16,143.05Z"/><ellipse class="cls-15" cx="124.37" cy="176.35" rx="27.14" ry="21.65" transform="translate(-64.18 281.29) rotate(-83.9)"/><path class="cls-16" d="M101,163.74q-1.29-8.31,11.4-16.61"/><path class="cls-16" d="M157.3,193.7c-15.42-1.48-18.69,8.31-5.34,16.61"/><path class="cls-14" d="M130.13,210.31c14.25,5.8,28.2,6.07,41.82,0,9.49-4.75,21.06,4.45,17.5,15.13-13.64,26.1-63.77,26.1-74.45,0C112.33,215.35,119.15,206.45,130.13,210.31Z"/><ellipse class="cls-15" cx="180.75" cy="176.35" rx="27.14" ry="21.65" transform="translate(-13.79 337.35) rotate(-83.9)"/><path class="cls-14" d="M167,156.38l12.16,10.39H167s13.35,7.56,15.72,10.67c1,1.34,1.44,4.38,1.58,7.4A27.1,27.1,0,0,1,179,202.55c-.26.34-.53.68-.81,1-9.88-1.38-15.4-8.51-17.94-16.85C157,176,159.37,163.33,167,156.38Z"/><path class="cls-16" d="M202.58,161.05q1.29-8.3-11.4-16.61"/><path class="cls-17" d="M151.75,227c-3.24-6.2-8.87-3.75-12.13,0s-5.13,15.32-5.13,15.32a65.69,65.69,0,0,0,36.87,0s-2.88-11.8-7-15.32S156.18,222.17,151.75,227Z"/><path class="cls-16" d="M158.6,252.73q13.56.89,19-5.34"/><path class="cls-14" d="M137.93,154.51l-12.16,10.38h12.16s-13.34,7.57-15.72,10.68c-1.15,1.51-1.53,5.2-1.62,8.59a30.42,30.42,0,0,0,4,16.2,20.43,20.43,0,0,0,2,2.83c10.23-2.18,16-11.36,18.09-18.36C147.88,174.16,145.54,161.46,137.93,154.51Z"/></g></g></svg>