<svg id="Capa_1" data-name="Capa 1" xmlns="http://www.w3.org/2000/svg" viewBox="0 0 500 500"><defs><style>.cls-1{fill:#fec4cd;}.cls-2{fill:#fff;stroke:#f96bab;}.cls-10,.cls-11,.cls-2,.cls-3,.cls-4,.cls-5,.cls-6,.cls-7,.cls-8,.cls-9{stroke-miterlimit:10;stroke-width:2px;}.cls-10,.cls-11,.cls-3,.cls-4,.cls-5,.cls-6,.cls-7,.cls-8,.cls-9{fill:none;stroke:#fdb97b;}.cls-4{stroke-dasharray:10.51 10.51;}.cls-5{stroke-dasharray:13.19 13.19;}.cls-6{stroke-dasharray:11.03 11.03;}.cls-7{stroke-dasharray:12.52 12.52;}.cls-8{stroke-dasharray:12.85 12.85;}.cls-9{stroke-dasharray:13.63 13.63;}.cls-10{stroke-dasharray:12.17 12.17;}.cls-11{stroke-dasharray:11.84 11.84;}.cls-12{font-size:64px;fill:#4b9189;font-family:LilitaOne, Lilita One;}.cls-13{letter-spacing:-0.02em;}</style></defs><path class="cls-1" d="M356.68,271.8s27.78,20.8,51.29,1.09,11.75-37.22,11.75-37.22,39-8.21,16-40.51-56.52-6-56.52-6-.65-26.31-39.65-27.95-37.4,23-37.4,23-18.7-41.05-60.92-44.88-73.73,46-73.73,46-10.15-21.35-38.47-8.76-20.3,33.94-20.3,33.94-38.34-3.83-38.14,19.16S101.17,253,101.17,253s1.33,28.07,29.3,31.91,59-17,59-17,39.54,35,91.9,35S356.68,271.8,356.68,271.8Z"/><path class="cls-2" d="M352,267s26,19,48,1,11-34,11-34,36.5-7.5,15-37-52.89-5.47-52.89-5.47S372.5,167.5,336,166c-30-3-35,21-35,21s-17.5-37.5-57-41-69,42-69,42-9.5-19.5-36-8-19,31-19,31-35.88-3.5-35.69,17.5,28.59,21.35,28.59,21.35,1.25,25.65,27.42,29.15,55.18-15.5,55.18-15.5,37,32,86,32S352,267,352,267Z"/><path class="cls-3" d="M346.07,266.86a40.49,40.49,0,0,0,4.3-4.18,44.89,44.89,0,0,0,5.28,2.84"/><path class="cls-4" d="M365.53,269.05c9.1,2.29,21,2.59,31.89-5.48,9.76-7.25,12.89-14.12,13.4-19.48"/><path class="cls-3" d="M410.51,238.86a15.18,15.18,0,0,0-2.31-5.5,43,43,0,0,0,5.76-1.63"/><path class="cls-5" d="M425.28,225.14c5.08-5,7.09-12.88-2.38-24.66-13-16.16-29.67-14.24-40.55-10.39"/><path class="cls-3" d="M376.27,192.66a45.18,45.18,0,0,0-5.21,3,16.62,16.62,0,0,0-1.56-5.76"/><path class="cls-6" d="M362.7,181.3c-5.29-4.21-13.92-7.83-28-8.36-15.13-1.37-23.77,3.61-28.6,8.77"/><path class="cls-3" d="M302.77,186.12a21.08,21.08,0,0,0-2.39,5.48,49.74,49.74,0,0,0-3.17-5.09"/><path class="cls-7" d="M289.27,176.85c-9-9.35-23.69-20-44.75-21.68-26.58-2.13-48.53,16.24-59.69,28"/><path class="cls-3" d="M180.63,187.8c-2.43,2.86-3.74,4.69-3.74,4.69a18.42,18.42,0,0,0-3.87-4.56"/><path class="cls-8" d="M161.54,182.54c-5.12-.87-11.69-.4-19.94,2.84-11.31,4.45-16.3,10.25-18.33,15.38"/><path class="cls-3" d="M122,207a15.79,15.79,0,0,0,1,5.89s-2.42-.21-6-.19"/><path class="cls-9" d="M103.44,214.09c-8.06,1.78-15.52,5.76-15.44,14.38.1,9.93,8,14.66,15.42,16.92"/><path class="cls-3" d="M110.06,246.88a45.46,45.46,0,0,0,6,.56,26.53,26.53,0,0,0,1.22,5.87"/><path class="cls-10" d="M123.17,263.83c4,4.44,10.15,8.35,19.73,9.51,15.8,1.91,32.65-3.75,43.26-8.39"/><path class="cls-3" d="M191.69,262.38c3.34-1.65,5.29-2.81,5.29-2.81s1.72,1.35,4.9,3.45"/><path class="cls-11" d="M212,269.14c15,8.25,39.92,18.86,69.26,18.86,30.25,0,49.81-10.05,60.14-17.48"/><text class="cls-12" transform="translate(133.96 250.21)">RECE<tspan class="cls-13" x="136.77" y="0">T</tspan><tspan x="167.29" y="0">AS</tspan></text></svg>